<svg xmlns="http://www.w3.org/2000/svg" viewBox="0 0 400 400"><defs><style>.cls-1{fill:#339af0;}</style></defs><title>fontawesome</title><g id="Layer_9" data-name="Layer 9"><path class="cls-1" d="M306,63.37H95.21A30.62,30.62,0,0,0,64.77,93.81V304.56A30.62,30.62,0,0,0,95.21,335H306a30.61,30.61,0,0,0,30.43-30.44V93.81A30.61,30.61,0,0,0,306,63.37ZM278.44,235.75c0,2.54-2.18,3.63-4.73,4.72-10.12,4.37-21,8.31-32.62,8.31-16.31,0-23.89-10.12-43.47-10.12-14.13,0-29,5.09-40.93,10.48-.73.37-1.45.37-2.18.73V277.4a7,7,0,0,1-.37,2.91V281a12,12,0,0,1-11.58,8.67,12.24,12.24,0,0,1-12.3-12.31V144.86a20.26,20.26,0,1,1,32.68-16,19.31,19.31,0,0,1-7.95,16v11.21a12.72,12.72,0,0,0,3.28-1.45c11.21-4.73,24.61-8.67,37.29-8.67,13.76,0,24.61,3.64,36.92,8.31a19.49,19.49,0,0,0,7.94,1.45c13.77,0,29-9.76,32.62-9.76,2.91,0,5.46,2.18,5.46,4.73v85.07Z"/></g></svg>