<svg xmlns="http://www.w3.org/2000/svg" xmlns:xlink="http://www.w3.org/1999/xlink" viewBox="0 0 400 400"><defs><style>.cls-1{fill:url(#linear-gradient);}</style><linearGradient id="linear-gradient" x1="296.12" y1="295.37" x2="103.9" y2="103.16" gradientUnits="userSpaceOnUse"><stop offset="0" stop-color="#492678"/><stop offset="1" stop-color="#9e45aa"/></linearGradient></defs><title>github</title><g id="Layer_8" data-name="Layer 8"><path class="cls-1" d="M200,63.37a135.9,135.9,0,0,0-43,264.82c6.8,1.19,9.35-2.89,9.35-6.45,0-3.23-.17-13.93-.17-25.31-34.15,6.28-43-8.33-45.7-16-1.53-3.91-8.15-16-13.93-19.2-4.75-2.55-11.55-8.83-.17-9,10.71-.17,18.35,9.85,20.9,13.93,12.23,20.55,31.76,14.78,39.58,11.21,1.19-8.83,4.75-14.78,8.66-18.18-30.24-3.39-61.83-15.11-61.83-67.09a52.85,52.85,0,0,1,13.93-36.52c-1.36-3.4-6.12-17.33,1.36-36,0,0,11.38-3.56,37.37,13.93a128.27,128.27,0,0,1,67.94,0c26-17.66,37.37-13.93,37.37-13.93,7.48,18.69,2.72,32.62,1.36,36A52.54,52.54,0,0,1,287,192.13c0,52.15-31.76,63.7-62,67.09,4.93,4.25,9.17,12.4,9.17,25.14,0,18.18-.17,32.79-.17,37.38,0,3.56,2.55,7.81,9.35,6.45A136,136,0,0,0,200,63.37Z"/></g></svg>