<svg xmlns="http://www.w3.org/2000/svg" xmlns:xlink="http://www.w3.org/1999/xlink" viewBox="0 0 400 400"><defs><style>.cls-1{fill:none;}.cls-2{clip-path:url(#clip-path);}.cls-3{fill:#fbbc05;}.cls-4{fill:#ea4335;}.cls-5{fill:#34a853;}.cls-6{fill:#4285f4;}</style><clipPath id="clip-path"><path class="cls-1" d="M341.88,172.5H203.5v57.38h79.65c-7.42,36.45-38.47,57.37-79.65,57.37a87.75,87.75,0,0,1,0-175.5,85.88,85.88,0,0,1,54.67,19.57l43.21-43.2C275.05,65.17,241.3,51,203.5,51a148.5,148.5,0,0,0,0,297c74.25,0,141.75-54,141.75-148.5A123.49,123.49,0,0,0,341.88,172.5Z"/></clipPath></defs><title>gsuite</title><g id="Layer_6" data-name="Layer 6"><g class="cls-2"><path class="cls-3" d="M41.5,287.25V111.75L156.25,199.5Z"/></g><g class="cls-2"><path class="cls-4" d="M41.5,111.75,156.25,199.5l47.25-41.18L365.5,132V37.5H41.5Z"/></g><g class="cls-2"><path class="cls-5" d="M41.5,287.25,244,132l53.33,6.75L365.5,37.5v324H41.5Z"/></g><g class="cls-2"><path class="cls-6" d="M365.5,361.5l-209.25-162-27-20.25,236.25-67.5Z"/></g></g></svg>