<svg xmlns="http://www.w3.org/2000/svg" viewBox="0 0 400 400"><defs><style>.cls-1{fill:#98ad68;}.cls-2{fill:#d7e9c0;}</style></defs><title>siteground</title><g id="Layer_4" data-name="Layer 4"><path class="cls-1" d="M158.12,285.32c-35.24-11.52-60.36-45.74-66.51-81.55-17-99,88.32-188.21,193.49-138.65,1.24,22.22-9.1,53.84-37.42,63.35C388.25,217.21,268.09,399,120.76,339.22,93.88,325.53,108.25,300.46,137,315c32.1,11.06,73.8,11.06,100.06-3.47,16.94-9.25,32.09-21.91,42.79-38.09A124.46,124.46,0,0,0,290,254.68c2.23-5.22,9.41-26.88,3.83-29.25-1.4-.57-2.12,1.08-2.54,2.63-3.56,14.37-10.54,26.82-20.1,38a102.23,102.23,0,0,1-43.41,29.72c-21,7.64-45.37,8.63-78.81,1.29,2.17-2.43,6.62-9.05,9.2-11.79M255.12,74a66.06,66.06,0,0,1,.93,9.81c.57,16.44-3.93,27-15.55,38.61-2.38,2.38-5.07,4.81-8,7.39,39.69,24.7,60.41,78.65,37.36,116.38-31.11,50.85-92.71,39.28-126.41,4.5-35.19-36.49-30.49-83.62-5.16-118.55,26.1-36.08,74.1-59.39,116.84-58.14"/><path d="M135.48,185.58c7.55-75.45,94.37-90.39,126.62,10.18,26,103.36-138.56,80.88-126.62-10.18m70.81,49.66c68.52,2.48,35.71-67.59-9.31-83.09-44.6-15.36-69.4,83.09,9.31,83.09"/><path class="cls-2" d="M206.29,235.24c68.52,2.48,35.71-67.59-9.31-83.09-44.6-15.36-69.4,83.09,9.31,83.09"/></g></svg>