<svg xmlns="http://www.w3.org/2000/svg" viewBox="0 0 400 400"><defs><style>.cls-1{fill:#ffae00;}.cls-2{fill:#ec6c00;}.cls-3{fill:#ffefb4;}.cls-4{fill:#fed305;}</style></defs><title>sketch</title><g id="Layer_5" data-name="Layer 5"><g id="Page-1"><g id="Sketch-Flat-Logo"><g id="Group"><g id="Base"><polygon id="Polygon" class="cls-1" points="200.95 347.5 37 157 108.02 60.75 200.95 50.8 293.88 60.75 364.9 157 200.95 347.5"/></g><g id="Bottom-Back"><polygon id="Polygon-2" data-name="Polygon" class="cls-2" points="200.95 347.5 37 157 364.9 157 200.95 347.5"/></g><g id="Bottom-Mid"><polygon id="Polygon-3" data-name="Polygon" class="cls-1" points="200.95 347.5 103.38 157 298.53 157 200.95 347.5"/></g><g id="Top-Mid"><polygon id="Polygon-4" data-name="Polygon" class="cls-3" points="200.95 50.8 103.38 157 298.53 157 200.95 50.8"/></g><g id="Top-Side-Left"><polygon id="Polygon-5" data-name="Polygon" class="cls-1" points="108.02 60.75 71.52 109.21 37 157 104.04 157 108.02 60.75"/></g><g id="Top-Side-Right"><polygon id="Polygon-6" data-name="Polygon" class="cls-1" points="293.88 60.75 330.39 109.21 364.9 157 297.86 157 293.88 60.75"/></g><g id="Top-Left"><polygon id="Polygon-7" data-name="Polygon" class="cls-4" points="108.02 60.75 103.38 157 200.95 50.8 108.02 60.75"/></g><g id="Top-Right"><polygon id="Polygon-8" data-name="Polygon" class="cls-4" points="293.88 60.75 298.53 157 200.95 50.8 293.88 60.75"/></g></g></g></g></g></svg>