<svg id="Layer_1" data-name="Layer 1" xmlns="http://www.w3.org/2000/svg" xmlns:xlink="http://www.w3.org/1999/xlink" viewBox="0 0 354.1 235.38"><defs><style>.cls-1{fill:url(#linear-gradient);}.cls-2{fill:url(#linear-gradient-2);}.cls-3{fill:url(#linear-gradient-3);}.cls-4{fill:url(#linear-gradient-4);}.cls-5{fill:url(#linear-gradient-5);}.cls-6{fill:url(#linear-gradient-6);}.cls-7{fill:url(#linear-gradient-7);}.cls-8{fill:#fff;}.cls-9{fill:#f0dde8;}.cls-10{fill:url(#linear-gradient-8);}.cls-11{fill:url(#linear-gradient-9);}.cls-12{fill:#24338a;}.cls-13{fill:url(#linear-gradient-10);}.cls-14{fill:url(#linear-gradient-11);}</style><linearGradient id="linear-gradient" x1="13.38" y1="135.7" x2="45.2" y2="80.58" gradientTransform="matrix(1, 0, 0, -1, 0, 311.83)" gradientUnits="userSpaceOnUse"><stop offset="0" stop-color="#24338a"/><stop offset="1" stop-color="#b6578a"/></linearGradient><linearGradient id="linear-gradient-2" x1="63.74" y1="141.59" x2="101.96" y2="75.37" xlink:href="#linear-gradient"/><linearGradient id="linear-gradient-3" x1="137.83" y1="138.48" x2="175.87" y2="72.58" xlink:href="#linear-gradient"/><linearGradient id="linear-gradient-4" x1="192.99" y1="150.89" x2="233.38" y2="80.95" xlink:href="#linear-gradient"/><linearGradient id="linear-gradient-5" x1="226.39" y1="157.21" x2="269.03" y2="83.36" xlink:href="#linear-gradient"/><linearGradient id="linear-gradient-6" x1="275.33" y1="138.47" x2="313.38" y2="72.57" xlink:href="#linear-gradient"/><linearGradient id="linear-gradient-7" x1="322.83" y1="147.92" x2="360.58" y2="82.52" xlink:href="#linear-gradient"/><linearGradient id="linear-gradient-8" x1="136.87" y1="252.41" x2="144.24" y2="239.64" gradientTransform="matrix(1, 0, 0, -1, 0, 274.5)" xlink:href="#linear-gradient"/><linearGradient id="linear-gradient-9" x1="167.41" y1="248.13" x2="186.55" y2="214.96" gradientTransform="matrix(1, 0, 0, -1, 0, 274.5)" xlink:href="#linear-gradient"/><linearGradient id="linear-gradient-10" x1="193.93" y1="216.75" x2="204.15" y2="199.05" gradientTransform="matrix(1, 0, 0, -1, 0, 274.5)" xlink:href="#linear-gradient"/><linearGradient id="linear-gradient-11" x1="152.57" y1="213.74" x2="168.35" y2="186.41" gradientTransform="matrix(1, 0, 0, -1, 0, 274.5)" xlink:href="#linear-gradient"/></defs><title>so-logo-vertical-white-nocircle</title><path class="cls-1" d="M29,188.56a4.84,4.84,0,0,0-2.46.54,1.62,1.62,0,0,0-.93,1.42q0,1.31,2,2.18a47.46,47.46,0,0,0,6.56,2.07,99.08,99.08,0,0,1,11,3.6,21.63,21.63,0,0,1,8,5.67A14.24,14.24,0,0,1,56.61,214a17.67,17.67,0,0,1-3.33,10.68,21.35,21.35,0,0,1-9.45,7.08,37.63,37.63,0,0,1-14.32,2.51q-16.72,0-29.18-8.5l7.42-15.26q12,7.41,22.08,7.41a6.24,6.24,0,0,0,2.73-.49c.66-.33,1-.74,1-1.25,0-.8-.64-1.47-1.91-2a46.69,46.69,0,0,0-6.18-1.91,81,81,0,0,1-10.93-3.49,21.8,21.8,0,0,1-7.92-5.67,14.4,14.4,0,0,1-3.44-10,18.29,18.29,0,0,1,3.28-10.85A21.28,21.28,0,0,1,15.7,175a34.77,34.77,0,0,1,13.83-2.56A56.16,56.16,0,0,1,57.29,180L49.2,195.14Q35.84,188.56,29,188.56Z" transform="translate(0 -37.5)"/><path class="cls-2" d="M112.27,176.46a25.2,25.2,0,0,1,9.62,10.85,37.41,37.41,0,0,1,3.39,16.4,36.79,36.79,0,0,1-3.28,16,24.31,24.31,0,0,1-9.34,10.57A26.61,26.61,0,0,1,98.51,234a21.55,21.55,0,0,1-8.85-1.8,20,20,0,0,1-7-5.18v17.26H58.06V173.52H82.65v6a19.11,19.11,0,0,1,15.19-6.87A27.07,27.07,0,0,1,112.27,176.46ZM98,211.45a15.55,15.55,0,0,0,0-16.79,7.84,7.84,0,0,0-6.5-3.16,7.69,7.69,0,0,0-6.45,3.16,15.85,15.85,0,0,0,0,16.79,7.68,7.68,0,0,0,6.45,3.16A7.83,7.83,0,0,0,98,211.45Z" transform="translate(0 -37.5)"/><path class="cls-3" d="M179.18,178.26q7.27,5.83,7.27,16.3v38.59H162.3v-6.43q-5.47,7.52-16.83,7.52-9.4,0-14.7-5.07t-5.3-13.68q0-8.83,5.9-13.41t17.27-4.8H162.3a5.88,5.88,0,0,0-2.46-4.85q-2.35-1.69-6.83-1.69a43.19,43.19,0,0,0-8.36,1,63.29,63.29,0,0,0-9.78,2.83l-5.47-16.35a97,97,0,0,1,15.24-4.35,75.18,75.18,0,0,1,14.26-1.47Q171.91,172.43,179.18,178.26Zm-20.55,39.19a9.89,9.89,0,0,0,3.66-3.38v-5.45h-8.53q-5.25,0-5.25,4.8a5.1,5.1,0,0,0,1.42,3.87,5.61,5.61,0,0,0,4,1.36,9.72,9.72,0,0,0,4.71-1.21Z" transform="translate(0 -37.5)"/><path class="cls-4" d="M234,230.52a25.26,25.26,0,0,1-7.71,2.73,47.72,47.72,0,0,1-9.67,1q-10.06,0-16.12-5.5T194.43,214V189h-8.2V173.52h8.2V160.11h24.48v13.41h14V189h-14v21.25a5.2,5.2,0,0,0,1.31,3.76,4.31,4.31,0,0,0,3.5,1.25,19.24,19.24,0,0,0,6.12-1.53Z" transform="translate(0 -37.5)"/><path class="cls-5" d="M257.16,147.57a13.26,13.26,0,1,1-9-3.49A12.09,12.09,0,0,1,257.16,147.57Zm-21,25.94h24.59v59.62H236.18Z" transform="translate(0 -37.5)"/><path class="cls-6" d="M316.68,178.26q7.27,5.83,7.27,16.3v38.59H299.79v-6.43q-5.47,7.52-16.83,7.52-9.4,0-14.7-5.07T263,215.48q0-8.83,5.9-13.41t17.27-4.8h13.66a5.88,5.88,0,0,0-2.46-4.85q-2.35-1.69-6.83-1.69a43.19,43.19,0,0,0-8.36,1,63.29,63.29,0,0,0-9.78,2.83l-5.47-16.35a97,97,0,0,1,15.21-4.34,75.18,75.18,0,0,1,14.26-1.47Q309.41,172.43,316.68,178.26Zm-20.55,39.19a9.89,9.89,0,0,0,3.66-3.38v-5.45h-8.53q-5.25,0-5.25,4.8a5.1,5.1,0,0,0,1.42,3.87,5.61,5.61,0,0,0,4,1.36,9.72,9.72,0,0,0,4.7-1.21Z" transform="translate(0 -37.5)"/><path class="cls-7" d="M329.41,160.11H354v73H329.41Z" transform="translate(0 -37.5)"/><path class="cls-8" d="M11.84,272.87A11.83,11.83,0,0,1,1.6,267.1,11.2,11.2,0,0,1,0,261.27a11,11,0,0,1,1.6-5.8,11.73,11.73,0,0,1,4.29-4.17,11.87,11.87,0,0,1,5.94-1.54,11.87,11.87,0,0,1,5.94,1.54h0a11.76,11.76,0,0,1,4.29,4.17,11.06,11.06,0,0,1,1.6,5.8,11.21,11.21,0,0,1-1.6,5.83A11.83,11.83,0,0,1,11.84,272.87Zm0-19.26a7.62,7.62,0,0,0-3.89,1H8a7.78,7.78,0,0,0-2.84,2.79,7.31,7.31,0,0,0-1,3.85,7.46,7.46,0,0,0,1,3.88,7.73,7.73,0,0,0,13.4,0,7.46,7.46,0,0,0,1-3.88,7.32,7.32,0,0,0-1-3.85,7.83,7.83,0,0,0-2.83-2.79,7.57,7.57,0,0,0-3.86-1Z" transform="translate(0 -37.5)"/><path class="cls-8" d="M48,272.69H44V249.94h8.66a9.93,9.93,0,0,1,6.62,2h0a7.31,7.31,0,0,1,2.45,5.93,7.68,7.68,0,0,1-2.44,6A9.69,9.69,0,0,1,52.66,266H48Zm0-10.55h4.52A6,6,0,0,0,56.46,261h0a3.82,3.82,0,0,0,1.3-3.15,3.64,3.64,0,0,0-1.23-3,6.2,6.2,0,0,0-4-1.08H48Z" transform="translate(0 -37.5)"/><path class="cls-8" d="M97.91,272.69H81.62V249.94h15.9v3.85H85.68v5.41h10.6v3.85H85.68v5.82H97.91Z" transform="translate(0 -37.5)"/><path class="cls-8" d="M137.71,272.69h-4.83L128.42,266h-5.64v6.71h-4.05V249.94h8.75a10,10,0,0,1,6.66,2,7.29,7.29,0,0,1,2.48,5.86,8.16,8.16,0,0,1-1.44,4.89,7.16,7.16,0,0,1-2.82,2.3Zm-14.93-10.55h4.7a6,6,0,0,0,3.93-1.12,3.84,3.84,0,0,0,1.25-3.14,3.64,3.64,0,0,0-1.23-3,6.15,6.15,0,0,0-3.94-1.08h-4.7Z" transform="translate(0 -37.5)"/><path class="cls-8" d="M178.27,272.69h-4.43l-2.46-5.52H161.17l-2.43,5.52h-4.4l10.25-22.75H168Zm-15.42-9.37h6.84l-3.44-7.74Z" transform="translate(0 -37.5)"/><path class="cls-8" d="M203,272.69h-4.05V253.78h-6.86v-3.91h17.77v3.87H203Z" transform="translate(0 -37.5)"/><path class="cls-8" d="M233.29,272.69h-4.05V249.94h4.05Z" transform="translate(0 -37.5)"/><path class="cls-8" d="M265.44,272.87a11.83,11.83,0,0,1-10.24-5.77,11.2,11.2,0,0,1-1.6-5.83,11,11,0,0,1,1.6-5.8,11.75,11.75,0,0,1,4.29-4.17,12.23,12.23,0,0,1,11.89,0h0a11.76,11.76,0,0,1,4.29,4.17,11.06,11.06,0,0,1,1.6,5.8,11.21,11.21,0,0,1-1.6,5.83A11.83,11.83,0,0,1,265.44,272.87Zm0-19.26a7.62,7.62,0,0,0-3.89,1h0a7.79,7.79,0,0,0-2.84,2.79,7.31,7.31,0,0,0-1,3.85,7.46,7.46,0,0,0,1,3.88,7.81,7.81,0,0,0,2.84,2.83,7.73,7.73,0,0,0,10.56-2.83,7.45,7.45,0,0,0,1-3.88,7.31,7.31,0,0,0-1-3.85,7.81,7.81,0,0,0-2.83-2.79,7.57,7.57,0,0,0-3.81-1Z" transform="translate(0 -37.5)"/><path class="cls-8" d="M316.66,272.69H313l-11.34-15.5v15.5h-4V249.94h3.68l11.37,15.51V249.94h4Z" transform="translate(0 -37.5)"/><path class="cls-8" d="M345.55,272.87a11.92,11.92,0,0,1-4.61-.94,12.42,12.42,0,0,1-3.86-2.49l-.56-.54,2-3.51.93.91a9.25,9.25,0,0,0,2.92,1.93,8.37,8.37,0,0,0,3.24.7,5.6,5.6,0,0,0,3.2-.79,2,2,0,0,0,1-1.77,2.19,2.19,0,0,0-.47-1.48,3.71,3.71,0,0,0-1.38-1c-.65-.28-1.6-.62-2.82-1a30.64,30.64,0,0,1-3.49-1.27,6.73,6.73,0,0,1-2.54-2A5.71,5.71,0,0,1,338,256a5.48,5.48,0,0,1,1.09-3.36A6.66,6.66,0,0,1,342,250.5a12.28,12.28,0,0,1,7.76-.16,13,13,0,0,1,3.27,1.45l.77.49-1.8,3.54-.93-.58a9.8,9.8,0,0,0-2.53-1.12c-2.33-.66-4.32-.46-5.45.29a1.63,1.63,0,0,0-.84,1.46,2,2,0,0,0,.46,1.41,4,4,0,0,0,1.41,1,27,27,0,0,0,2.74,1,25.24,25.24,0,0,1,3.53,1.28,7,7,0,0,1,2.56,2,6.34,6.34,0,0,1,0,7.21,7,7,0,0,1-3,2.31A11.18,11.18,0,0,1,345.55,272.87Z" transform="translate(0 -37.5)"/><path class="cls-9" d="M138.7,90.38l6.85,3.15L138.7,96.7V90.38m-3-4.68v15.68l17-7.87-17-7.82Z" transform="translate(0 -37.5)"/><path class="cls-9" d="M215,65v6.31l-6.85-3.17L215,65m3-4.68-17,7.82L218,76Z" transform="translate(0 -37.5)"/><polygon class="cls-10" points="135.62 22.81 135.62 37.95 152.04 30.36 135.62 22.81"/><polygon class="cls-11" points="138.69 42.95 177.11 60.59 215.27 42.96 194.66 33.5 176.84 41.72 159.04 33.55 138.69 42.95"/><polygon class="cls-12" points="138.4 17.63 176.83 35.28 214.99 17.64 176.56 0 138.4 17.63"/><polygon class="cls-13" points="180.22 65.67 180.2 85.05 217.93 67.5 217.93 48.23 180.22 65.67"/><polygon class="cls-14" points="138.69 68.78 173.84 84.92 173.84 65.53 159.74 59.05 138.69 68.78"/></svg>