<?xml version="1.0" encoding="utf-8"?>
<!-- Generator: Adobe Illustrator 21.1.0, SVG Export Plug-In . SVG Version: 6.00 Build 0)  -->
<svg version="1.1" id="Layer_1" xmlns="http://www.w3.org/2000/svg" xmlns:xlink="http://www.w3.org/1999/xlink" x="0px" y="0px"
	 viewBox="0 0 733 528" style="enable-background:new 0 0 733 528;" xml:space="preserve">
<style type="text/css">
	.st0{fill:#F11424;}
</style>
<title>ahs</title>
<g id="Dfi3VH.tif">
	<path d="M606,528l-6-1.8c2.1-6.9,3.2-14.6,6.6-20.9c7.3-13.7,6.2-26.3-0.2-40s-11.1-28.5-16.5-42.8c-2.8-7.5-2.8-7.5-11.2-7.5h-4.1
		v75.7c-7.5,0.4-13.9,0.8-20.3,1.1c-1.5,0.1-3-0.2-4.5-0.2c-9.7-0.1-9.5-0.1-9.7-9.6c-0.3-21.1-0.8-42.3-0.9-63.4
		c0-4.1-1.8-4.7-5.2-4.6c-8.3,0.3-8.4,0.2-8-8.2c0.2-4.7,0.8-9.3,0.7-14c0-3.9,1.8-4.8,5.2-4.8c8.5-0.2,8.5-0.3,8.5-8.9
		c0-6.5,0.1-13,0-19.5c-0.1-3.2,1.1-4.5,4.4-4.5c9,0.1,17.9,0,27.5,0c0.4,9.7,1,18.5,1.1,27.2c0,4,1.5,5.8,5.5,5.8
		c9.5,0.2,19,0.7,28.4,0.9c3.4,0.1,5.4,1.1,6.6,4.6c4.5,12.8,9.4,25.6,14.2,38.3c0.6,1.7,1.4,3.3,2.6,6c1-2.2,1.7-3.6,2.3-5
		c5.3-13.3,10.7-26.5,15.8-39.9c1.1-2.9,2.6-4.3,5.8-4.3c9.4,0.1,18.8,0,29.2,0c-0.8,2.8-1.2,4.5-1.8,6.1
		c-16.2,43-32.4,85.9-48.2,129c-1.7,4.6-5.3,3.4-8,5H606V528z"/>
	<path d="M0,174h30.7v41.5c5.7-6.5,13.8-10.4,22.5-11c21.5-1.8,37.8,10.2,40.6,30.3c0.7,5.5,1,10.9,0.9,16.4c0.1,19.3,0,38.6,0,58.3
		H63.8c0-1.8,0-3.6,0-5.3c0-16.2,0-32.3,0-48.5c0-3-0.3-6-0.8-8.9c-1.5-8.7-6.9-13.4-15.2-13.7c-8.7-0.2-14.5,4.2-16.4,13
		c-0.5,2.6-0.7,5.3-0.6,8c0,16.7,0,33.3,0,50c0,1.8,0,3.6,0,5.9H0V174z"/>
	<path d="M733,268h-76.4c-0.7,9.1,7.7,17.4,16.3,19c8,1.7,16.2-0.6,22.3-6c2.1-1.7,4.7-2.7,7.4-2.8c8.5-0.3,17-0.1,25.5-0.1
		c0.5,0.1,1,0.3,1.4,0.6c-7.7,16.8-19.4,29-37.8,33.2c-28.8,6.7-57.6-11.1-64.4-40c0-0.1,0-0.2-0.1-0.2
		c-6.9-29.8,11.4-59.4,40.8-66.1c29-6.6,57.3,11.9,63.8,41.7c0.3,1.3,0.7,2.5,1.1,3.7L733,268z M657.2,247.1h44.5
		c-2.3-10.5-11.3-16.8-23.1-16.6C667.4,230.7,659.1,237,657.2,247.1z"/>
	<path d="M548,0v33.8h14.5v23h-14.4v78.8h-30.9V57.3h-14.7V34H517V0H548z"/>
	<path d="M216,0v33.6h14.8v23.2h-14.4v78.8h-30.7V57.4H171V33.8h14V0H216z"/>
	<path d="M267,0c-0.2,2.1-0.5,4.3-0.5,6.4c0,41.1,0,82.3,0,123.4v6h-30.3c-0.1-1.2-0.4-2.3-0.4-3.4c0-43.5,0-86.9,0-130.4
		c0-0.7,0.1-1.3,0.1-2L267,0z"/>
	<path class="st0" d="M298.4,205.9c9-11.2,19.8-18.4,33.9-20.1c21.4-2.6,44.4,13.4,49.4,35.8c6,26.4,0.3,51.3-12.6,74.6
		c-15.5,27.9-39.3,47-67.9,60.5c-1.6,0.7-3.4,0.8-5.1,0.2c-37-17.5-65.5-43.2-78.3-83.3c-5.4-16.7-7.3-33.9-3.1-51.2
		c4.6-19.2,17.5-31.1,36.1-35.7c18.2-4.5,33.2,3,45.3,16.7C296.7,204.2,297.4,204.9,298.4,205.9z M298.3,241.7
		c-3.5-3-7-6.8-11.1-9.3c-12.1-7.3-25.2-1.4-28.5,12.4c-2.3,9.4,0.4,17.8,4.9,25.8c7.9,13.9,19.5,24.3,32.3,33.5
		c1.3,0.8,2.9,0.8,4.3,0.2c13.8-9.7,26.1-20.8,34-36c3.7-7.1,5.5-14.6,4-22.6c-2.6-14.4-16.8-21-29.2-13.1
		C305,235.1,301.7,238.8,298.3,241.7L298.3,241.7z"/>
	<path d="M358.3,41.3l0.4-7.1h30.4v101.5h-30.3l-0.7-7.6c-14.4,14.5-31.3,13.3-48.1,8.1c-18-5.5-28.2-19.1-31.8-37.1
		c-3.7-18.7-1.3-36.5,11.6-51.7c12.4-14.5,35.8-21.3,53.8-14.9C348.8,34.2,353.3,38.2,358.3,41.3z M358.5,85
		c0.1-14.5-10.8-25.6-25.4-25.8c-14-0.2-25.5,11.4-25.5,25.8c-0.1,14.1,11.2,25.7,25.3,25.8c0.1,0,0.1,0,0.2,0
		C347.6,110.8,358.4,99.8,358.5,85L358.5,85z"/>
	<path d="M134.9,41.5v-7.3h30.7v101.5H135v-7.6l-1.7-1.4c-0.2,1.1-0.6,2.2-1.2,3.1c-4.5,5.5-10.7,7.9-17.4,8.8
		c-38.7,5.2-61-20-61.6-51.6C52.7,70.7,56.8,55.9,69,44.4c14.4-13.6,31.7-17.1,50.4-12.1C124.8,33.8,129.6,38.3,134.9,41.5z
		 M134.9,85.1c0.2-14.1-11.1-25.7-25.1-25.9c-0.3,0-0.6,0-0.9,0c-14,0.2-25,11.5-25,25.8c0,14.5,11.3,26,25.5,25.8
		c14,0.1,25.4-11.2,25.5-25.2C134.8,85.4,134.8,85.2,134.9,85.1L134.9,85.1z"/>
	<path d="M502.8,309.7h-30.5l-0.4-7.8c-14.1,14.5-31,13.4-47.9,8.3c-17.8-5.4-28.1-18.7-31.9-36.5c-4-18.3-1.8-35.9,10.3-51.1
		c12.2-15.5,35.9-22.8,54.6-16.3c5.4,1.9,10,5.9,14.9,8.9l0.3-6.8h30.5L502.8,309.7z M472.2,259.2c0.1-15-10.8-26-25.5-26
		c-14,0-25,11.2-25.1,25.5c-0.1,14.5,10.8,25.8,25.2,26S472.1,273.9,472.2,259.2L472.2,259.2z"/>
	<path d="M647.2,41.9v-7.7h30.5v101.4h-30.3l-0.3-6.2c-5.4,2.8-10.8,7.2-16.8,8.4c-39.1,7.9-66.6-17.8-64.6-56.1
		c1.1-22.5,11.1-39.5,32.9-48c9.6-3.7,20-4.5,30-2.5C635.8,32.6,642.4,36.4,647.2,41.9z M647.2,84.8c0-14.7-10.9-25.6-25.5-25.6
		c-14.2,0-25.2,11.4-25.2,26c-0.1,14,11.1,25.5,25.1,25.6c0.2,0,0.4,0,0.6,0C636.8,110.6,647.2,99.7,647.2,84.8L647.2,84.8z"/>
	<path d="M247.4,440.4c-0.2,31.4-30.7,55.2-57.4,52.5c-30.7-2.8-53.4-29.9-50.7-60.7c2.5-29.4,29.3-52.6,58-50.2
		C227.1,384.8,249.7,410.9,247.4,440.4z M193,459.2c12.1,0.3,21.3-9,21.5-21.8c0.2-11.7-8.9-20.9-21.1-21.3
		c-8.4-0.2-20.5,6.4-20.6,21.1C172.7,449.5,181.2,458.9,193,459.2z"/>
	<path d="M525.5,449.6h-75c-0.7,8.3,6.2,16.5,15.3,18.3c8.7,1.8,16.4,0,23.2-6.2c1.8-1.6,4.1-2.5,6.4-2.6c9-0.3,18-0.1,27-0.1
		c-4,21.7-34,39.4-58.7,34.6c-30.3-5.8-49.5-34.2-43.4-64.2s34-48.8,63.1-42.8C516.8,393.3,530.3,425.6,525.5,449.6z M450.8,428.1
		h44.1c-1.2-9.4-10.3-16.3-21.5-16.6C461.9,411.2,452.7,417.8,450.8,428.1z"/>
	<path d="M360.4,450.2c-0.3,13.5-7.8,22.9-17.4,30.8c-17.5,14.5-44.2,16-63.1,4c-21.1-13.4-30.5-36.3-24.8-60.9
		c5-21.3,25.3-38.8,47.7-41c25.9-2.6,50,13.5,57.4,38.4c0.5,2.2,0.8,4.4,0.9,6.7c-8,0-15.5,0-23,0c-2.5,0-5,0.5-7.5,0.2
		c-1.9-0.2-3.6-1.1-4.9-2.6c-6.3-8.6-13.9-11.4-23.8-8.6c-8.7,2.5-14.4,10-15,19.7s4.7,18.9,13.3,22.6c8.4,3.7,18.7,1.3,25.8-6.7
		c2.3-2.8,5.8-4.3,9.4-3.9c7.8,0.4,15.6,0.5,23.5,0.7C359.3,449.6,359.6,449.9,360.4,450.2z"/>
	<path d="M174.8,208.1h30.7v101.5h-28.8l-0.6-7.8c-13.8,14.7-29.8,14.2-45.9,6.9c-11.3-5.1-18.4-15-18.9-27.5
		c-0.9-24-0.5-48-0.7-71.9c0-0.3,0.2-0.6,0.5-1.2h30.4c0,1.9,0,3.7,0,5.5c0,16.8,0,33.7,0,50.5c0,2,0.1,4,0.3,6
		c1.1,9.9,5.5,14.2,15,14.7c8.8,0.5,15.5-4.5,17.3-13.3c0.5-2.6,0.7-5.3,0.7-7.9C174.9,245.2,174.8,226.9,174.8,208.1z"/>
	<path d="M495.8,135.8h-30.4c0-2.2,0-4.2,0-6.1c-0.1-18,0-36-0.5-54c-0.4-12.8-8.6-18.6-20.9-15.7c-6.5,1.5-9.9,5.9-11,12.2
		c-0.6,3.9-0.9,7.9-0.9,11.9c-0.1,17.1,0,34.2,0,51.7h-30.4V34H430v8.9c4.1-3.2,7.4-6.6,11.3-8.8c24-12.9,53.8,3.8,54.5,30.9
		c0.6,22.8,0.2,45.6,0.2,68.5C496.1,134.3,496,135,495.8,135.8z"/>
	<path d="M583.8,309.6c0-18.5,0-36.7,0-54.8c0-2.3-0.1-4.7-0.5-7c-1.6-10.3-6.7-14.9-16.1-14.6c-9.7,0.3-15.8,5.9-16.1,16.1
		c-0.4,17.5-0.2,35-0.3,52.5c0,2.5,0,5,0,7.9h-30.6V208.1h28.3l0.5,9c13-15.1,28.7-15.4,45-9.1c11.9,4.6,19.6,13.9,19.9,26.9
		c0.6,24.8,0.2,49.6,0.2,74.7L583.8,309.6z"/>
	<path d="M47,458.1c10.1,0,19.7-0.1,29.3,0.1c1.5,0,2.9,2,4.4,3.1c2.4,1.8,4.7,4.7,7.3,5.1c3.6,0.6,7.7-0.9,8.5-5.3
		c0.8-4-2.3-6.2-5.5-7.3c-7.7-2.7-15.7-4.5-23.2-7.5c-24.1-9.8-21.7-39-9.7-51c9.9-9.8,22.1-13.9,36-13c11.8,0.7,22,5.1,29.5,14.6
		c4.5,5.3,6.7,12.3,6,19.2c-9.9,2.7-20,2-30.1,0.7c-0.9-0.1-1.5-1.8-2.3-2.7c-1.4-1.6-2.7-4.4-4.2-4.5c-2.6-0.2-5.9,0.7-7.7,2.4
		c-1,1-0.4,5.2,1,6.7c1.9,2,5,3.2,7.7,4.1c7.1,2.4,14.5,3.9,21.4,6.7c22.6,9.2,21.1,38.1,8.2,50.1c-16.4,15.3-43.5,17.7-62,5
		C52.4,478.5,47,470,47,458.1z"/>
	<path d="M373.8,490.1c0-14.9,0-28.5,0-42.1c0-18.5,0.2-37,0.1-55.5c0-4.2,1.2-6,5.7-5.8c7,0.5,14,0.5,21,0.3c4.7-0.2,5.7,2,5.6,6
		c-0.2,16.2-0.1,32.3-0.2,48.5c-0.1,14.7-0.3,29.3-0.5,43.9c0,2.6-0.2,4.7-3.6,4.7C393.1,490.1,384.3,490.1,373.8,490.1z"/>
	<path d="M405.4,353v26.1h-30.6c-0.4-7.7-1-15.1-1-22.5c0-1.2,2.3-3.4,3.6-3.4C386.5,352.9,395.4,353,405.4,353z"/>
</g>
</svg>
