<svg id="Layer_1" data-name="Layer 1" xmlns="http://www.w3.org/2000/svg" xmlns:xlink="http://www.w3.org/1999/xlink" viewBox="0 0 1059.55 351.69"><defs><style>.cls-1,.cls-2{fill:none;}.cls-2{stroke:#2ebca1;stroke-miterlimit:10;stroke-width:12px;}.cls-3{fill:#82d7c7;}.cls-4{fill:#2cb99c;}.cls-5{clip-path:url(#clip-path);}.cls-6{fill:#2ebca1;}.cls-7{fill:#fff;}.cls-8{clip-path:url(#clip-path-2);}</style><clipPath id="clip-path" transform="translate(-118.15 -336.22)"><circle class="cls-1" cx="294" cy="512.07" r="151.85"/></clipPath><clipPath id="clip-path-2" transform="translate(-118.15 -336.22)"><circle class="cls-2" cx="294" cy="512.07" r="169.85"/></clipPath></defs><title>brn</title><g id="xpCEBx.tif"><path class="cls-3" d="M1081.84,503.14c-7.46,0-17.85-.06-24.84,0-2-3.18-.56-.83-1.88-2.89-8.08-12.59-16.28-25.1-24.41-37.65-2.9-4.47-5.71-9-9.18-14.5-.22,2.83-.49,4.72-.5,6.6,0,13.74,0,34.52,0,48.25-7,0-21.32.15-28.66.15V398c11.67,0,8.15.28,12.32.1s8.05,0,12.69,0l35.91,54.44V398H1082C1082,503,1082,398,1081.84,503.14Z" transform="translate(-118.15 -336.22)"/><path class="cls-3" d="M572.74,447.18a17.11,17.11,0,0,0,2.47,2.21c10.8,6.32,13.43,16.67,11.75,27.71-1.76,11.62-8.86,19.88-20.81,22.9a95.84,95.84,0,0,1-25.31,3.2c-12.12-.21-24.25-.05-36.3-.05-.54-105.15-.06-.64-.41-105a29.81,29.81,0,0,1,4-.05c13.48,0,27-.17,40.43.07,7,.13,13.67,1.63,19.67,5.59,11.21,7.41,15.53,20.64,10.33,32.88C577.09,440,575,443.16,572.74,447.18Zm-40,14v17.75c5.75,0,11.1.3,16.4-.12a20.7,20.7,0,0,0,8.21-2.73c5.56-3.14,5.58-9.53.19-12.86a11.4,11.4,0,0,0-5.19-2C545.92,461,539.51,461.16,532.71,461.16Zm0-38.82v14.5c4.89,0,9.4.17,13.89,0,5.11-.24,8.29-3.33,8.44-7.75.13-3.73-2.94-6.35-8.42-6.66C542.13,422.14,537.61,422.34,532.7,422.34Z" transform="translate(-118.15 -336.22)"/><path class="cls-3" d="M570.52,585.1l21.53,38.09c-5.26,1.67-19.65,2-30.71.69-5.27-8.89-10.75-18-16.14-27.24-3.73-6.36-3.67-6.39-12.92-5.28,0,5.17,0,10.47,0,15.78,0,3.23,0,6.46,0,9.7-.07,7.42-.28,7.65-7.73,7.7-6.72,0-13.44,0-20.08,0C504,520,504,624,503.67,520c1.69-.17,3.48-.51,5.27-.51,12.66,0,25.33-.33,38,.09,9.09.3,17.89,2,25.57,7.76,17,12.72,20,34.61,5.37,50.95C575.72,580.66,573.17,582.66,570.52,585.1Zm-37.88-18.84c6.4,0,12.28.32,18.1-.09a12,12,0,0,0,10.64-10.43c.45-4.81-2.87-8.79-8.71-10.83-6.54-2.29-13.1-.92-20-1Z" transform="translate(-118.15 -336.22)"/><path class="cls-3" d="M675.77,624.39l-7-18.8H636.58l-7.46,18.53H599.3c-.29-.94-.71-1.53-.56-1.92q18.45-49.47,37-98.91a25.19,25.19,0,0,1,2-3.54h30L707,623c-.62.66-1,1.35-1.32,1.35C695.73,624.4,685.78,624.39,675.77,624.39Zm-31.25-43.5c5.58-.14,10.52.84,15.48-.8L652.46,559Z" transform="translate(-118.15 -336.22)"/><path class="cls-3" d="M626.61,462.75v16h49.5c.06,7.15.16,13.78.13,20.4,0,2.57-1.56,3.87-4.11,4-.81,0-1.62,0-2.42,0-22.09,0-44.18,0-66.27,0-5.46,0-6.24-.73-6.25-5.91q-.09-48.09,0-96.18a13.12,13.12,0,0,1,.61-2.6h74.88c0,23.56-.11,15.48.33,23.56-23.24,0-15.66.16-23.37.28-7.5.12-15,0-22.94,0v16H668c0,12.73,0-.27.32,24.3-7.3.06-14.21.15-21.12.18C640.51,462.78,633.82,462.75,626.61,462.75Z" transform="translate(-118.15 -336.22)"/><path class="cls-3" d="M1129.73,462.87v16h48V502l-76.31.71s-.39.27-1.16-103.5c24.84,0,50.46-.72,75.72-.72v23.17c-44,.32-47,.32-47,.32s.39,13.29.39,16.47h41.76v24C1157.6,463.1,1144,462.48,1129.73,462.87Z" transform="translate(-118.15 -336.22)"/><path class="cls-4" d="M1037.12,521.36h16.4v68.78c3.91.29,3.83-2.62,4.46-4.25,3-7.71,5.56-15.55,8.34-23.33,3.86-10.79,7.51-21.66,11.74-32.31,2.54-6.41,2.72-6,8.91-6,2.43,0,4.86,0,7.28-.1,2.06-.12,4.11-.49,6.42-.78,2.41,5.54.91,11.24,1.18,16.76s.08,11.32.1,17q0,8.09,0,16.18c0,5.56,0,11.11,0,17.81,4.86-4.36,5.52-9.44,7.15-13.74,6.14-16.19,11.77-32.58,17.37-49,3.71-10.87,1-8.51,12.54-8.91,1.86-.07,3.72,0,6.53,0-.3,2.48-.17,4.57-.82,6.37-6.51,18.05-12.94,36.13-19.8,54-5.16,13.46-11.14,26.6-16.24,40.07-1.33,3.52-3,4.64-6.35,4.55-4.57-.13-9.15,0-14.46,0-.69-5.6-1.8-11-1.94-16.52-.32-12.66-.17-25.34-.21-38,0-2.63,0-5.26,0-9.58-3.73,5.11-4.9,9.46-6.45,13.59-5.61,15-11.07,30-16.67,45-1.9,5.07-2.57,5.43-8.38,5.5-3.5,0-7,.14-10.51,0-3.74-.18-4.46-1.06-4.8-5,0-.27,0-.54,0-.81-.58-15.82-.53-31.7-1.95-47.44-1.12-12.34-1.31-24.63-1.22-37C1035.77,530.09,1036.6,525.91,1037.12,521.36Z" transform="translate(-118.15 -336.22)"/><path class="cls-4" d="M875.61,552.37c-1.7,9.85-3.31,19.72-5.12,29.55-2.58,14.06-5.3,28.09-8,42.28H847c-1.48-2.75-1.05-5.83-.55-8.56,1.8-9.92,4.17-19.73,6-29.64,1.91-10.45,3.4-21,5.15-31.47,1.71-10.22,3.52-20.43,5.35-31,5.92-3.42,12.65-2.38,19.65-2.39,3.46,11.72,7,23.38,10.33,35.09s6.6,23.48,11.18,35.21c1.21-6.5,2.46-13,3.62-19.51,2.41-13.6,4.76-27.2,7.14-40.81.27-1.57.77-3.1.94-4.67.73-6.67.78-6.77,7.06-6.88,2.42,0,4.85,0,7.28,0,.79,0,1.58.17,3,.33.1,2,.56,4.08.23,6q-3,18.06-6.31,36.07c-2.42,13-5,26.06-7.52,39.1-.79,4.18-1.36,8.4-2.08,12.59-.58,3.38-1.22,6.75-2,10.84-5.3,0-10.36-.06-15.41,0-3.19.06-4.72-1.23-5.52-4.48-2.41-9.8-5.28-19.48-7.84-29.24-3.36-12.81-6.59-25.66-9.88-38.5Z" transform="translate(-118.15 -336.22)"/><path class="cls-3" d="M789.66,503.15V423.31c-5.07-1.9-10.18-.75-15.15-1s-9.66,0-15,0c-1.18-8-.53-15.63-.43-23.22,6.31-1.26,80.63-1.51,89.91-.3v22.77c-4.68,1.61-9.79.52-14.78.71-4.81.19-9.64,0-15.05,0-.18,2.7-.46,5-.47,7.34q-.05,31.51,0,63c0,1.89.1,3.78,0,5.65-.27,3.79-1.05,4.71-4.93,4.78C806,503.25,798.22,503.15,789.66,503.15Z" transform="translate(-118.15 -336.22)"/><path class="cls-4" d="M939.84,593.33a148.36,148.36,0,0,1,8.73-48.19c3.29-9.16,8.85-17.18,17.81-22a34.83,34.83,0,0,1,7.35-2.7c11.43-3.13,17.4-3.48,27.53-.82,8.06,2.11,13.69,7.3,16.17,15.37a50.63,50.63,0,0,1,1.7,21.46c-1.2,9.2-2.73,18.38-4.71,27.44a86.08,86.08,0,0,1-10,25.94c-6.72,11.29-17.4,15.32-29.58,16.27a51.16,51.16,0,0,1-18.31-1.38c-8.48-2.43-15.21-8.92-16.3-17.69C939.6,601.82,939.91,596.5,939.84,593.33ZM1000,554.15c0-2.69.14-5.39,0-8.06-.45-7.18-5.17-11.82-12.43-12-8.16-.25-14.4,3.1-18.6,10.26-5.64,9.63-7,20.51-9.5,31.08-1.75,7.38-1.74,14.84-1.55,22.32a12.41,12.41,0,0,0,9,12,19.22,19.22,0,0,0,22.91-10C997.05,585.4,999.16,569.9,1000,554.15Z" transform="translate(-118.15 -336.22)"/><path class="cls-3" d="M859.82,398.43h28.31c0,26.7-.14,53.9-.14,80.57,44,0,0-.08,43.85-.08.16,24.08.16.08.2,23.85H860.38C860,398,860,503,859.82,398.43Z" transform="translate(-118.15 -336.22)"/><path class="cls-3" d="M721.5,479.18h43.83c0,6.89-.33,19.82-.33,24H693.78C693,398,694,503,693,398.54c7-.54,9.39-.33,14.13-.45,4.53-.12,9.06,0,14.38,0Z" transform="translate(-118.15 -336.22)"/><rect class="cls-3" x="599.85" y="183.78" width="28" height="104"/><path class="cls-4" d="M1176.43,513.19a47.46,47.46,0,0,1-.39,5.19c-5.21,24.79-7.14,50.28-15.27,74.36h-10.12c.11-5.16-.59-10.54,1-16.17,1.46-5.31,1.25-11.06,2.13-16.56q3.09-19.21,6.65-38.35a6.42,6.42,0,0,1,3.35-3.9C1167.57,516,1171.64,514.87,1176.43,513.19Z" transform="translate(-118.15 -336.22)"/><path class="cls-4" d="M1160.56,607.13c-.44,4.74-.27,8.83-1.31,12.58-1.3,4.71-6.34,6.4-12,4.78-3.74-1.07-5.72-5.18-4.65-9.86a25.27,25.27,0,0,1,1.53-4.55c1.42-3.22,3.74-5.33,7.49-4.82C1154.43,605.64,1157.18,606.4,1160.56,607.13Z" transform="translate(-118.15 -336.22)"/><rect class="cls-3" x="826.85" y="61.78" width="29" height="105"/><path class="cls-3" d="M792.5,601.18h43.83c0,6.89-.33,19.82-.33,24H764.78C764,520,765,625,764,520.54c7-.54,9.39-.33,14.13-.45,4.53-.12,9.06,0,14.38,0Z" transform="translate(-118.15 -336.22)"/></g><g class="cls-5"><circle class="cls-6" cx="175.85" cy="175.85" r="151.85"/><path class="cls-7" d="M463.35,619.09,245,487.74s-66.68-43.59-86.45-43.45c41.13,4.23,279.43,207.45,279.43,207.45Z" transform="translate(-118.15 -336.22)"/><path class="cls-7" d="M482.51,545s-271-91.61-279.46-94.53-30.11-9.07-45.49-7.89c16.57-3.14,57.23,8.34,57.23,8.34l267.72,72.2Z" transform="translate(-118.15 -336.22)"/><path class="cls-3" d="M538.28,504.1s-277.52-52.87-317.46-60.2-65-2.4-65-2.4l2.67-2.35s10.11-7.69,97.75-4.69,378.68,6.46,378.68,6.46Z" transform="translate(-118.15 -336.22)"/></g><path class="cls-7" d="M166.34,525" transform="translate(-118.15 -336.22)"/><g class="cls-8"><circle class="cls-2" cx="175.85" cy="175.85" r="169.85"/></g><circle class="cls-2" cx="175.85" cy="175.85" r="169.85"/></svg>