<?xml version="1.0" encoding="utf-8"?>
<!-- Generator: Adobe Illustrator 21.1.0, SVG Export Plug-In . SVG Version: 6.00 Build 0)  -->
<svg version="1.1" id="Layer_1" xmlns="http://www.w3.org/2000/svg" xmlns:xlink="http://www.w3.org/1999/xlink" x="0px" y="0px"
	 viewBox="0 0 765.9 616.5" style="enable-background:new 0 0 765.9 616.5;" xml:space="preserve">
<style type="text/css">
	.st0{fill:#546B8A;}
	.st1{fill:#86C735;}
	.st2{fill:#2CB5BA;}
	.st3{fill:#157C80;}
</style>
<title>fh</title>
<g id="_7F7xWq.tif">
	<path class="st0" d="M238.2,575.6c0-11.9,0-23.8,0-35.7c0-3.7,0.4-4.1,4-4.1c8.5,0,17.1-0.1,25.6,0c21,0.2,38.5,16,40,36.2
		c1.6,21.6-13.2,40-34.6,42.9c-7,1-14.2,0.2-21.3,0.3c-3.3,0-6.6,0-9.8,0s-3.7-0.4-3.7-3.7C238.2,599.6,238.2,587.6,238.2,575.6z
		 M256,575.4c0,7,0,14.1,0,21.1c0,1.6,0.5,2.1,2,2c3.4-0.1,6.8,0,10.1-0.1c11.1-0.5,19.5-8.7,20.7-20.3c1.2-11.7-5.4-22-16-24.8
		c-4.8-1.3-9.7-0.6-14.5-0.8c-2-0.1-2.3,0.6-2.3,2.4C256.1,561.7,256,568.6,256,575.4L256,575.4z"/>
	<path class="st0" d="M75.5,575.4c0-11.8,0-23.6,0-35.4c0-3.8,0.3-4.1,3.9-4.1c10.8,0,21.6-0.1,32.4,0c14.4,0.2,25.2,11.5,24.5,25.9
		c-0.5,9.6-6,16.1-14.3,20.3c-2.2,1.1-2,1.9-1,3.7c4.5,8.2,8.9,16.5,13.3,24.7c2.1,3.9,1.5,4.9-3,4.9c-3.9,0-7.9-0.1-11.8,0
		c-1.7,0.2-3.3-0.8-3.9-2.4c-4.2-8.6-8.7-17.2-12.9-25.9c-1-2.2-2.2-3.2-4.6-2.8c-0.8,0.1-1.7,0.1-2.5,0c-1.8-0.3-2.1,0.6-2.1,2.2
		c0.1,8.2,0,16.5,0,24.8c0,3.7-0.4,4.1-4,4.1s-6.9-0.1-10.4,0c-2.8,0.1-3.6-1.1-3.6-3.7C75.5,599.6,75.5,587.5,75.5,575.4z
		 M102.9,569.7c2.3,0,4.7,0,7,0c4.9-0.1,8.8-4.1,8.9-9c0-4.7-3.9-8.6-8.6-8.6c-5-0.1-9.9,0-14.9-0.1c-1.4,0-2,0.3-2,1.8
		c0.1,4.7,0.1,9.3,0,14c0,1.6,0.6,1.9,2,1.8C97.8,569.7,100.4,569.7,102.9,569.7L102.9,569.7z"/>
	<path class="st0" d="M363.4,575.6c0-12,0-24,0-36c0-3.4,0.4-3.7,3.7-3.7s6.8,0,10.1,0c3.6,0,3.9,0.3,3.9,3.8c0,8.1,0.1,16.3,0,24.5
		c0,1.9,0.4,2.6,2.5,2.6c9.3-0.1,18.5-0.1,27.8,0c1.9,0,2.3-0.6,2.3-2.4c-0.1-8.2,0-16.5,0-24.7c0-3.3,0.4-3.7,3.7-3.7
		c3.6,0,7.3,0.1,11,0c2.3,0,3.2,1,3.2,3.2c0,24.4,0,48.7,0,73.1c0,2.2-0.9,3.2-3.2,3.2c-3.8-0.1-7.5-0.1-11.2,0
		c-2.6,0.1-3.5-1-3.5-3.5c0.1-8.7,0-17.4,0.1-26.1c0-2-0.5-2.5-2.5-2.5c-9.2,0.1-18.4,0.1-27.5,0c-2.2,0-2.6,0.8-2.6,2.7
		c0.1,8.4,0,16.9,0,25.3c0,3.8-0.2,4-3.9,4c-3.5,0-6.9-0.1-10.4,0c-2.6,0.1-3.5-1-3.5-3.5C363.4,599.8,363.4,587.7,363.4,575.6z"/>
	<path class="st0" d="M765.9,537.1c0,25.6,0,51.3,0,76.9c-0.5,1.4-1.7,1.3-2.8,1.3c-3.8,0-7.5-0.1-11.2,0c-2.6,0.1-3.5-1-3.5-3.5
		c0.1-8.6-0.1-17.2,0.1-25.9c0-2.3-0.7-2.8-2.8-2.7c-9.1,0.1-18.2,0.1-27.3,0c-2,0-2.5,0.6-2.5,2.5c0.1,8.6,0.1,17.2,0,25.9
		c0,3.4-0.3,3.7-3.7,3.7c-3.7,0-7.3-0.1-11,0c-2.2,0-3.1-0.9-3.1-3c0-24.5,0-48.9,0-73.4c0-2.1,0.9-3.1,3-3.1c3.7,0.1,7.3,0,11,0
		c3.4,0,3.8,0.3,3.8,3.7c0,8.2,0.1,16.3,0,24.5c0,2.1,0.5,2.7,2.6,2.7c9.1-0.1,18.2-0.1,27.3,0c2.4,0,2.7-0.8,2.7-2.9
		c-0.1-8.1,0-16.1,0-24.2c0-3.4,0.4-3.8,3.7-3.8c3.7,0,7.3,0,11,0C764.2,535.9,765.4,535.8,765.9,537.1z"/>
	<path class="st0" d="M521.7,563.3c0,7.1,0,14.2,0,21.4c-0.1,17.5-14.3,31.7-31.9,31.8c-18,0.1-32.5-13.5-32.8-31.1
		c-0.2-15.4,0-30.7-0.1-46.1c0-2.4,0.9-3.4,3.3-3.4c3.6,0.1,7.1,0,10.7,0c4,0,4.4,0.3,4.4,4.3c0,12.8,0,25.7,0,38.5
		c0,1.6,0,3.2,0,4.8c0.1,8.7,5.8,14.9,13.8,14.9c8.3,0.1,14.3-6.2,14.4-15c0.1-13.5,0-27,0-40.5c0-7.6-0.7-6.9,7-6.9h6.5
		c4.8,0,4.8,0,4.8,4.6C521.7,548.1,521.7,555.7,521.7,563.3z"/>
	<path class="st0" d="M159.9,575.5c0-11.9,0-23.8,0-35.7c0-3.6,0.3-3.9,3.8-3.9h43.6c3.6,0,3.9,0.3,3.9,3.9c0,3.2-0.1,6.4,0,9.6
		c0.1,2.5-1,3.3-3.4,3.3c-9.1-0.1-18.2,0.1-27.3-0.1c-2.6-0.1-3.2,0.8-3,3.2c0.2,2.9,0.2,5.8,0,8.7c-0.1,1.9,0.6,2.4,2.4,2.3
		c7.3-0.1,14.6-0.1,21.9,0c3.4,0,3.7,0.4,3.7,3.7c0,3.2-0.1,6.4,0,9.6c0.1,2.4-0.9,3.4-3.3,3.3c-7.3-0.1-14.6,0-21.9-0.1
		c-2.1,0-3,0.4-2.9,2.7c0.2,3.5,0.2,6.9,0,10.4c-0.1,1.9,0.5,2.4,2.4,2.4c9.1-0.1,18.2,0,27.3,0c3.7,0,4,0.3,4,4c0,3.2,0,6.4,0,9.6
		c0,2.1-0.8,3.1-3,3.1c-15.1,0-30.2,0-45.3,0c-2.6,0-3.1-1.4-3.1-3.6C159.9,599.7,159.9,587.6,159.9,575.5z"/>
	<path class="st0" d="M609.2,578.7c0-28.1,22.2-47.2,47.2-43.5c7.5,1.1,14.6,4.3,20.4,9.3c1.9,1.6,2.1,3,0.2,4.8
		c-2.4,2.3-4.8,4.8-7,7.3c-1.7,1.9-3,1.8-5,0.2c-10.6-8.3-25.3-6-32.5,4.9c-7.5,11.3-4.1,27.3,7.4,33.6c8.5,4.7,17,3.8,24.9-1.6
		c2.4-1.6,3.9-1.6,5.7,0.6c2,2.4,4.3,4.7,6.5,7c2.2,2.3,2.1,3-0.2,5.1c-14.1,12.8-36.4,13.5-51.7,1.5
		C614.6,599.8,609.5,589,609.2,578.7z"/>
	<path class="st0" d="M0,575.5c0-11.9,0-23.8,0-35.7c0-3.7,0.3-4,3.8-4c14.6,0,29.2,0,43.9,0c2.6,0,3.8,0.8,3.7,3.6
		c-0.1,3.2-0.2,6.4,0,9.6c0.1,2.7-1,3.7-3.6,3.6c-9.1-0.1-18.2,0-27.3-0.1c-2.2,0-3,0.5-2.8,2.8c0.2,3.6,0.2,7.3,0,11
		c-0.1,2.1,0.5,2.8,2.6,2.7c6.8-0.1,13.5-0.1,20.2-0.1c5.2,0,5.2,0,5.2,5.4c0,2.7-0.1,5.4,0,8.2c0.1,2.3-0.9,3.1-3.2,3.1
		c-7.4-0.1-14.8,0-22.2-0.1c-2.1,0-2.7,0.5-2.7,2.6c0.1,7.9,0,15.8,0.1,23.6c0,2.6-0.9,3.7-3.6,3.6c-3.6-0.2-7.1-0.1-10.7,0
		c-2.6,0.1-3.4-1-3.4-3.5C0.1,599.7,0,587.7,0,575.5z"/>
	<path class="st0" d="M577.9,583.6c0,9.4,0,18.7,0,28.1c0,2.6-0.9,3.8-3.6,3.7c-3.6-0.1-7.1,0-10.7,0c-3.3,0-3.7-0.4-3.7-3.7
		c0-18.6-0.1-37.1,0.1-55.6c0-2.9-0.7-3.6-3.5-3.5c-3.9,0.3-7.9,0-11.8,0.1c-2.3,0-3.2-1-3.2-3.2c0-3.5,0-6.9,0-10.4
		c0-2.2,1-3.1,3.3-3.1c16.1,0.1,32.2,0.1,48.3,0c2.3,0,3.2,1,3.2,3.2c0,3.5,0,6.9,0,10.4c0,2.2-1,3.2-3.3,3.2
		c-4-0.1-8.1,0.2-12.1-0.1c-2.7-0.2-3.2,0.8-3.1,3.3C578,565,577.9,574.3,577.9,583.6z"/>
	<path class="st0" d="M418.5,230.2c-0.7,11.6-7.2,22.4-20.4,28.4c-12.7,5.8-27.6,3.1-37.5-6.8c-2.5-2.4-4.9-5.1-7.9-6.9
		c-5.7-3.4-10.7-2.7-15.2,2.3c-3.3,3.6-5.3,8-7,12.6c-4.4,12-8.6,24.1-13.1,36.1c-4.9,12.9-17,20-30.5,18.2
		c-13-1.8-22.5-12-23.9-25.6c-0.3-4.3,0.3-8.7,1.9-12.7C290.6,205.2,316.3,134.6,342,64c5.7-15.6,21.4-23.2,36.1-17.9
		c15.1,5.4,22.2,21.3,16.5,37.1c-10.1,28.2-20.4,56.2-30.6,84.4c-1.6,3.9-2.5,8-2.8,12.1c-0.3,9.3,4.1,13.9,13.5,14
		c5.1,0.1,10.2-1.1,15.4-0.1C406.7,196.7,418.6,210.7,418.5,230.2z"/>
	<path class="st0" d="M489.7,120.6c19.7,0.5,32.3,19.5,25.4,38.7c-11.8,32.6-23.7,65.3-35.6,97.9c-16,43.9-32,87.7-47.9,131.6
		c-4.7,12.8-15.5,20.2-28.2,19.6c-19.3-1-31.4-19.7-24.7-38.4c10.5-29.2,21.2-58.4,31.8-87.6c17-46.8,34.1-93.7,51.1-140.5
		C466.7,127.7,476.7,120.2,489.7,120.6z"/>
	<path class="st1" d="M387.7,301.9c0.2,3.3-1,6.9-2.3,10.5c-18.2,50-36.4,99.9-54.5,149.9c-1.3,3.5-2.5,4.5-6.3,3.5
		c-15.4-4.2-30.4-9.7-44.9-16.5c-2.6-1.2-3.3-2.3-2.2-5.2c18.6-50.9,37.1-101.8,55.8-152.7c5.1-13.9,18.4-21.2,32.2-18.4
		C378.7,275.9,387.9,287.5,387.7,301.9z"/>
	<path class="st1" d="M595.7,136.7c0,3-0.5,6-1.6,8.8c-16.3,44.9-32.5,89.7-49.1,134.5c-4.4,11.5-15.8,18.7-28,17.8
		c-11.8-1-21.8-9.2-25-20.6c-2-6.7-0.9-13.1,1.4-19.5c13.3-36.2,26.5-72.5,39.6-108.7c2.8-7.7,5.4-15.4,8.4-22.9
		c4.5-11.4,16.3-18.8,27.5-17.7c13.5,1.3,23.3,9.7,26,22.4C595.3,132.7,595.5,134.7,595.7,136.7z"/>
	<path class="st1" d="M454.6,11.8c19.8-0.1,33.1,18.9,26.3,38c-10.1,28.5-20.6,56.9-31,85.3c-3.8,10.3-7.3,20.7-11.3,30.9
		c-4.9,12.8-18.5,20.1-31.9,17.1c-13.4-2.9-22.8-15-22.2-28.7c0.2-3.7,1.1-7.3,2.5-10.6c13.6-37.3,27.1-74.7,40.7-112
		C432.4,18.9,442.1,11.8,454.6,11.8z"/>
	<path class="st2" d="M501.5,440.9c-0.4-3.7,1.7-6.7,2.9-9.9c14.4-39.7,28.8-79.4,43.2-119.2c4.2-11.7,12.1-18.9,24.5-20.6
		c19.1-2.7,36.6,18.4,29.3,35.8c-20.3,48.6-53.4,86.2-98.6,113.3C502.4,440.5,501.9,440.7,501.5,440.9L501.5,440.9z"/>
	<path class="st2" d="M259.5,249.9c-1.1,7.3-4.5,13.8-6.9,20.7c-9.1,25.3-18.3,50.7-27.6,76c-4.6,12.5-16.4,20.1-28.7,19
		c-12.6-1-22.9-10.2-25.4-22.6c-1.1-4.7-0.8-9.7,0.8-14.3c11.9-33,23.9-66,36-98.9c0.1-0.3,0.5-0.4,0.7-0.7c0,1.2,0,2.3,0,3.5
		c-0.1,15.6,12.5,28.2,28.1,28.3c0.6,0,1.3,0,1.9-0.1C247.1,260.3,253.5,255.5,259.5,249.9z"/>
	<path class="st3" d="M265.7,31.2c-1.6,4.4-2.9,8.1-4.2,11.8c-12.6,34.7-25.2,69.3-37.9,104c-6,16.4-21.9,23.9-37.2,17.9
		c-10.5-4.2-17.5-14.2-17.8-25.5c-0.1-2,0.3-4,1.1-5.8c21.1-42.8,52-76.6,93-101C263.4,32.2,264.1,31.9,265.7,31.2z"/>
	<path class="st1" d="M259.5,249.9c-6,5.7-12.4,10.4-21,10.9c-15.5,1-28.9-10.8-29.9-26.3c0-0.6-0.1-1.3-0.1-1.9c0-1.2,0-2.3,0-3.5
		c5.1-16.7,11.1-33.1,17.8-49.2c5.6-13.7,21.3-19.7,35.1-14.6c13.7,5,21.6,20.1,17,34c-5.5,16.6-11.3,33-18.1,49.1L259.5,249.9
		L259.5,249.9z"/>
	<path class="st1" d="M161.1,318.6c-7-18.4-11.5-37.6-13.5-57.1c-2.4-23.2-1.5-46.6,2.8-69.6c0.7-5,3.8-9.3,8.3-11.6
		c10.3-5.9,23.1-4.7,32.2,2.8c9,7.6,12.3,19.9,8,31.8c-9.9,27.5-20,55-30,82.4C166.4,304.1,163.9,310.9,161.1,318.6z"/>
	<path class="st1" d="M462.1,459.8c-20.6,0-34.4-18.1-28.9-35.8c3.5-11.4,7.7-22.7,12.2-33.7c5.8-14.2,21.2-20.7,35.5-15.5
		c14,5.1,21.5,20.3,17,34.4c-3.7,11.4-7.8,22.7-12.4,33.7S471.8,459.1,462.1,459.8z"/>
	<path class="st1" d="M350,2.9c-1.8,4.9-3.6,9.9-5.4,14.8c-6.4,17.5-12.6,35.1-19.2,52.5c-4.7,12.3-16,18.8-29.4,17.7
		c-11.4-1-21.4-10.1-24.1-22.1c-1.1-4.7-0.9-9.7,0.7-14.3c3.2-9.1,6.6-18.1,9.8-27.2c0.6-1.8,1.9-3.2,3.6-3.9
		c19.9-9,40.9-15.1,62.5-18.1C348.8,2.3,349.2,2.6,350,2.9z"/>
	<path class="st3" d="M605,154.5c6.9,18.4,11.4,37.6,13.3,57.2c1.8,19.1,1.6,38.3-0.8,57.3c-0.7,5.9-3.4,8.9-8.6,10.7
		c-10.9,3.7-20.8,2.2-29.2-5.7c-8.4-7.9-11.4-18-7.5-29.2c9-25.5,18.4-50.9,27.6-76.4C601.5,164,603.1,159.7,605,154.5z"/>
	<path class="st3" d="M515.4,110.9c-20.6,0.1-34.7-17.6-29.4-35.1c4.2-14.1,9.9-27.9,14.9-41.7c0.7-1.9,1.5-2.1,3.2-1
		c15.4,9.2,29.7,20.2,42.8,32.6c1.4,1.4,1.6,2.5,0.9,4.3c-3,7.9-5.6,16-8.8,23.8C534.1,104.9,525,110.2,515.4,110.9z"/>
	<path class="st3" d="M290.7,368.4c-6.9,19.2-13.8,38.4-20.6,57.6c-1.5,4.2-3.1,8.4-4.6,12.6c-0.6,1.9-1.4,2.3-3.2,1.2
		c-15.4-9.2-29.8-20.1-42.8-32.4c-1.3-1.1-1.7-2.9-0.9-4.4c6.5-17.6,12.9-35.2,19.3-52.8c0.1-0.3,0.5-0.4,0.7-0.7
		c0.3,2.1,0.6,4.3,0.8,6.4c2,15.8,18.3,26.9,33.8,23.3C280.4,377.6,285.6,373.2,290.7,368.4z"/>
	<path class="st2" d="M382.2,472.7c-12.3,0.4-24.6-0.8-36.8-2.7c-2.6-0.4-2.9-1.1-2.1-3.4c4-10.6,7.5-21.3,11.8-31.7
		c5.7-13.5,21.1-19.8,35-14.9c13.8,4.9,21.5,19.7,17.5,33.8c-1.5,5.4-3.8,10.7-5.5,16c-0.8,2.3-2.2,3-4.5,3
		C392.5,472.7,387.4,472.7,382.2,472.7z"/>
	<path class="st1" d="M290.7,368.4c-5.1,4.7-10.3,9.1-17.4,10.8c-15.5,3.6-31.8-7.5-33.8-23.3c-0.3-2.1-0.6-4.3-0.8-6.4
		c3.1-16.7,14.6-25.7,28.1-25.9c14.5-0.2,26,9.6,28.4,24.2C296.2,355.3,293.6,361.9,290.7,368.4z"/>
	<path class="st2" d="M303.5,126.2c-0.2,15.5-12.9,27.9-28.4,27.7c-0.1,0-0.2,0-0.2,0c-15.2-0.2-27.5-13-27.4-28.5
		c0.1-15.4,12.7-27.7,28-27.6c0,0,0.1,0,0.1,0c15.5,0,28,12.6,27.9,28.1C303.5,126,303.5,126.1,303.5,126.2z"/>
	<path class="st2" d="M495.1,363.6c-15.6-0.2-28.4-13.1-28.1-28.4s13-28,28.1-27.9c15.4,0.1,28.4,13.2,28.2,28.4
		C523,350.9,510.1,363.7,495.1,363.6z"/>
	<path class="st2" d="M383.9,0.1c12.1-0.2,24.2,0.7,36.2,2.6c3.6,0.5,3.5,1.8,2.4,4.5c-1.5,3.5-2.6,7.2-4,10.7
		c-5.2,13.2-19.5,20.5-33.3,16.9c-12.9-3.1-21.7-15.9-20.8-29.7c0.2-3.4,1.3-5.2,5.1-5.1C374.3,0.2,379.1,0.1,383.9,0.1z"/>
	<path class="st2" d="M259.5,249.9l0.8-1.5C260.3,249.1,260.4,249.8,259.5,249.9z"/>
	<path class="st2" d="M501.5,440.9l-0.3,0.3L501.5,440.9L501.5,440.9z"/>
</g>
</svg>
