<svg id="Layer_1" data-name="Layer 1" xmlns="http://www.w3.org/2000/svg" viewBox="0 0 209 47.23"><defs><style>.cls-1{fill:#00bbde;}.cls-2{fill:#009ad6;}</style></defs><title>oa</title><path class="cls-1" d="M268.66,47.18a14.09,14.09,0,0,1,13.93-14.24c4.75,0,13.55,2.31,13.55,13.93a13.26,13.26,0,0,1-13.49,13.55C274.53,60.42,268.66,55.61,268.66,47.18Zm23.11.63c0-6.43-2.69-13.49-10.12-13.49-6.12,0-8.62,5.37-8.62,10.68,0,6.12,2.87,14.12,10.18,14.12C288.46,59.11,291.77,55.55,291.77,47.81Z" transform="translate(-268.66 -13.24)"/><path class="cls-1" d="M305.83,54.93c0,4.31,5.5,2.5,5.5,4.19,0,.75-.44.87-1.37.87s-2.31-.25-5.93-.25c-3.31,0-4.56.25-5.31.25s-1.12-.12-1.12-.75c0-1.25,3.68,0,3.68-4.06V39.69c0-3.75-4.62-2.12-4.62-3.44a.63.63,0,0,1,.56-.69c5.18-1.12,6.43-3.12,7.87-3.12.38,0,.75.37.75,1v4.12c-.12.75,3-4.62,9.06-4.62,8.37,0,10.18,6.93,10.18,11.68V54.93c0,4.31,4.87,2.5,4.87,4.19,0,.75-.44.87-1.06.87-.81,0-2.37-.25-5.43-.25-2.37,0-3.69.25-4.5.25s-1.12-.12-1.12-.75c0-1.25,2.69,0,2.69-4.06V43.5c0-3.12-2.25-7.81-7.31-7.81-5.25,0-7.43,3.87-7.37,4.87Z" transform="translate(-268.66 -13.24)"/><path class="cls-1" d="M334.23,43.93c0,10.31,6.25,13.37,10.06,13.37,4.73,0,7-2.67,8.22-3.14a.58.58,0,0,1,.76.72c-.73,1.69-5.76,5.55-11,5.55-9.37,0-12.62-8.68-12.62-12.8,0-8,4.43-14.68,12.24-14.68S353,40.37,353,42.87c0,1.12-.69,1.06-2.12,1.06Zm12.3-1.69c.87,0,1.25-.31,1.25-1.25,0-3.5-3.5-6.62-6.93-6.62-3.87,0-6.62,4.43-6.62,7.87Z" transform="translate(-268.66 -13.24)"/><path class="cls-2" d="M472.48,55V14.24c0-.62-.37-1-.75-1-1.44,0-2.68,2-7.49,3.12a.68.68,0,0,0-.56.69c0,1.31,4.25-.31,4.25,3.44l0,34.39c-.09,2.66-4.17,3.07-5.35,3.06s-6.8.31-6.8-3.61l0-40.08c0-.62-.37-1-.75-1-1.44,0-2.68,2-7.49,3.12a.68.68,0,0,0-.56.69c0,1.31,4.25-.31,4.25,3.44l0,33.72c-.06,3.57-4,3.71-5.82,3.66s-2.65-.71-3.66-2.26c-1.44-2.19-1.78-4-2.72-6.33,0,0-12.63-31.28-13-32.16-.21-.55-.64-2.32-1.33-2.32s-1,1-4.68,8.87c0,0-14.28,30.63-14.93,31.85s-1.36,2.54-3.14,2.56c-3.47,0-8.48-5.57-10.45-7.5,1.65-2.66,1.67-2.84,3.35-7a11.17,11.17,0,0,1,2.85-4.71c2.21-1.84,4.16-2,5.89-2.57,1.09-.36.61-2.24-.44-2.05a61.46,61.46,0,0,1-16,.8c-1.12-.06-1.14,1.84-.2,2,1.61.33,5.34-.41,5,5.53a12.34,12.34,0,0,1-.78,3.71A9.61,9.61,0,0,1,389.53,49C376,36.54,366.79,26.67,366.79,22.49A5,5,0,0,1,372,17.43c3.81,0,7.06,3.31,8.56,6.56.19.37.37,1.12.94,1.12.25,0,.62-.19.62-.5l-.19-5.93c0-.56.12-1.75-.75-1.75-.56,0-.81.56-1.12.56a15.12,15.12,0,0,0-6.68-1.69c-5.06,0-10.12,2.81-10.12,8.49a11.62,11.62,0,0,0,2.87,7.12c-6.68,1.44-10,6.56-10,13.24,0,9.74,8.06,15.8,17.24,15.8a21.05,21.05,0,0,0,15.28-6.21c3.31,3,6.42,6.47,10.56,6.2.89-.06,4.43-.44,5.83-.47,2.64-.06,4.5,0,6.25,0,.81,0,1.69.19,1.69-.94,0-1.62-4.43.25-4.43-4.12a6.4,6.4,0,0,1,.44-2.19L413,44c.62-1.31,1.75-1.31,2.94-1.31h13.74c1.75,0,2.12.94,2.75,2.37l2,5.12c.63,1.69,1.94,4.56,1.94,5.93,0,2.37-3.94,1.36-3.76,3.11.09.93,1,.76,1.39.76,1.69,0,3.47-.11,5.16-.18,2.83-.12,11.87-.08,14.56-.08,4.67,0,12.39,0,16.48.08,3.32,0,5.21.18,6.08.18s1.43-.12,1.44-.87C477.68,57.25,472.48,59.06,472.48,55Zm-97,1.81c-8.06,0-16-7-16-15.3,0-3.62,2.87-8.5,6.81-8.5,2.25,0,7,8.37,20.36,19.8A17.39,17.39,0,0,1,375.47,56.78ZM428.7,40H416.33c-.81,0-1.25-.25-.81-1.12l7.06-15.18c.37-.75.69-.75,1,0l6.12,15.05C430,39.54,430.08,40,428.7,40Z" transform="translate(-268.66 -13.24)"/></svg>