<svg id="Layer_1" data-name="Layer 1" xmlns="http://www.w3.org/2000/svg" viewBox="0 0 710.41 130.43"><defs><style>.cls-1{fill:#93a53c;}</style></defs><title>oc</title><g id="c02wbF.tif"><path class="cls-1" d="M357.54,445.22a17,17,0,0,1-2.4-.16c-20.13-4.21-40,7.28-47.36,26.41-5.66,14.76-7.9,30.06-3,45.43,4.78,14.92,14.59,25.5,30.28,29,17.79,4,37.15-7.46,43.9-25.24,4.3-11.32,3.86-22.85,1.4-34.44a46.46,46.46,0,0,0-8.69-19.44c-5.81-7.4-13.06-12.17-22.82-10.42-10,1.78-16,8.34-19.09,17.77a27.15,27.15,0,0,0-.29,17.18c3.26,10,11.06,14.85,21.51,13.26a6,6,0,0,1,1.54.21c.52,2.92-1.66,3.45-3.48,3.82-13.35,2.74-31-5.74-31.81-23.68-1-23.38,21.83-41.25,44.67-35.11,18,4.84,32.3,21.53,35,40.43,2.52,17.91-1.82,33.8-14.11,47.1a50.46,50.46,0,0,1-30.84,16.18c-15.9,2.14-30.91-.8-44.32-9.92-12.79-8.71-19.38-21.15-21-36.4-2.6-24.51,7.48-48.7,29.57-61,11.3-6.29,23.35-7.42,35.83-5.83C356.56,441,357.13,441.7,357.54,445.22Z" transform="translate(-286.22 -439.74)"/><path class="cls-1" d="M772.82,549H750c6.51-6.73,5.2-14.4,5.23-21.79q.08-19.48,0-39c0-7.23,1.18-14.72-4.77-21.35a36.63,36.63,0,0,1,4.53-.69c9-.07,18-.18,27,0,10.77.16,19.53,5.63,22.59,14.32,3.43,9.74,1.3,18.06-6.9,24.51-1.55,1.22-3.12,2.41-4.59,3.55.1.8,0,1.39.24,1.75,8.76,13.35,16.82,27.24,26.55,39.84,9.53,12.35,22.9,16.6,38.39,12.27,3.28-.92,6.54-1.88,10.06-2.89.51,4-1.89,4.92-4.15,5.92-22.34,9.91-45.51,4.2-60.08-15.48-7.72-10.42-14.46-21.56-21.67-32.36-1.81-2.71-3.16-5.93-7.39-5.83-.64,0-1.88-2.18-1.84-3.31s1.18-2.43,2.18-3.22c.65-.51,1.94-.15,2.92-.29a15.81,15.81,0,0,0,1.07-31.15l-1-.19c-9.44-1.7-10.26-1-10.25,8.57q0,23.48,0,47C768.1,538.79,768.26,539.45,772.82,549Z" transform="translate(-286.22 -439.74)"/><path class="cls-1" d="M741.17,473.34c-1.92-2.23-3.75-4.54-5.77-6.67a36.15,36.15,0,0,0-14.52-9.45c-19.5-6.73-40.18-.07-49.58,19.34-8.85,18.26-8,36.67,3.3,53.73,13.79,20.74,43.88,22.83,62.54,4.82,1.65-1.59,3.23-3.25,4.91-4.95,3.93,6.93,2,14.07-4.51,17.09-17.8,8.21-36.14,10.66-54.73,3.18C664,542.87,653.38,528.68,651,508.51c-1.91-16.39,2.24-31.06,13.35-43.45,9-10,20.43-15.25,33.58-17,13.87-1.86,27.18.57,40.09,5.62,4.82,1.89,4.9,2.08,4.93,7.34,0,3.78,0,7.57,0,11.35Z" transform="translate(-286.22 -439.74)"/><path class="cls-1" d="M622.58,536.12a16.24,16.24,0,0,1,.5,2.5c-.41,10.08-.94,10.6-10.86,10.6H572l-.68-.95c5.76-5.53,4.92-12.51,4.93-19.29q0-22,0-44c0-6.15.66-12.46-5.23-17.91a28,28,0,0,1,4.62-1q20.73-.08,41.46,0c4.14,0,4.5.46,4.58,4.65,0,2.16-.05,4.33-.16,6.49a5.82,5.82,0,0,1-.73,1.6,11.71,11.71,0,0,1-2.63-1.11c-8.05-6.14-17.41-4.48-26.46-4.32-.85,0-2.36,2-2.39,3-.22,7.49-.13,15-.15,22.47,0,2.4,1.34,3.17,3.51,3.15,5.33-.06,10.69.28,16-.26,3.49-.36,6.86-2,10.66-3.13v14.08c-9.61-6-19.51-3.35-29.45-4a29.86,29.86,0,0,0-.7,4.28c0,8-.07,16,0,24,0,4,.58,4.57,4.66,4.82C603.72,542.5,613.55,542.74,622.58,536.12Z" transform="translate(-286.22 -439.74)"/><path class="cls-1" d="M880,526.11c1.24,1.77,1.88,2.88,2.7,3.83,2.82,3.25,5.51,6.65,8.61,9.61s6.86,4,11,4.26c6.88.43,13.11-2.85,15.4-8.05s.7-11.85-4.87-16.52c-3.28-2.76-7.15-4.82-10.81-7.11-3.24-2-6.76-3.66-9.81-5.93-9.65-7.18-12.16-16.59-9.71-26.36,2.22-8.83,11.42-15.19,22.1-15.84a47,47,0,0,1,19.56,3.17,5,5,0,0,1,2.77,3.44c.35,4.1.13,8.26.13,13.59-1.69-1.53-2.52-2.37-3.44-3.09-3.49-2.76-6.83-5.75-10.59-8.09a13.17,13.17,0,0,0-6.72-1.44c-5.59,0-10.24,3.25-11.76,7.7a13,13,0,0,0,4.82,14.65c4.9,3.42,10.23,6.22,15.31,9.39a60.82,60.82,0,0,1,6.94,4.85c8.18,6.85,11.48,15.61,8.32,25.88-3,9.86-10.69,15.16-20.55,16.7a45.14,45.14,0,0,1-26.36-3.5c-2.59-1.2-3.94-2.73-3.84-5.67.13-3.82,0-7.66,0-11.48A26,26,0,0,1,880,526.11Z" transform="translate(-286.22 -439.74)"/><path class="cls-1" d="M873.39,536.34a102.17,102.17,0,0,1-2,10.84c-.27.93-2.25,1.85-3.49,1.93-4,.26-8,.12-12,.13H822.08c-.15-.57-.39-1-.28-1.14,3.67-4.55,4.38-9.8,4.32-15.49-.18-16.33-.13-32.66,0-49,0-5.94-.09-11.71-4.82-16.25,3.34-1.46,41.65-1.93,49.3-.69V478.5c-.63-.11-1.37,0-1.78-.36-8.08-6.48-17.65-4.85-26.87-4.79-.91,0-2.55,1.81-2.58,2.81-.22,7.66-.13,15.32-.12,23,0,2.11,1.23,2.95,3.21,2.91,6-.12,12,0,18-.49,2.68-.22,5.25-1.71,8.3-2.78v13.87c-7.9-5.64-16.55-3.44-24.84-3.77-4.16-.17-4.6.39-4.65,4.55-.09,8,0,16-.05,24,0,3.18,1.26,4.64,4.45,4.47,6.3-.34,12.65-.23,18.87-1.12C865.92,540.3,869.13,538.15,873.39,536.34Z" transform="translate(-286.22 -439.74)"/><path class="cls-1" d="M549.59,466.5h17.78c-.82,1.17-1.49,2-2,2.92-2.7,4.37-5.9,8.52-8,13.18-9.47,21.3-18.61,42.75-27.89,64.14-.71,1.64-1.59,3.21-2.89,5.79-1.3-2.37-2.23-3.83-3-5.39-10.1-21.74-20.06-43.55-30.35-65.21-2.18-4.59-5.56-8.61-8.37-12.9-.42-.65-.76-1.35-1.41-2.52h23.66c-3,8.54.89,15.31,4.07,22.26,5.41,11.81,10.7,23.67,16.07,35.49a24.7,24.7,0,0,0,1.7,2.6c1-2,1.83-3.39,2.45-4.85q7-16.55,14-33.13C550.24,477.51,550.23,477.51,549.59,466.5Z" transform="translate(-286.22 -439.74)"/><path class="cls-1" d="M995.91,466.5l.72,12.17c-1.42-.45-2.43-.52-3.1-1-5.84-4.46-12.65-4.52-19.52-4.5-2.93,0-4.17,1.25-4.12,4.23.1,6.49,0,13,0,19.47q0,16.23,0,32.46c0,6.63-.74,13.41,4.61,19.23-7.47.84-14.55.71-22.93.55,6.48-7.49,5.47-15.44,5.48-23.19q0-23.47,0-46.94c0-5.62-.21-5.75-6-5.83-7.1-.1-13.91.86-19.8,6.07-1.69-3.95-.9-7.43-.72-10.8,0-.77,1.35-1.65,2.26-2.13a5.64,5.64,0,0,1,2.46-.17q28.21,0,56.42,0C992.82,466.13,994,466.32,995.91,466.5Z" transform="translate(-286.22 -439.74)"/><path class="cls-1" d="M401.71,548.13c3.85-4.06,5-8.88,5-14,0-17.82,0-35.64-.47-53.44-.12-4.63-1.87-9.22-3-14.16H425c-7,7.21-5.7,15.72-5.75,23.9-.1,14.82,0,29.65,0,44.47,0,6.55.12,6.68,6.64,7,3.15.15,6.32.18,9.47,0A29.35,29.35,0,0,0,453,535.75c.75,4.78-.72,8.47-1.61,12.17-.14.58-1.61,1.21-2.46,1.21-15.47,0-30.94-.16-46.41-.27C402.44,548.85,402.32,548.66,401.71,548.13Z" transform="translate(-286.22 -439.74)"/><path class="cls-1" d="M481.09,549H456.72c6.58-6.1,5.56-13.25,5.63-20.15.14-15.32.31-30.64.34-46,0-5-.36-10-3.76-14.19a8,8,0,0,1-.72-2.23h21.15c0,.59.29,1.23.07,1.5-3.86,4.91-4.27,10.62-4.23,16.56.11,15,.06,30,0,45C475.2,536.21,475.19,542.86,481.09,549Z" transform="translate(-286.22 -439.74)"/></g></svg>