<?xml version="1.0" encoding="utf-8"?>
<!-- Generator: Adobe Illustrator 18.1.1, SVG Export Plug-In . SVG Version: 6.00 Build 0)  -->
<svg version="1.1" id="Layer_1" xmlns="http://www.w3.org/2000/svg" xmlns:xlink="http://www.w3.org/1999/xlink" x="0px" y="0px"
	 viewBox="0 0 446.7 236.1" enable-background="new 0 0 446.7 236.1" xml:space="preserve">
<g>
	<path fill="#FFAE5E" d="M76.6,201c0.5,0,0.9-0.5,0.9-1.1V15.4c0-0.6-0.4-1.1-0.9-1.1h-1.8c-0.5,0-0.9,0.5-0.9,1.1v184.4
		c0,0.6,0.4,1.1,0.9,1.1H76.6z"/>
	<path fill="#FFAE5E" d="M12.3,60.9c0,0.5,0.5,0.9,1,0.9h124.4c0.6,0,1-0.4,1-0.9v-1.8c0-0.5-0.5-0.9-1-0.9H13.4c-0.6,0-1,0.4-1,0.9
		V60.9z"/>
	<path fill="#57DAD3" d="M63.1,46.4c-1.7-1-2.4-3.3-1.7-5.1l7.3-18.7c0.7-1.8,1.3-1.7,1.3,0.2l0,24c0,1.9-1.4,2.7-3,1.7L63.1,46.4z"
		/>
	<path fill="#FA723A" d="M20.6,68.4c-1.9-1.6-1.4-3,1.1-3h42.2c2.5,0,3.7,1.9,2.6,4.1L55.7,92.9c-1.1,2.3-3.5,2.8-5.4,1.2L20.6,68.4
		z"/>
	<path fill="#9F0612" d="M57.6,99.8c-0.1-1,0.1-2.5,0.5-3.4l11.5-24.8c0.4-0.9,0.8-0.8,0.8,0.2l0,112.5c0,1-0.1,1-0.3,0L57.6,99.8z"
		/>
	<path fill="#FFAE5E" d="M126.5,67.9c2.1-1.3,1.8-2.5-0.7-2.5H85.7c-2.5,0-4.6,2.1-4.6,4.6v22.3c0,2.5,1.7,3.5,3.8,2.1L126.5,67.9z"
		/>
	<path fill="#FFAE5E" d="M90,16.1c0.9-1,0.5-1.8-0.8-1.8h-5.7c-1.3,0-2.4,1.1-2.4,2.4v7.2c0,1.3,0.7,1.6,1.6,0.6L90,16.1z"/>
	<g>
		<path fill="#43D1AC" d="M92.7,54.6c-2.5,0-2.6-0.7-0.3-1.6l49.1-18.8c2.3-0.9,3.6,0.3,2.9,2.7l-4.3,13.4c-0.8,2.4-3.4,4.3-5.9,4.3
			L92.7,54.6z"/>
	</g>
	<g>
		<path fill="#00A680" d="M139.6,19.3c-0.6-1.8-1.8-1.9-2.6-0.2L130.6,32c-0.9,1.7-0.1,2.6,1.7,1.9l7.3-2.8c1.8-0.7,2.8-2.8,2.2-4.6
			L139.6,19.3z"/>
	</g>
	<g>
		<path fill="#1EBBB8" d="M65.4,54.7c2.5,0,2.8-1,0.6-2.3L2.8,14.8c-2.2-1.3-3.3-0.4-2.5,2l10.7,33.5c0.8,2.4,3.4,4.3,5.9,4.3
			L65.4,54.7z"/>
	</g>
	<g>
		<path fill="#008E9D" d="M10.7,0.7c1.5-1.2,3-0.7,3.3,1.2l2.6,13.9c0.3,1.9-0.7,2.6-2.4,1.7L3.5,11c-1.7-1-1.8-2.8-0.3-4L10.7,0.7z
			"/>
	</g>
	<g>
		<g>
			<path fill="#606061" d="M93.4,116.9c0-2.9,0-5.4-0.2-8.1c1.8-0.4,6.1-0.9,9.8-0.9c9.2,0,15.6,3.1,15.6,12.4c0,8.6-7.9,12-11.8,12
				c-0.9,0-2.4-0.1-2.9-0.4c-0.7-0.4-1.7-1.9-1.7-3.7c0.5,0.1,1.3,0.2,1.8,0.2c3.3,0,7-1.8,7-8.3c0-6-3.9-8-7.6-8
				c-0.8,0-1.7,0.1-2.5,0.2v26.7c0,4.3,0.1,6.1,0.2,7.3c-1,0.3-4.7,0.5-6.2,0.5c-0.9,0-1.3-0.2-1.3-1.1V116.9z"/>
			<path fill="#606061" d="M129.5,122.6c2.7-2.3,5.1-3.7,8.5-3.7c5.8,0,8.4,4.6,8.4,10.7v8.3c0,3.3,0.1,6.5,0.2,8.5
				c-1.3,0.2-3.6,0.5-6.1,0.5c-0.9,0-1.2-0.4-1.2-1.2c0-4.5,0-10.6,0-16c0-3.6-2-5.7-4.7-5.7c-2,0-3.7,1-5.1,2.2v18.7
				c0,1.1-0.2,1.5-1.3,1.7c-2,0.2-3.9,0.3-5.9,0.3c0.1-3.1,0.2-6.8,0.2-11.1v-23.1c0-3.7-0.1-5.3-0.2-6.6c1.3-0.5,5-1.1,6.2-1.1
				c0.9,0,1.1,0.3,1.1,4V122.6z"/>
			<path fill="#606061" d="M164.9,118.8c9.3,0,13.1,7,13.1,13.8c0,8.6-5.4,14.6-13.9,14.6c-7.8,0-13.2-5.2-13.2-14
				C151,125,156.8,118.8,164.9,118.8L164.9,118.8z M164.1,122.8c-3.8,0-5.8,3.9-5.8,9.7c0,7.6,3.1,10.9,6.5,10.9
				c3.6,0,5.7-3.8,5.7-9.9C170.6,126.9,168.3,122.8,164.1,122.8L164.1,122.8z"/>
			<path fill="#606061" d="M203.5,140.9c0,2.4-2,4.7-2.8,5.1c-0.9,0.5-3.5,1.2-5.6,1.2c-8.9,0-13.6-5-13.6-13.8
				c0-7.4,4.8-14.6,13-14.6c7.6,0,10.4,5.5,10.5,10.3c0,0.8-0.2,1.5-0.3,1.9c-0.2,1-2.4,1.7-4.8,2.3c-1.5,0.4-7.8,0.4-11.3,0.2
				c0.2,6,4.2,8.6,8.6,8.6c2.6,0,5.1-0.7,6.3-1.3L203.5,140.9z M193.7,122.6c-2.4,0-4.8,2.3-5.1,7.2c2.6,0.2,7.5,0.1,8.9,0
				c0.5,0,0.8-0.7,0.8-1.3C198.4,125.2,197,122.6,193.7,122.6L193.7,122.6z"/>
			<path fill="#606061" d="M226.5,129.5c0-3.8-2.1-5.6-4.6-5.6c-2.3,0-3.8,1.2-5.3,2.4V145c0,1.2-0.2,1.4-1.4,1.6
				c-2,0.2-3.7,0.3-5.9,0.3c0.1-3.1,0.2-6.9,0.2-11.1v-10.2c0-1.8-0.2-2.6-1.1-3.1V122c0.4-1.7,1.9-3.2,4-3.2c2.7,0,3.5,1.9,3.9,4
				c2.2-1.9,5.3-4,8.3-4c7.5,0,9,5.8,9,10.8v8.3c0,3.2,0.1,6.5,0.2,8.5c-1.3,0.1-3.6,0.5-6.1,0.5c-0.9,0-1.2-0.4-1.2-1.1V129.5z"/>
			<path fill="#606061" d="M246.7,145c0,1.1-0.4,1.4-1.7,1.6c-1.2,0.2-3.3,0.2-5.6,0.2c0.1-2.5,0.2-6.1,0.2-9.6v-10.4
				c0-3.8-0.1-5.6-0.2-6.9c1.3-0.4,5-0.7,6.2-0.7c0.9,0,1.1,0.3,1.1,3.9V145z M243.4,106.4c2.2,0,3.5,1.7,3.5,3.9c0,2.3-1.6,4-3.9,4
				c-1.8,0-3.7-1.2-3.7-3.9C239.4,107.6,241.8,106.4,243.4,106.4L243.4,106.4z"/>
			<path fill="#606061" d="M250.5,120.1c0.9-0.4,4.4-1.2,6.2-1.2c0.7,0,1.2,0.5,1.7,1.2c1.1,1.6,3.3,5.2,5.1,8.1
				c1.7-2.6,3.6-5.6,5.1-8c0.6-0.9,0.9-1.3,1.7-1.3c1.3,0,3.2,0.6,4.2,1.1v0.1c-1.2,1.6-5.8,8.7-8.1,12c2.5,3.9,6.1,9.4,9.1,14.1
				v0.1c-1.2,0.3-3.7,0.6-6.2,0.6c-0.7,0-1.3-0.2-1.8-1c-1.3-2.2-3.7-5.6-5.6-8.6c-1.5,2.3-3.3,4.9-5.6,8.6c-0.4,0.7-0.9,1-1.7,1
				c-1.7,0-3.4-0.2-4.5-0.6v-0.1c2.9-4.5,5.6-7.8,8.9-12.9c-1.6-2.3-7.1-11.1-8.5-13.1V120.1z"/>
			<path fill="#606061" d="M100.5,199.3c0,1.2-0.3,1.5-1.3,1.6c-1.7,0.2-4.9,0.2-6,0.2c0.1-2.4,0.2-6.1,0.2-11.2v-20.5
				c0-3,0-4.4-0.1-6.2c1.6-0.4,8-1,10.8-1c9.4,0,14,3.1,14,10.8c0,5.5-4.5,8.6-7.5,9.7c1.2,0.8,3.1,3.7,5.3,7.8
				c2.9,5.3,5.3,8.8,6.7,10v0.2c-0.6,0.3-2.9,0.6-4.6,0.6c-2.4,0-4.1-0.7-5.8-2.9c-1.7-2.4-2.6-4.4-5.1-9.2
				c-2.1-3.9-3.5-4.2-5.3-4.2c-0.5,0-0.7,0-1.3,0V199.3z M100.5,181c2,0.1,5.2-0.2,6-0.6c1.3-0.6,3.9-2.3,3.9-6.7
				c0-5.3-3.4-7.4-7.1-7.4c-0.9,0-2.1,0.1-2.8,0.2V181z"/>
			<path fill="#606061" d="M144.1,195.2c0,2.4-2,4.7-2.8,5.1c-0.9,0.5-3.5,1.2-5.6,1.2c-8.9,0-13.6-5-13.6-13.8
				c0-7.4,4.8-14.6,13-14.6c7.6,0,10.4,5.5,10.5,10.3c0,0.8-0.2,1.5-0.3,1.9c-0.2,1-2.4,1.7-4.8,2.3c-1.5,0.4-7.8,0.4-11.3,0.2
				c0.2,6,4.2,8.6,8.6,8.6c2.6,0,5.1-0.7,6.3-1.3L144.1,195.2z M134.3,176.9c-2.4,0-4.8,2.3-5.1,7.2c2.6,0.2,7.5,0.1,8.9,0
				c0.5,0,0.8-0.7,0.8-1.3C139,179.5,137.6,176.9,134.3,176.9L134.3,176.9z"/>
			<path fill="#606061" d="M159.3,173.1c2.2,0,4.7,0.4,6.5,2.1c0.4,1.2-0.4,3.1-2,3.7c-1.5-0.9-3.1-1.2-4.6-1.2
				c-2.1,0-3.4,1.2-3.4,2.8c0,1.3,1,2.1,2.4,2.9c1.3,0.7,3.1,1.6,4.8,2.5c2.7,1.5,4.2,3.9,4.2,6.6c0,6-5.1,9-10.6,9
				c-2.7,0-5.3-0.8-6.9-2c-0.7-0.6-0.8-1.1-0.7-1.6c0.1-1,0.7-2.6,1.8-3c1.4,1,3.8,2,6.3,2s3.6-1.3,3.6-2.8c0-1.3-0.7-2.1-2.6-3.1
				c-1.5-0.8-3.1-1.7-4.3-2.3c-2.3-1.4-4.3-3.8-4.3-6.9C149.5,176.4,154.2,173.1,159.3,173.1L159.3,173.1z"/>
			<path fill="#606061" d="M193.4,195.3c-0.1,1.8-0.9,3.7-2,4.7c-1.7,1-4.3,1.5-6.6,1.5c-7.8,0-14.1-4.4-14.1-13.6
				c0-8.7,6.6-14.7,15.1-14.7c3.4,0,6.2,0.8,7.8,2.3c0.2,0.7-0.4,3-1.8,3.5c-2-0.9-3.8-1.2-5.6-1.2c-4.5,0-8.3,2.9-8.3,9.1
				c0,7,4.8,9.5,9,9.5c2.5,0,4.7-0.4,6.4-1.2L193.4,195.3z"/>
			<path fill="#606061" d="M198,181.1c0-3.8-0.1-5.6-0.2-6.9c1.3-0.4,4.7-0.7,6.2-0.7c0.9,0,1.1,0.3,1.1,3.9c0,4,0,9.1,0,13.3
				c0,5,2.9,5.8,5,5.8c2,0,3.7-1,4.5-2v-18.2c0-1.8,0.2-2.1,1.2-2.3c2.6-0.3,4.1-0.4,6.1-0.4c0,1.3-0.2,5.7-0.2,11v9.8
				c0,2.6,0.6,3.2,2.3,3.5v0.3c-0.4,1.8-2.1,3.4-3.5,3.4c-3.2,0-4.5-1.5-5.1-3.9c-1.2,1.3-3.2,2.4-4.5,3c-1.2,0.6-2.5,0.9-3.9,0.9
				c-6.2,0-8.9-4.2-8.9-10.1V181.1z"/>
			<path fill="#606061" d="M248.6,195.2c0,2.4-2,4.7-2.8,5.1c-0.9,0.5-3.5,1.2-5.6,1.2c-8.9,0-13.6-5-13.6-13.8
				c0-7.4,4.8-14.6,13-14.6c7.6,0,10.4,5.5,10.5,10.3c0,0.8-0.2,1.5-0.3,1.9c-0.2,1-2.4,1.7-4.8,2.3c-1.5,0.4-7.8,0.4-11.3,0.2
				c0.2,6,4.2,8.6,8.6,8.6c2.6,0,5.1-0.7,6.3-1.3L248.6,195.2z M238.8,176.9c-2.4,0-4.8,2.3-5.1,7.2c2.6,0.2,7.5,0.1,8.9,0
				c0.5,0,0.8-0.7,0.8-1.3C243.4,179.5,242.1,176.9,238.8,176.9L238.8,176.9z"/>
			<path fill="#606061" d="M296,163.2c0.9-0.5,4.7-0.9,6.1-0.9c0.6,0,1,0.4,1.2,1.8l3.2,22.5c0.9,6.4,1.7,11,2.2,13.9
				c-1,0.3-4.7,0.6-5.9,0.6c-0.7,0-1.5-0.3-1.6-1.5c-0.4-3.2-0.8-6.4-1.5-12.8l-1.9-15.9c-1.8,5.4-5.6,15.9-9.7,27.4
				c-0.4,1.2-0.8,1.7-2.1,2c-1,0.2-2.4,0.4-3.5,0.4c-1.5-4.9-7.1-21.4-9.9-29.6c-1,7.8-2.9,22.2-3.9,29.1c-0.1,0.7-0.4,0.9-1,0.9
				c-1.6,0-4,0-5-0.6c1.2-6.3,3.5-22.3,6.1-36.2l-0.2-1.2c1.5-0.4,3.5-0.9,6.2-0.9c0.9,0.3,1.4,1.3,2.6,4.5l8.6,23.5
				c3.2-8.6,7.5-20,10-26.3L296,163.2z"/>
			<path fill="#606061" d="M320.4,199.3c0,1.1-0.4,1.4-1.7,1.6c-1.2,0.2-3.3,0.2-5.6,0.2c0.1-2.5,0.2-6.1,0.2-9.6v-10.4
				c0-3.8-0.1-5.6-0.2-6.9c1.3-0.4,5-0.7,6.2-0.7c0.9,0,1.1,0.3,1.1,3.9V199.3z M317.1,160.7c2.2,0,3.5,1.7,3.5,3.9
				c0,2.3-1.6,4-3.9,4c-1.8,0-3.7-1.2-3.7-3.9C313.1,161.9,315.5,160.7,317.1,160.7L317.1,160.7z"/>
			<path fill="#606061" d="M335.3,173.1c2.2,0,4.7,0.4,6.5,2.1c0.4,1.2-0.4,3.1-2,3.7c-1.5-0.9-3.1-1.2-4.6-1.2
				c-2.1,0-3.4,1.2-3.4,2.8c0,1.3,1,2.1,2.4,2.9c1.3,0.7,3.1,1.6,4.8,2.5c2.7,1.5,4.2,3.9,4.2,6.6c0,6-5.1,9-10.6,9
				c-2.7,0-5.3-0.8-6.9-2c-0.7-0.6-0.8-1.1-0.7-1.6c0.1-1,0.7-2.6,1.8-3c1.4,1,3.8,2,6.3,2s3.6-1.3,3.6-2.8c0-1.3-0.7-2.1-2.6-3.1
				c-1.5-0.8-3.1-1.7-4.3-2.3c-2.3-1.4-4.3-3.8-4.3-6.9C325.5,176.4,330.2,173.1,335.3,173.1L335.3,173.1z"/>
			<path fill="#606061" d="M355.1,173.1c2.2,0,4.7,0.4,6.5,2.1c0.4,1.2-0.4,3.1-2,3.7c-1.5-0.9-3.1-1.2-4.6-1.2
				c-2.1,0-3.4,1.2-3.4,2.8c0,1.3,1,2.1,2.4,2.9c1.3,0.7,3.1,1.6,4.8,2.5c2.7,1.5,4.2,3.9,4.2,6.6c0,6-5.1,9-10.6,9
				c-2.7,0-5.3-0.8-6.9-2c-0.7-0.6-0.8-1.1-0.7-1.6c0.1-1,0.7-2.6,1.8-3c1.4,1,3.8,2,6.3,2c2.5,0,3.6-1.3,3.6-2.8
				c0-1.3-0.7-2.1-2.6-3.1c-1.5-0.8-3.1-1.7-4.3-2.3c-2.3-1.4-4.3-3.8-4.3-6.9C345.3,176.4,350,173.1,355.1,173.1L355.1,173.1z"/>
			<path fill="#606061" d="M374.3,199.3c0,1.1-0.4,1.4-1.7,1.6c-1.2,0.2-3.3,0.2-5.6,0.2c0.1-2.5,0.2-6.1,0.2-9.6v-10.4
				c0-3.8-0.1-5.6-0.2-6.9c1.3-0.4,5-0.7,6.2-0.7c0.9,0,1.1,0.3,1.1,3.9V199.3z M371.1,160.7c2.2,0,3.5,1.7,3.5,3.9
				c0,2.3-1.6,4-3.9,4c-1.8,0-3.7-1.2-3.7-3.9C367.1,161.9,369.5,160.7,371.1,160.7L371.1,160.7z"/>
			<path fill="#606061" d="M392.8,173.1c9.3,0,13.1,7,13.1,13.8c0,8.6-5.4,14.6-13.9,14.6c-7.8,0-13.2-5.2-13.2-14
				C378.9,179.2,384.7,173.1,392.8,173.1L392.8,173.1z M392,177c-3.8,0-5.8,3.9-5.8,9.7c0,7.6,3.1,10.9,6.5,10.9
				c3.6,0,5.7-3.8,5.7-9.9C398.5,181.2,396.3,177,392,177L392,177z"/>
			<path fill="#606061" d="M427.4,183.8c0-3.8-2.1-5.6-4.6-5.6c-2.3,0-3.8,1.2-5.3,2.4v18.6c0,1.2-0.2,1.4-1.4,1.6
				c-2,0.2-3.7,0.3-5.9,0.3c0.1-3.1,0.2-6.9,0.2-11.1v-10.2c0-1.8-0.2-2.6-1.1-3.1v-0.4c0.4-1.7,1.9-3.2,4-3.2c2.7,0,3.5,1.9,3.9,4
				c2.2-1.9,5.3-4,8.3-4c7.5,0,9,5.8,9,10.8v8.3c0,3.2,0.1,6.5,0.2,8.5c-1.3,0.1-3.6,0.5-6.1,0.5c-0.9,0-1.2-0.4-1.2-1.1V183.8z"/>
			<path fill="#606061" d="M436.4,168.8h-1.5c-0.2,0-0.2-0.1-0.2-0.3c0.1-0.6,0.2-0.8,0.3-0.9c0.1,0,0.4,0,1.2,0h3.4
				c0,0.3-0.3,1-0.5,1.1h-1.2v2.7c0,0.5,0,0.8,0,1l-1.3,0.1c-0.1,0-0.2,0-0.2-0.1V168.8z M446.4,170.7c0.1,0.8,0.3,1.4,0.3,1.7
				c-0.3,0-1,0.1-1.3,0.1c-0.1,0-0.2-0.1-0.2-0.3c-0.1-0.4-0.1-0.8-0.2-1.3l-0.3-2c-0.2,0.6-0.7,2.2-1.1,3.4c-0.5,0.1-0.7,0.1-1,0.1
				c-0.2-0.6-0.8-2.5-1.1-3.2c-0.1,0.5-0.3,2.2-0.4,3.1c-0.1,0.1-0.1,0.2-0.2,0.2c-0.7,0-0.9-0.1-1.1-0.1c0.2-1,0.5-2.8,0.8-4.3
				l-0.1-0.3c0.2-0.1,1.2-0.1,1.7-0.1c0.1,0,0.2,0.1,0.4,0.6l0.7,2c0.3-0.9,0.7-1.8,0.9-2.3l0-0.1c0.2-0.1,1.2-0.1,1.5-0.1
				c0.1,0,0.2,0.1,0.2,0.3L446.4,170.7z"/>
		</g>
		<g>
			<path fill="#606061" d="M97.9,217.9h-4.4c-0.3,0-0.4-0.1-0.3-0.4c0.2-0.4,0.4-0.7,0.6-0.9c0.3,0.1,0.7,0.1,3.4,0.1h7.6
				c0,0.6-0.4,1.1-0.8,1.2h-4.3v10.3c0,1.6,0,2.4,0.1,2.8c-0.5,0.1-1.1,0.2-1.6,0.2c-0.2,0-0.3-0.1-0.3-0.4V217.9z"/>
			<path fill="#606061" d="M103.9,221.6c0.1-0.3,0.6-0.9,1.1-0.9c0.8,0,1.1,0.9,1.1,2.3c0.7-1.5,1.7-2.3,2.7-2.3
				c0.3,0,0.7,0.1,0.9,0.3c0.2,0.1,0.2,0.3,0.2,0.4c0,0.5-0.4,1.1-0.7,1.3c-0.3-0.2-0.7-0.3-1-0.3c-0.5,0-1.3,0.4-1.8,1.6
				c-0.2,0.4-0.3,0.8-0.3,1.3c0,1.5,0,4.5,0,5.4c0,0.3-0.1,0.5-0.4,0.6c-0.5,0.1-1.1,0.1-1.5,0.1c0.1-0.8,0.1-2.1,0.1-4.3v-3.9
				C104.5,222.2,104.4,221.8,103.9,221.6L103.9,221.6z"/>
			<path fill="#606061" d="M119.2,230c0,0.9-0.6,1.3-1.4,1.3c-0.9,0-1.4-0.7-1.5-1.5c-0.7,0.8-1.8,1.5-3,1.5c-1.6,0-2.6-1.2-2.6-2.5
				c0-2.5,3.4-3.2,4.6-3.4c0.4-0.1,0.8-0.2,1-0.2v-0.9c0-1.2-0.7-2.2-2.1-2.2c-1,0-1.8,0.5-2.5,1c-0.5,0.1-0.8-0.5-0.7-0.9
				c0.8-0.7,2.3-1.6,3.7-1.6c2.3,0,3.4,1.6,3.4,3.8c0,1-0.1,3.3-0.1,4.7c0,0.5,0.3,0.8,0.8,0.8C119,230,119.1,230,119.2,230
				L119.2,230z M112.6,228.5c0,0.9,0.7,1.5,1.6,1.5c1,0,1.6-0.6,2-1.1c0.1-0.2,0.1-0.3,0.1-0.7l0-2.1
				C114.5,226.5,112.6,227.1,112.6,228.5L112.6,228.5z"/>
			<path fill="#606061" d="M127.7,224.8c0-1.9-0.9-2.7-2.1-2.7c-1.2,0-2.1,0.8-2.6,1.5v7c0,0.5-0.1,0.6-0.5,0.6
				c-0.5,0.1-0.9,0.1-1.4,0.1c0-0.8,0.1-2.1,0.1-4.3V223c0-0.8-0.1-1.2-0.4-1.4v-0.1c0.1-0.4,0.7-0.8,1.1-0.8c0.7,0,0.9,0.9,1,1.7
				c0.8-0.9,2.1-1.7,3.3-1.7c2.5,0,3.3,1.8,3.3,4.1v3.4c0,1.4,0,2.3,0.1,2.8c-0.5,0.1-1,0.2-1.6,0.2c-0.3,0-0.3-0.1-0.3-0.3
				L127.7,224.8z"/>
			<path fill="#606061" d="M135.1,220.7c0.7,0,1.7,0.2,2.2,0.8c0.1,0.3-0.2,0.9-0.6,1c-0.6-0.3-1.2-0.5-1.8-0.5
				c-0.9,0-1.7,0.5-1.7,1.4c0,0.7,0.5,1.2,1.1,1.5c0.7,0.4,1.3,0.6,2,1c1,0.6,1.4,1.4,1.4,2.3c0,2.2-1.8,3.2-3.7,3.2
				c-1.2,0-2.2-0.4-2.6-0.9c-0.1-0.2-0.1-0.4,0-0.6c0.1-0.2,0.2-0.5,0.5-0.5c0.6,0.4,1.4,0.7,2.3,0.7c1.2,0,1.8-0.7,1.8-1.5
				c0-0.6-0.3-1.1-1.2-1.5c-0.6-0.3-1.1-0.5-1.6-0.8c-0.9-0.5-1.7-1.3-1.7-2.6C131.7,221.9,133.3,220.7,135.1,220.7L135.1,220.7z"/>
			<path fill="#606061" d="M144,215.2c0.5,0,1.2,0.2,1.4,0.5c0.1,0.4-0.3,1.1-0.7,0.9c-0.2-0.1-0.5-0.2-0.8-0.2
				c-1.2,0-2.3,1.1-2.2,4.5c0.4,0,2.5,0,3.1,0c-0.1,0.5-0.3,0.8-0.6,1c-0.3,0.2-1.2,0.3-2.5,0.3c0,2.4,0.1,7.5,0.1,8.8
				c-0.4,0.1-1.3,0.2-1.6,0.2c-0.2,0-0.3-0.1-0.3-0.4c0.1-2.4,0-5.3,0-8.6c-0.9,0-1.2-0.2-1.2-0.5c0.2-0.3,0.6-0.5,1.2-0.8
				c0-2.5,0.6-3.9,1.6-4.8C142.3,215.5,143.1,215.2,144,215.2L144,215.2z"/>
			<path fill="#606061" d="M149.7,220.7c3.3,0,4.8,2.4,4.8,5.2c0,3.1-2,5.5-5.1,5.5c-3.4,0-4.9-2.5-4.9-5.2
				C144.5,223.1,146.6,220.7,149.7,220.7L149.7,220.7z M149.4,221.8c-1.6,0-2.9,1.5-2.9,4.1c0,2.9,1.4,4.4,3.1,4.4
				c1.4,0,2.9-1.2,2.9-4.2C152.5,223.7,151.5,221.8,149.4,221.8L149.4,221.8z"/>
			<path fill="#606061" d="M156.2,221.6c0.1-0.3,0.6-0.9,1.1-0.9c0.8,0,1.1,0.9,1.1,2.3c0.7-1.5,1.7-2.3,2.7-2.3
				c0.3,0,0.7,0.1,0.9,0.3c0.2,0.1,0.2,0.3,0.2,0.4c0,0.5-0.4,1.1-0.7,1.3c-0.3-0.2-0.7-0.3-1-0.3c-0.5,0-1.3,0.4-1.8,1.6
				c-0.2,0.4-0.3,0.8-0.3,1.3c0,1.5,0,4.5,0,5.4c0,0.3-0.1,0.5-0.4,0.6c-0.5,0.1-1.1,0.1-1.5,0.1c0.1-0.8,0.1-2.1,0.1-4.3v-3.9
				C156.7,222.2,156.6,221.8,156.2,221.6L156.2,221.6z"/>
			<path fill="#606061" d="M165.8,230.6c0,0.4-0.1,0.5-0.4,0.5c-0.5,0.1-1,0.1-1.5,0.1c0-0.8,0.1-2.1,0.1-4.3v-4
				c0-0.9-0.1-1.2-0.4-1.4v-0.1c0.2-0.4,0.7-0.8,1.1-0.8c0.7,0,0.9,0.8,1,1.7c0.9-0.9,2.1-1.7,3.3-1.7c1.4,0,2.2,0.6,2.7,1.8
				c0.9-1,2.1-1.8,3.5-1.8c2.3,0,3.2,1.8,3.2,4v3.5c0,1.3,0,2.3,0.1,2.8c-0.5,0.1-1.1,0.2-1.6,0.2c-0.2,0-0.3-0.1-0.3-0.3v-6
				c0-1.9-0.8-2.7-2.1-2.7c-1.2,0-1.9,0.7-2.5,1.3l0,7.1c0,0.5,0,0.6-0.4,0.6c-0.6,0.1-1,0.1-1.5,0.1c0-0.8,0.1-2.1,0.1-4.3v-2.1
				c0-1.8-0.7-2.7-2-2.7c-1.1,0-2,0.8-2.5,1.4V230.6z"/>
			<path fill="#606061" d="M182.4,216.3c0.6,0,1,0.5,1,1.1c0,0.6-0.4,1.2-1.1,1.2c-0.6,0-1-0.4-1-1.1
				C181.2,216.6,181.9,216.3,182.4,216.3L182.4,216.3z M183.2,230.5c0,0.4-0.1,0.5-0.5,0.6c-0.3,0.1-0.8,0.1-1.4,0.1
				c0-0.9,0.1-2.3,0.1-3.6v-3.9c0-1.4,0-2.1-0.1-2.6c0.4-0.1,1.3-0.2,1.6-0.2c0.2,0,0.3,0.1,0.3,1.4V230.5z"/>
			<path fill="#606061" d="M192.8,224.8c0-1.9-0.9-2.7-2.1-2.7c-1.2,0-2.1,0.8-2.6,1.5v7c0,0.5-0.1,0.6-0.5,0.6
				c-0.5,0.1-0.9,0.1-1.4,0.1c0-0.8,0.1-2.1,0.1-4.3V223c0-0.8-0.1-1.2-0.4-1.4v-0.1c0.1-0.4,0.7-0.8,1.1-0.8c0.7,0,0.9,0.9,1,1.7
				c0.8-0.9,2.1-1.7,3.3-1.7c2.5,0,3.3,1.8,3.3,4.1v3.4c0,1.4,0,2.3,0.1,2.8c-0.5,0.1-1,0.2-1.6,0.2c-0.3,0-0.3-0.1-0.3-0.3
				L192.8,224.8z"/>
			<path fill="#606061" d="M200.7,220.7c0.5,0,1.2,0.1,1.7,0.2c0.6,0.2,1.2,0.3,1.6,0.3c0.6,0,1.4-0.1,1.7-0.2c0,0.1,0,0.2,0,0.3
				c0,0.7-0.4,1-1,1.1c-0.2,0-0.6,0-0.9,0c0.3,0.5,0.5,1.2,0.5,1.8c0,2.4-1.8,3.6-3.7,3.6c-0.5,0-0.6,0-1-0.1
				c-0.3,0.3-0.6,0.6-0.6,0.7c0,0.4,0.3,0.7,1.3,0.8c1,0,2,0.1,2.8,0.1c1.9,0.2,2.6,1.3,2.6,2.6c0,2.6-2.6,4.1-5.2,4.1
				c-2.9,0-4.3-1.4-4.3-3c0-0.9,0.9-1.8,2.2-2.5c-1-0.3-1.4-1.2-1.4-1.8c0-0.1,0-0.2,0.2-0.3c0.3-0.2,1-0.7,1.4-1.1
				c-1.2-0.6-1.9-1.6-1.9-3C196.8,222.3,198.4,220.7,200.7,220.7L200.7,220.7z M198,232.9c0,1.2,1.5,1.9,3.1,1.9
				c1.9,0,3.2-1,3.2-2.2c0-0.7-0.4-1.4-1.8-1.6c-0.9-0.1-1.8-0.1-2.5-0.1c-0.2,0-0.4,0.1-0.6,0.2C198.7,231.4,198,232.1,198,232.9
				L198,232.9z M200.6,221.7c-1.1,0-2,1-2,2.6c0,1.4,0.8,2.5,2.1,2.5c1.4,0,2-1.2,2-2.5C202.6,223.1,202.1,221.7,200.6,221.7
				L200.6,221.7z"/>
			<path fill="#606061" d="M211.3,218.2c0-1.4,0-2.1-0.1-2.6c0.5-0.2,1.3-0.3,1.6-0.3c0.3,0,0.3,0.1,0.3,1.5V228c0,1.1,0,2.4,0.1,3
				c-0.4,0.1-1.4,0.2-1.6,0.2c-0.2,0-0.3-0.1-0.3-0.3V218.2z"/>
			<path fill="#606061" d="M217,216.3c0.6,0,1,0.5,1,1.1c0,0.6-0.4,1.2-1.1,1.2c-0.6,0-1-0.4-1-1.1
				C215.9,216.6,216.5,216.3,217,216.3L217,216.3z M217.9,230.5c0,0.4-0.1,0.5-0.5,0.6c-0.3,0.1-0.8,0.1-1.4,0.1
				c0-0.9,0.1-2.3,0.1-3.6v-3.9c0-1.4,0-2.1-0.1-2.6c0.4-0.1,1.3-0.2,1.6-0.2c0.2,0,0.3,0.1,0.3,1.4V230.5z"/>
			<path fill="#606061" d="M221,220.7c0.2,0,0.3,0.1,0.5,0.5c0.4,1.2,1.8,5,2.7,7.8c0.8-2.1,2.4-6.2,3.1-8.3c0.3,0,0.6,0.1,1,0.3
				s0.3,0.5-0.1,1.5c-0.9,2.4-2.1,5.1-3.2,8c-0.2,0.4-0.3,0.6-0.6,0.7c-0.4,0.1-0.8,0.2-1.2,0.2c-0.4-1.3-1.1-3-2.5-6.8
				c-0.8-2-1.1-2.7-1.4-3.4C219.8,221,220.6,220.7,221,220.7L221,220.7z"/>
			<path fill="#606061" d="M237.4,229.5c0,0.6-0.4,1.2-0.8,1.4c-0.3,0.2-1.3,0.5-2.2,0.5c-3.2,0-4.9-1.9-4.9-5.2
				c0-2.9,1.7-5.5,4.7-5.5c2.6,0,3.7,1.9,3.7,3.7c0,0.2,0,0.5-0.1,0.7c-0.1,0.4-1.2,0.6-1.9,0.8c-0.6,0.1-2.9,0.1-4.6,0
				c0,2.5,1.4,4,3.5,4C235.8,229.9,236.9,229.6,237.4,229.5L237.4,229.5z M234,221.8c-1.2,0-2.3,1-2.5,3.1c1.7,0.1,3.8,0,4.3,0
				c0.3,0,0.5-0.2,0.5-0.5C236.2,222.9,235.5,221.8,234,221.8L234,221.8z"/>
			<path fill="#606061" d="M242.8,220.7c0.7,0,1.7,0.2,2.2,0.8c0.1,0.3-0.2,0.9-0.6,1c-0.6-0.3-1.2-0.5-1.8-0.5
				c-0.9,0-1.7,0.5-1.7,1.4c0,0.7,0.5,1.2,1.1,1.5c0.7,0.4,1.3,0.6,2,1c1,0.6,1.4,1.4,1.4,2.3c0,2.2-1.8,3.2-3.7,3.2
				c-1.2,0-2.2-0.4-2.6-0.9c-0.1-0.2-0.1-0.4,0-0.6c0.1-0.2,0.2-0.5,0.5-0.5c0.6,0.4,1.4,0.7,2.3,0.7c1.2,0,1.8-0.7,1.8-1.5
				c0-0.6-0.3-1.1-1.2-1.5c-0.6-0.3-1.1-0.5-1.6-0.8c-0.9-0.5-1.7-1.3-1.7-2.6C239.3,221.9,240.9,220.7,242.8,220.7L242.8,220.7z"/>
			<path fill="#606061" d="M248,228.9c0.7,0,1.1,0.6,1.1,1.2c0,0.8-0.5,1.2-1.2,1.2c-0.5,0-1.1-0.4-1.1-1.2
				C246.8,229.5,247.2,228.9,248,228.9L248,228.9z"/>
			<path fill="#606061" d="M258.8,217.9h-4.4c-0.3,0-0.4-0.1-0.3-0.4c0.2-0.4,0.4-0.7,0.6-0.9c0.3,0.1,0.7,0.1,3.4,0.1h7.6
				c0,0.6-0.4,1.1-0.8,1.2h-4.3v10.3c0,1.6,0,2.4,0.1,2.8c-0.5,0.1-1.1,0.2-1.6,0.2c-0.2,0-0.3-0.1-0.3-0.4V217.9z"/>
			<path fill="#606061" d="M264.9,221.6c0.1-0.3,0.6-0.9,1.1-0.9c0.8,0,1.1,0.9,1.1,2.3c0.7-1.5,1.7-2.3,2.7-2.3
				c0.3,0,0.7,0.1,0.9,0.3c0.2,0.1,0.2,0.3,0.2,0.4c0,0.5-0.4,1.1-0.7,1.3c-0.3-0.2-0.7-0.3-1-0.3c-0.5,0-1.3,0.4-1.8,1.6
				c-0.2,0.4-0.3,0.8-0.3,1.3c0,1.5,0,4.5,0,5.4c0,0.3-0.1,0.5-0.4,0.6c-0.5,0.1-1.1,0.1-1.5,0.1c0.1-0.8,0.1-2.1,0.1-4.3v-3.9
				C265.4,222.2,265.3,221.8,264.9,221.6L264.9,221.6z"/>
			<path fill="#606061" d="M280.1,230c0,0.9-0.6,1.3-1.4,1.3c-0.9,0-1.4-0.7-1.5-1.5c-0.7,0.8-1.8,1.5-3,1.5c-1.6,0-2.6-1.2-2.6-2.5
				c0-2.5,3.4-3.2,4.6-3.4c0.4-0.1,0.8-0.2,1-0.2v-0.9c0-1.2-0.7-2.2-2.1-2.2c-1,0-1.8,0.5-2.5,1c-0.5,0.1-0.8-0.5-0.7-0.9
				c0.8-0.7,2.3-1.6,3.7-1.6c2.3,0,3.4,1.6,3.4,3.8c0,1-0.1,3.3-0.1,4.7c0,0.5,0.3,0.8,0.8,0.8C279.9,230,280,230,280.1,230
				L280.1,230z M273.5,228.5c0,0.9,0.7,1.5,1.6,1.5c1,0,1.6-0.6,2-1.1c0.1-0.2,0.1-0.3,0.1-0.7l0-2.1
				C275.4,226.5,273.5,227.1,273.5,228.5L273.5,228.5z"/>
			<path fill="#606061" d="M288.6,224.8c0-1.9-0.9-2.7-2.1-2.7c-1.2,0-2.1,0.8-2.6,1.5v7c0,0.5-0.1,0.6-0.5,0.6
				c-0.5,0.1-0.9,0.1-1.4,0.1c0-0.8,0.1-2.1,0.1-4.3V223c0-0.8-0.1-1.2-0.4-1.4v-0.1c0.1-0.4,0.7-0.8,1.1-0.8c0.7,0,0.9,0.9,1,1.7
				c0.8-0.9,2.1-1.7,3.3-1.7c2.5,0,3.3,1.8,3.3,4.1v3.4c0,1.4,0,2.3,0.1,2.8c-0.5,0.1-1,0.2-1.6,0.2c-0.3,0-0.3-0.1-0.3-0.3
				L288.6,224.8z"/>
			<path fill="#606061" d="M296,220.7c0.7,0,1.7,0.2,2.2,0.8c0.1,0.3-0.2,0.9-0.6,1c-0.6-0.3-1.2-0.5-1.8-0.5
				c-0.9,0-1.7,0.5-1.7,1.4c0,0.7,0.5,1.2,1.1,1.5c0.7,0.4,1.3,0.6,2,1c1,0.6,1.4,1.4,1.4,2.3c0,2.2-1.8,3.2-3.7,3.2
				c-1.2,0-2.2-0.4-2.6-0.9c-0.1-0.2-0.1-0.4,0-0.6c0.1-0.2,0.2-0.5,0.5-0.5c0.6,0.4,1.4,0.7,2.3,0.7c1.2,0,1.8-0.7,1.8-1.5
				c0-0.6-0.3-1.1-1.2-1.5c-0.6-0.3-1.1-0.5-1.6-0.8c-0.9-0.5-1.7-1.3-1.7-2.6C292.6,221.9,294.2,220.7,296,220.7L296,220.7z"/>
			<path fill="#606061" d="M305,215.2c0.5,0,1.2,0.2,1.4,0.5c0.1,0.4-0.3,1.1-0.7,0.9c-0.2-0.1-0.5-0.2-0.8-0.2
				c-1.2,0-2.3,1.1-2.2,4.5c0.4,0,2.5,0,3.1,0c-0.1,0.5-0.3,0.8-0.6,1c-0.3,0.2-1.2,0.3-2.5,0.3c0,2.4,0.1,7.5,0.1,8.8
				c-0.4,0.1-1.3,0.2-1.6,0.2c-0.2,0-0.3-0.1-0.3-0.4c0.1-2.4,0-5.3,0-8.6c-0.9,0-1.2-0.2-1.2-0.5c0.2-0.3,0.6-0.5,1.2-0.8
				c0-2.5,0.6-3.9,1.6-4.8C303.2,215.5,304,215.2,305,215.2L305,215.2z"/>
			<path fill="#606061" d="M310.6,220.7c3.3,0,4.8,2.4,4.8,5.2c0,3.1-2,5.5-5.1,5.5c-3.4,0-4.9-2.5-4.9-5.2
				C305.5,223.1,307.5,220.7,310.6,220.7L310.6,220.7z M310.3,221.8c-1.6,0-2.9,1.5-2.9,4.1c0,2.9,1.4,4.4,3.1,4.4
				c1.4,0,2.9-1.2,2.9-4.2C313.5,223.7,312.4,221.8,310.3,221.8L310.3,221.8z"/>
			<path fill="#606061" d="M317.1,221.6c0.1-0.3,0.6-0.9,1.1-0.9c0.8,0,1.1,0.9,1.1,2.3c0.7-1.5,1.7-2.3,2.8-2.3
				c0.3,0,0.7,0.1,0.9,0.3c0.2,0.1,0.2,0.3,0.2,0.4c0,0.5-0.4,1.1-0.7,1.3c-0.3-0.2-0.7-0.3-1-0.3c-0.5,0-1.3,0.4-1.8,1.6
				c-0.2,0.4-0.3,0.8-0.3,1.3c0,1.5,0,4.5,0,5.4c0,0.3-0.1,0.5-0.4,0.6c-0.5,0.1-1.1,0.1-1.5,0.1c0.1-0.8,0.1-2.1,0.1-4.3v-3.9
				C317.6,222.2,317.5,221.8,317.1,221.6L317.1,221.6z"/>
			<path fill="#606061" d="M326.7,230.6c0,0.4-0.1,0.5-0.4,0.5c-0.5,0.1-1,0.1-1.5,0.1c0-0.8,0.1-2.1,0.1-4.3v-4
				c0-0.9-0.1-1.2-0.4-1.4v-0.1c0.2-0.4,0.7-0.8,1.1-0.8c0.7,0,0.9,0.8,1,1.7c0.9-0.9,2.1-1.7,3.3-1.7c1.4,0,2.2,0.6,2.7,1.8
				c0.9-1,2.1-1.8,3.5-1.8c2.3,0,3.2,1.8,3.2,4v3.5c0,1.3,0,2.3,0.1,2.8c-0.5,0.1-1.1,0.2-1.6,0.2c-0.2,0-0.3-0.1-0.3-0.3v-6
				c0-1.9-0.8-2.7-2.1-2.7c-1.2,0-1.9,0.7-2.5,1.3l0,7.1c0,0.5,0,0.6-0.4,0.6c-0.6,0.1-1,0.1-1.5,0.1c0-0.8,0.1-2.1,0.1-4.3v-2.1
				c0-1.8-0.7-2.7-2-2.7c-1.1,0-2,0.8-2.5,1.4V230.6z"/>
			<path fill="#606061" d="M343.3,216.3c0.6,0,1,0.5,1,1.1c0,0.6-0.4,1.2-1.1,1.2c-0.6,0-1-0.4-1-1.1
				C342.1,216.6,342.8,216.3,343.3,216.3L343.3,216.3z M344.1,230.5c0,0.4-0.1,0.5-0.5,0.6c-0.3,0.1-0.8,0.1-1.4,0.1
				c0-0.9,0.1-2.3,0.1-3.6v-3.9c0-1.4,0-2.1-0.1-2.6c0.4-0.1,1.3-0.2,1.6-0.2c0.2,0,0.3,0.1,0.3,1.4V230.5z"/>
			<path fill="#606061" d="M353.7,224.8c0-1.9-0.9-2.7-2.1-2.7c-1.2,0-2.1,0.8-2.6,1.5v7c0,0.5-0.1,0.6-0.5,0.6
				c-0.5,0.1-0.9,0.1-1.4,0.1c0-0.8,0.1-2.1,0.1-4.3V223c0-0.8-0.1-1.2-0.4-1.4v-0.1c0.1-0.4,0.7-0.8,1.1-0.8c0.7,0,0.9,0.9,1,1.7
				c0.8-0.9,2.1-1.7,3.3-1.7c2.5,0,3.3,1.8,3.3,4.1v3.4c0,1.4,0,2.3,0.1,2.8c-0.5,0.1-1,0.2-1.6,0.2c-0.3,0-0.3-0.1-0.3-0.3
				L353.7,224.8z"/>
			<path fill="#606061" d="M361.6,220.7c0.5,0,1.2,0.1,1.7,0.2c0.6,0.2,1.2,0.3,1.6,0.3c0.6,0,1.4-0.1,1.7-0.2c0,0.1,0,0.2,0,0.3
				c0,0.7-0.4,1-1,1.1c-0.2,0-0.6,0-0.9,0c0.3,0.5,0.5,1.2,0.5,1.8c0,2.4-1.8,3.6-3.7,3.6c-0.5,0-0.6,0-1-0.1
				c-0.3,0.3-0.6,0.6-0.6,0.7c0,0.4,0.3,0.7,1.3,0.8c1,0,2,0.1,2.8,0.1c1.9,0.2,2.6,1.3,2.6,2.6c0,2.6-2.6,4.1-5.2,4.1
				c-2.9,0-4.3-1.4-4.3-3c0-0.9,0.9-1.8,2.2-2.5c-1-0.3-1.4-1.2-1.4-1.8c0-0.1,0-0.2,0.2-0.3c0.3-0.2,1-0.7,1.4-1.1
				c-1.2-0.6-1.9-1.6-1.9-3C357.7,222.3,359.3,220.7,361.6,220.7L361.6,220.7z M358.9,232.9c0,1.2,1.5,1.9,3.1,1.9
				c1.9,0,3.2-1,3.2-2.2c0-0.7-0.4-1.4-1.8-1.6c-0.9-0.1-1.8-0.1-2.5-0.1c-0.2,0-0.4,0.1-0.6,0.2
				C359.6,231.4,358.9,232.1,358.9,232.9L358.9,232.9z M361.5,221.7c-1.1,0-2,1-2,2.6c0,1.4,0.8,2.5,2.1,2.5c1.4,0,2-1.2,2-2.5
				C363.5,223.1,363,221.7,361.5,221.7L361.5,221.7z"/>
			<path fill="#606061" d="M376.6,220.7c3.3,0,4.8,2.4,4.8,5.2c0,3.1-2,5.5-5.1,5.5c-3.3,0-4.9-2.5-4.9-5.2
				C371.4,223.1,373.5,220.7,376.6,220.7L376.6,220.7z M376.3,221.8c-1.6,0-2.9,1.5-2.9,4.1c0,2.9,1.4,4.4,3.1,4.4
				c1.4,0,2.9-1.2,2.9-4.2C379.4,223.7,378.4,221.8,376.3,221.8L376.3,221.8z"/>
			<path fill="#606061" d="M383.5,223.7c0-1.4,0-2.1-0.1-2.6c0.4-0.1,1.2-0.2,1.6-0.2c0.2,0,0.3,0.1,0.3,1.4c0,1.5,0,3.3,0,4.8
				c0,2.5,1.3,2.8,2.3,2.8c1.1,0,2-0.7,2.3-1.2v-7c0-0.6,0.1-0.7,0.3-0.8c0.6-0.1,1.1-0.1,1.5-0.1c0,0.5-0.1,2.1-0.1,4.1v3.8
				c0,1.2,0.2,1.4,0.9,1.5v0.1c-0.1,0.4-0.5,1-1,1c-1,0-1.5-0.6-1.6-1.6c-0.6,0.7-1.4,1.1-1.9,1.3c-0.5,0.2-0.9,0.3-1.4,0.3
				c-2.3,0-3.3-1.5-3.3-3.8V223.7z"/>
			<path fill="#606061" d="M394.3,221.6c0.1-0.3,0.6-0.9,1.1-0.9c0.8,0,1.1,0.9,1.1,2.3c0.7-1.5,1.7-2.3,2.7-2.3
				c0.3,0,0.7,0.1,0.9,0.3c0.2,0.1,0.2,0.3,0.2,0.4c0,0.5-0.4,1.1-0.7,1.3c-0.3-0.2-0.7-0.3-1-0.3c-0.5,0-1.3,0.4-1.8,1.6
				c-0.2,0.4-0.3,0.8-0.3,1.3c0,1.5,0,4.5,0,5.4c0,0.3-0.1,0.5-0.4,0.6c-0.5,0.1-1.1,0.1-1.5,0.1c0.1-0.8,0.1-2.1,0.1-4.3v-3.9
				C394.9,222.2,394.8,221.8,394.3,221.6L394.3,221.6z"/>
			<path fill="#606061" d="M413.4,229.5c0,0.5-0.3,1.1-0.6,1.3c-0.5,0.3-1.5,0.6-2.4,0.6c-2.3,0-5.2-1.1-5.2-5.2
				c0-3.2,2.4-5.5,5.5-5.5c1.4,0,2.4,0.4,2.8,0.9c0,0.3-0.2,0.9-0.6,1c-0.8-0.4-1.6-0.6-2.3-0.6c-2,0-3.5,1.5-3.5,3.9
				c0,3.2,2.3,4,3.8,4C411.7,229.9,412.6,229.8,413.4,229.5L413.4,229.5z"/>
			<path fill="#606061" d="M416.1,216.3c0.6,0,1,0.5,1,1.1c0,0.6-0.4,1.2-1.1,1.2c-0.6,0-1-0.4-1-1.1
				C415,216.6,415.6,216.3,416.1,216.3L416.1,216.3z M417,230.5c0,0.4-0.1,0.5-0.5,0.6c-0.3,0.1-0.8,0.1-1.4,0.1
				c0-0.9,0.1-2.3,0.1-3.6v-3.9c0-1.4,0-2.1-0.1-2.6c0.4-0.1,1.3-0.2,1.6-0.2c0.2,0,0.3,0.1,0.3,1.4V230.5z"/>
			<path fill="#606061" d="M425.2,229.5c0.1,0.5,0.1,0.8-0.3,1.2c-0.5,0.4-1.4,0.6-2.2,0.6c-2,0-2.8-1.3-2.8-3c0-1,0-3.1,0-6.1
				c-0.7,0-1.1-0.2-1.1-0.4c0.2-0.5,1.6-1.7,1.9-2.1c0.3-0.3,0.5-0.4,1.1-0.6c0,0.7-0.1,1.3-0.1,1.8c0.9,0,3.3,0,3.7,0
				c-0.2,1.1-0.7,1.1-1.1,1.2c-0.8,0.1-0.8,0.1-2.6,0.1c-0.1,2.4-0.1,5,0,6c0.1,1.4,0.9,1.8,1.7,1.8
				C424.1,230,424.8,229.8,425.2,229.5L425.2,229.5z"/>
			<path fill="#606061" d="M427,235.4c0.7-0.9,2.1-2.7,3.2-4.7c-0.1-0.1-0.4-0.8-0.5-1.1c-0.3-0.9-2.3-6.1-3.3-8.4
				c0.4-0.2,1.1-0.5,1.5-0.5c0.3,0,0.4,0.2,0.5,0.4c0.4,0.9,2.2,6,2.8,7.8c0.9-2,2.3-6.3,2.7-8.2c0.4,0,0.6,0,1,0.2
				c0.3,0.1,0.3,0.4,0.2,0.8c-0.3,1.2-1.2,4.3-2.6,7.4c-1.8,3.8-3.8,6.8-4.3,6.8C427.7,236,427.2,235.7,427,235.4L427,235.4z"/>
			<path fill="#606061" d="M436.4,228.9c0.7,0,1.1,0.6,1.1,1.2c0,0.8-0.5,1.2-1.2,1.2c-0.5,0-1.1-0.4-1.1-1.2
				C435.1,229.5,435.6,228.9,436.4,228.9L436.4,228.9z"/>
		</g>
	</g>
</g>
</svg>
