<?xml version="1.0" encoding="utf-8"?>
<!-- Generator: Adobe Illustrator 21.1.0, SVG Export Plug-In . SVG Version: 6.00 Build 0)  -->
<svg version="1.1" id="Layer_1" xmlns="http://www.w3.org/2000/svg" xmlns:xlink="http://www.w3.org/1999/xlink" x="0px" y="0px"
	 viewBox="0 0 1955.5 2279.4" style="enable-background:new 0 0 1955.5 2279.4;" xml:space="preserve">
<style type="text/css">
	.st0{fill:#D9595E;}
	.st1{fill:#FFFFFF;}
	.st2{fill:none;}
</style>
<title>tsa</title>
<path class="st0" d="M977.7,2046.7l-32.9-36.1c-34.1-35.2-77.7-62.7-126.2-86.3c-49.7-24.2-104.7-44.4-160-64.7
	c-111.4-41-224.2-82.4-311-158.1c-88.1-76.8-147.4-186.8-147.7-362.4v-0.4c-2.7-116.5,14.8-232.2,32.4-348.6l0,0v-0.2v-0.1
	c12.4-82.1,24.8-164.4,29.8-247.1c4.9-81.3,2.4-162.3-14.9-242.5c-1.7-7.7-3.5-15.3-5.6-23c-2-7.5-4.2-15-6.5-22.4
	c-2.3-7.4-4.7-14.9-7.3-22.4c-0.7-2.1-4.4-12.7-8.5-24.5c-3-8.8-5.4-16.8-6.4-25c-1.2-10-0.4-19.4,3.6-29
	c6.2-14.8,15.9-24.7,30.5-29.4c12.2-3.9,26.6-3.3,44.3,2.1c13.2,4.1,25.6,8.8,38.1,13.4V340l0,0l0.4,0.2l0,0l0,0l0,0l0,0l0.8,0.3
	l-0.8-0.3c13.2,5,26.4,9.9,40.6,13.8h0.1c9.3,2.6,18.7,5,28.1,7.2c22.9,5.6,46,10.2,69.2,13.8c-0.8-0.1-2-0.3,0.1,0h0.3
	c6.8,1.1,11.1,1.7,12.9,1.9c2.6,0.4,7,0.9,13,1.6c21.9,2.6,43.7,4.2,65.6,4.9h0.2c21,0.6,41.8,0.2,62.4-1.2
	c20-1.3,39.9-3.6,59.8-6.9c93.1-15.5,176.6-52.7,250.3-108.6c15.1-11.5,30.3-22.2,45.2-34c14.9,11.8,30.1,22.5,45.2,34
	c73.7,55.9,157.2,93.1,250.2,108.7c18.8,3.2,38.8,5.5,59.8,6.9c20.7,1.4,41.5,1.8,62.4,1.2h0.2c21.9-0.6,43.8-2.3,65.6-4.9
	c6-0.7,10.3-1.3,13-1.6c1.8-0.2,6.1-0.9,12.9-1.9h0.3c2.1-0.3,0.9-0.1,0.1,0c23.3-3.7,46.3-8.3,69.2-13.8c9.4-2.2,18.8-4.7,28.1-7.2
	h0.1c14.2-3.9,27.4-8.8,40.6-13.8l-0.8,0.3l0.8-0.3l0,0l0,0l0,0l0,0l0.5-0.2l0,0v0.1c12.4-4.7,24.9-9.3,38.1-13.4
	c17.7-5.4,32.1-6,44.3-2.1c14.6,4.7,24.3,14.6,30.5,29.4c4,9.6,4.9,19.1,3.6,29c-1,8.2-3.4,16.2-6.5,25c-4.1,11.8-7.7,22.4-8.5,24.5
	c-2.6,7.7-5.1,15.2-7.3,22.4c-2.1,6.9-4.3,14.2-6.5,22.4c-2,7.6-3.9,15.3-5.6,23c-17.3,80.1-19.8,161.1-14.9,242.5
	c4.9,82.6,17.4,165,29.8,247.1v0.1v0.2l0,0c17.6,116.3,35,232.1,32.3,348.6v0.4c-0.3,175.7-59.6,285.6-147.7,362.4
	c-86.8,75.7-199.6,117.2-311,158.1c-55.3,20.3-110.2,40.5-160,64.7c-48.5,23.6-92.1,51.1-126.2,86.3L977.7,2046.7z"/>
<path class="st1" d="M977.7,2010.5l16.5-15.9c72.5-74.9,182.8-115.5,294.7-156.6c219-80.5,443.4-163.1,443.6-499.8
	c2.7-114.8-14.7-229.6-32.1-345c-25-165.7-50.2-332.7-14.6-497.8c3.5-16.4,7.8-32,12.6-47.3c4.5-14.4,10.1-30.8,15.9-47.6
	c5.2-14.9,8-26.6,3.4-37.7c-7-16.8-20.9-22.1-46.8-14.1c-12.9,4-25,8.5-37.1,13.1c-14,5.3-28,10.5-42.8,14.6h0
	c-32.9,9-66.4,16.2-100.1,21.5c-31.3,4.9-62.9,7.8-94.6,8.8c-154.9,4.5-288.3-42.4-399.5-131.1l-19-14.3l-18.9,14.3
	c-111.3,88.7-244.7,135.7-399.5,131.1c-31.7-1-63.3-3.9-94.6-8.8c-33.7-5.3-67.2-12.5-100.1-21.5l0,0c-14.8-4-28.8-9.3-42.8-14.6
	c-12.1-4.5-24.2-9.1-37.1-13.1c-26-8-39.8-2.7-46.8,14.1c-4.6,11-1.8,22.8,3.4,37.7c5.8,16.8,11.5,33.2,15.9,47.6
	c4.9,15.6,9.1,31.3,12.6,47.3c35.7,165.2,10.5,332.1-14.6,497.8c-17.4,115.4-34.8,230.2-32.1,345c0.2,336.8,224.7,419.3,443.6,499.8
	c111.9,41.1,222.2,81.7,294.7,156.6L977.7,2010.5z M977.7,1978.5C760.7,1754.3,246,1832.3,246,1337.6
	c-6.4-278.7,107.6-562.5,46.2-847.2c-7.2-33.4-18-65.2-29.2-97.5c-6.9-20-8.5-29.6,14.9-22.4c27.2,8.4,53,20.4,80.7,27.9
	c250.4,68.1,457.4,22.5,619.2-108.9c161.8,131.3,368.8,177,619.2,108.9c27.7-7.5,53.5-19.5,80.7-27.9c23.4-7.2,21.8,2.4,14.9,22.4
	c-11.2,32.3-22,64.1-29.2,97.5c-61.5,284.7,52.6,568.5,46.2,847.2C1709.5,1832.3,1194.8,1754.3,977.7,1978.5L977.7,1978.5z"/>
<path class="st0" d="M1316,2044.3c-34.4,0-63.5-26.8-63.5-63.4c0-36.7,29-63.5,63.5-63.5c33.6,0,62.7,26.8,62.7,63.5
	C1378.6,2017.6,1349.6,2044.3,1316,2044.3z M1264.7,1980.9c0,30.6,22.2,52.7,51.2,52.7c28.3,0,50.4-22.2,50.4-52.7
	c0-29.8-22.1-52.7-50.4-52.7C1286.9,1928.1,1264.7,1951,1264.7,1980.9z M1302.2,1986.2v31.3h-10.7v-73.4h27.5
	c16.8,0,25.2,6.9,25.2,21.4c0,13-7.7,18.3-18.3,19.9l20.6,32.1h-12.2l-19.1-31.3L1302.2,1986.2z M1302.2,1976.3h13
	c9.9,0,17.6-0.8,17.6-11.5c0-9.2-7.6-10.7-15.3-10.7h-15.3L1302.2,1976.3L1302.2,1976.3z"/>
<path class="st1" d="M733.6,597.8l-56.1,32.5c12.1,17.5,12.7,16.5,12.7,39c0.6,59.7-0.6,122.4,0,182.1c-0.2,14.8,1.6,30.4-4.4,49.6
	l60.8-35.2c-13.5-10.1-13-19.8-13-32.5c-0.9-26.1,0.9-70.9,0-97l58.5-34.7l1.4,88.4c0.7,15.5,1.6,32.7-6.9,52.7
	c18.6-11,40.5-23,59-34c-12.1-9-11-23.9-11-43.6c-0.2-73.9,0.2-151.8,0-225.8L781.5,570c10.6,17.6,10.5,27.1,10.5,46.9
	c-0.2,17.1,0.2,35.7,0,52.9c-18.8,11.1-39.6,22.2-58.5,33.3C733.8,667.8,733.5,633,733.6,597.8L733.6,597.8z M1242.3,736.4l-56,32.5
	c11.1,17.4,13.7,30.3,12.7,50c0,63.4,0,126.9,0,190.3c0.1,23.8,0.4,47.6-3.8,73.6l63.5-36.1c-13.2-11.5-19.1-33.5-17.5-53.2
	l-2.4-206C1238.9,768.4,1240,751.4,1242.3,736.4L1242.3,736.4z M1298.5,821.2c1.7-74.1,16.1-104.8,36.1-104.8
	c22.5,0,37.2,40.6,34.2,173.9c-1.2,54.2-15.7,84.8-31.3,84.8C1313.1,975.1,1296.1,923.8,1298.5,821.2L1298.5,821.2z M1412.8,853.4
	c2.8-139.7-36.4-170.5-73.4-170.5c-54.2,0-82.8,54.5-84.7,149.8c-2.3,113.2,21,182.7,73.1,182.7
	C1382,1015.4,1410.9,945.9,1412.8,853.4L1412.8,853.4z M1035.1,856.4c-0.3,32.1,0.9,46.6,0.5,78.8c4.4,2.7,10.2-5.8,12.9-22.1
	c12.5-43.8,11-41.1,31.3-52.5l4.5,232.9c-0.4,30.9-3.1,42.6-8.3,57c20.4-12.2,42.8-23.8,63.3-36c-12-4.5-18.7-6.1-18.7-36.9
	l-3.2-237c22-14.5,29.5-7.8,46.2,31.7c6.1,10.5,12.4,17.8,14.2,10c-7-55.9-5.9-71.3-10.8-102.4L1035.1,856.4L1035.1,856.4z
	 M1444,619.5l-42.3,24.5c20.4,9.9,31.3,17.1,31.3,66.6c-0.9,77.1-2.1,161.6-3,238.6c14.3-7.8,33.8-19.6,48.1-27.4
	c-12.7-20.4-14.9-18-14.9-51.1c0.7-48.9-0.7-100.4,0-149.3c23.7,48.2,61.3,128.8,85,176.9c3.3-0.9,9.8-1.9,13.1-2.8
	c-8.3-69.3-12.3-159.9-7.3-236.4c2.8-42.9,18.6-114.1-26.9-132.1l-29.1,21.3c27.4,15.4,29.6,38.5,27.1,66.8l-11.1,121
	c-10.1-16.1-23.3-48.4-36.4-73.5C1467.2,643.1,1457.3,626.5,1444,619.5L1444,619.5z M378.9,1473.2c1.9-18.2-9.7-37.2-33-37.2
	c-25.4,0-47.1,20.4-48.8,52.3c-1.7,31.2,27.6,75.4,76.3,75.4c65,0,101.5-57.8,104.3-110c6-117.1-131.3-127.8-127.4-201
	c1.2-23.2,22.1-35.3,41.9-35.3c18-0.5,36.8,12.6,39.3,32.5c2.3,15.8-18.5,25.4-4.9,31.2c6,0.9,11.9,0.8,17.6,3
	c8.9,3.3,21.1,19.7,19.9,0.8c-1.1-16.7-1.1-33.4,0.2-50c0.8-10.5,2.3-20.9,4.4-31.2c1.8-9,3.8-21.7-2.5-24.5
	c-2.8-1.2-7.3-1.6-14.3,3.5c-4.4,3.4-9.8,5.4-15.4,5.7c-16.1,0.6-29.3-7.6-46.9-7.6c-50.8,0-83.7,40.5-85.9,81.9
	c-4.9,91.4,134.1,119.8,129.1,201.5c-1.7,31.2-23.9,60.4-51.4,60.4C341.4,1524.5,333.1,1464.8,378.9,1473.2L378.9,1473.2z
	 M723.5,1037l-65.7,38.1c9.9,19.7,15.6,39.3,15.6,66.8l4.3,235.2l111.2-63.2c-2.8-20.4-2.9-23.9-2.9-31.6c-0.8-9.9-0.8-34.4,2-54.8
	l-19.3,19.1c-10.6,55.7-15.5,61.8-46.2,72.1L723.5,1037L723.5,1037z M808.2,987.9l-48.4,28c10.6,14.8,17.3,21.5,25.1,49.7
	l35.2,141.7c4.9,15.5,10.1,37.8,9.7,83.1l24.2-14.8l66.5-352.9l-48.9,28.4c2.8,14.8,5.1,29.8,2.6,42.5l-25.9,160.8L808.2,987.9z
	 M544.2,1413l7.8-62.2l44.9-20.2l8.8,52.7c2.1,13.8,0,23.5-2.1,35.9l64.8-36.8c-15-15.3-21.1-19.5-28.6-52.2
	c-16.4-78.6-35.7-154.2-52.1-232.8c-12.9,14.5-18.3,26.6-22.8,48.3L496.7,1480l61.3-34.9C545.1,1434,543.7,1425.3,544.2,1413
	L544.2,1413z M554.9,1317.6l21.1-104.9l15.3,87L554.9,1317.6z M942.2,1185.5l8.5-63.1l44.3-18.1l8.1,55.1c1.9,14,1.4,20.4-0.8,33
	l63.3-36c-14.8-15.5-22.1-19.4-29.2-52.5c-15.4-79.8-31.4-159-46.8-238.8c-13.1,14.7-18.6,27-23.5,49.1l-72.8,340.2l62.2-35.4
	C942.8,1207.8,941.5,1198.1,942.2,1185.5L942.2,1185.5z M954.1,1092.7l21.6-107.3l15,89.1L954.1,1092.7z M1023.9,1490.1l-2.1-124.3
	c8.4-6.6,17.4-9.7,24.8-9.8c22.5-0.5,37,23.4,37,53.6C1083.6,1468.4,1054.2,1488,1023.9,1490.1L1023.9,1490.1z M827.7,1707.5
	l8.8-58.7l45.2-20.7l8,49c2.1,14.2,0.9,24.7-1.3,37.5l65.7-37.4c-15-15.7-22.5-21.2-29.9-54.7c-16.2-80.8-35.5-158.5-51.7-239.3
	c-13,14.9-19.9,25.8-24.6,48.2l-68.5,345.2l62.1-35.3C828.3,1729.8,827.1,1720.1,827.7,1707.5L827.7,1707.5z M839.5,1614.7l20.8-113
	l15.9,94.6L839.5,1614.7z M1405.2,1116.3l-55,32.3c5.8,5.2,12.1,10.3,16.2,16.9c20.4,33.8,38.9,68.2,57.5,103l2.9,87.8
	c0,25.4-0.7,30.3-5.7,63.5l58-31.3c-10.6-25.4-11.9-25.5-11.9-48l-1.6-87.1c11-17.9,45.9-68.4,62.6-118.1c16.8-50,15.1-94-23.3-110
	l-33.9,10c31.1,19,31.8,43.8,25.6,73c-7.5,35.3-27.7,78.9-47.2,112.2l-24.9-47.5C1413.5,1152.3,1407,1145.4,1405.2,1116.3
	L1405.2,1116.3z M1174.8,1252.8l-39.1,17.6c12.7,23.3,16.7,31.2,16.7,56.6l0.5,226c0,7.8-0.3,11.8-0.3,19.6l51.9-29.2
	c-11.3-14.4-12.5-22.8-12.5-53.8l-0.5-129.8l47.7,58.5l37.3-87.1l-2.4,171.1l52.2-28.5c-2.9-20-3.3-24.4-3.3-42l-8.2-196.4
	c0-35.2-5.3-41.1,2.5-68.6l-43.7,22.6l-41.1,145.6L1174.8,1252.8L1174.8,1252.8z M956.7,1365c16.3,14.3,23,25.5,23,61.4l0.1,236
	l54.5-19.4c-11-17-12.7-25.9-12.7-56.2l0.7-60.6c0.9,1.8,2.6,6.2,5.1,12.5c12.3,31.5,43.6,107.2,100.4,120.3
	c20.6,4.8,32.3,0,47.3-17.1c-66.3-9.9-83.9-51.3-107.1-137.7c39.3-23.3,68.3-86.1,53.3-132.1c-12.4-37.9-44.5-50.3-78-48.2
	C1011,1326.1,975.5,1342,956.7,1365L956.7,1365z M496.6,702.1c-0.4,31.6-0.8,62.2-1.2,93.9c4.7,2.7,10.7-5.7,13.6-21.7
	c4.9-50.8,13.4-56.3,39.7-76.8l4.8,229.2c-0.4,25.8-1.3,37.3-6.8,55c21.6-12,41.8-24.7,63.4-36.7c-12.7-4.4-18.9-6-18.9-36.3
	l0.7-230.1c14.1-0.4,25.9-4.8,46.8,33.4c6.5,10.3,13.1,15.9,15,8.3c-10.5-52.1-11.1-68.5-15-100.4L496.6,702.1z M1011.9,436.6
	l-142.7,82.7c17.6,20.4,25.4,32.8,25.4,53.2c0,48.6,2.2,97.3,2.2,145.9c0,33.1-0.2,39.7-8,65.1l150.1-84.1l5.1-62.4
	c-36.1,54.5-61.5,65.8-107.6,93.5V619.8c20-23,59.4-19.8,87.9-27.9c20.8-5.9,35.8-18.9,35.8-50.2c-40,26.4-72.3,17.2-100.3,35.8
	c-8,5.3-16.6,13.1-23.5,20.6v-66.7c0-27.5,13.8-28.4,27.6-37.2c19.3-9.3,37.3,1.6,51.5,17.4L1011.9,436.6L1011.9,436.6z"/>
<rect class="st2" width="1955.5" height="2279.4"/>
</svg>
