<svg id="Layer_1" data-name="Layer 1" xmlns="http://www.w3.org/2000/svg" viewBox="0 0 2400 389"><defs><style>.cls-1{opacity:0.33;}.cls-2{fill:#fff;}.cls-3{opacity:0.67;}</style></defs><title>wave-transition</title><g class="cls-1"><path class="cls-2" d="M-1,389H2399V220.51c-13.16,7.25-10.65,6-15.7,8.31-51,23.72-113.86,32.19-169.14,34.78-39.3,1.84-76.88-3-115-14-17.89-5.25-35.81-11.3-53.79-14.13-60.37-9.48-122.57-2-181.57,17.45-69.54,23-147.08,11.72-217.27-4.08-28.43-6.38-56.41-14.29-84-23-85.24-26.9-173.39-24.57-259.18-.87C1248.8,240,1194,257,1138,261.1c-41.16,3-82.81.38-121.27-15-58.39-23.37-112.73-62.3-175.08-79.33-76.78-21-176.36-8.84-244.93,28.27-32.76,17.72-65.51,38.25-97.35,58.54-47.88,30.53-102.67,42.87-158,40.95-34.15-1.19-68.87-7.49-101-20.59-28.22-11.51-56.36-25.27-85.61-32.45C104.18,229.07,51.6,227.89-1,236.25Z"/></g><g class="cls-3"><path class="cls-2" d="M2357.33,250.38c-61.28-21.13-126.8-25-188-4.34-28.86,9.72-55.57,27.18-82.79,42.32-30.14,16.78-64.18,25.68-97.67,28.07-54.91,3.92-108.34-11.56-152.77-46.69-30.57-24.17-62.21-48.75-94.15-70-63.19-42.08-164.08-56.11-236.86-28.12-62.27,24-112.13,71-169.31,103.68-35.78,20.44-77.48,24.89-117.28,22.41-54.63-3.4-107.35-22.72-159.89-39.53-83.8-26.82-169.63-25.86-250.65,9.91-26.53,11.71-53.77,23-81.26,31.53-10.32,3.2-25.76,4.45-32.51,7.47a5.36,5.36,0,0,1-2,.7c-29.56.39-62,2.85-92.08-1.14-28.43-3.78-56.16-12.74-83.49-23C459.12,262,399,254.93,341,268.9c-17.62,4.25-34.77,12.4-52,19.64-36.38,14.94-72.11,22.62-111.17,22C124.14,309.7,62,300.38,14.18,274.33c-4.88-2.67-2.45-1.22-15.18-9.66V389H2399V266C2384.6,261.86,2371.19,255.16,2357.33,250.38Z"/></g><path class="cls-2" d="M2399,266s-11,2.22-16.26,3.54c-28.08,7-48.73,17.65-71.85,27.05C2253.39,320,2178,324.71,2107.25,309c-27.64-6.15-50.27-15.29-75-23.15-63.08-20-145.33-22.61-195-7.1s-79.9,28-182.2,31.35c-77.81,1.62-137.53-12.27-185.77-36.68-4.28-2.17-53.75-25.63-68.69-32.64-75.22-35.3-169.63-44.36-276.06-34.24-70,6.66-119.43,26.88-165.49,48.58C926.2,270.57,893.82,289,861.72,302s-45.17,18.83-70.18,26.54C731.27,347.11,664.23,355,589.61,352.6c-21.75-.71-69.6-3.58-119.47-15.13S361.54,300,313.14,287c-82.75-22.17-169.64-26.36-262.08-12.23C32.89,277.54-1,284.83-1,284.83V389H2399Z"/></svg>