<?xml version="1.0" encoding="utf-8"?>
<!-- Generator: Adobe Illustrator 22.1.0, SVG Export Plug-In . SVG Version: 6.00 Build 0)  -->
<svg version="1.1" id="Layer_1" xmlns="http://www.w3.org/2000/svg" xmlns:xlink="http://www.w3.org/1999/xlink" x="0px" y="0px"
	 viewBox="0 0 2400 1500" style="enable-background:new 0 0 2400 1500;" xml:space="preserve">
<style type="text/css">
	.st0{opacity:0.45;clip-path:url(#SVGID_3_);fill:none;stroke:#FFFFFF;stroke-miterlimit:10;enable-background:new    ;}
	.st1{opacity:0.45;clip-path:url(#SVGID_5_);fill:none;stroke:#FFFFFF;stroke-miterlimit:10;enable-background:new    ;}
	.st2{opacity:0.45;clip-path:url(#SVGID_7_);fill:none;stroke:#FFFFFF;stroke-miterlimit:10;enable-background:new    ;}
	.st3{opacity:0.6;clip-path:url(#SVGID_9_);fill:none;stroke:#FFFFFF;stroke-miterlimit:10;enable-background:new    ;}
	.st4{opacity:0.75;clip-path:url(#SVGID_11_);}
	.st5{opacity:0.5;fill:none;stroke:#FFFFFF;stroke-width:1.1199;stroke-miterlimit:10;enable-background:new    ;}
	.st6{opacity:0.6;fill:none;stroke:#FFFFFF;stroke-width:1.1199;stroke-miterlimit:10;enable-background:new    ;}
	.st7{opacity:0.75;fill:none;stroke:#FFFFFF;stroke-width:1.1199;stroke-miterlimit:10;enable-background:new    ;}
	.st8{opacity:0.4;fill:none;stroke:#FFFFFF;stroke-width:1.1199;stroke-miterlimit:10;enable-background:new    ;}
	.st9{fill:#8E8E8E;}
	.st10{opacity:0.75;clip-path:url(#SVGID_13_);}
	.st11{display:none;}
	.st12{display:inline;}
	.st13{clip-path:url(#SVGID_15_);}
	.st14{fill:#FFFFFF;}
	.st15{fill:#FFFFFF;stroke:#FFFFFF;stroke-width:2;stroke-linecap:round;stroke-linejoin:round;stroke-miterlimit:10;}
	.st16{opacity:0.75;}
	.st17{fill:none;stroke:#FFFFFF;stroke-width:2;stroke-linecap:round;stroke-linejoin:round;stroke-miterlimit:10;}
	.st18{opacity:0.67;fill:#FFFFFF;enable-background:new    ;}
</style>
<title>pillyr-cover</title>
<g>
	<g>
		<rect id="SVGID_1_" width="2400" height="1500"/>
	</g>
	<g>
		<g>
			<defs>
				<rect id="SVGID_2_" width="2400" height="1500"/>
			</defs>
			<clipPath id="SVGID_3_">
				<use xlink:href="#SVGID_2_"  style="overflow:visible;"/>
			</clipPath>
			<polyline class="st0" points="1574.8,1229.6 1599.4,670.8 1433.8,843.8 1786.7,867.8 			"/>
		</g>
		<g>
			<defs>
				<rect id="SVGID_4_" width="2400" height="1500"/>
			</defs>
			<clipPath id="SVGID_5_">
				<use xlink:href="#SVGID_4_"  style="overflow:visible;"/>
			</clipPath>
			<line class="st1" x1="1433.8" y1="843.8" x2="1828.8" y2="1136.1"/>
		</g>
		<g>
			<defs>
				<rect id="SVGID_6_" width="2400" height="1500"/>
			</defs>
			<clipPath id="SVGID_7_">
				<use xlink:href="#SVGID_6_"  style="overflow:visible;"/>
			</clipPath>
			<polyline class="st2" points="1581.1,299.6 1463.7,229.5 1700.1,95.8 1377.2,-71.6 			"/>
		</g>
		<g>
			<defs>
				<rect id="SVGID_8_" width="2400" height="1500"/>
			</defs>
			<clipPath id="SVGID_9_">
				<use xlink:href="#SVGID_8_"  style="overflow:visible;"/>
			</clipPath>
			<line class="st3" x1="1376.8" y1="588.2" x2="1838.2" y2="453.5"/>
		</g>
		<g>
			<defs>
				<rect id="SVGID_10_" width="2400" height="1500"/>
			</defs>
			<clipPath id="SVGID_11_">
				<use xlink:href="#SVGID_10_"  style="overflow:visible;"/>
			</clipPath>
			<g class="st4">
				<polyline class="st5" points="-563.5,-36.4 -227.5,175.3 -205.7,449.1 -529.5,636.7 -269.5,751.4 -481.9,903.1 -185.6,1009.5 
					11,766.6 240.7,1079 -100.8,1196.5 255.3,1269.9 657.1,1044.9 486.4,714.5 975.7,722.3 1433.8,843.8 1027.3,956.4 
					1351.5,1094.7 1039.6,1175.9 1574.8,1229.6 				"/>
				<polyline class="st6" points="179.5,-23.5 552.8,175.5 257.1,564.4 11,766.6 -227.5,175.3 -615.5,211.2 -269.5,751.4 
					-403.2,1251.9 255.3,1269.9 1016.9,1307.6 663,1227.3 1027.3,956.4 657.1,1044.9 240.7,1079 257.1,564.4 726.6,469.9 
					975.7,722.3 1376.8,588.2 1463.7,229.5 1134.6,83.6 840.8,215.6 552.8,175.5 905.3,-76.8 				"/>
				<polyline class="st7" points="-903.9,95.8 -765.8,453.5 -229.7,-102.4 179.5,-23.5 212.6,315.8 1134.8,445.7 1039.6,1175.9 
					240.7,1079 -775.1,1136.1 				"/>
				<polygon class="st7" points="-1022.9,299.6 -765.8,453.5 -1005.2,668.6 -529.5,636.7 257.1,564.4 975.7,722.3 1134.6,83.6 
					179.5,-23.5 -205.7,449.1 				"/>
				<path class="st8" d="M-1029.2,1229.6l211.9-361.8l335.4,35.3l78.7,348.8l217.5-242.5l-528.9,314.1l-60.6-187.5l245.6-499.4
					l-287.8,231.1l-187.2-188.1l-18.3-380.1l119-203.8l288.4,115.4l52.1-247.5l333.8-66.1l2.2,277.7L179.5-23.5l323.4-55.3
					l49.9,254.2l173.8,294.4l114.2-254.2l64.5-292.4l229.3,160.4L1377.2-47l86.5,276.5l-328.9,216.3l242,142.5l57,255.6l-82.3,250.9
					l223.3,134.8c-0.4,6.1-557.9,78-557.9,78l22.7-131.7l-12.3-219.5l-51.5-234L657.1,1045l5.9,182.4L255.4,1270l-14.7-191
					l245.7-364.5L257.1,564.4l-44.5-248.6l-418.3,133.3L11,766.6l-280.5-15.2l83.9,258.1l84.8,187l-302.4,55.4l-311.3,71.7
					L-1029.2,1229.6l254.1-93.4l293.3-233l-47.6-266.4l-236.3-183.2l-9.4,682.7"/>
				<circle class="st9" cx="-481.9" cy="903.1" r="12.9"/>
				<circle class="st9" cx="552.8" cy="175.5" r="12.9"/>
				<circle class="st9" cx="1134.6" cy="83.6" r="12.9"/>
				<circle class="st9" cx="1027.3" cy="956.4" r="12.9"/>
				<circle class="st9" cx="1134.8" cy="445.7" r="12.9"/>
				<circle class="st9" cx="-1022.9" cy="299.6" r="12.9"/>
				<circle class="st9" cx="240.7" cy="1079" r="12.9"/>
				<circle class="st9" cx="663" cy="1227.3" r="12.9"/>
				<circle class="st9" cx="-185.6" cy="1009.5" r="12.9"/>
				<circle class="st9" cx="-714.5" cy="1323.6" r="12.9"/>
				<circle class="st9" cx="257.1" cy="564.4" r="12.9"/>
				<circle class="st9" cx="-205.7" cy="449.1" r="12.9"/>
				<circle class="st9" cx="-563.5" cy="-36.4" r="12.9"/>
				<circle class="st9" cx="-765.8" cy="453.5" r="15.7"/>
				<circle class="st9" cx="-903.9" cy="95.8" r="15.7"/>
				<circle class="st9" cx="179.5" cy="-23.5" r="15.7"/>
				<circle class="st9" cx="840.8" cy="215.6" r="15.7"/>
				<circle class="st9" cx="502.9" cy="-78.8" r="15.7"/>
				<circle class="st9" cx="975.7" cy="722.3" r="15.7"/>
				<circle class="st9" cx="1377.2" cy="-47" r="18.4"/>
				<circle class="st9" cx="-227.5" cy="175.3" r="15.7"/>
				<circle class="st9" cx="486.4" cy="714.5" r="15.7"/>
				
					<ellipse transform="matrix(0.9951 -9.853758e-02 9.853758e-02 0.9951 -123.8904 31.3368)" class="st9" cx="255.3" cy="1269.9" rx="15.7" ry="15.7"/>
				<circle class="st9" cx="1039.6" cy="1175.9" r="15.7"/>
				
					<ellipse transform="matrix(0.9999 -1.020248e-02 1.020248e-02 0.9999 -7.8206 0.1521)" class="st9" cx="11" cy="766.6" rx="15.7" ry="15.7"/>
				<circle class="st9" cx="1433.8" cy="843.8" r="15.7"/>
				<circle class="st9" cx="-775.1" cy="1136.1" r="15.7"/>
				<circle class="st9" cx="-1029.2" cy="1229.6" r="15.7"/>
				<circle class="st9" cx="-817.3" cy="867.8" r="8.9"/>
				<circle class="st9" cx="-403.2" cy="1251.9" r="8.9"/>
				<circle class="st9" cx="-100.8" cy="1196.5" r="8.9"/>
				<circle class="st9" cx="-269.5" cy="751.4" r="8.9"/>
				<circle class="st9" cx="657.1" cy="1044.9" r="8.9"/>
				<circle class="st9" cx="1016.9" cy="1307.6" r="8.9"/>
				<circle class="st9" cx="1351.5" cy="1094.7" r="8.9"/>
				<circle class="st9" cx="1376.8" cy="588.2" r="8.9"/>
				<circle class="st9" cx="-529.5" cy="636.7" r="8.9"/>
				<circle class="st9" cx="-615.5" cy="211.2" r="8.9"/>
				<circle class="st9" cx="-229.7" cy="-102.4" r="8.9"/>
				<circle class="st9" cx="212.6" cy="315.8" r="8.9"/>
				<circle class="st9" cx="726.6" cy="469.9" r="8.9"/>
				<circle class="st9" cx="1463.7" cy="229.5" r="8.9"/>
				<circle class="st9" cx="905.3" cy="-76.8" r="8.9"/>
				<circle class="st9" cx="-1004.6" cy="670.8" r="8.9"/>
			</g>
		</g>
		<g>
			<defs>
				<rect id="SVGID_12_" width="2400" height="1500"/>
			</defs>
			<clipPath id="SVGID_13_">
				<use xlink:href="#SVGID_12_"  style="overflow:visible;"/>
			</clipPath>
			<g class="st10">
				<polyline class="st5" points="2040.5,-36.4 2376.4,175.3 2398.3,449.1 2074.5,636.7 2334.5,751.4 2122.1,903.1 2418.3,1009.5 
					2615,766.6 2844.7,1079 2503.2,1196.5 2859.3,1269.9 3261,1044.9 3090.3,714.5 3579.7,722.3 4037.7,843.8 3631.2,956.4 
					3955.4,1094.7 3643.5,1175.9 4079.9,1211.6 				"/>
				<polyline class="st6" points="2783.5,-23.5 3156.7,175.5 2861.1,564.4 2615,766.6 2376.4,175.3 1988.4,211.2 2334.5,751.4 
					2200.8,1251.9 2859.3,1269.9 3620.8,1307.6 3266.9,1227.3 3631.2,956.4 3261,1044.9 2844.7,1079 2861.1,564.4 3330.5,469.9 
					3579.7,722.3 3980.8,588.2 4067.7,229.5 3738.6,83.6 3444.8,215.6 3156.7,175.5 3509.3,-76.8 				"/>
				<polyline class="st7" points="1700.1,95.8 1838.2,453.5 2374.2,-102.4 2783.5,-23.5 2816.5,315.8 3738.7,445.7 3643.5,1175.9 
					2844.7,1079 1828.8,1136.1 				"/>
				<polygon class="st7" points="1581.1,299.6 1838.2,453.5 1598.7,668.6 2074.5,636.7 2861.1,564.4 3579.7,722.3 3738.6,83.6 
					2783.5,-23.5 2398.3,449.1 				"/>
				<path class="st8" d="M1574.8,1229.6l211.9-361.8l335.4,35.3l78.7,348.8l217.5-242.5L1898,1310.7l-69.2-174.6l245.6-499.4
					l-287.8,231.1l-187.2-188.1l-18.3-380.1l119-203.8l288.4,115.4l52.1-247.5l333.8-66.1l2.2,277.7l407.1-198.8l323.4-55.3
					l49.9,254.2l173.8,294.4L3445,215.6l64.5-292.4l229.3,160.4L3981.2-47l86.5,276.5l-328.9,216.3l242,142.5l57,255.6l-82.3,250.9
					l125.2,106.6c-0.4,6.1-4.9,11.1-10.9,12.2l-448.9,94l22.7-131.7l-12.3-219.5l-51.5-234L3261,1044.9l5.9,182.4l-407.6,42.6
					l-14.6-190.9l245.7-364.5l-229.3-150.1l-44.5-248.6l-418.3,133.3L2615,766.6l-280.5-15.2l83.9,258.1l84.8,187l-302.4,55.4
					l-302.8,58.8L1574.8,1229.6l254.1-93.4l293.3-233l-47.6-266.4l-236.3-183.2l-9.4,682.7"/>
				<circle class="st9" cx="1828.8" cy="1136.1" r="12.9"/>
				<circle class="st9" cx="3156.7" cy="175.5" r="12.9"/>
				<circle class="st9" cx="3738.6" cy="83.6" r="12.9"/>
				<circle class="st9" cx="3631.2" cy="956.4" r="12.9"/>
				<circle class="st9" cx="3738.7" cy="445.7" r="12.9"/>
				<circle class="st9" cx="1581.1" cy="299.6" r="12.9"/>
				<circle class="st9" cx="2844.7" cy="1079" r="12.9"/>
				<circle class="st9" cx="3266.9" cy="1227.3" r="12.9"/>
				
					<ellipse transform="matrix(0.7071 -0.7071 0.7071 0.7071 338.2071 3239.7644)" class="st9" cx="4079.8" cy="1211.6" rx="12.9" ry="12.8"/>
				<circle class="st9" cx="2418.3" cy="1009.5" r="12.9"/>
				<circle class="st9" cx="1898" cy="1310.7" r="12.9"/>
				<circle class="st9" cx="2861.1" cy="564.4" r="12.9"/>
				<circle class="st9" cx="2398.3" cy="449.1" r="12.9"/>
				
					<ellipse transform="matrix(0.2114 -0.9774 0.9774 0.2114 1644.6364 1965.6632)" class="st9" cx="2040.5" cy="-36.4" rx="12.9" ry="12.9"/>
				<circle class="st9" cx="1838.2" cy="453.5" r="15.7"/>
				<circle class="st9" cx="1700.1" cy="95.8" r="15.7"/>
				<circle class="st9" cx="2783.5" cy="-23.5" r="15.7"/>
				<circle class="st9" cx="3444.8" cy="215.6" r="15.7"/>
				<circle class="st9" cx="3106.9" cy="-78.8" r="15.7"/>
				<circle class="st9" cx="3579.7" cy="722.3" r="15.7"/>
				<circle class="st9" cx="3981.2" cy="-47" r="15.7"/>
				<circle class="st9" cx="2376.4" cy="175.3" r="15.7"/>
				<circle class="st9" cx="3090.3" cy="714.5" r="15.7"/>
				<circle class="st9" cx="2859.3" cy="1269.9" r="15.7"/>
				<circle class="st9" cx="3643.5" cy="1175.9" r="15.7"/>
				<circle class="st9" cx="2615" cy="766.6" r="15.7"/>
				<circle class="st9" cx="4037.7" cy="843.8" r="15.7"/>
				<circle class="st9" cx="1574.8" cy="1229.6" r="15.7"/>
				<circle class="st9" cx="1786.7" cy="867.8" r="8.9"/>
				<circle class="st9" cx="2200.8" cy="1251.9" r="8.9"/>
				<circle class="st9" cx="2503.2" cy="1196.5" r="8.9"/>
				<circle class="st9" cx="2334.5" cy="751.4" r="8.9"/>
				<circle class="st9" cx="3261" cy="1044.9" r="8.9"/>
				<circle class="st9" cx="3620.8" cy="1307.6" r="8.9"/>
				<circle class="st9" cx="3955.4" cy="1094.7" r="8.9"/>
				<circle class="st9" cx="3980.8" cy="588.2" r="8.9"/>
				<circle class="st9" cx="2074.5" cy="636.7" r="8.9"/>
				<circle class="st9" cx="1988.4" cy="211.2" r="8.9"/>
				<circle class="st9" cx="2374.2" cy="-102.4" r="8.9"/>
				<circle class="st9" cx="2816.5" cy="315.8" r="8.9"/>
				<circle class="st9" cx="3330.5" cy="469.9" r="8.9"/>
				<circle class="st9" cx="4067.7" cy="229.5" r="8.9"/>
				<circle class="st9" cx="3509.3" cy="-76.8" r="8.9"/>
				<circle class="st9" cx="1599.4" cy="670.8" r="8.9"/>
				<circle class="st9" cx="2120.7" cy="904.6" r="15.7"/>
			</g>
		</g>
	</g>
</g>
<g class="st11">
	<g class="st12">
		<g>
			<g>
				<defs>
					<polygon id="SVGID_14_" points="0,1499.8 2400,1499.8 2400,1273.3 1058,1273.3 0,1273.3 					"/>
				</defs>
				<clipPath id="SVGID_15_">
					<use xlink:href="#SVGID_14_"  style="overflow:visible;"/>
				</clipPath>
				<g class="st13">
					<path class="st14" d="M2395,1395.2c-274,17.4-290,81.8-607,81.8c-252.8,0-450.8-136.4-709.9-136.4S533.1,1497.4,0,1497.4v26.8
						h2400L2395,1395.2z"/>
					<g>
						<polygon class="st15" points="556,1446.1 580,1360.9 604,1446.1 						"/>
						<path class="st15" d="M580.1,1426.7c0.1,11.2,0.2,22.5,0.2,33.7"/>
					</g>
					<g>
						<polygon class="st15" points="75.6,1501.8 99.6,1416.6 123.6,1501.8 						"/>
						<path class="st15" d="M99.7,1482.3c0.1,11.2,0.2,22.5,0.2,33.7"/>
					</g>
					<g>
						<polygon class="st15" points="-16,1534.6 8,1449.4 32,1534.6 						"/>
						<path class="st15" d="M8.1,1515.2c0.1,11.2,0.2,22.5,0.2,33.7"/>
					</g>
					<g>
						<polygon class="st15" points="729.9,1431.4 753.9,1346.1 777.9,1431.4 						"/>
						<path class="st15" d="M754,1411.9c0.1,11.2,0.2,22.5,0.2,33.7"/>
					</g>
					<g>
						<polygon class="st15" points="921.2,1398.2 945.2,1313 969.2,1398.2 						"/>
						<path class="st15" d="M945.3,1378.7c0.1,11.2,0.2,22.5,0.2,33.7"/>
					</g>
					<g>
						<polygon class="st15" points="1233.6,1387.9 1257.6,1302.6 1281.6,1387.9 						"/>
						<path class="st15" d="M1257.7,1368.4c0.1,11.2,0.2,22.5,0.2,33.7"/>
					</g>
					<g>
						<polygon class="st15" points="1378.9,1443.6 1402.9,1358.3 1426.9,1443.6 						"/>
						<path class="st15" d="M1403,1424.1c0.1,11.2,0.2,22.5,0.2,33.7"/>
					</g>
					<g>
						<polygon class="st15" points="1602.8,1486.5 1626.8,1401.2 1650.8,1486.5 						"/>
						<path class="st15" d="M1626.9,1467c0.1,11.2,0.2,22.5,0.2,33.7"/>
					</g>
					<g>
						<polygon class="st15" points="1830,1489.6 1854,1404.4 1878,1489.6 						"/>
						<path class="st15" d="M1854.1,1470.2c0.1,11.2,0.2,22.5,0.2,33.7"/>
					</g>
					<g>
						<polygon class="st15" points="2026,1489.1 2050,1403.9 2074,1489.1 						"/>
						<path class="st15" d="M2050.1,1469.7c0.1,11.2,0.2,22.5,0.2,33.7"/>
					</g>
					<g>
						<polygon class="st15" points="2163.8,1450.4 2187.8,1365.2 2211.8,1450.4 						"/>
						<path class="st15" d="M2188,1430.9c0.1,11.2,0.2,22.5,0.2,33.7"/>
					</g>
					<g>
						<polygon class="st15" points="2211.8,1448.6 2226.4,1396.9 2241,1448.6 						"/>
						<path class="st15" d="M2226.5,1436.8c0,6.8,0.1,13.6,0.1,20.5"/>
					</g>
					<g>
						<polygon class="st15" points="2002.8,1500.3 2017.4,1448.6 2032,1500.3 						"/>
						<path class="st15" d="M2017.5,1488.5c0,6.8,0.1,13.6,0.1,20.5"/>
					</g>
					<g>
						<polygon class="st15" points="1453.5,1479.6 1468.1,1427.9 1482.6,1479.6 						"/>
						<path class="st15" d="M1468.2,1467.8c0,6.8,0.1,13.6,0.1,20.5"/>
					</g>
					<g>
						<polygon class="st15" points="1178.4,1402.3 1193,1350.6 1207.6,1402.3 						"/>
						<path class="st15" d="M1193.1,1390.5c0,6.8,0.1,13.6,0.1,20.5"/>
					</g>
					<g class="st16">
						<path class="st15" d="M101.3,1492.2c0.1,24.4,0.2,48.9,0.3,73.3"/>
						<circle class="st15" cx="101" cy="1475" r="38.5"/>
						<line class="st17" x1="101.3" y1="1540.3" x2="89.9" y2="1526.8"/>
						<line class="st17" x1="112.9" y1="1518.4" x2="101.5" y2="1531.9"/>
					</g>
					<g>
						<path class="st15" d="M326.9,1479.2c0.1,17.7,0.1,35.4,0.2,53"/>
						<circle class="st15" cx="326.7" cy="1466.8" r="27.9"/>
						<line class="st17" x1="326.9" y1="1514" x2="318.6" y2="1504.2"/>
						<line class="st17" x1="335.3" y1="1498.2" x2="327" y2="1507.9"/>
					</g>
					<g>
						<path class="st15" d="M44.9,1499.4c0.1,17.7,0.1,35.4,0.2,53"/>
						
							<ellipse transform="matrix(2.726660e-02 -0.9996 0.9996 2.726660e-02 -1442.8152 1491.0153)" class="st15" cx="44.7" cy="1486.9" rx="27.9" ry="27.9"/>
						<line class="st17" x1="44.9" y1="1534.1" x2="36.6" y2="1524.4"/>
						<line class="st17" x1="53.3" y1="1518.3" x2="45" y2="1528.1"/>
					</g>
					<g>
						<path class="st15" d="M986.9,1360.7c0.1,17.7,0.1,35.4,0.2,53"/>
						<circle class="st15" cx="986.7" cy="1348.3" r="27.9"/>
						<line class="st17" x1="986.9" y1="1395.5" x2="978.6" y2="1385.7"/>
						<line class="st17" x1="995.3" y1="1379.7" x2="987" y2="1389.4"/>
					</g>
					<g class="st16">
						<path class="st15" d="M1221.3,1352.4c0.1,17.7,0.1,35.4,0.2,53"/>
						<circle class="st15" cx="1221.1" cy="1339.9" r="27.9"/>
						<line class="st17" x1="1221.3" y1="1387.1" x2="1213.1" y2="1377.4"/>
						<line class="st17" x1="1229.7" y1="1371.3" x2="1221.4" y2="1381.1"/>
					</g>
					<g class="st16">
						<path class="st15" d="M1269.6,1374.7c0.1,17.7,0.1,35.4,0.2,53"/>
						<circle class="st15" cx="1269.3" cy="1362.3" r="27.9"/>
						<line class="st17" x1="1269.6" y1="1409.5" x2="1261.3" y2="1399.7"/>
						<line class="st17" x1="1277.9" y1="1393.7" x2="1269.6" y2="1403.4"/>
					</g>
					<g class="st16">
						<path class="st15" d="M921.4,1367.2c0.1,17.7,0.1,35.4,0.2,53"/>
						<circle class="st15" cx="921.2" cy="1354.7" r="27.9"/>
						<line class="st17" x1="921.4" y1="1401.9" x2="913.1" y2="1392.2"/>
						<line class="st17" x1="929.8" y1="1386.1" x2="921.5" y2="1395.9"/>
					</g>
					<g>
						<path class="st15" d="M792.8,1412.9c0.1,17.7,0.1,35.4,0.2,53"/>
						<circle class="st15" cx="792.5" cy="1400.4" r="27.9"/>
						<line class="st17" x1="792.8" y1="1447.6" x2="784.5" y2="1437.9"/>
						<line class="st17" x1="801.1" y1="1431.8" x2="792.8" y2="1441.6"/>
					</g>
					<g>
						<path class="st15" d="M1213.3,1374.7c0.1,17.7,0.1,35.4,0.2,53"/>
						<circle class="st15" cx="1213.1" cy="1362.3" r="27.9"/>
						<line class="st17" x1="1213.3" y1="1409.5" x2="1205" y2="1399.7"/>
						<line class="st17" x1="1221.7" y1="1393.7" x2="1213.4" y2="1403.4"/>
					</g>
					<g>
						<path class="st15" d="M714.9,1433.4c0.1,17.7,0.1,35.4,0.2,53"/>
						<circle class="st15" cx="714.6" cy="1420.9" r="27.9"/>
						<line class="st17" x1="714.9" y1="1468.1" x2="706.6" y2="1458.3"/>
						<line class="st17" x1="723.2" y1="1452.3" x2="715" y2="1462.1"/>
					</g>
					<g class="st16">
						<path class="st15" d="M1107.5,1320.2c0.1,17.7,0.1,35.4,0.2,53"/>
						<circle class="st15" cx="1107.3" cy="1307.7" r="27.9"/>
						<line class="st17" x1="1107.5" y1="1354.9" x2="1099.2" y2="1345.1"/>
						<line class="st17" x1="1115.9" y1="1339.1" x2="1107.6" y2="1348.9"/>
					</g>
					<g class="st16">
						<path class="st15" d="M366.9,1467.7c0.1,17.7,0.1,35.4,0.2,53"/>
						<circle class="st15" cx="366.7" cy="1455.2" r="27.9"/>
						<line class="st17" x1="366.9" y1="1502.4" x2="358.7" y2="1492.7"/>
						<line class="st17" x1="375.3" y1="1486.6" x2="367" y2="1496.4"/>
					</g>
					<g class="st16">
						<path class="st15" d="M20,1472.6c0.1,17.7,0.1,35.4,0.2,53"/>
						
							<ellipse transform="matrix(1.817910e-02 -0.9998 0.9998 1.817910e-02 -1440.3679 1453.3254)" class="st15" cx="19.8" cy="1460.1" rx="27.9" ry="27.9"/>
						<line class="st17" x1="20" y1="1507.3" x2="11.7" y2="1497.5"/>
						<line class="st17" x1="28.4" y1="1491.5" x2="20.1" y2="1501.3"/>
					</g>
					<g>
						<path class="st15" d="M1649.6,1463.3c0.1,17.7,0.1,35.4,0.2,53"/>
						<circle class="st15" cx="1649.3" cy="1450.9" r="27.9"/>
						<line class="st17" x1="1649.6" y1="1498.1" x2="1641.3" y2="1488.3"/>
						<line class="st17" x1="1658" y1="1482.3" x2="1649.7" y2="1492"/>
					</g>
					<g>
						<path class="st15" d="M1888.6,1480.2c0.1,17.7,0.1,35.4,0.2,53"/>
						<circle class="st15" cx="1888.3" cy="1467.7" r="27.9"/>
						<line class="st17" x1="1888.6" y1="1514.9" x2="1880.3" y2="1505.1"/>
						<line class="st17" x1="1897" y1="1499.1" x2="1888.7" y2="1508.9"/>
					</g>
					<g>
						<path class="st15" d="M2163.4,1426c0.1,17.7,0.1,35.4,0.2,53"/>
						<circle class="st15" cx="2163.1" cy="1413.5" r="27.9"/>
						<line class="st17" x1="2163.4" y1="1460.7" x2="2155.1" y2="1450.9"/>
						<line class="st17" x1="2171.7" y1="1444.9" x2="2163.5" y2="1454.7"/>
					</g>
					<g>
						<path class="st15" d="M2012.5,1468.6c0.1,17.7,0.1,35.4,0.2,53"/>
						<circle class="st15" cx="2012.3" cy="1456.2" r="27.9"/>
						<line class="st17" x1="2012.5" y1="1503.3" x2="2004.3" y2="1493.6"/>
						<line class="st17" x1="2020.9" y1="1487.6" x2="2012.6" y2="1497.3"/>
					</g>
					<g>
						<path class="st15" d="M1816.2,1487.4c0.1,17.7,0.1,35.4,0.2,53"/>
						<circle class="st15" cx="1815.9" cy="1475" r="27.9"/>
						<line class="st17" x1="1816.2" y1="1522.2" x2="1807.9" y2="1512.4"/>
						<line class="st17" x1="1824.5" y1="1506.4" x2="1816.2" y2="1516.1"/>
					</g>
					<g class="st16">
						<path class="st15" d="M1885.8,1447.8c0.1,17.7,0.1,35.4,0.2,53"/>
						<circle class="st15" cx="1885.6" cy="1435.3" r="27.9"/>
						<line class="st17" x1="1885.8" y1="1482.5" x2="1877.5" y2="1472.8"/>
						<line class="st17" x1="1894.2" y1="1466.7" x2="1885.9" y2="1476.5"/>
					</g>
					<g class="st16">
						<path class="st15" d="M2334,1396.9c0.1,17.7,0.1,35.4,0.2,53"/>
						<circle class="st15" cx="2333.7" cy="1384.4" r="27.9"/>
						<line class="st17" x1="2334" y1="1431.6" x2="2325.7" y2="1421.9"/>
						<line class="st17" x1="2342.3" y1="1415.8" x2="2334.1" y2="1425.6"/>
					</g>
					<g>
						<g>
							<path class="st15" d="M649.8,1448.3c-0.2,0,0.1,43.5,0.3,43.5"/>
						</g>
						<g>
							<path class="st15" d="M675,1450.1c-0.9,13.1-11.9,23.4-25.2,23.4s-24.2-10.3-25.1-23.4c-6.8,0-13.1-4.8-14.6-11.7
								c-1.3-5.9,1.6-12.7,6.1-16.2c-9-0.7-16.1-8.3-16.1-17.5c0-9.7,7.8-17.5,17.5-17.5c2.7,0,5.3,0.6,7.6,1.7h0.1
								c0-0.6-0.1-1.1-0.1-1.7c0-13.5,10.9-24.5,24.5-24.5c9.7,0,18.1,5.7,22.1,13.9l0,0c2.9-2.1,6.4-3.3,10.2-3.3
								c9.7,0,17.5,7.8,17.5,17.5c0,5.2-2.3,9.8-5.8,13c6.6,1.6,11.4,7.5,11.4,14.6c0,8.3-6.7,15-15,15c-1,0-2-0.1-3-0.3
								c0,0,0.1,1.5,0.1,2.2C687,1442.6,681.8,1448.7,675,1450.1z"/>
						</g>
					</g>
					<g class="st16">
						<g>
							<path class="st15" d="M798.7,1415.1c-0.1,0,0.1,33.1,0.2,33.1"/>
						</g>
						<g>
							<path class="st15" d="M817.9,1416.4c-0.7,9.9-9.1,17.8-19.2,17.8c-10.1,0-18.4-7.8-19.1-17.8c-5.2,0-9.9-3.6-11.1-8.9
								c-1-4.5,1.2-9.7,4.6-12.3c-6.9-0.5-12.3-6.3-12.3-13.3c0-7.4,6-13.3,13.3-13.3c2.1,0,4,0.5,5.8,1.3l0,0c0-0.4,0-0.9,0-1.3
								c0-10.3,8.3-18.6,18.6-18.6c7.4,0,13.8,4.3,16.8,10.6l0,0c2.2-1.6,4.9-2.5,7.8-2.5c7.4,0,13.3,6,13.3,13.3
								c0,3.9-1.7,7.5-4.4,9.9c5,1.2,8.7,5.7,8.7,11.1c0,6.3-5.1,11.4-11.4,11.4c-0.8,0-1.6-0.1-2.3-0.2c0,0,0.1,1.1,0.1,1.7
								C827,1410.8,823.1,1415.4,817.9,1416.4z"/>
						</g>
					</g>
					<g class="st16">
						<g>
							<path class="st15" d="M579.2,1447.7c-0.1,0,0.1,33.1,0.2,33.1"/>
						</g>
						<g>
							<path class="st15" d="M598.4,1449.1c-0.7,9.9-9.1,17.8-19.2,17.8c-10.1,0-18.4-7.8-19.1-17.8c-5.2,0-9.9-3.6-11.1-8.9
								c-1-4.5,1.2-9.7,4.6-12.3c-6.9-0.5-12.3-6.3-12.3-13.3c0-7.4,6-13.3,13.3-13.3c2.1,0,4,0.5,5.8,1.3l0,0c0-0.4,0-0.9,0-1.3
								c0-10.3,8.3-18.6,18.6-18.6c7.4,0,13.8,4.3,16.8,10.6l0,0c2.2-1.6,4.9-2.5,7.8-2.5c7.4,0,13.3,6,13.3,13.3
								c0,3.9-1.7,7.5-4.4,9.9c5,1.2,8.7,5.7,8.7,11.1c0,6.3-5.1,11.4-11.4,11.4c-0.8,0-1.6-0.1-2.3-0.2c0,0,0.1,1.1,0.1,1.7
								C607.5,1443.4,603.6,1448,598.4,1449.1z"/>
						</g>
					</g>
					<g class="st16">
						<g>
							<path class="st15" d="M721.2,1429.8c0.1,0-0.1,33.1-0.2,33.1"/>
						</g>
						<g>
							<path class="st15" d="M701.9,1431.1c0.7,9.9,9.1,17.8,19.2,17.8c10.1,0,18.4-7.8,19.1-17.8c5.2,0,9.9-3.6,11.1-8.9
								c1-4.5-1.2-9.7-4.6-12.3c6.9-0.5,12.3-6.3,12.3-13.3c0-7.4-6-13.3-13.3-13.3c-2.1,0-4,0.5-5.8,1.3l0,0c0-0.4,0-0.9,0-1.3
								c0-10.3-8.3-18.6-18.6-18.6c-7.4,0-13.8,4.3-16.8,10.6l0,0c-2.2-1.6-4.9-2.5-7.8-2.5c-7.4,0-13.3,6-13.3,13.3
								c0,3.9,1.7,7.5,4.4,9.9c-5,1.2-8.7,5.7-8.7,11.1c0,6.3,5.1,11.4,11.4,11.4c0.8,0,1.6-0.1,2.3-0.2c0,0-0.1,1.1-0.1,1.7
								C692.8,1425.5,696.7,1430.1,701.9,1431.1z"/>
						</g>
					</g>
					<g>
						<g>
							<path class="st15" d="M863.2,1397.5c0.2,0-0.1,43.5-0.3,43.5"/>
						</g>
						<g>
							<path class="st15" d="M838,1399.3c0.9,13.1,11.9,23.4,25.2,23.4s24.2-10.3,25.1-23.4c6.8,0,13.1-4.8,14.6-11.7
								c1.3-5.9-1.6-12.7-6.1-16.2c9-0.7,16.1-8.3,16.1-17.5c0-9.7-7.8-17.5-17.5-17.5c-2.7,0-5.3,0.6-7.6,1.7h-0.1
								c0-0.6,0.1-1.1,0.1-1.7c0-13.5-10.9-24.5-24.5-24.5c-9.7,0-18.1,5.7-22.1,13.9l0,0c-2.9-2.1-6.4-3.3-10.2-3.3
								c-9.7,0-17.5,7.8-17.5,17.5c0,5.2,2.3,9.8,5.8,13c-6.6,1.6-11.4,7.5-11.4,14.6c0,8.3,6.7,15,15,15c1,0,2-0.1,3-0.3
								c0,0-0.1,1.5-0.1,2.2C826,1391.8,831.1,1397.9,838,1399.3z"/>
						</g>
					</g>
					<g>
						<g>
							<path class="st15" d="M1139.8,1367.1c-0.2,0,0.1,43.5,0.3,43.5"/>
						</g>
						<g>
							<path class="st15" d="M1165,1368.8c-0.9,13.1-11.9,23.4-25.2,23.4c-13.3,0-24.2-10.3-25.1-23.4c-6.8,0-13.1-4.8-14.6-11.7
								c-1.3-5.9,1.6-12.7,6.1-16.2c-9-0.7-16.1-8.3-16.1-17.5c0-9.7,7.8-17.5,17.5-17.5c2.7,0,5.3,0.6,7.6,1.7h0.1
								c0-0.6-0.1-1.1-0.1-1.7c0-13.5,10.9-24.5,24.5-24.5c9.7,0,18.2,5.7,22.1,13.9l0,0c2.9-2.1,6.4-3.3,10.2-3.3
								c9.7,0,17.5,7.8,17.5,17.5c0,5.2-2.3,9.8-5.8,13c6.6,1.6,11.4,7.5,11.4,14.6c0,8.3-6.7,15-15,15c-1,0-2-0.1-3-0.3
								c0,0,0.1,1.5,0.1,2.2C1177,1361.4,1171.8,1367.4,1165,1368.8z"/>
						</g>
					</g>
					<g>
						<g>
							<path class="st15" d="M1336.8,1405.4c0.2,0-0.1,43.5-0.3,43.5"/>
						</g>
						<g>
							<path class="st15" d="M1311.5,1407.2c0.9,13.1,11.9,23.4,25.2,23.4c13.3,0,24.2-10.3,25.1-23.4c6.8,0,13.1-4.8,14.6-11.7
								c1.3-5.9-1.6-12.7-6.1-16.2c9-0.7,16.1-8.3,16.1-17.5c0-9.7-7.8-17.5-17.5-17.5c-2.7,0-5.3,0.6-7.6,1.7h-0.1
								c0-0.6,0.1-1.1,0.1-1.7c0-13.5-10.9-24.5-24.5-24.5c-9.7,0-18.1,5.7-22.1,13.9l0,0c-2.9-2.1-6.4-3.3-10.2-3.3
								c-9.7,0-17.5,7.8-17.5,17.5c0,5.2,2.3,9.8,5.8,13c-6.6,1.6-11.4,7.5-11.4,14.6c0,8.3,6.7,15,15,15c1,0,2-0.1,3-0.3
								c0,0-0.1,1.5-0.1,2.2C1299.5,1399.7,1304.7,1405.8,1311.5,1407.2z"/>
						</g>
					</g>
					<g>
						<g>
							<path class="st15" d="M1552.1,1477.2c-0.2,0,0.1,43.5,0.3,43.5"/>
						</g>
						<g>
							<path class="st15" d="M1577.4,1479c-0.9,13.1-11.9,23.4-25.2,23.4c-13.3,0-24.2-10.3-25.1-23.4c-6.8,0-13.1-4.8-14.6-11.7
								c-1.3-5.9,1.6-12.7,6.1-16.2c-9-0.7-16.1-8.3-16.1-17.5c0-9.7,7.8-17.5,17.5-17.5c2.7,0,5.3,0.6,7.6,1.7h0.1
								c0-0.6-0.1-1.1-0.1-1.7c0-13.5,10.9-24.5,24.5-24.5c9.7,0,18.1,5.7,22.1,13.9l0,0c2.9-2.1,6.4-3.3,10.2-3.3
								c9.7,0,17.5,7.8,17.5,17.5c0,5.2-2.3,9.8-5.8,13c6.6,1.6,11.4,7.5,11.4,14.6c0,8.3-6.7,15-15,15c-1,0-2-0.1-3-0.3
								c0,0,0.1,1.5,0.1,2.2C1589.4,1471.5,1584.2,1477.6,1577.4,1479z"/>
						</g>
					</g>
					<g>
						<g>
							<path class="st15" d="M1441.7,1463.1c-0.2,0,0.1,43.5,0.3,43.5"/>
						</g>
						<g>
							<path class="st15" d="M1467,1464.9c-0.9,13.1-11.9,23.4-25.2,23.4c-13.3,0-24.2-10.3-25.1-23.4c-6.8,0-13.1-4.8-14.6-11.7
								c-1.3-5.9,1.6-12.7,6.1-16.2c-9-0.7-16.1-8.3-16.1-17.5c0-9.7,7.8-17.5,17.5-17.5c2.7,0,5.3,0.6,7.6,1.7h0.1
								c0-0.6-0.1-1.1-0.1-1.7c0-13.5,10.9-24.5,24.5-24.5c9.7,0,18.1,5.7,22.1,13.9l0,0c2.9-2.1,6.4-3.3,10.2-3.3
								c9.7,0,17.5,7.8,17.5,17.5c0,5.2-2.3,9.8-5.8,13c6.6,1.6,11.4,7.5,11.4,14.6c0,8.3-6.7,15-15,15c-1,0-2-0.1-3-0.3
								c0,0,0.1,1.5,0.1,2.2C1478.9,1457.4,1473.8,1463.5,1467,1464.9z"/>
						</g>
					</g>
					<g>
						<g>
							<path class="st15" d="M1695.2,1493.8c-0.2,0,0.1,43.5,0.3,43.5"/>
						</g>
						<g>
							<path class="st15" d="M1720.4,1495.5c-0.9,13.1-11.9,23.4-25.2,23.4c-13.3,0-24.2-10.3-25.1-23.4c-6.8,0-13.1-4.8-14.6-11.7
								c-1.3-5.9,1.6-12.7,6.1-16.2c-9-0.7-16.1-8.3-16.1-17.5c0-9.7,7.8-17.5,17.5-17.5c2.7,0,5.3,0.6,7.6,1.7h0.1
								c0-0.6-0.1-1.1-0.1-1.7c0-13.5,10.9-24.5,24.5-24.5c9.7,0,18.1,5.7,22.1,13.9l0,0c2.9-2.1,6.4-3.3,10.2-3.3
								c9.7,0,17.5,7.8,17.5,17.5c0,5.2-2.3,9.8-5.8,13c6.6,1.6,11.4,7.5,11.4,14.6c0,8.3-6.7,15-15,15c-1,0-2-0.1-3-0.3
								c0,0,0.1,1.5,0.1,2.2C1732.4,1488.1,1727.3,1494.1,1720.4,1495.5z"/>
						</g>
					</g>
					<g class="st16">
						<g>
							<path class="st15" d="M2195.6,1433.4c-0.2,0,0.1,43.5,0.3,43.5"/>
						</g>
						<g>
							<path class="st15" d="M2220.8,1435.1c-0.9,13.1-11.9,23.4-25.2,23.4s-24.2-10.3-25.1-23.4c-6.8,0-13.1-4.8-14.6-11.7
								c-1.3-5.9,1.6-12.7,6.1-16.2c-9-0.7-16.1-8.3-16.1-17.5c0-9.7,7.8-17.5,17.5-17.5c2.7,0,5.3,0.6,7.6,1.7h0.1
								c0-0.6-0.1-1.1-0.1-1.7c0-13.5,10.9-24.5,24.5-24.5c9.7,0,18.1,5.7,22.1,13.9l0,0c2.9-2.1,6.4-3.3,10.2-3.3
								c9.7,0,17.5,7.8,17.5,17.5c0,5.2-2.3,9.8-5.8,13c6.6,1.6,11.4,7.5,11.4,14.6c0,8.3-6.7,15-15,15c-1,0-2-0.1-3-0.3
								c0,0,0.1,1.5,0.1,2.2C2232.8,1427.7,2227.7,1433.7,2220.8,1435.1z"/>
						</g>
					</g>
					<g>
						<g>
							<path class="st15" d="M1772.6,1489c0.2,0-0.1,43.5-0.3,43.5"/>
						</g>
						<g>
							<path class="st15" d="M1747.3,1490.8c0.9,13.1,11.9,23.4,25.2,23.4c13.3,0,24.2-10.3,25.1-23.4c6.8,0,13.1-4.8,14.6-11.7
								c1.3-5.9-1.6-12.7-6.1-16.2c9-0.7,16.1-8.3,16.1-17.5c0-9.7-7.8-17.5-17.5-17.5c-2.7,0-5.3,0.6-7.6,1.7h-0.1
								c0-0.6,0.1-1.1,0.1-1.7c0-13.5-10.9-24.5-24.5-24.5c-9.7,0-18.2,5.7-22.1,13.9l0,0c-2.9-2.1-6.4-3.3-10.2-3.3
								c-9.7,0-17.5,7.8-17.5,17.5c0,5.2,2.3,9.8,5.8,13c-6.6,1.6-11.4,7.5-11.4,14.6c0,8.3,6.7,15,15,15c1,0,2-0.1,3-0.3
								c0,0-0.1,1.5-0.1,2.2C1735.4,1483.3,1740.5,1489.4,1747.3,1490.8z"/>
						</g>
					</g>
					<g class="st16">
						<g>
							<path class="st15" d="M1815.8,1489c0.2,0-0.1,43.5-0.3,43.5"/>
						</g>
						<g>
							<path class="st15" d="M1790.6,1490.8c0.9,13.1,11.9,23.4,25.2,23.4c13.3,0,24.2-10.3,25.1-23.4c6.8,0,13.1-4.8,14.6-11.7
								c1.3-5.9-1.6-12.7-6.1-16.2c9-0.7,16.1-8.3,16.1-17.5c0-9.7-7.8-17.5-17.5-17.5c-2.7,0-5.3,0.6-7.6,1.7h-0.1
								c0-0.6,0.1-1.1,0.1-1.7c0-13.5-10.9-24.5-24.5-24.5c-9.7,0-18.2,5.7-22.1,13.9l0,0c-2.9-2.1-6.4-3.3-10.2-3.3
								c-9.7,0-17.5,7.8-17.5,17.5c0,5.2,2.3,9.8,5.8,13c-6.6,1.6-11.4,7.5-11.4,14.6c0,8.3,6.7,15,15,15c1,0,2-0.1,3-0.3
								c0,0-0.1,1.5-0.1,2.2C1778.6,1483.3,1783.8,1489.4,1790.6,1490.8z"/>
						</g>
					</g>
					<g class="st16">
						<g>
							<path class="st15" d="M1499.6,1468c0.2,0-0.1,43.5-0.3,43.5"/>
						</g>
						<g>
							<path class="st15" d="M1474.4,1469.8c0.9,13.1,11.9,23.4,25.2,23.4c13.3,0,24.2-10.3,25.1-23.4c6.8,0,13.1-4.8,14.6-11.7
								c1.3-5.9-1.6-12.7-6.1-16.2c9-0.7,16.1-8.3,16.1-17.5c0-9.7-7.8-17.5-17.5-17.5c-2.7,0-5.3,0.6-7.6,1.7h-0.1
								c0-0.6,0.1-1.1,0.1-1.7c0-13.5-10.9-24.5-24.5-24.5c-9.7,0-18.2,5.7-22.1,13.9l0,0c-2.9-2.1-6.4-3.3-10.2-3.3
								c-9.7,0-17.5,7.8-17.5,17.5c0,5.2,2.3,9.8,5.8,13c-6.6,1.6-11.4,7.5-11.4,14.6c0,8.3,6.7,15,15,15c1,0,2-0.1,3-0.3
								c0,0-0.1,1.5-0.1,2.2C1462.4,1462.4,1467.5,1468.4,1474.4,1469.8z"/>
						</g>
					</g>
					<g class="st16">
						<g>
							<path class="st15" d="M1605.5,1507.5c0.2,0-0.1,43.5-0.3,43.5"/>
						</g>
						<g>
							<path class="st15" d="M1580.3,1509.3c0.9,13.1,11.9,23.4,25.2,23.4c13.3,0,24.2-10.3,25.1-23.4c6.8,0,13.1-4.8,14.6-11.7
								c1.3-5.9-1.6-12.7-6.1-16.2c9-0.7,16.1-8.3,16.1-17.5c0-9.7-7.8-17.5-17.5-17.5c-2.7,0-5.3,0.6-7.6,1.7h-0.1
								c0-0.6,0.1-1.1,0.1-1.7c0-13.5-10.9-24.5-24.5-24.5c-9.7,0-18.1,5.7-22.1,13.9l0,0c-2.9-2.1-6.4-3.3-10.2-3.3
								c-9.7,0-17.5,7.8-17.5,17.5c0,5.2,2.3,9.8,5.8,13c-6.6,1.6-11.4,7.5-11.4,14.6c0,8.3,6.7,15,15,15c1,0,2-0.1,3-0.3
								c0,0-0.1,1.5-0.1,2.2C1568.3,1501.8,1573.4,1507.9,1580.3,1509.3z"/>
						</g>
					</g>
					<g class="st16">
						<g>
							<path class="st15" d="M2012,1470.7c-0.2,0,0.1,43.5,0.3,43.5"/>
						</g>
						<g>
							<path class="st15" d="M2037.2,1472.5c-0.9,13.1-11.9,23.4-25.2,23.4c-13.3,0-24.2-10.3-25.1-23.4c-6.8,0-13.1-4.8-14.6-11.7
								c-1.3-5.9,1.6-12.7,6.1-16.2c-9-0.7-16.1-8.3-16.1-17.5c0-9.7,7.8-17.5,17.5-17.5c2.7,0,5.3,0.6,7.6,1.7h0.1
								c0-0.6-0.1-1.1-0.1-1.7c0-13.5,10.9-24.5,24.5-24.5c9.7,0,18.1,5.7,22.1,13.9l0,0c2.9-2.1,6.4-3.3,10.2-3.3
								c9.7,0,17.5,7.8,17.5,17.5c0,5.2-2.3,9.8-5.8,13c6.6,1.6,11.4,7.5,11.4,14.6c0,8.3-6.7,15-15,15c-1,0-2-0.1-3-0.3
								c0,0,0.1,1.5,0.1,2.2C2049.2,1465,2044.1,1471.1,2037.2,1472.5z"/>
						</g>
					</g>
					<g class="st16">
						<g>
							<path class="st15" d="M1393.4,1431.6c-0.2,0,0.1,43.5,0.3,43.5"/>
						</g>
						<g>
							<path class="st15" d="M1418.7,1433.4c-0.9,13.1-11.9,23.4-25.2,23.4c-13.3,0-24.2-10.3-25.1-23.4c-6.8,0-13.1-4.8-14.6-11.7
								c-1.3-5.9,1.6-12.7,6.1-16.2c-9-0.7-16.1-8.3-16.1-17.5c0-9.7,7.8-17.5,17.5-17.5c2.7,0,5.3,0.6,7.6,1.7h0.1
								c0-0.6-0.1-1.1-0.1-1.7c0-13.5,10.9-24.5,24.5-24.5c9.7,0,18.1,5.7,22.1,13.9l0,0c2.9-2.1,6.4-3.3,10.2-3.3
								c9.7,0,17.5,7.8,17.5,17.5c0,5.2-2.3,9.8-5.8,13c6.6,1.6,11.4,7.5,11.4,14.6c0,8.3-6.7,15-15,15c-1,0-2-0.1-3-0.3
								c0,0,0.1,1.5,0.1,2.2C1430.6,1425.9,1425.5,1432,1418.7,1433.4z"/>
						</g>
					</g>
					<g>
						<g>
							<path class="st15" d="M1934,1482.8c-0.2,0,0.1,43.5,0.3,43.5"/>
						</g>
						<g>
							<path class="st15" d="M1959.2,1484.6c-0.9,13.1-11.9,23.4-25.2,23.4c-13.3,0-24.2-10.3-25.1-23.4c-6.8,0-13.1-4.8-14.6-11.7
								c-1.3-5.9,1.6-12.7,6.1-16.2c-9-0.7-16.1-8.3-16.1-17.5c0-9.7,7.8-17.5,17.5-17.5c2.7,0,5.3,0.6,7.6,1.7h0.1
								c0-0.6-0.1-1.1-0.1-1.7c0-13.5,10.9-24.5,24.5-24.5c9.7,0,18.2,5.7,22.1,13.9l0,0c2.9-2.1,6.4-3.3,10.2-3.3
								c9.7,0,17.5,7.8,17.5,17.5c0,5.2-2.3,9.8-5.8,13c6.6,1.6,11.4,7.5,11.4,14.6c0,8.3-6.7,15-15,15c-1,0-2-0.1-3-0.3
								c0,0,0.1,1.5,0.1,2.2C1971.2,1477.2,1966.1,1483.2,1959.2,1484.6z"/>
						</g>
					</g>
					<g>
						<g>
							<path class="st15" d="M2276.4,1424.1c-0.2,0,0.1,43.5,0.3,43.5"/>
						</g>
						<g>
							<path class="st15" d="M2301.6,1425.8c-0.9,13.1-11.9,23.4-25.2,23.4s-24.2-10.3-25.1-23.4c-6.8,0-13.1-4.8-14.6-11.7
								c-1.3-5.9,1.6-12.7,6.1-16.2c-9-0.7-16.1-8.3-16.1-17.5c0-9.7,7.8-17.5,17.5-17.5c2.7,0,5.3,0.6,7.6,1.7h0.1
								c0-0.6-0.1-1.1-0.1-1.7c0-13.5,10.9-24.5,24.5-24.5c9.7,0,18.1,5.7,22.1,13.9l0,0c2.9-2.1,6.4-3.3,10.2-3.3
								c9.7,0,17.5,7.8,17.5,17.5c0,5.2-2.3,9.8-5.8,13c6.6,1.6,11.4,7.5,11.4,14.6c0,8.3-6.7,15-15,15c-1,0-2-0.1-3-0.3
								c0,0,0.1,1.5,0.1,2.2C2313.6,1418.4,2308.4,1424.4,2301.6,1425.8z"/>
						</g>
					</g>
					<g>
						<g>
							<path class="st15" d="M2100.6,1464.9c0.2,0-0.1,43.5-0.3,43.5"/>
						</g>
						<g>
							<path class="st15" d="M2075.4,1466.7c0.9,13.1,11.9,23.4,25.2,23.4s24.2-10.3,25.1-23.4c6.8,0,13.1-4.8,14.6-11.7
								c1.3-5.9-1.6-12.7-6.1-16.2c9-0.7,16.1-8.3,16.1-17.5c0-9.7-7.8-17.5-17.5-17.5c-2.7,0-5.3,0.6-7.6,1.7h-0.1
								c0-0.6,0.1-1.1,0.1-1.7c0-13.5-10.9-24.5-24.5-24.5c-9.7,0-18.2,5.7-22.1,13.9l0,0c-2.9-2.1-6.4-3.3-10.2-3.3
								c-9.7,0-17.5,7.8-17.5,17.5c0,5.2,2.3,9.8,5.8,13c-6.6,1.6-11.4,7.5-11.4,14.6c0,8.3,6.7,15,15,15c1,0,2-0.1,3-0.3
								c0,0-0.1,1.5-0.1,2.2C2063.4,1459.3,2068.5,1465.3,2075.4,1466.7z"/>
						</g>
					</g>
					<g>
						<g>
							<path class="st15" d="M501.3,1473.4c0.2,0-0.1,43.5-0.3,43.5"/>
						</g>
						<g>
							<path class="st15" d="M476.1,1475.1c0.9,13.1,11.9,23.4,25.2,23.4s24.2-10.3,25.1-23.4c6.8,0,13.1-4.8,14.6-11.7
								c1.3-5.9-1.6-12.7-6.1-16.2c9-0.7,16.1-8.3,16.1-17.5c0-9.7-7.8-17.5-17.5-17.5c-2.7,0-5.3,0.6-7.6,1.7h-0.1
								c0-0.6,0.1-1.1,0.1-1.7c0-13.5-10.9-24.5-24.5-24.5c-9.7,0-18.1,5.7-22.1,13.9l0,0c-2.9-2.1-6.4-3.3-10.2-3.3
								c-9.7,0-17.5,7.8-17.5,17.5c0,5.2,2.3,9.8,5.8,13c-6.6,1.6-11.4,7.5-11.4,14.6c0,8.3,6.7,15,15,15c1,0,2-0.1,3-0.3
								c0,0-0.1,1.5-0.1,2.2C464.1,1467.7,469.3,1473.7,476.1,1475.1z"/>
						</g>
					</g>
					<g class="st16">
						<g>
							<path class="st15" d="M278,1498.5c0.2,0-0.1,43.5-0.3,43.5"/>
						</g>
						<g>
							<path class="st15" d="M252.8,1500.3c0.9,13.1,11.9,23.4,25.2,23.4s24.2-10.3,25.1-23.4c6.8,0,13.1-4.8,14.6-11.7
								c1.3-5.9-1.6-12.7-6.1-16.2c9-0.7,16.1-8.3,16.1-17.5c0-9.7-7.8-17.5-17.5-17.5c-2.7,0-5.3,0.6-7.6,1.7h-0.1
								c0-0.6,0.1-1.1,0.1-1.7c0-13.5-10.9-24.5-24.5-24.5c-9.7,0-18.1,5.7-22.1,13.9l0,0c-2.9-2.1-6.4-3.3-10.2-3.3
								c-9.7,0-17.5,7.8-17.5,17.5c0,5.2,2.3,9.8,5.8,13c-6.6,1.6-11.4,7.5-11.4,14.6c0,8.3,6.7,15,15,15c1,0,2-0.1,3-0.3
								c0,0-0.1,1.5-0.1,2.2C240.8,1492.8,246,1498.9,252.8,1500.3z"/>
						</g>
					</g>
					<g>
						<g>
							<path class="st15" d="M156.9,1520.1c-0.2,0,0.1,43.5,0.3,43.5"/>
						</g>
						<g>
							<path class="st15" d="M182.2,1521.9c-0.9,13.1-11.9,23.4-25.2,23.4s-24.2-10.3-25.1-23.4c-6.8,0-13.1-4.8-14.6-11.7
								c-1.3-5.9,1.6-12.7,6.1-16.2c-9-0.7-16.1-8.3-16.1-17.5c0-9.7,7.8-17.5,17.5-17.5c2.7,0,5.3,0.6,7.6,1.7h0.1
								c0-0.6-0.1-1.1-0.1-1.7c0-13.5,10.9-24.5,24.5-24.5c9.7,0,18.1,5.7,22.1,13.9l0,0c2.9-2.1,6.4-3.3,10.2-3.3
								c9.7,0,17.5,7.8,17.5,17.5c0,5.2-2.3,9.8-5.8,13c6.6,1.6,11.4,7.5,11.4,14.6c0,8.3-6.7,15-15,15c-1,0-2-0.1-3-0.3
								c0,0,0.1,1.5,0.1,2.2C194.1,1514.5,189,1520.5,182.2,1521.9z"/>
						</g>
					</g>
					<g>
						<g>
							<path class="st15" d="M421.2,1495.5c-0.2,0,0.1,49,0.3,49"/>
						</g>
						<g>
							<path class="st15" d="M449.7,1497.5c-1,14.7-13.5,26.4-28.5,26.4s-27.3-11.6-28.3-26.4c-7.7-0.1-14.7-5.4-16.5-13.2
								c-1.5-6.6,1.8-14.4,6.9-18.3c-10.2-0.8-18.2-9.4-18.2-19.7c0-10.9,8.8-19.7,19.7-19.7c3.1,0,5.9,0.7,8.5,1.9h0.1
								c0-0.6-0.1-1.3-0.1-1.9c0-15.2,12.3-27.6,27.6-27.6c11,0,20.5,6.4,24.9,15.7l0,0c3.2-2.3,7.2-3.7,11.5-3.7
								c10.9,0,19.7,8.8,19.7,19.7c0,5.8-2.5,11.1-6.6,14.7c7.4,1.8,12.9,8.5,12.9,16.4c0,9.4-7.6,16.9-16.9,16.9
								c-1.2,0-2.3-0.1-3.4-0.3c0,0,0.1,1.6,0.1,2.5C463.2,1489.1,457.4,1495.9,449.7,1497.5z"/>
						</g>
					</g>
					<g>
						<g>
							<path class="st15" d="M1047.2,1373.8c-0.2,0,0.1,49,0.3,49"/>
						</g>
						<g>
							<path class="st15" d="M1075.7,1375.8c-1,14.7-13.5,26.4-28.5,26.4s-27.3-11.6-28.3-26.4c-7.7-0.1-14.7-5.4-16.5-13.2
								c-1.5-6.6,1.8-14.4,6.9-18.3c-10.2-0.8-18.2-9.4-18.2-19.7c0-10.9,8.8-19.7,19.7-19.7c3.1,0,5.9,0.7,8.5,1.9h0.1
								c0-0.6-0.1-1.3-0.1-1.9c0-15.2,12.3-27.6,27.6-27.6c11,0,20.5,6.4,24.9,15.7l0,0c3.2-2.3,7.2-3.7,11.5-3.7
								c10.9,0,19.7,8.8,19.7,19.7c0,5.8-2.5,11.1-6.6,14.7c7.4,1.8,12.9,8.5,12.9,16.4c0,9.4-7.6,16.9-16.9,16.9
								c-1.2,0-2.3-0.1-3.4-0.3c0,0,0.1,1.6,0.1,2.5C1089.2,1367.4,1083.4,1374.2,1075.7,1375.8z"/>
						</g>
					</g>
					<g>
						<g>
							<path class="st15" d="M2258.2,1462.9c-0.2,0,0.1,49,0.3,49"/>
						</g>
						<g>
							<path class="st15" d="M2286.7,1464.9c-1,14.7-13.5,26.4-28.5,26.4s-27.3-11.6-28.3-26.4c-7.7-0.1-14.7-5.4-16.5-13.2
								c-1.5-6.6,1.8-14.4,6.9-18.3c-10.2-0.8-18.2-9.4-18.2-19.7c0-10.9,8.8-19.7,19.7-19.7c3.1,0,5.9,0.7,8.5,1.9h0.1
								c0-0.6-0.1-1.3-0.1-1.9c0-15.2,12.3-27.6,27.6-27.6c11,0,20.5,6.4,24.9,15.7l0,0c3.2-2.3,7.2-3.7,11.5-3.7
								c10.9,0,19.7,8.8,19.7,19.7c0,5.8-2.5,11.1-6.6,14.7c7.4,1.8,12.9,8.5,12.9,16.4c0,9.4-7.6,16.9-16.9,16.9
								c-1.2,0-2.3-0.1-3.4-0.3c0,0,0.1,1.6,0.1,2.5C2300.2,1456.5,2294.4,1463.4,2286.7,1464.9z"/>
						</g>
					</g>
					<g>
						<g>
							<path class="st15" d="M2389.8,1404c-0.2,0,0.1,49,0.3,49"/>
						</g>
						<g>
							<path class="st15" d="M2418.3,1406c-1,14.7-13.5,26.4-28.5,26.4s-27.3-11.6-28.3-26.4c-7.7-0.1-14.7-5.4-16.5-13.2
								c-1.5-6.6,1.8-14.4,6.9-18.3c-10.2-0.8-18.2-9.4-18.2-19.7c0-10.9,8.8-19.7,19.7-19.7c3.1,0,5.9,0.7,8.5,1.9h0.1
								c0-0.6-0.1-1.3-0.1-1.9c0-15.2,12.3-27.6,27.6-27.6c11,0,20.5,6.4,24.9,15.7l0,0c3.2-2.3,7.2-3.7,11.5-3.7
								c10.9,0,19.7,8.8,19.7,19.7c0,5.8-2.5,11.1-6.6,14.7c7.4,1.8,12.9,8.5,12.9,16.4c0,9.4-7.6,16.9-16.9,16.9
								c-1.2,0-2.3-0.1-3.4-0.3c0,0,0.1,1.6,0.1,2.5C2431.8,1397.6,2426,1404.5,2418.3,1406z"/>
						</g>
					</g>
					<g>
						<g>
							<path class="st15" d="M240,1502.2c0.2,0-0.1,39.7-0.3,39.7"/>
						</g>
						<g>
							<path class="st15" d="M216.9,1503.8c0.8,11.9,10.9,21.4,23.1,21.4c12.1,0,22.1-9.4,22.9-21.4c6.2,0,11.9-4.4,13.4-10.7
								c1.2-5.4-1.5-11.7-5.6-14.8c8.2-0.6,14.7-7.6,14.7-16c0-8.8-7.2-16-16-16c-2.5,0-4.8,0.6-6.9,1.6h-0.1c0-0.5,0.1-1,0.1-1.6
								c0-12.3-10-22.4-22.4-22.4c-8.9,0-16.6,5.2-20.2,12.7l0,0c-2.6-1.9-5.9-3-9.3-3c-8.8,0-16,7.2-16,16c0,4.7,2.1,9,5.3,11.9
								c-6,1.5-10.5,6.9-10.5,13.3c0,7.6,6.1,13.7,13.7,13.7c0.9,0,1.9-0.1,2.8-0.3c0,0-0.1,1.3-0.1,2
								C206,1497,210.7,1502.5,216.9,1503.8z"/>
						</g>
					</g>
				</g>
			</g>
		</g>
	</g>
</g>
<g>
	<path class="st14" d="M0,1500c0,0,463.7-340.2,1192.2-112.8c684.7,213.7,1208.1-103.6,1208.1-103.6L2400,1500H0L0,1500z"/>
	<path class="st18" d="M2400,1391.8c0,0-462.4-142.6-1190.9,25C524.4,1574.3,0,1329,0,1329v171h2400V1391.8z"/>
	<path class="st18" d="M0,1500c0,0-0.1,17.4,0-90.9c297,90.9,521.6,7.3,744-35.8c327.8-63.6,518.8-84.7,970.6,5.8
		s685.8-47.3,685.8-47.3V1500H530.1H0z"/>
</g>
</svg>
