<?xml version="1.0" encoding="utf-8"?>
<!-- Generator: Adobe Illustrator 22.1.0, SVG Export Plug-In . SVG Version: 6.00 Build 0)  -->
<svg version="1.1" id="Layer_1" xmlns="http://www.w3.org/2000/svg" xmlns:xlink="http://www.w3.org/1999/xlink" x="0px" y="0px"
	 viewBox="0 0 840.9 461.9" style="enable-background:new 0 0 840.9 461.9;" xml:space="preserve">
<style type="text/css">
	.st0{fill:#784B69;}
	.st1{opacity:0.2;}
	.st2{enable-background:new    ;}
	.st3{opacity:0.2;clip-path:url(#SVGID_4_);}
	.st4{clip-path:url(#SVGID_6_);fill:#010101;}
	.st5{clip-path:url(#SVGID_4_);fill:#C2DDDC;}
	.st6{clip-path:url(#SVGID_4_);fill:#F2F7F7;}
	.st7{clip-path:url(#SVGID_4_);fill:#AFC7C7;}
	.st8{clip-path:url(#SVGID_8_);fill:#010101;}
	.st9{fill:#DFECEE;}
	.st10{clip-path:url(#SVGID_10_);fill:#010101;}
	.st11{clip-path:url(#SVGID_12_);fill:#010101;}
	.st12{fill:#FFFFFF;}
	.st13{fill:#F2F7F7;}
	.st14{clip-path:url(#SVGID_14_);fill:#010101;}
	.st15{clip-path:url(#SVGID_16_);fill:#010101;}
	.st16{clip-path:url(#SVGID_18_);}
	.st17{clip-path:url(#SVGID_20_);fill:#C2DDDC;}
	.st18{clip-path:url(#SVGID_22_);fill:#C2DDDC;}
	.st19{clip-path:url(#SVGID_24_);fill:#C2DDDC;}
	.st20{clip-path:url(#SVGID_26_);fill:#C2DDDC;}
	.st21{clip-path:url(#SVGID_28_);fill:#C2DDDC;}
	.st22{clip-path:url(#SVGID_30_);fill:#C2DDDC;}
	.st23{clip-path:url(#SVGID_32_);fill:#C2DDDC;}
	.st24{clip-path:url(#SVGID_34_);fill:#C2DDDC;}
	.st25{clip-path:url(#SVGID_18_);fill:#FFFFFF;}
	.st26{clip-path:url(#SVGID_36_);fill:#C2DDDC;}
	.st27{clip-path:url(#SVGID_38_);fill:#C2DDDC;}
	.st28{clip-path:url(#SVGID_40_);fill:#C2DDDC;}
	.st29{clip-path:url(#SVGID_42_);fill:#C2DDDC;}
	.st30{clip-path:url(#SVGID_44_);fill:#C2DDDC;}
	.st31{clip-path:url(#SVGID_46_);fill:#C2DDDC;}
	.st32{clip-path:url(#SVGID_48_);fill:#C2DDDC;}
	.st33{clip-path:url(#SVGID_50_);fill:#C2DDDC;}
	.st34{clip-path:url(#SVGID_52_);fill:#C2DDDC;}
	.st35{clip-path:url(#SVGID_54_);fill:#C2DDDC;}
	.st36{clip-path:url(#SVGID_56_);fill:#6D7B7B;}
	.st37{clip-path:url(#SVGID_18_);fill:#6D7B7B;}
	.st38{clip-path:url(#SVGID_58_);fill:#6D7B7B;}
	.st39{clip-path:url(#SVGID_60_);fill:#6D7B7B;}
	.st40{clip-path:url(#SVGID_62_);fill:#6D7B7B;}
	.st41{clip-path:url(#SVGID_64_);fill:#6D7B7B;}
	.st42{clip-path:url(#SVGID_66_);fill:#6D7B7B;}
	.st43{opacity:0.2;fill:#010101;}
	.st44{opacity:0.5;}
	.st45{clip-path:url(#SVGID_68_);}
	.st46{clip-path:url(#SVGID_70_);fill:url(#SVGID_71_);}
	.st47{fill:#C5D9DC;}
	.st48{clip-path:url(#SVGID_73_);fill:#010101;}
	.st49{clip-path:url(#SVGID_75_);fill:#010101;}
	.st50{clip-path:url(#SVGID_77_);fill:#010101;}
	.st51{clip-path:url(#SVGID_79_);}
	.st52{clip-path:url(#SVGID_81_);fill:url(#SVGID_82_);}
	.st53{fill:#C2DDDC;}
	.st54{opacity:0.2;clip-path:url(#SVGID_84_);}
	.st55{clip-path:url(#SVGID_86_);fill:#010101;}
	.st56{clip-path:url(#SVGID_84_);fill:#3CC1CA;}
	.st57{clip-path:url(#SVGID_84_);}
	.st58{clip-path:url(#SVGID_88_);fill:#055764;}
	.st59{clip-path:url(#SVGID_90_);fill:#DFECEE;}
	.st60{clip-path:url(#SVGID_92_);fill:#F68D50;}
	.st61{clip-path:url(#SVGID_94_);fill:#EEE195;}
	.st62{clip-path:url(#SVGID_96_);fill:#EEE195;}
	.st63{clip-path:url(#SVGID_98_);fill:#EEE195;}
	.st64{clip-path:url(#SVGID_100_);fill:#EEE195;}
	.st65{clip-path:url(#SVGID_102_);fill:#EEE195;}
	.st66{clip-path:url(#SVGID_104_);fill:#EEE195;}
	.st67{clip-path:url(#SVGID_106_);fill:#EEE195;}
	.st68{clip-path:url(#SVGID_108_);fill:#EEE195;}
	.st69{clip-path:url(#SVGID_110_);fill:#EEE195;}
	.st70{clip-path:url(#SVGID_112_);fill:#EEE195;}
	.st71{clip-path:url(#SVGID_114_);fill:#EEE195;}
	.st72{clip-path:url(#SVGID_116_);fill:#EEE195;}
	.st73{clip-path:url(#SVGID_118_);fill:#EEE195;}
	.st74{clip-path:url(#SVGID_120_);fill:#EEE195;}
	.st75{clip-path:url(#SVGID_122_);fill:#EEE195;}
	.st76{clip-path:url(#SVGID_124_);fill:#EEE195;}
	.st77{clip-path:url(#SVGID_126_);fill:#EEE195;}
	.st78{clip-path:url(#SVGID_128_);fill:#EEE195;}
	.st79{clip-path:url(#SVGID_130_);fill:#9E4322;}
	.st80{clip-path:url(#SVGID_132_);fill:#2E6772;}
	.st81{clip-path:url(#SVGID_134_);fill:#2E6772;}
	.st82{clip-path:url(#SVGID_136_);fill:#2E6772;}
	.st83{clip-path:url(#SVGID_138_);fill:#2E6772;}
	.st84{clip-path:url(#SVGID_140_);fill:#2E6772;}
	.st85{clip-path:url(#SVGID_142_);fill:#2E6772;}
	.st86{clip-path:url(#SVGID_144_);fill:#2E6772;}
	.st87{clip-path:url(#SVGID_146_);fill:#2E6772;}
	.st88{clip-path:url(#SVGID_148_);fill:#2E6772;}
	.st89{clip-path:url(#SVGID_150_);fill:#2E6772;}
	.st90{clip-path:url(#SVGID_152_);fill:#2E6772;}
	.st91{clip-path:url(#SVGID_154_);fill:#2E6772;}
	.st92{clip-path:url(#SVGID_156_);fill:#2E6772;}
	.st93{clip-path:url(#SVGID_158_);fill:#2E6772;}
	.st94{clip-path:url(#SVGID_160_);fill:#2E6772;}
	.st95{clip-path:url(#SVGID_162_);fill:#2E6772;}
	.st96{clip-path:url(#SVGID_164_);fill:#2E6772;}
	.st97{clip-path:url(#SVGID_166_);fill:#2E6772;}
	.st98{clip-path:url(#SVGID_168_);fill:#3A8A97;}
	.st99{clip-path:url(#SVGID_170_);fill:#3A8A97;}
	.st100{clip-path:url(#SVGID_172_);fill:#3A8A97;}
	.st101{clip-path:url(#SVGID_174_);fill:#3A8A97;}
	.st102{clip-path:url(#SVGID_176_);fill:#3A8A97;}
	.st103{clip-path:url(#SVGID_178_);fill:#3A8A97;}
	.st104{clip-path:url(#SVGID_180_);fill:#3A8A97;}
	.st105{clip-path:url(#SVGID_182_);fill:#3A8A97;}
	.st106{clip-path:url(#SVGID_184_);fill:#3A8A97;}
	.st107{clip-path:url(#SVGID_186_);fill:#3A8A97;}
	.st108{clip-path:url(#SVGID_188_);fill:#3A8A97;}
	.st109{clip-path:url(#SVGID_190_);fill:#3A8A97;}
	.st110{clip-path:url(#SVGID_192_);fill:#3A8A97;}
	.st111{clip-path:url(#SVGID_194_);fill:#3A8A97;}
	.st112{clip-path:url(#SVGID_196_);fill:#3A8A97;}
	.st113{clip-path:url(#SVGID_198_);fill:#3A8A97;}
	.st114{clip-path:url(#SVGID_200_);fill:#3A8A97;}
	.st115{clip-path:url(#SVGID_202_);fill:#3A8A97;}
	.st116{clip-path:url(#SVGID_204_);fill:#3A8A97;}
	.st117{clip-path:url(#SVGID_206_);fill:#3A8A97;}
	.st118{opacity:0.3;}
	.st119{clip-path:url(#SVGID_208_);fill:#FFFFFF;}
	.st120{clip-path:url(#SVGID_210_);enable-background:new    ;}
	.st121{opacity:0.15;clip-path:url(#SVGID_212_);}
	.st122{clip-path:url(#SVGID_214_);fill:#010101;}
	.st123{clip-path:url(#SVGID_212_);fill:#F0F9FC;}
	.st124{clip-path:url(#SVGID_212_);}
	.st125{clip-path:url(#SVGID_216_);fill:#DFECEE;}
	.st126{clip-path:url(#SVGID_218_);fill:#738688;}
	.st127{clip-path:url(#SVGID_212_);fill:#A9C7CA;}
	.st128{opacity:0.15;clip-path:url(#SVGID_220_);}
	.st129{clip-path:url(#SVGID_222_);fill:#010101;}
	.st130{clip-path:url(#SVGID_220_);}
	.st131{clip-path:url(#SVGID_224_);fill:#FEEAC5;}
	.st132{clip-path:url(#SVGID_226_);fill:#EBDD82;}
	.st133{clip-path:url(#SVGID_220_);fill:#F1E6A9;}
	.st134{clip-path:url(#SVGID_220_);fill:#F9F5E1;}
	.st135{clip-path:url(#SVGID_228_);enable-background:new    ;}
	.st136{opacity:0.15;clip-path:url(#SVGID_230_);}
	.st137{clip-path:url(#SVGID_232_);fill:#010101;}
	.st138{clip-path:url(#SVGID_230_);fill:#F9F5E1;}
	.st139{clip-path:url(#SVGID_230_);}
	.st140{clip-path:url(#SVGID_234_);fill:#EBDD82;}
	.st141{clip-path:url(#SVGID_230_);fill:#F1E6A9;}
	.st142{clip-path:url(#SVGID_236_);fill:#010101;}
	.st143{fill:#DBE4E2;}
	.st144{fill:#3A3A3A;}
	.st145{fill:#00AAA1;}
	.st146{fill:#3CC1CA;}
	.st147{fill:#4C4C4B;}
	.st148{fill:#79CED5;}
	.st149{fill:#F68D50;}
	.st150{fill:#F26A21;}
	.st151{fill:#A9CED6;}
	.st152{opacity:0.2;clip-path:url(#SVGID_238_);}
	.st153{clip-path:url(#SVGID_240_);fill:#010101;}
	.st154{clip-path:url(#SVGID_238_);}
	.st155{clip-path:url(#SVGID_242_);fill:#010101;}
	.st156{clip-path:url(#SVGID_244_);fill:#010101;}
	.st157{clip-path:url(#SVGID_246_);fill:#010101;}
	.st158{clip-path:url(#SVGID_248_);fill:#010101;}
	.st159{fill:#FFD17F;}
	.st160{fill:#028264;}
	.st161{fill:#F0C477;}
	.st162{fill:#2E6772;}
	.st163{font-family:'Futura-Medium';}
	.st164{font-size:10.26px;}
	.st165{fill:none;stroke:#FFFFFF;stroke-width:0.714;stroke-miterlimit:10;}
	.st166{fill:none;stroke:#FFFFFF;stroke-width:0.475;stroke-linecap:round;stroke-miterlimit:10;}
	.st167{fill:none;stroke:#FFFFFF;stroke-width:0.475;stroke-linecap:round;stroke-miterlimit:10;stroke-dasharray:0,1.897;}
	.st168{fill:none;stroke:#FFFFFF;stroke-width:0.482;stroke-miterlimit:10;}
	.st169{fill:#E21B79;}
	.st170{fill:#BADA9B;}
	.st171{fill:none;stroke:#E21B79;stroke-width:0.95;stroke-miterlimit:10;}
	.st172{fill:none;stroke:#BADA9B;stroke-width:0.95;stroke-miterlimit:10;}
	.st173{fill:none;stroke:#BADA9B;stroke-miterlimit:10;}
	.st174{fill:none;stroke:#E21B79;stroke-miterlimit:10;}
</style>
<rect class="st0" width="840.9" height="461.9"/>
<g>
	<g class="st1">
		<g>
			<defs>
				<rect id="SVGID_1_" x="76.3" y="295.5" width="233.7" height="137.2"/>
			</defs>
			<clipPath id="SVGID_2_">
				<use xlink:href="#SVGID_1_"  style="overflow:visible;"/>
			</clipPath>
		</g>
	</g>
	<g class="st2">
		<g>
			<defs>
				<rect id="SVGID_3_" x="64.7" y="302.7" width="209.4" height="123"/>
			</defs>
			<clipPath id="SVGID_4_">
				<use xlink:href="#SVGID_3_"  style="overflow:visible;"/>
			</clipPath>
			<g class="st3">
				<g>
					<defs>
						<rect id="SVGID_5_" x="65.5" y="304.6" width="208.6" height="121.1"/>
					</defs>
					<clipPath id="SVGID_6_">
						<use xlink:href="#SVGID_5_"  style="overflow:visible;"/>
					</clipPath>
					<path class="st4" d="M65.5,358.1l119.8,67.6l88.8-51.5l-120.2-69.5L65.5,358.1z M241.9,364.1l-74,42.9l-1.6-0.9l74-42.9
						L241.9,364.1z M237.4,361.5l-74,42.9l-1.6-0.9l74-42.9L237.4,361.5z M232.9,358.9l-74,42.9l-1.6-0.9l74-42.9L232.9,358.9z
						 M228.5,356.3l-74,42.9l-1.6-0.9l74-42.9L228.5,356.3z M224,353.7l-74,42.9l-1.6-0.9l74-42.9L224,353.7z M219.5,351.1l-74,42.9
						l-1.6-0.9l74-42.9L219.5,351.1z M203.5,341.9l-74,42.9l-1.6-0.9l74-42.9L203.5,341.9z M199,339.3l-74,42.9l-1.6-0.9l74-42.9
						L199,339.3z M194.5,336.7l-74,42.9l-1.6-0.9l74-42.9L194.5,336.7z M190,334.1l-74,42.9l-1.6-0.9l74-42.9L190,334.1z
						 M185.6,331.5l-74,42.9l-1.6-0.9l74-42.9L185.6,331.5z M181.1,328.9l-74,42.9l-1.6-0.9l74-42.9L181.1,328.9z M176.6,326.3
						l-74,42.9l-1.6-0.9l74-42.9L176.6,326.3z M167.6,321.1l-74,42.9l-1.6-0.9l74-42.9L167.6,321.1z M161.6,317.6l-74,42.9l-7.3-4.2
						l74-42.9L161.6,317.6z"/>
				</g>
			</g>
			<polygon class="st5" points="105.1,369 106.7,369.9 180.7,327 179.1,326.1 			"/>
			<polygon class="st5" points="114.1,374.2 115.7,375.1 189.7,332.2 188.1,331.3 			"/>
			<polygon class="st5" points="118.6,376.8 120.2,377.7 194.1,334.8 192.6,333.9 			"/>
			<polygon class="st5" points="123.1,379.4 124.6,380.3 198.6,337.4 197.1,336.4 			"/>
			<polygon class="st5" points="143.5,391.2 145.1,392.1 219.1,349.2 217.5,348.3 			"/>
			<polygon class="st5" points="148,393.8 149.6,394.7 223.6,351.8 222,350.9 			"/>
			<polygon class="st5" points="157,399 158.6,399.9 232.6,357 231,356.1 			"/>
			<path class="st6" d="M64.7,354.2l120.2,69.5l88.8-51.5l-120.2-69.5L64.7,354.2z M241.5,362.2l-74,42.9l-1.6-0.9l74-42.9
				L241.5,362.2z M237,359.6l-74,42.9l-1.6-0.9l74-42.9L237,359.6z M232.6,357l-74,42.9L157,399l74-42.9L232.6,357z M228.1,354.4
				l-74,42.9l-1.6-0.9l74-42.9L228.1,354.4z M223.6,351.8l-74,42.9l-1.6-0.9l74-42.9L223.6,351.8z M219.1,349.2l-74,42.9l-1.6-0.9
				l74-42.9L219.1,349.2z M203.1,339.9l-74,42.9l-1.6-0.9l74-42.9L203.1,339.9z M198.6,337.4l-74,42.9l-1.6-0.9l74-42.9L198.6,337.4
				z M194.1,334.8l-74,42.9l-1.6-0.9l74-42.9L194.1,334.8z M189.7,332.2l-74,42.9l-1.6-0.9l74-42.9L189.7,332.2z M185.2,329.6
				l-74,42.9l-1.6-0.9l74-42.9L185.2,329.6z M180.7,327l-74,42.9l-1.6-0.9l74-42.9L180.7,327z M176.2,324.4l-74,42.9l-1.6-0.9
				l74-42.9L176.2,324.4z M167.2,319.2l-74,42.9l-1.6-0.9l74-42.9L167.2,319.2z M161.2,315.7l-74,42.9l-7.3-4.2l74-42.9L161.2,315.7
				z"/>
			<polygon class="st7" points="78.6,353.7 88.8,359.5 162.8,316.6 152.6,310.8 			"/>
			<polygon class="st5" points="91.7,361.2 93.2,362.1 167.2,319.2 165.7,318.3 			"/>
			<polygon class="st5" points="100.6,366.4 102.2,367.3 176.2,324.4 174.6,323.5 			"/>
			<polygon class="st5" points="109.6,371.6 111.2,372.5 185.2,329.6 183.6,328.7 			"/>
			<polygon class="st5" points="127.6,382 129.1,382.9 203.1,339.9 201.5,339 			"/>
			<polygon class="st5" points="152.5,396.4 154.1,397.3 228.1,354.4 226.5,353.5 			"/>
		</g>
	</g>
	<g class="st1">
		<g>
			<defs>
				<rect id="SVGID_7_" x="586.7" y="310.8" width="220.2" height="130.6"/>
			</defs>
			<clipPath id="SVGID_8_">
				<use xlink:href="#SVGID_7_"  style="overflow:visible;"/>
			</clipPath>
			<polygon class="st8" points="586.7,399.5 668.7,441.4 806.9,354.2 724.9,310.8 			"/>
		</g>
	</g>
	<polygon class="st9" points="586.7,396 668.7,439.4 806.8,352.2 724.9,308.8 	"/>
	<g class="st1">
		<g>
			<defs>
				<rect id="SVGID_9_" x="623.8" y="228" width="164.8" height="96"/>
			</defs>
			<clipPath id="SVGID_10_">
				<use xlink:href="#SVGID_9_"  style="overflow:visible;"/>
			</clipPath>
			<polygon class="st10" points="627.1,319.5 788.7,230.4 783.7,228 			"/>
		</g>
	</g>
	<g>
		<g class="st1">
			<g>
				<defs>
					<rect id="SVGID_11_" x="601.1" y="298.2" width="212.7" height="126.6"/>
				</defs>
				<clipPath id="SVGID_12_">
					<use xlink:href="#SVGID_11_"  style="overflow:visible;"/>
				</clipPath>
				<polygon class="st11" points="610,380.8 601.1,387 673.9,424.8 813.8,344.6 733.5,298.2 				"/>
			</g>
		</g>
		<polygon class="st12" points="711.9,365.7 733.5,295.9 592.2,378 		"/>
		<polygon class="st13" points="711.9,365.7 592.2,378 672.5,424.4 813.8,342.3 733.5,295.9 		"/>
		<g class="st1">
			<g>
				<defs>
					<rect id="SVGID_13_" x="592.2" y="295.9" width="141.3" height="82.1"/>
				</defs>
				<clipPath id="SVGID_14_">
					<use xlink:href="#SVGID_13_"  style="overflow:visible;"/>
				</clipPath>
				<polygon class="st14" points="592.2,378 712.6,367.4 733.5,295.9 711.9,365.7 				"/>
			</g>
		</g>
	</g>
	<g class="st1">
		<g>
			<defs>
				<rect id="SVGID_15_" x="408.5" y="194.6" width="224.8" height="128.6"/>
			</defs>
			<clipPath id="SVGID_16_">
				<use xlink:href="#SVGID_15_"  style="overflow:visible;"/>
			</clipPath>
			<polygon class="st15" points="409.8,196.1 627.1,319.5 412.1,194.5 			"/>
		</g>
	</g>
	<g>
		<defs>
			<rect id="SVGID_17_" x="412.1" y="102.6" width="374.1" height="216.8"/>
		</defs>
		<clipPath id="SVGID_18_">
			<use xlink:href="#SVGID_17_"  style="overflow:visible;"/>
		</clipPath>
		<g class="st16">
			<g>
				<defs>
					<rect id="SVGID_19_" x="623.5" y="285.2" width="32.1" height="18.5"/>
				</defs>
				<clipPath id="SVGID_20_">
					<use xlink:href="#SVGID_19_"  style="overflow:visible;"/>
				</clipPath>
				<polygon class="st17" points="623.5,302 626.4,303.7 655.5,286.9 652.6,285.2 				"/>
			</g>
		</g>
		<g class="st16">
			<g>
				<defs>
					<rect id="SVGID_21_" x="484.5" y="144.7" width="135.4" height="78.2"/>
				</defs>
				<clipPath id="SVGID_22_">
					<use xlink:href="#SVGID_21_"  style="overflow:visible;"/>
				</clipPath>
				<polygon class="st18" points="484.5,221.2 487.3,222.8 619.9,146.3 617.1,144.7 				"/>
			</g>
		</g>
		<g class="st16">
			<g>
				<defs>
					<rect id="SVGID_23_" x="500.6" y="154" width="135.4" height="78.2"/>
				</defs>
				<clipPath id="SVGID_24_">
					<use xlink:href="#SVGID_23_"  style="overflow:visible;"/>
				</clipPath>
				<polygon class="st19" points="500.6,230.5 503.4,232.2 636,155.6 633.2,154 				"/>
			</g>
		</g>
		<g class="st16">
			<g>
				<defs>
					<rect id="SVGID_25_" x="508.6" y="158.6" width="135.4" height="78.2"/>
				</defs>
				<clipPath id="SVGID_26_">
					<use xlink:href="#SVGID_25_"  style="overflow:visible;"/>
				</clipPath>
				<polygon class="st20" points="508.6,235.2 511.4,236.8 644,160.3 641.2,158.6 				"/>
			</g>
		</g>
		<g class="st16">
			<g>
				<defs>
					<rect id="SVGID_27_" x="516.6" y="163.3" width="135.4" height="78.2"/>
				</defs>
				<clipPath id="SVGID_28_">
					<use xlink:href="#SVGID_27_"  style="overflow:visible;"/>
				</clipPath>
				<polygon class="st21" points="516.6,239.9 519.4,241.5 652,164.9 649.2,163.3 				"/>
			</g>
		</g>
		<g class="st16">
			<g>
				<defs>
					<rect id="SVGID_29_" x="553.2" y="184.6" width="135.4" height="78.2"/>
				</defs>
				<clipPath id="SVGID_30_">
					<use xlink:href="#SVGID_29_"  style="overflow:visible;"/>
				</clipPath>
				<polygon class="st22" points="553.2,261.1 556,262.8 688.6,186.2 685.8,184.6 				"/>
			</g>
		</g>
		<g class="st16">
			<g>
				<defs>
					<rect id="SVGID_31_" x="561.2" y="189.2" width="135.4" height="78.2"/>
				</defs>
				<clipPath id="SVGID_32_">
					<use xlink:href="#SVGID_31_"  style="overflow:visible;"/>
				</clipPath>
				<polygon class="st23" points="561.2,265.8 564,267.4 696.6,190.9 693.8,189.2 				"/>
			</g>
		</g>
		<g class="st16">
			<g>
				<defs>
					<rect id="SVGID_33_" x="577.3" y="198.6" width="135.4" height="78.2"/>
				</defs>
				<clipPath id="SVGID_34_">
					<use xlink:href="#SVGID_33_"  style="overflow:visible;"/>
				</clipPath>
				<polygon class="st24" points="577.3,275.1 580.1,276.7 712.7,200.2 709.9,198.6 				"/>
			</g>
		</g>
		<path class="st25" d="M412.1,194.5l215,124.9l159.1-91.9l-215-124.9L412.1,194.5z M626.4,303.7l-3-1.7l29.1-16.8l3,1.7
			L626.4,303.7z M736.7,214.2l-59.9,34.6l-2.8-1.6l59.9-34.6L736.7,214.2z M728.7,209.5l-132.6,76.6l-2.8-1.6l132.6-76.6
			L728.7,209.5z M720.7,204.8l-132.6,76.6l-2.8-1.6l132.6-76.6L720.7,204.8z M712.7,200.2l-132.6,76.6l-2.8-1.6l132.6-76.6
			L712.7,200.2z M704.7,195.5L572,272.1l-2.8-1.6l132.6-76.6L704.7,195.5z M696.6,190.9L564,267.4l-2.8-1.6l132.6-76.6L696.6,190.9z
			 M688.6,186.2L556,262.8l-2.8-1.6l132.6-76.6L688.6,186.2z M668.2,174.3l-83.1,48l-3-1.7l83.1-48L668.2,174.3z M660,169.6
			l-132.6,76.6l-2.8-1.6L657.2,168L660,169.6z M652,164.9l-132.6,76.6l-2.8-1.6l132.6-76.6L652,164.9z M644,160.3l-132.6,76.6
			l-2.8-1.6l132.6-76.6L644,160.3z M636,155.6l-132.6,76.6l-2.8-1.6L633.2,154L636,155.6z M627.9,150.9l-132.6,76.6l-2.8-1.6
			l132.6-76.6L627.9,150.9z M619.9,146.3l-132.6,76.6l-2.8-1.6l132.6-76.6L619.9,146.3z M611.9,141.6l-132.6,76.6l-2.8-1.6
			L609.1,140L611.9,141.6z M603.9,137l-132.6,76.6l-2.8-1.6l132.6-76.6L603.9,137z M595.9,132.3l-132.6,76.6l-2.8-1.6l132.6-76.6
			L595.9,132.3z M585.1,126l-132.6,76.6l-13.1-7.6L572,118.4L585.1,126z"/>
		<g class="st16">
			<g>
				<defs>
					<rect id="SVGID_35_" x="437.2" y="117.2" width="150.8" height="86.9"/>
				</defs>
				<clipPath id="SVGID_36_">
					<use xlink:href="#SVGID_35_"  style="overflow:visible;"/>
				</clipPath>
				<polygon class="st26" points="437.2,193.7 455.3,204.1 587.9,127.6 569.8,117.2 				"/>
			</g>
		</g>
		<g class="st16">
			<g>
				<defs>
					<rect id="SVGID_37_" x="460.4" y="130.7" width="135.4" height="78.2"/>
				</defs>
				<clipPath id="SVGID_38_">
					<use xlink:href="#SVGID_37_"  style="overflow:visible;"/>
				</clipPath>
				<polygon class="st27" points="460.4,207.2 463.2,208.9 595.9,132.3 593.1,130.7 				"/>
			</g>
		</g>
		<g class="st16">
			<g>
				<defs>
					<rect id="SVGID_39_" x="476.5" y="140" width="135.4" height="78.2"/>
				</defs>
				<clipPath id="SVGID_40_">
					<use xlink:href="#SVGID_39_"  style="overflow:visible;"/>
				</clipPath>
				<polygon class="st28" points="476.5,216.6 479.3,218.2 611.9,141.6 609.1,140 				"/>
			</g>
		</g>
		<g class="st16">
			<g>
				<defs>
					<rect id="SVGID_41_" x="582.1" y="172.6" width="86.1" height="49.7"/>
				</defs>
				<clipPath id="SVGID_42_">
					<use xlink:href="#SVGID_41_"  style="overflow:visible;"/>
				</clipPath>
				<polygon class="st29" points="582.1,220.6 585.1,222.3 668.2,174.3 665.3,172.6 				"/>
			</g>
		</g>
		<g class="st16">
			<g>
				<defs>
					<rect id="SVGID_43_" x="492.5" y="149.3" width="135.4" height="78.2"/>
				</defs>
				<clipPath id="SVGID_44_">
					<use xlink:href="#SVGID_43_"  style="overflow:visible;"/>
				</clipPath>
				<polygon class="st30" points="492.5,225.9 495.3,227.5 627.9,150.9 625.1,149.3 				"/>
			</g>
		</g>
		<g class="st16">
			<g>
				<defs>
					<rect id="SVGID_45_" x="524.6" y="168" width="135.4" height="78.2"/>
				</defs>
				<clipPath id="SVGID_46_">
					<use xlink:href="#SVGID_45_"  style="overflow:visible;"/>
				</clipPath>
				<polygon class="st31" points="524.6,244.5 527.4,246.1 660,169.6 657.2,168 				"/>
			</g>
		</g>
		<g class="st16">
			<g>
				<defs>
					<rect id="SVGID_47_" x="569.2" y="193.9" width="135.4" height="78.2"/>
				</defs>
				<clipPath id="SVGID_48_">
					<use xlink:href="#SVGID_47_"  style="overflow:visible;"/>
				</clipPath>
				<polygon class="st32" points="569.2,270.5 572,272.1 704.7,195.5 701.9,193.9 				"/>
			</g>
		</g>
		<g class="st16">
			<g>
				<defs>
					<rect id="SVGID_49_" x="585.3" y="203.2" width="135.4" height="78.2"/>
				</defs>
				<clipPath id="SVGID_50_">
					<use xlink:href="#SVGID_49_"  style="overflow:visible;"/>
				</clipPath>
				<polygon class="st33" points="585.3,279.8 588.1,281.4 720.7,204.8 717.9,203.2 				"/>
			</g>
		</g>
		<g class="st16">
			<g>
				<defs>
					<rect id="SVGID_51_" x="593.3" y="207.9" width="135.4" height="78.2"/>
				</defs>
				<clipPath id="SVGID_52_">
					<use xlink:href="#SVGID_51_"  style="overflow:visible;"/>
				</clipPath>
				<polygon class="st34" points="593.3,284.4 596.1,286.1 728.7,209.5 725.9,207.9 				"/>
			</g>
		</g>
		<g class="st16">
			<g>
				<defs>
					<rect id="SVGID_53_" x="468.5" y="135.3" width="135.4" height="78.2"/>
				</defs>
				<clipPath id="SVGID_54_">
					<use xlink:href="#SVGID_53_"  style="overflow:visible;"/>
				</clipPath>
				<polygon class="st35" points="468.5,211.9 471.3,213.5 603.9,137 601.1,135.3 				"/>
			</g>
		</g>
		<g class="st16">
			<g>
				<defs>
					<rect id="SVGID_55_" x="458.5" y="181.9" width="16.5" height="9.5"/>
				</defs>
				<clipPath id="SVGID_56_">
					<use xlink:href="#SVGID_55_"  style="overflow:visible;"/>
				</clipPath>
				<polygon class="st36" points="465.4,181.9 463.3,183.2 465.3,185.9 465.2,185.9 460.6,184.7 458.5,185.9 465.5,187.3 
					467.9,191.4 470,190.2 467.9,187.4 468,187.4 472.8,188.6 475,187.3 467.7,186 				"/>
			</g>
		</g>
		<path class="st37" d="M453.7,188.7l6.8,7l1.9-1.1l-1.5-1.5l2.3-1.4l2.6,0.9l1.9-1.1l-12.1-3.9L453.7,188.7z M457.6,189.9l3.8,1.3
			l-1.6,0.9L457.6,189.9L457.6,189.9z"/>
		<g class="st16">
			<g>
				<defs>
					<rect id="SVGID_57_" x="445.1" y="190.1" width="13.4" height="7.8"/>
				</defs>
				<clipPath id="SVGID_58_">
					<use xlink:href="#SVGID_57_"  style="overflow:visible;"/>
				</clipPath>
				<polygon class="st38" points="452.7,191 451.3,190.1 445.1,193.7 446.5,194.5 448.7,193.3 456.7,197.9 458.5,196.9 450.5,192.2 
									"/>
			</g>
		</g>
		<g class="st16">
			<g>
				<defs>
					<rect id="SVGID_59_" x="482.4" y="168.5" width="13.4" height="7.8"/>
				</defs>
				<clipPath id="SVGID_60_">
					<use xlink:href="#SVGID_59_"  style="overflow:visible;"/>
				</clipPath>
				<polygon class="st39" points="490,169.3 488.5,168.5 482.4,172.1 483.8,172.9 486,171.6 494,176.3 495.8,175.2 487.8,170.6 				
					"/>
			</g>
		</g>
		<g class="st16">
			<g>
				<defs>
					<rect id="SVGID_61_" x="504.6" y="155.3" width="16.1" height="9.3"/>
				</defs>
				<clipPath id="SVGID_62_">
					<use xlink:href="#SVGID_61_"  style="overflow:visible;"/>
				</clipPath>
				<polygon class="st40" points="509.4,156.3 515.5,159.8 515.4,159.8 506.4,158.1 504.6,159.1 514,164.6 515.9,163.5 509.8,160.1 
					509.9,160 518.9,161.8 520.7,160.7 511.3,155.3 				"/>
			</g>
		</g>
		<path class="st37" d="M512,164.9c-0.3-0.1-0.7-0.3-0.9-0.4l-0.7-0.4c-0.6-0.3-1.2-0.5-1.7-0.6c-0.6-0.1-1.2-0.1-1.9,0.1
			c0.2-0.4,0.2-0.7,0.1-1.1c-0.1-0.3-0.4-0.6-0.9-0.9c-0.9-0.5-1.8-0.7-2.8-0.7c-1,0-2,0.3-2.9,0.9l-2.8,1.6l9.4,5.4l1.8-1.1
			l-3.8-2.2l1.1-0.6c0.4-0.2,0.8-0.3,1.2-0.3c0.5,0,0.9,0.2,1.4,0.5l0.7,0.4c0.3,0.2,0.6,0.3,1,0.5c0.4,0.2,0.7,0.2,1,0.2l1.9-1.1
			l-0.1-0.1C512.6,165.1,512.3,165,512,164.9 M504.4,164.2l-1,0.6l-2.8-1.6l1-0.6c0.4-0.2,0.8-0.3,1.3-0.3c0.5,0,0.9,0.2,1.4,0.4
			c0.4,0.3,0.7,0.5,0.7,0.8C504.9,163.7,504.7,164,504.4,164.2"/>
		<g class="st16">
			<g>
				<defs>
					<rect id="SVGID_63_" x="489.4" y="164.2" width="14.3" height="8.3"/>
				</defs>
				<clipPath id="SVGID_64_">
					<use xlink:href="#SVGID_63_"  style="overflow:visible;"/>
				</clipPath>
				<path class="st41" d="M502.1,167.7l-6.2-3.6l-1.8,1.1l6.2,3.6c0.6,0.4,1,0.7,1.1,1.1c0.1,0.3-0.1,0.7-0.6,0.9
					c-0.5,0.3-1,0.4-1.6,0.3c-0.6,0-1.2-0.2-1.9-0.6l-6.2-3.6l-1.8,1.1l6.2,3.6c1.1,0.6,2.2,0.9,3.4,0.9c1.2,0,2.3-0.3,3.3-0.9
					c1-0.6,1.5-1.2,1.5-1.9C503.7,169,503.2,168.3,502.1,167.7"/>
			</g>
		</g>
		<g class="st16">
			<g>
				<defs>
					<rect id="SVGID_65_" x="476.5" y="172.4" width="14.7" height="8.5"/>
				</defs>
				<clipPath id="SVGID_66_">
					<use xlink:href="#SVGID_65_"  style="overflow:visible;"/>
				</clipPath>
				<polygon class="st42" points="486.3,179 483.6,177.5 486.5,175.8 485,175 482.2,176.6 479.8,175.2 483.2,173.3 481.7,172.4 
					476.5,175.5 485.9,180.9 491.2,177.9 489.8,177 				"/>
			</g>
		</g>
		<path class="st37" d="M483.9,181.2c-0.3-0.1-0.7-0.3-0.9-0.4l-0.7-0.4c-0.6-0.3-1.2-0.5-1.7-0.6c-0.6-0.1-1.2-0.1-1.9,0.1
			c0.2-0.4,0.3-0.7,0.1-1.1c-0.1-0.3-0.4-0.6-0.9-0.9c-0.9-0.5-1.8-0.7-2.8-0.7c-1,0-2,0.3-2.9,0.9l-2.8,1.6l9.4,5.4l1.8-1.1
			l-3.8-2.2l1.1-0.6c0.4-0.2,0.8-0.3,1.2-0.3c0.5,0,0.9,0.2,1.4,0.5l0.7,0.4c0.3,0.2,0.6,0.3,1,0.5c0.4,0.2,0.7,0.2,1,0.2l1.9-1.1
			l-0.1-0.1C484.5,181.4,484.2,181.4,483.9,181.2 M476.3,180.5l-1,0.6l-2.8-1.6l1-0.6c0.4-0.2,0.8-0.3,1.3-0.3
			c0.5,0,0.9,0.2,1.4,0.4c0.4,0.3,0.7,0.5,0.7,0.8C476.8,180,476.6,180.3,476.3,180.5"/>
	</g>
	<polygon class="st43" points="397.1,337.6 457.9,373.3 537.2,373.3 537.2,345.9 458.6,299.3 	"/>
	<g class="st44">
		<g>
			<defs>
				<rect id="SVGID_67_" x="254.4" y="267.4" width="43.1" height="24.9"/>
			</defs>
			<clipPath id="SVGID_68_">
				<use xlink:href="#SVGID_67_"  style="overflow:visible;"/>
			</clipPath>
			<g class="st45">
				<defs>
					<polygon id="SVGID_69_" points="254.4,279.7 275.5,292.2 297.5,280.7 274.7,267.4 					"/>
				</defs>
				<clipPath id="SVGID_70_">
					<use xlink:href="#SVGID_69_"  style="overflow:visible;"/>
				</clipPath>
				
					<linearGradient id="SVGID_71_" gradientUnits="userSpaceOnUse" x1="-206.5783" y1="574.4005" x2="-205.5783" y2="574.4005" gradientTransform="matrix(-23.6547 -13.7627 -13.7627 23.6547 3305.3909 -16144.3428)">
					<stop  offset="0" style="stop-color:#B3B3B3"/>
					<stop  offset="1" style="stop-color:#FFFFFF"/>
				</linearGradient>
				<polygon class="st46" points="286.6,310.9 243.6,285.9 265.3,248.6 308.3,273.6 				"/>
			</g>
		</g>
	</g>
	<polygon class="st47" points="394.1,333 454.9,368.6 534.2,368.6 534.2,341.3 455.6,294.6 	"/>
	<g class="st1">
		<g>
			<defs>
				<rect id="SVGID_72_" x="267.7" y="269.6" width="233.7" height="137.2"/>
			</defs>
			<clipPath id="SVGID_73_">
				<use xlink:href="#SVGID_72_"  style="overflow:visible;"/>
			</clipPath>
			<polygon class="st48" points="267.7,292.1 464.9,406.8 501.4,383.8 308.9,269.6 			"/>
		</g>
	</g>
	<g class="st1">
		<g>
			<defs>
				<rect id="SVGID_74_" x="275.5" y="278" width="226.9" height="126.6"/>
			</defs>
			<clipPath id="SVGID_75_">
				<use xlink:href="#SVGID_74_"  style="overflow:visible;"/>
			</clipPath>
			<polygon class="st49" points="275.5,292.3 305.7,309.5 396.1,362.2 466.2,404.6 502.4,383.9 302.9,278 			"/>
		</g>
	</g>
	<path class="st12" d="M288.2,236.7L258,256.4c-7.9,17.1,10.8,30.7,10.8,30.7L466,402.8l36.5-23L301.7,261.8
		C301.7,261.8,282.3,247.2,288.2,236.7"/>
	<g class="st1">
		<g>
			<defs>
				<rect id="SVGID_76_" x="108.9" y="273" width="143.8" height="89.1"/>
			</defs>
			<clipPath id="SVGID_77_">
				<use xlink:href="#SVGID_76_"  style="overflow:visible;"/>
			</clipPath>
			<path class="st50" d="M108.9,297.8l107.3,64.3l36.5-23L140,273C131.2,283.5,119.9,289.6,108.9,297.8"/>
		</g>
	</g>
	<g class="st44">
		<g>
			<defs>
				<rect id="SVGID_78_" x="87.9" y="272.9" width="43" height="24.9"/>
			</defs>
			<clipPath id="SVGID_79_">
				<use xlink:href="#SVGID_78_"  style="overflow:visible;"/>
			</clipPath>
			<g class="st51">
				<defs>
					<polygon id="SVGID_80_" points="87.9,285.7 109,297.8 130.9,286.3 108.1,272.9 					"/>
				</defs>
				<clipPath id="SVGID_81_">
					<use xlink:href="#SVGID_80_"  style="overflow:visible;"/>
				</clipPath>
				
					<linearGradient id="SVGID_82_" gradientUnits="userSpaceOnUse" x1="-204.0445" y1="575.3494" x2="-203.0445" y2="575.3494" gradientTransform="matrix(-23.4523 -13.645 -13.645 23.4523 3185.4058 -15985.8799)">
					<stop  offset="0" style="stop-color:#B3B3B3"/>
					<stop  offset="1" style="stop-color:#FFFFFF"/>
				</linearGradient>
				<polygon class="st52" points="120,316.5 77.1,291.5 98.8,254.2 141.7,279.2 				"/>
			</g>
		</g>
	</g>
	<path class="st12" d="M123.8,246.4l-30.2,19.7c-7.9,17.1,5.4,25.3,5.4,25.3l116.8,68.3l36.5-23l-120.4-70.6
		C131.9,266.1,118,256.9,123.8,246.4"/>
	<polygon class="st53" points="103.5,290.4 106.3,292.1 137.5,273.9 134.7,272.3 	"/>
	<polygon class="st53" points="110.6,294.5 113.4,296.2 144.6,278 141.8,276.4 	"/>
	<polygon class="st53" points="117.8,298.7 120.6,300.3 151.8,282.2 149,280.5 	"/>
	<polygon class="st53" points="125,302.8 127.8,304.4 159,286.3 156.2,284.7 	"/>
	<polygon class="st53" points="132.2,306.9 135,308.5 166.1,290.4 163.3,288.8 	"/>
	<polygon class="st53" points="139.3,311 142.1,312.7 173.3,294.5 170.5,292.9 	"/>
	<polygon class="st53" points="146.5,315.2 149.3,316.8 180.5,298.7 177.7,297 	"/>
	<polygon class="st53" points="153.7,319.3 156.5,320.9 187.7,302.8 184.9,301.2 	"/>
	<polygon class="st53" points="160.8,323.4 163.6,325 194.8,306.9 192,305.3 	"/>
	<g>
		<g>
			<defs>
				<rect id="SVGID_83_" x="268" y="296.7" width="145.3" height="91.6"/>
			</defs>
			<clipPath id="SVGID_84_">
				<use xlink:href="#SVGID_83_"  style="overflow:visible;"/>
			</clipPath>
			<g class="st54">
				<g>
					<defs>
						<rect id="SVGID_85_" x="268.5" y="304.4" width="144.7" height="83.9"/>
					</defs>
					<clipPath id="SVGID_86_">
						<use xlink:href="#SVGID_85_"  style="overflow:visible;"/>
					</clipPath>
					<path class="st55" d="M411.6,350.4l-77.4-45c-2.2-1.3-5.9-1.3-8.1,0l-55.9,32.3c-2.2,1.3-2.3,3.4,0,4.7l77.4,45
						c2.2,1.3,5.9,1.3,8.1,0l55.9-32.3C413.8,353.8,413.8,351.6,411.6,350.4 M377.1,337.3l5.4,3.2c0.5,0.3,0.5,0.7,0,1l-8.5,4.8
						c-0.5,0.3-1.2,0.3-1.7,0l-5.4-3.2c-0.4-0.3-0.4-0.7,0-1l8.5-4.8C375.9,337,376.7,337,377.1,337.3 M357.9,343.2l-8.5,4.8
						c-0.5,0.3-1.2,0.3-1.7,0l-5.4-3.2c-0.5-0.3-0.5-0.7,0-1l8.5-4.8c0.5-0.3,1.2-0.3,1.7,0l5.4,3.2
						C358.3,342.5,358.3,343,357.9,343.2 M361.4,345.3c0.5-0.3,1.2-0.3,1.7,0l5.4,3.2c0.5,0.3,0.4,0.7,0,1l-8.5,4.8
						c-0.5,0.3-1.2,0.3-1.7,0l-5.4-3.2c-0.5-0.3-0.5-0.7,0-1L361.4,345.3z M343.8,350.3c0.5,0.3,0.4,0.7,0,1l-8.5,4.8
						c-0.5,0.3-1.2,0.3-1.7,0l-5.4-3.2c-0.5-0.3-0.5-0.7,0-1l8.5-4.8c0.5-0.3,1.2-0.3,1.7,0L343.8,350.3z M338.9,358.2l8.5-4.8
						c0.5-0.3,1.2-0.3,1.7,0l5.4,3.2c0.5,0.3,0.5,0.7,0,1l-8.5,4.8c-0.5,0.3-1.2,0.3-1.7,0l-5.4-3.2
						C338.4,358.9,338.4,358.4,338.9,358.2 M348.8,364l8.5-4.8c0.5-0.3,1.2-0.3,1.7,0l5.4,3.2c0.5,0.3,0.4,0.7,0,1l-8.5,4.8
						c-0.5,0.3-1.2,0.3-1.7,0l-5.4-3.2C348.3,364.7,348.3,364.3,348.8,364 M362.9,356.9c-0.5-0.3-0.5-0.7,0-1l8.5-4.8
						c0.5-0.3,1.2-0.3,1.7,0l5.4,3.2c0.5,0.3,0.5,0.7,0,1l-8.5,4.8c-0.5,0.3-1.2,0.3-1.7,0L362.9,356.9z M366.5,331.1l5.4,3.2
						c0.4,0.3,0.4,0.7,0,1l-8.5,4.8c-0.5,0.3-1.2,0.3-1.7,0l-5.4-3.2c-0.5-0.3-0.5-0.7,0-1l8.5-4.8
						C365.3,330.8,366.1,330.8,366.5,331.1 M347,330.4l8.5-4.8c0.5-0.3,1.1-0.4,1.4-0.2l3.3,2c0.3,0.2,0.1,0.5-0.3,0.8l-8.5,4.8
						c-0.5,0.3-1.1,0.4-1.4,0.2l-3.3-2C346.4,331,346.5,330.7,347,330.4 M333,338.4l8.5-4.8c0.5-0.3,1.1-0.4,1.4-0.2l3.3,2
						c0.3,0.2,0.1,0.5-0.3,0.8l-8.5,4.8c-0.5,0.3-1.1,0.3-1.4,0.2l-3.3-2C332.3,339,332.5,338.7,333,338.4 M318.9,346.5l8.5-4.8
						c0.5-0.3,1.1-0.3,1.4-0.2l3.3,2c0.3,0.2,0.1,0.5-0.3,0.8l-8.5,4.8c-0.5,0.3-1.1,0.4-1.4,0.2l-3.3-2
						C318.3,347.1,318.4,346.7,318.9,346.5 M307.8,357.2l-3.3-2c-0.3-0.2-0.1-0.5,0.3-0.8l8.5-4.8c0.5-0.3,1.1-0.3,1.3-0.2l3.3,2
						c0.3,0.2,0.1,0.5-0.3,0.8l-8.5,4.8C308.7,357.3,308.1,357.4,307.8,357.2 M319.6,364.1l-5.4-3.2c-0.5-0.3-0.4-0.7,0-1l8.5-4.8
						c0.5-0.3,1.2-0.3,1.7,0l5.4,3.2c0.5,0.3,0.5,0.7,0,1l-8.5,4.8C320.8,364.4,320.1,364.4,319.6,364.1 M330.2,370.4l-5.4-3.2
						c-0.5-0.3-0.5-0.7,0-1l8.5-4.8c0.5-0.3,1.2-0.3,1.7,0l5.4,3.2c0.5,0.3,0.5,0.7,0,1l-8.5,4.8
						C331.4,370.6,330.6,370.6,330.2,370.4 M340.1,376.2l-5.4-3.2c-0.4-0.3-0.5-0.7,0-1l8.5-4.8c0.5-0.3,1.2-0.3,1.7,0l5.4,3.2
						c0.5,0.3,0.5,0.7,0,1l-8.5,4.8C341.3,376.5,340.6,376.5,340.1,376.2 M360.3,377.3l-8.5,4.8c-0.5,0.3-1.2,0.3-1.7,0l-5.4-3.2
						c-0.4-0.3-0.4-0.7,0-1l8.5-4.8c0.5-0.3,1.2-0.3,1.7,0l5.4,3.2C360.8,376.6,360.8,377,360.3,377.3 M374.4,369.2l-8.5,4.8
						c-0.5,0.3-1.2,0.3-1.7,0l-5.4-3.2c-0.5-0.3-0.5-0.7,0-1l8.5-4.8c0.5-0.3,1.2-0.3,1.7,0l5.4,3.2
						C374.9,368.5,374.9,368.9,374.4,369.2 M388.4,361.2L380,366c-0.5,0.3-1.2,0.3-1.7,0l-5.4-3.2c-0.5-0.3-0.4-0.7,0-1l8.5-4.8
						c0.5-0.3,1.2-0.3,1.7,0l5.4,3.2C388.9,360.5,388.9,360.9,388.4,361.2 M402.5,353.1L394,358c-0.5,0.3-1.2,0.3-1.7,0l-2.7-1.6
						l-10-5.9l-2.7-1.6c-0.5-0.3-0.4-0.7,0-1l8.5-4.8c0.5-0.3,1.2-0.3,1.7,0l5.4,3.2l7.4,4.3l2.7,1.6
						C403,352.4,403,352.9,402.5,353.1"/>
				</g>
			</g>
			<path class="st56" d="M411.1,342.7l-77.4-45c-2.2-1.3-5.9-1.3-8.1,0l-55.9,32.3c-2.2,1.3-2.3,3.4,0,4.7l77.4,45
				c2.2,1.3,5.9,1.3,8.1,0l55.9-32.3C413.3,346.1,413.3,344,411.1,342.7"/>
			<g class="st57">
				<g>
					<defs>
						<rect id="SVGID_87_" x="268" y="332.3" width="144.8" height="54.3"/>
					</defs>
					<clipPath id="SVGID_88_">
						<use xlink:href="#SVGID_87_"  style="overflow:visible;"/>
					</clipPath>
					<path class="st58" d="M411.1,347.4l-55.9,32.3c-2.2,1.3-5.9,1.3-8.1,0l-77.4-45c-1.1-0.6-1.7-1.5-1.7-2.3l0,6
						c0,0.8,0.6,1.7,1.7,2.3l77.4,45c2.2,1.3,5.9,1.3,8.1,0l55.9-32.3c1.1-0.6,1.7-1.5,1.7-2.4l0-6
						C412.7,345.8,412.2,346.7,411.1,347.4"/>
				</g>
			</g>
			<g class="st57">
				<g>
					<defs>
						<rect id="SVGID_89_" x="278.8" y="301.7" width="66.2" height="38.1"/>
					</defs>
					<clipPath id="SVGID_90_">
						<use xlink:href="#SVGID_89_"  style="overflow:visible;"/>
					</clipPath>
					<path class="st59" d="M344.4,309.5l-12.6-7.4c-0.9-0.5-2.2-0.5-3.1,0l-49.2,28.2c-0.9,0.5-0.9,1.3,0,1.8l12.6,7.4
						c0.9,0.5,2.2,0.5,3.1,0l49.2-28.2C345.2,310.8,345.3,310,344.4,309.5"/>
				</g>
			</g>
			<g class="st57">
				<g>
					<defs>
						<rect id="SVGID_91_" x="346.1" y="316.6" width="13.9" height="8"/>
					</defs>
					<clipPath id="SVGID_92_">
						<use xlink:href="#SVGID_91_"  style="overflow:visible;"/>
					</clipPath>
					<path class="st60" d="M356.5,316.7c-0.3-0.2-0.9-0.1-1.4,0.2l-8.6,4.9c-0.5,0.3-0.6,0.6-0.3,0.8l3.4,2c0.3,0.2,0.9,0.1,1.4-0.2
						l8.6-4.9c0.5-0.3,0.6-0.6,0.3-0.8L356.5,316.7z"/>
				</g>
			</g>
			<g class="st57">
				<g>
					<defs>
						<rect id="SVGID_93_" x="355.7" y="322.3" width="16.4" height="9.5"/>
					</defs>
					<clipPath id="SVGID_94_">
						<use xlink:href="#SVGID_93_"  style="overflow:visible;"/>
					</clipPath>
					<path class="st61" d="M371.7,325.7l-5.4-3.2c-0.5-0.3-1.2-0.3-1.7,0l-8.6,4.9c-0.5,0.3-0.5,0.7,0,1l5.4,3.2
						c0.5,0.3,1.2,0.3,1.7,0l8.6-4.9C372.2,326.4,372.2,325.9,371.7,325.7"/>
				</g>
			</g>
			<g class="st57">
				<g>
					<defs>
						<rect id="SVGID_95_" x="331.9" y="324.8" width="13.9" height="8"/>
					</defs>
					<clipPath id="SVGID_96_">
						<use xlink:href="#SVGID_95_"  style="overflow:visible;"/>
					</clipPath>
					<path class="st62" d="M342.3,324.8c-0.3-0.2-0.9-0.1-1.4,0.2l-8.6,4.9c-0.5,0.3-0.6,0.6-0.3,0.8l3.4,2c0.3,0.2,0.9,0.1,1.4-0.2
						l8.6-4.9c0.5-0.3,0.6-0.6,0.3-0.8L342.3,324.8z"/>
				</g>
			</g>
			<g class="st57">
				<g>
					<defs>
						<rect id="SVGID_97_" x="341.5" y="330.4" width="16.4" height="9.5"/>
					</defs>
					<clipPath id="SVGID_98_">
						<use xlink:href="#SVGID_97_"  style="overflow:visible;"/>
					</clipPath>
					<path class="st63" d="M357.5,333.8l-5.4-3.2c-0.5-0.3-1.2-0.3-1.7,0l-8.6,4.9c-0.5,0.3-0.5,0.7,0,1l5.4,3.2
						c0.5,0.3,1.2,0.3,1.7,0l8.6-4.9C358,334.5,358,334.1,357.5,333.8"/>
				</g>
			</g>
			<g class="st57">
				<g>
					<defs>
						<rect id="SVGID_99_" x="317.7" y="332.9" width="13.9" height="8"/>
					</defs>
					<clipPath id="SVGID_100_">
						<use xlink:href="#SVGID_99_"  style="overflow:visible;"/>
					</clipPath>
					<path class="st64" d="M328.1,333c-0.3-0.2-0.9-0.1-1.4,0.2l-8.6,4.9c-0.5,0.3-0.6,0.6-0.3,0.8l3.4,2c0.3,0.2,0.9,0.1,1.4-0.2
						l8.5-4.9c0.5-0.3,0.6-0.6,0.3-0.8L328.1,333z"/>
				</g>
			</g>
			<g class="st57">
				<g>
					<defs>
						<rect id="SVGID_101_" x="327.3" y="338.5" width="16.4" height="9.5"/>
					</defs>
					<clipPath id="SVGID_102_">
						<use xlink:href="#SVGID_101_"  style="overflow:visible;"/>
					</clipPath>
					<path class="st65" d="M343.4,341.9l-5.4-3.2c-0.5-0.3-1.2-0.3-1.7,0l-8.6,4.9c-0.5,0.3-0.5,0.7,0,1l5.4,3.2
						c0.5,0.3,1.2,0.3,1.7,0l8.6-4.9C343.8,342.6,343.8,342.2,343.4,341.9"/>
				</g>
			</g>
			<g class="st57">
				<g>
					<defs>
						<rect id="SVGID_103_" x="303.5" y="341" width="13.9" height="8"/>
					</defs>
					<clipPath id="SVGID_104_">
						<use xlink:href="#SVGID_103_"  style="overflow:visible;"/>
					</clipPath>
					<path class="st66" d="M313.9,341.1c-0.3-0.2-0.9-0.1-1.4,0.2l-8.6,4.9c-0.5,0.3-0.6,0.6-0.3,0.8l3.4,2c0.3,0.2,0.9,0.1,1.4-0.2
						l8.6-4.9c0.5-0.3,0.6-0.6,0.3-0.8L313.9,341.1z"/>
				</g>
			</g>
			<g class="st57">
				<g>
					<defs>
						<rect id="SVGID_105_" x="313.1" y="346.6" width="16.4" height="9.5"/>
					</defs>
					<clipPath id="SVGID_106_">
						<use xlink:href="#SVGID_105_"  style="overflow:visible;"/>
					</clipPath>
					<path class="st67" d="M329.2,350l-5.4-3.2c-0.5-0.3-1.2-0.3-1.7,0l-8.6,4.9c-0.5,0.3-0.5,0.7,0,1l5.4,3.2
						c0.5,0.3,1.2,0.3,1.7,0l8.6-4.9C329.6,350.7,329.6,350.3,329.2,350"/>
				</g>
			</g>
			<g class="st57">
				<g>
					<defs>
						<rect id="SVGID_107_" x="366.4" y="328.5" width="16.4" height="9.5"/>
					</defs>
					<clipPath id="SVGID_108_">
						<use xlink:href="#SVGID_107_"  style="overflow:visible;"/>
					</clipPath>
					<path class="st68" d="M382.4,331.9l-5.4-3.2c-0.5-0.3-1.2-0.3-1.7,0l-8.6,4.9c-0.5,0.3-0.5,0.7,0,1l5.4,3.2
						c0.5,0.3,1.2,0.3,1.7,0l8.6-4.9C382.9,332.6,382.9,332.2,382.4,331.9"/>
				</g>
			</g>
			<g class="st57">
				<g>
					<defs>
						<rect id="SVGID_109_" x="352.2" y="336.7" width="16.4" height="9.5"/>
					</defs>
					<clipPath id="SVGID_110_">
						<use xlink:href="#SVGID_109_"  style="overflow:visible;"/>
					</clipPath>
					<path class="st69" d="M368.2,340.1l-5.4-3.2c-0.5-0.3-1.2-0.3-1.7,0l-8.6,4.9c-0.5,0.3-0.5,0.7,0,1l5.4,3.2
						c0.5,0.3,1.2,0.3,1.7,0l8.6-4.9C368.7,340.8,368.7,340.3,368.2,340.1"/>
				</g>
			</g>
			<g class="st57">
				<g>
					<defs>
						<rect id="SVGID_111_" x="338" y="344.8" width="16.4" height="9.5"/>
					</defs>
					<clipPath id="SVGID_112_">
						<use xlink:href="#SVGID_111_"  style="overflow:visible;"/>
					</clipPath>
					<path class="st70" d="M354,348.2l-5.4-3.2c-0.5-0.3-1.2-0.3-1.7,0l-8.6,4.9c-0.5,0.3-0.5,0.7,0,1l5.4,3.2
						c0.5,0.3,1.2,0.3,1.7,0l8.6-4.9C354.5,348.9,354.5,348.4,354,348.2"/>
				</g>
			</g>
			<g class="st57">
				<g>
					<defs>
						<rect id="SVGID_113_" x="323.8" y="352.9" width="16.4" height="9.5"/>
					</defs>
					<clipPath id="SVGID_114_">
						<use xlink:href="#SVGID_113_"  style="overflow:visible;"/>
					</clipPath>
					<path class="st71" d="M339.8,356.3l-5.4-3.2c-0.5-0.3-1.2-0.3-1.7,0l-8.6,4.9c-0.5,0.3-0.5,0.7,0,1l5.4,3.2
						c0.5,0.3,1.2,0.3,1.7,0l8.6-4.9C340.3,357,340.3,356.6,339.8,356.3"/>
				</g>
			</g>
			<g class="st57">
				<g>
					<defs>
						<rect id="SVGID_115_" x="376.4" y="334.4" width="26.5" height="15.4"/>
					</defs>
					<clipPath id="SVGID_116_">
						<use xlink:href="#SVGID_115_"  style="overflow:visible;"/>
					</clipPath>
					<path class="st72" d="M402.6,343.8l-2.7-1.6l-7.4-4.4l-5.4-3.2c-0.5-0.3-1.2-0.3-1.7,0l-8.6,4.9c-0.5,0.3-0.5,0.7,0,1l2.7,1.6
						l10.2,6l2.7,1.6c0.5,0.3,1.2,0.3,1.7,0l8.6-4.9C403.1,344.5,403.1,344.1,402.6,343.8"/>
				</g>
			</g>
			<g class="st57">
				<g>
					<defs>
						<rect id="SVGID_117_" x="362.2" y="342.5" width="16.4" height="9.5"/>
					</defs>
					<clipPath id="SVGID_118_">
						<use xlink:href="#SVGID_117_"  style="overflow:visible;"/>
					</clipPath>
					<path class="st73" d="M378.3,345.9l-5.4-3.2c-0.5-0.3-1.2-0.3-1.7,0l-8.6,4.9c-0.5,0.3-0.5,0.7,0,1l5.4,3.2
						c0.5,0.3,1.2,0.3,1.7,0l8.6-4.9C378.7,346.7,378.7,346.2,378.3,345.9"/>
				</g>
			</g>
			<g class="st57">
				<g>
					<defs>
						<rect id="SVGID_119_" x="348" y="350.7" width="16.4" height="9.5"/>
					</defs>
					<clipPath id="SVGID_120_">
						<use xlink:href="#SVGID_119_"  style="overflow:visible;"/>
					</clipPath>
					<path class="st74" d="M364.1,354.1l-5.4-3.2c-0.5-0.3-1.2-0.3-1.7,0l-8.6,4.9c-0.5,0.3-0.5,0.7,0,1l5.4,3.2
						c0.5,0.3,1.2,0.3,1.7,0l8.6-4.9C364.5,354.8,364.5,354.3,364.1,354.1"/>
				</g>
			</g>
			<g class="st57">
				<g>
					<defs>
						<rect id="SVGID_121_" x="333.8" y="358.8" width="16.4" height="9.5"/>
					</defs>
					<clipPath id="SVGID_122_">
						<use xlink:href="#SVGID_121_"  style="overflow:visible;"/>
					</clipPath>
					<path class="st75" d="M349.9,362.2l-5.4-3.2c-0.5-0.3-1.2-0.3-1.7,0l-8.6,4.9c-0.5,0.3-0.5,0.7,0,1l5.4,3.2
						c0.5,0.3,1.2,0.3,1.7,0l8.5-4.9C350.4,362.9,350.4,362.5,349.9,362.2"/>
				</g>
			</g>
			<g class="st57">
				<g>
					<defs>
						<rect id="SVGID_123_" x="372.4" y="348.5" width="16.4" height="9.5"/>
					</defs>
					<clipPath id="SVGID_124_">
						<use xlink:href="#SVGID_123_"  style="overflow:visible;"/>
					</clipPath>
					<path class="st76" d="M388.4,351.9l-5.4-3.2c-0.5-0.3-1.2-0.3-1.7,0l-8.6,4.9c-0.5,0.3-0.5,0.7,0,1l5.4,3.2
						c0.5,0.3,1.2,0.3,1.7,0l8.6-4.9C388.9,352.6,388.9,352.2,388.4,351.9"/>
				</g>
			</g>
			<g class="st57">
				<g>
					<defs>
						<rect id="SVGID_125_" x="358.2" y="356.6" width="16.4" height="9.5"/>
					</defs>
					<clipPath id="SVGID_126_">
						<use xlink:href="#SVGID_125_"  style="overflow:visible;"/>
					</clipPath>
					<path class="st77" d="M374.2,360l-5.4-3.2c-0.5-0.3-1.2-0.3-1.7,0l-8.6,4.9c-0.5,0.3-0.5,0.7,0,1l5.4,3.2
						c0.5,0.3,1.2,0.3,1.7,0l8.6-4.9C374.7,360.7,374.7,360.3,374.2,360"/>
				</g>
			</g>
			<g class="st57">
				<g>
					<defs>
						<rect id="SVGID_127_" x="344" y="364.7" width="16.4" height="9.5"/>
					</defs>
					<clipPath id="SVGID_128_">
						<use xlink:href="#SVGID_127_"  style="overflow:visible;"/>
					</clipPath>
					<path class="st78" d="M360,368.1l-5.4-3.2c-0.5-0.3-1.2-0.3-1.7,0l-8.6,4.9c-0.5,0.3-0.5,0.7,0,1l5.4,3.2
						c0.5,0.3,1.2,0.3,1.7,0l8.6-4.9C360.5,368.8,360.5,368.4,360,368.1"/>
				</g>
			</g>
			<g class="st57">
				<g>
					<defs>
						<rect id="SVGID_129_" x="346.1" y="318.9" width="13.9" height="6.4"/>
					</defs>
					<clipPath id="SVGID_130_">
						<use xlink:href="#SVGID_129_"  style="overflow:visible;"/>
					</clipPath>
					<path class="st79" d="M359.5,319.5l-8.6,4.9c-0.5,0.3-1.1,0.3-1.4,0.2l-3.4-2c-0.1-0.1-0.1-0.1-0.1-0.2l0,0.6
						c0,0.1,0,0.2,0.1,0.2l3.4,2c0.3,0.2,0.9,0.1,1.4-0.2l8.6-4.9c0.3-0.2,0.5-0.4,0.5-0.6l0-0.6C360,319.1,359.8,319.3,359.5,319.5
						"/>
				</g>
			</g>
			<g class="st57">
				<g>
					<defs>
						<rect id="SVGID_131_" x="355.7" y="326.2" width="16.4" height="6.2"/>
					</defs>
					<clipPath id="SVGID_132_">
						<use xlink:href="#SVGID_131_"  style="overflow:visible;"/>
					</clipPath>
					<path class="st80" d="M371.7,326.6l-8.6,4.9c-0.5,0.3-1.2,0.3-1.7,0l-5.4-3.2c-0.2-0.1-0.3-0.3-0.3-0.5l0,0.6
						c0,0.2,0.1,0.4,0.3,0.5l5.4,3.2c0.5,0.3,1.2,0.3,1.7,0l8.6-4.9c0.2-0.1,0.4-0.3,0.4-0.5l0-0.6
						C372.1,326.3,372,326.5,371.7,326.6"/>
				</g>
			</g>
			<g class="st57">
				<g>
					<defs>
						<rect id="SVGID_133_" x="331.9" y="327" width="13.9" height="6.4"/>
					</defs>
					<clipPath id="SVGID_134_">
						<use xlink:href="#SVGID_133_"  style="overflow:visible;"/>
					</clipPath>
					<path class="st81" d="M345.3,327.6l-8.6,4.9c-0.5,0.3-1.1,0.3-1.4,0.2l-3.4-2c-0.1-0.1-0.1-0.1-0.1-0.2l0,0.6
						c0,0.1,0,0.2,0.1,0.2l3.4,2c0.3,0.2,0.9,0.1,1.4-0.2l8.6-4.9c0.3-0.2,0.5-0.4,0.5-0.6l0-0.6
						C345.8,327.2,345.6,327.4,345.3,327.6"/>
				</g>
			</g>
			<g class="st57">
				<g>
					<defs>
						<rect id="SVGID_135_" x="341.5" y="334.3" width="16.4" height="6.2"/>
					</defs>
					<clipPath id="SVGID_136_">
						<use xlink:href="#SVGID_135_"  style="overflow:visible;"/>
					</clipPath>
					<path class="st82" d="M357.5,334.8l-8.6,4.9c-0.5,0.3-1.2,0.3-1.7,0l-5.4-3.2c-0.2-0.1-0.3-0.3-0.3-0.5l0,0.6
						c0,0.2,0.1,0.3,0.3,0.5l5.4,3.2c0.5,0.3,1.2,0.3,1.7,0l8.6-4.9c0.2-0.1,0.4-0.3,0.4-0.5l0-0.6
						C357.9,334.5,357.8,334.6,357.5,334.8"/>
				</g>
			</g>
			<g class="st57">
				<g>
					<defs>
						<rect id="SVGID_137_" x="317.7" y="335.2" width="13.9" height="6.4"/>
					</defs>
					<clipPath id="SVGID_138_">
						<use xlink:href="#SVGID_137_"  style="overflow:visible;"/>
					</clipPath>
					<path class="st83" d="M331.1,335.7l-8.6,4.9c-0.5,0.3-1.1,0.4-1.4,0.2l-3.4-2c-0.1-0.1-0.1-0.1-0.1-0.2l0,0.6
						c0,0.1,0,0.2,0.1,0.2l3.4,2c0.3,0.2,0.9,0.1,1.4-0.2l8.6-4.9c0.3-0.2,0.5-0.4,0.5-0.6l0-0.6
						C331.6,335.3,331.5,335.5,331.1,335.7"/>
				</g>
			</g>
			<g class="st57">
				<g>
					<defs>
						<rect id="SVGID_139_" x="327.3" y="342.4" width="16.4" height="6.2"/>
					</defs>
					<clipPath id="SVGID_140_">
						<use xlink:href="#SVGID_139_"  style="overflow:visible;"/>
					</clipPath>
					<path class="st84" d="M343.3,342.9l-8.6,4.9c-0.5,0.3-1.2,0.3-1.7,0l-5.4-3.2c-0.2-0.1-0.3-0.3-0.3-0.5l0,0.6
						c0,0.2,0.1,0.4,0.3,0.5l5.4,3.2c0.5,0.3,1.2,0.3,1.7,0l8.6-4.9c0.2-0.1,0.4-0.3,0.4-0.5l0-0.6
						C343.7,342.6,343.6,342.7,343.3,342.9"/>
				</g>
			</g>
			<g class="st57">
				<g>
					<defs>
						<rect id="SVGID_141_" x="303.5" y="343.3" width="13.9" height="6.4"/>
					</defs>
					<clipPath id="SVGID_142_">
						<use xlink:href="#SVGID_141_"  style="overflow:visible;"/>
					</clipPath>
					<path class="st85" d="M317,343.8l-8.6,4.9c-0.5,0.3-1.1,0.4-1.4,0.2l-3.4-2c-0.1-0.1-0.1-0.1-0.1-0.2l0,0.6
						c0,0.1,0,0.2,0.1,0.2l3.4,2c0.3,0.2,0.9,0.1,1.4-0.2l8.6-4.9c0.3-0.2,0.5-0.4,0.5-0.6l0-0.6C317.4,343.5,317.3,343.7,317,343.8
						"/>
				</g>
			</g>
			<g class="st57">
				<g>
					<defs>
						<rect id="SVGID_143_" x="313.1" y="350.5" width="16.4" height="6.2"/>
					</defs>
					<clipPath id="SVGID_144_">
						<use xlink:href="#SVGID_143_"  style="overflow:visible;"/>
					</clipPath>
					<path class="st86" d="M329.2,351l-8.6,4.9c-0.5,0.3-1.2,0.3-1.7,0l-5.4-3.2c-0.2-0.1-0.3-0.3-0.3-0.5l0,0.6
						c0,0.2,0.1,0.4,0.3,0.5l5.4,3.2c0.5,0.3,1.2,0.3,1.7,0l8.6-4.9c0.2-0.1,0.4-0.3,0.4-0.5l0-0.6
						C329.5,350.7,329.4,350.9,329.2,351"/>
				</g>
			</g>
			<g class="st57">
				<g>
					<defs>
						<rect id="SVGID_145_" x="366.4" y="332.4" width="16.4" height="6.2"/>
					</defs>
					<clipPath id="SVGID_146_">
						<use xlink:href="#SVGID_145_"  style="overflow:visible;"/>
					</clipPath>
					<path class="st87" d="M382.4,332.9l-8.6,4.9c-0.5,0.3-1.2,0.3-1.7,0l-5.4-3.2c-0.2-0.1-0.3-0.3-0.3-0.5l0,0.6
						c0,0.2,0.1,0.3,0.3,0.5l5.4,3.2c0.5,0.3,1.2,0.3,1.7,0l8.6-4.9c0.2-0.1,0.4-0.3,0.4-0.5l0-0.6
						C382.8,332.6,382.6,332.8,382.4,332.9"/>
				</g>
			</g>
			<g class="st57">
				<g>
					<defs>
						<rect id="SVGID_147_" x="352.2" y="340.5" width="16.4" height="6.2"/>
					</defs>
					<clipPath id="SVGID_148_">
						<use xlink:href="#SVGID_147_"  style="overflow:visible;"/>
					</clipPath>
					<path class="st88" d="M368.2,341l-8.6,4.9c-0.5,0.3-1.2,0.3-1.7,0l-5.4-3.2c-0.2-0.1-0.3-0.3-0.3-0.5l0,0.6
						c0,0.2,0.1,0.4,0.3,0.5l5.4,3.2c0.5,0.3,1.2,0.3,1.7,0l8.6-4.9c0.2-0.1,0.4-0.3,0.4-0.5l0-0.6
						C368.6,340.7,368.5,340.9,368.2,341"/>
				</g>
			</g>
			<g class="st57">
				<g>
					<defs>
						<rect id="SVGID_149_" x="338" y="348.7" width="16.4" height="6.2"/>
					</defs>
					<clipPath id="SVGID_150_">
						<use xlink:href="#SVGID_149_"  style="overflow:visible;"/>
					</clipPath>
					<path class="st89" d="M354,349.1l-8.6,4.9c-0.5,0.3-1.2,0.3-1.7,0l-5.4-3.2c-0.2-0.1-0.3-0.3-0.3-0.5l0,0.6
						c0,0.2,0.1,0.3,0.3,0.5l5.4,3.2c0.5,0.3,1.2,0.3,1.7,0l8.6-4.9c0.2-0.1,0.4-0.3,0.4-0.5l0-0.6C354.4,348.8,354.3,349,354,349.1
						"/>
				</g>
			</g>
			<g class="st57">
				<g>
					<defs>
						<rect id="SVGID_151_" x="323.8" y="356.8" width="16.4" height="6.2"/>
					</defs>
					<clipPath id="SVGID_152_">
						<use xlink:href="#SVGID_151_"  style="overflow:visible;"/>
					</clipPath>
					<path class="st90" d="M339.8,357.3l-8.6,4.9c-0.5,0.3-1.2,0.3-1.7,0l-5.4-3.2c-0.2-0.1-0.3-0.3-0.3-0.5l0,0.6
						c0,0.2,0.1,0.3,0.3,0.5l5.4,3.2c0.5,0.3,1.2,0.3,1.7,0l8.6-4.9c0.2-0.1,0.4-0.3,0.4-0.5l0-0.6
						C340.2,356.9,340.1,357.1,339.8,357.3"/>
				</g>
			</g>
			<g class="st57">
				<g>
					<defs>
						<rect id="SVGID_153_" x="376.4" y="340" width="26.5" height="10.5"/>
					</defs>
					<clipPath id="SVGID_154_">
						<use xlink:href="#SVGID_153_"  style="overflow:visible;"/>
					</clipPath>
					<path class="st91" d="M402.6,344.8l-8.6,4.9c-0.5,0.3-1.2,0.3-1.7,0l-2.7-1.6l-10.2-6l-2.7-1.6c-0.2-0.1-0.3-0.3-0.3-0.5l0,0.6
						c0,0.2,0.1,0.4,0.3,0.5l2.7,1.6l10.2,6l2.7,1.6c0.5,0.3,1.2,0.3,1.7,0l8.6-4.9c0.2-0.1,0.4-0.3,0.4-0.5l0-0.6
						C403,344.4,402.8,344.6,402.6,344.8"/>
				</g>
			</g>
			<g class="st57">
				<g>
					<defs>
						<rect id="SVGID_155_" x="362.2" y="346.4" width="16.4" height="6.2"/>
					</defs>
					<clipPath id="SVGID_156_">
						<use xlink:href="#SVGID_155_"  style="overflow:visible;"/>
					</clipPath>
					<path class="st92" d="M378.3,346.9l-8.6,4.9c-0.5,0.3-1.2,0.3-1.7,0l-5.4-3.2c-0.2-0.1-0.3-0.3-0.3-0.5l0,0.6
						c0,0.2,0.1,0.3,0.3,0.5l5.4,3.2c0.5,0.3,1.2,0.3,1.7,0l8.6-4.9c0.2-0.1,0.4-0.3,0.4-0.5l0-0.6
						C378.6,346.6,378.5,346.8,378.3,346.9"/>
				</g>
			</g>
			<g class="st57">
				<g>
					<defs>
						<rect id="SVGID_157_" x="348" y="354.5" width="16.4" height="6.2"/>
					</defs>
					<clipPath id="SVGID_158_">
						<use xlink:href="#SVGID_157_"  style="overflow:visible;"/>
					</clipPath>
					<path class="st93" d="M364.1,355l-8.6,4.9c-0.5,0.3-1.2,0.3-1.7,0l-5.4-3.2c-0.2-0.1-0.3-0.3-0.3-0.5l0,0.6
						c0,0.2,0.1,0.3,0.3,0.5l5.4,3.2c0.5,0.3,1.2,0.3,1.7,0l8.6-4.9c0.2-0.1,0.4-0.3,0.4-0.5l0-0.6
						C364.4,354.7,364.3,354.9,364.1,355"/>
				</g>
			</g>
			<g class="st57">
				<g>
					<defs>
						<rect id="SVGID_159_" x="333.8" y="362.7" width="16.4" height="6.2"/>
					</defs>
					<clipPath id="SVGID_160_">
						<use xlink:href="#SVGID_159_"  style="overflow:visible;"/>
					</clipPath>
					<path class="st94" d="M349.9,363.2l-8.6,4.9c-0.5,0.3-1.2,0.3-1.7,0l-5.4-3.2c-0.2-0.1-0.3-0.3-0.3-0.5l0,0.6
						c0,0.2,0.1,0.3,0.3,0.5l5.4,3.2c0.5,0.3,1.2,0.3,1.7,0l8.6-4.9c0.2-0.1,0.4-0.3,0.4-0.5l0-0.6
						C350.2,362.8,350.1,363,349.9,363.2"/>
				</g>
			</g>
			<g class="st57">
				<g>
					<defs>
						<rect id="SVGID_161_" x="372.4" y="352.4" width="16.4" height="6.2"/>
					</defs>
					<clipPath id="SVGID_162_">
						<use xlink:href="#SVGID_161_"  style="overflow:visible;"/>
					</clipPath>
					<path class="st95" d="M388.4,352.9l-8.6,4.9c-0.5,0.3-1.2,0.3-1.7,0l-5.4-3.2c-0.2-0.1-0.3-0.3-0.3-0.5l0,0.6
						c0,0.2,0.1,0.3,0.3,0.5l5.4,3.2c0.5,0.3,1.2,0.3,1.7,0l8.6-4.9c0.2-0.1,0.4-0.3,0.4-0.5l0-0.6
						C388.8,352.6,388.6,352.7,388.4,352.9"/>
				</g>
			</g>
			<g class="st57">
				<g>
					<defs>
						<rect id="SVGID_163_" x="358.2" y="360.5" width="16.4" height="6.2"/>
					</defs>
					<clipPath id="SVGID_164_">
						<use xlink:href="#SVGID_163_"  style="overflow:visible;"/>
					</clipPath>
					<path class="st96" d="M374.2,361l-8.6,4.9c-0.5,0.3-1.2,0.3-1.7,0l-5.4-3.2c-0.2-0.1-0.3-0.3-0.3-0.5l0,0.6
						c0,0.2,0.1,0.4,0.3,0.5l5.4,3.2c0.5,0.3,1.2,0.3,1.7,0l8.6-4.9c0.2-0.1,0.4-0.3,0.4-0.5l0-0.6
						C374.6,360.7,374.5,360.9,374.2,361"/>
				</g>
			</g>
			<g class="st57">
				<g>
					<defs>
						<rect id="SVGID_165_" x="344" y="368.6" width="16.4" height="6.2"/>
					</defs>
					<clipPath id="SVGID_166_">
						<use xlink:href="#SVGID_165_"  style="overflow:visible;"/>
					</clipPath>
					<path class="st97" d="M360,369.1l-8.6,4.9c-0.5,0.3-1.2,0.3-1.7,0l-5.4-3.2c-0.2-0.1-0.3-0.3-0.3-0.5l0,0.6
						c0,0.2,0.1,0.4,0.3,0.5l5.4,3.2c0.5,0.3,1.2,0.3,1.7,0l8.6-4.9c0.2-0.1,0.4-0.3,0.4-0.5l0-0.6C360.4,368.8,360.3,369,360,369.1
						"/>
				</g>
			</g>
			<g class="st57">
				<g>
					<defs>
						<rect id="SVGID_167_" x="319.5" y="312.3" width="3.5" height="2"/>
					</defs>
					<clipPath id="SVGID_168_">
						<use xlink:href="#SVGID_167_"  style="overflow:visible;"/>
					</clipPath>
					<path class="st98" d="M320.2,312.3c-0.1,0-0.3,0-0.7,0c0,0.2,0,0.3,0,0.4l2.8,1.6c0.1,0,0.3,0,0.7,0c0-0.2,0-0.3,0-0.4
						L320.2,312.3z"/>
				</g>
			</g>
			<g class="st57">
				<g>
					<defs>
						<rect id="SVGID_169_" x="317.1" y="313.7" width="3.5" height="2"/>
					</defs>
					<clipPath id="SVGID_170_">
						<use xlink:href="#SVGID_169_"  style="overflow:visible;"/>
					</clipPath>
					<path class="st99" d="M317.8,313.7c-0.1,0-0.3,0-0.7,0c0,0.2,0,0.3,0,0.4l2.8,1.6c0.1,0,0.3,0,0.7,0c0-0.2,0-0.3,0-0.4
						L317.8,313.7z"/>
				</g>
			</g>
			<g class="st57">
				<g>
					<defs>
						<rect id="SVGID_171_" x="313.3" y="313.5" width="3.5" height="2"/>
					</defs>
					<clipPath id="SVGID_172_">
						<use xlink:href="#SVGID_171_"  style="overflow:visible;"/>
					</clipPath>
					<path class="st100" d="M313.3,315.1c0,0.1,0,0.2,0,0.4c0.3,0,0.6,0,0.7,0l2.8-1.6c0-0.1,0-0.2,0-0.4c-0.3,0-0.6,0-0.7,0
						L313.3,315.1z"/>
				</g>
			</g>
			<g class="st57">
				<g>
					<defs>
						<rect id="SVGID_173_" x="313.6" y="315.7" width="3.5" height="2"/>
					</defs>
					<clipPath id="SVGID_174_">
						<use xlink:href="#SVGID_173_"  style="overflow:visible;"/>
					</clipPath>
					<path class="st101" d="M314.3,315.7c-0.1,0-0.3,0-0.7,0c0,0.2,0,0.3,0,0.4l2.8,1.6c0.1,0,0.3,0,0.7,0c0-0.2,0-0.3,0-0.4
						L314.3,315.7z"/>
				</g>
			</g>
			<g class="st57">
				<g>
					<defs>
						<rect id="SVGID_175_" x="311.1" y="316.4" width="4.1" height="2.4"/>
					</defs>
					<clipPath id="SVGID_176_">
						<use xlink:href="#SVGID_175_"  style="overflow:visible;"/>
					</clipPath>
					<path class="st102" d="M311.8,316.5c-0.1,0-0.3,0-0.7,0c0,0.2,0,0.3,0,0.4l3.4,2c0.1,0,0.3,0,0.7,0c0-0.2,0-0.3,0-0.4
						L311.8,316.5z"/>
				</g>
			</g>
			<g class="st57">
				<g>
					<defs>
						<rect id="SVGID_177_" x="317.8" y="318.1" width="3.5" height="2"/>
					</defs>
					<clipPath id="SVGID_178_">
						<use xlink:href="#SVGID_177_"  style="overflow:visible;"/>
					</clipPath>
					<path class="st103" d="M318.4,318.1c-0.1,0-0.3,0-0.7,0c0,0.2,0,0.3,0,0.4l2.8,1.6c0.1,0,0.3,0,0.7,0c0-0.2,0-0.3,0-0.4
						L318.4,318.1z"/>
				</g>
			</g>
			<g class="st57">
				<g>
					<defs>
						<rect id="SVGID_179_" x="315.9" y="319.2" width="4.1" height="2.4"/>
					</defs>
					<clipPath id="SVGID_180_">
						<use xlink:href="#SVGID_179_"  style="overflow:visible;"/>
					</clipPath>
					<path class="st104" d="M316.5,319.2c-0.4,0-0.7,0-0.7,0c0,0,0,0.1,0,0.4l3.4,2c0.1,0,0.3,0,0.7,0c0-0.2,0-0.3,0-0.4
						L316.5,319.2z"/>
				</g>
			</g>
			<g class="st57">
				<g>
					<defs>
						<rect id="SVGID_181_" x="321.6" y="318.3" width="3.5" height="2"/>
					</defs>
					<clipPath id="SVGID_182_">
						<use xlink:href="#SVGID_181_"  style="overflow:visible;"/>
					</clipPath>
					<path class="st105" d="M321.6,319.9c0,0.1,0,0.2,0,0.4c0.4,0,0.6,0,0.7,0l2.8-1.6c0-0.1,0-0.2,0-0.4c-0.3,0-0.6,0-0.7,0
						L321.6,319.9z"/>
				</g>
			</g>
			<g class="st57">
				<g>
					<defs>
						<rect id="SVGID_183_" x="321.2" y="316.1" width="3.5" height="2"/>
					</defs>
					<clipPath id="SVGID_184_">
						<use xlink:href="#SVGID_183_"  style="overflow:visible;"/>
					</clipPath>
					<path class="st106" d="M321.9,316.1c-0.1,0-0.3,0-0.7,0c0,0.2,0,0.3,0,0.4l2.8,1.6c0.1,0,0.3,0,0.7,0c0-0.2,0-0.3,0-0.4
						L321.9,316.1z"/>
				</g>
			</g>
			<g class="st57">
				<g>
					<defs>
						<rect id="SVGID_185_" x="323" y="310.3" width="3.5" height="2"/>
					</defs>
					<clipPath id="SVGID_186_">
						<use xlink:href="#SVGID_185_"  style="overflow:visible;"/>
					</clipPath>
					<path class="st107" d="M323.7,310.3c-0.1,0-0.3,0-0.7,0c0,0.2,0,0.3,0,0.4l2.8,1.6c0.1,0,0.3,0,0.7,0c0-0.2,0-0.3,0-0.4
						L323.7,310.3z"/>
				</g>
			</g>
			<g class="st57">
				<g>
					<defs>
						<rect id="SVGID_187_" x="323.7" y="314.7" width="3.5" height="2"/>
					</defs>
					<clipPath id="SVGID_188_">
						<use xlink:href="#SVGID_187_"  style="overflow:visible;"/>
					</clipPath>
					<path class="st108" d="M324.3,314.7c-0.1,0-0.3,0-0.7,0c0,0.2,0,0.3,0,0.4l2.8,1.6c0.1,0,0.3,0,0.7,0c0-0.2,0-0.3,0-0.4
						L324.3,314.7z"/>
				</g>
			</g>
			<g class="st57">
				<g>
					<defs>
						<rect id="SVGID_189_" x="327.5" y="314.9" width="3.5" height="2"/>
					</defs>
					<clipPath id="SVGID_190_">
						<use xlink:href="#SVGID_189_"  style="overflow:visible;"/>
					</clipPath>
					<path class="st109" d="M327.5,316.5c0,0.1,0,0.2,0,0.4c0.4,0,0.6,0,0.7,0l2.8-1.6c0-0.1,0-0.2,0-0.4c-0.3,0-0.6,0-0.7,0
						L327.5,316.5z"/>
				</g>
			</g>
			<g class="st57">
				<g>
					<defs>
						<rect id="SVGID_191_" x="327.1" y="312.7" width="3.5" height="2"/>
					</defs>
					<clipPath id="SVGID_192_">
						<use xlink:href="#SVGID_191_"  style="overflow:visible;"/>
					</clipPath>
					<path class="st110" d="M327.8,312.7c-0.1,0-0.3,0-0.7,0c0,0.2,0,0.3,0,0.4l2.8,1.6c0.1,0,0.3,0,0.7,0c0-0.2,0-0.3,0-0.4
						L327.8,312.7z"/>
				</g>
			</g>
			<g class="st57">
				<g>
					<defs>
						<rect id="SVGID_193_" x="319.2" y="310.1" width="3.5" height="2"/>
					</defs>
					<clipPath id="SVGID_194_">
						<use xlink:href="#SVGID_193_"  style="overflow:visible;"/>
					</clipPath>
					<path class="st111" d="M319.3,311.7c0,0.1,0,0.2,0,0.4c0.4,0,0.6,0,0.7,0l2.8-1.6c0-0.1,0-0.2,0-0.4c-0.3,0-0.6,0-0.7,0
						L319.3,311.7z"/>
				</g>
			</g>
			<g class="st57">
				<g>
					<defs>
						<rect id="SVGID_195_" x="328.9" y="306.9" width="3.5" height="2"/>
					</defs>
					<clipPath id="SVGID_196_">
						<use xlink:href="#SVGID_195_"  style="overflow:visible;"/>
					</clipPath>
					<path class="st112" d="M329.6,306.9c-0.1,0-0.3,0-0.7,0c0,0.2,0,0.3,0,0.4l2.8,1.6c0.1,0,0.3,0,0.7,0c0-0.2,0-0.3,0-0.4
						L329.6,306.9z"/>
				</g>
			</g>
			<g class="st57">
				<g>
					<defs>
						<rect id="SVGID_197_" x="329.6" y="311.3" width="3.5" height="2"/>
					</defs>
					<clipPath id="SVGID_198_">
						<use xlink:href="#SVGID_197_"  style="overflow:visible;"/>
					</clipPath>
					<path class="st113" d="M330.2,311.3c-0.1,0-0.3,0-0.7,0c0,0.2,0,0.3,0,0.4l2.8,1.6c0.1,0,0.3,0,0.7,0c0-0.2,0-0.3,0-0.4
						L330.2,311.3z"/>
				</g>
			</g>
			<g class="st57">
				<g>
					<defs>
						<rect id="SVGID_199_" x="333.1" y="309.3" width="3.5" height="2"/>
					</defs>
					<clipPath id="SVGID_200_">
						<use xlink:href="#SVGID_199_"  style="overflow:visible;"/>
					</clipPath>
					<path class="st114" d="M333.7,309.3c-0.1,0-0.3,0-0.7,0c0,0.2,0,0.3,0,0.4l2.8,1.6c0.1,0,0.3,0,0.7,0c0-0.2,0-0.3,0-0.4
						L333.7,309.3z"/>
				</g>
			</g>
			<g class="st57">
				<g>
					<defs>
						<rect id="SVGID_201_" x="333.4" y="311.5" width="3.5" height="2"/>
					</defs>
					<clipPath id="SVGID_202_">
						<use xlink:href="#SVGID_201_"  style="overflow:visible;"/>
					</clipPath>
					<path class="st115" d="M333.4,313.1c0,0.1,0,0.2,0,0.4c0.4,0,0.6,0,0.7,0l2.8-1.6c0-0.1,0-0.2,0-0.4c-0.3,0-0.6,0-0.7,0
						L333.4,313.1z"/>
				</g>
			</g>
			<g class="st57">
				<g>
					<defs>
						<rect id="SVGID_203_" x="325.1" y="306.7" width="3.5" height="2"/>
					</defs>
					<clipPath id="SVGID_204_">
						<use xlink:href="#SVGID_203_"  style="overflow:visible;"/>
					</clipPath>
					<path class="st116" d="M325.2,308.3c0,0.1,0,0.2,0,0.4c0.3,0,0.6,0,0.7,0l2.8-1.6c0-0.1,0-0.2,0-0.4c-0.3,0-0.6,0-0.7,0
						L325.2,308.3z"/>
				</g>
			</g>
			<g class="st57">
				<g>
					<defs>
						<rect id="SVGID_205_" x="325.4" y="308.9" width="3.5" height="2"/>
					</defs>
					<clipPath id="SVGID_206_">
						<use xlink:href="#SVGID_205_"  style="overflow:visible;"/>
					</clipPath>
					<path class="st117" d="M326.1,308.9c-0.1,0-0.3,0-0.7,0c0,0.2,0,0.3,0,0.4l2.8,1.6c0.1,0,0.3,0,0.7,0c0-0.2,0-0.3,0-0.4
						L326.1,308.9z"/>
				</g>
			</g>
		</g>
	</g>
	<g class="st118">
		<g>
			<defs>
				<rect id="SVGID_207_" x="278.5" y="301.7" width="66.2" height="30.3"/>
			</defs>
			<clipPath id="SVGID_208_">
				<use xlink:href="#SVGID_207_"  style="overflow:visible;"/>
			</clipPath>
			<path class="st119" d="M344.1,309.5l-12.6-7.4c-0.9-0.5-2.2-0.5-3.1,0l-49.2,28.2c-0.9,0.5-0.9,1.3,0,1.8l64.9-20.7
				C345,310.8,345,310,344.1,309.5"/>
		</g>
	</g>
	<g>
		<g>
			<defs>
				<rect id="SVGID_209_" x="297.4" y="251.7" width="27.1" height="18.5"/>
			</defs>
			<clipPath id="SVGID_210_">
				<use xlink:href="#SVGID_209_"  style="overflow:visible;"/>
			</clipPath>
			<g class="st120">
				<g>
					<defs>
						<rect id="SVGID_211_" x="297.4" y="251.7" width="27.1" height="18.5"/>
					</defs>
					<clipPath id="SVGID_212_">
						<use xlink:href="#SVGID_211_"  style="overflow:visible;"/>
					</clipPath>
					<g class="st121">
						<g>
							<defs>
								<rect id="SVGID_213_" x="297.4" y="254.6" width="27.1" height="15.7"/>
							</defs>
							<clipPath id="SVGID_214_">
								<use xlink:href="#SVGID_213_"  style="overflow:visible;"/>
							</clipPath>
							<path class="st122" d="M320.5,256.9c-2.5-1.4-5.9-2.3-9.6-2.3c-7.5,0-13.5,3.5-13.5,7.9c0,2.2,1.5,4.1,4,5.6
								c2.5,1.4,5.9,2.3,9.6,2.3c7.5,0,13.5-3.5,13.5-7.9C324.5,260.2,323,258.3,320.5,256.9 M311,268.7c-3,0-5.7-0.7-7.6-1.8
								c-2-1.1-3.2-2.7-3.2-4.4c0-3.4,4.8-6.2,10.7-6.2c3,0,5.7,0.7,7.6,1.8c2,1.1,3.2,2.7,3.2,4.4
								C321.7,265.9,316.9,268.7,311,268.7"/>
						</g>
					</g>
					<path class="st123" d="M318.5,255.2c-2-1.1-4.7-1.8-7.6-1.8c-6,0-10.8,2.8-10.7,6.2c0,1.7,1.2,3.3,3.2,4.4
						c2,1.1,4.7,1.8,7.6,1.8c6,0,10.8-2.8,10.7-6.2C321.7,257.9,320.5,256.3,318.5,255.2"/>
					<g class="st124">
						<g>
							<defs>
								<rect id="SVGID_215_" x="300.2" y="259.6" width="21.6" height="8.2"/>
							</defs>
							<clipPath id="SVGID_216_">
								<use xlink:href="#SVGID_215_"  style="overflow:visible;"/>
							</clipPath>
							<path class="st125" d="M311,265.8c-3,0-5.7-0.7-7.6-1.8c-2-1.1-3.2-2.7-3.2-4.4l0,2c0,1.7,1.2,3.3,3.2,4.4
								c2,1.1,4.7,1.8,7.6,1.8c5.9,0,10.8-2.8,10.7-6.2l0-2C321.7,263,316.9,265.8,311,265.8"/>
						</g>
					</g>
					<g class="st124">
						<g>
							<defs>
								<rect id="SVGID_217_" x="297.4" y="259.6" width="27.1" height="9.8"/>
							</defs>
							<clipPath id="SVGID_218_">
								<use xlink:href="#SVGID_217_"  style="overflow:visible;"/>
							</clipPath>
							<path class="st126" d="M311,267.4c-3.7,0-7.1-0.9-9.6-2.3c-2.5-1.4-4-3.4-4-5.6l0,2c0,2.2,1.5,4.1,4,5.6
								c2.5,1.4,5.9,2.3,9.6,2.3c7.5,0,13.5-3.5,13.5-7.9l0-2C324.5,263.9,318.5,267.4,311,267.4"/>
						</g>
					</g>
					<path class="st127" d="M320.5,254c-2.5-1.4-5.9-2.3-9.6-2.3c-7.5,0-13.5,3.5-13.5,7.9c0,2.2,1.5,4.1,4,5.6
						c2.5,1.4,5.9,2.3,9.6,2.3c7.5,0,13.5-3.5,13.5-7.9C324.5,257.4,323,255.5,320.5,254 M311,265.8c-3,0-5.7-0.7-7.6-1.8
						c-2-1.1-3.2-2.7-3.2-4.4c0-3.4,4.8-6.2,10.7-6.2c3,0,5.7,0.7,7.6,1.8c2,1.1,3.2,2.7,3.2,4.4C321.7,263,316.9,265.8,311,265.8"
						/>
				</g>
			</g>
		</g>
	</g>
	<g>
		<g>
			<defs>
				<rect id="SVGID_219_" x="319.7" y="249.2" width="27.2" height="19.3"/>
			</defs>
			<clipPath id="SVGID_220_">
				<use xlink:href="#SVGID_219_"  style="overflow:visible;"/>
			</clipPath>
			<g class="st128">
				<g>
					<defs>
						<rect id="SVGID_221_" x="319.9" y="258" width="26.2" height="10.5"/>
					</defs>
					<clipPath id="SVGID_222_">
						<use xlink:href="#SVGID_221_"  style="overflow:visible;"/>
					</clipPath>
					<path class="st129" d="M324.7,258c0,0-5.3,1.1-4.7,3.2c0.3,1,2.4,2.6,2.4,2.6l-0.1,2c0,0,6.1,3,15.8,2.7
						c4.2-0.2,9.3-2.6,7.7-5.1L324.7,258z"/>
				</g>
			</g>
			<g class="st130">
				<g>
					<defs>
						<rect id="SVGID_223_" x="322.5" y="255.3" width="21.6" height="10.4"/>
					</defs>
					<clipPath id="SVGID_224_">
						<use xlink:href="#SVGID_223_"  style="overflow:visible;"/>
					</clipPath>
					<path class="st131" d="M340.2,263.1c-4.6,1.6-11.3,0.4-15-2.8c-1.9-1.6-2.6-3.4-2.3-5l-0.4,1.9c-0.3,1.6,0.4,3.4,2.3,5
						c3.7,3.2,10.4,4.4,15,2.8c2.3-0.8,3.6-2.2,3.9-3.7l0.4-1.9C343.8,260.9,342.5,262.3,340.2,263.1"/>
				</g>
			</g>
			<g class="st130">
				<g>
					<defs>
						<rect id="SVGID_225_" x="319.7" y="254.8" width="27.1" height="12.6"/>
					</defs>
					<clipPath id="SVGID_226_">
						<use xlink:href="#SVGID_225_"  style="overflow:visible;"/>
					</clipPath>
					<path class="st132" d="M341.9,264.6c-5.8,2-14.2,0.4-18.8-3.6c-2.3-2-3.3-4.3-2.9-6.2l-0.4,1.9c-0.4,2,0.6,4.2,2.9,6.2
						c4.7,4,13.1,5.6,18.8,3.6c2.9-1,4.5-2.7,4.9-4.7l0.4-1.9C346.4,261.9,344.8,263.6,341.9,264.6"/>
				</g>
			</g>
			<path class="st133" d="M343.9,253.7c-4.7-4-13.1-5.6-18.8-3.6c-5.8,2-6.7,6.9-2,10.9c4.7,4,13.1,5.6,18.8,3.6
				C347.7,262.6,348.6,257.7,343.9,253.7 M340.2,263.1c-4.6,1.6-11.3,0.4-15-2.8c-3.7-3.2-3-7.1,1.6-8.7c4.6-1.6,11.3-0.3,15,2.8
				C345.5,257.6,344.8,261.5,340.2,263.1"/>
			<path class="st134" d="M341.8,254.4c-3.7-3.2-10.4-4.4-15-2.8c-4.6,1.6-5.3,5.5-1.6,8.7c3.7,3.2,10.4,4.4,15,2.8
				C344.8,261.5,345.5,257.6,341.8,254.4"/>
		</g>
	</g>
	<g>
		<g>
			<defs>
				<rect id="SVGID_227_" x="314.1" y="270.5" width="27.1" height="18.5"/>
			</defs>
			<clipPath id="SVGID_228_">
				<use xlink:href="#SVGID_227_"  style="overflow:visible;"/>
			</clipPath>
			<g class="st135">
				<g>
					<defs>
						<rect id="SVGID_229_" x="314.1" y="270.5" width="27.1" height="18.5"/>
					</defs>
					<clipPath id="SVGID_230_">
						<use xlink:href="#SVGID_229_"  style="overflow:visible;"/>
					</clipPath>
					<g class="st136">
						<g>
							<defs>
								<rect id="SVGID_231_" x="314.1" y="273.3" width="27.1" height="15.7"/>
							</defs>
							<clipPath id="SVGID_232_">
								<use xlink:href="#SVGID_231_"  style="overflow:visible;"/>
							</clipPath>
							<path class="st137" d="M337.2,275.6c-2.5-1.4-5.9-2.3-9.6-2.3c-7.5,0-13.5,3.5-13.5,7.9c0,2.2,1.5,4.1,4,5.6
								c2.5,1.4,5.9,2.3,9.6,2.3c7.5,0,13.5-3.5,13.5-7.9C341.2,279,339.7,277,337.2,275.6 M327.7,287.4c-3,0-5.7-0.7-7.6-1.8
								c-2-1.1-3.2-2.7-3.2-4.4c0-3.4,4.8-6.2,10.7-6.2c3,0,5.7,0.7,7.6,1.8c2,1.1,3.2,2.7,3.2,4.4
								C338.5,284.6,333.7,287.4,327.7,287.4"/>
						</g>
					</g>
					<path class="st138" d="M335.3,273.9c-2-1.1-4.7-1.8-7.6-1.8c-6,0-10.8,2.8-10.7,6.2c0,1.7,1.2,3.3,3.2,4.4
						c2,1.1,4.7,1.8,7.6,1.8c6,0,10.8-2.8,10.7-6.2C338.4,276.6,337.2,275,335.3,273.9"/>
					<g class="st139">
						<g>
							<defs>
								<rect id="SVGID_233_" x="314.1" y="278.3" width="27.1" height="9.8"/>
							</defs>
							<clipPath id="SVGID_234_">
								<use xlink:href="#SVGID_233_"  style="overflow:visible;"/>
							</clipPath>
							<path class="st140" d="M327.7,286.2c-3.7,0-7.1-0.9-9.6-2.3c-2.5-1.4-4-3.4-4-5.6l0,2c0,2.2,1.5,4.1,4,5.6
								c2.5,1.4,5.9,2.3,9.6,2.3c7.5,0,13.5-3.5,13.5-7.9l0-2C341.3,282.6,335.2,286.2,327.7,286.2"/>
						</g>
					</g>
					<path class="st141" d="M337.2,272.8c-2.5-1.4-5.9-2.3-9.6-2.3c-7.5,0-13.5,3.5-13.5,7.9c0,2.2,1.5,4.1,4,5.6
						c2.5,1.4,5.9,2.3,9.6,2.3c7.5,0,13.5-3.5,13.5-7.9C341.2,276.1,339.7,274.2,337.2,272.8 M327.7,284.5c-3,0-5.7-0.7-7.6-1.8
						c-2-1.1-3.2-2.7-3.2-4.4c0-3.4,4.8-6.2,10.7-6.2c3,0,5.7,0.7,7.6,1.8c2,1.1,3.2,2.7,3.2,4.4
						C338.5,281.8,333.7,284.5,327.7,284.5"/>
				</g>
			</g>
		</g>
	</g>
	<g class="st1">
		<g>
			<defs>
				<rect id="SVGID_235_" x="385.7" y="243.6" width="191.8" height="114.3"/>
			</defs>
			<clipPath id="SVGID_236_">
				<use xlink:href="#SVGID_235_"  style="overflow:visible;"/>
			</clipPath>
			<path class="st142" d="M574.7,314.6c-0.2-0.2-0.4-0.3-0.7-0.5l-117.3-68c-5.6-3.3-12.5-3.3-18.1,0l-48.9,28.6
				c-2,1.1-3.9,2.5-3.9,7c0,2.5,1.5,4.9,2.9,5.9c0.2,0.2,0.4,0.3,0.7,0.5l117.8,67.5c5.5,3.2,12.3,3.2,17.9,0l48.9-28.3
				c0.1-0.1,0.3-0.2,0.4-0.3c1.7-1.1,3.2-2.6,3.2-6.5C577.5,317.9,576,315.6,574.7,314.6"/>
		</g>
	</g>
	<path class="st143" d="M573.4,310c-0.9,0-1.4,1.1-1.7,2.7l-114.6-67c-5.7-3.3-13.9-2.5-18.1,0l-47.6,27.8c-0.3-2-1-3.4-1.8-3
		c-2,1.1-4,2.5-4,7c0,2.7,1.7,5.2,3.2,6c0.2,0.1,0.3,0.2,0.5,0.3l117.8,67.5c5.5,3.2,12.3,3.2,17.9,0l48.9-28.3
		c0.1,0,0.1-0.1,0.2-0.1c1.8-1.1,3.4-2.6,3.4-6.7C577.5,313.1,575,310,573.4,310"/>
	<path class="st144" d="M574,310l-117.3-68c-5.6-3.3-12.5-3.3-18.1,0l-49.2,28.8c-3.5,2-3.5,7.1,0,9.1l117.8,67.5
		c5.5,3.2,12.3,3.2,17.9,0l48.9-28.3C577.4,317.1,577.5,312.1,574,310"/>
	<polygon class="st12" points="392.7,278 510.9,345.8 570.1,311.6 452.4,243.6 	"/>
	<polygon class="st145" points="452.1,312.3 510.9,345.8 570.1,311.6 511.8,277.9 	"/>
	<polygon class="st145" points="392.7,278 402.6,283.7 462.4,249.1 452.4,243.6 	"/>
	<path class="st146" d="M540.8,321l-10.5-6.1c-0.7-0.4-1.5-0.4-2.2,0l-10.5,6.1c-0.6,0.4-0.7,1.3,0,1.7l10.4,6.2
		c0.7,0.4,1.5,0.4,2.2,0l10.6-6.2C541.5,322.4,541.5,321.4,540.8,321"/>
	<path class="st146" d="M522.7,331.4l-10.5-6.1c-0.7-0.4-1.5-0.4-2.2,0l-10.5,6.1c-0.6,0.4-0.7,1.3,0,1.7l10.4,6.2
		c0.7,0.4,1.5,0.4,2.2,0l10.6-6.2C523.3,332.7,523.3,331.8,522.7,331.4"/>
	<path class="st147" d="M424.9,254.6c-0.8-0.5-2.2-0.5-3,0l-5.3,3.1c-0.8,0.5-0.8,1.2,0,1.7c0.8,0.5,2.2,0.5,3,0l5.3-3.1
		C425.7,255.9,425.7,255.1,424.9,254.6"/>
	<path class="st148" d="M519,293.1l-6.3-3.6c-0.5-0.3-1.3-0.3-1.7,0l-36.1,20.9c-0.5,0.3-0.5,0.7,0,1l6.2,3.6c0.5,0.3,1.3,0.3,1.7,0
		l36.2-20.9C519.5,293.8,519.5,293.4,519,293.1"/>
	<path class="st149" d="M452.8,264.7l-0.2,0l-0.2,0c-0.5,0.1-1,0.2-1.4,0.3l-0.5,0.1l-0.4,0.1c-0.5,0.1-0.9,0.2-1.4,0.3l-0.3,0.1
		l-0.7,0.2c-0.4,0.1-0.8,0.2-1.1,0.4l-0.2,0.1c-0.3,0.1-0.6,0.2-1,0.3c-0.3,0.1-0.5,0.2-0.8,0.3l-0.2,0.1c-0.4,0.2-0.7,0.3-1.1,0.5
		l-0.5,0.3l-0.2,0.1l-0.2,0.1c-0.3,0.2-0.7,0.4-1,0.5l-0.3,0.2l-0.5,0.3c-0.3,0.2-0.5,0.3-0.8,0.5l-0.2,0.2
		c-0.2,0.2-0.4,0.3-0.6,0.5c-0.2,0.1-0.4,0.3-0.5,0.4l-0.2,0.2c-0.2,0.2-0.5,0.4-0.7,0.7l-0.3,0.3l-0.2,0.3
		c-0.2,0.2-0.4,0.4-0.6,0.7l-0.1,0.1l-0.2,0.3l-0.2,0.3c-0.1,0.2-0.3,0.4-0.4,0.6c-0.1,0.2-0.2,0.3-0.3,0.5l-0.1,0.1
		c-0.1,0.2-0.2,0.4-0.3,0.6c-0.1,0.2-0.2,0.5-0.3,0.7l-0.1,0.5c-0.1,0.2-0.1,0.5-0.2,0.7l0,0.2l0,0.4c0,0.3-0.1,0.5-0.1,0.8l0,0.2
		l0,0.4c0,0.3,0,0.5,0,0.8l0,0.2l0.1,0.5c0.1,0.2,0.1,0.5,0.2,0.7l0.1,0.2c0.1,0.2,0.2,0.5,0.3,0.7l0.2,0.5l0.1,0.2
		c0.1,0.3,0.3,0.5,0.5,0.8l0.1,0.2l0.2,0.3c0.2,0.3,0.4,0.5,0.6,0.8l0.1,0.1l0.4,0.5c0.2,0.2,0.4,0.4,0.6,0.6l0.1,0.1
		c0.2,0.2,0.4,0.4,0.7,0.6c0.2,0.1,0.3,0.3,0.5,0.4l0.2,0.1c0.3,0.2,0.6,0.4,0.9,0.6l0.4,0.3l0.3,0.2c0.2,0.1,0.4,0.3,0.6,0.4l9-5.2
		l-0.1-0.1l-0.2-0.1l-0.4-0.3l-0.1-0.1l-0.1-0.1l-0.2-0.1l-0.2-0.1l-0.3-0.2l-0.1-0.1l-0.1-0.1l-0.2-0.3l-0.1-0.1l-0.1-0.2l-0.1-0.1
		l-0.1-0.1l-0.2-0.4l-0.1-0.2l-0.1-0.1l-0.2-0.3l-0.1-0.4l0-0.1l-0.1-0.3l0-0.2l0-0.1l0-0.3l0-0.1l0-0.1l0-0.2l0-0.2l0-0.2l0-0.3
		l0.1-0.4l0-0.1l0-0.2l0.1-0.2l0-0.2l0.1-0.1l0.1-0.1l0.1-0.2l0.1-0.2l0.1-0.2l0.1-0.1l0.2-0.4l0.3-0.2l0.2-0.2l0.2-0.2l0.2-0.2
		l0.1-0.1l0.1-0.1l0.3-0.3l0.1-0.1l0.2-0.2l0.4-0.2l0.1-0.1l0.5-0.3l0.4-0.2l0.1-0.1l0.2-0.1l0.5-0.2l0.1-0.1l0.1-0.1l0.2-0.1
		l0.2-0.1l0.4-0.2l0.2,0l0.2-0.1l0.5-0.1l0.2-0.1l0.2-0.1l0.2,0l0.1,0l0.6-0.1l0.3,0l0.1,0l0.5-0.1l0.5-0.1L452.8,264.7z"/>
	<path class="st150" d="M457.6,286.1l-0.1,0l-0.3,0l-0.4-0.1l-0.3,0l-0.2,0l-0.2,0l-0.4-0.1l-0.4-0.1l-0.3-0.1l-0.1,0l-0.7-0.1
		l-0.5-0.2l-0.3-0.1l-0.3-0.1l-0.3-0.1l-0.1,0l-0.1-0.1l-0.5-0.2l-0.1-0.1l-0.3-0.1l-0.4-0.2l-0.2-0.1l-0.6-0.3l-0.3-0.2l-9,5.2
		l0.3,0.2l0.2,0.1l0.6,0.3c0.3,0.2,0.6,0.3,0.9,0.4l0.2,0.1c0.3,0.2,0.6,0.3,0.9,0.4l0.7,0.3l0.3,0.1c0.4,0.1,0.8,0.3,1.2,0.4
		l0.5,0.2l0.4,0.1c0.3,0.1,0.6,0.2,0.9,0.2l0.5,0.1l0.5,0.1l0.4,0.1c0.4,0.1,0.8,0.2,1.2,0.3l0.9,0.2c0.4,0.1,0.8,0.1,1.2,0.2
		c0.4,0.1,0.8,0.1,1.2,0.2l0.9,0.1c0.4,0,0.8,0.1,1.3,0.1l0.4,0l0.6,0l0.5,0l1-7.4l-0.6,0L457.6,286.1z"/>
	<path class="st148" d="M484.5,277.8l0-0.2l-0.1-0.5c-0.1-0.2-0.1-0.4-0.2-0.6l-0.1-0.2c-0.1-0.2-0.2-0.5-0.2-0.7l-0.2-0.4l-0.1-0.2
		c-0.1-0.2-0.3-0.5-0.4-0.7l-0.1-0.1l-0.1-0.1l-0.2-0.4c-0.2-0.2-0.3-0.5-0.6-0.7l-0.1-0.2c-0.1-0.2-0.3-0.3-0.4-0.5
		c-0.2-0.2-0.4-0.4-0.6-0.6l-0.1-0.1c-0.2-0.2-0.5-0.4-0.7-0.6l-0.4-0.4l-0.2-0.1c-0.3-0.2-0.6-0.5-0.9-0.7l-0.3-0.2l-0.3-0.2
		c-0.3-0.2-0.7-0.4-1-0.6l-0.2-0.1l-0.2-0.1l-0.5-0.3c-0.3-0.2-0.6-0.3-0.9-0.5l-0.1-0.1c-0.3-0.1-0.7-0.3-1-0.4
		c-0.2-0.1-0.5-0.2-0.7-0.3l-0.2-0.1c-0.4-0.2-0.8-0.3-1.3-0.5l-0.6-0.2l-0.3-0.1c-0.4-0.1-0.9-0.3-1.3-0.4l-0.6-0.1l-0.3-0.1
		c-0.4-0.1-0.8-0.2-1.2-0.3l-0.9-0.2c-0.4-0.1-0.8-0.1-1.2-0.2c-0.4-0.1-0.8-0.1-1.2-0.2l-0.9-0.1c-0.5,0-0.9-0.1-1.3-0.1l-0.3,0
		l-0.5,0c-0.5,0-1,0-1.5,0h-0.3l-0.6,0c-0.5,0-1,0-1.5,0h-0.2l-0.9,0.1c-0.4,0-0.8,0.1-1.2,0.1l-0.2,0c-0.4,0-0.8,0.1-1.2,0.2
		l-0.6,0.1l3.5,7.2l0.2,0l0.1,0l0.5-0.1l0.3,0l0.2,0l0.6,0l0.3,0l0.3,0l0.3,0l0.4,0h0.5l0.7,0.1l0.2,0l0.3,0l0.4,0.1l0.4,0l0.2,0
		l0.2,0l0.3,0.1l0.4,0.1l0.3,0.1l0.1,0l0.7,0.1l0.4,0.2l0.3,0.1l0.3,0.1l0.4,0.1l0.1,0.1l0.5,0.2l0.2,0.1l0.3,0.1l0.4,0.2l0.1,0.1
		l0.6,0.3l0.3,0.2l0.1,0.1l0.2,0.1l0.4,0.3l0.1,0.1l0.1,0.1l0.2,0.1l0.2,0.1l0.3,0.2l0.1,0.1l0.1,0.1l0.2,0.3l0.1,0.1l0.1,0.1
		l0.1,0.1l0.1,0.1l0.3,0.3l0.1,0.2l0.2,0.3l0.1,0.4l0,0.1l0.1,0.3l0,0.2l0,0.1l0.1,0.3l0,0.2l0,0.2l0,0.2l0,0.2l0,0.3l-0.1,0.4
		l0,0.1l0,0.2l-0.1,0.2l-0.1,0.2l-0.1,0.1l-0.1,0.1l-0.1,0.2l-0.1,0.2l-0.1,0.2l-0.1,0.1l-0.2,0.4l-0.2,0.3l-0.2,0.2l-0.2,0.2
		l-0.2,0.2l-0.1,0.1l-0.1,0.1l-0.3,0.2l-0.1,0.1l-0.2,0.2l-0.4,0.2l-0.1,0.1l-0.4,0.3l-0.4,0.2l-0.1,0.1l-0.2,0.1l-0.5,0.2l-0.1,0
		l-0.1,0.1l-0.2,0.1l-0.2,0.1l-0.4,0.2l-0.2,0l-0.2,0.1l-0.5,0.1l-0.2,0.1l-0.2,0.1l-0.2,0l-0.1,0l-0.6,0.1l-0.3,0.1l-0.2,0
		l-0.5,0.1L462,286l-0.2,0l-0.5,0.1l-0.3,0l-0.2,0l-0.6,0l-0.3,0l-0.4,0l-0.3,0h-0.4l-1,7.4l0.9,0l0.4,0l0.6,0c0.5,0,1,0,1.5,0
		l0.3,0l0.9-0.1c0.4,0,0.8-0.1,1.2-0.1l0.2,0c0.4,0,0.8-0.1,1.2-0.2l0.8-0.1l0.3,0l0.5-0.1l0.8-0.2l0.5-0.1l0.5-0.1
		c0.4-0.1,0.9-0.2,1.3-0.3l0.3-0.1c0.3-0.1,0.5-0.2,0.8-0.2c0.3-0.1,0.7-0.2,1.1-0.3l0.2-0.1c0.4-0.1,0.7-0.2,1.1-0.4
		c0.2-0.1,0.5-0.2,0.7-0.3l0.2-0.1c0.4-0.2,0.8-0.3,1.1-0.5l0.4-0.2l0.4-0.2c0.3-0.2,0.7-0.4,1.1-0.6l0.2-0.1l0.5-0.3
		c0.3-0.2,0.5-0.4,0.8-0.5l0.2-0.1c0.2-0.2,0.5-0.4,0.7-0.5c0.2-0.1,0.3-0.3,0.5-0.4l0.2-0.2c0.3-0.2,0.5-0.4,0.7-0.7l0.3-0.3
		l0.2-0.2c0.2-0.2,0.4-0.5,0.6-0.7l0.3-0.3l0.1-0.2c0.2-0.2,0.3-0.4,0.4-0.7l0.3-0.5c0.1-0.2,0.2-0.5,0.3-0.7
		c0.1-0.2,0.2-0.4,0.3-0.6l0-0.1l0.2-0.5c0-0.2,0.1-0.4,0.2-0.7l0.1-0.3l0-0.3l0-0.1c0-0.2,0-0.5,0.1-0.8l0-0.3l0-0.4
		C484.6,278.4,484.6,278.1,484.5,277.8"/>
	<polygon class="st151" points="455.8,271.9 456.3,271.9 456.3,271.9 	"/>
	<g>
		<g>
			<defs>
				<rect id="SVGID_237_" x="570.1" y="21.7" width="222.4" height="133.2"/>
			</defs>
			<clipPath id="SVGID_238_">
				<use xlink:href="#SVGID_237_"  style="overflow:visible;"/>
			</clipPath>
			<g class="st152">
				<g>
					<defs>
						<rect id="SVGID_239_" x="573.9" y="26.4" width="218.6" height="128.5"/>
					</defs>
					<clipPath id="SVGID_240_">
						<use xlink:href="#SVGID_239_"  style="overflow:visible;"/>
					</clipPath>
					<polygon class="st153" points="651.2,26.4 573.9,73.9 717.2,154.9 792.5,108.5 672.8,96.1 					"/>
				</g>
			</g>
			<g class="st154">
				<g class="st1">
					<g>
						<defs>
							<rect id="SVGID_241_" x="570.5" y="24" width="212.7" height="126.6"/>
						</defs>
						<clipPath id="SVGID_242_">
							<use xlink:href="#SVGID_241_"  style="overflow:visible;"/>
						</clipPath>
						<polygon class="st155" points="774.3,106.6 783.2,112.8 710.4,150.6 570.5,70.4 650.8,24 						"/>
					</g>
				</g>
				<polygon class="st12" points="672.4,91.4 650.8,21.7 792.1,103.8 				"/>
				<polygon class="st13" points="672.4,91.4 792.1,103.8 711.8,150.2 570.5,68.1 650.8,21.7 				"/>
				<g class="st1">
					<g>
						<defs>
							<rect id="SVGID_243_" x="650.8" y="21.7" width="141.3" height="82.1"/>
						</defs>
						<clipPath id="SVGID_244_">
							<use xlink:href="#SVGID_243_"  style="overflow:visible;"/>
						</clipPath>
						<polygon class="st156" points="792.1,103.8 671.7,93.2 650.8,21.7 672.4,91.4 						"/>
					</g>
				</g>
			</g>
		</g>
	</g>
	<g class="st1">
		<g>
			<defs>
				<rect id="SVGID_245_" x="510.3" y="244.3" width="0.3" height="0.2"/>
			</defs>
			<clipPath id="SVGID_246_">
				<use xlink:href="#SVGID_245_"  style="overflow:visible;"/>
			</clipPath>
			<path class="st157" d="M510.5,244.5L510.5,244.5C510.2,244.2,510.2,244.2,510.5,244.5"/>
		</g>
	</g>
	<g class="st1">
		<g>
			<defs>
				<rect id="SVGID_247_" x="542.4" y="181.7" width="96.3" height="73.8"/>
			</defs>
			<clipPath id="SVGID_248_">
				<use xlink:href="#SVGID_247_"  style="overflow:visible;"/>
			</clipPath>
			<path class="st158" d="M637.6,253.7c0-0.1,0-0.1,0-0.2l0,0l-6.1-8.4c-0.1-0.2-0.2-0.4-0.4-0.6l0,0v0c0,0-0.1,0-0.1-0.1l-5.6-4.2
				c0,0,0.1,0,0.1,0.1l-40.3-30.1c0-0.3-0.1-0.5-0.2-0.8c-0.1-0.2-0.2-0.3-0.4-0.5c0,0,0,0,0,0l-0.1,0c0,0,0,0,0,0l-0.2-0.2
				l-1.5-1.1c0,0-0.1,0-0.1,0L552.3,185c0,0,0.1,0,0.1,0.1l-4-3c-0.1-0.1-0.3-0.2-0.4-0.2c0,0-0.1,0-0.1,0c-0.1,0-0.2-0.1-0.4-0.1
				c0,0-0.1,0-0.1,0c-0.2,0-0.3,0-0.5,0.1c0,0-0.1,0-0.1,0c-0.2,0-0.3,0.1-0.5,0.2c0,0-0.1,0-0.1,0c0,0-0.1,0-0.1,0
				c-0.2,0.1-0.3,0.2-0.5,0.3c0,0-0.1,0-0.1,0c-0.2,0.1-0.4,0.3-0.6,0.4c-0.9,0.7-1.6,1.6-2,2.7c-0.1,0.2-0.2,0.5-0.2,0.7
				c0,0,0,0.1,0,0.1c0,0.2-0.1,0.4-0.1,0.6c0,0,0,0.1,0,0.1c0,0,0,0.1,0,0.1c0,0.2,0,0.4,0,0.5c0,0,0,0.1,0,0.1
				c0,0.2,0.1,0.4,0.1,0.5c0,0,0,0.1,0,0.1c0,0.1,0.1,0.2,0.2,0.3c0,0,0,0.1,0.1,0.1c0.1,0.1,0.2,0.2,0.3,0.3l0.8,0.6l0.1,3.5
				l23.9,18.2l3.5,1c0,0,0.4-0.4-0.3-1.2c-0.7-0.8-3.1-2.9-3.7-2.5c-0.4,0.2-0.7-0.1-0.7-0.1l-20.9-16l-0.2-1.6l31.2,23.2
				c0,0,0,0,0,0l2.3,1.7c0,0,0,0,0,0l0,0c0,0,0,0,0,0c0,0,0,0,0.1,0c0.3,0.1,0.6,0.1,0.9,0.1l12,8.9l34.2,25.6c-0.4-0.3-0.4-0.3,0,0
				h0l0,0c0.2,0.1,0.3,0.2,0.6,0.2l9.3,4.1c0,0,0,0,0,0l0.1,0l0,0c0.1,0,0.1,0,0.2,0c0.6,0.4,2,0.8,2,0.5
				C638.7,255.1,638.1,254.1,637.6,253.7"/>
		</g>
	</g>
	<path class="st159" d="M579.8,208.5c-2.9,2.8-1.5,5.2-0.9,5.5c1.9,0.9,7-4.3,5.7-6.6C584.2,206.7,582.7,205.7,579.8,208.5"/>
	<path class="st159" d="M545.6,180.3c-1.6,0.7-3,2.6-3.2,4.3c-0.1,0.8,0.1,1.5,0.6,1.8l83.2,62.2c-0.4-0.3-0.7-1-0.6-1.8
		c0.2-1.7,1.7-3.6,3.2-4.3c0.8-0.3,1.5-0.3,1.9,0l-83.2-62.2C547,180,546.4,179.9,545.6,180.3"/>
	<path class="st159" d="M545.6,180.3c-1.6,0.7-3,2.6-3.2,4.3c-0.1,0.8,0.1,1.5,0.6,1.8l83.2,62.2c-0.4-0.3-0.7-1-0.6-1.8
		c0.2-1.7,1.7-3.6,3.2-4.3c0.8-0.3,1.5-0.3,1.9,0l-83.2-62.2C547,180,546.4,179.9,545.6,180.3"/>
	<path class="st160" d="M548,182.2c-1.6,0.7-3,2.6-3.2,4.3c-0.1,0.7,0,1.2,0.3,1.5l75.4,56.3c-0.4-0.3-0.7-1-0.6-1.8
		c0.2-1.7,1.7-3.6,3.2-4.3c0.8-0.3,1.5-0.3,1.9,0l-74.9-56C549.7,182,548.8,181.9,548,182.2"/>
	<path class="st161" d="M630.7,242.5L630.7,242.5L630.7,242.5c-0.5-0.3-1.1-0.4-1.9-0.1c-1.6,0.7-3,2.6-3.2,4.3
		c-0.1,0.8,0.1,1.5,0.6,1.8l0,0c0.2,0.1,0.3,0.2,0.6,0.2l9.5,4.1l1.1-1.4l-6.1-8.4C631,242.8,630.9,242.6,630.7,242.5"/>
	<path class="st162" d="M636.6,251.4c-0.4,0.2-0.8,0.6-0.8,1.1c0,0.4,0.2,0.6,0.6,0.5c0.4-0.2,0.8-0.6,0.8-1.1
		C637.3,251.4,637,251.2,636.6,251.4"/>
	<path class="st162" d="M636.8,251.5c-0.4,0.2-0.8,0.6-0.8,1.1c-0.1,0.4,2.3,1.2,2.3,0.8C638.4,253,637.2,251.4,636.8,251.5"/>
	<path class="st159" d="M567.1,206.6c-0.4,0.2-0.7-0.1-0.7-0.1l-20.9-16l-0.2-2.3l-1.7-1.1l0.1,4l23.9,18.2l3.5,1
		c0,0,0.4-0.4-0.3-1.2C570.1,208.3,567.7,206.3,567.1,206.6"/>
	<path class="st160" d="M545.8,180c-1.8,0.8-3.5,3-3.7,5c-0.1,1,0.1,1.7,0.7,2.1l36.1,26.9c-0.5-0.4-0.8-1.1-0.7-2.1
		c0.2-2,1.9-4.2,3.7-5c0.9-0.4,1.6-0.4,2.2,0L548.1,180C547.6,179.6,546.8,179.6,545.8,180"/>
	<path class="st159" d="M544.5,180.8c-0.9,0.7-1.6,1.6-2,2.7c-0.7,1.7-0.5,3,0.3,3.6l4,3c-0.8-0.6-1-1.9-0.3-3.6
		c0.4-1.1,1.1-2,2-2.7c1.5-1.2,2.8-1.3,3.5-0.7l-4-3C547.3,179.4,546,179.6,544.5,180.8"/>
	<path class="st159" d="M579.9,205.5c-1.8,0.8-3.5,3-3.7,5c-0.1,0.8,0,1.4,0.3,1.8l2.4,1.7c-0.5-0.4-0.7-1.1-0.6-2.1
		c0.2-2,1.9-4.2,3.7-5c0.9-0.4,1.7-0.3,2.2,0.1l-1.8-1.4C581.9,205.2,580.8,205.1,579.9,205.5"/>
</g>
<g>
	<text transform="matrix(1 0 0 1 61.6987 50.8716)" class="st12 st163 st164">100%</text>
	<text transform="matrix(1 0 0 1 66.7261 85.2319)" class="st12 st163 st164">80%</text>
	<text transform="matrix(1 0 0 1 66.4595 119.5933)" class="st12 st163 st164">60%</text>
	<text transform="matrix(1 0 0 1 66.1929 153.9536)" class="st12 st163 st164">40%</text>
	<text transform="matrix(1 0 0 1 66.9004 188.315)" class="st12 st163 st164">20%</text>
	<text transform="matrix(1 0 0 1 73.1899 222.6753)" class="st12 st163 st164">0%</text>
	<line class="st165" x1="95.6" y1="219.5" x2="401.9" y2="219.5"/>
	<line class="st166" x1="95.6" y1="185.1" x2="95.6" y2="185.1"/>
	<line class="st167" x1="96.9" y1="185.1" x2="401.2" y2="185.1"/>
	<line class="st166" x1="401.9" y1="185.1" x2="401.9" y2="185.1"/>
	<line class="st166" x1="95.6" y1="150.6" x2="95.6" y2="150.6"/>
	<line class="st167" x1="96.9" y1="150.6" x2="401.2" y2="150.6"/>
	<line class="st166" x1="401.9" y1="150.6" x2="401.9" y2="150.6"/>
	<line class="st166" x1="95.6" y1="116.1" x2="95.6" y2="116.1"/>
	<line class="st167" x1="96.9" y1="116.1" x2="401.2" y2="116.1"/>
	<line class="st166" x1="401.9" y1="116.1" x2="401.9" y2="116.1"/>
	<line class="st166" x1="95.6" y1="81.7" x2="95.6" y2="81.7"/>
	<line class="st167" x1="96.9" y1="81.7" x2="401.2" y2="81.7"/>
	<line class="st166" x1="401.9" y1="81.7" x2="401.9" y2="81.7"/>
	<line class="st166" x1="95.6" y1="47.2" x2="95.6" y2="47.2"/>
	<line class="st167" x1="96.9" y1="47.2" x2="401.2" y2="47.2"/>
	<line class="st166" x1="401.9" y1="47.2" x2="401.9" y2="47.2"/>
	<line class="st168" x1="126.4" y1="219.5" x2="126.4" y2="224"/>
	<line class="st168" x1="179.4" y1="219.5" x2="179.4" y2="224"/>
	<line class="st168" x1="285.3" y1="219.5" x2="285.3" y2="224"/>
	<line class="st168" x1="338.2" y1="219.5" x2="338.2" y2="224"/>
	<line class="st168" x1="232.3" y1="219.5" x2="232.3" y2="224"/>
	<line class="st168" x1="152.9" y1="219.5" x2="152.9" y2="224"/>
	<line class="st168" x1="258.8" y1="219.5" x2="258.8" y2="224"/>
	<line class="st168" x1="364.7" y1="219.5" x2="364.7" y2="224"/>
	<line class="st168" x1="311.8" y1="219.5" x2="311.8" y2="224"/>
	<line class="st168" x1="205.8" y1="219.5" x2="205.8" y2="224"/>
	<path class="st169" d="M124,219.5c0-1.2,0.8-2.3,1.7-2.3c1,0,1.7,1,1.7,2.3c0,1.2-0.8,2.3-1.7,2.3C124.8,221.8,124,220.8,124,219.5
		"/>
	<path class="st169" d="M151.2,219.5c0-1.2,0.8-2.3,1.7-2.3s1.7,1,1.7,2.3c0,1.2-0.8,2.3-1.7,2.3S151.2,220.8,151.2,219.5"/>
	<path class="st169" d="M177.6,218.3c0-1.2,0.8-2.3,1.7-2.3c1,0,1.7,1,1.7,2.3c0,1.2-0.8,2.3-1.7,2.3
		C178.4,220.6,177.6,219.5,177.6,218.3"/>
	<path class="st169" d="M204.1,214.7c0-1.2,0.8-2.3,1.7-2.3c1,0,1.7,1,1.7,2.3c0,1.2-0.8,2.3-1.7,2.3
		C204.9,216.9,204.1,215.9,204.1,214.7"/>
	<path class="st169" d="M230.6,209.3c0-1.2,0.8-2.3,1.7-2.3c1,0,1.7,1,1.7,2.3s-0.8,2.3-1.7,2.3
		C231.4,211.5,230.6,210.5,230.6,209.3"/>
	<path class="st169" d="M257.1,202.3c0-1.2,0.8-2.3,1.7-2.3s1.7,1,1.7,2.3s-0.8,2.3-1.7,2.3S257.1,203.5,257.1,202.3"/>
	<path class="st169" d="M287,185.1c0,1.2-0.8,2.3-1.7,2.3c-1,0-1.7-1-1.7-2.3c0-1.2,0.8-2.3,1.7-2.3
		C286.2,182.8,287,183.8,287,185.1"/>
	<path class="st169" d="M313.5,141.8c0,1.2-0.8,2.3-1.7,2.3c-1,0-1.7-1-1.7-2.3c0-1.2,0.8-2.3,1.7-2.3
		C312.7,139.5,313.5,140.5,313.5,141.8"/>
	<path class="st169" d="M340,99.4c0,1.2-0.8,2.3-1.7,2.3s-1.7-1-1.7-2.3c0-1.2,0.8-2.3,1.7-2.3S340,98.2,340,99.4"/>
	<path class="st169" d="M366.4,86c0,1.2-0.8,2.3-1.7,2.3c-1,0-1.7-1-1.7-2.3c0-1.2,0.8-2.3,1.7-2.3C365.7,83.8,366.4,84.8,366.4,86"
		/>
	<path class="st170" d="M366.4,67.4c0,1.2-0.8,2.3-1.7,2.3c-1,0-1.7-1-1.7-2.3c0-1.2,0.8-2.3,1.7-2.3
		C365.7,65.1,366.4,66.1,366.4,67.4"/>
	<path class="st170" d="M340,68.3c0,1.2-0.8,2.3-1.7,2.3s-1.7-1-1.7-2.3c0-1.2,0.8-2.3,1.7-2.3S340,67,340,68.3"/>
	<path class="st170" d="M313.5,81.7c0,1.2-0.8,2.3-1.7,2.3c-1,0-1.7-1-1.7-2.3c0-1.2,0.8-2.3,1.7-2.3
		C312.7,79.4,313.5,80.4,313.5,81.7"/>
	<path class="st170" d="M287,134.1c0,1.2-0.8,2.3-1.7,2.3c-1,0-1.7-1-1.7-2.3c0-1.2,0.8-2.3,1.7-2.3
		C286.2,131.9,287,132.9,287,134.1"/>
	<path class="st170" d="M260.5,170.6c0,1.2-0.8,2.3-1.7,2.3s-1.7-1-1.7-2.3c0-1.2,0.8-2.3,1.7-2.3S260.5,169.3,260.5,170.6"/>
	<path class="st170" d="M234.1,194.5c0,1.2-0.8,2.3-1.7,2.3c-1,0-1.7-1-1.7-2.3c0-1.2,0.8-2.3,1.7-2.3
		C233.3,192.3,234.1,193.3,234.1,194.5"/>
	<path class="st170" d="M207.6,204.1c0,1.2-0.8,2.3-1.7,2.3c-1,0-1.7-1-1.7-2.3c0-1.2,0.8-2.3,1.7-2.3
		C206.8,201.8,207.6,202.8,207.6,204.1"/>
	<path class="st170" d="M181.1,211.5c0,1.2-0.8,2.3-1.7,2.3c-1,0-1.7-1-1.7-2.3s0.8-2.3,1.7-2.3
		C180.3,209.3,181.1,210.3,181.1,211.5"/>
	<path class="st170" d="M154.6,214.7c0,1.2-0.8,2.3-1.7,2.3s-1.7-1-1.7-2.3c0-1.2,0.8-2.3,1.7-2.3S154.6,213.4,154.6,214.7"/>
	<path class="st170" d="M129.2,219.5c0,1.2-0.8,2.3-1.7,2.3c-1,0-1.7-1-1.7-2.3c0-1.2,0.8-2.3,1.7-2.3
		C128.5,217.3,129.2,218.3,129.2,219.5"/>
	<path class="st171" d="M364.7,86l-26.5,13.4l-26.5,42.3l-26.5,43.3l-26.5,17.2l-26.5,7l-26.5,5.4l-26.5,3.6c0,0-24.7,1.2-26.5,1.2
		h-27.1"/>
	<polyline class="st172" points="364.7,67.4 338.2,68.3 311.8,81.7 285.3,134.1 258.8,170.6 232.3,194.5 205.8,204.1 179.4,211.5 
		152.9,214.7 127.5,219.5 	"/>
	<line class="st172" x1="105.7" y1="59.1" x2="128.7" y2="59.1"/>
	<path class="st170" d="M119.7,59.1c0,1.4-1.1,2.5-2.5,2.5c-1.4,0-2.5-1.1-2.5-2.5c0-1.4,1.1-2.5,2.5-2.5
		C118.6,56.6,119.7,57.7,119.7,59.1"/>
	<circle class="st173" cx="117.2" cy="59.1" r="2.5"/>
	<line class="st174" x1="105.7" y1="71.1" x2="128.7" y2="71.1"/>
	<path class="st169" d="M119.7,71.1c0,1.4-1.1,2.5-2.5,2.5c-1.4,0-2.5-1.1-2.5-2.5c0-1.4,1.1-2.5,2.5-2.5
		C118.6,68.6,119.7,69.8,119.7,71.1"/>
	<circle class="st174" cx="117.2" cy="71.1" r="2.5"/>
	<text transform="matrix(1 0 0 1 143.9526 61.6636)"><tspan x="0" y="0" class="st12 st163 st164">2</tspan><tspan x="6.3" y="0" class="st12 st163 st164">0</tspan><tspan x="12.6" y="0" class="st12 st163 st164">17 (21% </tspan><tspan x="57.4" y="0" class="st12 st163 st164">A</tspan><tspan x="64.4" y="0" class="st12 st163 st164">v</tspan><tspan x="69.2" y="0" class="st12 st163 st164">e</tspan><tspan x="74.9" y="0" class="st12 st163 st164">r</tspan><tspan x="78.5" y="0" class="st12 st163 st164">ag</tspan><tspan x="90.8" y="0" class="st12 st163 st164">e</tspan><tspan x="96.2" y="0" class="st12 st163 st164">)</tspan></text>
	<text transform="matrix(1 0 0 1 143.9526 75.186)"><tspan x="0" y="0" class="st12 st163 st164">2</tspan><tspan x="6.3" y="0" class="st12 st163 st164">0</tspan><tspan x="12.6" y="0" class="st12 st163 st164">18 (9% </tspan><tspan x="51.1" y="0" class="st12 st163 st164">A</tspan><tspan x="58" y="0" class="st12 st163 st164">v</tspan><tspan x="62.9" y="0" class="st12 st163 st164">e</tspan><tspan x="68.6" y="0" class="st12 st163 st164">r</tspan><tspan x="72.1" y="0" class="st12 st163 st164">ag</tspan><tspan x="84.4" y="0" class="st12 st163 st164">e</tspan><tspan x="89.8" y="0" class="st12 st163 st164">)</tspan></text>
</g>
</svg>
