<svg id="Layer_1" data-name="Layer 1" xmlns="http://www.w3.org/2000/svg" xmlns:xlink="http://www.w3.org/1999/xlink" viewBox="0 0 354 310"><defs><style>.cls-1{fill:#fff;}.cls-2{fill:url(#linear-gradient);}.cls-3{fill:url(#linear-gradient-2);}.cls-4{fill:url(#linear-gradient-3);}.cls-5{fill:url(#linear-gradient-4);}.cls-6{fill:url(#linear-gradient-5);}.cls-7{fill:url(#linear-gradient-6);}.cls-8{fill:url(#linear-gradient-7);}.cls-9{fill:#f0dde8;}.cls-10{fill:url(#linear-gradient-8);}.cls-11{fill:url(#linear-gradient-9);}.cls-12{fill:#24338a;}.cls-13{fill:url(#linear-gradient-10);}.cls-14{fill:url(#linear-gradient-11);}.cls-15{fill:url(#linear-gradient-12);}.cls-16{fill:url(#linear-gradient-13);}.cls-17{fill:url(#linear-gradient-14);}.cls-18{fill:url(#linear-gradient-15);}.cls-19{fill:url(#linear-gradient-16);}.cls-20{fill:url(#linear-gradient-17);}.cls-21{fill:url(#linear-gradient-18);}.cls-22{fill:url(#linear-gradient-19);}.cls-23{fill:url(#linear-gradient-20);}.cls-24{fill:url(#linear-gradient-21);}</style><linearGradient id="linear-gradient" x1="29.06" y1="271.36" x2="29.06" y2="209.56" gradientUnits="userSpaceOnUse"><stop offset="0" stop-color="#fff" stop-opacity="0.75"/><stop offset="1" stop-color="#fff"/></linearGradient><linearGradient id="linear-gradient-2" x1="91.76" y1="281.43" x2="91.76" y2="209.77" xlink:href="#linear-gradient"/><linearGradient id="linear-gradient-3" x1="155.88" y1="271.36" x2="155.88" y2="209.56" xlink:href="#linear-gradient"/><linearGradient id="linear-gradient-4" x1="209.89" y1="271.36" x2="209.89" y2="197.24" xlink:href="#linear-gradient"/><linearGradient id="linear-gradient-5" x1="247.93" y1="270.27" x2="247.93" y2="181.22" xlink:href="#linear-gradient"/><linearGradient id="linear-gradient-6" x1="293" y1="271.36" x2="293" y2="209.56" xlink:href="#linear-gradient"/><linearGradient id="linear-gradient-7" x1="341.12" y1="270.27" x2="341.12" y2="197.24" xlink:href="#linear-gradient"/><linearGradient id="linear-gradient-8" x1="137.21" y1="59.76" x2="144.59" y2="72.53" gradientUnits="userSpaceOnUse"><stop offset="0" stop-color="#24338a"/><stop offset="1" stop-color="#b6578a"/></linearGradient><linearGradient id="linear-gradient-9" x1="167.75" y1="64.04" x2="186.9" y2="97.21" xlink:href="#linear-gradient-8"/><linearGradient id="linear-gradient-10" x1="194.28" y1="95.43" x2="204.5" y2="113.12" xlink:href="#linear-gradient-8"/><linearGradient id="linear-gradient-11" x1="152.92" y1="98.43" x2="168.7" y2="125.76" xlink:href="#linear-gradient-8"/><linearGradient id="linear-gradient-12" x1="11.84" y1="310" x2="11.84" y2="286.89" xlink:href="#linear-gradient"/><linearGradient id="linear-gradient-13" x1="52.86" y1="309.82" x2="52.86" y2="287.07" xlink:href="#linear-gradient"/><linearGradient id="linear-gradient-14" x1="89.77" y1="309.82" x2="89.77" y2="287.07" xlink:href="#linear-gradient"/><linearGradient id="linear-gradient-15" x1="128.22" y1="309.82" x2="128.22" y2="287.07" xlink:href="#linear-gradient"/><linearGradient id="linear-gradient-16" x1="166.3" y1="309.82" x2="166.3" y2="287.07" xlink:href="#linear-gradient"/><linearGradient id="linear-gradient-17" x1="200.95" y1="309.82" x2="200.95" y2="287.04" xlink:href="#linear-gradient"/><linearGradient id="linear-gradient-18" x1="231.26" y1="309.82" x2="231.26" y2="287.07" xlink:href="#linear-gradient"/><linearGradient id="linear-gradient-19" x1="265.44" y1="310" x2="265.44" y2="286.89" xlink:href="#linear-gradient"/><linearGradient id="linear-gradient-20" x1="307.12" y1="309.82" x2="307.12" y2="287.07" xlink:href="#linear-gradient"/><linearGradient id="linear-gradient-21" x1="345.26" y1="309.97" x2="345.26" y2="286.86" xlink:href="#linear-gradient"/></defs><title>so-logo-hero</title><path class="cls-1" d="M177.2,10.17a71.06,71.06,0,1,1-71.06,71.06A71.14,71.14,0,0,1,177.2,10.17"/><path class="cls-2" d="M29.23,225.69a4.82,4.82,0,0,0-2.45.54,1.62,1.62,0,0,0-.93,1.42q0,1.31,2,2.18a47.24,47.24,0,0,0,6.54,2.07,98.62,98.62,0,0,1,11,3.6,21.57,21.57,0,0,1,8,5.67,14.27,14.27,0,0,1,3.43,9.92,17.7,17.7,0,0,1-3.32,10.68,21.3,21.3,0,0,1-9.43,7.08,37.43,37.43,0,0,1-14.28,2.51q-16.68,0-29.1-8.5L8.08,247.6q12,7.41,22,7.41a6.21,6.21,0,0,0,2.72-.49c.65-.33,1-.74,1-1.25,0-.8-.64-1.47-1.91-2a46.47,46.47,0,0,0-6.16-1.91,80.62,80.62,0,0,1-10.9-3.49,21.74,21.74,0,0,1-7.9-5.67,14.42,14.42,0,0,1-3.43-10,18.33,18.33,0,0,1,3.27-10.85A21.23,21.23,0,0,1,16,212.12a34.6,34.6,0,0,1,13.79-2.56,55.89,55.89,0,0,1,27.69,7.52l-8.07,15.15Q36.09,225.69,29.23,225.69Z"/><path class="cls-3" d="M112.31,213.59a25.18,25.18,0,0,1,9.59,10.85,37.5,37.5,0,0,1,3.38,16.4,36.88,36.88,0,0,1-3.27,16,24.29,24.29,0,0,1-9.32,10.57,26.48,26.48,0,0,1-14.12,3.71,21.44,21.44,0,0,1-8.83-1.8,19.9,19.9,0,0,1-7-5.18v17.26H58.24V210.65H82.77v6a19,19,0,0,1,15.15-6.87A26.94,26.94,0,0,1,112.31,213.59Zm-14.22,35a15.59,15.59,0,0,0,0-16.79,7.81,7.81,0,0,0-6.49-3.16,7.66,7.66,0,0,0-6.43,3.16,15.89,15.89,0,0,0,0,16.79,7.65,7.65,0,0,0,6.43,3.16A7.81,7.81,0,0,0,98.08,248.58Z"/><path class="cls-4" d="M179,215.39q7.25,5.83,7.25,16.3v38.59H162.2v-6.43q-5.45,7.52-16.79,7.52-9.38,0-14.66-5.07t-5.29-13.68q0-8.83,5.89-13.41t17.22-4.8H162.2a5.89,5.89,0,0,0-2.45-4.85q-2.35-1.69-6.81-1.69a43,43,0,0,0-8.34,1,63,63,0,0,0-9.76,2.83l-5.45-16.35A96.5,96.5,0,0,1,144.6,211a74.78,74.78,0,0,1,14.22-1.47Q171.79,209.56,179,215.39Zm-20.49,39.19a9.87,9.87,0,0,0,3.65-3.38v-5.45h-8.5q-5.23,0-5.23,4.8a5.11,5.11,0,0,0,1.42,3.87,5.58,5.58,0,0,0,4,1.36A9.67,9.67,0,0,0,158.55,254.57Z"/><path class="cls-5" d="M233.71,267.65a25.14,25.14,0,0,1-7.68,2.73,47.46,47.46,0,0,1-9.65,1q-10,0-16.08-5.5t-6-14.77v-25h-8.17V210.65h8.17V197.24h24.42v13.41h14v15.48h-14v21.25a5.21,5.21,0,0,0,1.31,3.76,4.29,4.29,0,0,0,3.49,1.25,19.15,19.15,0,0,0,6.1-1.53Z"/><path class="cls-6" d="M256.81,184.7a13.19,13.19,0,1,1-8.94-3.49A12.1,12.1,0,0,1,256.81,184.7Zm-20.93,25.94h24.52v59.62H235.89Z"/><path class="cls-7" d="M316.16,215.39q7.25,5.83,7.25,16.3v38.59H299.32v-6.43q-5.45,7.52-16.79,7.52-9.38,0-14.66-5.07t-5.29-13.68q0-8.83,5.89-13.41t17.22-4.8h13.63a5.89,5.89,0,0,0-2.45-4.85q-2.35-1.69-6.81-1.69a43,43,0,0,0-8.34,1,63,63,0,0,0-9.76,2.83l-5.45-16.35A96.5,96.5,0,0,1,281.72,211a74.78,74.78,0,0,1,14.22-1.47Q308.91,209.56,316.16,215.39Zm-20.49,39.19a9.87,9.87,0,0,0,3.65-3.38v-5.45h-8.5q-5.23,0-5.23,4.8a5.11,5.11,0,0,0,1.42,3.87,5.58,5.58,0,0,0,4,1.36A9.67,9.67,0,0,0,295.67,254.57Z"/><path class="cls-8" d="M328.86,197.24h24.53v73H328.86Z"/><path class="cls-9" d="M139,90.55l6.85,3.15L139,96.86V90.55m-3-4.68v15.68l17-7.87-17-7.82Z"/><path class="cls-9" d="M215.36,65.19V71.5l-6.85-3.17,6.85-3.15m3-4.68-17,7.82,17,7.87V60.51Z"/><polygon class="cls-10" points="135.96 60.48 135.96 75.62 152.39 68.03 135.96 60.48"/><polygon class="cls-11" points="139.03 80.62 177.46 98.26 215.62 80.63 195.01 71.17 177.19 79.39 159.39 71.21 139.03 80.62"/><polygon class="cls-12" points="138.75 55.3 177.17 72.95 215.33 55.31 176.91 37.67 138.75 55.3"/><polygon class="cls-13" points="180.57 103.34 180.55 122.72 218.28 105.17 218.28 85.9 180.57 103.34"/><polygon class="cls-14" points="139.03 106.45 174.19 122.59 174.19 103.2 160.09 96.72 139.03 106.45"/><path class="cls-15" d="M11.84,310A11.83,11.83,0,0,1,1.6,304.23,11.2,11.2,0,0,1,0,298.4a11,11,0,0,1,1.6-5.8,11.73,11.73,0,0,1,4.29-4.17,11.87,11.87,0,0,1,5.94-1.54,11.87,11.87,0,0,1,5.94,1.54h0a11.76,11.76,0,0,1,4.29,4.17,11.06,11.06,0,0,1,1.6,5.8,11.21,11.21,0,0,1-1.6,5.83A11.83,11.83,0,0,1,11.84,310Zm0-19.26a7.62,7.62,0,0,0-3.89,1H8a7.78,7.78,0,0,0-2.84,2.79,7.31,7.31,0,0,0-1,3.85,7.46,7.46,0,0,0,1,3.88A7.71,7.71,0,0,0,8,305.12a7.73,7.73,0,0,0,7.73,0,7.75,7.75,0,0,0,2.83-2.83,7.46,7.46,0,0,0,1-3.88,7.32,7.32,0,0,0-1-3.85,7.83,7.83,0,0,0-2.83-2.79A7.57,7.57,0,0,0,11.87,290.74Z"/><path class="cls-16" d="M48,309.82H44V287.07h8.66a9.93,9.93,0,0,1,6.62,2h0A7.31,7.31,0,0,1,61.73,295a7.68,7.68,0,0,1-2.44,6,9.69,9.69,0,0,1-6.63,2.12H48Zm0-10.55h4.52a6,6,0,0,0,3.94-1.12h0A3.82,3.82,0,0,0,57.76,295a3.64,3.64,0,0,0-1.23-3,6.2,6.2,0,0,0-4-1.08H48Z"/><path class="cls-17" d="M97.91,309.82H81.62V287.07h15.9v3.85H85.68v5.41h10.6v3.85H85.68V306H97.91Z"/><path class="cls-18" d="M137.71,309.82h-4.83l-4.46-6.74-.94,0h-4.7v6.71h-4.05V287.07h8.75a10,10,0,0,1,6.66,2,7.29,7.29,0,0,1,2.48,5.86,8.16,8.16,0,0,1-1.44,4.89,7.16,7.16,0,0,1-2.82,2.3Zm-14.93-10.55h4.7a6,6,0,0,0,3.93-1.12,3.84,3.84,0,0,0,1.25-3.14,3.64,3.64,0,0,0-1.23-3,6.15,6.15,0,0,0-3.94-1.08h-4.7Z"/><path class="cls-19" d="M178.27,309.82h-4.43l-2.46-5.52H161.17l-2.43,5.52h-4.4l10.25-22.75H168Zm-15.42-9.37h6.84l-3.44-7.74Z"/><path class="cls-20" d="M203,309.82h-4.05V290.91h-6.86V287h17.77v3.87H203Z"/><path class="cls-21" d="M233.29,309.82h-4.05V287.07h4.05Z"/><path class="cls-22" d="M265.44,310a11.83,11.83,0,0,1-10.24-5.77,11.2,11.2,0,0,1-1.6-5.83,11,11,0,0,1,1.6-5.8,11.75,11.75,0,0,1,4.29-4.17,12.23,12.23,0,0,1,11.89,0h0a11.76,11.76,0,0,1,4.29,4.17,11.06,11.06,0,0,1,1.6,5.8,11.21,11.21,0,0,1-1.6,5.83A11.83,11.83,0,0,1,265.44,310Zm0-19.26a7.62,7.62,0,0,0-3.89,1h0a7.79,7.79,0,0,0-2.84,2.79,7.31,7.31,0,0,0-1,3.85,7.46,7.46,0,0,0,1,3.88,7.81,7.81,0,0,0,2.84,2.83,7.73,7.73,0,0,0,7.73,0,7.75,7.75,0,0,0,2.83-2.83,7.45,7.45,0,0,0,1-3.88,7.31,7.31,0,0,0-1-3.85,7.81,7.81,0,0,0-2.83-2.79A7.57,7.57,0,0,0,265.47,290.74Z"/><path class="cls-23" d="M316.66,309.82H313l-11.34-15.5v15.5h-4.05V287.07h3.68l11.37,15.51V287.07h4Z"/><path class="cls-24" d="M345.55,310a11.92,11.92,0,0,1-4.61-.94,12.42,12.42,0,0,1-3.86-2.49l-.56-.54,2-3.51.93.91a9.25,9.25,0,0,0,2.92,1.93,8.37,8.37,0,0,0,3.24.7,5.6,5.6,0,0,0,3.2-.79,2,2,0,0,0,1-1.77,2.19,2.19,0,0,0-.47-1.48,3.71,3.71,0,0,0-1.38-1c-.65-.28-1.6-.62-2.82-1a30.64,30.64,0,0,1-3.49-1.27,6.73,6.73,0,0,1-2.54-2,5.71,5.71,0,0,1-1.1-3.6,5.48,5.48,0,0,1,1.09-3.36,6.66,6.66,0,0,1,2.92-2.16,12.28,12.28,0,0,1,7.76-.16,13,13,0,0,1,3.27,1.45l.77.49-1.8,3.54-.93-.58a9.8,9.8,0,0,0-2.53-1.12c-2.33-.66-4.32-.46-5.45.29a1.63,1.63,0,0,0-.84,1.46,2,2,0,0,0,.46,1.41,4,4,0,0,0,1.41,1,27,27,0,0,0,2.74,1,25.24,25.24,0,0,1,3.53,1.28,7,7,0,0,1,2.56,2.05,6.34,6.34,0,0,1,0,7.21,7,7,0,0,1-3.05,2.31A11.18,11.18,0,0,1,345.55,310Z"/></svg>