<svg id="Layer_1" data-name="Layer 1" xmlns="http://www.w3.org/2000/svg" viewBox="0 0 900 900"><defs><style>.cls-1{fill:none;}.cls-2{fill:#009ca9;}</style></defs><title>hssv</title><g id="WposXp.tif"><path class="cls-1" d="M191,63h900V963H191Q191,513,191,63Z" transform="translate(-191 -63)"/></g><g id="WposXp.tif-2" data-name="WposXp.tif"><path class="cls-2" d="M656.16,225.33c-6.15,4.09-11.78,7.58-17.14,11.43-21.61,15.54-40.71,33.89-58.36,53.69-15.5,17.39-32.54,33-51.89,45.89-15.5,10.33-33,13.85-51.48,12.09-8.05-.76-16-2.16-24.87-3.38,1.89-5.21,3.32-9.42,4.92-13.55,5.58-14.43,10.93-29,17-43.21,3.5-8.27,8.22-15.52,17.71-19,10.27-3.76,14.61-12.55,15.24-23.17.2-3.32,0-6.66-.08-10-.18-9.36-7.68-14.52-16.51-11-5.25,2.08-10.29,4.72-15.33,7.29-9.49,4.84-18.93,9.62-29.58,11.71-4.28.84-8.23,3.35-12.86,5.33a26.86,26.86,0,0,0-17.25-10.12c-11.8-1.76-26.45,3.8-28.27,17.43-.59,4.44.23,9.31,1.47,13.68,1.41,5,5.74,5.68,9.84,2.3a35.11,35.11,0,0,0,9.81-13.64c1.17-2.72,1.62-7.25,5.42-6.82,4,.45,3.11,5.18,4.26,8.1s-.61,4.43-2.33,6q-16.55,15.2-33.14,30.35c-3.8,3.49-7.7,6.91-11.22,10.67-5.18,5.53-4.83,12.17.83,17a45.86,45.86,0,0,0,8.24,5.58c8.66,4.62,17.48,8.95,26.16,13.54,2.32,1.23,4.89,2.63,6.35,4.66,1.25,1.74,2,4.86,1.26,6.7-.59,1.49-3.62,2.37-5.72,2.78-1.46.28-3.26-.48-4.76-1.14-9.75-4.28-19.47-8.66-29.19-13-1.52-.68-3-1.77-4.58-1.85-1.74-.09-3.52.77-5.28,1.22.63,1.71.75,4.28,2,5,5.59,3.27,11.39,6.22,17.28,8.92,7.86,3.61,15.89,6.88,23.82,10.35,1.36.59,3,1.19,3.76,2.31,1.08,1.66,2.21,3.94,1.86,5.66-.29,1.42-2.54,3-4.2,3.44a11,11,0,0,1-6.32-.48c-11.92-4.69-23.75-9.6-35.59-14.49-2.61-1.08-5.1-2.46-7.69-3.58-2.41-1-5.45-2.82-7.1.3-1.76,3.33,1.38,5.15,3.86,6.45,6,3.17,12.17,6.17,18.33,9.12,4.5,2.16,9.15,4,13.63,6.23,2.59,1.28,5.07,3.12,4.08,6.53s-4,3.6-7,3.35a14.94,14.94,0,0,1-3.88-.79q-18.51-6.78-37-13.66c-.93-.34-2-1.13-2.78-.91-1.46.44-3.2,1.17-3.93,2.35-.43.68.52,3,1.47,3.62a56.68,56.68,0,0,0,8.92,4.42c4.63,1.86,9.37,3.43,14,5.17,2.51.93,5,2.56,3.83,5.38-.68,1.6-3.71,3.47-5.31,3.18a143.66,143.66,0,0,1-21.19-5.26c-12.93-4.5-25.48-9.91-35.57-20.66l-21.27,22.85-1.37-.61a39.74,39.74,0,0,1-.65-5.11q0-123.24,0-246.47c0-6.62.21-6.86,6.65-6.87q111.49,0,223,0c5.33,0,5.72.23,5.43,5.22-.59,10.2,2.5,19.73,4.81,29.43q4.21,17.7,8,35.5c.5,2.34,1.35,3.76,3.76,3.72,7.46-.12,12.19,3.68,16.21,9.74,8.8,13.27,22.55,15,35.34,5.19,7.52-5.76,15-11.6,23.08-16.56,4.41-2.73,9.78-4.28,14.93-5.3a23,23,0,0,1,11.24.87C643.15,209.76,649.7,217.2,656.16,225.33Z" transform="translate(-191 -63)"/><path class="cls-2" d="M790.06,343c-1.91-6.79-3-13-5.41-18.72-4.49-10.77-14-15.95-24.54-18.75a163.1,163.1,0,0,1-34.85-13.37c-3.35-1.78-4.94-.36-6.35,2.27-2.78,5.15-1.14,12.39,4,15.42a57.71,57.71,0,0,0,11.46,4.74c5.08,1.65,8.25,4.91,8.9,10.2a12.08,12.08,0,0,1-5.69,12c-1.82,1.21-4.77,1.08-7.18,1-10.48-.41-21-.86-31.42-1.69-3.82-.3-5.79,1.19-6.43,4.53a54.69,54.69,0,0,0-1.33,11.3c.11,5.22-2.14,8.93-6.64,10.65-2.67,1-6.8,1.48-8.78.08s-3.06-5.48-2.93-8.31c.19-4.24,1.78-8.42,2.79-12.61.46-1.92,1-3.82,1.67-6.53-7.21,0-14-.13-20.68.13-1.06,0-2.69,1.7-3,2.86a97.27,97.27,0,0,0-2.46,14.06c-.45,5.38-3.21,9.62-8.25,11.28-5.57,1.83-9.65-.79-10.24-6.62a8.88,8.88,0,0,1,.06-3.48c2.68-8.36,5-16.86,8.39-24.95,2.67-6.45,8.57-9,15.44-9.09,4.64-.05,9.27,0,14.44,0-.57-7.38,1.33-14.08,4.67-20.58,1.7-3.31-.94-7.63-4.82-8.34a94.57,94.57,0,0,0-11.43-.89c-12.58-.74-21.13-7.25-26.22-18.51-2-4.51-.77-7.42,3.48-10.05a77.71,77.71,0,0,0,9.31-6.59c6.76-5.72,14.49-6.63,22.51-4.25,4.37,1.3,7.36,1,10.54-2.45,1.87-2,4.89-3,7.4-4.48,1.05,2.84,2.89,5.64,3,8.52.37,8.64,5.24,13.91,12.31,17.38,12.65,6.19,26,9.1,40.19,7.43,19.83-2.33,39.66-4.7,59.52-6.75,11.27-1.16,22.66-2.11,33.65,1.76,16.21,5.71,26.91,16.71,31.31,33.53.45,1.73,1,3.45,1.47,5.17,6.65-2,10.41-8.22,8.48-14.82-1.53-5.23-4.16-10.12-6.12-15.23-3.15-8.2-6.83-16.28-9.07-24.73-3.55-13.46-.41-25.4,11.55-34.93l-216.9-80,.2-1.26a10.5,10.5,0,0,1,2.51-.63q173.22,0,346.44.08c10.73,0,10.24-1.16,10.24,10.33q0,119,0,238c0,12.09,1.33,10.78-10.58,10.79q-53,.07-106,0c-1.39,0-2.78-.18-4.17-.28l-.21-1.22c1.59-.65,3.15-1.39,4.78-1.93,20.92-7,41.25-15.32,59.2-28.4,10.77-7.85,21.09-16.41,28.11-28,5.73-9.5,7.21-20,5.28-30.83-5.23-29.31-23.17-49.12-48.95-61.67C928,238.2,912,233.74,896.52,228.1a4,4,0,0,0-2.8-.14c-3.64,1.9-7.25,3.89-10.74,6.06-5.34,3.32-7.12,8.69-5.86,14.31,1.62,7.24,4.27,14.27,6.8,21.28,2.93,8.11,7,15.89,9.21,24.16,5,18.21-5.82,31.13-20.34,36.79a168.24,168.24,0,0,1-24.41,7c-17.61,3.94-35.58,4.89-53.56,5.6A44.85,44.85,0,0,1,790.06,343Z" transform="translate(-191 -63)"/><path class="cls-2" d="M585.5,468.58c2.39-3.7,4.46-6.82,6.43-10,3.25-5.23,6.31-10.58,9.71-15.71.88-1.32,2.7-2.78,4.15-2.84,6.79-.3,13.59-.13,20.9-.13.16,2.08.38,3.67.39,5.25q0,34,0,68c0,5.51-.05,5.53-5.52,5.57-4,0-8-.14-12,.08-3.7.2-5-1.29-5-5,.17-10.66.1-21.32.12-32,0-1.45,0-2.9,0-4.34l-1.09-.4-18.53,27.83L566.45,476.7a41.78,41.78,0,0,0-.53,4.31c0,10.83,0,21.65,0,32.48,0,5.17-.07,5.19-5.39,5.22-4,0-8-.13-12,.06-3.42.16-4.76-1.12-4.69-4.61.16-8.16,0-16.32,0-24.48q0-22.23,0-44.47c0-5.13.16-5.25,5.39-5.3,4.66,0,9.33.14,14-.07,3.05-.14,4.88,1,6.41,3.63,3.95,6.75,8.15,13.35,12.28,20C582.87,465,584,466.39,585.5,468.58Z" transform="translate(-191 -63)"/><path class="cls-2" d="M865.84,477.51V440c6.89,0,13.32-.11,19.74.14.84,0,2.13,1.89,2.29,3a63.7,63.7,0,0,1,.25,8.48q0,30,0,59.94c0,7.06-.1,6.39-6.76,7.25-9.39,1.22-15.52-2.13-20.68-9.94-5.86-8.86-12.87-17-19.4-25.38-1.21-1.56-2.53-3-4.68-5.6-.17,2.85-.35,4.53-.35,6.22,0,9.66,0,19.32,0,29,0,5.36-.18,5.5-5.69,5.55-3.66,0-7.33,0-11,0-5.27-.05-5.62-.36-5.62-5.71,0-15.82,0-31.64.06-47.46,0-7,.09-14-.08-21-.08-3.39,1.1-5,4.6-4.66a8.09,8.09,0,0,0,1,0c15.22-.23,15.23-.23,24.57,11.81q8.72,11.24,17.43,22.49c1,1.29,2.11,2.49,3.17,3.73Z" transform="translate(-191 -63)"/><path class="cls-2" d="M392.91,607.13c-.62-21.51,18.41-40.94,41.23-40.61,22.62.32,40.91,18,41,40.41.07,22.81-18.37,41-41.52,41A41,41,0,0,1,392.91,607.13Zm60.23,0c0-10.56-8.24-18.66-19.15-18.74a18.88,18.88,0,0,0-19.19,19.26c0,9.72,9.11,18.64,19.18,18.46C444.47,625.9,453.58,617.11,453.14,607.11Z" transform="translate(-191 -63)"/><path class="cls-2" d="M971.12,459a11.07,11.07,0,0,0-.75,1.77c-1,8.75-.88,8.93,7.91,9,8.17,0,16.33.11,24.5,0,3.19-.05,4.59,1.06,4.4,4.34a68.11,68.11,0,0,0,0,9c.28,3.82-1.53,4.94-5,4.89-9-.12-18,.12-27-.12-4.07-.11-5.21,1.56-5.09,5.32.17,5.31.28,5.58,5.68,5.57,10.17,0,20.33.1,30.5-.08,3.91-.07,5.48,1.37,5.22,5.28a89.65,89.65,0,0,0,0,10c.15,3.41-1.25,4.81-4.69,4.77-8.16-.11-16.33,0-24.5,0-10,0-20-.09-30,0-3.6.05-5-1.15-5-4.91.12-22.83,0-45.66.08-68.5,0-5.4.17-5.5,5.72-5.5q26.25,0,52.5,0c5.52,0,5.56.08,5.6,5.58,0,3-.19,6,0,9,.22,3.47-1.14,4.7-4.63,4.64-10-.17-20-.07-30-.08Z" transform="translate(-191 -63)"/><path class="cls-2" d="M334.37,489.2H308.9c-.17,1.86-.43,3.46-.46,5.07-.06,4.33,0,8.66,0,13-.1,12.4,1.48,11.11-11.36,11s-11.29,1.64-11.32-11.58q-.06-30.74-.07-61.48c0-5.21,0-5.27,5.19-5.33,5.61-.06,11.23,0,17.52,0,0,7.77,0,14.88,0,22,0,6.93,0,6.94,6.85,7,4.67,0,9.33.06,14,0,5.18-.07,5.41-.3,5.44-5.35,0-6.33.13-12.67,0-19-.09-3.44,1.17-4.79,4.65-4.64,4.66.21,9.33.14,14,0,2.91-.08,4.21.9,4.19,4q-.15,35-.07,70c0,3.26-1.48,4.45-4.57,4.4-4.5-.07-9-.09-13.49,0-3.39.1-4.8-1.24-4.71-4.71.17-6.16.06-12.33,0-18.49C334.64,493.3,334.49,491.5,334.37,489.2Z" transform="translate(-191 -63)"/><path class="cls-2" d="M782.63,568.53c0,5.3.07,10.57,0,15.84-.06,2.91-2.33,2.75-4.36,2.75H742.45v10.4c2.3.11,4.56.3,6.82.31,8.33,0,16.66.12,25,0,3.42-.06,4.91,1.19,4.75,4.64a73.74,73.74,0,0,0,0,8.49c.24,3.46-1.2,4.73-4.64,4.69-9-.12-18-.07-27,.08-1.69,0-4.64.55-4.81,1.33a20.61,20.61,0,0,0,0,8.29c.15.74,2.78,1.38,4.28,1.39,10.33.13,20.66,0,31,.1,5.34,0,5.59.31,5.67,5.7,0,3.17,0,6.33,0,9.5.09,2.86-1,4.35-4,4.34q-28-.07-56,0c-2.94,0-4.12-1.21-4.11-4.21q.12-35,0-70c0-2.82.77-4.26,4-4.24,18.66.12,37.32.07,56,.1A23.3,23.3,0,0,1,782.63,568.53Z" transform="translate(-191 -63)"/><path class="cls-2" d="M487.52,465.71c-.42,8.63-.2,17.35-1.39,25.87-2.41,17.13-16.2,29-33.66,29.81-23.1,1.12-39.55-14.59-39.53-37.75,0-12.82,0-25.65.06-38.47,0-5.16.15-5.23,5.4-5.28,4.16,0,8.33,0,12.49,0,5.07.06,5.21.19,5.22,5.47,0,13-.07,26,0,39a13.85,13.85,0,0,0,21.38,11.83c4.95-3,6.48-7.82,6.5-13.24.05-12.32,0-24.65,0-37,0-6,.06-6,6.13-6.08,4.16,0,8.33.13,12.49-.05,3.27-.15,4.45,1.21,4.4,4.38-.12,7.16,0,14.32,0,21.48Z" transform="translate(-191 -63)"/><path class="cls-2" d="M763.22,518.14c-8,0-14.92.18-21.85-.17-1.2-.06-3-2.23-3.3-3.69-1.21-5.09-4.31-6.28-9.14-6-7,.36-14,.24-21,0-3.36-.1-5.57,1-6.23,4.29-1,5-4.11,6.09-8.71,5.83-5.39-.31-10.81-.07-17.21-.07,1.63-4.18,2.74-7.24,4-10.23,9-21.3,18-42.57,26.88-63.91,1.41-3.39,3.2-5,7.05-4.66a66.75,66.75,0,0,0,11.48,0c3.94-.31,6,1.24,7.51,4.88,7.48,18.14,15.19,36.18,22.83,54.26,2,4.75,4,9.48,6,14.25C762.11,514.22,762.44,515.63,763.22,518.14ZM710.78,489.6h17.54l-8.27-21-1.17.21Z" transform="translate(-191 -63)"/><path class="cls-2" d="M335.43,593c-7.1-3.9-13.61-7.7-21.49-7.36-1.16.05-2.56-.22-3.43.33-1.41.88-3.28,2.2-3.46,3.54a5,5,0,0,0,2.44,4.16c4.48,1.72,9.21,2.75,13.79,4.2,4.43,1.41,9,2.64,13.16,4.62,7.46,3.55,11.78,9.34,11.94,18.06.17,9.22-2.86,16.57-10.69,21.74-6.39,4.22-13.69,5.48-21,5.44-11.49-.07-22.42-2.9-32.11-9.49-4.91-3.34-5-3.79-1.29-8.29,2-2.45,4.12-4.82,6-7.38s3.77-3.24,6.57-1.13a35,35,0,0,0,19.44,7,22,22,0,0,0,4.43-.21c2.7-.4,6.1-1.15,5.75-4.25-.22-1.9-3.06-4.26-5.21-5-5.78-2-11.85-3.25-17.77-4.91-16-4.48-23-17.38-17.21-31.72,3.85-9.53,11.81-13.94,21.29-15.29,12.48-1.78,24.62-.24,35.59,6.7,4.67,3,4.75,3.48,1.44,8Z" transform="translate(-191 -63)"/><path class="cls-2" d="M592.42,631.21c-7.28,12.06-25.76,19.65-42.39,15.21a41.39,41.39,0,0,1-30.37-36.76c-1.23-19.4,11.43-35.59,26.63-40.93,16.06-5.64,34.78-.93,44.08,11.73-4.62,4.23-9.22,8.7-14.17,12.74-.73.6-3.34-.39-4.61-1.3-6.51-4.6-13.4-5.13-20.23-1.46s-10.27,9.81-9.84,17.72c.41,7.53,4.48,12.94,11.07,16,6.88,3.18,13.88,2.29,19.62-2.72,3.14-2.74,5.14-2.44,8,0C584,624.86,588.21,627.89,592.42,631.21Z" transform="translate(-191 -63)"/><path class="cls-2" d="M936.71,568c8.63,0,16.22-.14,23.8.14,1.21,0,2.7,1.76,3.47,3.06,3.47,5.87,6.72,11.87,10.07,17.81,1,1.71,2,3.37,3.57,5.9,2.78-4.81,5.13-8.93,7.54-13,2.61-4.44,4.28-10.46,8.17-12.81s9.94-1,15-1.13c2.91-.1,5.82,0,8.73,0l.6,1.26c-3.91,6.48-7.79,13-11.73,19.42-5.11,8.38-10.35,16.68-15.34,25.13a13.13,13.13,0,0,0-1.68,6.06q-.32,11-.08,22c.07,3.43-1.12,4.81-4.62,4.64-4.65-.23-9.32-.17-14-.1-3.16,0-4.53-1.32-4.48-4.5.09-6.49-.15-13,.08-19.48a18.45,18.45,0,0,0-3.08-10.78c-8.06-13-15.92-26.16-23.85-39.27C938.36,571.36,937.89,570.31,936.71,568Z" transform="translate(-191 -63)"/><path class="cls-2" d="M865,568c9.66,0,19.33.16,29-.07,4-.1,5.38,1.46,5.07,5.28a60,60,0,0,0-.07,9c.28,3.85-1.15,5.54-5.12,5.31-3.65-.21-7.33,0-11,0-7,0-7,0-7,7.19q0,22.49,0,45c0,6.47-.3,6.74-6.78,6.78-3.66,0-7.35-.19-11,.08-4,.3-5.18-1.43-5.15-5.25.13-15.16,0-30.32,0-45.48,0-8.53,1-8.37-8.46-8.31-3.33,0-6.67-.11-10,0-3.11.11-4.65-1-4.5-4.33a109.72,109.72,0,0,0,0-11c-.19-3.43,1.45-4.23,4.51-4.2C844.68,568,854.84,568,865,568Z" transform="translate(-191 -63)"/><path class="cls-2" d="M965,722.47q0,13.18,0,26.37c0,2.33,0,4.67,0,7,0,6.34-4.05,9.08-9.88,6.29-1.23-.59-2.06-3.22-2.08-4.92-.17-12.5-.09-25-.09-37.5,0-5,.1-10,0-15-.09-3.24,1.32-4.24,4.45-4.46,4.55-.32,7.75.93,10.6,4.78,8.12,11,16.65,21.65,25,32.44.49.64,1.06,1.21,2.47,2.8.13-2.76.28-4.45.29-6.14,0-9.67,0-19.33,0-29,0-4.59.4-4.8,5.95-4.82s6,.19,6,4.78c.06,17,.07,34-.05,51,0,2.22,1.41,5.77-2.1,6.26s-7.23,1.34-10-2.4c-8.31-11-16.81-21.95-25.26-32.89-1.3-1.69-2.68-3.31-4-5Z" transform="translate(-191 -63)"/><path class="cls-2" d="M880.5,731.53c1.11,15.92-12.91,32.71-33.12,32.2-18-.46-31.56-13.83-31.55-32.21s14.06-32.62,32.71-32.37C868.69,699.41,881.83,715.8,880.5,731.53Zm-31.88-21c-11.45-.09-20.39,8.86-20.59,20.6s8.95,21.5,20.3,21.59c11,.08,20.39-9.34,20.06-21.19S860.13,710.89,848.62,710.51Z" transform="translate(-191 -63)"/><path class="cls-2" d="M870.26,868.29V879h-5q-18.25,0-36.5,0c-5.16,0-5.34-.15-5.35-5.33q0-25.5,0-51c0-5.74.22-5.92,5.94-5.94q17.75-.07,35.5,0c4.88,0,5.44.72,5.33,6.08-.08,4.2-.67,4.68-5.66,4.7-8.17,0-16.33.17-24.5,0-3.35-.06-4.85.9-4.72,4.52.41,11.1-1.61,10.11,10.18,10.19,5.33,0,10.67.18,16,0,4.33-.15,4.74,2.26,4.71,5.72s-.69,5.34-4.68,5.22c-7.16-.21-14.33.07-21.5-.09-3.43-.08-4.74,1.18-4.73,4.64,0,12.54-.85,10.33,10.25,10.51C853.66,868.39,861.77,868.29,870.26,868.29Z" transform="translate(-191 -63)"/><path class="cls-2" d="M642.09,607.24c0-11.49.12-23-.07-34.46-.06-3.72,1.17-5.06,4.88-4.86,4.65.25,9.32.12,14,0,2.93-.06,4.21,1.09,4.2,4.11q-.09,35,0,69.92c0,3.26-1.58,4.43-4.62,4.39-4.66-.06-9.33-.2-14,.05-3.67.2-4.52-1.42-4.48-4.73.13-11.49,0-23,0-34.46Z" transform="translate(-191 -63)"/><path class="cls-2" d="M414.29,877.73c3.42-7.91,6.81-15.81,10.25-23.67,4.93-11.28,10-22.5,14.8-33.84,1.32-3.1,3.21-4.28,6.48-4.16s6.16-.05,7.79,3.78c8.18,19.12,16.55,38.15,24.83,57.23.11.25-.05.63-.18,1.79-3.29,0-6.7.11-10.09-.08-.8,0-1.66-1-2.27-1.66a8.25,8.25,0,0,1-1.08-2.24c-4.5-10.62-4.49-10.63-15.9-10.66-4.16,0-8.34.2-12.49,0-3-.18-4.68,1.12-5.71,3.7-.62,1.54-1.22,3.09-1.87,4.63C425.87,879.5,422.78,880.7,414.29,877.73Zm32.64-45.08-1.29.18-8.33,19.87H455.6Z" transform="translate(-191 -63)"/><path class="cls-2" d="M323.2,715.78c-4.59-1.8-8.56-3.44-12.6-4.88a12,12,0,0,0-3.95-.43c-5.45,0-8.61,2-9.26,5.74-.61,3.48,1.52,6.13,6.81,7.87,4.41,1.46,9,2.39,13.39,3.91,10.19,3.53,14.37,9.36,13.46,18.32-.95,9.37-6.73,15.42-16.86,16.85a38.17,38.17,0,0,1-28.33-7c-2.71-1.93-2.86-3.56-.93-6.1,3.57-4.71,4.34-4.86,7.73-3.13a72.5,72.5,0,0,0,13.67,5.65c2.49.68,5.58-.15,8.24-.89s4.86-3,4.21-5.93c-.47-2.14-1.91-4.79-3.7-5.76-3.3-1.77-7.19-2.45-10.82-3.62a88.59,88.59,0,0,1-9.91-3.34c-6.17-2.83-9.28-7.89-9.27-14.7,0-7.51,3.34-13.29,10.18-16.38,11-5,21.4-2.67,31.33,3.39,2.41,1.47,2.67,3.15.95,5.31-1,1.3-1.94,2.7-3,4A7.19,7.19,0,0,1,323.2,715.78Z" transform="translate(-191 -63)"/><path class="cls-2" d="M741.68,717.74a98.77,98.77,0,0,0-8.63-5.25c-7.59-3.63-16.68-2.11-22.21,3.45-5.81,5.84-7.73,16.94-4.27,24.7s10.9,12.79,19,11.79a32.14,32.14,0,0,0,11.89-4.49c4.89-2.87,4.68-3.25,8.45.79,1,1.07,1.91,2.24,3.06,3.6-4.67,6.52-11.12,9.84-18.49,10.88-13.26,1.87-25-1.21-32.71-13.15s-7.89-24.24-.52-36.25c9.73-15.83,33.24-19.52,47.86-7.88,4,3.16,4,3.67.71,7.37C744.55,714.77,743.17,716.17,741.68,717.74Z" transform="translate(-191 -63)"/><path class="cls-2" d="M281.68,816.73c4,0,7.26-.47,10.23.19,1.65.36,3.51,2.35,4.2,4,5.08,12.48,9.89,25.07,14.79,37.62.29.75.67,1.46,1.53,3.3,2.27-5.51,4.22-10.1,6-14.74,3.17-8,6.25-16.13,9.37-24.2,2.45-6.32,2.45-6.33,9.37-6.23a33,33,0,0,1,3.49.18c.45.05.86.44,1.84,1-1.62,4.25-3.15,8.56-4.9,12.79-6.1,14.75-12.42,29.42-18.32,44.25-1.48,3.72-3.73,4.51-7.2,4.47-3.23,0-5.44-.58-6.88-4.19-7-17.61-14.43-35.07-21.66-52.6C283,821.09,282.57,819.49,281.68,816.73Z" transform="translate(-191 -63)"/><path class="cls-2" d="M952.23,818.08c7.57-3.24,12.69-1.84,16.52,4.16,4.19,6.58,8.37,13.17,12.9,20.31a36.1,36.1,0,0,0,2.65-3.15c3.63-5.58,7.56-11,10.68-16.87,2.47-4.63,5.71-6.56,10.76-5.87,1.62.22,3.27.25,5.87.43-1.23,2.4-2,4.3-3.12,6-5.74,8.78-11.47,17.57-17.39,26.22a17.55,17.55,0,0,0-3.34,11.2c.23,4.82-.07,9.66,0,14.49.07,3-1.17,4.28-4.18,3.94a19.19,19.19,0,0,0-3.49,0c-3.26.23-4.49-1.33-4.36-4.49.13-3.33-.36-6.72.1-10C976.93,857,974,851,969.8,845.11c-5.41-7.58-10.37-15.48-15.5-23.26C953.59,820.76,953,819.56,952.23,818.08Z" transform="translate(-191 -63)"/><path class="cls-2" d="M491.69,731.49c0-8.83-.06-17.66,0-26.49,0-4.46.62-4.62,6.61-4.74,3.62-.07,5.43.73,5.36,5-.25,13.82-.1,27.65-.13,41.48,0,4.8.19,5.07,5.05,5.1,7.5,0,15,.14,22.49-.09,3.83-.11,5,1.51,4.81,5.06-.17,3.1.15,6-4.51,5.94-11.66-.19-23.32-.15-35,0-3.77,0-4.87-1.65-4.8-5.18.16-8.66.05-17.33.05-26Z" transform="translate(-191 -63)"/><path class="cls-2" d="M564,847.89c0-8.65-.07-17.31,0-26,.05-5.11.31-5.24,6.06-5.2s5.81.09,5.83,5.39c.05,13.48,0,27,0,40.44,0,5.24,0,5.28,5.31,5.31,7.32,0,14.65,0,22,.06,4.49.05,5,.74,5,5.37-.06,5.2-.36,5.61-5.15,5.63-11.48,0-23-.09-34.45.07-3.51,0-4.68-1.22-4.62-4.65C564.06,865.53,564,856.71,564,847.89Z" transform="translate(-191 -63)"/><path class="cls-2" d="M693.88,847.62c0-8.66-.08-17.33,0-26,.06-4.64.61-5,5.94-4.95,5.48,0,5.9.27,5.93,4.88.09,13.16.06,26.33.08,39.49,0,6.82,0,6.84,7,6.87s13.66-.1,20.49,0c4.49.08,4.62.62,4.77,6.1.1,3.6-1,5.06-4.82,5-11.33-.22-22.66-.07-34-.14-5.31,0-5.42-.19-5.43-5.77q0-12.75,0-25.49Z" transform="translate(-191 -63)"/><path class="cls-2" d="M606.94,731.52c0-8.81-.06-17.62,0-26.42,0-4.56.44-4.8,5.93-4.81s6,.22,6.05,4.7c.06,17.78,0,35.56,0,53.34,0,3.28-1.24,4.57-4.46,4.16a12.69,12.69,0,0,0-3,.07c-3.5.39-4.71-1.2-4.65-4.62C607,749.14,606.94,740.33,606.94,731.52Z" transform="translate(-191 -63)"/><path class="cls-2" d="M401.9,700.9c11.22-1.77,11.4-1.62,11.39,9q0,22.7,0,45.39c0,7.32,0,7.33-7.47,7.21-1.14,0-2.28-.12-3.91-.21Z" transform="translate(-191 -63)"/></g></svg>