<svg id="Layer_1" data-name="Layer 1" xmlns="http://www.w3.org/2000/svg" xmlns:xlink="http://www.w3.org/1999/xlink" viewBox="0 0 4528.45 1518.28"><defs><style>.cls-1{fill:url(#linear-gradient);}.cls-2{fill:#00b4ac;}.cls-3{fill:url(#linear-gradient-2);}.cls-4{fill:#4d4d4d;}</style><linearGradient id="linear-gradient" x1="-3834.21" y1="3212.67" x2="-2907.49" y2="2285.95" gradientTransform="matrix(1, 0, 0, -1, 4435.67, 3994)" gradientUnits="userSpaceOnUse"><stop offset="0.16" stop-color="#00b4ac"/><stop offset="0.72" stop-color="#f76e73"/></linearGradient><linearGradient id="linear-gradient-2" x1="-3862.31" y1="3010.96" x2="-3236.77" y2="2385.42" xlink:href="#linear-gradient"/></defs><title>tpf</title><path class="cls-1" d="M1142.36,523.46c17.61,2.64,35.38,4.6,52.88,8.09,218.14,43.15,370.17,168.16,450.81,374.67,84.61,216.81,30.72,465.36-131.94,633.2a611.1,611.1,0,0,1-291.59,169.75c-8.57,2.22-10.58,5.66-10.58,14.22.32,97.83,0,195.66,0,293.55v7.35H1061.87V1730.63h-61.61v293.92H846.91c0-3.81-.53-7.51-.53-11.26q0-430.3,0-860.54c0-78.05,22.58-147,75.41-205.44,108.78-120.41,300.79-119.62,403.64,1.9,86.2,101.9,77.47,252.4-20.15,338.76a216,216,0,0,1-145.85,56.32,49.88,49.88,0,0,1-10.58-1.06,224.85,224.85,0,0,0,84.13-28.61c95.45-55.68,129-177.63,72.61-268.9-36.17-58.54-89.58-88.15-158.64-84.88-80.75,3.81-140.24,67.74-144.84,133.95-1,14.07-2.06,28.19-2.06,42.31v450.34c17.08,0,33.58.48,50,0,50.08-1.8,100.47-2.64,149.44-14.33,174.51-41.72,297.93-146,357.16-314.59,71.71-205.07,25.81-388.52-127.55-540.61-111.05-110.26-249.81-156.21-406.08-143.73C786.2,593,587.37,769.83,540.57,1001.66c-6,29.61-8.57,59.91-12.74,89.9v-46.64c2.43-17,4.39-34.06,7.35-51A567,567,0,0,1,998.47,531.86c19-3.33,38.13-5.66,57.22-8.41Z" transform="translate(-527.56 -515.21)"/><path class="cls-2" d="M1055.42,523.46c-19.09,2.8-38.23,5.29-57.22,8.41A567,567,0,0,0,534.91,993.94c-3,16.92-4.92,34-7.35,51V523.46Z" transform="translate(-527.56 -515.21)"/><path class="cls-3" d="M1482.92,1089.08c-3.91-21.15-6.35-39.87-10.58-57.9-26-105.76-86-186.57-180.64-241.09-117.82-68-272.39-58.65-379.42,23.32-66.52,50.92-109.62,117.19-124.38,200.1a425.81,425.81,0,0,0-5.29,74q-.48,461.55,0,923v14.28H629.25c0-3.6-.58-7.3-.58-11,0-298.52-2.17-597,.74-895.49C631.26,927.58,722,788.6,894.24,705.31c62.08-30,129-40.3,197.83-37a411.1,411.1,0,0,1,380.16,309.2A385.51,385.51,0,0,1,1482.92,1089.08Z" transform="translate(-527.56 -515.21)"/><path class="cls-4" d="M1916.76,531.07H2261l11.53,74.83h-136.8V944.6h-95.45V605.84H1916.76Z" transform="translate(-527.56 -515.21)"/><path class="cls-4" d="M2612.47,756.66V944.6H2517.6V764a54.68,54.68,0,0,0-9.41-33.74,32.52,32.52,0,0,0-27.66-12.48q-25.54,0-69.33,25.54V944.6h-94.87V521.92l94.87-6.72V668.56a278.85,278.85,0,0,1,49.13-20.73,161.81,161.81,0,0,1,48.33-7.93Q2612.47,639.9,2612.47,756.66Z" transform="translate(-527.56 -515.21)"/><path class="cls-4" d="M2947.58,794.31v28.61H2758.42q13.38,51.72,77.84,51.72a169.22,169.22,0,0,0,83.34-23.11l26.76,66.31a166.67,166.67,0,0,1-50.77,24.33,226.64,226.64,0,0,1-66,9.1q-80.91,0-127.39-40.77t-46.54-113.11a170.23,170.23,0,0,1,19.46-83,134.74,134.74,0,0,1,54.41-54.73,163.93,163.93,0,0,1,79.8-19.09,134.06,134.06,0,0,1,76,20.68,127.87,127.87,0,0,1,46.54,55.31A188.63,188.63,0,0,1,2947.58,794.31ZM2757.2,768.77h99.73a68.75,68.75,0,0,0-15.86-36.17,43.42,43.42,0,0,0-33.74-13.7,45.85,45.85,0,0,0-33.74,13.7,58.17,58.17,0,0,0-16.39,36.22Z" transform="translate(-527.56 -515.21)"/><path class="cls-4" d="M2055.41,1352v132.2h-94.87V1070.67h152.67a220.41,220.41,0,0,1,84.61,15.49,133.37,133.37,0,0,1,59.91,47.12q22.21,31.73,22.21,78.48a126,126,0,0,1-23.69,77.84,142,142,0,0,1-62.93,47.12,230.41,230.41,0,0,1-85.46,15.49Zm54.73-204.92h-54.73V1276h55.9a72.61,72.61,0,0,0,49.55-16.71,58.86,58.86,0,0,0,19.78-45.32q0-32.84-18.56-49.87t-51.93-17Z" transform="translate(-527.56 -515.21)"/><path class="cls-4" d="M2372.86,1148.3a52.88,52.88,0,0,1-52.3-52.3,51,51,0,0,1,15.49-37.39,50.29,50.29,0,0,1,37-15.49A52.88,52.88,0,0,1,2426,1096a50.29,50.29,0,0,1-15.49,37A51,51,0,0,1,2372.86,1148.3Zm48,40.77v295h-95.45v-295Z" transform="translate(-527.56 -515.21)"/><path class="cls-4" d="M2585.13,1054.65V1484h-94.87V1061.37Z" transform="translate(-527.56 -515.21)"/><path class="cls-4" d="M2756,1054.65V1484h-94.71V1061.37Z" transform="translate(-527.56 -515.21)"/><path class="cls-4" d="M2895.86,1491.29l8.67-20.1-104-267,89.9-26.12,64.46,183.66L3015.05,1189h97.3l-130.72,331.46a142.36,142.36,0,0,1-50.18,61.13,212.28,212.28,0,0,1-79.32,36.17l-32.21-75.41a436.37,436.37,0,0,0,51.08-24.91Q2890.36,1505.89,2895.86,1491.29Z" transform="translate(-527.56 -515.21)"/><path class="cls-4" d="M3245.51,1307.63V1484h-95.45V1189.66h48.65l26.76,42a261.82,261.82,0,0,1,49.23-29.51,121.1,121.1,0,0,1,50.45-13.06l18.88,76a126.92,126.92,0,0,0-49,11.85A190.39,190.39,0,0,0,3245.51,1307.63Z" transform="translate(-527.56 -515.21)"/><path class="cls-4" d="M2055.41,1783.2h128.34L2194.7,1858H2055.41v165.41h-94.87v-412.9h251.77l10.95,74H2055.41Z" transform="translate(-527.56 -515.21)"/><path class="cls-4" d="M2553.19,1958.29a139.13,139.13,0,0,1-58.17,53.2,186.57,186.57,0,0,1-84.61,18.56,189.37,189.37,0,0,1-84.61-17.93,131.46,131.46,0,0,1-56.85-52.88,164.46,164.46,0,0,1-20.36-84.24,158.65,158.65,0,0,1,21.15-82.71,140.35,140.35,0,0,1,57.8-54.1,182.13,182.13,0,0,1,84.24-18.88,186.09,186.09,0,0,1,84.61,18.56,134.59,134.59,0,0,1,57.16,53.83,166.26,166.26,0,0,1,20.36,84.61A155.52,155.52,0,0,1,2553.19,1958.29ZM2458,1930.9q17.61-20.68,17.61-54.73a87.41,87.41,0,0,0-17.35-55.95,55.69,55.69,0,0,0-45.9-21.89,58.75,58.75,0,0,0-47.59,21.15q-17.66,21.15-17.61,55.63t17.35,55.63a57.22,57.22,0,0,0,46.54,21.15,58.49,58.49,0,0,0,47-20.94Z" transform="translate(-527.56 -515.21)"/><path class="cls-4" d="M2818,1929.73V1728.78h95.5v295h-52.88l-22.47-31a304.81,304.81,0,0,1-58.17,29.19,166.69,166.69,0,0,1-58.7,11.58q-55.37,0-80-31.73T2616.7,1916V1728.73h95.5v179.8a57.22,57.22,0,0,0,9.1,34.37,32.36,32.36,0,0,0,28,12.48Q2776.66,1955.86,2818,1929.73Z" transform="translate(-527.56 -515.21)"/><path class="cls-4" d="M3072.22,1822.07v201.32h-95.45v-295h59l16.45,31a256.54,256.54,0,0,1,58.17-29.51,175.56,175.56,0,0,1,59.28-11.26q54.73,0,79.32,31.31t24.64,85.46v187.94H3178V1842.74a56.05,56.05,0,0,0-9.1-33.74,31.73,31.73,0,0,0-27.39-12.48Q3116.06,1796.52,3072.22,1822.07Z" transform="translate(-527.56 -515.21)"/><path class="cls-4" d="M3615.89,2023.39h-48.65l-17.61-23.74a158.29,158.29,0,0,1-39.56,22.21,120.83,120.83,0,0,1-43.79,8.2q-68.75,0-109.46-40.14t-40.77-113.7q0-73.56,41.35-115.23t112.53-41.67a116.82,116.82,0,0,1,50.45,12.16V1600.76l95.45-6.72Zm-185.09-90.32a54.68,54.68,0,0,0,45.64,21.15q20.09,0,43.79-17V1811.33a79.75,79.75,0,0,0-46.22-15.18,51.45,51.45,0,0,0-43.2,21.89q-16.39,21.89-16.39,57.75t16.6,57.27Z" transform="translate(-527.56 -515.21)"/><path class="cls-4" d="M3714.41,1819.63l-25.54-73a224.85,224.85,0,0,1,55.31-19.14,282,282,0,0,1,63.46-8.2,142.78,142.78,0,0,1,65.68,14.6,105.34,105.34,0,0,1,44.1,41,117.4,117.4,0,0,1,15.49,60.5v187.94H3880l-22.47-31q-32.84,37.7-72.39,37.7-53.52,0-80.86-26.44t-27.71-72.08q0-45,30.41-67.48t83.29-22.47h46.22a43.41,43.41,0,0,0-12.48-30.09,42.31,42.31,0,0,0-30.09-10.58,171.7,171.7,0,0,0-40.14,5.29A214.55,214.55,0,0,0,3714.41,1819.63Zm42.31,111.05a25.7,25.7,0,0,0,7.93,18.88,28,28,0,0,0,20.68,7.93q26.76,0,51.72-23.11v-35.91h-46.22a33.9,33.9,0,0,0-24.64,9.15,30.78,30.78,0,0,0-9.2,23.32Z" transform="translate(-527.56 -515.21)"/><path class="cls-4" d="M4105.42,1735.13h65.68l17,74h-82.71v98.52A51.45,51.45,0,0,0,4116,1941.1a34.74,34.74,0,0,0,28.61,12.8,81.55,81.55,0,0,0,37.7-9.73l27.34,66.31a95.55,95.55,0,0,1-31.73,15.23,132.53,132.53,0,0,1-39.56,6.66q-55.95,0-91.8-29.19t-36-82.5V1809.64h-42.31v-74h42.31v-74.83l94.87-14.6Z" transform="translate(-527.56 -515.21)"/><path class="cls-4" d="M4295.79,1687.69a52.88,52.88,0,0,1-52.3-52.3A51,51,0,0,1,4259,1598a50.29,50.29,0,0,1,37-15.49,52.88,52.88,0,0,1,52.88,52.88,50.29,50.29,0,0,1-15.49,37A51,51,0,0,1,4295.79,1687.69Zm48,40.77v295h-95.45v-295Z" transform="translate(-527.56 -515.21)"/><path class="cls-4" d="M4693.19,1958.29a139.13,139.13,0,0,1-58.17,53.2,186.57,186.57,0,0,1-84.61,18.56,189.36,189.36,0,0,1-84.61-17.93,131.46,131.46,0,0,1-56.85-52.88A164.46,164.46,0,0,1,4388.6,1875a158.65,158.65,0,0,1,21.15-82.71,140.35,140.35,0,0,1,57.8-54.1,182.13,182.13,0,0,1,84.24-18.88,186.09,186.09,0,0,1,84.61,18.56,134.58,134.58,0,0,1,57.17,53.83,166.26,166.26,0,0,1,20.36,84.61A155.53,155.53,0,0,1,4693.19,1958.29ZM4598,1930.9q17.61-20.68,17.61-54.73a87.41,87.41,0,0,0-17.35-55.95,55.68,55.68,0,0,0-45.9-21.89,58.75,58.75,0,0,0-47.59,21.15q-17.66,21.15-17.61,55.63t17.35,55.63a57.22,57.22,0,0,0,46.54,21.15,58.49,58.49,0,0,0,47-20.94Z" transform="translate(-527.56 -515.21)"/><path class="cls-4" d="M4854.64,1822.07v201.32h-95.45v-295h59l16.45,31a256.54,256.54,0,0,1,58.17-29.51,175.57,175.57,0,0,1,59.28-11.26q54.73,0,79.32,31.31t24.64,85.46v187.94h-95.45V1842.74a56.05,56.05,0,0,0-9.1-33.74,31.73,31.73,0,0,0-27.39-12.48Q4898.43,1796.52,4854.64,1822.07Z" transform="translate(-527.56 -515.21)"/></svg>