<svg id="Layer_1" data-name="Layer 1" xmlns="http://www.w3.org/2000/svg" viewBox="0 0 576 576"><defs><style>.cls-1,.cls-6{fill:#cc1d24;}.cls-1,.cls-10,.cls-11,.cls-2,.cls-3,.cls-4,.cls-5,.cls-6,.cls-7,.cls-9{stroke:#cc1d24;}.cls-1{stroke-miterlimit:10;}.cls-10,.cls-2,.cls-4{fill:#fff;}.cls-2,.cls-3{stroke-width:1.15px;}.cls-3,.cls-9{fill:#fe4f56;}.cls-4{stroke-linecap:square;}.cls-4,.cls-5,.cls-6{stroke-width:0.57px;}.cls-5{fill:#ff8085;}.cls-7{fill:#fdfdfd;}.cls-10,.cls-7{stroke-width:0.88px;}.cls-11,.cls-8{fill:#840106;}.cls-8{stroke:#7e89a3;}.cls-11,.cls-8,.cls-9{stroke-width:0.44px;}</style></defs><title>icon</title><circle class="cls-1" cx="288" cy="288" r="288"/><g id="Page-1"><g id="Laptop"><path id="bezel" class="cls-2" d="M430.36,184.2H145.58a14.4,14.4,0,0,0-14.35,14.23V385.74H444.72V198.43A14.38,14.38,0,0,0,430.36,184.2Z"/><circle id="webcam" class="cls-3" cx="288.54" cy="195.1" r="2.3"/><g id="bottom"><path id="Shape" class="cls-2" d="M457.24,403.53H118.76c-17.6,0-29.45-6-29.45-8.61v-7.81A1.58,1.58,0,0,1,91,385.72H485a1.58,1.58,0,0,1,1.72,1.39v8.11C486.68,397.26,477.51,403.53,457.24,403.53Z"/><path id="Line" class="cls-4" d="M89.6,394h396"/></g><rect id="screen" class="cls-5" x="143.86" y="206.59" width="287.69" height="167.66"/><path id="touchpad" class="cls-6" d="M331,386.3v1.77c0,1.26-2.49,1.65-4.37,1.65H249.4c-2,0-4.49-.38-4.49-1.65V386.3"/></g><g id="iphone"><path id="bezel-2" data-name="bezel" class="cls-7" d="M400.4,344.2a7.05,7.05,0,0,1-7.07,7H350.27a7.05,7.05,0,0,1-7.07-7V237.78a7.05,7.05,0,0,1,7.07-7h43.06a7.05,7.05,0,0,1,7.07,7V344.2Z"/><rect id="screen-2" data-name="screen" class="cls-8" x="347.17" y="246.54" width="49.25" height="87.59"/><path id="speaker" class="cls-9" d="M377.08,242a.47.47,0,0,1-.43.5h-8.84a.47.47,0,0,1-.43-.5V240.9a.47.47,0,0,1,.43-.5h8.84a.47.47,0,0,1,.43.5V242Z"/><circle id="camera" class="cls-9" cx="372.24" cy="235.98" r="1.32"/><ellipse id="lock" class="cls-9" cx="371.82" cy="342.46" rx="4.42" ry="4.4"/></g><g id="IPAD"><path id="bezel-3" data-name="bezel" class="cls-7" d="M314.12,250.11v84a5.29,5.29,0,0,1-5.28,5.29H180a5.28,5.28,0,0,1-5.28-5.29v-84a5.28,5.28,0,0,1,5.28-5.29H308.84A5.28,5.28,0,0,1,314.12,250.11Z"/><path id="bezel-2-2" data-name="bezel-2" class="cls-10" d="M314.12,250.11v84a5.29,5.29,0,0,1-5.28,5.29H180a5.28,5.28,0,0,1-5.28-5.29v-84a5.28,5.28,0,0,1,5.28-5.29H308.84A5.28,5.28,0,0,1,314.12,250.11Z"/><rect id="screen-3" data-name="screen" class="cls-11" x="188.73" y="251.86" width="111.28" height="80.08"/><circle id="lock-2" data-name="lock" class="cls-9" cx="306.65" cy="291.89" r="3.53"/><circle id="camera-2" data-name="camera" class="cls-9" cx="182.13" cy="292.34" r="1.32"/></g></g></svg>