<?xml version="1.0" encoding="utf-8"?>
<!-- Generator: Adobe Illustrator 21.1.0, SVG Export Plug-In . SVG Version: 6.00 Build 0)  -->
<svg version="1.1" id="Layer_1" xmlns="http://www.w3.org/2000/svg" xmlns:xlink="http://www.w3.org/1999/xlink" x="0px" y="0px"
	 viewBox="0 0 733 528" style="enable-background:new 0 0 733 528;" xml:space="preserve">
<style type="text/css">
	.st0{fill:#808080;}
	.st1{fill:#666666;}
	.st2{fill:none;}
</style>
<title>ahs</title>
<path class="st0" d="M548.8,465l-4.6-1.4c1.6-5.3,2.4-11.1,5-15.9c5.6-10.4,4.7-20-0.2-30.5s-8.5-21.7-12.6-32.6
	c-2.1-5.7-2.1-5.7-8.5-5.7h-3.1v57.6c-5.7,0.3-10.6,0.6-15.5,0.8c-1.1,0.1-2.3-0.2-3.4-0.2c-7.4-0.1-7.2-0.1-7.4-7.3
	c-0.2-16.1-0.6-32.2-0.7-48.3c0-3.1-1.4-3.6-4-3.5c-6.3,0.2-6.4,0.2-6.1-6.2c0.2-3.6,0.6-7.1,0.5-10.7c0-3,1.4-3.7,4-3.7
	c6.5-0.2,6.5-0.2,6.5-6.8c0-4.9,0.1-9.9,0-14.8c-0.1-2.4,0.8-3.4,3.4-3.4c6.9,0.1,13.6,0,20.9,0c0.3,7.4,0.8,14.1,0.8,20.7
	c0,3,1.1,4.4,4.2,4.4c7.2,0.2,14.5,0.5,21.6,0.7c2.6,0.1,4.1,0.8,5,3.5c3.4,9.7,7.2,19.5,10.8,29.2c0.5,1.3,1.1,2.5,2,4.6
	c0.8-1.7,1.3-2.7,1.8-3.8c4-10.1,8.1-20.2,12-30.4c0.8-2.2,2-3.3,4.4-3.3c7.2,0.1,14.3,0,22.2,0c-0.6,2.1-0.9,3.4-1.4,4.6
	C594.4,395.6,582,428.2,570,461c-1.3,3.5-4,2.6-6.1,3.8h-15.1V465z"/>
<path class="st0" d="M87.5,195.5h23.4v31.6c4.4-4.9,10.5-8,17.1-8.4c16.4-1.4,28.8,7.8,30.9,23.1c0.5,4.1,0.8,8.3,0.7,12.5
	c0.1,14.7,0,29.4,0,44.4H136v-41c0-2.3-0.2-4.6-0.6-6.8c-1.1-6.6-5.3-10.2-11.6-10.4c-6.6-0.2-11,3.2-12.5,9.9c-0.4,2-0.5,4-0.5,6.1
	V299H87.5V195.5z"/>
<path class="st0" d="M645.5,267h-58.2c-0.5,6.9,5.9,13.2,12.4,14.5c6.1,1.3,12.3-0.5,17-4.6c1.6-1.3,3.6-2.1,5.6-2.1
	c6.5-0.2,12.9-0.1,19.4-0.1c0.4,0.1,0.8,0.2,1.1,0.5c-5.9,12.8-14.8,22.1-28.8,25.3c-21.9,5.1-43.9-8.5-49-30.5c0-0.1,0-0.2-0.1-0.2
	c-5.3-22.7,8.7-45.2,31.1-50.3c22.1-5,43.6,9.1,48.6,31.7c0.2,1,0.5,1.9,0.8,2.8L645.5,267z M587.8,251.1h33.9
	c-1.8-8-8.6-12.8-17.6-12.6C595.6,238.6,589.3,243.4,587.8,251.1z"/>
<path class="st0" d="M504.7,63v25.7h11v17.5h-11v60h-23.5v-59.6H470V88.9h11V63H504.7z"/>
<path class="st0" d="M251.9,63v25.6h11.3v17.7h-11v60h-23.4v-59.5h-11.2v-18h10.7V63H251.9z"/>
<path class="st0" d="M290.7,63c-0.2,1.6-0.4,3.3-0.4,4.9v98.5h-23.1c-0.1-0.9-0.3-1.8-0.3-2.6V64.5c0-0.5,0.1-1,0.1-1.5H290.7z"/>
<path class="st1" d="M314.7,219.8c6.9-8.5,15.1-14,25.8-15.3c16.3-2,33.8,10.2,37.6,27.3c4.6,20.1,0.2,39.1-9.6,56.8
	c-11.8,21.2-29.9,35.8-51.7,46.1c-1.2,0.5-2.6,0.6-3.9,0.2c-28.2-13.3-49.9-32.9-59.6-63.4c-4.1-12.7-5.6-25.8-2.4-39
	c3.5-14.6,13.3-23.7,27.5-27.2c13.9-3.4,25.3,2.3,34.5,12.7C313.4,218.5,314,219.2,314.7,219.8z M314.6,247
	c-2.7-2.3-5.3-5.2-8.5-7.1c-9.2-5.6-19.2-1.1-21.7,9.4c-1.8,7.2,0.3,13.6,3.7,19.6c6,10.6,14.8,18.5,24.6,25.5
	c1,0.6,2.2,0.6,3.3,0.2c10.5-7.4,19.9-15.8,25.9-27.4c2.8-5.4,4.2-11.1,3-17.2c-2-11-12.8-16-22.2-10
	C319.7,242,317.2,244.8,314.6,247L314.6,247z"/>
<path class="st0" d="M360.3,94.4l0.3-5.4h23.1v77.3h-23.1l-0.5-5.8c-11,11-23.8,10.1-36.6,6.2c-13.7-4.2-21.5-14.5-24.2-28.2
	c-2.8-14.2-1-27.8,8.8-39.4c9.4-11,27.3-16.2,41-11.3C353,89,356.4,92.1,360.3,94.4z M360.4,127.7c0.1-11-8.2-19.5-19.3-19.6
	c-10.7-0.2-19.4,8.7-19.4,19.6c-0.1,10.7,8.5,19.6,19.3,19.6h0.2C352.1,147.4,360.3,139,360.4,127.7z"/>
<path class="st0" d="M190.2,94.6V89h23.4v77.3h-23.3v-5.8l-1.3-1.1c-0.2,0.8-0.5,1.7-0.9,2.4c-3.4,4.2-8.1,6-13.2,6.7
	c-29.5,4-46.4-15.2-46.9-39.3c-0.3-12.4,2.8-23.7,12.1-32.4c11-10.4,24.1-13,38.4-9.2C182.5,88.7,186.1,92.2,190.2,94.6z
	 M190.2,127.8c0.2-10.7-8.4-19.6-19.1-19.7h-0.7c-10.7,0.2-19,8.8-19,19.6c0,11,8.6,19.8,19.4,19.6c10.7,0.1,19.3-8.5,19.4-19.2l0,0
	C190.1,128,190.1,127.9,190.2,127.8z"/>
<path class="st0" d="M470.3,298.8h-23.2l-0.3-5.9c-10.7,11-23.6,10.2-36.5,6.3c-13.6-4.1-21.4-14.2-24.3-27.8
	c-3-13.9-1.4-27.3,7.8-38.9c9.3-11.8,27.3-17.4,41.6-12.4c4.1,1.4,7.6,4.5,11.3,6.8l0.2-5.2h23.2L470.3,298.8z M447,260.3
	c0.1-11.4-8.2-19.8-19.4-19.8c-10.7,0-19,8.5-19.1,19.4c-0.1,11,8.2,19.6,19.2,19.8S446.9,271.5,447,260.3z"/>
<path class="st0" d="M580.2,94.9V89h23.2v77.2h-23.1l-0.2-4.7c-4.1,2.1-8.2,5.5-12.8,6.4c-29.8,6-50.7-13.6-49.2-42.7
	c0.8-17.1,8.5-30.1,25-36.5c7.3-2.8,15.2-3.4,22.8-1.9C571.5,87.8,576.6,90.7,580.2,94.9z M580.2,127.6c0-11.2-8.3-19.5-19.4-19.5
	c-10.8,0-19.2,8.7-19.2,19.8c-0.1,10.7,8.5,19.4,19.1,19.5l0,0h0.5C572.3,147.2,580.2,138.9,580.2,127.6L580.2,127.6z"/>
<path class="st0" d="M275.8,398.3c-0.2,23.9-23.4,42-43.7,40c-23.4-2.1-40.7-22.8-38.6-46.2c1.9-22.4,22.3-40,44.2-38.2
	C260.4,356,277.6,375.8,275.8,398.3z M234.4,412.6c9.2,0.2,16.2-6.9,16.4-16.6c0.2-8.9-6.8-15.9-16.1-16.2c-8.7,0-15.7,7-15.7,15.7
	c0,0.2,0,0.2,0,0.4C218.9,405.2,225.4,412.4,234.4,412.6z"/>
<path class="st0" d="M487.6,405.3h-57.1c-0.5,6.3,4.7,12.6,11.6,13.9c6.6,1.4,12.5,0,17.7-4.7c1.4-1.2,3-1.9,4.9-2
	c6.9-0.2,13.7-0.1,20.6-0.1c-3,16.5-25.9,30-44.7,26.3c-23.1-4.4-37.7-26-33-48.9c4.6-22.8,25.9-37.2,48-32.6
	C480.9,362.4,491.2,387,487.6,405.3z M430.7,388.9h33.6c-0.9-7.2-7.8-12.4-16.4-12.6C439.1,376.1,432.1,381.1,430.7,388.9z"/>
<path class="st0" d="M361.9,405.8c-0.2,10.3-5.9,17.4-13.2,23.4c-13.3,11-33.7,12.2-48,3c-16.1-10.2-23.2-27.6-18.9-46.4
	c3.8-16.2,19.3-29.5,36.3-31.2c19.7-2,38.1,10.3,43.7,29.2c0.4,1.7,0.6,3.4,0.7,5.1h-17.5c-1.9,0-3.8,0.4-5.7,0.2
	c-1.4-0.2-2.8-0.8-3.7-2c-4.8-6.5-10.6-8.7-18.1-6.5c-6.6,1.9-11,7.6-11.4,15c-0.5,7.4,3.6,14.4,10.1,17.2c6.4,2.8,14.2,1,19.6-5.1
	c1.8-2.1,4.4-3.3,7.2-3c5.9,0.3,11.9,0.4,17.9,0.5C361,405.3,361.2,405.5,361.9,405.8z"/>
<path class="st0" d="M220.5,221.4h23.4v77.3H222l-0.5-5.9c-10.5,11.2-22.7,10.8-34.9,5.3c-8.6-3.9-14-11.4-14.4-20.9
	c-0.7-18.3-0.4-36.5-0.5-54.7c0.1-0.3,0.2-0.6,0.4-0.9h23.1v42.6c0,1.5,0.1,3,0.2,4.6c0.8,7.5,4.2,10.8,11.4,11.2
	c6.7,0.4,11.8-3.4,13.2-10.1c0.4-2,0.5-4,0.5-6C220.6,249.7,220.5,235.8,220.5,221.4z"/>
<path class="st0" d="M464.9,166.4h-23.1v-4.6c-0.1-13.7,0-27.4-0.4-41.1c-0.3-9.7-6.5-14.2-15.9-12c-4.9,1.1-7.5,4.5-8.4,9.3
	c-0.5,3-0.7,6-0.7,9.1c-0.1,13,0,26,0,39.4h-23.1V88.9h21.5v6.8c3.1-2.4,5.6-5,8.6-6.7c18.3-9.8,41,2.9,41.5,23.5
	c0.5,17.4,0.2,34.7,0.2,52.2C465.2,165.3,465.1,165.9,464.9,166.4z"/>
<path class="st0" d="M531.9,298.7V257c0-1.8-0.1-3.6-0.4-5.3c-1.2-7.8-5.1-11.3-12.3-11.1c-7.4,0.2-12,4.5-12.3,12.3
	c-0.3,13.3-0.2,26.6-0.2,40v6h-23.3v-77.4h21.5l0.4,6.9c9.9-11.5,21.9-11.7,34.3-6.9c9.1,3.5,14.9,10.6,15.2,20.5
	c0.5,18.9,0.2,37.8,0.2,56.9L531.9,298.7z"/>
<path class="st0" d="M123.2,411.8c7.7,0,15-0.1,22.3,0.1c1.1,0,2.2,1.5,3.4,2.4c1.8,1.4,3.6,3.6,5.6,3.9c2.7,0.5,5.9-0.7,6.5-4
	c0.6-3-1.8-4.7-4.2-5.6c-5.9-2.1-12-3.4-17.7-5.7c-18.3-7.5-16.5-29.7-7.4-38.8c7.5-7.5,16.8-10.6,27.4-9.9
	c9,0.5,16.8,3.9,22.5,11.1c3.4,4,5.1,9.4,4.6,14.6c-7.5,2.1-15.2,1.5-22.9,0.5c-0.7-0.1-1.1-1.4-1.8-2.1c-1.1-1.2-2.1-3.4-3.2-3.4
	c-2.1-0.2-4.2,0.5-5.9,1.8c-0.8,0.8-0.3,4,0.8,5.1c1.4,1.5,3.8,2.4,5.9,3.1c5.4,1.8,11,3,16.3,5.1c17.2,7,16.1,29,6.2,38.1
	c-12.5,11.6-33.1,13.5-47.2,3.8C127.4,427.3,123.2,420.8,123.2,411.8z"/>
<path class="st0" d="M372.1,436.1v-32.1c0-14.1,0.2-28.2,0.1-42.3c0-3.2,0.9-4.6,4.3-4.4c5.3,0.4,10.7,0.4,16,0.2
	c3.6-0.2,4.3,1.5,4.3,4.6c-0.2,12.3-0.1,24.6-0.2,36.9c-0.1,11.2-0.2,22.3-0.4,33.4c0,2-0.2,3.6-2.7,3.6H372.1z"/>
<path class="st0" d="M396.1,331.8v19.9h-23.3c-0.3-5.9-0.8-11.5-0.8-17.1c0-0.9,1.8-2.6,2.7-2.6
	C381.7,331.7,388.5,331.8,396.1,331.8z"/>
<rect class="st2" width="733" height="528"/>
</svg>
