<?xml version="1.0" encoding="utf-8"?>
<!-- Generator: Adobe Illustrator 21.1.0, SVG Export Plug-In . SVG Version: 6.00 Build 0)  -->
<svg version="1.1" id="Layer_1" xmlns="http://www.w3.org/2000/svg" xmlns:xlink="http://www.w3.org/1999/xlink" x="0px" y="0px"
	 viewBox="0 0 209 47.2" style="enable-background:new 0 0 209 47.2;" xml:space="preserve">
<style type="text/css">
	.st0{fill:#808080;}
	.st1{fill:#666666;}
</style>
<title>oa</title>
<path class="st0" d="M0,33.9c-0.1-7.8,6.2-14.2,13.9-14.2c4.8,0,13.5,2.3,13.5,13.9c0.2,7.3-5.6,13.4-13,13.5c-0.2,0-0.4,0-0.5,0
	C5.9,47.2,0,42.4,0,33.9z M23.1,34.6c0-6.4-2.7-13.5-10.1-13.5c-6.1,0-8.6,5.4-8.6,10.7c0,6.1,2.9,14.1,10.2,14.1
	C19.8,45.9,23.1,42.3,23.1,34.6L23.1,34.6z"/>
<path class="st0" d="M37.2,41.7c0,4.3,5.5,2.5,5.5,4.2c0,0.8-0.4,0.9-1.4,0.9s-2.3-0.2-5.9-0.2c-3.3,0-4.6,0.2-5.3,0.2
	s-1.1-0.1-1.1-0.8c0-1.2,3.7,0,3.7-4.1V26.4c0-3.8-4.6-2.1-4.6-3.4c0-0.3,0.2-0.7,0.6-0.7c5.2-1.1,6.4-3.1,7.9-3.1
	c0.4,0,0.8,0.4,0.8,1v4.1c-0.1,0.8,3-4.6,9.1-4.6c8.4,0,10.2,6.9,10.2,11.7v10.3c0,4.3,4.9,2.5,4.9,4.2c0,0.8-0.4,0.9-1.1,0.9
	c-0.8,0-2.4-0.2-5.4-0.2c-2.4,0-3.7,0.2-4.5,0.2s-1.1-0.1-1.1-0.8c0-1.2,2.7,0,2.7-4.1V30.3c0-3.1-2.2-7.8-7.3-7.8
	c-5.2,0-7.4,3.9-7.4,4.9L37.2,41.7z"/>
<path class="st0" d="M65.6,30.7c0,10.3,6.2,13.4,10.1,13.4c4.7,0,7-2.7,8.2-3.1c0.3-0.1,0.6,0,0.7,0.3c0,0.1,0.1,0.3,0,0.4
	c-0.7,1.7-5.8,5.6-11,5.6c-9.4,0-12.6-8.7-12.6-12.8c0-8,4.4-14.7,12.2-14.7s11.1,7.4,11.1,9.9c0,1.1-0.7,1.1-2.1,1.1H65.6z
	 M77.9,29c0.9,0,1.2-0.3,1.2-1.2c0-3.5-3.5-6.6-6.9-6.6c-3.9,0-6.6,4.4-6.6,7.9H77.9z"/>
<path class="st1" d="M203.8,41.8V1c0-0.6-0.4-1-0.8-1c-1.4,0-2.7,2-7.5,3.1c-0.3,0.1-0.6,0.4-0.6,0.7c0,1.3,4.2-0.3,4.2,3.4v34.4
	c-0.1,2.7-4.2,3.1-5.4,3.1c-1.2,0-6.8,0.3-6.8-3.6V1c0-0.6-0.4-1-0.8-1c-1.4,0-2.7,2-7.5,3.1c-0.3,0.1-0.6,0.4-0.6,0.7
	c0,1.3,4.2-0.3,4.2,3.4V41c-0.1,3.6-4,3.7-5.8,3.7c-1.8,0-2.6-0.7-3.7-2.3c-1.4-2.2-1.8-4-2.7-6.3c0,0-12.6-31.3-13-32.2
	c-0.2-0.5-0.6-2.3-1.3-2.3s-1,1-4.7,8.9c0,0-14.3,30.6-14.9,31.9s-1.4,2.5-3.1,2.6c-3.5,0-8.5-5.6-10.5-7.5c1.6-2.7,1.7-2.8,3.4-7
	c0.5-1.8,1.5-3.4,2.9-4.7c2.2-1.8,4.2-2,5.9-2.6c1.1-0.4,0.6-2.2-0.4-2c-5.3,1-10.7,1.2-16,0.8c-1.1-0.1-1.1,1.8-0.2,2
	c1.6,0.3,5.3-0.4,5,5.5c-0.1,1.3-0.3,2.5-0.8,3.7c-0.4,1-0.9,1.9-1.6,2.7C107.3,23.3,98.1,13.4,98.1,9.2c0-2.8,2.2-5,4.9-5.1
	c0.1,0,0.2,0,0.3,0c3.8,0,7.1,3.3,8.6,6.6c0.2,0.4,0.4,1.1,0.9,1.1c0.2,0,0.6-0.2,0.6-0.5l-0.2-5.9c0-0.6,0.1-1.8-0.8-1.8
	c-0.6,0-0.8,0.6-1.1,0.6c-2.1-1.1-4.4-1.6-6.7-1.7c-5.1,0-10.1,2.8-10.1,8.5c0.1,2.6,1.1,5.1,2.9,7.1c-6.7,1.4-10,6.6-10,13.2
	c0,9.7,8.1,15.8,17.2,15.8c5.7,0.1,11.2-2.1,15.3-6.2c3.3,3,6.4,6.5,10.6,6.2c0.9-0.1,4.4-0.4,5.8-0.5c2.6-0.1,4.5,0,6.2,0
	c0.8,0,1.7,0.2,1.7-0.9c0-1.6-4.4,0.2-4.4-4.1c0-0.8,0.2-1.5,0.4-2.2l4-8.7c0.6-1.3,1.8-1.3,2.9-1.3H161c1.8,0,2.1,0.9,2.8,2.4
	l2,5.1c0.6,1.7,1.9,4.6,1.9,5.9c0,2.4-3.9,1.4-3.8,3.1c0.1,0.9,1,0.8,1.4,0.8c1.7,0,3.5-0.1,5.2-0.2c2.8-0.1,11.9-0.1,14.6-0.1
	c4.7,0,12.4,0,16.5,0.1c3.3,0,5.2,0.2,6.1,0.2s1.4-0.1,1.4-0.9C209,44,203.8,45.8,203.8,41.8z M106.8,43.6c-8.1,0-16-7-16-15.3
	c0-3.6,2.9-8.5,6.8-8.5c2.2,0,7,8.4,20.4,19.8C114.8,42.2,110.9,43.6,106.8,43.6L106.8,43.6z M160,26.8h-12.4
	c-0.8,0-1.2-0.2-0.8-1.1l7.1-15.2c0.4-0.8,0.7-0.8,1,0l6.1,15C161.3,26.3,161.4,26.8,160,26.8z"/>
</svg>
