<?xml version="1.0" encoding="utf-8"?>
<!-- Generator: Adobe Illustrator 22.1.0, SVG Export Plug-In . SVG Version: 6.00 Build 0)  -->
<svg version="1.1" id="Layer_1" xmlns="http://www.w3.org/2000/svg" xmlns:xlink="http://www.w3.org/1999/xlink" x="0px" y="0px"
	 viewBox="0 0 400 400" style="enable-background:new 0 0 400 400;" xml:space="preserve">
<style type="text/css">
	.st0{fill:#808080;}
</style>
<title>tw</title>
<g>
	<path class="st0" d="M189.2,205.2c-1.6,28.4-3.3,56.2-4.9,84.9c-2.2-1.2-3.7-1.9-5.1-2.7c-10.5-6.1-21-12.2-31.5-18.4
		c-3.1-1.8-8.8-4-12.5-3.5c14.5-60.1,9.7-40.2,14.5-60.1H163c-2.5,16.9-6.1,33.2-8.4,49.7c0.7,0.3,1.5,0.6,2.1,1
		c0.8-3.6,5.2-29.7,9-50.8c1.9,0.1,7.1,0,9.5,0.1c-1.4,19.2-6.6,55.9-6.6,55.9l2,1.6l5.1-38.5c0,0,1.5-12.5,2.3-18.9L189.2,205.2z"
		/>
	<path class="st0" d="M211.9,205.2c1.6,28.4,3.3,56.2,4.9,84.9c2.3-1.2,3.7-1.9,5.1-2.7c10.5-6.1,21-12.2,31.5-18.4
		c3.1-1.8,8.8-4,12.5-3.5c-14.5-60.1-9.7-40.2-14.5-60.1h-13.3c2.5,16.9,6.1,33.2,8.4,49.7c-0.7,0.3-1.5,0.6-2.1,1
		c-0.8-3.6-5.2-29.7-9-50.8c-1.9,0.1-7.1,0-9.5,0.1c1.4,19.2,6.6,55.9,6.6,55.9l-2,1.6l-5.1-38.5c0,0-1.5-12.5-2.3-18.9L211.9,205.2
		z"/>
	<path class="st0" d="M191.5,205.1h17.6c0.3,0.9,0.6,1.9,0.7,2.9c1.4,26.4,2.6,52.8,4.1,79.2c0.2,3.5-0.8,5.6-3.7,7.3
		c-2.5,1.6-5,3.3-7.3,5.2c-1.7,1.4-3.3,1.4-4.9-0.1c-0.4-0.3-0.8-0.6-1.2-0.9c-3.2-2.4-7.7-4.2-9.2-7.4c-1.6-3.4-0.5-8.1-0.3-12.2
		c1.2-23.4,2.4-46.8,3.7-70.3C191.2,207.9,191.4,206.8,191.5,205.1z"/>
	<path class="st0" d="M14.5,222.7c-0.4-2.4-1.4-4.5,1-6.5c0.8-0.7,1.1-2.3,1.1-3.6c0.1-7.5,0.1-15,0-22.5c0-1.2-0.3-2.9-1.1-3.6
		c-2.1-1.8-1.4-3.8-1.2-5.9c3.8-1.2,68.5-1.4,73.3-0.2c0.4,3.2-0.1,5.9-4,6.6v28.5c3.5,0.8,5.3,2.9,4.1,7.1L14.5,222.7z M25.7,215.9
		h10.2c0.2-10,0.3-19.5-0.1-29.2H25.7L25.7,215.9z M74.7,216v-29.2H64.6c-0.9,7.7-0.6,25.6,0.5,29.2L74.7,216z M45,186.6v29.3h10.3
		c-0.3-10,0.3-19.5-0.4-29.3H45z"/>
	<path class="st0" d="M386.7,180.5c0.4,2.6,1,4.8-1.6,6.5c-0.7,0.4-0.8,2.1-0.8,3.2c-0.1,7.5-0.1,15,0,22.5c0,1.2,0.3,2.9,1.1,3.5
		c2.5,1.9,1.4,4,1.2,6.5h-73.3c-0.2-5.3-0.2-5.3,4-7.1v-28.2c-2.5-1.2-4.8-2.9-3.9-6.5c0.1-0.1,0.2-0.3,0.3-0.4
		c0.1-0.1,0.2-0.3,0.4-0.3c0.6-0.2,1.3-0.3,1.9-0.4c23,0,46,0,69,0.1C385.6,180,386.2,180.2,386.7,180.5z M326.4,186.8V216h10.1
		v-29.2H326.4z M375.1,216.1c1-7.6,0.7-25.9-0.4-29.3h-9.4v29.3H375.1z M346,186.6v29.3h10.2c0-10,0.4-19.5-0.2-29.3H346z"/>
	<path class="st0" d="M256.2,202.5H145.5c-1.3-3.4-0.8-6.7-0.5-9.9c0.3-1.1,1.1-1.9,2.2-2.3c2-0.8,4.1-1.2,6.3-1.3
		c31.7-0.1,63.3-0.1,95,0c1.8,0.1,3.6,0.5,5.3,1.1c1.7,0.5,2.8,2.1,2.6,3.8C256.2,196.6,256.2,199.2,256.2,202.5z"/>
	<path class="st0" d="M223,156.5c-0.2,12.2-10.1,22.1-22.3,22.4c-12.2,0.1-22.6-10.4-22.6-22.7c0.1-12.4,10.2-22.4,22.6-22.3
		S223.1,144.1,223,156.5L223,156.5z M200.8,139.1c-9.5,0-17.2,7.5-17.6,16.9c-0.2,9.4,8,17.7,17.4,17.7c9.6-0.2,17.2-8.1,17-17.6
		C217.4,146.8,210,139.3,200.8,139.1L200.8,139.1z"/>
	<path class="st0" d="M200.5,170.7c-9.1,0-13.5-6.4-13.8-13.7h4.6l-0.9,1.8c0,2.8,3.1,7.5,7.5,7.5c0.1-1.5,0.2-3,0.2-4.5
		s0.8-2.5,2.4-2.5l0,0c1.6,0,2.4,0.9,2.4,2.5s0.1,3,0.2,4.5c4.4,0,7.6-4.5,7.5-7.4l-0.9-2h4.6C214,164.4,209.7,170.7,200.5,170.7z"
		/>
	<path class="st0" d="M200.4,155.8c0,0,2.1,0.2,2.2-1.5s0.4-6.2,0.4-7.4c0-0.9,1.1-0.8,1.1-0.8c3.5,0.2,4.9,1.8,5.8,4
		c0.7,1.8,1.2,3.2,4.5,3.2c0-4.3-4.6-11.2-14-11.2s-13.7,6.9-13.7,11.2c2.5,0,3.5-1.4,4.2-3.2c0.9-2.1,2.3-3.8,5.8-4
		c0,0,1.1,0,1.1,0.8c0,1.1,0.2,5.7,0.4,7.4S200.4,155.8,200.4,155.8z"/>
	<path class="st0" d="M400,200c0,110.5-89.5,200-200,200S0,310.5,0,200S89.5,0,200,0S400,89.5,400,200z M394.4,200
		C394.4,92.8,307.2,5.6,200,5.6S5.6,92.8,5.6,200S92.8,394.4,200,394.4S394.4,307.2,394.4,200z"/>
	<path class="st0" d="M233.9,182.9c2.3,0,4.9,0,7.5,0c2.4,0,3.3,1.2,2.7,3.9h-87.1c-0.7-3,0.6-4,3.1-4h7.1c2.7-4.8,3.3-8.7,1.1-13.6
		c-7.4-16.8,0.8-36.8,17.7-44.5c1.2-0.6,2.5-1,3.7-1.5c3.3-1.3,3.8-2.9,1.9-6c-1.3-2.1-2.7-4.3-3.3-6.6c-1.2-5.4,1.5-10.9,6.5-13.3
		c4.9-2.5,10.9-1.5,14.7,2.4c3.9,3.9,4.7,10,1.9,14.7c-0.6,1-1.4,1.9-2,2.8c-2,3-1.4,4.6,2,5.9c12.2,4.5,20.1,12.9,23,25.5
		c1.6,6.8,1.6,13.8-1.5,20.1C230.4,173.7,230.9,177.9,233.9,182.9z M225,156.3c0-13.6-11.1-24.5-24.6-24.5s-24.5,11.1-24.5,24.6
		s11.1,24.5,24.6,24.5c0.1,0,0.2,0,0.2,0c13.4,0,24.3-11,24.2-24.4C225,156.4,225,156.4,225,156.3z M206.7,108.4
		c0-3.5-2.8-6.2-6.3-6.2c-3.5,0-6.2,2.8-6.2,6.3s2.8,6.2,6.3,6.2C204,114.7,206.8,111.9,206.7,108.4L206.7,108.4z M172,182.5h5.2
		l-3.9-4.4L172,182.5z M229.4,182.7l-1.7-4.6l-3.6,4.6H229.4z M200.5,126c-0.7,0-1.2,0.5-1.2,1.2c0,0.7,0.5,1.2,1.2,1.2
		c0.7,0,1.2-0.5,1.2-1.2c0,0,0,0,0,0C201.7,126.6,201.2,126,200.5,126C200.5,126,200.5,126,200.5,126z M221,134.6
		c-0.7,0-1.2,0.6-1.2,1.2c0,0.7,0.6,1.2,1.2,1.2c0.7,0,1.2-0.6,1.2-1.2c0,0,0,0,0,0C222.2,135.2,221.7,134.6,221,134.6z
		 M181.2,134.6c-0.7,0-1.2,0.6-1.2,1.2c0,0.7,0.6,1.2,1.2,1.2c0.7,0,1.2-0.6,1.2-1.2c0,0,0,0,0,0
		C182.5,135.2,181.9,134.6,181.2,134.6C181.2,134.6,181.2,134.6,181.2,134.6L181.2,134.6z M172.7,155.5c-0.7,0-1.2,0.6-1.2,1.2
		c0,0.7,0.6,1.2,1.2,1.2c0.7,0,1.2-0.6,1.2-1.2c0,0,0,0,0,0C173.9,156.1,173.4,155.5,172.7,155.5
		C172.7,155.5,172.7,155.5,172.7,155.5L172.7,155.5z M229.8,155.5c-0.7,0-1.2,0.5-1.2,1.2s0.5,1.2,1.2,1.2s1.2-0.5,1.2-1.2
		c0,0,0,0,0,0C231,156.1,230.4,155.5,229.8,155.5C229.7,155.5,229.7,155.5,229.8,155.5L229.8,155.5z M221.1,175.8
		c-0.7,0-1.2,0.6-1.2,1.2s0.6,1.2,1.2,1.2c0.7,0,1.2-0.6,1.2-1.2C222.3,176.4,221.8,175.8,221.1,175.8
		C221.1,175.8,221.1,175.8,221.1,175.8L221.1,175.8z M181.5,175.8c-0.7,0-1.2,0.6-1.2,1.2s0.6,1.2,1.2,1.2c0.7,0,1.2-0.6,1.2-1.2
		C182.7,176.4,182.2,175.8,181.5,175.8C181.5,175.8,181.5,175.8,181.5,175.8L181.5,175.8z"/>
	<path class="st0" d="M12.9,172.6C20.7,98.7,89.1,12.1,197.2,10.3C308,8.5,379.8,95.9,388.2,172.4c-1.3,0.2-2.5,0.3-3.8,0.4
		c-22.7,0-45.3,0-68,0c-4.9,0-4.8-0.1-6.4-5c-14.5-43.8-44.2-71.1-89.6-79.7c-58-11-113.6,25.1-129.5,80.1c-1.3,4.5-1.3,4.6-5.7,4.6
		c-23.2,0-46.3,0-69.5,0C14.9,172.8,14.1,172.7,12.9,172.6z M49.2,135.4l2.1-5l-3.1-1.3l-5.5,13.2l3.1,1.3l2.1-5l18.6,7.7l1.4-3.3
		L49.2,135.4z M92.4,99.3l-6.1,7.2l-6-5.1l5.9-7l-2.5-2.2l-5.9,7l-4.3-3.7l6.1-7.2l-2.5-2.2l-8.4,9.9l17.9,15.2l8.4-9.9L92.4,99.3z
		 M129.4,74.4l3.7-2.2l-11.4-4.8c1.1-1,1.8-2.4,2-3.9c0.2-1.5-0.2-3.1-1-4.4c-1-1.7-2.7-2.9-4.6-3.2c-1.8-0.3-4,0.4-6.6,2L108,60
		l12.2,20l3-1.8l-5-8.2l0.6-0.3L129.4,74.4z M117.5,66.8l-1,0.6l-3.8-6.3l1.1-0.7c2.8-1.7,4.8-1.5,6,0.5S120.4,65,117.5,66.8
		L117.5,66.8z M178.2,31.7l-4.9,19.4l-11.2-16.5l-0.3,25.7l3.6-0.7l-0.1-14.4l9.4,13.7l4.1-16.2l4.8,13.5l3.6-0.7L178.2,31.7z
		 M223.9,33.7l-3.4,23.2l3.5,0.5l3.4-23.2L223.9,33.7z M282.7,53.1l-7.3,14.6L268.2,44l-11.3,22.3l3.2,1.6l7.4-14.7l7.2,23.6
		l11.2-22.2L282.7,53.1z M300.4,94.4l2.6,2.8l6-1.9l6.8,7.4l-2.5,5.7l2.6,2.9l10.9-25.1L300.4,94.4z M312.4,94.2l8.3-2.7l-3.5,7.9
		L312.4,94.2z M354.9,131.9l-1.4-3.2l-21.4,9.5l4.2,9.5l3-1.4l-2.8-6.3L354.9,131.9z"/>
	<path class="st0" d="M388.3,228.4C378.7,309.6,303,395,193.1,390.6S19.5,296.7,13,228.5h76.4c1,3.2,1.9,6.2,3,9.1
		c15.4,41.1,44.3,66.8,87.4,75.1C237.4,323.8,293,289.3,310,233c1.5-4.8,1.5-4.9,6.5-4.9c22.3,0,44.7,0,67,0
		C385,228.2,386.4,228.3,388.3,228.4z M158.5,337l-3.4-1.4l-11.6,11.3l1-17l-11.9,12.3l0.5-16l-3.4-1.4l-0.6,25.6l11.8-12.2l-1,16.8
		L158.5,337z M194.2,345.5l0.3-3.1l-12.3-1l-1.9,22.2l12.3,1l0.3-3.1l-8.9-0.8l0.6-7.4l8.7,0.7l0.3-3.1l-8.6-0.7l0.4-5.4
		L194.2,345.5z M236.1,353.9c-0.2-1.4-0.9-2.7-2-3.6c-1.3-1-2.8-1.7-4.4-1.9l-2.4-0.5c-1.7-0.4-2.7-1.1-2.9-2.1
		c-0.2-0.7,0.1-1.5,0.6-2.1c0.5-0.6,1.3-1.1,2.1-1.2c0.6-0.2,1.3-0.1,1.9,0.1c0.7,0.3,1.3,0.8,1.8,1.4l2.4-2.1
		c-1.5-2.1-4.1-3.1-6.6-2.6c-1.7,0.3-3.3,1.2-4.4,2.6c-1,1.2-1.4,2.9-1.1,4.5c0.4,2.5,2.3,4,5.5,4.7l2.3,0.5
		c0.5,0.1,1.1,0.3,1.6,0.5c0.4,0.2,0.8,0.4,1.1,0.6c0.3,0.2,0.5,0.5,0.7,0.9c0.2,0.4,0.3,0.7,0.4,1.1c0.2,1,0,2-0.5,2.8
		c-1.2,1.7-3.6,2.1-5.3,0.9c-0.1-0.1-0.2-0.1-0.3-0.2c-0.6-0.7-1.1-1.6-1.3-2.5l-3.2,1.4c0.5,1.8,1.6,3.3,3.2,4.3
		c1.5,0.9,3.3,1.2,5,0.8c1.9-0.3,3.6-1.4,4.7-2.9C236,357.8,236.4,355.8,236.1,353.9L236.1,353.9z M264.5,330.4l4.6-2.2l-1.4-2.9
		l-12.3,5.9l1.4,2.9l4.6-2.2l8.3,17.2l3-1.5L264.5,330.4z"/>
</g>
</svg>
