<svg id="Artwork" xmlns="http://www.w3.org/2000/svg" viewBox="0 0 997.08 828.14"><defs><style>.cls-1{fill:#b01b29;}.cls-2{fill:#8865d2;}.cls-3{fill:#9b8dba;}.cls-4{fill:#61547b;}.cls-5{fill:#381c75;}.cls-6{fill:#5a6822;}.cls-7{fill:#8b9a3b;}.cls-8{fill:#882f12;}.cls-9{fill:#db4b1d;}.cls-10{fill:#d2711c;}.cls-11{fill:#f2811d;}.cls-12{fill:#1477a3;}.cls-13{fill:#188dc1;}.cls-14{fill:#c59822;}.cls-15{fill:#efac2c;}.cls-16{fill:#7c0053;}.cls-17{fill:#9e1f63;}.cls-18{fill:#dfe5bc;}.cls-19{fill:#dc8301;}</style></defs><title>graphic3</title><polygon class="cls-1" points="68.21 621.57 765.5 206.07 854.98 206.07 157.59 621.57 68.21 621.57"/><polygon class="cls-2" points="86.94 387.87 527.12 121.27 526.92 184.67 86.75 451.27 86.94 387.87"/><polygon class="cls-3" points="0 387.87 440.18 121.27 527.12 121.27 86.94 387.87 0 387.87"/><polygon class="cls-4" points="289.22 452.07 614.74 258.97 614.55 323.67 289.12 516.77 289.22 452.07"/><polygon class="cls-5" points="289.12 452.07 614.55 258.97 740.62 260.47 415.19 453.67 289.12 452.07"/><polygon class="cls-6" points="389.53 524.47 389.43 556.57 190.96 556.57 191.06 524.47 389.53 524.47"/><polygon class="cls-7" points="389.53 524.47 975 178.17 974.9 210.27 389.43 556.57 389.53 524.47"/><polygon class="cls-8" points="313.91 680.87 313.81 711.37 242.77 711.07 242.87 680.47 313.91 680.87"/><polygon class="cls-9" points="242.87 680.47 866.3 309.77 937.73 309.77 313.91 680.87 242.87 680.47"/><polygon class="cls-10" points="224.33 470.17 224.04 582.47 134.95 581.37 134.95 470.17 224.33 470.17"/><polygon class="cls-11" points="134.95 470.17 388.56 319.47 477.94 319.47 224.33 470.17 134.95 470.17"/><polygon class="cls-12" points="289.12 107.47 289.03 165.37 198.28 165.47 198.28 107.47 289.12 107.47"/><polygon class="cls-13" points="198.28 107.47 290.98 50.37 382.6 50.37 289.12 107.47 198.28 107.47"/><polygon class="cls-14" points="686.95 95.47 686.75 154.27 596.69 154.27 596.98 95.47 686.95 95.47"/><polygon class="cls-15" points="596.98 95.47 697.39 34.97 787.07 34.97 686.66 95.47 596.98 95.47"/><polygon class="cls-16" points="704.42 501.37 704.22 548.77 651.63 548.77 651.82 501.37 704.42 501.37"/><polygon class="cls-17" points="704.42 501.37 999.2 326.67 999.1 374.07 704.22 548.77 704.42 501.37"/><polygon class="cls-14" points="490.62 796.47 827.46 596.27 827.46 627.77 490.52 828.07 490.62 796.47"/><polygon class="cls-15" points="400.75 795.97 737.69 595.67 827.46 596.27 490.62 796.47 400.75 795.97"/><polygon class="cls-1" points="579.42 39.47 546.63 58.67 546.63 19.27 579.42 0.07 579.42 39.47"/><polygon class="cls-18" points="587.91 628.37 555.02 647.57 555.02 608.17 587.91 588.97 587.91 628.37"/><polygon class="cls-10" points="141.59 197.77 108.8 216.97 108.8 177.57 141.59 158.37 141.59 197.77"/><polygon class="cls-13" points="921.33 593.27 866.3 625.47 866.3 559.37 921.33 527.17 921.33 593.27"/><polygon class="cls-12" points="778.48 144.27 761.3 154.27 761.3 133.67 778.48 123.67 778.48 144.27"/><polygon class="cls-18" points="473.25 63.97 456.08 73.97 456.08 53.37 473.25 43.37 473.25 63.97"/><polygon class="cls-18" points="821.9 711.37 804.73 721.47 804.73 700.87 821.9 690.87 821.9 711.37"/><polygon class="cls-14" points="286.88 609.57 269.8 619.57 269.8 598.97 286.88 588.97 286.88 609.57"/><polygon class="cls-7" points="14.25 286.27 52.11 264.67 106.65 264.67 68.89 286.27 14.25 286.27"/><polygon class="cls-1" points="893.82 493.17 931.58 471.57 986.13 471.57 948.36 493.17 893.82 493.17"/><polygon class="cls-19" points="834.78 159.47 860.54 144.77 897.72 144.77 871.96 159.47 834.78 159.47"/><polygon class="cls-10" points="667.83 775.37 687.53 764.07 715.93 764.07 696.22 775.37 667.83 775.37"/><polygon class="cls-16" points="483.69 267.37 509.45 252.67 546.63 252.67 520.87 267.37 483.69 267.37"/><polygon class="cls-13" points="430.12 690.87 455.88 676.17 493.06 676.17 467.3 690.87 430.12 690.87"/></svg>