<?xml version="1.0" encoding="utf-8"?>
<!-- Generator: Adobe Illustrator 21.1.0, SVG Export Plug-In . SVG Version: 6.00 Build 0)  -->
<svg version="1.1"
	 id="svg2" inkscape:export-filename="/media/sicher/maren/Bilder/Grafiken/grafik_selbsterstellt/shooting_star.png" inkscape:export-xdpi="36.913086" inkscape:export-ydpi="36.913086" inkscape:version="0.91 r" sodipodi:docname="shooting_star.svg" xmlns:cc="http://creativecommons.org/ns#" xmlns:dc="http://purl.org/dc/elements/1.1/" xmlns:inkscape="http://www.inkscape.org/namespaces/inkscape" xmlns:rdf="http://www.w3.org/1999/02/22-rdf-syntax-ns#" xmlns:sodipodi="http://sodipodi.sourceforge.net/DTD/sodipodi-0.dtd" xmlns:svg="http://www.w3.org/2000/svg"
	 xmlns="http://www.w3.org/2000/svg" xmlns:xlink="http://www.w3.org/1999/xlink" x="0px" y="0px" viewBox="0 0 2341.3 1470.7"
	 style="enable-background:new 0 0 2341.3 1470.7;" xml:space="preserve">
<style type="text/css">
	.st0{fill:url(#rect3394_1_);}
	.st1{fill:#FFFFFF;}
	.st2{fill:#FFFFFF;fill-opacity:0.6786;}
</style>
<sodipodi:namedview  bordercolor="#666666" borderopacity="1.0" fit-margin-bottom="0" fit-margin-left="0" fit-margin-right="0" fit-margin-top="0" id="base" inkscape:current-layer="layer1" inkscape:cx="1463.3184" inkscape:cy="919.18607" inkscape:document-units="px" inkscape:pageopacity="0.0" inkscape:pageshadow="2" inkscape:zoom="0.38713379" pagecolor="#ffffff" showgrid="false">
	</sodipodi:namedview>
<g id="layer1" transform="translate(1130.0152,401.29376)" inkscape:groupmode="layer" inkscape:label="Layer 1">
	
		<radialGradient id="rect3394_1_" cx="-405.0605" cy="-974.0857" r="1557.1428" gradientTransform="matrix(1.7686 0 0 -0.9611 744.509 132.4184)" gradientUnits="userSpaceOnUse">
		<stop  offset="0" style="stop-color:#002531"/>
		<stop  offset="1" style="stop-color:#00001B"/>
	</radialGradient>
	<rect id="rect3394" x="-1130" y="-401.3" class="st0" width="2341.3" height="1470.7"/>
	<g id="g4681" transform="translate(88,-100)">
		<circle id="path4204" class="st1" cx="-487.9" cy="451.9" r="1.7"/>
		<circle id="path4206" class="st1" cx="-54.3" cy="467.3" r="1.7"/>
		<circle id="path4208" class="st1" cx="-721.5" cy="-134.6" r="1.7"/>
		<circle id="path4210" class="st1" cx="801.4" cy="-250.7" r="1.7"/>
		<circle id="path4212" class="st1" cx="259.2" cy="483.6" r="1.7"/>
		<circle id="path4214" class="st1" cx="-671.6" cy="680.6" r="1.7"/>
		<circle id="path4216" class="st1" cx="-579.9" cy="618" r="1.7"/>
		<circle id="path4218" class="st1" cx="-957.9" cy="475.2" r="1.7"/>
		<circle id="path4224" class="st1" cx="-102.9" cy="562.8" r="1.7"/>
		<circle id="path4226" class="st1" cx="-734.4" cy="630.6" r="1.7"/>
		<circle id="path4228" class="st1" cx="395" cy="308.6" r="3.5"/>
		<circle id="path4230" class="st1" cx="75.1" cy="520.2" r="3.5"/>
		<circle id="path4232" class="st1" cx="-252.6" cy="-185.3" r="3.5"/>
		<circle id="path4234" class="st1" cx="-260.7" cy="-146.5" r="3.5"/>
		<circle id="path4236" class="st1" cx="-642.1" cy="-118.2" r="3.5"/>
		<circle id="path4238" class="st1" cx="565.7" cy="736.7" r="3.5"/>
		<circle id="path4240" class="st1" cx="1062.1" cy="-142.1" r="1.6"/>
		<circle id="path4242" class="st1" cx="-90.3" cy="83.1" r="2.1"/>
		<circle id="path4244" class="st1" cx="511.3" cy="-264.9" r="1.9"/>
		<circle id="path4246" class="st1" cx="416.7" cy="737" r="1.8"/>
		<circle id="path4248" class="st1" cx="-1215.3" cy="-163.4" r="1"/>
		<circle id="path4250" class="st1" cx="284.9" cy="599.9" r="2.5"/>
		<circle id="path4252" class="st1" cx="-700.7" cy="-186.4" r="1.4"/>
		<circle id="path4254" class="st1" cx="662.1" cy="571.4" r="2.3"/>
		<circle id="path4256" class="st1" cx="749.5" cy="-167.1" r="1.4"/>
		<circle id="path4258" class="st1" cx="-745.1" cy="205.3" r="2.6"/>
		<circle id="path4260" class="st1" cx="133.4" cy="665.3" r="1.9"/>
		<circle id="path4262" class="st1" cx="602.8" cy="727.4" r="2.2"/>
		<circle id="path4264" class="st1" cx="916.6" cy="514.4" r="2.5"/>
		<circle id="path4266" class="st1" cx="-528.2" cy="744.3" r="1.5"/>
		<circle id="path4268" class="st1" cx="-426.8" cy="544.7" r="1.8"/>
		<circle id="path4270" class="st1" cx="766.5" cy="-168" r="1.2"/>
		<circle id="path4272" class="st1" cx="-430" cy="595" r="2.5"/>
		<circle id="path4274" class="st1" cx="1023.4" cy="357.4" r="1"/>
		<circle id="path4276" class="st1" cx="-1082.7" cy="572.5" r="2.4"/>
		<circle id="path4278" class="st1" cx="979" cy="733.6" r="2.6"/>
		<circle id="path4280" class="st1" cx="55.9" cy="493.9" r="1"/>
		<circle id="path4282" class="st1" cx="731.3" cy="42.4" r="1.1"/>
		<circle id="path4284" class="st1" cx="-830.5" cy="-53" r="2.5"/>
		<circle id="path4286" class="st1" cx="-808.8" cy="591.2" r="2.4"/>
		<circle id="path4288" class="st1" cx="105.3" cy="387.8" r="0.9"/>
		<circle id="path4290" class="st1" cx="1007.2" cy="-35.6" r="1.4"/>
		<circle id="path4292" class="st1" cx="749.6" cy="-78.9" r="2.5"/>
		<circle id="path4294" class="st1" cx="174.1" cy="-172.5" r="2.2"/>
		<circle id="path4296" class="st1" cx="879.3" cy="48.2" r="2.3"/>
		<circle id="path4298" class="st1" cx="-152.2" cy="248.6" r="1.7"/>
		<circle id="path4300" class="st1" cx="-838.3" cy="506.9" r="2.3"/>
		<circle id="path4302" class="st1" cx="608.1" cy="260.4" r="2.1"/>
		<circle id="path4304" class="st1" cx="-1051.7" cy="-177.7" r="2.3"/>
		<circle id="path4306" class="st1" cx="365.1" cy="18.5" r="1"/>
		<circle id="path4308" class="st1" cx="-327.8" cy="248.1" r="1.7"/>
		<circle id="path4310" class="st1" cx="708.5" cy="-69.5" r="1.6"/>
		<circle id="path4312" class="st1" cx="820.8" cy="190.2" r="2.5"/>
		<circle id="path4314" class="st1" cx="-1131.4" cy="-142.8" r="2.3"/>
		<circle id="path4316" class="st1" cx="1103.7" cy="46.2" r="1.3"/>
		<circle id="path4318" class="st1" cx="-154.8" cy="685.1" r="1"/>
		<circle id="path4320" class="st1" cx="-892.2" cy="407.8" r="2.4"/>
		<circle id="path4322" class="st1" cx="-123.3" cy="178" r="2.3"/>
		<circle id="path4324" class="st1" cx="947.5" cy="570" r="1"/>
		<circle id="path4326" class="st1" cx="-1030.6" cy="745.4" r="2.3"/>
		<circle id="path4330" class="st1" cx="-1163.6" cy="320.5" r="2.4"/>
		<circle id="path4332" class="st1" cx="1017.2" cy="-110.9" r="2.4"/>
		<circle id="path4334" class="st1" cx="-274.2" cy="298.7" r="1.7"/>
		<circle id="path4336" class="st1" cx="-849.7" cy="-200.1" r="1.6"/>
		<circle id="path4338" class="st1" cx="38.9" cy="-36.3" r="1.9"/>
		<circle id="path4340" class="st1" cx="499.3" cy="42.5" r="1.8"/>
		<circle id="path4342" class="st1" cx="-897.4" cy="117.4" r="2.1"/>
		<circle id="path4344" class="st1" cx="783.3" cy="696" r="2.2"/>
		<circle id="path4346" class="st1" cx="-192.1" cy="374.1" r="1.6"/>
		<circle id="path4348" class="st1" cx="222" cy="-232.3" r="1.9"/>
		<circle id="path4350" class="st1" cx="753.5" cy="107.1" r="1.8"/>
		<circle id="path4352" class="st1" cx="1.3" cy="158.6" r="1.6"/>
		<circle id="path4354" class="st1" cx="958.8" cy="607.3" r="2.2"/>
		<circle id="path4356" class="st1" cx="-639.4" cy="-54.2" r="1"/>
		<circle id="path4358" class="st1" cx="-191.9" cy="453.8" r="1.5"/>
		<circle id="path4360" class="st1" cx="567.5" cy="87.7" r="1.6"/>
		<circle id="path4362" class="st1" cx="-101" cy="605.6" r="2.2"/>
		<circle id="path4364" class="st1" cx="262.9" cy="-51.2" r="1.6"/>
		<circle id="path4366" class="st1" cx="-430.7" cy="215" r="2.3"/>
		<circle id="path4368" class="st1" cx="-1091.9" cy="23" r="1.1"/>
		<circle id="path4370" class="st1" cx="343" cy="-258.2" r="1.9"/>
		<circle id="path4372" class="st1" cx="279.5" cy="560.4" r="2.5"/>
		<circle id="path4374" class="st1" cx="-467.6" cy="692.7" r="2.3"/>
		<circle id="path4376" class="st1" cx="-721.8" cy="-122.8" r="2.5"/>
		<circle id="path4378" class="st1" cx="-518.5" cy="437.4" r="1.8"/>
		<circle id="path4380" class="st1" cx="600.9" cy="225.7" r="2.3"/>
		<circle id="path4382" class="st1" cx="-1188.2" cy="727.8" r="2"/>
		<circle id="path4384" class="st1" cx="860.3" cy="113.6" r="1.8"/>
		<circle id="path4386" class="st1" cx="-219.6" cy="-284.5" r="1.3"/>
		<circle id="path4388" class="st1" cx="96.6" cy="-213.6" r="1.7"/>
		<circle id="path4390" class="st1" cx="437.5" cy="-30.7" r="1"/>
		<circle id="path4392" class="st1" cx="-762.6" cy="45.5" r="1.5"/>
		<circle id="path4394" class="st1" cx="506.4" cy="-1.6" r="1.4"/>
		<circle id="path4396" class="st1" cx="425.6" cy="685.9" r="2"/>
		<circle id="path4398" class="st1" cx="-898.3" cy="691.2" r="2.6"/>
		<circle id="path4400" class="st1" cx="1032.3" cy="191.2" r="2.1"/>
		<circle id="path4402" class="st1" cx="406.1" cy="-146.1" r="1.2"/>
		<circle id="path4404" class="st1" cx="1031.4" cy="705" r="2.4"/>
		<circle id="path4406" class="st1" cx="951" cy="677.1" r="1"/>
		<circle id="path4408" class="st1" cx="-888.1" cy="35.8" r="2.1"/>
		<circle id="path4410" class="st1" cx="-1078.6" cy="130.9" r="1.1"/>
		<circle id="path4412" class="st1" cx="205.6" cy="174.2" r="2.3"/>
		<circle id="path4414" class="st1" cx="713.5" cy="-10.8" r="2.3"/>
		<circle id="path4416" class="st1" cx="-80" cy="544.8" r="1.3"/>
		<circle id="path4418" class="st1" cx="885.5" cy="-146.2" r="1"/>
		<circle id="path4420" class="st1" cx="605.3" cy="191.9" r="2.1"/>
		<circle id="path4422" class="st1" cx="-321.9" cy="331.6" r="1.6"/>
		<circle id="path4424" class="st1" cx="-112.8" cy="334.6" r="2.5"/>
		<circle id="path4426" class="st1" cx="-803.1" cy="10.3" r="1.4"/>
		<circle id="path4428" class="st1" cx="-1099.8" cy="663" r="2.1"/>
		<circle id="path4430" class="st1" cx="340.6" cy="-55.8" r="2.2"/>
		<circle id="path4432" class="st1" cx="90.9" cy="722.1" r="1.1"/>
		<circle id="path4434" class="st1" cx="-609.2" cy="546.5" r="1.7"/>
		<circle id="path4436" class="st1" cx="-1205.5" cy="-153.4" r="2.3"/>
		<circle id="path4438" class="st1" cx="407.3" cy="198.8" r="1"/>
		<circle id="path4440" class="st1" cx="88.5" cy="522.7" r="1.1"/>
		<circle id="path4442" class="st1" cx="-435.3" cy="59.6" r="2.5"/>
		<circle id="path4444" class="st1" cx="1113.3" cy="-64.9" r="1.1"/>
		<circle id="path4446" class="st1" cx="-505.9" cy="253.5" r="1.6"/>
		<circle id="path4448" class="st1" cx="-969.3" cy="482.9" r="2.3"/>
		<circle id="path4450" class="st1" cx="-149.1" cy="602.4" r="2.4"/>
		<circle id="path4452" class="st1" cx="911.1" cy="-197.3" r="2"/>
		<circle id="path4454" class="st1" cx="198.6" cy="-218.4" r="1.7"/>
		<circle id="path4456" class="st1" cx="-507.8" cy="-97.9" r="1.5"/>
		<circle id="path4458" class="st1" cx="1100.8" cy="157.7" r="2.4"/>
		<circle id="path4460" class="st1" cx="-1197.5" cy="526.9" r="2.3"/>
		<circle id="path4462" class="st1" cx="-300" cy="555.5" r="1.7"/>
		<circle id="path4464" class="st1" cx="1038.7" cy="165.2" r="1.3"/>
		<circle id="path4466" class="st1" cx="81.2" cy="51.6" r="1.5"/>
		<circle id="path4468" class="st1" cx="-973.8" cy="476.7" r="2.3"/>
		<circle id="path4470" class="st1" cx="797.1" cy="518.2" r="1.8"/>
		<circle id="path4472" class="st1" cx="1006.1" cy="232" r="1"/>
		<circle id="path4474" class="st1" cx="-862.4" cy="271.9" r="1.4"/>
		<circle id="path4476" class="st1" cx="-263.9" cy="533.8" r="1.3"/>
		<circle id="path4478" class="st1" cx="-495.7" cy="554.5" r="1.2"/>
		<circle id="path4480" class="st1" cx="215.4" cy="63" r="1.6"/>
		<circle id="path4482" class="st1" cx="817.4" cy="656.3" r="2"/>
		<circle id="path4484" class="st1" cx="-388" cy="696.5" r="1.6"/>
		<circle id="path4486" class="st1" cx="13.8" cy="706.7" r="1.9"/>
		<circle id="path4488" class="st1" cx="671.6" cy="357.7" r="2.1"/>
		<circle id="path4490" class="st1" cx="-1068.3" cy="738.5" r="1"/>
		<circle id="path4492" class="st1" cx="-469.5" cy="306.3" r="1.5"/>
		<circle id="path4494" class="st1" cx="-301.8" cy="421" r="2.1"/>
		<circle id="path4496" class="st1" cx="401.2" cy="-43.7" r="2"/>
		<circle id="path4498" class="st1" cx="100.9" cy="116.2" r="1.9"/>
		<circle id="path4500" class="st1" cx="904.9" cy="204.6" r="1.9"/>
		<circle id="path4502" class="st1" cx="619.9" cy="549.6" r="1.6"/>
		<circle id="path4504" class="st1" cx="-881.1" cy="-146" r="1.9"/>
		<circle id="path4506" class="st1" cx="-889.2" cy="-231.9" r="2.3"/>
		<circle id="path4508" class="st1" cx="780.7" cy="407.9" r="0.9"/>
		<circle id="path4510" class="st1" cx="-884" cy="571" r="2.5"/>
		<circle id="path4512" class="st1" cx="-539.3" cy="742.3" r="2"/>
		<circle id="path4514" class="st1" cx="-252.1" cy="-19.4" r="1.6"/>
		<circle id="path4516" class="st1" cx="-415.4" cy="28.9" r="1.1"/>
		<circle id="path4518" class="st1" cx="-1076" cy="-253.4" r="1.4"/>
		<circle id="path4204-2" class="st2" cx="-451.7" cy="852.4" r="1.7"/>
		<circle id="path4206-2" class="st2" cx="-18" cy="867.9" r="1.7"/>
		<circle id="path4212-1" class="st2" cx="295.4" cy="884.1" r="1.7"/>
		<circle id="path4218-7" class="st1" cx="-921.6" cy="875.7" r="1.7"/>
		<circle id="path4224-8" class="st2" cx="-66.6" cy="963.3" r="1.7"/>
		<circle id="path4230-8" class="st2" cx="111.3" cy="920.7" r="3.5"/>
		<circle id="path4254-6" class="st2" cx="698.3" cy="971.9" r="2.3"/>
		<circle id="path4264-0" class="st1" cx="952.9" cy="914.9" r="2.5"/>
		<circle id="path4268-9" class="st2" cx="-390.6" cy="945.2" r="1.8"/>
		<circle id="path4276-4" class="st1" cx="-1046.5" cy="973" r="2.4"/>
		<circle id="path4280-4" class="st2" cx="92.1" cy="894.5" r="1"/>
		<circle id="path4300-5" class="st2" cx="-802.1" cy="907.4" r="2.3"/>
		<circle id="path4324-0" class="st1" cx="983.7" cy="970.5" r="1"/>
		<circle id="path4358-4" class="st2" cx="-155.7" cy="854.4" r="1.5"/>
		<circle id="path4372-7" class="st2" cx="315.8" cy="960.9" r="2.5"/>
		<circle id="path4378-4" class="st2" cx="-482.3" cy="837.9" r="1.8"/>
		<circle id="path4416-0" class="st2" cx="-43.7" cy="945.3" r="1.3"/>
		<circle id="path4434-4" class="st2" cx="-573" cy="947" r="1.7"/>
		<circle id="path4440-2" class="st2" cx="124.7" cy="923.2" r="1.1"/>
		<circle id="path4448-7" class="st1" cx="-933" cy="883.4" r="2.3"/>
		<circle id="path4460-7" class="st1" cx="-1161.3" cy="927.4" r="2.3"/>
		<circle id="path4462-8" class="st2" cx="-263.8" cy="956" r="1.7"/>
		<circle id="path4470-0" class="st2" cx="833.3" cy="918.8" r="1.8"/>
		<circle id="path4476-3" class="st2" cx="-227.7" cy="934.3" r="1.3"/>
		<circle id="path4478-9" class="st2" cx="-459.5" cy="955.1" r="1.2"/>
		<circle id="path4502-4" class="st2" cx="656.1" cy="950.1" r="1.6"/>
		<circle id="path4510-2" class="st1" cx="-847.8" cy="971.5" r="2.5"/>
	</g>
	<g id="g4677">
		
			<image style="overflow:visible;opacity:0.75;" width="396" height="591" xlink:href="752336B19E624988.png"  transform="matrix(1 0 0 1 57.3847 -366.1959)">
		</image>
		<g>
			<g>
				<path id="path4522_12_" inkscape:connector-curvature="0" sodipodi:nodetypes="cccc" class="st1" d="M91.8,179.5l339.2-523.5
					L101.7,186.6L91.8,179.5z"/>
				<g id="path4520_10_" inkscape:connector-curvature="0" sodipodi:nodetypes="ccccc">
					
						<image style="overflow:visible;opacity:0.75;" width="37" height="39" xlink:href="752336B19E624989.png"  transform="matrix(1 0 0 1 77.1847 164.6041)">
					</image>
					<g>
						<path class="st1" d="M102.2,181.3c0.4,4.5-0.3,10.5-4.8,10.9s-8.4-2.8-8.9-7.3c-0.4-4.5,4-7.1,8.5-7.6
							C99.9,173.8,104.3,177.6,102.2,181.3z"/>
					</g>
				</g>
			</g>
		</g>
	</g>
</g>
</svg>
