<?xml version="1.0" encoding="utf-8"?>
<!-- Generator: Adobe Illustrator 22.1.0, SVG Export Plug-In . SVG Version: 6.00 Build 0)  -->
<svg version="1.1" id="Layer_1" xmlns="http://www.w3.org/2000/svg" xmlns:xlink="http://www.w3.org/1999/xlink" x="0px" y="0px"
	 viewBox="0 0 1024 828.9" style="enable-background:new 0 0 1024 828.9;" xml:space="preserve">
<style type="text/css">
	.st0{fill:#B01B29;}
	.st1{fill:#8865D2;}
	.st2{fill:#9B8DBA;}
	.st3{fill:#61547B;}
	.st4{fill:#381C75;}
	.st5{fill:#5A6822;}
	.st6{fill:#8B9A3B;}
	.st7{fill:#882F12;}
	.st8{fill:#DB4B1D;}
	.st9{fill:#D2711C;}
	.st10{fill:#F2811D;}
	.st11{fill:#1477A3;}
	.st12{fill:#188DC1;}
	.st13{fill:#C59822;}
	.st14{fill:#EFAC2C;}
	.st15{fill:#7C0053;}
	.st16{fill:#9E1F63;}
	.st17{fill:#DFE5BC;}
	.st18{fill:#DC8301;}
</style>
<title>graphic3</title>
<polygon class="st0" points="69.9,622.4 784.5,206.9 876.2,206.9 161.5,622.4 "/>
<g>
	<polygon class="st1" points="89.1,388.7 540.2,122.1 540,185.5 88.9,452.1 	"/>
	<polygon class="st2" points="0,388.7 451.1,122.1 540.2,122.1 89.1,388.7 	"/>
</g>
<g>
	<polygon class="st3" points="296.4,452.9 630,259.8 629.8,324.5 296.3,517.6 	"/>
	<polygon class="st4" points="296.3,452.9 629.8,259.8 759,261.3 425.5,454.5 	"/>
</g>
<g>
	<polygon class="st5" points="399.2,525.3 399.1,557.4 195.7,557.4 195.8,525.3 	"/>
	<polygon class="st6" points="399.2,525.3 999.2,179 999.1,211.1 399.1,557.4 	"/>
</g>
<g>
	<polygon class="st7" points="321.7,681.7 321.6,712.2 248.8,711.9 248.9,681.3 	"/>
	<polygon class="st8" points="248.9,681.3 887.8,310.6 961,310.6 321.7,681.7 	"/>
</g>
<g>
	<polygon class="st9" points="229.9,471 229.6,583.3 138.3,582.2 138.3,471 	"/>
	<polygon class="st10" points="138.3,471 398.2,320.3 489.8,320.3 229.9,471 	"/>
</g>
<g>
	<polygon class="st11" points="296.3,108.3 296.2,166.2 203.2,166.3 203.2,108.3 	"/>
	<polygon class="st12" points="203.2,108.3 298.2,51.2 392.1,51.2 296.3,108.3 	"/>
</g>
<g>
	<polygon class="st13" points="704,96.3 703.8,155.1 611.5,155.1 611.8,96.3 	"/>
	<polygon class="st14" points="611.8,96.3 714.7,35.8 806.6,35.8 703.7,96.3 	"/>
</g>
<g>
	<polygon class="st15" points="721.9,502.2 721.7,549.6 667.8,549.6 668,502.2 	"/>
	<polygon class="st16" points="721.9,502.2 1024,327.5 1023.9,374.9 721.7,549.6 	"/>
</g>
<g>
	<polygon class="st13" points="502.8,797.3 848,597.1 848,628.6 502.7,828.9 	"/>
	<polygon class="st14" points="410.7,796.8 756,596.5 848,597.1 502.8,797.3 	"/>
</g>
<polygon class="st0" points="593.8,40.3 560.2,59.5 560.2,20.1 593.8,0.9 "/>
<polygon class="st17" points="602.5,629.2 568.8,648.4 568.8,609 602.5,589.8 "/>
<polygon class="st9" points="145.1,198.6 111.5,217.8 111.5,178.4 145.1,159.2 "/>
<polygon class="st12" points="944.2,594.1 887.8,626.3 887.8,560.2 944.2,528 "/>
<polygon class="st11" points="797.8,145.1 780.2,155.1 780.2,134.5 797.8,124.5 "/>
<polygon class="st17" points="485,64.8 467.4,74.8 467.4,54.2 485,44.2 "/>
<polygon class="st17" points="842.3,712.2 824.7,722.3 824.7,701.7 842.3,691.7 "/>
<polygon class="st13" points="294,610.4 276.5,620.4 276.5,599.8 294,589.8 "/>
<polygon class="st6" points="14.6,287.1 53.4,265.5 109.3,265.5 70.6,287.1 "/>
<polygon class="st0" points="916,494 954.7,472.4 1010.6,472.4 971.9,494 "/>
<polygon class="st18" points="855.5,160.3 881.9,145.6 920,145.6 893.6,160.3 "/>
<polygon class="st9" points="684.4,776.2 704.6,764.9 733.7,764.9 713.5,776.2 "/>
<polygon class="st15" points="495.7,268.2 522.1,253.5 560.2,253.5 533.8,268.2 "/>
<polygon class="st12" points="440.8,691.7 467.2,677 505.3,677 478.9,691.7 "/>
</svg>
