<svg id="Artwork" xmlns="http://www.w3.org/2000/svg" viewBox="0 0 997.08 828.14"><defs><style>.cls-1{fill:#9e1f63;}.cls-2{fill:#ff0048;stroke:#ff0048;}.cls-3{fill:#381c75;}.cls-4,.cls-7{fill:#06bbcf;}.cls-4{stroke:#06bbcf;}.cls-5{fill:#fff;}.cls-6{fill:#9b8dba;}</style></defs><title>graphic2</title><path class="cls-1" d="M1009.08,547.8a9.8,9.8,0,0,0-.25,1.4,70.76,70.76,0,0,1-5.16,23.4,72.58,72.58,0,0,1-5.79,11.56,5.78,5.78,0,0,1-.33.48.37.37,0,0,1-.14,0,.14.14,0,0,1-.06-.08q0-40.12,0-80.23a2.16,2.16,0,0,1,.15-.51l.81,1.3a74.48,74.48,0,0,1,9.82,27.09c.36,2.32.48,4.68.72,7,.06.55.17,1.09.26,1.64Z" transform="translate(-12 -97.86)"/><path class="cls-1" d="M639.48,541.8c.16-1,.4-2,.47-2.94a75.67,75.67,0,0,1,9.41-31.69q.25-.46.54-.93a.65.65,0,0,1,.17-.16h.11s.08,0,.08.07q0,37.72.07,75.44c0,.31,0,.62-.07,1.17a9.7,9.7,0,0,1-.59-.79A73.93,73.93,0,0,1,641,557.86c-.55-3.22-.8-6.5-1.21-9.75a11.11,11.11,0,0,0-.29-1.27Z" transform="translate(-12 -97.86)"/><path class="cls-1" d="M843.54,726.53A66.5,66.5,0,0,1,832,728.58l-.13-.15s-.06-.06-.06-.09q0-183.54,0-367.06c0-.32,0-.64,0-1a1.45,1.45,0,0,1,.17-.32c1.17.14,2.4.22,3.6.44,2.36.42,4.71.89,7.06,1.38.93.19.93.24.95,1.19,0,.32,0,.64,0,1V726.53Z" transform="translate(-12 -97.86)"/><path class="cls-1" d="M815.94,728.48a72,72,0,0,1-11.75-2.22V362.37a68.44,68.44,0,0,1,11.59-2.24c.06.36.13.66.15,1s0,.8,0,1.2V728.48Z" transform="translate(-12 -97.86)"/><path class="cls-1" d="M859.37,368.14c.45.21.75.32,1,.47a78.73,78.73,0,0,1,9.91,6.31,1.71,1.71,0,0,1,.84,1.7,9.73,9.73,0,0,0,0,1.08q0,166.6,0,333.2c0,2.59.38,1.84-1.71,3.41a70.68,70.68,0,0,1-8.81,5.57l-1,.49a1.24,1.24,0,0,1-.21-.06.16.16,0,0,1,0-.11q0-175.53-.05-351.08C859.31,368.85,859.34,368.57,859.37,368.14Z" transform="translate(-12 -97.86)"/><path class="cls-1" d="M788.27,368.73v351a3.12,3.12,0,0,1-.68-.19,77.24,77.24,0,0,1-10.49-7,1.29,1.29,0,0,1-.6-1.21c0-.31,0-.64,0-1q0-166.07,0-332.13a3.16,3.16,0,0,1,1.43-2.87,86.94,86.94,0,0,1,9-5.93C787.29,369.24,787.67,369.05,788.27,368.73Z" transform="translate(-12 -97.86)"/><path class="cls-1" d="M887,390.64c.42.39.66.59.88.82,3.37,3.36,6.72,6.74,10.11,10.08a2.15,2.15,0,0,1,.78,1.89,7.85,7.85,0,0,0,0,.84q0,140,0,280.06a4.16,4.16,0,0,1-1.37,3.34c-3.17,3-6.24,6.19-9.35,9.31-.28.28-.52.6-.72.83l-.28-.07s-.08,0-.08-.08q0-152.92-.05-305.84C886.91,391.51,886.94,391.2,887,390.64Z" transform="translate(-12 -97.86)"/><path class="cls-1" d="M760.67,391.81v304.9c-.36-.29-.61-.47-.82-.68-3.43-3.42-6.84-6.85-10.28-10.25a1.81,1.81,0,0,1-.67-1.57,7.69,7.69,0,0,0,0-1q0-138.94,0-277.88a4,4,0,0,1,1.27-3.14c3.2-3.08,6.3-6.26,9.44-9.39C759.87,392.56,760.16,392.29,760.67,391.81Z" transform="translate(-12 -97.86)"/><path class="cls-1" d="M914.58,418.24c.42.39.66.6.88.82,3.37,3.36,6.72,6.74,10.11,10.08a2.17,2.17,0,0,1,.77,1.9,7.85,7.85,0,0,0,0,.84q0,112.42,0,224.85a4.18,4.18,0,0,1-1.37,3.34c-3.18,3-6.25,6.2-9.35,9.32a6.3,6.3,0,0,0-.64.86,2.15,2.15,0,0,1-.37-.12.11.11,0,0,1-.07-.08q0-125.44,0-250.88C914.51,418.94,914.54,418.71,914.58,418.24Z" transform="translate(-12 -97.86)"/><path class="cls-1" d="M733,669.17c-.44-.42-.7-.65-.95-.9-3.34-3.34-6.67-6.69-10-10a2.43,2.43,0,0,1-.77-1.89c0-6.16,0-12.32,0-18.48V433.09a8.17,8.17,0,0,1,0-1.31,2,2,0,0,1,.42-1.06c3.66-3.69,7.35-7.35,11-11l.11,0a.35.35,0,0,1,.11,0s.07.06.07.08q0,124.25.07,248.47C733.13,668.47,733.09,668.7,733,669.17Z" transform="translate(-12 -97.86)"/><path class="cls-1" d="M942.17,642.8V445.89c.38.33.65.54.89.78,3.34,3.33,6.66,6.68,10,10a2.66,2.66,0,0,1,.86,2.1c0,7.8,0,15.6,0,23.4v147a7.85,7.85,0,0,0,0,.84,2.15,2.15,0,0,1-.78,1.89c-3.38,3.34-6.74,6.72-10.1,10.08C942.83,642.18,942.6,642.39,942.17,642.8Z" transform="translate(-12 -97.86)"/><path class="cls-1" d="M705.45,447V641.53c-.4-.35-.66-.57-.91-.81-3.36-3.36-6.72-6.74-10.1-10.08a2,2,0,0,1-.74-1.78,5.77,5.77,0,0,0,0-.72q0-83.86,0-167.73a3.67,3.67,0,0,1,1.21-2.92c3.22-3.11,6.36-6.31,9.52-9.48Z" transform="translate(-12 -97.86)"/><path class="cls-1" d="M969.77,615.2V473.5c.35.3.6.47.81.68,3.39,3.39,6.78,6.8,10.19,10.17a2.43,2.43,0,0,1,.78,1.89c0,6.2,0,12.4,0,18.6q0,48.46,0,96.94a3.69,3.69,0,0,1-1.21,2.93c-3.22,3.11-6.36,6.31-9.52,9.48C970.55,614.47,970.25,614.73,969.77,615.2Z" transform="translate(-12 -97.86)"/><path class="cls-1" d="M677.87,474.61V613.93c-.39-.34-.66-.55-.9-.78-3.37-3.36-6.72-6.74-10.11-10.08a2.46,2.46,0,0,1-.77-1.9c0-6.07,0-12.15,0-18.23q0-47.45,0-94.89a3.65,3.65,0,0,1,1.19-2.93c3.22-3.12,6.35-6.32,9.52-9.48C677.07,475.36,677.36,475.09,677.87,474.61Z" transform="translate(-12 -97.86)"/><path class="cls-2" d="M178,593.87a67.29,67.29,0,0,1,1-11.35,4.08,4.08,0,0,1,.82-.22h539a3.33,3.33,0,0,1,.73.21c.93,3.69.66,7.44.79,11.27a10.57,10.57,0,0,1-1.46.28c-.71.05-1.43,0-2.15,0H181.59A14.53,14.53,0,0,1,178,593.87Z" transform="translate(-12 -97.86)"/><path class="cls-2" d="M179.45,621.53a95,95,0,0,1-1.37-11.3,14.65,14.65,0,0,1,1.53-.24c.8,0,1.6,0,2.4,0h534.4c1.18,0,2.37,0,3.51,0,.66,2.44.24,7.9-.85,11.53a9,9,0,0,1-1.12.19C713,622,181.56,621.8,179.45,621.53Z" transform="translate(-12 -97.86)"/><path class="cls-2" d="M182.24,566.5a17.56,17.56,0,0,1,.28-2A80.12,80.12,0,0,1,185.6,555a7.08,7.08,0,0,1,1-.16H712.88a23.14,23.14,0,0,1,2.06,5.61,28.58,28.58,0,0,1,1.5,5.91,13.9,13.9,0,0,1-1.44.24c-.72,0-1.44,0-2.16,0H185.9C184.79,566.55,183.68,566.52,182.24,566.5Z" transform="translate(-12 -97.86)"/><path class="cls-2" d="M182.88,637.69c2.25-.29,530.32-.3,532.66,0,0,2.11-.93,4-1.51,5.92a30.35,30.35,0,0,1-2.11,5.62H186.69A85.62,85.62,0,0,1,182.88,637.69Z" transform="translate(-12 -97.86)"/><path class="cls-2" d="M699.53,527.15c2.32,3,6,9.6,6.4,11.71H193.59a5.85,5.85,0,0,1-.89-.14,52.33,52.33,0,0,1,6.49-11.57Z" transform="translate(-12 -97.86)"/><path class="cls-2" d="M704.57,665.21a9.33,9.33,0,0,1-.47,1.27c-1.79,3-3.61,6-5.39,9.07a2.41,2.41,0,0,1-2.52,1.41c-.63-.06-1.28,0-1.92,0H203.77c-3.13,0-2.68.39-4.4-2.35-1.44-2.3-2.81-4.65-4.19-7-.37-.61-.67-1.27-1-1.81.13-.67.58-.61,1-.62.72,0,1.44,0,2.16,0H701.53C702.47,665.17,703.42,665.19,704.57,665.21Z" transform="translate(-12 -97.86)"/><path class="cls-2" d="M210.82,511.35a17.93,17.93,0,0,1,1.06-1.5c3-3.13,6-6.24,8.94-9.37a2.53,2.53,0,0,1,2.11-.91c.72,0,1.44,0,2.16,0H676.8A144.51,144.51,0,0,1,687.72,511a6.24,6.24,0,0,1-1.24.37c-.72.05-1.44,0-2.16,0H210.82Z" transform="translate(-12 -97.86)"/><path class="cls-2" d="M224.63,704.39c-3.63-3.68-7.48-7.28-10.92-11.19.28-.63.72-.52,1.09-.53.72,0,1.44,0,2.16,0H684.64c.39.5.13.82-.14,1.1-1.62,1.67-3.23,3.33-4.86,5-1.85,1.88-3.71,3.75-5.59,5.64Z" transform="translate(-12 -97.86)"/><path class="cls-2" d="M648.77,471.86l11.53,11.58c-.12.35-.57.21-.93.22-.64,0-1.28,0-1.92,0H241.37a15.15,15.15,0,0,1-3.28-.16,11.54,11.54,0,0,1,.82-1.1c3.16-3.17,6.34-6.32,9.49-9.51a2.93,2.93,0,0,1,2.54-1,15.49,15.49,0,0,0,1.67,0H648.77Z" transform="translate(-12 -97.86)"/><path class="cls-2" d="M241,720.6c2.6-.32,407.21-.49,415.52-.22a10.6,10.6,0,0,1,1.12.18c-.38.47-.58.79-.83,1.05-3.11,3.11-6.25,6.2-9.32,9.34a3.38,3.38,0,0,1-3,1.21,15.68,15.68,0,0,0-1.68,0q-193.43,0-386.85,0c-4.24,0-3,.53-6-2.44-2.45-2.41-4.87-4.86-7.29-7.3C242.14,721.9,241.68,721.36,241,720.6Z" transform="translate(-12 -97.86)"/><path class="cls-2" d="M265.89,456c0-.29,0-.5.08-.58,3.64-3.7,7.3-7.38,10.9-11H621.54c2.14,1.8,10,9.77,11.28,11.4a5.21,5.21,0,0,1-1.08.3c-.64.05-1.28,0-1.92,0H268.68A10,10,0,0,1,265.89,456Z" transform="translate(-12 -97.86)"/><path class="cls-2" d="M279.84,759.59c-3.72-3.68-7.48-7.46-11.19-11.18a2,2,0,0,1,.21-.42.32.32,0,0,1,.21-.08l360.18,0a3.39,3.39,0,0,1,.66.14c-.78,1.4-5.93,6.72-11.19,11.58Z" transform="translate(-12 -97.86)"/><path class="cls-2" d="M293.31,428.3a8.26,8.26,0,0,1,.79-1.07c3.16-3.18,6.34-6.33,9.48-9.52a3,3,0,0,1,2.54-1.06,15.68,15.68,0,0,0,1.68,0H593.57l11.52,11.59c-.09.34-.54.2-.91.21-.63,0-1.27,0-1.91,0H296.59A14,14,0,0,1,293.31,428.3Z" transform="translate(-12 -97.86)"/><path class="cls-2" d="M296.18,775.8c2.61-.32,296.62-.49,305.12-.22.29,0,.57.09,1.12.17a12.11,12.11,0,0,1-.83,1.06c-3.11,3.11-6.25,6.2-9.32,9.34a3.37,3.37,0,0,1-3,1.21,15.69,15.69,0,0,0-1.68,0q-138.22,0-276.46,0c-4.29,0-3,.56-6.2-2.61-2.4-2.35-4.76-4.74-7.13-7.13C297.34,777.1,296.88,776.57,296.18,775.8Z" transform="translate(-12 -97.86)"/><path class="cls-2" d="M566.35,389.17c3.8,3.41,10.17,9.93,11.2,11.45a2.4,2.4,0,0,1-.63.3c-1.82.17-254.4,0-255.75-.15-.3-.48.11-.73.37-1,3.21-3.24,6.45-6.44,9.65-9.69a2.82,2.82,0,0,1,2.34-.94c.64,0,1.28,0,1.92,0h230.9Z" transform="translate(-12 -97.86)"/><path class="cls-2" d="M335.21,814.79A157,157,0,0,1,324,803.4a.7.7,0,0,1,.11-.21.32.32,0,0,1,.21-.08l249.78,0a3.39,3.39,0,0,1,.66.14c-.79,1.41-5.93,6.72-11.19,11.58Z" transform="translate(-12 -97.86)"/><path class="cls-2" d="M550.11,373.13a9.74,9.74,0,0,1-1.13.13H348.75c.06-.35,0-.64.13-.76a121.78,121.78,0,0,1,11.52-10.85l.34-.2H535.32c.32,0,.64,0,1,0a3.77,3.77,0,0,1,3.23,1.16c3.38,3.29,6.8,6.54,10.2,9.82A4,4,0,0,1,550.11,373.13Z" transform="translate(-12 -97.86)"/><path class="cls-2" d="M351.33,830.77H547.14a4.08,4.08,0,0,1-.42.87,126.89,126.89,0,0,1-11,10,3.51,3.51,0,0,1-2.63.93c-.55,0-1.11,0-1.67,0H367.11c-.56,0-1.13,0-1.68,0a3.35,3.35,0,0,1-2.41-.87,140,140,0,0,1-10.87-9.79A11.15,11.15,0,0,1,351.33,830.77Z" transform="translate(-12 -97.86)"/><path class="cls-2" d="M514.14,345.76c-43.09,0-86.19,0-129.28-.06-.12,0-.24-.17-.48-.36a13.48,13.48,0,0,1,1.18-.75,132,132,0,0,1,25.54-10.22,11.22,11.22,0,0,1,2.83-.38c2.56-.05,5.12,0,7.68,0H484a14.6,14.6,0,0,1,4.25.55,138.24,138.24,0,0,1,24.62,10l1.44.78Z" transform="translate(-12 -97.86)"/><path class="cls-2" d="M390.08,858.26H508.44c0,.9-.64.86-1,1a134.65,134.65,0,0,1-27.13,9.32q-2.69.61-5.4,1.1a17.72,17.72,0,0,1-3.08.35q-22.44,0-44.87,0a24.47,24.47,0,0,1-4.5-.54,136.5,136.5,0,0,1-31.34-10.27C390.74,859.06,390.13,859.07,390.08,858.26Z" transform="translate(-12 -97.86)"/><path class="cls-3" d="M461.09,227.3c-.87.27-1.73.62-2.61.82a8.32,8.32,0,1,1,6.09-5.1c-.14.36-.29.71-.46,1.13,4.38-1.61,4.61-1.5,8.8-.37-1.48-4.41-.72-8.22,3.24-10.88a7.89,7.89,0,0,1,9.45.07c3.93,2.75,4.7,6.59,3,11.11.34-.11.52-.17.69-.24a9,9,0,0,1,7.87.35l.43.21h0c-.13-.33-.25-.67-.38-1a8.34,8.34,0,1,1,7.8,5,8,8,0,0,1-3.39-.66l-1-.46a12,12,0,0,1,1.25,4.27,10.53,10.53,0,0,1-.76,4.24,4.09,4.09,0,0,0,.64-.11,8.89,8.89,0,0,1,7.31.48,4.11,4.11,0,0,0,.56.19l.07,0-.08,0c-.13-.38-.26-.75-.41-1.12a8.33,8.33,0,1,1,7.78,5.11,7.83,7.83,0,0,1-3.49-.71c-.32-.15-.66-.27-1-.4l0,0,0,0c.11.25.2.52.32.77a8.89,8.89,0,0,1,.18,7.75c-.07.14-.14.29-.2.43a1.17,1.17,0,0,0,0,.25c.27-.09.51-.16.73-.25a8.49,8.49,0,1,1-.55,15.47,5.36,5.36,0,0,0-.58-.22c.13.3.19.47.27.63a8.83,8.83,0,0,1-.29,8.49,7.27,7.27,0,0,0-.33.76l0,0,0,0a8.1,8.1,0,0,1,8.1-.77,8.22,8.22,0,1,1-10.74,3.85c.15-.31.32-.61.61-1.16a9.22,9.22,0,0,1-9.42.62,10.49,10.49,0,0,1,.94,5,9.46,9.46,0,0,1-1.95,4.77c2.46-1.61,4.85-2.23,7.47-1.45a8,8,0,0,1,4.54,3.33,8.18,8.18,0,0,1-11.79,11c-3.45-2.64-4.1-6.86-1.63-11.48a9.2,9.2,0,0,1-10.32.33,8.75,8.75,0,0,1,1.09,6.77,8.32,8.32,0,0,1-3.07,4.6,8.41,8.41,0,0,1-10.35-.13c-3.31-2.65-4-6.62-1.83-11.32a10.33,10.33,0,0,1-5.18,1.41,9.63,9.63,0,0,1-5.08-1.74,8.69,8.69,0,0,1,1.38,6.54A8,8,0,0,1,460.9,299a8.18,8.18,0,0,1-10.52-12.22c2.23-2.73,6.7-4.3,11.39-1.32a9.12,9.12,0,0,1-.84-9.64,11.17,11.17,0,0,1-4.85,1,9.84,9.84,0,0,1-4.72-1.76c.29.54.45.84.6,1.14a8.18,8.18,0,0,1-7.18,12,8.2,8.2,0,0,1-1.7-16.24,8,8,0,0,1,6.48,1.43l0,0,0,0a6.36,6.36,0,0,0-.34-.75,8.67,8.67,0,0,1-.49-8.36c.1-.22.19-.43.36-.83l-1.21.44a8.5,8.5,0,1,1-4.68-16.26,9,9,0,0,1,5.89,1l0,0,0,0c-.29-.78-.63-1.55-.87-2.35a8.64,8.64,0,0,1,.62-6.29c.16-.33.33-.64.5-1l0,0,0,0a22.57,22.57,0,0,1-2.91,1.06,8.3,8.3,0,1,1,6.12-5c-.18.44-.37.88-.56,1.32h0c.18-.08.37-.14.55-.24a8.92,8.92,0,0,1,7.3-.58c.18.06.38.1.69.17a4.74,4.74,0,0,0-.1-.59,9,9,0,0,1,.55-7.53,2.68,2.68,0,0,0,.13-.34Zm48,24.71a9.81,9.81,0,0,1-4.76,1c-.79-.07-1.56-.23-2.34-.35a28.31,28.31,0,0,1,.41,3.41,29.89,29.89,0,0,1-.42,3.61,9.38,9.38,0,0,1,7.39.85c-.14-.31-.18-.42-.23-.53a8.52,8.52,0,0,1-.28-7.2c.1-.25.14-.53.22-.8Zm-56.89-.24,0-.06,0,0a5.44,5.44,0,0,0,.19.57,8.47,8.47,0,0,1-.06,7.4,2.88,2.88,0,0,0-.14.46,12.1,12.1,0,0,1,7.27-.77,30.6,30.6,0,0,1-.39-3.42,29.44,29.44,0,0,1,.35-3.36l-.16,0-.35,0A8.89,8.89,0,0,1,453,252C452.73,251.92,452.45,251.86,452.19,251.77ZM484.36,277a11.08,11.08,0,0,1-3.63.66c-1.2-.07-2.4-.33-3.65-.52.05.27.08.46.13.65a8.88,8.88,0,0,1-1,6.81,3.71,3.71,0,0,0-.22.55l0,0,0,0a8.53,8.53,0,0,1,9.42-.08c-.17-.33-.23-.46-.3-.58a8.74,8.74,0,0,1-.85-6.69,5.4,5.4,0,0,0,.12-.82Zm-7.26-48.88a25.37,25.37,0,0,1,.65,3.19,26.47,26.47,0,0,1-.13,3.31,26.29,26.29,0,0,1,3.17-.36,25.44,25.44,0,0,1,3.19.34,23.35,23.35,0,0,1-.09-3.33,26.26,26.26,0,0,1,.78-3.41,8.23,8.23,0,0,1-3.78.88C479.61,228.62,478.34,228.3,477.1,228.09Zm19.1,37.08a12.19,12.19,0,0,1-6.14.39,29.85,29.85,0,0,1,.11,3.21,25.8,25.8,0,0,1-.48,2.88,13.76,13.76,0,0,1,7,.41C495.7,269,495.7,269,496.2,265.17Zm-31-.16a26.82,26.82,0,0,1,.22,3.58,25.44,25.44,0,0,1-.68,3.37,21.53,21.53,0,0,1,3.35-.73,22.82,22.82,0,0,1,3.55.28,26.87,26.87,0,0,1-.49-3.05,26.21,26.21,0,0,1,.25-3.18A10,10,0,0,1,465.22,265Zm6.33-24.48a9.54,9.54,0,0,1-6.64-.4,10.11,10.11,0,0,1,.47,6.63,26.19,26.19,0,0,1,2.93-.45,27.85,27.85,0,0,1,2.92.18A10.6,10.6,0,0,1,471.55,240.53Zm18.9,5.89c1.09,0,2.05-.06,3,0s1.83.27,2.7.41a23,23,0,0,1-.23-3.33,24,24,0,0,1,.63-3.25,10.58,10.58,0,0,1-6.37.56A11.25,11.25,0,0,1,490.45,246.42Zm-12.2,7.27c.05,1,.15,1.85.12,2.67s-.2,1.63-.32,2.57a11.3,11.3,0,0,1,5.2-.1c-.1-.91-.21-1.72-.29-2.54a17.49,17.49,0,0,0,.07-2.53A12,12,0,0,1,478.25,253.69Z" transform="translate(-12 -97.86)"/><path class="cls-3" d="M501,208.13a8.14,8.14,0,1,1-8.13-8.17A8.08,8.08,0,0,1,501,208.13Z" transform="translate(-12 -97.86)"/><path class="cls-3" d="M468.78,216.07a8,8,0,0,1-8.09-8.17,8.14,8.14,0,1,1,8.09,8.17Z" transform="translate(-12 -97.86)"/><path class="cls-3" d="M432.8,235.88a8.09,8.09,0,1,1-8.05,8.14A8,8,0,0,1,432.8,235.88Z" transform="translate(-12 -97.86)"/><path class="cls-3" d="M520.76,244.1a8.07,8.07,0,1,1,16.13,0,8.07,8.07,0,0,1-16.13,0Z" transform="translate(-12 -97.86)"/><path class="cls-3" d="M440.73,268a8,8,0,1,1-8.07-8.07A8,8,0,0,1,440.73,268Z" transform="translate(-12 -97.86)"/><path class="cls-3" d="M528.67,276.08a7.88,7.88,0,0,1-8-8,8,8,0,1,1,8,8Z" transform="translate(-12 -97.86)"/><path class="cls-3" d="M460.76,304a8,8,0,1,1,7.91,7.95A7.91,7.91,0,0,1,460.76,304Z" transform="translate(-12 -97.86)"/><path class="cls-3" d="M484.76,304.09a7.95,7.95,0,1,1,15.89.06,7.95,7.95,0,0,1-15.89-.06Z" transform="translate(-12 -97.86)"/><path class="cls-3" d="M480.84,203.83a7.68,7.68,0,0,1-7.79-7.72,7.77,7.77,0,1,1,15.53,0A7.67,7.67,0,0,1,480.84,203.83Z" transform="translate(-12 -97.86)"/><path class="cls-3" d="M452.54,208a7.74,7.74,0,1,1-15.48,0,7.74,7.74,0,0,1,15.48,0Z" transform="translate(-12 -97.86)"/><path class="cls-3" d="M524.54,208.14a7.67,7.67,0,0,1-7.83,7.68,7.74,7.74,0,1,1,7.83-7.68Z" transform="translate(-12 -97.86)"/><path class="cls-3" d="M440.53,220.06a7.72,7.72,0,1,1-7.71-7.8A7.57,7.57,0,0,1,440.53,220.06Z" transform="translate(-12 -97.86)"/><path class="cls-3" d="M536.53,220.14a7.72,7.72,0,1,1-7.64-7.78A7.71,7.71,0,0,1,536.53,220.14Z" transform="translate(-12 -97.86)"/><path class="cls-3" d="M533,256a7.68,7.68,0,1,1,7.65,7.74A7.6,7.6,0,0,1,533,256Z" transform="translate(-12 -97.86)"/><path class="cls-3" d="M420.67,263.59a7.55,7.55,0,0,1-7.62-7.62,7.65,7.65,0,1,1,15.3.06A7.56,7.56,0,0,1,420.67,263.59Z" transform="translate(-12 -97.86)"/><path class="cls-3" d="M440.29,292a7.6,7.6,0,1,1-7.6-7.63A7.6,7.6,0,0,1,440.29,292Z" transform="translate(-12 -97.86)"/><path class="cls-3" d="M536.29,292.09a7.61,7.61,0,1,1-15.21,0,7.61,7.61,0,0,1,15.21,0Z" transform="translate(-12 -97.86)"/><path class="cls-3" d="M504.82,188.54a7.56,7.56,0,1,1,0,15.12,7.56,7.56,0,1,1,0-15.12Z" transform="translate(-12 -97.86)"/><path class="cls-3" d="M516.69,296.54a7.56,7.56,0,1,1-7.57,7.5A7.45,7.45,0,0,1,516.69,296.54Z" transform="translate(-12 -97.86)"/><path class="cls-3" d="M449.25,196a7.58,7.58,0,1,1,7.52,7.58A7.52,7.52,0,0,1,449.25,196Z" transform="translate(-12 -97.86)"/><path class="cls-3" d="M452.27,303.92a7.58,7.58,0,1,1-15.15.1,7.58,7.58,0,1,1,15.15-.1Z" transform="translate(-12 -97.86)"/><path class="cls-3" d="M480.64,323.61a7.38,7.38,0,0,1-7.49-7.58,7.52,7.52,0,0,1,7.61-7.5,7.63,7.63,0,0,1,7.5,7.62A7.5,7.5,0,0,1,480.64,323.61Z" transform="translate(-12 -97.86)"/><path class="cls-3" d="M428.35,232a7.54,7.54,0,1,1-7.53-7.56A7.45,7.45,0,0,1,428.35,232Z" transform="translate(-12 -97.86)"/><path class="cls-3" d="M540.87,239.59a7.47,7.47,0,0,1-7.59-7.48,7.53,7.53,0,1,1,15.06,0A7.4,7.4,0,0,1,540.87,239.59Z" transform="translate(-12 -97.86)"/><path class="cls-3" d="M540.71,287.56a7.47,7.47,0,1,1,0-14.93,7.47,7.47,0,0,1,0,14.93Z" transform="translate(-12 -97.86)"/><path class="cls-3" d="M420.69,272.54a7.44,7.44,0,1,1,0,14.88,7.44,7.44,0,0,1,0-14.88Z" transform="translate(-12 -97.86)"/><path class="cls-3" d="M512.06,316.06a7.38,7.38,0,1,1-7.39-7.35A7.21,7.21,0,0,1,512.06,316.06Z" transform="translate(-12 -97.86)"/><path class="cls-3" d="M464.06,316a7.31,7.31,0,0,1-7.4,7.33,7.38,7.38,0,1,1,7.4-7.33Z" transform="translate(-12 -97.86)"/><path class="cls-3" d="M500.06,184.14a7.2,7.2,0,0,1-7.27,7.2,7.26,7.26,0,1,1,7.27-7.2Z" transform="translate(-12 -97.86)"/><path class="cls-3" d="M476.06,184a7.26,7.26,0,1,1-7.21-7.26A7.1,7.1,0,0,1,476.06,184Z" transform="translate(-12 -97.86)"/><path class="cls-3" d="M560,244.07a7.19,7.19,0,1,1-7.18-7.16A7.12,7.12,0,0,1,560,244.07Z" transform="translate(-12 -97.86)"/><path class="cls-3" d="M408.81,236.81a7.15,7.15,0,0,1,7.2,7.12,7.26,7.26,0,0,1-7.24,7.22,7.15,7.15,0,0,1-7.13-7.2A7,7,0,0,1,408.81,236.81Z" transform="translate(-12 -97.86)"/><path class="cls-3" d="M559.81,268.11a7.13,7.13,0,1,1-14.26,0,7.13,7.13,0,0,1,14.26,0Z" transform="translate(-12 -97.86)"/><path class="cls-3" d="M415.81,268a7.12,7.12,0,1,1-7-7.2A7.09,7.09,0,0,1,415.81,268Z" transform="translate(-12 -97.86)"/><path class="cls-3" d="M413.74,207.92a7.08,7.08,0,1,1,7,7.15A7.1,7.1,0,0,1,413.74,207.92Z" transform="translate(-12 -97.86)"/><path class="cls-3" d="M425.74,195.9a7.08,7.08,0,1,1,7,7.16A7,7,0,0,1,425.74,195.9Z" transform="translate(-12 -97.86)"/><path class="cls-3" d="M540.8,215.14a7,7,0,0,1-7.07-7.07,7.16,7.16,0,0,1,7.11-7.06,7,7,0,0,1,7.06,7.1A6.93,6.93,0,0,1,540.8,215.14Z" transform="translate(-12 -97.86)"/><path class="cls-3" d="M528.71,203.14a7,7,0,0,1-7-7.16,7.15,7.15,0,0,1,7.2-7,7,7,0,0,1,7,7.07A7,7,0,0,1,528.71,203.14Z" transform="translate(-12 -97.86)"/><path class="cls-3" d="M475.76,328a7.06,7.06,0,1,1-7.06-7.11A7,7,0,0,1,475.76,328Z" transform="translate(-12 -97.86)"/><path class="cls-3" d="M492.68,335.12a6.93,6.93,0,0,1-7-7,7.06,7.06,0,1,1,14.11,0A7,7,0,0,1,492.68,335.12Z" transform="translate(-12 -97.86)"/><path class="cls-3" d="M523.78,184.07a7,7,0,1,1-13.91,0,7,7,0,0,1,13.91,0Z" transform="translate(-12 -97.86)"/><path class="cls-3" d="M444.79,190.89a6.8,6.8,0,0,1-6.92-6.92,6.93,6.93,0,0,1,6.92-6.95,7,7,0,0,1,7,7A6.91,6.91,0,0,1,444.79,190.89Z" transform="translate(-12 -97.86)"/><path class="cls-3" d="M535.63,316a6.94,6.94,0,1,1-7-6.86A6.85,6.85,0,0,1,535.63,316Z" transform="translate(-12 -97.86)"/><path class="cls-3" d="M547.63,304.09a6.94,6.94,0,1,1-6.93-6.92A6.86,6.86,0,0,1,547.63,304.09Z" transform="translate(-12 -97.86)"/><path class="cls-3" d="M432.67,322.87a6.91,6.91,0,1,1,.12-13.82,6.94,6.94,0,0,1,6.83,6.92A6.86,6.86,0,0,1,432.67,322.87Z" transform="translate(-12 -97.86)"/><path class="cls-3" d="M420.67,310.87a6.91,6.91,0,1,1,.11-13.82,6.94,6.94,0,0,1,6.84,6.92A6.87,6.87,0,0,1,420.67,310.87Z" transform="translate(-12 -97.86)"/><path class="cls-3" d="M545.94,220.06a6.9,6.9,0,1,1,6.91,6.93A6.75,6.75,0,0,1,545.94,220.06Z" transform="translate(-12 -97.86)"/><path class="cls-3" d="M401.94,220a6.87,6.87,0,0,1,6.8-6.92,6.9,6.9,0,1,1,.05,13.79A6.84,6.84,0,0,1,401.94,220Z" transform="translate(-12 -97.86)"/><path class="cls-3" d="M480.81,178.88a6.77,6.77,0,0,1-6.82-6.74,6.9,6.9,0,0,1,6.84-6.87,6.81,6.81,0,0,1,6.8,6.77A6.69,6.69,0,0,1,480.81,178.88Z" transform="translate(-12 -97.86)"/><path class="cls-3" d="M415.51,291.93a6.81,6.81,0,1,1-6.82-6.75A6.72,6.72,0,0,1,415.51,291.93Z" transform="translate(-12 -97.86)"/><path class="cls-3" d="M552.75,298.87a6.79,6.79,0,1,1,6.76-6.79A6.8,6.8,0,0,1,552.75,298.87Z" transform="translate(-12 -97.86)"/><path class="cls-3" d="M510,328a6.74,6.74,0,1,1,6.6,6.82A6.68,6.68,0,0,1,510,328Z" transform="translate(-12 -97.86)"/><path class="cls-3" d="M438,327.89a6.74,6.74,0,0,1,13.47.16,6.74,6.74,0,0,1-13.47-.16Z" transform="translate(-12 -97.86)"/><path class="cls-3" d="M558,256a6.72,6.72,0,1,1,6.67,6.77A6.64,6.64,0,0,1,558,256Z" transform="translate(-12 -97.86)"/><path class="cls-3" d="M498.15,172a6.68,6.68,0,1,1,6.58,6.8A6.59,6.59,0,0,1,498.15,172Z" transform="translate(-12 -97.86)"/><path class="cls-3" d="M396.65,262.63a6.61,6.61,0,0,1-6.64-6.74,6.69,6.69,0,0,1,13.37.1A6.62,6.62,0,0,1,396.65,262.63Z" transform="translate(-12 -97.86)"/><path class="cls-3" d="M450.18,171.92a6.62,6.62,0,0,1,6.67-6.61,6.66,6.66,0,1,1-.11,13.31A6.62,6.62,0,0,1,450.18,171.92Z" transform="translate(-12 -97.86)"/><path class="cls-3" d="M403.4,232a6.59,6.59,0,1,1-6.65-6.6A6.52,6.52,0,0,1,403.4,232Z" transform="translate(-12 -97.86)"/><path class="cls-3" d="M480.74,333.54a6.53,6.53,0,0,1,6.54,6.56,6.58,6.58,0,1,1-13.15-.07A6.48,6.48,0,0,1,480.74,333.54Z" transform="translate(-12 -97.86)"/><path class="cls-3" d="M564.78,238.63a6.5,6.5,0,0,1-6.54-6.55,6.58,6.58,0,1,1,13.16.08A6.49,6.49,0,0,1,564.78,238.63Z" transform="translate(-12 -97.86)"/><path class="cls-3" d="M396.86,273.46a6.52,6.52,0,1,1-6.66,6.17A6.48,6.48,0,0,1,396.86,273.46Z" transform="translate(-12 -97.86)"/><path class="cls-3" d="M558.19,280a6.52,6.52,0,1,1,6.39,6.59A6.51,6.51,0,0,1,558.19,280Z" transform="translate(-12 -97.86)"/><path class="cls-3" d="M463.11,339.91a6.43,6.43,0,1,1-6.41-6.37A6.38,6.38,0,0,1,463.11,339.91Z" transform="translate(-12 -97.86)"/><path class="cls-3" d="M511.11,340.13a6.26,6.26,0,0,1-6.39,6.39,6.43,6.43,0,1,1,6.39-6.39Z" transform="translate(-12 -97.86)"/><path class="cls-3" d="M540.77,177.74a6.36,6.36,0,1,1,0,12.72,6.36,6.36,0,0,1,0-12.72Z" transform="translate(-12 -97.86)"/><path class="cls-3" d="M414.47,183.92a6.35,6.35,0,1,1,6.27,6.4A6.26,6.26,0,0,1,414.47,183.92Z" transform="translate(-12 -97.86)"/><path class="cls-3" d="M402.47,196a6.35,6.35,0,1,1,6.3,6.37A6.26,6.26,0,0,1,402.47,196Z" transform="translate(-12 -97.86)"/><path class="cls-3" d="M552.81,202.41a6.32,6.32,0,0,1-6.35-6.29,6.44,6.44,0,0,1,6.43-6.38,6.32,6.32,0,0,1,6.28,6.39A6.2,6.2,0,0,1,552.81,202.41Z" transform="translate(-12 -97.86)"/><path class="cls-3" d="M499.07,160.26a6.27,6.27,0,1,1-6.17-6.45A6.26,6.26,0,0,1,499.07,160.26Z" transform="translate(-12 -97.86)"/><path class="cls-3" d="M475.07,160a6.26,6.26,0,1,1-6.24-6.23A6.2,6.2,0,0,1,475.07,160Z" transform="translate(-12 -97.86)"/><path class="cls-3" d="M535.06,172.05a6.2,6.2,0,0,1-6.23,6.28,6.25,6.25,0,0,1-.08-12.49A6.26,6.26,0,0,1,535.06,172.05Z" transform="translate(-12 -97.86)"/><path class="cls-3" d="M432.86,178.17a6.14,6.14,0,0,1-6.28-6.19,6.24,6.24,0,1,1,6.28,6.19Z" transform="translate(-12 -97.86)"/><path class="cls-3" d="M558.63,208a6.2,6.2,0,1,1,6.11,6.34A6.08,6.08,0,0,1,558.63,208Z" transform="translate(-12 -97.86)"/><path class="cls-3" d="M396.7,214.15A6.19,6.19,0,1,1,403,208,6.14,6.14,0,0,1,396.7,214.15Z" transform="translate(-12 -97.86)"/><path class="cls-3" d="M546.86,328.14a6.18,6.18,0,1,1-6.11-6.23A6.14,6.14,0,0,1,546.86,328.14Z" transform="translate(-12 -97.86)"/><path class="cls-3" d="M558.86,316.09a6.18,6.18,0,0,1-12.35,0,6.18,6.18,0,0,1,12.35,0Z" transform="translate(-12 -97.86)"/><path class="cls-3" d="M420.75,334.14a6.18,6.18,0,1,1-.1-12.35,6.18,6.18,0,0,1,.1,12.35Z" transform="translate(-12 -97.86)"/><path class="cls-3" d="M414.86,315.94a6.13,6.13,0,0,1-6.13,6.2,6.18,6.18,0,1,1,6.13-6.2Z" transform="translate(-12 -97.86)"/><path class="cls-3" d="M378.68,244a6.14,6.14,0,0,1,6.18-6.15,6.16,6.16,0,0,1,0,12.32A6.16,6.16,0,0,1,378.68,244Z" transform="translate(-12 -97.86)"/><path class="cls-3" d="M576.79,238a6.07,6.07,0,0,1,6.19,6.14,6.15,6.15,0,1,1-6.19-6.14Z" transform="translate(-12 -97.86)"/><path class="cls-3" d="M390.82,268a6.12,6.12,0,0,1-12.24,0,6.12,6.12,0,1,1,12.24,0Z" transform="translate(-12 -97.86)"/><path class="cls-3" d="M576.69,262a6.09,6.09,0,0,1,6.13,6.05,6.18,6.18,0,0,1-6.05,6.15,6.08,6.08,0,0,1-6.18-6.13A6,6,0,0,1,576.69,262Z" transform="translate(-12 -97.86)"/><path class="cls-3" d="M564.64,310.14a6.06,6.06,0,1,1,6.14-6.05A6.06,6.06,0,0,1,564.64,310.14Z" transform="translate(-12 -97.86)"/><path class="cls-3" d="M390.66,304a6,6,0,0,1,6.07-6.09,6.07,6.07,0,1,1-6.07,6.09Z" transform="translate(-12 -97.86)"/><path class="cls-3" d="M528.76,346.13a6,6,0,1,1,6-6.1A6,6,0,0,1,528.76,346.13Z" transform="translate(-12 -97.86)"/><path class="cls-3" d="M432.76,334a6,6,0,1,1-.11,12,6,6,0,1,1,.11-12Z" transform="translate(-12 -97.86)"/><path class="cls-3" d="M486.7,352a6,6,0,1,1,6,6.06A5.91,5.91,0,0,1,486.7,352Z" transform="translate(-12 -97.86)"/><path class="cls-3" d="M468.67,357.93a6,6,0,0,1-6-6,6,6,0,0,1,12,.05A5.88,5.88,0,0,1,468.67,357.93Z" transform="translate(-12 -97.86)"/><path class="cls-3" d="M510.87,160a6,6,0,1,1,5.85,6A5.84,5.84,0,0,1,510.87,160Z" transform="translate(-12 -97.86)"/><path class="cls-3" d="M444.83,154a6,6,0,1,1-6,5.91A6,6,0,0,1,444.83,154Z" transform="translate(-12 -97.86)"/><path class="cls-3" d="M378.93,220a5.91,5.91,0,1,1,5.86,5.88A5.92,5.92,0,0,1,378.93,220Z" transform="translate(-12 -97.86)"/><path class="cls-3" d="M570.93,220.14a5.9,5.9,0,1,1,5.88,5.84A5.87,5.87,0,0,1,570.93,220.14Z" transform="translate(-12 -97.86)"/><path class="cls-3" d="M378.91,292a5.79,5.79,0,0,1,5.73-5.85,5.86,5.86,0,0,1,5.89,5.85,5.81,5.81,0,0,1-11.62,0Z" transform="translate(-12 -97.86)"/><path class="cls-3" d="M570.91,292.14a5.78,5.78,0,0,1,5.71-5.86,5.81,5.81,0,1,1,.1,11.62A5.77,5.77,0,0,1,570.91,292.14Z" transform="translate(-12 -97.86)"/><path class="cls-3" d="M522.39,352.14a5.54,5.54,0,0,1-5.74,5.66,5.63,5.63,0,0,1-5.68-5.75,5.71,5.71,0,1,1,11.42.09Z" transform="translate(-12 -97.86)"/><path class="cls-3" d="M475.13,148.06a5.71,5.71,0,1,1,5.67,5.74A5.56,5.56,0,0,1,475.13,148.06Z" transform="translate(-12 -97.86)"/><path class="cls-3" d="M450.39,352a5.63,5.63,0,0,1-5.71,5.68,5.7,5.7,0,1,1,0-11.4A5.65,5.65,0,0,1,450.39,352Z" transform="translate(-12 -97.86)"/><path class="cls-3" d="M462.38,148a5.58,5.58,0,1,1-5.48-5.64A5.45,5.45,0,0,1,462.38,148Z" transform="translate(-12 -97.86)"/><path class="cls-3" d="M583.14,256.14a5.56,5.56,0,0,1,5.49-5.63,5.58,5.58,0,1,1,.09,11.15A5.51,5.51,0,0,1,583.14,256.14Z" transform="translate(-12 -97.86)"/><path class="cls-3" d="M510.38,148.15a5.51,5.51,0,0,1-5.59,5.51,5.58,5.58,0,1,1,5.59-5.51Z" transform="translate(-12 -97.86)"/><path class="cls-3" d="M558.36,172.18a5.56,5.56,0,1,1-5.45-5.66A5.55,5.55,0,0,1,558.36,172.18Z" transform="translate(-12 -97.86)"/><path class="cls-3" d="M367.16,255.9a5.56,5.56,0,0,1,11.11.08,5.56,5.56,0,1,1-11.11-.08Z" transform="translate(-12 -97.86)"/><path class="cls-3" d="M409,166.44a5.54,5.54,0,1,1-5.72,5.42A5.49,5.49,0,0,1,409,166.44Z" transform="translate(-12 -97.86)"/><path class="cls-3" d="M570.34,184.08a5.55,5.55,0,0,1-5.44,5.55,5.54,5.54,0,1,1-.16-11.07A5.49,5.49,0,0,1,570.34,184.08Z" transform="translate(-12 -97.86)"/><path class="cls-3" d="M396.79,189.45A5.38,5.38,0,0,1,391.3,184a5.47,5.47,0,0,1,5.55-5.54,5.54,5.54,0,0,1,5.49,5.48A5.46,5.46,0,0,1,396.79,189.45Z" transform="translate(-12 -97.86)"/><path class="cls-3" d="M372.77,226.51a5.46,5.46,0,1,1,.1,10.91,5.46,5.46,0,0,1-.1-10.91Z" transform="translate(-12 -97.86)"/><path class="cls-3" d="M583.39,232a5.43,5.43,0,0,1,5.43-5.4,5.49,5.49,0,0,1,5.47,5.52,5.38,5.38,0,0,1-5.47,5.39A5.32,5.32,0,0,1,583.39,232Z" transform="translate(-12 -97.86)"/><path class="cls-3" d="M415.41,160a5.42,5.42,0,1,1,5.41,5.4A5.44,5.44,0,0,1,415.41,160Z" transform="translate(-12 -97.86)"/><path class="cls-3" d="M480.58,369.48a5.31,5.31,0,0,1-5.3-5.51,5.42,5.42,0,1,1,5.3,5.51Z" transform="translate(-12 -97.86)"/><path class="cls-3" d="M588.7,274.7a5.4,5.4,0,1,1-5.42,5.39A5.35,5.35,0,0,1,588.7,274.7Z" transform="translate(-12 -97.86)"/><path class="cls-3" d="M540.79,165.49a5.4,5.4,0,1,1,5.45-5.36A5.35,5.35,0,0,1,540.79,165.49Z" transform="translate(-12 -97.86)"/><path class="cls-3" d="M378.09,280a5.34,5.34,0,0,1-5.46,5.35,5.39,5.39,0,1,1,5.46-5.35Z" transform="translate(-12 -97.86)"/><path class="cls-3" d="M379.43,195.94a5.39,5.39,0,1,1,5.39,5.42A5.3,5.3,0,0,1,379.43,195.94Z" transform="translate(-12 -97.86)"/><path class="cls-3" d="M576.82,201.44a5.33,5.33,0,0,1-5.39-5.38,5.4,5.4,0,0,1,5.33-5.34,5.34,5.34,0,0,1,5.44,5.34A5.27,5.27,0,0,1,576.82,201.44Z" transform="translate(-12 -97.86)"/><path class="cls-3" d="M391.37,328a5.21,5.21,0,0,1,5.32-5.33,5.35,5.35,0,1,1,0,10.69A5.21,5.21,0,0,1,391.37,328Z" transform="translate(-12 -97.86)"/><path class="cls-3" d="M559.38,328.1a5.28,5.28,0,0,1,5.29-5.35,5.34,5.34,0,1,1,0,10.67A5.25,5.25,0,0,1,559.38,328.1Z" transform="translate(-12 -97.86)"/><path class="cls-3" d="M547.4,340.09a5.32,5.32,0,0,1,5.34-5.33,5.33,5.33,0,0,1,0,10.65A5.29,5.29,0,0,1,547.4,340.09Z" transform="translate(-12 -97.86)"/><path class="cls-3" d="M403.4,340A5.32,5.32,0,1,1,414,340a5.32,5.32,0,0,1-10.63,0Z" transform="translate(-12 -97.86)"/><path class="cls-3" d="M499.42,364.14a5.33,5.33,0,0,1,5.32-5.36,5.31,5.31,0,0,1,0,10.61A5.31,5.31,0,0,1,499.42,364.14Z" transform="translate(-12 -97.86)"/><path class="cls-3" d="M456.73,369.22A5.25,5.25,0,1,1,462,364,5.18,5.18,0,0,1,456.73,369.22Z" transform="translate(-12 -97.86)"/><path class="cls-3" d="M581.89,316.14a5.21,5.21,0,1,1-10.42-.1,5.25,5.25,0,0,1,5.22-5.17A5.19,5.19,0,0,1,581.89,316.14Z" transform="translate(-12 -97.86)"/><path class="cls-3" d="M389.89,316a5.17,5.17,0,0,1-5.31,5.16,5.22,5.22,0,1,1,.23-10.43A5.2,5.2,0,0,1,389.89,316Z" transform="translate(-12 -97.86)"/><path class="cls-3" d="M425.87,352a5.18,5.18,0,1,1-5.13-5.24A5.19,5.19,0,0,1,425.87,352Z" transform="translate(-12 -97.86)"/><path class="cls-3" d="M540.67,347a5.15,5.15,0,1,1-5.15,5.17A5,5,0,0,1,540.67,347Z" transform="translate(-12 -97.86)"/><path class="cls-3" d="M438,148a5.16,5.16,0,1,1-10.31,0A5.16,5.16,0,0,1,438,148Z" transform="translate(-12 -97.86)"/><path class="cls-3" d="M528.84,153.2a5.12,5.12,0,1,1,5.13-5.07A5.11,5.11,0,0,1,528.84,153.2Z" transform="translate(-12 -97.86)"/><path class="cls-3" d="M593.88,208.12a5.07,5.07,0,1,1-5-5.11A5.07,5.07,0,0,1,593.88,208.12Z" transform="translate(-12 -97.86)"/><path class="cls-3" d="M377.88,207.91a5.06,5.06,0,0,1-5.06,5.14,5.07,5.07,0,1,1,0-10.13A5,5,0,0,1,377.88,207.91Z" transform="translate(-12 -97.86)"/><path class="cls-3" d="M497.85,136.19a5,5,0,1,1-4.93-5.15A5,5,0,0,1,497.85,136.19Z" transform="translate(-12 -97.86)"/><path class="cls-3" d="M468.79,141a5,5,0,1,1,5.07-5A5,5,0,0,1,468.79,141Z" transform="translate(-12 -97.86)"/><path class="cls-3" d="M377.64,304a5,5,0,1,1-4.89-5A5,5,0,0,1,377.64,304Z" transform="translate(-12 -97.86)"/><path class="cls-3" d="M593.65,304.11a5,5,0,0,1-5,4.95,5,5,0,1,1,0-9.92A4.93,4.93,0,0,1,593.65,304.11Z" transform="translate(-12 -97.86)"/><path class="cls-3" d="M365.69,244.1a4.85,4.85,0,0,1-5,4.77,4.9,4.9,0,0,1-4.79-5.09,4.88,4.88,0,0,1,9.76.32Z" transform="translate(-12 -97.86)"/><path class="cls-3" d="M427.83,363.81a4.83,4.83,0,0,1,5-4.73,4.89,4.89,0,0,1,4.77,5,4.89,4.89,0,1,1-9.77-.26Z" transform="translate(-12 -97.86)"/><path class="cls-3" d="M605.69,244a4.89,4.89,0,1,1-4.93-4.82A4.85,4.85,0,0,1,605.69,244Z" transform="translate(-12 -97.86)"/><path class="cls-3" d="M523.87,364.07a4.83,4.83,0,0,1,4.88-4.83,4.85,4.85,0,1,1,0,9.7A4.82,4.82,0,0,1,523.87,364.07Z" transform="translate(-12 -97.86)"/><path class="cls-3" d="M360.84,263.13a4.8,4.8,0,0,1,4.71,5,4.73,4.73,0,0,1-4.93,4.67,4.78,4.78,0,0,1-4.76-5.07A4.85,4.85,0,0,1,360.84,263.13Z" transform="translate(-12 -97.86)"/><path class="cls-3" d="M595.87,268.05a4.83,4.83,0,0,1,4.9-4.81,4.85,4.85,0,0,1-.07,9.7A4.81,4.81,0,0,1,595.87,268.05Z" transform="translate(-12 -97.86)"/><path class="cls-3" d="M444.78,140.7a4.74,4.74,0,0,1,0-9.47,4.74,4.74,0,1,1,0,9.47Z" transform="translate(-12 -97.86)"/><path class="cls-3" d="M516.75,131.35a4.75,4.75,0,1,1,.14,9.5,4.75,4.75,0,0,1-.14-9.5Z" transform="translate(-12 -97.86)"/><path class="cls-3" d="M473.39,376.05a4.7,4.7,0,1,1-4.64-4.79A4.7,4.7,0,0,1,473.39,376.05Z" transform="translate(-12 -97.86)"/><path class="cls-3" d="M492.66,380.76a4.67,4.67,0,1,1,4.73-4.57A4.66,4.66,0,0,1,492.66,380.76Z" transform="translate(-12 -97.86)"/><path class="cls-3" d="M365.41,220a4.63,4.63,0,0,1-4.57,4.6,4.64,4.64,0,1,1,0-9.27A4.61,4.61,0,0,1,365.41,220Z" transform="translate(-12 -97.86)"/><path class="cls-3" d="M605.41,220.25a4.56,4.56,0,0,1-4.7,4.45,4.62,4.62,0,1,1,.21-9.23A4.58,4.58,0,0,1,605.41,220.25Z" transform="translate(-12 -97.86)"/><path class="cls-3" d="M569.39,160.14a4.58,4.58,0,0,1-4.62,4.54,4.6,4.6,0,1,1,4.62-4.54Z" transform="translate(-12 -97.86)"/><path class="cls-3" d="M396.83,164.52a4.56,4.56,0,1,1,0-9.11,4.56,4.56,0,0,1,4.59,4.55A4.51,4.51,0,0,1,396.83,164.52Z" transform="translate(-12 -97.86)"/><path class="cls-3" d="M581.36,172.1a4.54,4.54,0,1,1-4.59-4.56A4.56,4.56,0,0,1,581.36,172.1Z" transform="translate(-12 -97.86)"/><path class="cls-3" d="M596.16,292a4.56,4.56,0,0,1,4.54-4.49,4.51,4.51,0,0,1,4.53,4.61,4.54,4.54,0,1,1-9.07-.12Z" transform="translate(-12 -97.86)"/><path class="cls-3" d="M360.73,296.47a4.51,4.51,0,1,1,4.5-4.48A4.47,4.47,0,0,1,360.73,296.47Z" transform="translate(-12 -97.86)"/><path class="cls-3" d="M384.88,176.47a4.46,4.46,0,0,1-4.59-4.51,4.54,4.54,0,1,1,4.59,4.51Z" transform="translate(-12 -97.86)"/><path class="cls-3" d="M408.82,152.44a4.47,4.47,0,0,1,0-8.94,4.47,4.47,0,1,1,0,8.94Z" transform="translate(-12 -97.86)"/><path class="cls-3" d="M552.8,152.52a4.43,4.43,0,1,1,4.49-4.47A4.4,4.4,0,0,1,552.8,152.52Z" transform="translate(-12 -97.86)"/><path class="cls-3" d="M449.12,375.92a4.42,4.42,0,1,1-4.47-4.38A4.43,4.43,0,0,1,449.12,375.92Z" transform="translate(-12 -97.86)"/><path class="cls-3" d="M516.69,380.47a4.39,4.39,0,1,1,4.43-4.37A4.35,4.35,0,0,1,516.69,380.47Z" transform="translate(-12 -97.86)"/><path class="cls-3" d="M593.17,184.14a4.34,4.34,0,0,1-4.34,4.32,4.37,4.37,0,1,1,0-8.74A4.35,4.35,0,0,1,593.17,184.14Z" transform="translate(-12 -97.86)"/><path class="cls-3" d="M377.17,184a4.37,4.37,0,0,1-4.37,4.34,4.39,4.39,0,0,1,0-8.77A4.35,4.35,0,0,1,377.17,184Z" transform="translate(-12 -97.86)"/><path class="cls-3" d="M572.38,340.06a4.29,4.29,0,0,1,4.38-4.31,4.34,4.34,0,0,1-.06,8.68A4.33,4.33,0,0,1,572.38,340.06Z" transform="translate(-12 -97.86)"/><path class="cls-3" d="M485.14,124.13a4.33,4.33,0,0,1-4.39,4.3,4.35,4.35,0,1,1,4.39-4.3Z" transform="translate(-12 -97.86)"/><path class="cls-3" d="M384.65,335.67a4.3,4.3,0,1,1-4.27,4.39A4.28,4.28,0,0,1,384.65,335.67Z" transform="translate(-12 -97.86)"/><path class="cls-3" d="M396.73,356.23A4.27,4.27,0,1,1,401,352,4.25,4.25,0,0,1,396.73,356.23Z" transform="translate(-12 -97.86)"/><path class="cls-3" d="M569,352.07a4.25,4.25,0,0,1-4.23,4.32,4.3,4.3,0,1,1,0-8.6A4.25,4.25,0,0,1,569,352.07Z" transform="translate(-12 -97.86)"/><path class="cls-3" d="M376.9,327.92a4.21,4.21,0,1,1-8.42,0,4.29,4.29,0,0,1,4.2-4.21A4.25,4.25,0,0,1,376.9,327.92Z" transform="translate(-12 -97.86)"/><path class="cls-3" d="M588.7,332.25a4.17,4.17,0,1,1,4.2-4.16A4.12,4.12,0,0,1,588.7,332.25Z" transform="translate(-12 -97.86)"/><path class="cls-3" d="M425,136a4.08,4.08,0,0,1-4.18,4.18,4.19,4.19,0,0,1-4.12-4.16,4.25,4.25,0,0,1,4.21-4.19A4.16,4.16,0,0,1,425,136Z" transform="translate(-12 -97.86)"/><path class="cls-3" d="M461,124a4.07,4.07,0,0,1-4.2,4.16,4.19,4.19,0,0,1-4.1-4.17,4.25,4.25,0,0,1,4.23-4.18A4.17,4.17,0,0,1,461,124Z" transform="translate(-12 -97.86)"/><path class="cls-3" d="M545,136.19a4.08,4.08,0,0,1-4.29,4,4.14,4.14,0,0,1,.19-8.28A4.09,4.09,0,0,1,545,136.19Z" transform="translate(-12 -97.86)"/><path class="cls-3" d="M509,124.09a4.08,4.08,0,0,1-4.2,4.14,4.14,4.14,0,1,1,.13-8.28A4.08,4.08,0,0,1,509,124.09Z" transform="translate(-12 -97.86)"/><path class="cls-3" d="M612.73,252a4.14,4.14,0,1,1-.06,8.28,4.14,4.14,0,0,1,.06-8.28Z" transform="translate(-12 -97.86)"/><path class="cls-3" d="M548.6,364.14a4.1,4.1,0,0,1,4-4.17,4.12,4.12,0,1,1,.1,8.24A4.1,4.1,0,0,1,548.6,364.14Z" transform="translate(-12 -97.86)"/><path class="cls-3" d="M404.6,364a4,4,0,0,1,4-4.13,4.11,4.11,0,0,1,4.19,4,4.16,4.16,0,0,1-4.09,4.16A4.1,4.1,0,0,1,404.6,364Z" transform="translate(-12 -97.86)"/><path class="cls-3" d="M348.66,251.89a4.12,4.12,0,0,1,4.18,4,4.16,4.16,0,0,1-4.1,4.15A4.09,4.09,0,0,1,344.6,256,4,4,0,0,1,348.66,251.89Z" transform="translate(-12 -97.86)"/><path class="cls-3" d="M604.89,196.06a4.07,4.07,0,1,1-4.16-4.06A4.13,4.13,0,0,1,604.89,196.06Z" transform="translate(-12 -97.86)"/><path class="cls-3" d="M360.86,200a4,4,0,1,1,4-4A4,4,0,0,1,360.86,200Z" transform="translate(-12 -97.86)"/><path class="cls-3" d="M612.86,228.06a4.08,4.08,0,0,1,4,4.1,4,4,0,0,1-4.14,4,4,4,0,0,1,.14-8.06Z" transform="translate(-12 -97.86)"/><path class="cls-3" d="M348.83,228a4,4,0,1,1-.07,8,4,4,0,0,1,.07-8Z" transform="translate(-12 -97.86)"/><path class="cls-3" d="M344.78,280a3.91,3.91,0,0,1,4-3.93,3.94,3.94,0,0,1,0,7.88A3.91,3.91,0,0,1,344.78,280Z" transform="translate(-12 -97.86)"/><path class="cls-3" d="M480.67,392a3.91,3.91,0,1,1,.06-7.81,3.91,3.91,0,1,1-.06,7.81Z" transform="translate(-12 -97.86)"/><path class="cls-3" d="M612.73,284a3.91,3.91,0,1,1-.06-7.81,3.91,3.91,0,1,1,.06,7.81Z" transform="translate(-12 -97.86)"/><path class="cls-3" d="M356.84,316a3.81,3.81,0,0,1,3.86-3.87,3.92,3.92,0,0,1,3.91,3.86,4,4,0,0,1-3.9,3.89A3.86,3.86,0,0,1,356.84,316Z" transform="translate(-12 -97.86)"/><path class="cls-3" d="M596.84,316.11a3.89,3.89,0,0,1,3.84-3.91,4,4,0,0,1,3.93,3.87,3.93,3.93,0,0,1-3.88,3.9A3.86,3.86,0,0,1,596.84,316.11Z" transform="translate(-12 -97.86)"/><path class="cls-3" d="M508.46,388.13a3.81,3.81,0,0,1-3.83,3.77,3.81,3.81,0,0,1,.07-7.61A3.79,3.79,0,0,1,508.46,388.13Z" transform="translate(-12 -97.86)"/><path class="cls-3" d="M544.46,376.13a3.81,3.81,0,0,1-3.83,3.77,3.81,3.81,0,0,1,.07-7.61A3.79,3.79,0,0,1,544.46,376.13Z" transform="translate(-12 -97.86)"/><path class="cls-3" d="M420.7,379.74a3.78,3.78,0,0,1-.07-7.55,3.78,3.78,0,1,1,.07,7.55Z" transform="translate(-12 -97.86)"/><path class="cls-3" d="M456.67,391.74a3.78,3.78,0,0,1,0-7.55,3.78,3.78,0,1,1,0,7.55Z" transform="translate(-12 -97.86)"/><path class="cls-3" d="M429.12,124a3.72,3.72,0,0,1,3.74-3.72,3.7,3.7,0,0,1-.09,7.4A3.73,3.73,0,0,1,429.12,124Z" transform="translate(-12 -97.86)"/><path class="cls-3" d="M532.49,124.11a3.62,3.62,0,0,1-3.67,3.64,3.67,3.67,0,1,1,3.67-3.64Z" transform="translate(-12 -97.86)"/><path class="cls-3" d="M616.41,208.09a3.59,3.59,0,1,1-7.18,0,3.59,3.59,0,1,1,7.18,0Z" transform="translate(-12 -97.86)"/><path class="cls-3" d="M348.84,211.52a3.56,3.56,0,1,1,3.57-3.57A3.53,3.53,0,0,1,348.84,211.52Z" transform="translate(-12 -97.86)"/><path class="cls-3" d="M352.15,304a3.39,3.39,0,0,1-3.48,3.38,3.34,3.34,0,0,1-3.38-3.45,3.46,3.46,0,0,1,3.45-3.41A3.51,3.51,0,0,1,352.15,304Z" transform="translate(-12 -97.86)"/><path class="cls-3" d="M609.3,304a3.38,3.38,0,0,1,3.46-3.37,3.42,3.42,0,1,1-.11,6.83A3.36,3.36,0,0,1,609.3,304Z" transform="translate(-12 -97.86)"/><path class="cls-3" d="M580.22,148.09a3.36,3.36,0,0,1-3.4,3.41,3.42,3.42,0,1,1,0-6.83A3.37,3.37,0,0,1,580.22,148.09Z" transform="translate(-12 -97.86)"/><path class="cls-3" d="M592.19,160.15a3.38,3.38,0,0,1-3.4,3.32,3.39,3.39,0,1,1,3.4-3.32Z" transform="translate(-12 -97.86)"/><path class="cls-3" d="M496.19,112.13a3.39,3.39,0,0,1-3.38,3.34,3.39,3.39,0,1,1,3.38-3.34Z" transform="translate(-12 -97.86)"/><path class="cls-3" d="M468.82,108.63a3.34,3.34,0,1,1-.06,6.68,3.34,3.34,0,1,1,.06-6.68Z" transform="translate(-12 -97.86)"/><path class="cls-3" d="M372.86,163.31a3.34,3.34,0,1,1-.14-6.68,3.34,3.34,0,1,1,.14,6.68Z" transform="translate(-12 -97.86)"/><path class="cls-3" d="M384.8,151.31a3.34,3.34,0,1,1,0-6.68,3.34,3.34,0,1,1,0,6.68Z" transform="translate(-12 -97.86)"/><path class="cls-3" d="M436,388a3.26,3.26,0,0,1-3.26,3.29,3.28,3.28,0,0,1,0-6.55A3.28,3.28,0,0,1,436,388Z" transform="translate(-12 -97.86)"/><path class="cls-3" d="M396.86,132.69a3.28,3.28,0,1,1-.14,6.55,3.28,3.28,0,0,1,.14-6.55Z" transform="translate(-12 -97.86)"/><path class="cls-3" d="M532,388.11a3.21,3.21,0,0,1-3.3,3.22,3.24,3.24,0,1,1,0-6.47A3.19,3.19,0,0,1,532,388.11Z" transform="translate(-12 -97.86)"/><path class="cls-3" d="M564.86,132.86a3.24,3.24,0,1,1-.14,6.47,3.24,3.24,0,0,1,.14-6.47Z" transform="translate(-12 -97.86)"/><path class="cls-3" d="M628,244.09a3.13,3.13,0,0,1-3.1,3.15,3.16,3.16,0,1,1,0-6.31A3.15,3.15,0,0,1,628,244.09Z" transform="translate(-12 -97.86)"/><path class="cls-3" d="M604,172.1a3.14,3.14,0,0,1-3.11,3.14,3.16,3.16,0,1,1,0-6.31A3.15,3.15,0,0,1,604,172.1Z" transform="translate(-12 -97.86)"/><path class="cls-3" d="M360.82,168.86A3.06,3.06,0,0,1,364,172a3.1,3.1,0,0,1-3.2,3.15,3.18,3.18,0,0,1-3.1-3.17A3.14,3.14,0,0,1,360.82,168.86Z" transform="translate(-12 -97.86)"/><path class="cls-3" d="M336.82,247.1a3.12,3.12,0,1,1-.07-6.24,3.12,3.12,0,1,1,.07,6.24Z" transform="translate(-12 -97.86)"/><path class="cls-3" d="M621.6,268.13a3.15,3.15,0,0,1,3.12-3.14,3.11,3.11,0,0,1,.07,6.21A3.17,3.17,0,0,1,621.6,268.13Z" transform="translate(-12 -97.86)"/><path class="cls-3" d="M336.66,264.9a3.07,3.07,0,1,1,.07,6.13,3.07,3.07,0,1,1-.07-6.13Z" transform="translate(-12 -97.86)"/><path class="cls-3" d="M444.78,115a3,3,0,1,1,.14-6.07,3,3,0,0,1-.14,6.07Z" transform="translate(-12 -97.86)"/><path class="cls-3" d="M516.81,115.1a3,3,0,0,1,0-6,3,3,0,0,1,3.1,3A3.06,3.06,0,0,1,516.81,115.1Z" transform="translate(-12 -97.86)"/><path class="cls-3" d="M555.71,124.08a2.9,2.9,0,0,1-2.88,2.92,2.91,2.91,0,1,1,0-5.82A2.9,2.9,0,0,1,555.71,124.08Z" transform="translate(-12 -97.86)"/><path class="cls-3" d="M408.84,126.85a2.87,2.87,0,1,1,0-5.74,2.83,2.83,0,0,1,2.92,2.84A2.86,2.86,0,0,1,408.84,126.85Z" transform="translate(-12 -97.86)"/><path class="cls-3" d="M468.72,402.85a2.88,2.88,0,1,1,0-5.75,2.88,2.88,0,1,1,0,5.75Z" transform="translate(-12 -97.86)"/><path class="cls-3" d="M495.51,400.11a2.78,2.78,0,0,1-2.8,2.83,2.85,2.85,0,1,1,0-5.7A2.84,2.84,0,0,1,495.51,400.11Z" transform="translate(-12 -97.86)"/><path class="cls-3" d="M622,220a2.83,2.83,0,0,1,2.83-2.8,2.86,2.86,0,1,1-.1,5.71A2.85,2.85,0,0,1,622,220Z" transform="translate(-12 -97.86)"/><path class="cls-3" d="M336.77,222.78A2.75,2.75,0,0,1,334,220a2.78,2.78,0,0,1,2.81-2.8,2.82,2.82,0,1,1-.05,5.63Z" transform="translate(-12 -97.86)"/><path class="cls-3" d="M346.06,184a2.81,2.81,0,0,1,2.71-2.81,2.79,2.79,0,1,1,0,5.57A2.78,2.78,0,0,1,346.06,184Z" transform="translate(-12 -97.86)"/><path class="cls-3" d="M612.77,186.82a2.73,2.73,0,1,1,.17-5.46,2.73,2.73,0,1,1-.17,5.46Z" transform="translate(-12 -97.86)"/><path class="cls-3" d="M334,292a2.69,2.69,0,0,1,2.63-2.7,2.76,2.76,0,0,1,2.77,2.71,2.8,2.8,0,0,1-2.66,2.71A2.71,2.71,0,0,1,334,292Z" transform="translate(-12 -97.86)"/><path class="cls-3" d="M624.75,294.78A2.66,2.66,0,0,1,622,292.2a2.69,2.69,0,0,1,2.64-2.81,2.75,2.75,0,0,1,2.76,2.72A2.72,2.72,0,0,1,624.75,294.78Z" transform="translate(-12 -97.86)"/><path class="cls-3" d="M442.24,400a2.48,2.48,0,0,1,2.48-2.51,2.51,2.51,0,0,1,0,5A2.5,2.5,0,0,1,442.24,400Z" transform="translate(-12 -97.86)"/><path class="cls-3" d="M516.67,397.62a2.47,2.47,0,1,1,.06,4.93,2.47,2.47,0,0,1-.06-4.93Z" transform="translate(-12 -97.86)"/><path class="cls-3" d="M543.22,112.1a2.43,2.43,0,0,1-2.45,2.41,2.42,2.42,0,0,1,0-4.84A2.44,2.44,0,0,1,543.22,112.1Z" transform="translate(-12 -97.86)"/><path class="cls-3" d="M420.67,114.34a2.37,2.37,0,1,1,.29-4.74,2.37,2.37,0,1,1-.29,4.74Z" transform="translate(-12 -97.86)"/><path class="cls-3" d="M336.76,198.34a2.38,2.38,0,1,1,.3-4.74,2.37,2.37,0,1,1-.3,4.74Z" transform="translate(-12 -97.86)"/><path class="cls-3" d="M480.84,102.31a2.22,2.22,0,1,1,0-4.44,2.22,2.22,0,1,1,0,4.44Z" transform="translate(-12 -97.86)"/><path class="cls-3" d="M458.91,100a2.13,2.13,0,0,1-2.06,2.07,2.08,2.08,0,1,1,0-4.15A2.15,2.15,0,0,1,458.91,100Z" transform="translate(-12 -97.86)"/><path class="cls-3" d="M504.87,98.05a2.07,2.07,0,0,1,2,2.06,2.12,2.12,0,0,1-2.07,2,2.07,2.07,0,0,1-2.08-2.14A2,2,0,0,1,504.87,98.05Z" transform="translate(-12 -97.86)"/><path class="cls-3" d="M638.56,256.08a1.9,1.9,0,0,1-1.88,1.91,1.9,1.9,0,0,1,0-3.79A1.89,1.89,0,0,1,638.56,256.08Z" transform="translate(-12 -97.86)"/><path class="cls-3" d="M638.56,280a1.91,1.91,0,0,1-1.88,1.92,1.9,1.9,0,0,1,0-3.8A1.9,1.9,0,0,1,638.56,280Z" transform="translate(-12 -97.86)"/><path class="cls-3" d="M326.55,256a1.82,1.82,0,0,1-1.89,1.86,1.86,1.86,0,0,1,0-3.72A1.81,1.81,0,0,1,326.55,256Z" transform="translate(-12 -97.86)"/><path class="cls-3" d="M326.6,232a1.78,1.78,0,1,1-1.77-1.78A1.85,1.85,0,0,1,326.6,232Z" transform="translate(-12 -97.86)"/><path class="cls-3" d="M636.83,233.84a1.75,1.75,0,1,1,0-3.5,1.75,1.75,0,0,1,0,3.5Z" transform="translate(-12 -97.86)"/><path class="cls-3" d="M324.67,278.18a1.8,1.8,0,1,1,0,3.59c-1,0-1.63-.89-1.63-2.13A1.64,1.64,0,0,1,324.67,278.18Z" transform="translate(-12 -97.86)"/><path class="cls-3" d="M482.36,412.09a1.7,1.7,0,0,1-1.66,1.68,1.68,1.68,0,0,1,0-3.36A1.71,1.71,0,0,1,482.36,412.09Z" transform="translate(-12 -97.86)"/><path class="cls-3" d="M458.46,412.09a1.7,1.7,0,0,1-1.65,1.68,1.68,1.68,0,0,1,0-3.36A1.71,1.71,0,0,1,458.46,412.09Z" transform="translate(-12 -97.86)"/><path class="cls-3" d="M624.85,193.83a2.25,2.25,0,1,1-.14,4.5,2.25,2.25,0,0,1,.14-4.5Z" transform="translate(-12 -97.86)"/><path class="cls-3" d="M576.5,367.34a3.34,3.34,0,1,1-.13-6.68,3.34,3.34,0,1,1,.13,6.68Z" transform="translate(-12 -97.86)"/><path class="cls-3" d="M588.45,355.34a3.34,3.34,0,1,1,0-6.68,3.34,3.34,0,1,1,0,6.68Z" transform="translate(-12 -97.86)"/><path class="cls-3" d="M600.5,336.72a3.28,3.28,0,1,1-.13,6.55,3.28,3.28,0,0,1,.13-6.55Z" transform="translate(-12 -97.86)"/><path class="cls-3" d="M564.47,372.89a3.12,3.12,0,1,1-.07,6.24,3.12,3.12,0,1,1,.07-6.24Z" transform="translate(-12 -97.86)"/><path class="cls-3" d="M612.49,330.88a2.87,2.87,0,1,1,0-5.74,2.87,2.87,0,1,1,0,5.74Z" transform="translate(-12 -97.86)"/><path class="cls-3" d="M549.7,388a2.81,2.81,0,0,1,2.72-2.8,2.78,2.78,0,1,1,0,5.56A2.79,2.79,0,0,1,549.7,388Z" transform="translate(-12 -97.86)"/><path class="cls-3" d="M624.32,318.37a2.37,2.37,0,1,1,.29-4.74,2.37,2.37,0,1,1-.29,4.74Z" transform="translate(-12 -97.86)"/><path class="cls-3" d="M540.41,402.37a2.37,2.37,0,1,1,.29-4.74,2.37,2.37,0,1,1-.29,4.74Z" transform="translate(-12 -97.86)"/><path class="cls-3" d="M506.41,412.09a1.7,1.7,0,0,1-1.65,1.68,1.68,1.68,0,0,1,0-3.36A1.71,1.71,0,0,1,506.41,412.09Z" transform="translate(-12 -97.86)"/><path class="cls-3" d="M376,352.09a3.34,3.34,0,0,1-3.4,3.41,3.42,3.42,0,1,1,0-6.83A3.38,3.38,0,0,1,376,352.09Z" transform="translate(-12 -97.86)"/><path class="cls-3" d="M388,364.16a3.38,3.38,0,0,1-3.4,3.32,3.39,3.39,0,1,1,.13-6.78A3.42,3.42,0,0,1,388,364.16Z" transform="translate(-12 -97.86)"/><path class="cls-3" d="M360.64,336.87a3.24,3.24,0,0,1,3.24,3.29,3.28,3.28,0,0,1-3.38,3.17,3.23,3.23,0,0,1,.14-6.46Z" transform="translate(-12 -97.86)"/><path class="cls-3" d="M399.73,376.1a3.13,3.13,0,0,1-3.12,3.14,3.21,3.21,0,0,1-3.18-3.1,3.24,3.24,0,0,1,3.21-3.21A3.17,3.17,0,0,1,399.73,376.1Z" transform="translate(-12 -97.86)"/><path class="cls-3" d="M351.49,328.09A2.91,2.91,0,0,1,348.6,331a2.91,2.91,0,1,1,0-5.82A2.92,2.92,0,0,1,351.49,328.09Z" transform="translate(-12 -97.86)"/><path class="cls-3" d="M408.54,390.82a2.73,2.73,0,1,1,.17-5.46,2.73,2.73,0,1,1-.17,5.46Z" transform="translate(-12 -97.86)"/><path class="cls-3" d="M339,316.11a2.43,2.43,0,0,1-2.45,2.4,2.42,2.42,0,0,1,0-4.84A2.44,2.44,0,0,1,339,316.11Z" transform="translate(-12 -97.86)"/><path class="cls-3" d="M420.63,397.83a2.25,2.25,0,1,1-2.3,2.18A2.22,2.22,0,0,1,420.63,397.83Z" transform="translate(-12 -97.86)"/><circle class="cls-1" cx="613.5" cy="787.64" r="40.5"/><circle class="cls-2" cx="928.5" cy="238.64" r="40.5"/><path class="cls-2" d="M981.5,741A40.5,40.5,0,1,1,941,700.5,40.5,40.5,0,0,1,981.5,741Zm-10,0A30.5,30.5,0,1,0,941,771.5,30.53,30.53,0,0,0,971.5,741Z" transform="translate(-12 -97.86)"/><path class="cls-4" d="M837.5,188A45.5,45.5,0,1,1,792,142.5,45.5,45.5,0,0,1,837.5,188Zm-10,0A35.5,35.5,0,1,0,792,223.5,35.54,35.54,0,0,0,827.5,188Z" transform="translate(-12 -97.86)"/><rect class="cls-3" x="118.1" y="524.65" width="864.83" height="116.67" rx="58.34" ry="58.34" transform="translate(-262.99 462.16) rotate(-45)"/><rect class="cls-2" x="-30.15" y="427.45" width="864.83" height="56.57" rx="28.28" ry="28.28" transform="translate(-216.43 320.06) rotate(-45)"/><rect class="cls-5" x="81.67" y="285.99" width="442.69" height="78" rx="39" ry="39" transform="translate(-153.05 211.58) rotate(-45)"/><rect class="cls-6" x="81.67" y="285.99" width="442.69" height="78" rx="39" ry="39" transform="translate(-153.05 211.58) rotate(-45)"/><rect class="cls-5" x="644.78" y="676.98" width="216.39" height="78" rx="39" ry="39" transform="translate(-297.95 633.75) rotate(-44.42)"/><rect class="cls-7" x="644.78" y="676.98" width="216.39" height="78" rx="39" ry="39" transform="translate(-297.95 633.75) rotate(-44.42)"/><path class="cls-3" d="M708.13,794.24a11.06,11.06,0,1,1,11.09-10.77A11.05,11.05,0,0,1,708.13,794.24Z" transform="translate(-12 -97.86)"/><path class="cls-3" d="M730.22,772.15a11.06,11.06,0,1,1,11.09-10.77A11.06,11.06,0,0,1,730.22,772.15Z" transform="translate(-12 -97.86)"/><path class="cls-3" d="M686,772.15a11.05,11.05,0,1,1,11.08-10.83A11,11,0,0,1,686,772.15Z" transform="translate(-12 -97.86)"/><path class="cls-3" d="M752.35,750.06a11.07,11.07,0,1,1,11-11.24A11,11,0,0,1,752.35,750.06Z" transform="translate(-12 -97.86)"/><path class="cls-3" d="M708.17,750.06a11.07,11.07,0,1,1,11-11.24A11,11,0,0,1,708.17,750.06Z" transform="translate(-12 -97.86)"/><path class="cls-3" d="M774.43,728a11.06,11.06,0,1,1,11.05-11.06A11,11,0,0,1,774.43,728Z" transform="translate(-12 -97.86)"/><path class="cls-3" d="M730.24,728a11.06,11.06,0,1,1,11-10.89A11,11,0,0,1,730.24,728Z" transform="translate(-12 -97.86)"/><path class="cls-3" d="M796.5,705.87a11.06,11.06,0,1,1,11.08-10.77A11,11,0,0,1,796.5,705.87Z" transform="translate(-12 -97.86)"/><path class="cls-3" d="M752.35,705.87a11.06,11.06,0,1,1,11-11.29A11,11,0,0,1,752.35,705.87Z" transform="translate(-12 -97.86)"/><path class="cls-3" d="M818.61,683.78a11.06,11.06,0,1,1,11-11.12A11,11,0,0,1,818.61,683.78Z" transform="translate(-12 -97.86)"/><path class="cls-3" d="M774.4,683.78A11.06,11.06,0,1,1,785.49,673,11.06,11.06,0,0,1,774.4,683.78Z" transform="translate(-12 -97.86)"/><path class="cls-3" d="M796.54,661.69a11.07,11.07,0,1,1,11-11.3A11,11,0,0,1,796.54,661.69Z" transform="translate(-12 -97.86)"/><path class="cls-1" d="M214,288a71,71,0,1,1-71-71A71,71,0,0,1,214,288Zm-15,0a56,56,0,1,0-56,56A56.06,56.06,0,0,0,199,288Z" transform="translate(-12 -97.86)"/><circle class="cls-3" cx="806" cy="739.14" r="64"/><circle class="cls-7" cx="71" cy="487.14" r="71"/><path class="cls-6" d="M510.5,829.5a94,94,0,1,1-94-94A94,94,0,0,1,510.5,829.5Zm-15,0a79,79,0,1,0-79,79A79.09,79.09,0,0,0,495.5,829.5Z" transform="translate(-12 -97.86)"/><polygon class="cls-6" points="764.98 395.75 783.91 320.04 708.2 338.97 764.98 395.75"/><polygon class="cls-3" points="263.2 476.44 338.91 495.36 319.98 419.65 263.2 476.44"/><polygon class="cls-1" points="196.73 644 188.66 676.29 220.95 668.22 196.73 644"/><polygon class="cls-1" points="562.73 441 554.66 473.3 586.95 465.22 562.73 441"/><polygon class="cls-2" points="923.95 447.19 891.66 439.11 899.73 471.4 923.95 447.19"/><polygon class="cls-7" points="478.95 240.19 446.66 232.11 454.73 264.4 478.95 240.19"/><polygon class="cls-1" points="306.88 289.48 289.75 260.93 272.62 289.48 306.88 289.48"/><polygon class="cls-2" points="692.73 733 684.66 765.29 716.95 757.22 692.73 733"/><polygon class="cls-1" points="692.77 192.41 700.84 160.11 668.55 168.19 692.77 192.41"/><polygon class="cls-3" points="886.48 148.33 915.02 131.2 886.48 114.08 886.48 148.33"/><polygon class="cls-2" points="42.15 314.13 59.27 342.68 76.4 314.13 42.15 314.13"/><polygon class="cls-6" points="253.54 78.28 225 95.41 253.54 112.53 253.54 78.28"/><polygon class="cls-7" points="969 542.28 940.46 559.41 969 576.53 969 542.28"/></svg>