<svg xmlns="http://www.w3.org/2000/svg" viewBox="0 0 1076.69 827.63"><defs><style>.cls-1{isolation:isolate;}.cls-2{fill:none;}.cls-3,.cls-4,.cls-5,.cls-6{fill:#f99296;}.cls-4{opacity:0.49;}.cls-4,.cls-5{mix-blend-mode:screen;}.cls-5,.cls-6{opacity:0.5;}.cls-7{fill:#bfecea;}.cls-8{fill:#00b5ad;}</style></defs><title>graphic</title><g class="cls-1"><g id="Layer_1" data-name="Layer 1"><polygon class="cls-2" points="693.22 414.03 693.22 505.73 693.49 505.54 693.49 414.23 693.22 414.03"/><polygon class="cls-2" points="693.49 413.49 693.22 413.69 693.22 414.03 693.49 414.23 693.49 413.49"/><polygon class="cls-2" points="693.49 46.59 693.22 46.39 693.22 137.74 693.49 137.55 693.49 46.59"/><polygon class="cls-2" points="54.55 230.19 53.98 230.6 54.55 231.02 54.55 230.19"/><polygon class="cls-2" points="53.43 505.32 54.55 506.13 54.55 504.51 53.43 505.32"/><polygon class="cls-2" points="53.43 597.02 54.55 597.83 54.55 596.22 53.43 597.02"/><polygon class="cls-2" points="54.55 321.11 53.16 322.11 54.55 323.11 54.55 321.11"/><polygon class="cls-2" points="693.49 229.99 693.49 229.25 693.22 229.45 693.22 229.8 693.49 229.99"/><polygon class="cls-2" points="693.22 321.15 693.49 320.96 693.49 229.99 693.22 229.8 693.22 321.15"/><polygon class="cls-2" points="693.49 46.59 693.49 45.85 693.22 46.04 693.22 46.39 693.49 46.59"/><polygon class="cls-2" points="693.49 598.03 693.22 598.22 693.22 598.57 693.49 598.76 693.49 598.03"/><polygon class="cls-2" points="693.22 598.57 693.22 689.14 693.49 688.95 693.49 598.76 693.22 598.57"/><polygon class="cls-2" points="693.49 321.69 693.49 320.96 693.22 321.15 693.22 321.5 693.49 321.69"/><polygon class="cls-2" points="693.22 413.69 693.49 413.49 693.49 321.69 693.22 321.5 693.22 413.69"/><polygon class="cls-2" points="693.49 505.54 693.22 505.73 693.22 506.08 693.49 506.28 693.49 505.54"/><polygon class="cls-2" points="693.22 506.08 693.22 598.22 693.49 598.03 693.49 506.28 693.22 506.08"/><polygon class="cls-2" points="693.22 229.45 693.49 229.25 693.49 138.29 693.22 138.09 693.22 229.45"/><polygon class="cls-2" points="693.22 689.49 693.22 781.23 693.49 781.04 693.49 689.68 693.22 689.49"/><polygon class="cls-2" points="53.7 413.81 54.55 414.42 54.55 413.2 53.7 413.81"/><polygon class="cls-2" points="693.22 781.23 693.22 781.58 693.49 781.78 693.49 781.04 693.22 781.23"/><polygon class="cls-2" points="693.49 688.95 693.22 689.14 693.22 689.49 693.49 689.68 693.49 688.95"/><polygon class="cls-2" points="693.49 138.29 693.49 137.55 693.22 137.74 693.22 138.09 693.49 138.29"/><polygon class="cls-2" points="118.42 184.34 117.3 185.14 118.42 185.94 118.42 184.34"/><polygon class="cls-2" points="118.42 551.97 117.3 551.17 54.55 596.22 54.55 597.83 117.3 642.87 118.42 642.07 118.42 551.97"/><polygon class="cls-2" points="117.3 642.87 118.42 643.68 118.42 642.07 117.3 642.87"/><polygon class="cls-2" points="117.3 551.17 118.42 551.97 118.42 550.37 117.3 551.17"/><polygon class="cls-2" points="117.3 368.16 118.42 367.36 118.42 276.86 117.3 276.06 54.55 321.11 54.55 323.11 117.3 368.16"/><polygon class="cls-2" points="118.42 460.27 117.3 459.47 54.55 504.51 54.55 506.13 117.3 551.17 118.42 550.37 118.42 460.27"/><polygon class="cls-2" points="118.42 368.96 117.3 368.16 54.55 413.2 54.55 414.42 117.3 459.47 118.42 458.67 118.42 368.96"/><polygon class="cls-2" points="117.3 459.47 118.42 460.27 118.42 458.67 117.3 459.47"/><polygon class="cls-2" points="118.42 275.26 117.3 276.06 118.42 276.86 118.42 275.26"/><polygon class="cls-2" points="118.42 367.36 117.3 368.16 118.42 368.96 118.42 367.36"/><polygon class="cls-2" points="182.29 781.23 182.29 780.46 181.76 780.84 182.29 781.23"/><polygon class="cls-2" points="182.29 321.51 181.45 322.11 182.29 322.71 182.29 321.51"/><polygon class="cls-2" points="180.9 413.81 182.29 412.82 182.29 322.71 181.45 322.11 118.42 367.36 118.42 368.96 180.9 413.81"/><polygon class="cls-2" points="182.29 689.52 182.29 687.93 181.18 688.73 182.29 689.52"/><polygon class="cls-2" points="0 1.41 0 1.9 0.34 1.66 0 1.41"/><polygon class="cls-2" points="181.18 597.02 182.29 597.82 182.29 596.23 181.18 597.02"/><polygon class="cls-2" points="182.29 506.12 181.18 505.32 118.42 550.37 118.42 551.97 181.18 597.02 182.29 596.23 182.29 506.12"/><polygon class="cls-2" points="182.29 229.41 180.63 230.6 182.29 231.79 182.29 229.41"/><polygon class="cls-2" points="181.45 322.11 182.29 321.51 182.29 231.79 180.63 230.6 118.42 275.26 118.42 276.86 181.45 322.11"/><polygon class="cls-2" points="180.9 413.81 182.29 414.81 182.29 412.82 180.9 413.81"/><polygon class="cls-2" points="181.18 505.32 182.29 506.12 182.29 504.52 181.18 505.32"/><polygon class="cls-2" points="181.72 138.9 182.29 139.31 182.29 138.49 181.72 138.9"/><polygon class="cls-2" points="182.29 414.81 180.9 413.81 118.42 458.67 118.42 460.27 181.18 505.32 182.29 504.52 182.29 414.81"/><polygon class="cls-2" points="182.29 47.26 182.29 46.01 181.42 46.63 182.29 47.26"/><polygon class="cls-2" points="244.78 276.65 246.16 275.66 246.16 185.15 245.05 184.36 182.29 229.41 182.29 231.79 244.78 276.65"/><polygon class="cls-2" points="246.16 368.56 245.05 367.76 182.29 412.82 182.29 414.81 244.78 459.66 246.16 458.68 246.16 368.56"/><polygon class="cls-2" points="244.78 459.66 246.16 460.65 246.16 458.68 244.78 459.66"/><polygon class="cls-2" points="246.16 275.66 244.78 276.65 246.16 277.64 246.16 275.66"/><polygon class="cls-2" points="245.05 367.76 246.16 366.97 246.16 277.64 244.78 276.65 182.29 321.51 182.29 322.71 245.05 367.76"/><polygon class="cls-2" points="246.16 183.57 245.05 184.36 246.16 185.15 246.16 183.57"/><polygon class="cls-2" points="246.16 551.96 245.05 551.17 182.29 596.23 182.29 597.82 245.05 642.87 246.16 642.08 246.16 551.96"/><polygon class="cls-2" points="246.16 366.97 245.05 367.76 246.16 368.56 246.16 366.97"/><polygon class="cls-2" points="245.05 551.17 246.16 551.96 246.16 550.38 245.05 551.17"/><polygon class="cls-2" points="246.16 460.65 244.78 459.66 182.29 504.52 182.29 506.12 245.05 551.17 246.16 550.38 246.16 460.65"/><polygon class="cls-2" points="245.05 642.87 246.16 643.67 246.16 642.08 245.05 642.87"/><polygon class="cls-2" points="246.16 735.37 245.63 734.99 182.29 780.46 182.29 781.23 245.87 826.87 246.16 826.66 246.16 735.37"/><polygon class="cls-2" points="127.73 0.16 127.45 0.36 127.73 0.57 127.73 0.16"/><polygon class="cls-2" points="246.16 643.67 245.05 642.87 182.29 687.93 182.29 689.52 245.63 734.99 246.16 734.62 246.16 643.67"/><polygon class="cls-2" points="245.63 734.99 246.16 735.37 246.16 734.62 245.63 734.99"/><polygon class="cls-2" points="246.16 92.65 245.84 92.88 246.16 93.1 246.16 92.65"/><polygon class="cls-3" points="182.29 596.23 245.05 551.17 182.29 506.12 182.29 596.23"/><polygon class="cls-2" points="310.02 137.72 309.16 138.34 310.02 138.95 310.02 137.72"/><polygon class="cls-2" points="309.16 138.34 310.02 137.72 310.02 46.8 246.16 92.65 246.16 93.1 309.16 138.34"/><polygon class="cls-2" points="310.02 321.13 308.38 322.31 310.02 323.49 310.02 321.13"/><polygon class="cls-2" points="309.2 230.41 310.02 229.81 310.02 138.95 309.16 138.34 246.16 183.57 246.16 185.15 309.2 230.41"/><polygon class="cls-2" points="309.74 781.02 310.02 781.22 310.02 780.82 309.74 781.02"/><polygon class="cls-2" points="310.02 689.51 309.5 689.14 246.16 734.62 246.16 735.37 309.74 781.02 310.02 780.82 310.02 689.51"/><polygon class="cls-2" points="309.5 689.14 310.02 689.51 310.02 688.77 309.5 689.14"/><polygon class="cls-2" points="310.02 597.81 308.92 597.02 246.16 642.08 246.16 643.67 309.5 689.14 310.02 688.77 310.02 597.81"/><polygon class="cls-2" points="308.92 413.62 310.02 414.4 310.02 412.83 308.92 413.62"/><polygon class="cls-2" points="308.65 505.51 310.02 506.5 310.02 504.53 308.65 505.51"/><polygon class="cls-2" points="310.02 229.81 309.2 230.41 310.02 231 310.02 229.81"/><polygon class="cls-2" points="308.92 597.02 310.02 597.81 310.02 596.23 308.92 597.02"/><polygon class="cls-2" points="310.02 506.5 308.65 505.51 246.16 550.38 246.16 551.96 308.92 597.02 310.02 596.23 310.02 506.5"/><polygon class="cls-2" points="308.38 322.31 310.02 321.13 310.02 231 309.2 230.41 246.16 275.66 246.16 277.64 308.38 322.31"/><polygon class="cls-2" points="310.02 414.4 308.92 413.62 246.16 458.68 246.16 460.65 308.65 505.51 310.02 504.53 310.02 414.4"/><polygon class="cls-2" points="308.92 413.62 310.02 412.83 310.02 323.49 308.38 322.31 246.16 366.97 246.16 368.56 308.92 413.62"/><polygon class="cls-2" points="373.89 91.87 373.89 0.95 310.29 46.61 373.62 92.07 373.89 91.87"/><polygon class="cls-2" points="373.38 643.29 373.89 643.66 373.89 642.92 373.38 643.29"/><polygon class="cls-2" points="373.89 183.97 373.31 184.38 373.89 184.8 373.89 183.97"/><polygon class="cls-2" points="373.31 184.38 373.89 183.97 373.89 92.26 373.62 92.07 310.02 137.72 310.02 138.95 373.31 184.38"/><polygon class="cls-2" points="372.8 276.06 373.89 275.28 373.89 184.8 373.31 184.38 310.02 229.81 310.02 231 372.8 276.06"/><polygon class="cls-2" points="373.62 92.07 373.89 92.26 373.89 91.87 373.62 92.07"/><polygon class="cls-2" points="373.89 552.35 372.52 551.37 310.02 596.23 310.02 597.81 373.38 643.29 373.89 642.92 373.89 552.35"/><polygon class="cls-2" points="310.29 46.61 310.02 46.42 310.02 46.8 310.29 46.61"/><polygon class="cls-2" points="372.8 459.47 373.89 460.25 373.89 458.68 372.8 459.47"/><polygon class="cls-2" points="373.89 275.28 372.8 276.06 373.89 276.85 373.89 275.28"/><polygon class="cls-2" points="373.89 369.33 372.25 368.16 310.02 412.83 310.02 414.4 372.8 459.47 373.89 458.68 373.89 369.33"/><polygon class="cls-2" points="373.89 366.98 372.25 368.16 373.89 369.33 373.89 366.98"/><polygon class="cls-2" points="373.89 460.25 372.8 459.47 310.02 504.53 310.02 506.5 372.52 551.37 373.89 550.39 373.89 460.25"/><polygon class="cls-2" points="372.52 551.37 373.89 552.35 373.89 550.39 372.52 551.37"/><polygon class="cls-2" points="372.25 368.16 373.89 366.98 373.89 276.85 372.8 276.06 310.02 321.13 310.02 323.49 372.25 368.16"/><polygon class="cls-2" points="373.89 643.66 373.38 643.29 310.02 688.77 310.02 689.51 373.62 735.16 373.89 734.97 373.89 643.66"/><polygon class="cls-2" points="373.62 735.16 373.89 735.36 373.89 734.97 373.62 735.16"/><polygon class="cls-2" points="436.97 597.63 437.75 598.2 437.75 597.07 436.97 597.63"/><polygon class="cls-2" points="436.12 414.01 437.75 412.84 437.75 322.69 436.67 321.91 373.89 366.98 373.89 369.33 436.12 414.01"/><polygon class="cls-2" points="437.49 689.31 437.75 689.51 437.75 689.12 437.49 689.31"/><polygon class="cls-2" points="255.47 827.46 255.74 827.26 255.47 827.06 255.47 827.46"/><polygon class="cls-2" points="255.47 0.56 255.47 0.95 255.74 0.76 255.47 0.56"/><polygon class="cls-2" points="437.75 598.2 436.97 597.63 373.89 642.92 373.89 643.66 437.49 689.31 437.75 689.12 437.75 598.2"/><polygon class="cls-2" points="436.67 505.32 437.75 506.1 437.75 504.54 436.67 505.32"/><polygon class="cls-2" points="437.75 506.1 436.67 505.32 373.89 550.39 373.89 552.35 436.97 597.63 437.75 597.07 437.75 506.1"/><polygon class="cls-2" points="437.75 46.02 437.49 46.22 437.75 46.41 437.75 46.02"/><polygon class="cls-2" points="373.89 92.26 437.75 138.11 437.75 46.41 437.49 46.22 373.89 91.87 373.89 92.26"/><polygon class="cls-2" points="437.75 229.43 436.91 230.04 437.75 230.65 437.75 229.43"/><polygon class="cls-2" points="437.75 321.13 436.67 321.91 437.75 322.69 437.75 321.13"/><polygon class="cls-2" points="436.67 321.91 437.75 321.13 437.75 230.65 436.91 230.04 373.89 275.28 373.89 276.85 436.67 321.91"/><polygon class="cls-2" points="436.12 414.01 437.75 415.18 437.75 412.84 436.12 414.01"/><polygon class="cls-2" points="436.91 230.04 437.75 229.43 437.75 138.12 373.89 183.97 373.89 184.8 436.91 230.04"/><polygon class="cls-2" points="501.62 183.58 501.62 92.27 437.76 138.12 501.36 183.77 501.62 183.58"/><polygon class="cls-2" points="501.62 551.95 501.12 551.59 437.75 597.07 437.75 598.2 501.09 643.66 501.62 643.27 501.62 551.95"/><polygon class="cls-2" points="501.62 275.29 500.78 275.89 501.62 276.49 501.62 275.29"/><polygon class="cls-2" points="382.94 0.36 383.2 0.55 383.2 0.18 382.94 0.36"/><polygon class="cls-2" points="501.09 643.66 501.62 644.04 501.62 643.27 501.09 643.66"/><polygon class="cls-2" points="437.76 138.12 437.75 138.11 437.75 138.12 437.76 138.12"/><polygon class="cls-2" points="500.78 275.89 501.62 275.29 501.62 183.96 501.36 183.77 437.75 229.43 437.75 230.65 500.78 275.89"/><polygon class="cls-2" points="501.62 644.04 501.09 643.66 437.75 689.12 437.75 689.51 501.62 735.35 501.62 644.04"/><polygon class="cls-2" points="501.62 366.99 500.54 367.76 501.62 368.54 501.62 366.99"/><polygon class="cls-2" points="500 459.86 501.62 461.03 501.62 458.69 500 459.86"/><polygon class="cls-2" points="500.54 367.76 501.62 366.99 501.62 276.49 500.78 275.89 437.75 321.13 437.75 322.69 500.54 367.76"/><polygon class="cls-2" points="501.12 551.59 501.62 551.95 501.62 551.23 501.12 551.59"/><polygon class="cls-2" points="501.62 368.54 500.54 367.76 437.75 412.84 437.75 415.18 500 459.86 501.62 458.69 501.62 368.54"/><polygon class="cls-2" points="501.62 92.25 501.62 0.55 501.36 0.36 437.75 46.02 437.75 46.41 501.62 92.25"/><polygon class="cls-2" points="437.75 781.21 437.75 781.61 438.03 781.41 437.75 781.21"/><polygon class="cls-2" points="501.62 461.03 500 459.86 437.75 504.54 437.75 506.1 501.12 551.59 501.62 551.23 501.62 461.03"/><polygon class="cls-2" points="501.36 183.77 501.62 183.96 501.62 183.58 501.36 183.77"/><polygon class="cls-2" points="565.23 229.62 565.49 229.81 565.49 229.44 565.23 229.62"/><polygon class="cls-2" points="565.49 229.44 565.49 138.1 565.23 137.92 501.62 183.58 501.62 183.96 565.23 229.62 565.49 229.44"/><polygon class="cls-2" points="565.49 137.74 565.23 137.92 565.49 138.1 565.49 137.74"/><polygon class="cls-2" points="565.49 597.79 565.23 597.61 501.62 643.27 501.62 644.04 565.49 689.89 565.49 597.79"/><polygon class="cls-2" points="501.63 92.26 501.62 92.25 501.62 92.27 501.63 92.26"/><polygon class="cls-2" points="565.49 137.74 565.49 46.42 501.63 92.26 565.23 137.92 565.49 137.74"/><polygon class="cls-2" points="564.41 413.62 565.49 412.85 565.49 322.34 564.65 321.74 501.62 366.99 501.62 368.54 564.41 413.62"/><polygon class="cls-2" points="565.49 689.91 501.91 735.56 565.23 781.02 565.49 780.83 565.49 689.91"/><polygon class="cls-2" points="565.49 414.39 564.41 413.62 501.62 458.69 501.62 461.03 564.45 506.13 565.49 505.38 565.49 414.39"/><polygon class="cls-2" points="565.49 506.88 564.45 506.13 501.62 551.23 501.62 551.95 565.23 597.61 565.49 597.43 565.49 506.88"/><polygon class="cls-2" points="565.23 781.02 565.49 781.2 565.49 780.83 565.23 781.02"/><polygon class="cls-2" points="565.49 321.14 564.65 321.74 565.49 322.34 565.49 321.14"/><polygon class="cls-2" points="564.41 413.62 565.49 414.39 565.49 412.85 564.41 413.62"/><polygon class="cls-2" points="564.45 506.13 565.49 506.88 565.49 505.38 564.45 506.13"/><polygon class="cls-2" points="565.23 597.61 565.49 597.79 565.49 597.43 565.23 597.61"/><polygon class="cls-2" points="501.62 735.76 501.91 735.56 501.62 735.35 501.62 735.76"/><polygon class="cls-2" points="564.65 321.74 565.49 321.14 565.49 229.81 565.23 229.62 501.62 275.29 501.62 276.49 564.65 321.74"/><polygon class="cls-2" points="565.49 689.89 565.49 689.91 565.51 689.9 565.49 689.89"/><polygon class="cls-2" points="629.36 367 628.53 367.59 629.36 368.19 629.36 367"/><polygon class="cls-2" points="629.36 368.19 628.53 367.59 565.49 412.85 565.49 414.39 628.87 459.88 629.36 459.53 629.36 368.19"/><polygon class="cls-2" points="629.36 91.89 629.11 92.07 629.36 92.25 629.36 91.89"/><polygon class="cls-2" points="628.87 459.88 629.36 460.24 629.36 459.53 628.87 459.88"/><polygon class="cls-2" points="629.11 275.47 629.36 275.65 629.36 275.3 629.11 275.47"/><polygon class="cls-2" points="629.36 644.07 565.51 689.9 628.83 735.36 629.36 734.99 629.36 644.07"/><polygon class="cls-2" points="628.83 735.36 629.36 735.74 629.36 734.99 628.83 735.36"/><polygon class="cls-2" points="629.36 91.89 629.36 0.58 565.51 46.41 629.11 92.07 629.36 91.89"/><polygon class="cls-2" points="629.36 275.3 629.36 183.95 629.11 183.77 565.49 229.44 565.49 229.81 629.11 275.47 629.36 275.3"/><polygon class="cls-2" points="629.11 183.77 629.36 183.59 629.36 92.25 629.11 92.07 565.49 137.74 565.49 138.1 629.11 183.77"/><polygon class="cls-2" points="628.56 552.15 629.36 552.72 629.36 551.58 628.56 552.15"/><polygon class="cls-2" points="565.51 46.41 565.49 46.4 565.49 46.42 565.51 46.41"/><polygon class="cls-2" points="629.36 183.59 629.11 183.77 629.36 183.95 629.36 183.59"/><polygon class="cls-2" points="628.53 367.59 629.36 367 629.36 275.65 629.11 275.47 565.49 321.14 565.49 322.34 628.53 367.59"/><polygon class="cls-2" points="629.36 460.24 628.87 459.88 565.49 505.38 565.49 506.88 628.56 552.15 629.36 551.58 629.36 460.24"/><polygon class="cls-2" points="693.22 689.49 692.98 689.31 629.36 734.99 629.36 735.74 692.98 781.41 693.22 781.23 693.22 689.49"/><polygon class="cls-2" points="692.98 781.41 693.22 781.58 693.22 781.23 692.98 781.41"/><polygon class="cls-2" points="693.22 598.57 692.98 598.39 629.65 643.86 692.98 689.31 693.22 689.14 693.22 598.57"/><polygon class="cls-2" points="692.98 689.31 693.22 689.49 693.22 689.14 692.98 689.31"/><polygon class="cls-2" points="629.36 643.64 629.36 644.07 629.65 643.86 629.36 643.64"/><polygon class="cls-2" points="693.22 46.04 692.98 46.22 693.22 46.39 693.22 46.04"/><polygon class="cls-2" points="693.22 229.45 692.98 229.62 693.22 229.8 693.22 229.45"/><polygon class="cls-2" points="629.36 275.65 692.98 321.32 693.22 321.15 693.22 229.8 692.98 229.62 629.36 275.3 629.36 275.65"/><polygon class="cls-2" points="629.36 92.25 692.98 137.92 693.22 137.74 693.22 46.39 692.98 46.22 629.36 91.89 629.36 92.25"/><polygon class="cls-2" points="692.98 598.39 693.22 598.57 693.22 598.22 692.98 598.39"/><polygon class="cls-2" points="693.22 321.15 692.98 321.32 693.22 321.5 693.22 321.15"/><polygon class="cls-2" points="693.22 506.08 692.98 505.91 629.36 551.58 629.36 552.72 692.98 598.39 693.22 598.22 693.22 506.08"/><polygon class="cls-2" points="692.98 413.86 693.22 413.69 693.22 321.5 692.98 321.32 629.36 367 629.36 368.19 692.98 413.86"/><polygon class="cls-2" points="629.36 183.95 692.98 229.62 693.22 229.45 693.22 138.09 692.98 137.92 629.36 183.59 629.36 183.95"/><polygon class="cls-2" points="510.93 827.08 510.96 827.06 510.93 827.05 510.93 827.08"/><polygon class="cls-2" points="510.93 0.54 510.93 0.58 510.96 0.56 510.93 0.54"/><polygon class="cls-2" points="693.22 414.03 692.98 413.86 629.36 459.53 629.36 460.24 692.98 505.91 693.22 505.73 693.22 414.03"/><polygon class="cls-2" points="692.98 413.86 693.22 414.03 693.22 413.69 692.98 413.86"/><polygon class="cls-2" points="693.22 137.74 692.98 137.92 693.22 138.09 693.22 137.74"/><polygon class="cls-2" points="692.98 505.91 693.22 506.08 693.22 505.73 692.98 505.91"/><polygon class="cls-2" points="693.49 598.03 693.49 598.76 756.31 643.86 757.36 643.1 757.36 552.18 693.49 598.03"/><polygon class="cls-2" points="693.49 321.69 757.36 367.54 757.36 275.84 756.85 275.47 693.49 320.96 693.49 321.69"/><polygon class="cls-2" points="693.49 229.99 756.85 275.47 757.36 275.11 757.36 184.13 756.85 183.77 693.49 229.25 693.49 229.99"/><polygon class="cls-2" points="756.85 92.07 757.36 91.7 757.36 1.12 756.58 0.56 693.49 45.85 693.49 46.59 756.85 92.07"/><polygon class="cls-2" points="693.49 137.55 693.49 138.29 756.85 183.77 757.36 183.41 757.36 92.43 756.85 92.07 693.49 137.55"/><polygon class="cls-2" points="757.09 459.88 757.36 459.69 757.36 367.64 693.49 413.49 693.49 414.23 757.09 459.88"/><polygon class="cls-2" points="757.36 92.43 757.36 91.7 756.85 92.07 757.36 92.43"/><polygon class="cls-2" points="756.31 643.86 693.49 688.95 693.49 689.68 757.13 735.36 757.36 735.19 757.36 644.61 756.31 643.86"/><polygon class="cls-2" points="693.49 505.54 693.49 506.28 757.36 552.12 757.36 460.07 757.09 459.88 693.49 505.54"/><polygon class="cls-2" points="638.94 827.63 638.94 826.5 638.16 827.06 638.94 827.63"/><polygon class="cls-2" points="757.09 459.88 757.36 460.07 757.36 459.69 757.09 459.88"/><polygon class="cls-2" points="757.36 735.53 757.36 735.19 757.13 735.36 757.36 735.53"/><polygon class="cls-2" points="757.36 275.11 756.85 275.47 757.36 275.84 757.36 275.11"/><polygon class="cls-2" points="638.94 0 638.16 0.56 638.94 1.12 638.94 0"/><polygon class="cls-2" points="757.36 644.61 757.36 643.1 756.31 643.86 757.36 644.61"/><polygon class="cls-2" points="757.36 183.41 756.85 183.77 757.36 184.13 757.36 183.41"/><polygon class="cls-2" points="821.23 137.56 820.73 137.92 821.23 138.28 821.23 137.56"/><polygon class="cls-2" points="757.4 552.15 820.73 597.61 821.23 597.25 821.23 506.33 757.4 552.15"/><polygon class="cls-2" points="821.23 690.46 821.23 689.35 820.45 689.9 821.23 690.46"/><polygon class="cls-2" points="821.23 597.97 821.23 597.25 820.73 597.61 821.23 597.97"/><polygon class="cls-2" points="821.23 229.26 820.73 229.62 821.23 229.98 821.23 229.26"/><polygon class="cls-2" points="757.36 460.07 821.23 505.92 821.23 413.85 757.36 459.69 757.36 460.07"/><polygon class="cls-2" points="757.36 552.18 757.4 552.15 757.36 552.12 757.36 552.18"/><polygon class="cls-2" points="757.43 367.59 757.36 367.54 757.36 367.64 757.43 367.59"/><polygon class="cls-2" points="757.36 91.7 757.36 92.43 820.73 137.92 821.23 137.56 821.23 46.97 820.45 46.41 757.36 91.7"/><polygon class="cls-2" points="821.23 46.97 821.23 45.86 820.45 46.41 821.23 46.97"/><polygon class="cls-2" points="821.23 321.8 757.43 367.59 821.23 413.39 821.23 321.8"/><polygon class="cls-2" points="820.45 689.9 757.36 735.19 757.36 735.53 820.73 781.02 821.23 780.66 821.23 690.46 820.45 689.9"/><polygon class="cls-2" points="757.36 184.13 820.73 229.62 821.23 229.26 821.23 138.28 820.73 137.92 757.36 183.41 757.36 184.13"/><polygon class="cls-2" points="757.36 275.84 821.23 321.69 821.23 229.98 820.73 229.62 757.36 275.11 757.36 275.84"/><polygon class="cls-2" points="820.73 781.02 821.23 781.38 821.23 780.66 820.73 781.02"/><polygon class="cls-2" points="885.09 460.49 821.51 506.13 884.84 551.59 885.09 551.4 885.09 460.49"/><polygon class="cls-2" points="884.84 551.59 885.09 551.77 885.09 551.4 884.84 551.59"/><polygon class="cls-2" points="766.67 827.22 766.67 826.51 766.18 826.87 766.67 827.22"/><polygon class="cls-2" points="885.09 275.95 821.3 321.74 885.09 367.53 885.09 275.95"/><polygon class="cls-2" points="766.67 0.72 766.67 0.01 766.18 0.36 766.67 0.72"/><polygon class="cls-2" points="821.54 413.62 821.23 413.39 821.23 413.85 821.54 413.62"/><polygon class="cls-2" points="885.09 183.41 884.6 183.77 885.09 184.13 885.09 183.41"/><polygon class="cls-2" points="885.09 643.82 885.09 643.5 884.87 643.66 885.09 643.82"/><polygon class="cls-2" points="885.09 91.71 884.32 92.26 885.09 92.81 885.09 91.71"/><polygon class="cls-2" points="821.23 138.28 884.6 183.77 885.09 183.41 885.09 92.81 884.32 92.26 821.23 137.56 821.23 138.28"/><polygon class="cls-2" points="885.09 459.24 885.09 368 821.54 413.62 885.09 459.24"/><polygon class="cls-2" points="821.3 321.74 821.23 321.69 821.23 321.8 821.3 321.74"/><polygon class="cls-2" points="821.23 229.98 885.09 275.83 885.09 184.13 884.6 183.77 821.23 229.26 821.23 229.98"/><polygon class="cls-2" points="821.23 506.33 821.51 506.13 821.23 505.92 821.23 506.33"/><polygon class="cls-2" points="948.96 230.1 885.18 275.89 948.96 321.68 948.96 230.1"/><polygon class="cls-2" points="885.42 367.76 885.09 367.53 885.09 368 885.42 367.76"/><polygon class="cls-2" points="948.96 689.66 948.96 688.96 948.47 689.31 948.96 689.66"/><polygon class="cls-2" points="948.96 137.57 948.2 138.12 948.96 138.66 948.96 137.57"/><polygon class="cls-2" points="948.96 322.15 885.42 367.76 948.96 413.38 948.96 322.15"/><polygon class="cls-2" points="885.96 459.86 885.09 459.24 885.09 460.49 885.96 459.86"/><polygon class="cls-2" points="885.09 643.5 885.09 643.82 948.47 689.31 948.96 688.96 948.96 597.65 885.09 643.5"/><polygon class="cls-2" points="885.09 551.77 948.96 597.62 948.96 505.56 885.09 551.4 885.09 551.77"/><polygon class="cls-2" points="885.18 275.89 885.09 275.83 885.09 275.95 885.18 275.89"/><polygon class="cls-2" points="948.96 505.08 948.96 414.64 885.96 459.86 948.96 505.08"/><polygon class="cls-2" points="948.96 45.87 948.47 46.22 948.96 46.57 948.96 45.87"/><polygon class="cls-2" points="1012.83 276.3 949.29 321.91 1012.83 367.52 1012.83 276.3"/><polygon class="cls-2" points="1012.83 459.23 1012.83 368.79 949.84 414.01 1012.83 459.23"/><polygon class="cls-2" points="949.29 505.32 948.96 505.08 948.96 505.56 949.29 505.32"/><polygon class="cls-2" points="894.41 0.02 893.38 0.76 894.41 1.5 894.41 0.02"/><polygon class="cls-2" points="949.05 230.04 948.96 229.97 948.96 230.1 949.05 230.04"/><polygon class="cls-2" points="1012.83 643.46 1012.83 643.12 1012.58 643.29 1012.83 643.46"/><polygon class="cls-2" points="948.96 414.64 949.84 414.01 948.96 413.38 948.96 414.64"/><polygon class="cls-2" points="949.29 321.91 948.96 321.68 948.96 322.15 949.29 321.91"/><polygon class="cls-2" points="948.96 597.65 948.98 597.63 948.96 597.62 948.96 597.65"/><polygon class="cls-2" points="1012.83 550.93 1012.83 459.71 949.29 505.32 1012.83 550.93"/><polygon class="cls-2" points="948.98 597.63 1012.58 643.29 1012.83 643.12 1012.83 551.8 948.98 597.63"/><polygon class="cls-2" points="1013.44 551.37 1012.83 550.93 1012.83 551.8 1013.44 551.37"/><polygon class="cls-2" points="1076.69 505.07 1076.69 413.86 1013.16 459.47 1076.69 505.07"/><polygon class="cls-2" points="1076.69 322.94 1013.71 368.16 1076.69 413.37 1076.69 322.94"/><polygon class="cls-2" points="1013.71 368.16 1012.83 367.52 1012.83 368.79 1013.71 368.16"/><polygon class="cls-2" points="1012.83 459.71 1013.16 459.47 1012.83 459.23 1012.83 459.71"/><polygon class="cls-2" points="1013.16 276.06 1012.83 275.82 1012.83 276.3 1013.16 276.06"/><polygon class="cls-2" points="1022.14 0.7 1022.14 0.03 1021.67 0.36 1022.14 0.7"/><polygon class="cls-4" points="118.42 185.94 118.42 275.26 180.63 230.6 118.42 185.94"/><polygon class="cls-5" points="565.49 597.43 628.56 552.15 565.49 506.88 565.49 597.43"/><polygon class="cls-5" points="565.49 505.38 628.87 459.88 565.49 414.39 565.49 505.38"/><polygon class="cls-5" points="692.98 229.62 629.36 183.95 629.36 275.3 692.98 229.62"/><polygon class="cls-5" points="948.96 321.68 949.29 321.91 1012.83 276.3 1012.83 275.82 949.05 230.04 948.96 230.1 948.96 321.68"/><polygon class="cls-5" points="1013.71 368.16 1012.83 368.79 1012.83 459.23 1013.16 459.47 1076.69 413.86 1076.69 413.37 1013.71 368.16"/><polygon class="cls-5" points="501.62 183.96 501.62 275.29 565.23 229.62 501.62 183.96"/><polygon class="cls-5" points="629.36 275.65 629.36 367 692.98 321.32 629.36 275.65"/><polygon class="cls-5" points="693.49 781.04 757.13 735.36 693.49 689.68 693.49 781.04"/><polygon class="cls-6" points="54.55 416.18 54.55 506.27 117.3 461.23 54.55 416.18"/><polygon class="cls-6" points="118.42 550.37 181.18 505.32 118.42 460.27 118.42 550.37"/><polygon class="cls-6" points="246.16 642.08 308.92 597.02 246.16 551.96 246.16 642.08"/><polygon class="cls-6" points="310.02 138.95 310.02 229.81 373.31 184.38 310.02 138.95"/><polygon class="cls-6" points="310.02 780.82 373.62 735.16 310.02 689.51 310.02 780.82"/><polygon class="cls-6" points="310.02 504.53 372.8 459.47 310.02 414.4 310.02 504.53"/><polygon class="cls-6" points="437.75 597.07 501.12 551.59 437.75 506.1 437.75 597.07"/><polygon class="cls-6" points="437.75 322.69 437.75 412.84 500.54 367.76 437.75 322.69"/><polygon class="cls-6" points="501.62 735.76 501.62 826.68 565.23 781.02 501.91 735.56 501.62 735.76"/><polygon class="cls-6" points="565.49 597.79 565.49 689.89 565.51 689.9 629.36 644.07 629.36 643.64 565.49 597.79"/><polygon class="cls-6" points="820.45 46.41 757.36 1.12 757.36 91.7 820.45 46.41"/><polygon class="cls-6" points="820.73 137.92 757.36 92.43 757.36 183.41 820.73 137.92"/><polygon class="cls-6" points="885.42 367.76 885.09 368 885.09 459.24 885.96 459.86 948.96 414.64 948.96 413.38 885.42 367.76"/><polygon class="cls-6" points="885.09 551.77 885.09 643.5 948.96 597.65 948.96 597.62 885.09 551.77"/><polygon class="cls-7" points="182.29 687.93 245.05 642.87 182.29 597.82 182.29 687.93"/><polygon class="cls-7" points="246.16 185.15 246.16 275.66 309.2 230.41 246.16 185.15"/><polygon class="cls-8" points="246.16 826.66 309.74 781.02 246.16 735.37 246.16 826.66"/><polygon class="cls-7" points="310.02 323.49 310.02 412.83 372.25 368.16 310.02 323.49"/><polygon class="cls-7" points="565.49 689.91 565.49 780.83 628.83 735.36 565.51 689.9 565.49 689.91"/><polygon class="cls-7" points="629.36 827.05 629.38 827.06 692.98 781.41 629.36 735.74 629.36 827.05"/><polygon class="cls-7" points="821.23 506.33 821.23 597.25 884.84 551.59 821.51 506.13 821.23 506.33"/><polygon class="cls-7" points="1013.16 459.47 1012.83 459.71 1012.83 550.93 1013.44 551.37 1076.69 505.96 1076.69 505.07 1013.16 459.47"/><polygon class="cls-7" points="182.29 322.71 182.29 412.82 245.05 367.76 182.29 322.71"/><polygon class="cls-7" points="246.16 93.1 246.16 183.57 309.16 138.34 246.16 93.1"/><polygon class="cls-7" points="437.49 46.22 374.16 0.76 373.89 0.95 373.89 91.87 437.49 46.22"/><polygon class="cls-7" points="373.89 734.97 437.49 689.31 373.89 643.66 373.89 734.97"/><polygon class="cls-7" points="373.89 642.92 436.97 597.63 373.89 552.35 373.89 642.92"/><polygon class="cls-7" points="501.62 92.27 501.62 92.25 437.75 46.41 437.75 138.11 437.76 138.12 501.62 92.27"/><polygon class="cls-7" points="437.75 230.65 437.75 321.13 500.78 275.89 437.75 230.65"/><polygon class="cls-7" points="501.62 458.69 564.41 413.62 501.62 368.54 501.62 458.69"/><polygon class="cls-7" points="756.85 275.47 693.49 229.99 693.49 320.96 756.85 275.47"/><polygon class="cls-7" points="693.49 414.23 693.49 505.54 757.09 459.88 693.49 414.23"/><polygon class="cls-7" points="757.36 459.69 821.23 413.85 821.23 413.39 757.43 367.59 757.36 367.64 757.36 459.69"/><polygon class="cls-7" points="821.3 321.74 885.09 275.95 885.09 275.83 821.23 229.98 821.23 321.69 821.3 321.74"/><polygon class="cls-7" points="948.96 597.65 948.96 688.96 1012.58 643.29 948.98 597.63 948.96 597.65"/><polygon class="cls-6" points="182.03 688.39 118.42 734.05 118.42 734.77 182.07 780.46 182.29 780.3 182.29 688.57 182.03 688.39"/><polygon class="cls-7" points="117.61 277.45 54 323.12 54 323.83 117.64 369.52 117.86 369.36 117.86 277.63 117.61 277.45"/><polygon class="cls-3" points="1013.01 184.07 949.4 229.73 949.4 230.45 1013.04 276.14 1013.26 275.98 1013.26 184.25 1013.01 184.07"/><polygon class="cls-7" points="181.34 47.61 117.73 93.28 117.73 94 181.37 139.68 181.6 139.52 181.6 47.8 181.34 47.61"/><polygon class="cls-8" points="884.45 644.42 820.84 690.09 820.84 690.81 884.49 736.49 884.71 736.34 884.71 644.61 884.45 644.42"/><polygon class="cls-3" points="500.55 275.64 436.94 321.31 436.94 322.02 500.59 367.71 500.81 367.55 500.81 275.82 500.55 275.64"/><polygon class="cls-8" points="692.98 46.22 629.38 0.56 629.36 0.58 629.36 91.89 692.98 46.22"/><polygon class="cls-8" points="54.55 596.22 117.3 551.17 54.55 506.13 54.55 596.22"/><polygon class="cls-8" points="246.16 550.38 308.65 505.51 246.16 460.65 246.16 550.38"/><polygon class="cls-8" points="437.75 138.11 373.89 92.26 373.89 183.97 437.75 138.12 437.75 138.11"/><polygon class="cls-8" points="501.62 643.27 565.23 597.61 501.62 551.95 501.62 643.27"/><polygon class="cls-8" points="757.36 367.64 757.36 367.54 693.49 321.69 693.49 413.49 757.36 367.64"/><polygon class="cls-8" points="756.85 183.77 693.49 138.29 693.49 229.25 756.85 183.77"/><polygon class="cls-8" points="948.96 413.38 949.84 414.01 1012.83 368.79 1012.83 367.52 949.29 321.91 948.96 322.15 948.96 413.38"/><polygon class="cls-3" points="437.75 689.51 437.49 689.31 373.89 734.97 373.89 735.36 437.75 781.21 437.75 689.51"/><polygon class="cls-3" points="629.36 643.64 629.65 643.86 692.98 598.39 629.36 552.72 629.36 643.64"/><polygon class="cls-3" points="692.98 137.92 629.36 92.25 629.36 183.59 692.98 137.92"/><polygon class="cls-3" points="118.42 276.86 118.42 367.36 181.45 322.11 118.42 276.86"/><polygon class="cls-3" points="182.29 780.46 245.63 734.99 182.29 689.52 182.29 780.46"/><polygon class="cls-3" points="310.02 46.42 246.16 0.57 246.16 92.65 310.02 46.8 310.02 46.42"/><polygon class="cls-3" points="246.16 277.64 246.16 366.97 308.38 322.31 246.16 277.64"/><polygon class="cls-3" points="310.02 688.77 373.38 643.29 310.02 597.81 310.02 688.77"/><polygon class="cls-3" points="373.89 458.68 436.12 414.01 373.89 369.33 373.89 458.68"/><polygon class="cls-3" points="437.76 138.12 437.75 138.12 437.75 229.43 501.36 183.77 437.76 138.12"/><polygon class="cls-3" points="565.49 46.42 565.49 46.4 501.62 0.55 501.62 92.25 501.63 92.26 565.49 46.42"/><polygon class="cls-3" points="565.49 322.34 565.49 412.85 628.53 367.59 565.49 322.34"/><polygon class="cls-3" points="629.36 459.53 692.98 413.86 629.36 368.19 629.36 459.53"/><polygon class="cls-3" points="757.36 552.18 757.36 643.1 820.73 597.61 757.4 552.15 757.36 552.18"/><polygon class="cls-3" points="821.23 413.85 821.23 505.92 821.51 506.13 885.09 460.49 885.09 459.24 821.54 413.62 821.23 413.85"/><polygon class="cls-3" points="821.23 413.39 821.54 413.62 885.09 368 885.09 367.53 821.3 321.74 821.23 321.8 821.23 413.39"/><polygon class="cls-3" points="884.6 183.77 821.23 138.28 821.23 229.26 884.6 183.77"/><polygon class="cls-7" points="884.32 92.26 821.23 46.97 821.23 137.56 884.32 92.26"/><polygon class="cls-8" points="118.42 458.67 180.9 413.81 118.42 368.96 118.42 458.67"/><polygon class="cls-8" points="118.42 642.07 181.18 597.02 118.42 551.97 118.42 642.07"/><polygon class="cls-8" points="182.29 139.31 182.29 229.41 245.05 184.36 182.29 139.31"/><polygon class="cls-8" points="246.16 458.68 308.92 413.62 246.16 368.56 246.16 458.68"/><polygon class="cls-8" points="310.29 46.61 310.02 46.8 310.02 137.72 373.62 92.07 310.29 46.61"/><polygon class="cls-8" points="310.02 596.23 372.52 551.37 310.02 506.5 310.02 596.23"/><polygon class="cls-8" points="310.02 231 310.02 321.13 372.8 276.06 310.02 231"/><polygon class="cls-8" points="373.89 184.8 373.89 275.28 436.91 230.04 373.89 184.8"/><polygon class="cls-8" points="501.62 735.35 437.75 689.51 437.75 781.21 438.03 781.41 501.62 735.76 501.62 735.35"/><polygon class="cls-8" points="437.75 504.54 500 459.86 437.75 415.18 437.75 504.54"/><polygon class="cls-8" points="501.62 276.49 501.62 366.99 564.65 321.74 501.62 276.49"/><polygon class="cls-8" points="501.62 551.23 564.45 506.13 501.62 461.03 501.62 551.23"/><polygon class="cls-8" points="565.23 137.92 501.63 92.26 501.62 92.27 501.62 183.58 565.23 137.92"/><polygon class="cls-8" points="501.62 644.04 501.62 735.35 501.91 735.56 565.49 689.91 565.49 689.89 501.62 644.04"/><polygon class="cls-8" points="565.49 229.81 565.49 321.14 629.11 275.47 565.49 229.81"/><polygon class="cls-8" points="629.11 92.07 565.51 46.41 565.49 46.42 565.49 137.74 629.11 92.07"/><polygon class="cls-8" points="629.36 644.07 629.36 734.99 692.98 689.31 629.65 643.86 629.36 644.07"/><polygon class="cls-8" points="629.36 551.58 692.98 505.91 629.36 460.24 629.36 551.58"/><polygon class="cls-8" points="693.49 688.95 756.31 643.86 693.49 598.76 693.49 688.95"/><polygon class="cls-8" points="756.85 92.07 693.49 46.59 693.49 137.55 756.85 92.07"/><polygon class="cls-8" points="757.36 460.07 757.36 552.12 757.4 552.15 821.23 506.33 821.23 505.92 757.36 460.07"/><polygon class="cls-8" points="757.36 826.5 820.73 781.02 757.36 735.53 757.36 826.5"/><polygon class="cls-8" points="820.73 229.62 757.36 184.13 757.36 275.11 820.73 229.62"/><polygon class="cls-8" points="885.18 275.89 948.96 230.1 948.96 229.97 885.09 184.13 885.09 275.83 885.18 275.89"/><polygon class="cls-8" points="885.09 460.49 885.09 551.4 948.96 505.56 948.96 505.08 885.96 459.86 885.09 460.49"/><polygon class="cls-8" points="948.96 505.56 948.96 597.62 948.98 597.63 1012.83 551.8 1012.83 550.93 949.29 505.32 948.96 505.56"/><polygon class="cls-8" points="1012.83 367.52 1013.71 368.16 1076.69 322.94 1076.69 321.67 1013.16 276.06 1012.83 276.3 1012.83 367.52"/></g></g></svg>