<?xml version="1.0" encoding="utf-8"?>
<!-- Generator: Adobe Illustrator 22.1.0, SVG Export Plug-In . SVG Version: 6.00 Build 0)  -->
<svg version="1.1" id="Layer_1" xmlns="http://www.w3.org/2000/svg" xmlns:xlink="http://www.w3.org/1999/xlink" x="0px" y="0px"
	 viewBox="0 0 160.8 75" style="enable-background:new 0 0 160.8 75;" xml:space="preserve">
<style type="text/css">
	.st0{fill:none;stroke:#381C75;stroke-width:2;stroke-miterlimit:10;}
</style>
<title>stand</title>
<path class="st0" d="M44.1,1C117,1,44,1,117,1c2.6,16.5,5.3,33.1,13.1,48.2c3.3,6.4,16.8,12.5,23.9,14.8c-0.9,0.9-3.3,1-5,1
	c-39.5,0-98.5,0-138,0c-1.7,0-4.1-0.1-5-1c7.3-2.8,21.7-9.6,25.1-16.2c6.5-12.4,9.2-25.9,11.8-39.5C43.4,5.9,43.7,3.5,44.1,1z"/>
<path class="st0" d="M153.9,64.1c3.3,0.2,5.5,1.3,5.8,4s-1.6,4.1-4,4.9c-2.2,0.7-7.4,1-9.8,1c-45.6,0-84.4,0-130,0
	c-3.6-0.1-7.3-0.4-10.8-0.9C2.5,72.5,1,71.2,1,68.4c0-3,1.6-3.2,5-4.3"/>
</svg>
