<?xml version="1.0" encoding="utf-8"?>
<!-- Generator: Adobe Illustrator 21.1.0, SVG Export Plug-In . SVG Version: 6.00 Build 0)  -->
<svg version="1.1" id="Layer_1" xmlns="http://www.w3.org/2000/svg" xmlns:xlink="http://www.w3.org/1999/xlink" x="0px" y="0px"
	 viewBox="0 0 1059.6 351.7" style="enable-background:new 0 0 1059.6 351.7;" xml:space="preserve">
<style type="text/css">
	.st0{clip-path:url(#SVGID_2_);}
	.st1{fill:#666666;}
	.st2{fill:#FFFFFF;}
	.st3{fill:#808080;}
	.st4{clip-path:url(#SVGID_4_);}
	.st5{fill:none;stroke:#2EBCA1;stroke-width:12;stroke-miterlimit:10;}
	.st6{fill:none;stroke:#808080;stroke-width:12;stroke-miterlimit:10;}
</style>
<g>
	<defs>
		<circle id="SVGID_1_" cx="175.9" cy="175.9" r="151.9"/>
	</defs>
	<use xlink:href="#SVGID_1_"  style="overflow:visible;fill:#666666;"/>
	<clipPath id="SVGID_2_">
		<use xlink:href="#SVGID_1_"  style="overflow:visible;"/>
	</clipPath>
	<g class="st0">
		<circle class="st1" cx="175.9" cy="175.9" r="151.9"/>
		<path class="st2" d="M345.2,282.9L126.8,151.5c0,0-66.7-43.6-86.4-43.5c41.1,4.2,279.4,207.5,279.4,207.5L345.2,282.9z"/>
		<path class="st2" d="M364.4,208.8c0,0-271-91.6-279.5-94.5s-30.1-9.1-45.5-7.9c16.6-3.1,57.2,8.3,57.2,8.3l267.7,72.2V208.8z"/>
		<path class="st3" d="M420.1,167.9c0,0-277.5-52.9-317.5-60.2s-65-2.4-65-2.4l2.7-2.4c0,0,10.1-7.7,97.8-4.7s378.7,6.5,378.7,6.5
			L420.1,167.9z"/>
	</g>
</g>
<title>brn</title>
<g id="xpCEBx.tif">
	<path class="st3" d="M963.7,166.9c-7.5,0-17.8-0.1-24.8,0c-2-3.2-0.6-0.8-1.9-2.9c-8.1-12.6-16.3-25.1-24.4-37.6
		c-2.9-4.5-5.7-9-9.2-14.5c-0.2,2.8-0.5,4.7-0.5,6.6c0,13.7,0,34.5,0,48.2c-7,0-21.3,0.1-28.7,0.1V61.8c11.7,0,8.2,0.3,12.3,0.1
		s8,0,12.7,0l35.9,54.4V61.8h28.7C963.8,166.8,963.8,61.8,963.7,166.9z"/>
	<path class="st3" d="M454.6,111c0.7,0.8,1.6,1.6,2.5,2.2c10.8,6.3,13.4,16.7,11.8,27.7c-1.8,11.6-8.9,19.9-20.8,22.9
		c-8.3,2.2-16.8,3.3-25.3,3.2c-12.1-0.2-24.2,0-36.3,0c-0.5-105.1-0.1-0.6-0.4-105c1.3-0.1,2.7-0.1,4,0c13.5,0,27-0.2,40.4,0.1
		c7,0.1,13.7,1.6,19.7,5.6c11.2,7.4,15.5,20.6,10.3,32.9C458.9,103.8,456.9,106.9,454.6,111z M414.6,125v17.8
		c5.8,0,11.1,0.3,16.4-0.1c2.9-0.3,5.7-1.3,8.2-2.7c5.6-3.1,5.6-9.5,0.2-12.9c-1.5-1.1-3.3-1.8-5.2-2
		C427.8,124.8,421.4,124.9,414.6,125L414.6,125z M414.6,86.1v14.5c4.9,0,9.4,0.2,13.9,0c5.1-0.2,8.3-3.3,8.4-7.8
		c0.1-3.7-2.9-6.4-8.4-6.7C424,85.9,419.5,86.1,414.6,86.1L414.6,86.1z"/>
	<path class="st3" d="M452.4,248.9l21.5,38.1c-5.3,1.7-19.7,2-30.7,0.7c-5.3-8.9-10.8-18-16.1-27.2c-3.7-6.4-3.7-6.4-12.9-5.3
		c0,5.2,0,10.5,0,15.8c0,3.2,0,6.5,0,9.7c-0.1,7.4-0.3,7.7-7.7,7.7c-6.7,0-13.4,0-20.1,0c-0.5-104.5-0.5-0.5-0.8-104.5
		c1.7-0.2,3.5-0.5,5.3-0.5c12.7,0,25.3-0.3,38,0.1c9.1,0.3,17.9,2,25.6,7.8c17,12.7,20,34.6,5.4,51
		C457.6,244.4,455,246.4,452.4,248.9z M414.5,230c6.4,0,12.3,0.3,18.1-0.1c5.5-0.6,9.9-4.9,10.6-10.4c0.5-4.8-2.9-8.8-8.7-10.8
		c-6.5-2.3-13.1-0.9-20-1L414.5,230z"/>
	<path class="st3" d="M557.6,288.2l-7-18.8h-32.2l-7.5,18.5h-29.8c-0.3-0.9-0.7-1.5-0.6-1.9c12.3-33,24.6-66,37-98.9
		c0.6-1.2,1.2-2.4,2-3.5h30l39.3,103.2c-0.6,0.7-1,1.3-1.3,1.3C577.6,288.2,567.6,288.2,557.6,288.2z M526.4,244.7
		c5.6-0.1,10.5,0.8,15.5-0.8l-7.5-21.1L526.4,244.7z"/>
	<path class="st3" d="M508.5,126.5v16H558c0.1,7.1,0.2,13.8,0.1,20.4c0,2.6-1.6,3.9-4.1,4c-0.8,0-1.6,0-2.4,0c-22.1,0-44.2,0-66.3,0
		c-5.5,0-6.2-0.7-6.2-5.9c-0.1-32.1-0.1-64.1,0-96.2c0.1-0.9,0.3-1.8,0.6-2.6h74.9c0,23.6-0.1,15.5,0.3,23.6
		c-23.2,0-15.7,0.2-23.4,0.3c-7.5,0.1-15,0-22.9,0v16h41.3c0,12.7,0-0.3,0.3,24.3c-7.3,0.1-14.2,0.1-21.1,0.2
		C522.4,126.6,515.7,126.5,508.5,126.5z"/>
	<path class="st3" d="M1011.6,126.6v16h48v23.1l-76.3,0.7c0,0-0.4,0.3-1.2-103.5c24.8,0,50.5-0.7,75.7-0.7v23.2
		c-44,0.3-47,0.3-47,0.3s0.4,13.3,0.4,16.5h41.8v24C1039.4,126.9,1025.8,126.3,1011.6,126.6z"/>
	<path class="st1" d="M919,185.1h16.4v68.8c3.9,0.3,3.8-2.6,4.5-4.2c3-7.7,5.6-15.5,8.3-23.3c3.9-10.8,7.5-21.7,11.7-32.3
		c2.5-6.4,2.7-6,8.9-6c2.4,0,4.9,0,7.3-0.1c2.1-0.1,4.1-0.5,6.4-0.8c2.4,5.5,0.9,11.2,1.2,16.8s0.1,11.3,0.1,17c0,5.4,0,10.8,0,16.2
		c0,5.6,0,11.1,0,17.8c4.9-4.4,5.5-9.4,7.2-13.7c6.1-16.2,11.8-32.6,17.4-49c3.7-10.9,1-8.5,12.5-8.9c1.9-0.1,3.7,0,6.5,0
		c-0.3,2.5-0.2,4.6-0.8,6.4c-6.5,18-12.9,36.1-19.8,54c-5.2,13.5-11.1,26.6-16.2,40.1c-1.3,3.5-3,4.6-6.3,4.5c-4.6-0.1-9.2,0-14.5,0
		c-0.7-5.6-1.8-11-1.9-16.5c-0.3-12.7-0.2-25.3-0.2-38c0-2.6,0-5.3,0-9.6c-3.7,5.1-4.9,9.5-6.4,13.6c-5.6,15-11.1,30-16.7,45
		c-1.9,5.1-2.6,5.4-8.4,5.5c-3.5,0-7,0.1-10.5,0c-3.7-0.2-4.5-1.1-4.8-5c0-0.3,0-0.5,0-0.8c-0.6-15.8-0.5-31.7-1.9-47.4
		c-1.1-12.3-1.3-24.6-1.2-37C917.6,193.9,918.4,189.7,919,185.1z"/>
	<path class="st1" d="M757.5,216.1c-1.7,9.8-3.3,19.7-5.1,29.5c-2.6,14.1-5.3,28.1-8,42.3h-15.5c-1.5-2.8-1-5.8-0.5-8.6
		c1.8-9.9,4.2-19.7,6-29.6c1.9-10.5,3.4-21,5.2-31.5c1.7-10.2,3.5-20.4,5.3-31c5.9-3.4,12.7-2.4,19.7-2.4c3.5,11.7,7,23.4,10.3,35.1
		s6.6,23.5,11.2,35.2c1.2-6.5,2.5-13,3.6-19.5c2.4-13.6,4.8-27.2,7.1-40.8c0.3-1.6,0.8-3.1,0.9-4.7c0.7-6.7,0.8-6.8,7.1-6.9
		c2.4,0,4.8,0,7.3,0c0.8,0,1.6,0.2,3,0.3c0.1,2,0.6,4.1,0.2,6c-2,12-4.1,24.1-6.3,36.1c-2.4,13-5,26.1-7.5,39.1
		c-0.8,4.2-1.4,8.4-2.1,12.6c-0.6,3.4-1.2,6.8-2,10.8c-5.3,0-10.4-0.1-15.4,0c-3.2,0.1-4.7-1.2-5.5-4.5c-2.4-9.8-5.3-19.5-7.8-29.2
		c-3.4-12.8-6.6-25.7-9.9-38.5L757.5,216.1z"/>
	<path class="st3" d="M671.5,166.9V87.1c-5.1-1.9-10.2-0.8-15.2-1s-9.7,0-15,0c-1.2-8-0.5-15.6-0.4-23.2c6.3-1.3,80.6-1.5,89.9-0.3
		v22.8c-4.7,1.6-9.8,0.5-14.8,0.7c-4.8,0.2-9.6,0-15,0c-0.2,2.7-0.5,5-0.5,7.3c0,21,0,42,0,63c0,1.9,0.1,3.8,0,5.6
		c-0.3,3.8-1,4.7-4.9,4.8C687.8,167,680.1,166.9,671.5,166.9z"/>
	<path class="st1" d="M821.7,257.1c0.2-16.4,3.2-32.7,8.7-48.2c3.3-9.2,8.8-17.2,17.8-22c2.3-1.2,4.8-2.1,7.3-2.7
		c11.4-3.1,17.4-3.5,27.5-0.8c8.1,2.1,13.7,7.3,16.2,15.4c2.1,6.9,2.7,14.3,1.7,21.5c-1.2,9.2-2.7,18.4-4.7,27.4
		c-1.9,9.1-5.3,17.9-10,25.9c-6.7,11.3-17.4,15.3-29.6,16.3c-6.1,0.6-12.3,0.2-18.3-1.4c-8.5-2.4-15.2-8.9-16.3-17.7
		C821.4,265.6,821.8,260.3,821.7,257.1z M881.8,217.9c0-2.7,0.1-5.4,0-8.1c-0.5-7.2-5.2-11.8-12.4-12c-8.2-0.2-14.4,3.1-18.6,10.3
		c-5.6,9.6-7,20.5-9.5,31.1c-1.8,7.4-1.7,14.8-1.5,22.3c0,5.6,3.6,10.5,9,12c9.1,2.8,18.8-1.5,22.9-10
		C878.9,249.2,881,233.7,881.8,217.9z"/>
	<path class="st3" d="M741.7,62.2H770c0,26.7-0.1,53.9-0.1,80.6c44,0,0-0.1,43.8-0.1c0.2,24.1,0.2,0.1,0.2,23.9h-71.7
		C741.8,61.8,741.8,166.8,741.7,62.2z"/>
	<path class="st3" d="M603.3,143h43.8c0,6.9-0.3,19.8-0.3,24h-71.2c-0.8-105.2,0.2-0.2-0.8-104.6c7-0.5,9.4-0.3,14.1-0.5
		c4.5-0.1,9.1,0,14.4,0L603.3,143z"/>
	<rect x="599.8" y="183.8" class="st3" width="28" height="104"/>
	<path class="st1" d="M1058.3,177c0,1.7-0.2,3.5-0.4,5.2c-5.2,24.8-7.1,50.3-15.3,74.4h-10.1c0.1-5.2-0.6-10.5,1-16.2
		c1.5-5.3,1.2-11.1,2.1-16.6c2.1-12.8,4.3-25.6,6.7-38.3c0.5-1.7,1.7-3.1,3.3-3.9C1049.4,179.8,1053.5,178.6,1058.3,177z"/>
	<path class="st1" d="M1042.4,270.9c-0.4,4.7-0.3,8.8-1.3,12.6c-1.3,4.7-6.3,6.4-12,4.8c-3.7-1.1-5.7-5.2-4.7-9.9
		c0.4-1.6,0.9-3.1,1.5-4.5c1.4-3.2,3.7-5.3,7.5-4.8C1036.3,269.4,1039,270.2,1042.4,270.9z"/>
	<rect x="826.8" y="61.8" class="st3" width="29" height="105"/>
	<path class="st3" d="M674.3,265h43.8c0,6.9-0.3,19.8-0.3,24h-71.2c-0.8-105.2,0.2-0.2-0.8-104.6c7-0.5,9.4-0.3,14.1-0.5
		c4.5-0.1,9.1,0,14.4,0L674.3,265z"/>
</g>
<path class="st2" d="M48.2,188.8"/>
<g>
	<defs>
		<circle id="SVGID_3_" cx="175.9" cy="175.9" r="169.9"/>
	</defs>
	<clipPath id="SVGID_4_">
		<use xlink:href="#SVGID_3_"  style="overflow:visible;"/>
	</clipPath>
	<g class="st4">
		<circle class="st5" cx="175.9" cy="175.9" r="169.9"/>
	</g>
</g>
<circle class="st6" cx="175.9" cy="175.9" r="169.9"/>
</svg>
