<?xml version="1.0" encoding="utf-8"?>
<!-- Generator: Adobe Illustrator 21.1.0, SVG Export Plug-In . SVG Version: 6.00 Build 0)  -->
<svg version="1.1" id="Layer_1" xmlns="http://www.w3.org/2000/svg" xmlns:xlink="http://www.w3.org/1999/xlink" x="0px" y="0px"
	 viewBox="0 0 1298.5 1112.9" style="enable-background:new 0 0 1298.5 1112.9;" xml:space="preserve">
<style type="text/css">
	.st0{fill:#666666;}
	.st1{fill:#808080;}
</style>
<title>chpf</title>
<g id="cPUF6w.tif">
	<path class="st0" d="M781.6,228.6c2.3-1,4.5-2.1,6.8-3.1c25.5-10.8,51-21.5,76.5-32.3c9-3.8,10-5.8,7.6-15.4
		c-2.8-11-3.9-11.6-13.9-6.8c-35.7,17.3-71.4,34.6-107.2,51.9c-2.2,1.2-4.6,2.1-7,2.9c-2.4,0.7-5,1-7.2-2.4c1.8-1.5,3.6-3.2,5.5-4.6
		c34.1-25.8,68.2-51.6,102.2-77.3c1.3-0.9,2.6-1.9,3.8-3c3.4-3,4-6.1,1.4-9.8c-8.4-11.8-9.6-12.8-20.7-3.7
		c-32.3,26.5-64.8,52.8-97.3,79.2c-1.8,1.5-3.6,2.8-6,4.7l-6-5.4c1.7-2.2,3.2-4.2,4.7-6l79.2-93.6c7.1-8.4,6.8-9.9-3.4-13.8
		c-2.5-1.1-5.2-1.9-7.9-2.2c-4.5-0.3-6.8,3.2-9.3,6.3c-23.8,30.3-47.6,60.6-71.5,91c-1.8,2.3-3.7,4.6-5.9,7.3l-7.5-4.2
		c1.2-2.6,2.3-5.1,3.5-7.5c15-29.9,30-59.8,44.9-89.8c1.2-2.5,4.2-5.1,2-8.2c-2.3-3.3-5.9-1.4-9-1.2c-1.2,0.1-2.3,0.4-3.4,0.4
		c-6.6,0-10.6,3.5-13.2,9.3c-6,13.3-12,26.5-18.1,39.7c-6.7,14.7-13.4,29.4-20.2,44.1c-0.8,1.9-1.8,3.7-3.1,6.1l-7.9-2.1
		c5-24,9.9-47.3,14.7-70.8c0.1-0.3-0.5-0.7-1.3-1.9c-1.3,0.7-3.1,1.2-4.2,2.4c-4.9,5.2-10,10.3-14.3,16c-2.5,3.6-4.3,7.6-5.3,11.8
		c-2.7,11.5-4.7,23-7,34.6c-0.3,1.6-0.8,3.1-1.3,5h-8.1c-1.3-6.3-2.6-12.5-3.8-18.8c-1.4-7-2.6-14.1-4.2-21c-0.7-3.1-1.5-6.6-3.4-9
		c-5.6-7-11.8-13.5-17.9-20.1c-0.4-0.4-1.3-0.4-1.9-0.5c-3.3,1.8-1.7,4.4-1.2,6.8c3.5,16,7.1,32,10.6,48c1.2,5.6,2.5,11.2,3.8,17.5
		l-8.5,2.3c-1.4-2.9-2.6-5.3-3.7-7.8c-12.6-27.2-25.2-54.5-37.8-81.7c-3.8-8.1-13.8-12.8-22.5-10.6c-2.5,0.7-3.3,2.4-2.6,4.8
		c0.7,1.9,1.6,3.8,2.6,5.6c14.9,30.2,29.8,60.4,44.8,90.6c0.9,1.8,1.7,3.7,2.7,6l-7.2,4.3c-1.8-2.1-3.4-4-5-5.9
		c-23.3-29.6-46.6-59.2-69.8-88.8c-1.9-2.4-3.5-5.1-5.8-6.9c-2-1.6-5.1-3.4-7.3-3c-4.5,1-8.8,2.5-12.9,4.7c-2.8,1.3-2.9,4.1-1.2,6.5
		c1.3,1.9,2.8,3.7,4.3,5.4l78.7,93.1c1.5,1.7,2.8,3.5,4.5,5.6l-5.8,6c-2.2-1.7-4.2-3.1-6.1-4.7c-33.1-27-66.2-54-99.3-81.1
		c-8.4-6.9-10-6.7-16.5,2c-0.9,1.1-1.7,2.2-2.4,3.4c-2.2,3.7-1.9,6.4,1.3,9.2c1.9,1.7,4,3.2,6,4.7l99.3,75.4
		c2.2,1.6,4.2,3.4,6.7,5.3l-4.1,7.2c-2-0.9-3.7-1.5-5.3-2.3c-37.7-19.1-75.4-38.2-113-57.4c-8.8-4.5-10.2-3.8-12.8,6
		c-0.5,1.5-0.9,3.1-1.2,4.7c-0.7,4.5,0.4,7,4.3,9.2c1.8,1,3.7,1.8,5.6,2.7l107.4,49.9c2.5,1.2,4.9,2.4,7.9,3.8l-1.9,8
		c-2-0.3-3.8-0.4-5.5-0.8c-37.3-8.6-74.6-17.3-111.9-26c-10.5-2.4-11.7-1.5-11.3,9.4c0.3,8.8,2.1,10.9,10.6,12.5l111.4,22.1
		c1.1,0.2,2.2,0.5,3.9,0.9l0.4,8.3c-6,0.4-11.6,0.9-17.3,1c-28.2,0.8-56.3,1.4-84.5,2.1c-3.5,0-6.9,0.2-10.4,0.6
		c-4,0.6-5.3,2.4-4.5,6.2c0.7,3.4,1.7,6.7,3.1,9.9c1.7,3.8,5.1,4.9,9.2,4.6c14-0.9,28.1-1.7,42.2-2.5c21.2-1.3,42.4-2.6,64.2-4
		l2.3,8.4c-2.9,1-5.2,1.9-7.6,2.7c-27.5,8.8-54.9,17.6-82.4,26.4c-1.3,0.4-2.7,0.8-3.9,1.3c-5.4,2.1-6.2,4.3-3.5,9.5
		c0.4,0.8,0.9,1.6,1.4,2.4c4.6,8,6.5,8.8,15,5.7l80.1-28.8c2.4-0.8,4.8-1.6,7.8-2.7l4.4,7.5c-2.4,1.7-4.4,3.2-6.5,4.6l-65.2,44.5
		c-1.6,1-3.1,2-4.5,3.2c-1,0.9-1.8,2.1-2.1,3.4c-0.6,5.7,4.3,8.3,7.5,11.7c2.6,2.7,5.9,2.1,8.8,0c6-4.3,12-8.7,17.9-13.1
		c16.2-11.8,32.4-23.7,48.6-35.6c1.8-1.3,3.8-2.6,6.2-4.3l6.4,5.8c-1.7,2.3-3.1,4.3-4.6,6.2c-16.2,20.8-32.4,41.5-48.5,62.3
		c-1.1,1.5-2.3,2.9-3.3,4.4c-1.9,2.8-2.1,5.7,0.1,8.3c2.2,2.7,4.6,5.1,7.2,7.4c2.2,2,4.8,1.7,6.8-0.4c1.6-1.7,3-3.5,4.2-5.5
		c15.8-21.9,31.7-43.8,47.5-65.7c1.3-1.9,2.8-3.7,4.6-6.1l7.5,4.2c-1,2.9-1.9,5.5-2.9,8l-33,85.2c-3.7,9.5,0.4,18.7,9.8,22.3
		c2.3,0.9,4.2,0.3,5.2-2c1-2.1,1.8-4.2,2.5-6.4c10.7-30.7,21.4-61.4,32.1-92.2c0.8-2.4,1.7-4.7,2.8-7.8l8.2,1.8
		c-0.8,7-1.5,13.8-2.4,20.6l-10.5,78.9c-1.2,8.7-2,17.4-3.6,26.1c-1.1,6.5,0.7,11.3,6,15c2.7,1.8,5.1,4,7.8,5.8
		c4.2,2.8,6.2,1.9,6.9-3.2c0.5-3.7,0.9-7.3,1.2-11c3.9-40.7,7.8-81.4,11.6-122c0.2-2.3,0.7-4.5,1.1-7.2h8.3
		c0.7,6.2,1.5,12.5,2.1,18.8c3.2,33.1,6.3,66.2,9.5,99.3c0.6,6.4,1.2,12.9,1.8,19.3c0.1,1.6,0.3,3.2,0.6,4.8c0.9,2.8,2.8,3.7,5.3,2
		c4.4-3,8.6-6.3,12.5-9.8c2.9-2.7,3.2-6.5,2.7-10.3c-2.5-18.3-5-36.6-7.4-54.9c-2.9-22-5.9-43.9-8.8-65.9c-0.1-2-0.1-4,0-6l7.4-2.3
		c1.1,2.8,2.1,5,2.9,7.3c10.7,30.7,21.4,61.4,32,92.2c0.5,1.8,1.2,3.5,1.9,5.2c2.2,5.2,4.4,5.8,8.8,2c9.9-8.7,11.6-9.2,6.2-22.8
		c-10.9-27.7-21.4-55.5-32.1-83.3c-0.9-2.3-1.8-4.7-2.7-7.2l6.8-4.3c1.6,2,3.2,3.9,4.7,5.9c16.2,22.2,32.3,44.4,48.5,66.6
		c1,1.5,2.2,3,3.4,4.4c2.2,2.4,4.8,2.6,7.4,0.6c1.4-1.2,2.7-2.5,4-3.8c5.9-6.1,6.1-8.1,0.9-14.8c-16.2-21-32.5-42-48.8-63
		c-1.7-2.2-3.3-4.4-5.6-7.6l7-4.8c1.7,1.3,3.9,2.8,6,4.5c20,16.1,39.9,32.2,59.9,48.3c1.4,1.2,2.9,2.4,4.4,3.4
		c3.4,2.2,6.5,1.9,9.4-0.9c2-1.9,3.8-4,5.5-6.2c2.2-3,1.9-5.4-0.8-8c-1.4-1.3-2.8-2.4-4.3-3.5l-63.5-48.2c-2-1.5-3.8-3.1-5.9-4.9
		c3.5-3.5,6.8-2.5,10-1.4c4.3,1.5,8.5,3.5,12.8,5.3c21.7,9.1,43.4,18.3,65.1,27.4c2.5,1.1,5.2,1.7,7.9,1.7c3.6-0.3,9.9-9.7,9.5-13.3
		c-0.3-3-2.7-4.1-5-5.1c-7.2-3-14.5-6-21.8-9c-9.4-3.9-18.8-7.7-28.1-11.6c-2.1-0.9-4.1-1.9-7.7-3.5c1.9-0.4,3.8-0.7,5.8-0.8h129.6
		c7.5,0.3,10.4,3.2,8.9,10.4c-2,10.2-4.5,20.3-7.5,30.2c-30.5,97.9-114.7,172-215.6,190C556.9,577.3,418,488.5,382,346.3
		C342.6,190.1,441.9,38.8,592.7,6.4c146.4-31.5,287.2,56.8,326.6,196.1c1.6,5.8,3.1,11.6,4.3,17.5s-1.5,9.3-7.4,10.2
		c-1.4,0.1-2.7,0.2-4.1,0.1H787.4c-1.8,0-3.6-0.2-5.4-0.3L781.6,228.6z"/>
	<path class="st1" d="M210.9,702.2c0.2,3.3,0.3,6.6,0.7,9.9c1.8,14.2,3.7,28.5,5.6,42.7c0.3,2.5,0.5,4.6-2.1,6
		c-3.3,1.7-5.5,1-7.1-2.3c-2.8-5.8-5.2-11.7-8.2-17.3c-13.7-25.4-35.3-37.7-63.9-38.8c-28.9-1.1-51.4,11.3-69.6,32.7
		c-13.4,15.8-21,34.3-24.8,54.6c-4.2,22.1-4.7,44.1,1.6,65.8c11.6,39.9,37.7,64.6,78.7,72.1c29.3,5.3,53.9-4.9,73.9-26.6
		c6.4-7.1,11.7-15,15.9-23.6c0.6-1.4,1.3-2.8,2.2-4.1c1.4-1.8,3.7-2.4,5.8-1.6c2.1,0.7,2.2,2.6,2,4.4c-0.9,8.5-1.9,17-2.9,25.5
		c-0.6,5-1.2,10-1.6,15.1c-0.5,6-0.8,6.9-6.8,8.4c-12,3-24.1,6.2-36.3,8.2c-17.9,2.8-35.9,4.1-54,3.7c-18-0.2-35.6-3.2-52.2-10.7
		c-34.1-15.5-55.3-42.2-64.3-78.2c-13-51.6,9.3-124.4,81-147.9c11.1-3.7,22.6-5.6,34.3-5.7c18.1-0.2,36.2,0.3,53.8,5
		c6,1.6,11.8,3.7,17.7,5.9c4.9,1.8,9.4,1.9,13.7-1.6C205.7,702.2,207.6,700.7,210.9,702.2z"/>
	<path class="st1" d="M402.9,932.2h-71.8c-1.5-6-0.7-7.2,4.5-7.5c3.1-0.2,6.2-0.1,9.3-0.5c5.4-0.8,7.3-2.9,8.1-8.3
		c0.3-2.3,0.4-4.7,0.4-7c0-19,0.2-38.1-0.1-57.1c0-7.8-0.6-15.5-1.8-23.2c-2.8-17-10.6-24.3-27.6-26.6c-11.3-1.5-22.7,0.4-32.9,5.4
		c-4.8,2.3-7.2,5.5-7.1,11.3c0.3,29.3,0.1,58.7,0.2,88c-0.1,2.9,0.1,5.8,0.5,8.7c0.8,5.5,3.7,8.2,9.2,8.8c2.7,0.3,5.4,0.2,8.2,0.3
		c1.3,0,2.7,0.2,4,0.4c2.4,0.5,2.8,2.4,2.6,4.5s-1.6,2.9-3.6,2.9c-5-0.1-10.1-0.3-15.2-0.3l-51.9,0.3c-1.2,0-2.3,0.1-3.5,0
		c-1.8,0-3-0.8-3.1-2.7s0-3.7,2.2-4.2c1.7-0.4,3.4-0.7,5.2-0.8c2.1-0.2,4.3,0,6.4-0.2c5.9-0.5,9.8-3.8,10.8-9.6
		c0.6-3.2,0.9-6.5,0.9-9.8c0.4-33.2,0.8-66.4,1.1-99.7c0.2-23.1,0.1-46.2,0-69.4c0-5.2-0.4-10.5-0.9-15.7c-0.9-9.3-4.6-13-13.9-14.4
		c-1.2-0.2-2.3-0.2-3.5-0.4c-2.4-0.3-3.9-1.4-3.8-4.2c0.1-2.6,1.4-3.8,3.8-4.3c4-0.7,8-1.6,11.9-2.7c8.5-2.7,16.9-5.8,25.3-8.7
		c2.3-0.8,4.7-1.7,7.8-2.9c0.4,1.8,0.6,3.6,0.7,5.4c-0.3,9.7-1.1,19.4-1.2,29.1c-0.2,26.6-0.1,53.2,0,79.9c0,1.7,0.2,3.4,0.3,6
		c2.6-1.5,4.5-2.6,6.4-3.8c10.2-6.5,20.8-12.2,32.9-14.3c8.4-1.6,17.1-1.5,25.5,0.4c12.7,3,21.3,10.7,26.1,22.8
		c3,7.7,3.9,15.8,3.9,24v77c0.1,10.3,2.9,13.5,13,15c2.1,0.3,4.3,0.3,6.4,0.4C404.6,924.9,405.3,926.2,402.9,932.2z"/>
	<path class="st1" d="M681.8,919.2c-2.9,2.1-4.6,3.3-6.3,4.4c-15.9,11-33.4,15.4-52.5,11.8c-19.9-3.8-34.9-14.7-42.8-33.2
		c-13.6-31.9-10.8-62.9,10.2-90.8c19.2-25.5,52.2-34.2,82.1-23.4c2.1,0.8,4.3,1.5,6.9,2.4c0.4-1.2,0.6-2.4,0.7-3.7
		c-0.2-21.2-0.4-42.3-0.6-63.5c0-1.2-0.1-2.3-0.3-3.5c-1.1-8.6-4.7-12.3-13.2-13.8c-1.5-0.3-3.1-0.3-4.6-0.6
		c-2.2-0.4-3.3-1.7-3.3-4.1s1-3.7,3.2-4.2c3-0.7,6.2-1,9.1-1.9c9.6-3.1,19.1-6.3,28.7-9.6c2.3-0.8,4.7-1.7,7.7-2.8
		c0.4,2,1,3.4,0.9,4.8c-0.5,15.5-1.6,31-1.6,46.6c-0.2,55.4-0.1,110.8-0.1,166.1c0,3.1,0.3,6.2,0.5,9.3c0.4,5.2,3.4,8.1,8.3,9.1
		c2.3,0.5,4.6,0.8,6.9,0.9c2.4,0.1,4.4,0.6,4.6,3.3s-0.9,4.5-3.7,5.1c-5.5,1.2-11,2.3-16.5,3.6c-6.4,1.5-12.8,3.1-19.3,4.5
		c-5,1.1-6.4-0.1-6.1-5.3C680.9,927.5,681.3,924.1,681.8,919.2z M680.1,858.4c0-12.6,0.2-25.2,0-37.8c-0.3-16.3-9.7-26.5-25.8-28.3
		c-2.3-0.3-4.6-0.5-7-0.6c-15.1-0.2-27.4,5.4-35.4,18.4c-3.2,5.3-5.8,11-7.6,16.9c-4.6,14.1-4.4,28.7-3,43.2
		c1,10.7,3.2,21.1,7.9,30.8c8.2,17.2,22.4,25.7,41.2,24.6c7.4-0.3,14.6-3,20.4-7.6c7.2-5.9,9.5-14,9.5-22.8
		C680.2,882.8,680.2,870.6,680.1,858.4L680.1,858.4z"/>
	<path class="st1" d="M1035.9,779.6v26.9c2.6-1.6,4.3-2.7,6.1-3.8c8.3-4.7,16.3-9.8,24.9-13.9c10.4-5.1,21.7-5.8,33-3.4
		c14.4,3.1,23.5,12.1,28.1,25.9c2.7,8.2,3.2,16.8,3.2,25.3c0.1,24.7,0,49.4,0,74.1c0,8.9,2.2,11.7,11.1,13.3
		c3.1,0.5,6.2,0.7,9.3,0.7c2.5,0.1,4.1,1,4.2,3.7s-1.1,3.9-4.3,4.2c-1,0-1.9,0-2.9,0c-20.6,0-41.2-0.1-61.8-0.1
		c-1.5,0-3-0.2-4.4-0.3c-1.1-6.1-0.4-7.1,4.8-7.4c3.1-0.2,6.2-0.1,9.3-0.5c5.3-0.8,7.4-3.1,8.2-8.4c0.2-1.7,0.3-3.5,0.2-5.2
		c0-20.6,0.2-41.2-0.1-61.8c-0.1-7.6-0.8-15.1-2.1-22.6c-2.6-14.1-10.4-21-24.4-23.8c-14.9-3-27.5,2.1-39.2,10.6
		c-2.4,1.7-3.8,4.5-3.6,7.5c0.1,29.3,0.1,58.7,0.1,88c0,2.3,0.1,4.7,0.5,7c1,5.8,3.8,8.4,9.8,8.9c2.7,0.3,5.4,0.1,8.2,0.3
		c1.4,0,2.7,0.2,4,0.6c1.6,0.4,2.6,2.1,2.2,3.7c0,0.2-0.1,0.3-0.2,0.5c-0.5,1.3-1.6,2.3-2.9,2.8c-2,0.4-4.2,0-6.4,0l-61.2,0.1h-7.3
		c-1.3-6.2-0.8-7,4.1-7.6c2.3-0.3,4.7-0.1,7-0.2c10-0.2,14.3-4.2,14.8-14c0.5-10.1,1-20.2,1.1-30.3c0.2-18.7,0-37.3,0-56v-2.3
		c-0.3-10.6-4.4-15.6-14.8-17.8c-1.3-0.3-2.7-0.4-4-0.6c-1.9-0.3-3.3-1.1-3.4-3.2s0.3-4.3,2.9-5c2.1-0.5,4.2-1,6.2-1.4
		c12.4-2.8,24.4-6.4,35.4-13C1033,780.4,1034.4,779.9,1035.9,779.6z"/>
	<path class="st1" d="M976.4,842.6h-96.3c-0.5,0.9-0.9,1.8-1.2,2.8c-3.6,22.8,1.4,43,19.2,58.7c14.7,12.9,31.9,15.2,50.3,10.3
		c7.9-2.1,14.2-7,19.4-13.3c1.6-1.9,3-4,4.5-6.1c3.4-4.6,4.2-4.7,8.6,0.1c-8,20.5-21.4,35.3-43.7,40.1c-16.8,3.5-33.3,1.2-48.9-6.1
		c-13.8-6.3-24.5-18-29.5-32.3c-9.1-25.2-8.9-50.4,2.6-74.8c9.1-19.4,23.7-33.2,45.2-38c14-3.2,28.6-1.6,41.5,4.8
		c16.8,8.2,25,22.7,28.2,40.4C977.1,833.4,978.2,837.6,976.4,842.6z M881.4,832.6c0.6,0.3,1.3,0.6,2,0.8c18.2,0.1,36.5,0.1,54.7,0.1
		c0.6,0,1.1-0.1,1.7-0.2c4.6-0.9,7.2-3.5,7.7-8.2c0.9-7.2-0.5-14.4-3.9-20.8c-2.2-4.1-5.6-7.5-9.7-9.7c-11.1-6.2-27-4.9-36.6,3.5
		C887,807,883.4,819.3,881.4,832.6L881.4,832.6z"/>
	<path class="st1" d="M544.4,683.9c0,5,0.1,9.8,0,14.6c-0.2,8.3-0.7,16.7-0.7,25c-0.1,60.3-0.1,120.6,0,180.8
		c0,3.9,0.3,7.8,0.9,11.6c1,5.7,3.6,8,9.4,8.5c2.9,0.3,5.8,0.1,8.7,0.3c5.4,0.3,6,1.2,4.7,7.4h-75.3c-1.3-5.9-0.7-6.8,4.7-7.3
		c1.7-0.1,3.5-0.2,5.2-0.1c9.4-0.2,13.6-4,14-13.3c0.5-14.8,1.2-29.5,1.2-44.3c0.2-44.7,0.1-89.4,0-134.1c0.1-4.6-0.2-9.3-0.8-13.9
		c-1.3-8.5-4.8-11.6-13.3-13c-1.5-0.2-3.1-0.3-4.6-0.6c-1.8-0.2-3.2-1.8-3.2-3.6c-0.1-2.1,0.7-3.8,2.9-4.5c0.4-0.1,0.7-0.2,1.1-0.2
		c13.9-2.4,27-7,39.9-12.5c1.1-0.4,2.2-0.8,3.3-1C543.1,683.6,543.8,683.6,544.4,683.9z"/>
	<path class="st1" d="M1196.1,896.7c5.6-2,6.8-1.8,9.5,2.4s4.9,8.8,7.6,13.1c6.3,10,15.4,15.5,27.3,16.5
		c18.4,1.6,32.8-11.4,32.7-29.7c0-6.2-2.2-11.6-6.9-15.4c-4.3-3.4-8.9-6.2-13.8-8.6c-6.3-3.1-13-5.2-19.3-8.1
		c-6-2.7-12.1-5.4-17.6-9c-14.7-9.5-18.6-22.1-15.3-38.4c3.8-18.8,16.7-29.2,34.6-33.8c10.9-2.8,22-1.5,33.1-0.8
		c4.8,0.3,9.6,1.1,14.4,1.8c4.5,0.7,5.9,1.9,6.6,6.1c1.4,9,2.5,18.1,3.8,27.1c0.2,1.8,0.5,4-1.7,4.3c-2,0.3-4.1-0.2-5.8-1.3
		c-1.4-1-2-3.2-2.8-5c-2.8-6.5-6.3-12.5-11.6-17.3c-9.7-8.8-21-10.8-33.1-6.8c-17.6,5.8-19.7,28.5-9.6,38.2c3.3,3.2,7.1,5.9,11.3,8
		c7.5,3.6,15.4,6.4,23.1,9.8c5.7,2.5,11.4,4.9,16.8,7.9c8.9,4.9,14.4,12.5,15.6,22.6c0.8,6.3,1.4,12.9,0.4,19.1
		c-3.1,20.3-17.7,33.2-39.3,36.3c-9,1.3-17.8,0.8-26.7,0c-7.3-0.7-14.7-1-22.1-1.5c-2.1-0.1-3.8-0.5-4.3-3
		c-2.3-10.4-4.6-20.8-6.9-31.3C1196,898.8,1196,897.7,1196.1,896.7z"/>
	<path class="st1" d="M787.4,779.4c0.3,1.9,0.4,3.9,0.4,5.8c-0.4,6.2-0.9,12.4-1.3,18.6c-0.2,2.3,0,4.6,0,8.3c1.5-1.2,3-2.5,4.4-3.8
		c6.3-6.9,13.6-12.8,21.5-17.8c7.8-4.8,16.2-7.4,25.5-6.1c11.2,1.6,18.2,11.4,15.5,21.8c-2.8,10.7-14.4,15.5-24.1,9.8
		c-2.8-1.8-5.4-3.9-7.7-6.2c-5-4.5-10.3-4.9-16.2-2.1c-5.9,3-11.2,7.1-15.5,12.1c-2.4,2.7-2.7,5.9-2.7,9.3v31.5
		c0,15.7-0.1,31.5,0,47.2c0.1,13.2,3.6,16.5,16.6,16.8c3.3,0.1,6.6,0.2,9.9,0.5c2.3,0.2,3.3,1.6,3.2,4s-1.6,3.4-3.8,3.4
		c-3.5,0-7-0.1-10.5-0.1h-61.8c-1.2,0-2.5,0.4-3.5,0c-1.3-0.5-2.4-1.4-3.2-2.6c-0.6-1.5,0.1-3.3,1.6-3.9c0.2-0.1,0.4-0.1,0.6-0.2
		c1.9-0.5,3.8-0.9,5.7-1c2.5-0.2,5.1-0.1,7.6-0.3c7.1-0.6,10-3.4,11-10.5c0.2-2.1,0.3-4.3,0.3-6.4v-83.4c0-1,0-1.9-0.1-2.9
		c-0.5-9.9-4.2-14.4-13.8-16.8c-1.7-0.4-3.4-0.6-5.2-0.9s-3.2-1.2-3.2-3.4s0.3-4,2.5-4.7c1.9-0.5,3.8-1,5.7-1.3
		c13-2.9,25.6-6.6,37-13.6C785,780.2,786.2,779.7,787.4,779.4z"/>
	<path class="st1" d="M484.7,932.1h-75.3c-1.1-5.8-0.6-6.7,4.4-7.3c2.3-0.3,4.7-0.1,7-0.2c10-0.3,14.3-4.2,14.7-14.1
		c0.6-12.8,1-25.6,1.2-38.4c0.2-15.5,0-31.1,0-46.6v-1.8c-0.2-13-4.3-17.8-17.2-19.9c-2.3-0.4-4.8-0.2-5.1-3.5
		c-0.2-3.1,0.7-4.4,4.1-5.3c5.1-1.3,10.3-2,15.2-3.8c8.2-2.9,16.2-6.5,24.2-9.8c1.7-0.7,3.4-1.4,5.9-2.5c0.1,2.6,0.3,4.3,0.3,5.9
		c-0.4,11.4-1.2,22.9-1.2,34.3c-0.2,28.9-0.1,57.9,0,86.8c-0.1,3.1,0.1,6.2,0.6,9.3c1,5.9,3.8,8.4,9.8,9c2.3,0.2,4.7,0.2,7,0.3
		C485.9,924.9,486.8,926.3,484.7,932.1z"/>
	<path class="st1" d="M93.4,1028.2H39.9c-0.2,1.4-0.4,2.9-0.4,4.3c0,10.1,0.1,20.2,0.2,30.3c0.1,6.3,1.6,7.8,7.9,8.4
		c1.9,0,3.9,0.2,5.8,0.4c0.8,0.2,1.3,1.5,2,2.3c-0.7,0.5-1.4,1.5-2.1,1.5c-14.3,0.1-28.7,0.1-42.9,0.1c-1.2-2.6-0.4-3.8,1.8-4.1
		c2.7-0.3,5.4-0.4,8.1-0.8c3.1-0.4,4.7-2.3,4.8-5.6c0.1-4.3,0.6-8.5,0.6-12.8c0-19-0.1-38.1-0.2-57.1c0-2.3-0.2-4.7-0.4-7
		c-0.5-4.7-2.2-6.4-7-7c-1.9-0.2-3.9-0.2-5.8-0.3c-2.3-0.2-3.1-1.3-2.1-4.1h39.9c1-0.1,1.9-0.1,2.9,0c0.9,0.5,1.8,1.1,2.5,1.8
		c-0.9,0.8-1.7,1.9-2.8,2.2c-1.9,0.2-3.9,0.4-5.8,0.4c-4.9,0.6-7.1,2.5-7.2,7.5c-0.2,11.2-0.1,22.5-0.1,33.7c4.1,1.4,43,2,54.1,0.7
		c0.3-2,0.5-3.9,0.5-5.9c-0.1-9.1-0.2-18.3-0.5-27.4c-0.2-6.3-2.1-8.2-8.4-8.7c-1.7-0.1-3.6,0.1-5.2-0.4c-0.9-0.2-1.5-1.6-2.9-3.2
		c2.7-0.3,4.1-0.6,5.6-0.6h36.1c1-0.1,1.9-0.1,2.9,0.1c0.8,0.4,1.5,0.9,2.1,1.6c-0.7,0.8-1.2,2.1-2,2.3c-1.7,0.3-3.5,0.4-5.2,0.3
		c-6.4,0.5-8.3,2.3-8.5,8.6c-0.2,5-0.2,10.1-0.2,15.2c0,19,0.1,38.1,0.2,57.1c0.1,7.4,1.4,8.7,8.8,9.2c1.5-0.1,3.1,0,4.6,0.3
		c0.9,0.3,1.5,1.6,2.5,2.6c-4.4,1.4-37.5,1.8-45.4,0.8c-1-2.5,0-3.5,2.5-3.7c2.7-0.2,5.4-0.5,8.1-0.9c2.5-0.2,4.3-2.3,4.2-4.8
		c0.2-11.8,0.4-23.7,0.5-35.5C93.9,1029.3,93.7,1028.7,93.4,1028.2z"/>
	<path class="st1" d="M729.4,1033.1c0,10.7-0.1,20.8,0.1,30.8c0.1,3.7,2.4,6.1,6.2,6.6c2.5,0.4,5,0.6,7.5,0.9c1.2,0,2.3,0.1,3.5,0.3
		c0.8,0.4,1.4,1.1,1.6,2c0,0.6-1,1.4-1.7,1.8c-0.8,0.2-1.5,0.2-2.3,0.1h-40.8c-0.8,0.1-1.5,0.1-2.3-0.1c-0.7-0.4-1.7-1.2-1.7-1.8
		c0.2-0.9,0.8-1.7,1.7-2c0.9-0.3,1.9-0.4,2.9-0.3c1.6,0,3.1-0.2,4.6-0.3c4.8-0.8,6-1.9,6.3-6.8c0.3-4.4,0.4-8.9,0.4-13.4
		c0-18.7,0-37.3-0.1-55.9c0-1.2-0.1-2.3-0.1-3.5c-0.2-7.1-1.5-10.5-9.8-10.4c-3.1,0-3.1-0.2-3.7-3.7c0.9-0.2,1.8-0.4,2.7-0.5
		c13.2,0,26.4-0.3,39.6,0.1c5.6,0.2,11.2,1.1,16.5,2.9c10.3,3.5,18.8,13.2,17.7,27.7c-0.9,12.1-8.3,21.4-20.3,24.8
		c-7.4,2.1-15,1.4-22.6,1.1C733.6,1033.5,731.8,1033.2,729.4,1033.1z M739.4,981c-9.2,0-10.3,1.1-10.3,10.4v26.8
		c0,11.3,1.7,12.7,13,11.2c13.9-1.9,22.2-12.3,21.1-26.6C762.2,989.7,752.9,980.3,739.4,981L739.4,981z"/>
	<path class="st1" d="M1171.6,1080.3c-8.9-6.5-9.3-14.2-1.6-21.5c1.2-1.2,2.5-2.3,4.1-3.8c-5.9-4.5-9.4-10-9.7-17.3
		c-0.2-5.4,0.8-10.4,4-14.8c8.1-11.1,20.6-12.9,37.5-5.3c4.5-2.6,9.4-4.2,14.8-3.3c3.1,0.5,5.5,1.9,6.5,5c1,2.2,0.2,4.8-1.8,6.2
		c-2.3,1.7-4.4,1.2-6.2-0.8c-1.2-1.3-2.3-2.7-3.5-3.9c-2.6-2.6-2.8-2.6-6.9,0c0.9,1.9,1.8,3.8,2.6,5.8c5.7,14.6-3,29.1-18.6,30.6
		c-3.9,0.2-7.7,0.1-11.6-0.3c-4-0.2-6.6,1.4-7.8,5.2c-1.3,4.3,0.3,6.9,4.9,7.1c6.6,0.2,13.2,0,19.8,0.2c2.9,0,5.8,0.3,8.7,0.8
		c7.5,1.6,11.5,6.1,11.9,13.7c0.5,8.8-2.5,16.2-10,21c-11.2,7.3-23.8,9.2-36.8,7.3c-9.1-1.4-13-8-10-17.8c1-3.2,3.3-6.1,5.3-8.9
		C1168.5,1083.6,1170,1081.9,1171.6,1080.3z M1190.1,1080.2L1190.1,1080.2c-3.1,0-6.2-0.1-9.3,0c-1.4-0.1-2.7,0.1-4,0.6
		c-4,1.7-8.3,8.9-8,13.4c0.3,5.5,3.7,8.9,8.6,10.6c8.4,2.7,17.4,2.5,25.6-0.5c0.9-0.3,1.8-0.8,2.6-1.3c4.8-3.1,7-9.2,5.5-15.4
		c-1.1-4.6-4.7-7-11.2-7.2C1196.7,1080.1,1193.4,1080.2,1190.1,1080.2L1190.1,1080.2z M1176.1,1036c0.7,3.7,1,7.4,2.2,10.8
		c1.6,4.7,5.4,7,10.4,7s8.1-2.6,9.8-6.9c2.9-7,3.4-14.9,1.2-22.2c-1.6-5.5-5-8.2-9.9-8.4c-5.1-0.3-9.7,2.9-11.1,7.8
		C1177.4,1027.8,1177,1031.9,1176.1,1036L1176.1,1036z"/>
	<path class="st1" d="M1248.3,971.4v49.1c2.6-1.4,4.4-2.3,6.2-3.3c4.7-2.8,10.1-4.2,15.6-4.2c10.3,0.2,16.8,5.9,17.7,16.3
		c0.4,4.6,0.2,9.3,0.2,14v20.4c0,6.4,0.5,6.9,6.7,7.9c0.9,0.2,1.9,0.4,2.8,0.7c0.3,0.1,0.5,0.6,1,1.2c-0.8,0.6-1.5,1.8-2.3,1.8
		c-9.5,0.1-18.9,0.1-28.3,0.1c-1.1-3.2,0.7-3.4,2.5-3.8c6.3-1.1,6.3-1.1,6.3-7.2v-25.1c0-1,0-1.9-0.1-2.9
		c-0.6-14.2-13.2-20.7-25.7-13.3c-1.8,0.9-2.9,2.7-2.8,4.7c0,12.6-0.1,25.3,0.1,37.9c0.1,4.5,1.1,5.2,5.5,5.9c1.6,0.2,3.1,0.7,4.7,1
		l0.1,1.2c-0.8,0.5-1.7,1.5-2.6,1.5c-9.5,0.1-19,0-28.6,0c-0.3,0-0.6-0.4-1.1-0.7c-0.6-2.5,1.4-2.7,3-2.9c6.3-1.1,6.6-1.3,7-7.6
		c0.4-5.4,0.4-10.9,0.5-16.3c0.1-18.3,0.1-36.5,0-54.8c0-1.9,0-3.9-0.2-5.8c-0.4-3.3-1.7-5.9-5.6-6.4c-1.2-0.4-2.4-0.9-3.5-1.6
		C1229.6,976.9,1241.4,972.6,1248.3,971.4z"/>
	<path class="st1" d="M1199.6,731.2c-0.7,22.1-11.9,41.4-32.8,55.3c-2.6,1.7-5.4,3-8.4,3.9c-1.2,0.3-3.4-0.7-4.3-1.8
		c-0.6-0.7,0-3.1,0.9-4c3.6-3.5,7.7-6.6,11.3-10.1c10.1-9.7,15.8-21.4,15.9-35.6c0-1,0-1.9-0.2-2.9c-0.7-5-2.5-6.1-7.5-5.1
		c-2.5,0.5-5,0.7-7.5,0.6c-3.5-0.2-6.8-2-9-4.8c-4.7-5.7-5.7-16-2.1-22.6c3.9-7,11.5-11,19.5-10.3c9.5,1,16.3,5.8,20.4,14.4
		C1198.9,714.5,1199.7,721.2,1199.6,731.2z"/>
	<path class="st1" d="M270.8,1075.8c0,9.2-0.2,18,0.1,26.7c0.1,3.4,1.6,4.6,5.2,5.1c1,0.1,1.9,0.1,2.9,0.2s1.9,0.2,2.7,0.3
		c1,2,0.5,3.2-1.6,3.5h-1.7c-8,0-15.9,0.1-23.8,0c-1.9,0-4.4,0.6-4.7-3c1.1-0.3,2.3-0.6,3.4-0.8c5.6-0.7,6-1.2,6.2-6.9v-67.6
		c0-1.4,0-2.7-0.1-4.1c-0.3-5.5-1-6.4-6.5-8.1c-0.9-0.3-1.7-0.7-2.5-1.2c0.3-0.9,0.4-1.7,0.7-1.8c6.4-2.2,12.8-4.2,19.7-6.5v8.9
		c1.4-0.5,2.8-1.1,4.1-1.8c14.4-10.8,35.2-5.8,40.7,16.7c1.7,7,1.6,14.3-0.2,21.3c-3.2,12.1-11.6,19.4-24,20.2
		c-5.7,0.3-11.6-0.6-17.3-0.9C273,1075.8,271.9,1075.7,270.8,1075.8z M270.7,1046.5c0,4.8-0.1,9.7,0,14.6c0.1,5.9,2.8,9.4,8.2,11.3
		c11.5,3.9,20.4-1.1,23.4-13c2-8.1,1.4-16.2-0.6-24.2c-1.1-4.6-2.9-8.9-6.4-12.2c-4.7-4.4-10.2-5.5-16.1-3
		c-5.7,2.4-8.9,6.5-8.5,13.1C271,1037.6,270.7,1042.1,270.7,1046.5L270.7,1046.5z"/>
	<path class="st1" d="M971,1075.1c-0.1-1.3-0.2-2.6-0.2-3.9v-81.6c-0.3-6.1-0.9-7-6.8-9c-0.5-0.2-1-0.5-1.5-0.8
		c-0.3-0.2-0.4-0.6-0.6-0.9c1.9-2.1,10.9-5.5,20.3-7.6v45.6c1-0.1,2-0.4,3-0.8c17.6-9.6,37.2-1.1,41.8,18.4
		c1.6,6.6,1.5,13.6-0.2,20.2c-4.2,16.5-19.9,25.7-36.4,21.4c-2.3-0.6-4.5-1.3-6.6-2.3c-4.3-2-8.4-3.1-11.9,1.9L971,1075.1z
		 M1015.3,1048.1c-0.6-5.7-0.6-9.8-1.6-13.8c-1-4.1-2.6-8.1-4.8-11.7c-3.7-5.7-10.7-7.5-17.6-5.4c-6.2,1.9-9.1,6.1-9.2,13.8
		c-0.1,8.3-0.1,16.7,0,25c0,2.1,0.3,4.2,0.8,6.3c1.9,7.8,7.3,11.8,15.3,11.2c6.6-0.5,11.6-3.7,13.6-10
		C1013.7,1058,1014.4,1052.2,1015.3,1048.1L1015.3,1048.1z"/>
	<path class="st1" d="M1068.9,1015.6h24.4c0.1,1.6,0.3,2.9,0.3,4.1c-0.3,14.8-0.7,29.5-0.8,44.3c-0.1,4.4,0.8,5,5.1,5h3.8
		c1.4,2.8-0.3,3.5-2.1,3.9c-5.9,1.2-11.7,2.4-18.1,3.6l-1.8-5.5c-2,0.9-3.9,1.8-5.7,2.7c-5.3,2.6-11.1,3.8-17,3.2
		c-6.3-0.6-10.5-3.9-12.4-9.8c-0.9-2.9-1.4-6-1.5-9.1c-0.2-8.2-0.1-16.3-0.2-24.5c0-1.9,0-3.9-0.2-5.8c-0.7-6.6-1.3-7.3-8-8.2
		c-2.3-0.3-3.8-0.9-2.7-3.9h21.8c0.1,2.2,0.3,4.3,0.3,6.4v34.4c0.3,5.4,1.1,10.8,6.9,13c6,2.3,11.9,1.4,17.3-2.1
		c2.4-1.5,3-3.9,3-6.6c0-10.9,0.1-21.8-0.1-32.7c-0.1-6.6-1.2-9.1-8.5-8.7C1070.8,1019.6,1068.4,1019.6,1068.9,1015.6z"/>
	<path class="st1" d="M574.6,1077.1c-15.5,0.6-32.2-9.5-32.5-32c-0.3-18.3,13.9-32,32.2-32c18.6,0,32.1,13.3,32.3,31.8
		C606.6,1064.3,594.1,1077,574.6,1077.1z M593.9,1046c-0.5-6.2-1.2-12.2-3.6-17.8c-3-7-8-11.4-16-11.4s-13.1,4.3-15.9,11.4
		c-4.2,10.8-4.4,22.7-0.4,33.6c2.7,7.8,8.7,11.8,16.2,11.8s13.6-4,16.2-11.8C592.2,1056.7,592.8,1051.3,593.9,1046L593.9,1046z"/>
	<path class="st1" d="M157.7,1077.1c-18.7,0-32-13.2-32.2-31.8c-0.1-18.4,14-32.4,32.6-32.2s31.9,13.7,31.9,32.2
		C190,1064.5,177.2,1077.2,157.7,1077.1z M177.3,1045.5c-0.5-6.8-1.5-13.3-4.6-19.3c-2.4-4.7-6-8-11.4-9.1
		c-8.5-1.7-15.6,1.9-19.2,10.4c-4.7,11.2-4.6,22.7-0.7,34.1c2.7,7.8,8.6,11.8,16.2,11.9c7.8,0,13.9-4.1,16.5-12.2
		C175.8,1056.2,176.3,1050.8,177.3,1045.5z"/>
	<path class="st1" d="M638,1016.4h16.8c0.6,5.2,0.2,5.9-3.9,6s-8.5,0-13.3,0c-0.3,1.7-0.4,3.3-0.5,5v36.1c0,6.8,0.9,7.6,7.6,8.2
		c1.2,0.1,2.3,0.3,3.4,0.5c0.5,0.1,0.9,0.7,1.8,1.3c-1,0.7-1.8,1.8-2.6,1.8c-9.9,0.1-19.8,0-29.7-0.1c-0.3,0-0.6-0.4-1.1-0.7
		c-0.4-2.4,1.2-2.6,3.1-2.9c5.7-0.9,6.2-1.3,6.2-6.9c0.1-12.4,0.1-24.9,0-37.3c0-5.1-0.5-5.3-5.9-5.5c-1.8-0.1-3.7-0.2-5.5-0.4
		c-0.2-3.1,1.7-3.3,3.3-3.8c7.4-2.3,7.1-2.3,8.1-10c0.6-5.8,1.7-11.5,3.5-17c4.4-12.6,17.1-20.1,30.4-18.7c3.8,0.4,6.1,2,6.7,4.6
		c1.1,4.8-2.4,8.8-7.3,7.7c-2.7-0.6-5.3-2.3-7.7-3.8c-5.6-3.5-9.5-2.4-12,3.6c-0.3,0.7-0.6,1.4-0.8,2.2
		C636.8,991.9,636.4,1009,638,1016.4z"/>
	<path class="st1" d="M444.7,1041.5c0-4.1,0.1-8,0-11.8c-0.2-4.9-3.6-8.8-8.7-10.5c-4.7-1.6-7.7,1.3-11,3.8c-2.2,1.8-1,3.8-0.5,5.8
		c1.1,4.8-0.5,7.6-4.8,8.2c-2.3,0.6-4.8-0.3-6.2-2.3c-1.5-2.1-1.7-4.8,0-6.5c6.8-7.4,14.7-13.9,24.7-15.4c8.7-1,16.7,5.3,17.7,14
		c0.1,0.8,0.1,1.6,0.1,2.4c-0.2,11.5-0.1,22.9,0,34.4c0,2.1,0.2,4.2,0.4,7.2l8.5-2.8c-0.5,3.7-5.1,7.6-10,8.9
		c-4.7,1.2-6.3,0.2-11-6.6c-1.9,1.2-3.9,2.4-5.8,3.7c-3.9,2.6-8.6,3.7-13.3,3.2c-4.9-0.4-8.5-2.6-10.3-7.3c-2-5-1.4-9.8,2.6-13.4
		c3-2.7,6.4-5,10-6.9C432.6,1046.6,438.4,1044.3,444.7,1041.5z M444.7,1046.1c-6.6,2-11.7,4.3-15.9,8c-3.6,3.1-4.2,10.6-1.6,14.4
		c2.4,3.5,6.3,3.7,12,0.7c1.4-0.7,2.7-1.6,3.8-2.7c0.9-1,1.5-2.2,1.7-3.5C444.8,1057.7,444.7,1052.4,444.7,1046.1z"/>
	<path class="st1" d="M502.8,1074.9c-7.2,1.2-28.6,0.8-32-0.5c0.2-2.4,2-2.3,3.7-2.6c5.8-0.9,6.4-1.4,6.6-7.4
		c0.3-10.7,0.5-21.3,0.5-32c0.1-12.6,0-25.2,0-37.9c0-2.5-0.3-5-0.4-7.6c-0.2-3.3-1.7-5.4-5.1-6.1c-1.4-0.5-2.7-1.1-4-1.9
		c0.9-1.1,1.1-1.8,1.6-1.9c6.2-2,12.5-3.9,19.3-5.9c0.1,1.5,0.3,2.7,0.3,4l-0.3,88.5c0,0.8,0,1.5,0.1,2.3c0.3,4.6,0.8,5.1,5.5,5.8
		C500.4,1072,502.7,1071.5,502.8,1074.9z"/>
	<path class="st1" d="M955.7,1029.7c-3.2,0.9-3.8-0.8-4.7-2.3c-1-2.1-2.3-4.1-3.7-5.9c-3.4-4-7.9-5.4-13.1-4.3
		c-3.8,0.6-6.8,3.4-7.6,7.1c-1.1,3.6,0.1,7.6,3.2,9.9c1.9,1.4,3.9,2.5,6,3.4c3.9,1.8,7.9,3.3,11.8,4.9c7,3,9.8,8.6,9.6,15.8
		c-0.2,7-2.9,12.9-9.5,16.2c-2.3,1.1-4.7,1.9-7.2,2.2c-7.4,0.8-14.7,0.1-22.4-1.1l-3.3-14.9c2.7-1.6,3.9-0.6,4.9,1.1
		c1.2,2.2,2.5,4.4,4,6.4c4,5.1,10.9,6.8,16.8,4.2c4.4-2,6.3-5.7,6.8-10.1c0.4-4.1-1.7-7.1-5.2-9c-2.5-1.4-5.2-2.5-7.9-3.7
		c-3.3-1.3-6.4-2.7-9.5-4.4c-9.9-5.8-11.3-18-3-26.2c3.2-3.1,7-5.3,11.3-5.5c6-0.1,12,0.1,18,0.7c1.1,0.1,2.9,1.2,3,2.1
		C954.7,1020.8,955.1,1025.3,955.7,1029.7z"/>
	<path class="st1" d="M238.2,1030.6c-1.1-0.8-2.1-1.7-3-2.7c-1.3-1.9-2.2-4.2-3.6-5.9c-3.1-4.2-8.4-6.1-13.5-4.8
		c-3.8,0.6-6.8,3.4-7.6,7.1c-1.1,3.6,0.1,7.6,3.2,9.9c1.8,1.4,3.8,2.6,6,3.4c3.9,1.8,7.9,3.3,11.8,4.9c6.2,2.6,9.3,7.5,9.6,14.1
		c0.3,7-1.8,13.2-8,17c-2.7,1.6-5.6,2.7-8.7,3.1c-7.3,1-14.7,0-22.3-0.9l-3.4-15.1c3.1-1.7,4.2,0,5.2,1.6c1.6,2.4,2.9,5.1,4.9,7.2
		c7,7.2,19,4.7,21.8-4.4c1.5-4.8,0.5-8.4-3.7-11.2c-2.8-1.7-5.8-3.1-8.8-4.4c-3.2-1.5-6.5-2.6-9.5-4.4c-9.4-5.4-11.1-16.6-4.1-24.9
		c3.1-3.9,7.6-6.3,12.5-6.7c6-0.1,12,0.1,18,0.8c1.4,0.4,2.5,1.4,3,2.8c0.9,4.1,1.3,8.3,1.9,12.5L238.2,1030.6z"/>
	<path class="st1" d="M1131.2,1011.6l-0.6,12.2c2.2-1.7,3.4-2.9,4.8-3.8c3.3-2.3,6.8-4.4,10.3-6.3c2.9-1.3,6.2-1.2,9,0.4
		c3.5,2,4.9,6.4,3.1,10c-1.8,3.3-5.9,4.4-9.6,2.5c-0.7-0.3-1.3-0.8-1.8-1.3c-2.4-2.4-5.1-3.7-8.4-1.8c-3.6,2.1-7.1,4.2-7.2,9.1
		c0,3.9-0.1,7.8-0.1,11.7c0,6.8-0.1,13.6,0.1,20.4c0.2,5.7,1.2,6.6,7,7c2,0.2,4.3-0.3,5.5,2.6c-0.5,0.3-1,0.9-1.4,0.9
		c-10.5,0.1-21,0.2-31.4,0.2c-0.6,0-1.3-0.6-1.9-0.9c0.7-2.9,2.8-2.5,4.7-2.8c5.6-0.7,6.1-1.2,6.1-6.9c0.1-11.5,0.1-22.9,0-34.4
		c0-6-0.5-6.4-6.4-8.7c-0.9-0.5-1.8-1.2-2.5-2c0.8-0.7,1.4-1.8,2.3-2.1C1118.6,1015.7,1124.4,1013.8,1131.2,1011.6z"/>
	<path class="st1" d="M874.3,1022.4l-9.1-0.8c1.6-5.2,6.5-6.8,9.3-10.2c3-3.5,6.2-6.7,9.6-10.3c4.2,4.8-0.5,10.1,3,15.2h9.1
		c3.2,0,6.2-0.1,9.3,0.2c1,0.1,2.7,1.6,2.6,2.2c-0.3,1.4-1.1,2.6-2.3,3.4c-1.3,0.6-3,0.2-4.6,0.2h-14.5c-0.3,0.6-0.8,1.1-0.8,1.6
		c0,11.8,0.1,23.7,0.2,35.5c0.1,10.1,6.8,12.9,16.8,10.2c1.7-0.5,3.2-2.5,5.8-0.6c-0.6,1-1,2.4-1.9,3c-7.4,5.5-15.6,6.5-24.3,3.6
		c-3.7-1.2-6-4.3-7-8c-0.7-2.8-1.1-5.7-1.1-8.6c-0.1-9.9,0-19.8,0-29.7C874.3,1027.2,874.3,1025.1,874.3,1022.4z"/>
	<path class="st1" d="M383.7,1022.3c-0.4,0.8-0.6,1.6-0.7,2.5c0.1,11.6,0.2,23.3,0.4,34.9c0.2,11.2,8.5,12.1,16.4,10.1
		c1.9-0.5,3.5-2.7,5.8-1c0.4,2.6-1.6,3.5-3.1,4.5c-6.4,4.1-13.5,4.7-20.7,3.2c-4.5-1-8-4.5-9-9c-0.7-2.8-1.1-5.7-1.1-8.6
		c-0.1-9.9,0-19.8,0-29.7v-6.6l-8.8-1.1c0.4-1.3,0.4-2.4,1-2.9c5.9-5.7,11.9-11.4,18.1-17.2c3.3,4.8-0.5,9.7,2.1,14.6
		c2,0.1,4.5,0.3,6.9,0.4c3.9,0.1,7.8,0,11.6,0.1c1.8,0,3.3,0.8,2.9,2.7c-0.4,1.4-1.4,2.5-2.7,3.1c-1.3,0.6-3,0.2-4.6,0.2
		L383.7,1022.3z"/>
	<path class="st1" d="M861.6,1016.6c0.6,5,0.2,5.7-3.4,5.8s-7.4-0.2-11.1-0.3c-2.1-0.1-4.2,0-6.7,0c-0.3,1.6-0.5,3.3-0.6,4.9
		c0,9.1-0.1,18.3,0,27.4c0,2.7,0.3,5.4,0.8,8.1c1.1,5.8,3.7,8.1,9.6,8.1c2.7-0.2,5.3-0.6,7.9-1.4c1.7-0.4,3.3-0.9,4.9-1.5
		c-0.9,2.1-1,3.4-1.8,4.2c-5.3,5.2-18.7,7.1-25.3,3.6c-5.6-3-7.4-8.3-7.4-14.2c-0.1-10.7,0-21.4-0.1-32v-6.6l-9.3-1.1
		c2-5,6.5-7,9.5-10.1s5.3-7.7,10.1-9.7c2.7,4.5-0.4,9.4,1.8,14.3L861.6,1016.6z"/>
	<path class="st1" d="M449.8,698.4c9.1,0.2,16.7,8.3,16.6,17.5c-0.1,9.4-7.7,16.9-17.1,16.9c-9.2-0.2-16.6-7.8-16.4-17
		c0-0.1,0-0.3,0-0.4C433.1,705.8,440.6,698.2,449.8,698.4z"/>
	<path class="st1" d="M814.5,1075.3c-11,0-21.2,0-31.5-0.1c-0.3,0-0.7-0.8-1.1-1.2c0.8-2.2,2.6-2.1,4.3-2.3c5.6-0.7,6.6-1.5,7-7.2
		c0.4-6.2,0.3-12.4,0.4-18.6c0.1-5.1,0.1-10.1,0-15.2c-0.1-6.1-0.9-7-6.9-9c-1-0.5-2-1-2.9-1.6c2.7-4,7.1-3,10.4-4.6s7-2.8,10.7-4.2
		v15c0,12.2,0,24.5-0.1,36.7c0,1.2,0,2.3,0.1,3.5c0.5,3.8,1.2,4.5,5,5.2C812.8,1072.2,812.8,1072.2,814.5,1075.3z"/>
	<path class="st1" d="M324.1,1074.4c0.8-2.7,2.7-2.5,4.4-2.7c5.6-0.7,6.6-1.4,6.7-6.7c0.3-11.3,0.5-22.5,0.6-33.8
		c0-4.8-1.1-8.9-7-9.6c-0.9-0.3-1.6-0.9-1.9-1.8c0-0.7,0.3-1.4,0.9-1.8c6.4-2.1,12.8-4.1,19.4-6.3v13.6c-0.1,12.2-0.2,24.5-0.3,36.7
		c0,1.4,0.1,2.7,0.3,4.1c0.6,4.7,0.7,4.8,5.7,5.6c1.5,0.4,3.1,0.9,4.5,1.4c-1.5,1.1-2.3,2.2-3.1,2.3c-9.5,0.1-19,0.1-28.6,0
		C325.3,1075.4,324.9,1074.9,324.1,1074.4z"/>
	<path class="st1" d="M798.9,991.8c-3.9-0.1-6.9-3.3-6.8-7.2c0,0,0,0,0,0l0,0c-0.1-4,3.1-7.3,7.1-7.4h0.2c4,0.2,7,3.6,6.8,7.6v0.2
		c-0.1,3.8-3.3,6.8-7.1,6.7C799,991.8,799,991.8,798.9,991.8z"/>
	<path class="st1" d="M341.5,991.8c-4,0.1-7.3-3-7.4-6.9c0,0,0,0,0-0.1v-0.1c-0.1-4,3-7.3,6.9-7.5c4-0.1,7.3,3,7.5,7
		C348.7,988.2,345.5,991.6,341.5,991.8z"/>
</g>
</svg>
