<?xml version="1.0" encoding="utf-8"?>
<!-- Generator: Adobe Illustrator 21.1.0, SVG Export Plug-In . SVG Version: 6.00 Build 0)  -->
<svg version="1.1" id="Layer_1" xmlns="http://www.w3.org/2000/svg" xmlns:xlink="http://www.w3.org/1999/xlink" x="0px" y="0px"
	 viewBox="0 0 900 900" style="enable-background:new 0 0 900 900;" xml:space="preserve">
<style type="text/css">
	.st0{fill:none;}
	.st1{fill:#808080;}
</style>
<title>hssv</title>
<g id="WposXp.tif">
	<path class="st0" d="M0,0h900v900H0C0,600,0,300,0,0z"/>
</g>
<g id="WposXp.tif-2">
	<path class="st1" d="M465.2,162.3c-6.2,4.1-11.8,7.6-17.1,11.4c-21.6,15.5-40.7,33.9-58.4,53.7c-15.5,17.4-32.5,33-51.9,45.9
		c-15.5,10.3-33,13.9-51.5,12.1c-8-0.8-16-2.2-24.9-3.4c1.9-5.2,3.3-9.4,4.9-13.5c5.6-14.4,10.9-29,17-43.2
		c3.5-8.3,8.2-15.5,17.7-19c10.3-3.8,14.6-12.5,15.2-23.2c0.2-3.3,0-6.7-0.1-10c-0.2-9.4-7.7-14.5-16.5-11
		c-5.2,2.1-10.3,4.7-15.3,7.3c-9.5,4.8-18.9,9.6-29.6,11.7c-4.3,0.8-8.2,3.4-12.9,5.3c-4.2-5.5-10.4-9.1-17.2-10.1
		c-11.8-1.8-26.5,3.8-28.3,17.4c-0.6,4.4,0.2,9.3,1.5,13.7c1.4,5,5.7,5.7,9.8,2.3c4.3-3.7,7.7-8.4,9.8-13.6c1.2-2.7,1.6-7.2,5.4-6.8
		c4,0.4,3.1,5.2,4.3,8.1s-0.6,4.4-2.3,6c-11,10.1-22.1,20.2-33.1,30.4c-3.8,3.5-7.7,6.9-11.2,10.7c-5.2,5.5-4.8,12.2,0.8,17
		c2.5,2.2,5.3,4,8.2,5.6c8.7,4.6,17.5,9,26.2,13.5c2.3,1.2,4.9,2.6,6.4,4.7c1.2,1.7,2,4.9,1.3,6.7c-0.6,1.5-3.6,2.4-5.7,2.8
		c-1.5,0.3-3.3-0.5-4.8-1.1c-9.8-4.3-19.5-8.7-29.2-13c-1.5-0.7-3-1.8-4.6-1.9c-1.7-0.1-3.5,0.8-5.3,1.2c0.6,1.7,0.8,4.3,2,5
		c5.6,3.3,11.4,6.2,17.3,8.9c7.9,3.6,15.9,6.9,23.8,10.4c1.4,0.6,3,1.2,3.8,2.3c1.1,1.7,2.2,3.9,1.9,5.7c-0.3,1.4-2.5,3-4.2,3.4
		c-2.1,0.5-4.3,0.3-6.3-0.5c-11.9-4.7-23.8-9.6-35.6-14.5c-2.6-1.1-5.1-2.5-7.7-3.6c-2.4-1-5.5-2.8-7.1,0.3
		c-1.8,3.3,1.4,5.1,3.9,6.5c6,3.2,12.2,6.2,18.3,9.1c4.5,2.2,9.1,4,13.6,6.2c2.6,1.3,5.1,3.1,4.1,6.5s-4,3.6-7,3.4
		c-1.3-0.1-2.6-0.4-3.9-0.8c-12.3-4.5-24.7-9.1-37-13.7c-0.9-0.3-2-1.1-2.8-0.9c-1.5,0.4-3.2,1.2-3.9,2.4c-0.4,0.7,0.5,3,1.5,3.6
		c2.8,1.7,5.8,3.2,8.9,4.4c4.6,1.9,9.4,3.4,14,5.2c2.5,0.9,5,2.6,3.8,5.4c-0.7,1.6-3.7,3.5-5.3,3.2c-7.2-1.2-14.3-3-21.2-5.3
		c-12.9-4.5-25.5-9.9-35.6-20.7l-21.3,22.9l-1.4-0.6c-0.3-1.7-0.5-3.4-0.6-5.1c0-82.2,0-164.3,0-246.5c0-6.6,0.2-6.9,6.6-6.9
		c74.3,0,148.7,0,223,0c5.3,0,5.7,0.2,5.4,5.2c-0.6,10.2,2.5,19.7,4.8,29.4c2.8,11.8,5.5,23.6,8,35.5c0.5,2.3,1.3,3.8,3.8,3.7
		c7.5-0.1,12.2,3.7,16.2,9.7c8.8,13.3,22.5,15,35.3,5.2c7.5-5.8,15-11.6,23.1-16.6c4.4-2.7,9.8-4.3,14.9-5.3
		c3.8-0.6,7.6-0.3,11.2,0.9C452.2,146.8,458.7,154.2,465.2,162.3z"/>
	<path class="st1" d="M599.1,280c-1.9-6.8-3-13-5.4-18.7c-4.5-10.8-14-16-24.5-18.8c-12.1-3.1-23.8-7.6-34.8-13.4
		c-3.3-1.8-4.9-0.4-6.3,2.3c-2.8,5.1-1.1,12.4,4,15.4c3.6,2,7.5,3.6,11.5,4.7c5.1,1.6,8.2,4.9,8.9,10.2c0.7,4.8-1.6,9.5-5.7,12
		c-1.8,1.2-4.8,1.1-7.2,1c-10.5-0.4-21-0.9-31.4-1.7c-3.8-0.3-5.8,1.2-6.4,4.5c-0.8,3.7-1.3,7.5-1.3,11.3c0.1,5.2-2.1,8.9-6.6,10.6
		c-2.7,1-6.8,1.5-8.8,0.1s-3.1-5.5-2.9-8.3c0.2-4.2,1.8-8.4,2.8-12.6c0.5-1.9,1-3.8,1.7-6.5c-7.2,0-14-0.1-20.7,0.1
		c-1.1,0-2.7,1.7-3,2.9c-1.2,4.6-2,9.3-2.5,14.1c-0.5,5.4-3.2,9.6-8.2,11.3c-5.6,1.8-9.7-0.8-10.2-6.6c-0.2-1.2-0.2-2.3,0.1-3.5
		c2.7-8.4,5-16.9,8.4-25c2.7-6.5,8.6-9,15.4-9.1c4.6,0,9.3,0,14.4,0c-0.6-7.4,1.3-14.1,4.7-20.6c1.7-3.3-0.9-7.6-4.8-8.3
		c-3.8-0.5-7.6-0.8-11.4-0.9c-12.6-0.7-21.1-7.2-26.2-18.5c-2-4.5-0.8-7.4,3.5-10c3.3-2,6.4-4.2,9.3-6.6c6.8-5.7,14.5-6.6,22.5-4.2
		c4.4,1.3,7.4,1,10.5-2.4c1.9-2,4.9-3,7.4-4.5c1,2.8,2.9,5.6,3,8.5c0.4,8.6,5.2,13.9,12.3,17.4c12.7,6.2,26,9.1,40.2,7.4
		c19.8-2.3,39.7-4.7,59.5-6.8c11.3-1.2,22.7-2.1,33.7,1.8c16.2,5.7,26.9,16.7,31.3,33.5c0.5,1.7,1,3.5,1.5,5.2
		c6.7-2,10.4-8.2,8.5-14.8c-1.5-5.2-4.2-10.1-6.1-15.2c-3.2-8.2-6.8-16.3-9.1-24.7c-3.5-13.5-0.4-25.4,11.5-34.9l-216.9-80l0.2-1.3
		c0.8-0.3,1.7-0.5,2.5-0.6c115.5,0,231,0,346.4,0.1c10.7,0,10.2-1.2,10.2,10.3c0,79.3,0,158.7,0,238c0,12.1,1.3,10.8-10.6,10.8
		c-35.3,0-70.7,0-106,0c-1.4,0-2.8-0.2-4.2-0.3l-0.2-1.2c1.6-0.6,3.2-1.4,4.8-1.9c20.9-7,41.2-15.3,59.2-28.4
		c10.8-7.9,21.1-16.4,28.1-28c5.7-9.5,7.2-20,5.3-30.8c-5.2-29.3-23.2-49.1-49-61.7c-14.7-7.4-30.7-11.8-46.2-17.5
		c-0.9-0.4-1.9-0.4-2.8-0.1c-3.6,1.9-7.2,3.9-10.7,6.1c-5.3,3.3-7.1,8.7-5.9,14.3c1.6,7.2,4.3,14.3,6.8,21.3
		c2.9,8.1,7,15.9,9.2,24.2c5,18.2-5.8,31.1-20.3,36.8c-7.9,2.9-16.1,5.3-24.4,7c-17.6,3.9-35.6,4.9-53.6,5.6
		C602.2,280.2,600.6,280.1,599.1,280z"/>
	<path class="st1" d="M394.5,405.6c2.4-3.7,4.5-6.8,6.4-10c3.2-5.2,6.3-10.6,9.7-15.7c0.9-1.3,2.7-2.8,4.2-2.8
		c6.8-0.3,13.6-0.1,20.9-0.1c0.2,2.1,0.4,3.7,0.4,5.2c0,22.7,0,45.3,0,68c0,5.5,0,5.5-5.5,5.6c-4,0-8-0.1-12,0.1c-3.7,0.2-5-1.3-5-5
		c0.2-10.7,0.1-21.3,0.1-32c0-1.5,0-2.9,0-4.3l-1.1-0.4l-18.5,27.8l-18.6-28.2c-0.3,1.4-0.4,2.9-0.5,4.3c0,10.8,0,21.6,0,32.5
		c0,5.2-0.1,5.2-5.4,5.2c-4,0-8-0.1-12,0.1c-3.4,0.2-4.8-1.1-4.7-4.6c0.2-8.2,0-16.3,0-24.5c0-14.8,0-29.6,0-44.5
		c0-5.1,0.2-5.2,5.4-5.3c4.7,0,9.3,0.1,14-0.1c3-0.1,4.9,1,6.4,3.6c4,6.8,8.2,13.4,12.3,20C391.9,402,393,403.4,394.5,405.6z"/>
	<path class="st1" d="M674.8,414.5V377c6.9,0,13.3-0.1,19.7,0.1c0.8,0,2.1,1.9,2.3,3c0.3,2.8,0.4,5.7,0.2,8.5c0,20,0,40,0,59.9
		c0,7.1-0.1,6.4-6.8,7.3c-9.4,1.2-15.5-2.1-20.7-9.9c-5.9-8.9-12.9-17-19.4-25.4c-1.2-1.6-2.5-3-4.7-5.6c-0.2,2.9-0.3,4.5-0.3,6.2
		c0,9.7,0,19.3,0,29c0,5.4-0.2,5.5-5.7,5.5c-3.7,0-7.3,0-11,0c-5.3,0-5.6-0.4-5.6-5.7c0-15.8,0-31.6,0.1-47.5c0-7,0.1-14-0.1-21
		c-0.1-3.4,1.1-5,4.6-4.7c0.3,0,0.7,0,1,0c15.2-0.2,15.2-0.2,24.6,11.8c5.8,7.5,11.6,15,17.4,22.5c1,1.3,2.1,2.5,3.2,3.7
		L674.8,414.5z"/>
	<path class="st1" d="M201.9,544.1c-0.6-21.5,18.4-40.9,41.2-40.6c22.6,0.3,40.9,18,41,40.4c0.1,22.8-18.4,41-41.5,41
		C220.2,584.8,202,566.6,201.9,544.1z M262.1,544.1c0-10.6-8.2-18.7-19.1-18.7c-10.4-0.2-19,8.1-19.2,18.6c0,0.2,0,0.5,0,0.7
		c0,9.7,9.1,18.6,19.2,18.5C253.5,562.9,262.6,554.1,262.1,544.1L262.1,544.1z"/>
	<path class="st1" d="M780.1,396c-0.3,0.6-0.6,1.2-0.8,1.8c-1,8.8-0.9,8.9,7.9,9c8.2,0,16.3,0.1,24.5,0c3.2,0,4.6,1.1,4.4,4.3
		c-0.2,3-0.2,6,0,9c0.3,3.8-1.5,4.9-5,4.9c-9-0.1-18,0.1-27-0.1c-4.1-0.1-5.2,1.6-5.1,5.3c0.2,5.3,0.3,5.6,5.7,5.6
		c10.2,0,20.3,0.1,30.5-0.1c3.9-0.1,5.5,1.4,5.2,5.3c-0.2,3.3-0.2,6.7,0,10c0.2,3.4-1.2,4.8-4.7,4.8c-8.2-0.1-16.3,0-24.5,0
		c-10,0-20-0.1-30,0c-3.6,0-5-1.2-5-4.9c0.1-22.8,0-45.7,0.1-68.5c0-5.4,0.2-5.5,5.7-5.5c17.5,0,35,0,52.5,0c5.5,0,5.6,0.1,5.6,5.6
		c0,3-0.2,6,0,9c0.2,3.5-1.1,4.7-4.6,4.6c-10-0.2-20-0.1-30-0.1L780.1,396z"/>
	<path class="st1" d="M143.4,426.2h-25.5c-0.2,1.9-0.4,3.5-0.5,5.1c-0.1,4.3,0,8.7,0,13c-0.1,12.4,1.5,11.1-11.4,11
		s-11.3,1.6-11.3-11.6c0-20.5-0.1-41-0.1-61.5c0-5.2,0-5.3,5.2-5.3c5.6-0.1,11.2,0,17.5,0c0,7.8,0,14.9,0,22c0,6.9,0,6.9,6.9,7
		c4.7,0,9.3,0.1,14,0c5.2-0.1,5.4-0.3,5.4-5.4c0-6.3,0.1-12.7,0-19c-0.1-3.4,1.2-4.8,4.6-4.6c4.7,0.2,9.3,0.1,14,0
		c2.9-0.1,4.2,0.9,4.2,4c-0.1,23.3-0.1,46.7-0.1,70c0,3.3-1.5,4.5-4.6,4.4c-4.5-0.1-9-0.1-13.5,0c-3.4,0.1-4.8-1.2-4.7-4.7
		c0.2-6.2,0.1-12.3,0-18.5C143.6,430.3,143.5,428.5,143.4,426.2z"/>
	<path class="st1" d="M591.6,505.5c0,5.3,0.1,10.6,0,15.8c-0.1,2.9-2.3,2.8-4.4,2.8h-35.8v10.4c2.3,0.1,4.6,0.3,6.8,0.3
		c8.3,0,16.7,0.1,25,0c3.4-0.1,4.9,1.2,4.8,4.6c-0.2,2.8-0.2,5.7,0,8.5c0.2,3.5-1.2,4.7-4.6,4.7c-9-0.1-18-0.1-27,0.1
		c-1.7,0-4.6,0.5-4.8,1.3c-0.6,2.7-0.6,5.6,0,8.3c0.2,0.7,2.8,1.4,4.3,1.4c10.3,0.1,20.7,0,31,0.1c5.3,0,5.6,0.3,5.7,5.7
		c0,3.2,0,6.3,0,9.5c0.1,2.9-1,4.3-4,4.3c-18.7,0-37.3,0-56,0c-2.9,0-4.1-1.2-4.1-4.2c0.1-23.3,0.1-46.7,0-70c0-2.8,0.8-4.3,4-4.2
		c18.7,0.1,37.3,0.1,56,0.1C589.5,505.1,590.6,505.3,591.6,505.5z"/>
	<path class="st1" d="M296.5,402.7c-0.4,8.6-0.2,17.4-1.4,25.9c-2.4,17.1-16.2,29-33.7,29.8c-23.1,1.1-39.5-14.6-39.5-37.8
		c0-12.8,0-25.6,0.1-38.5c0-5.2,0.1-5.2,5.4-5.3c4.2,0,8.3,0,12.5,0c5.1,0.1,5.2,0.2,5.2,5.5c0,13-0.1,26,0,39
		c-0.1,7.6,6,13.9,13.6,14.1c2.7,0,5.4-0.7,7.7-2.2c5-3,6.5-7.8,6.5-13.2c0-12.3,0-24.6,0-37c0-6,0.1-6,6.1-6.1
		c4.2,0,8.3,0.1,12.5,0c3.3-0.1,4.5,1.2,4.4,4.4c-0.1,7.2,0,14.3,0,21.5L296.5,402.7z"/>
	<path class="st1" d="M572.2,455.1c-8,0-14.9,0.2-21.8-0.2c-1.2-0.1-3-2.2-3.3-3.7c-1.2-5.1-4.3-6.3-9.1-6c-7,0.4-14,0.2-21,0
		c-3.4-0.1-5.6,1-6.2,4.3c-1,5-4.1,6.1-8.7,5.8c-5.4-0.3-10.8-0.1-17.2-0.1c1.6-4.2,2.7-7.2,4-10.2c9-21.3,18-42.6,26.9-63.9
		c1.4-3.4,3.2-5,7-4.7c3.8,0.3,7.7,0.3,11.5,0c3.9-0.3,6,1.2,7.5,4.9c7.5,18.1,15.2,36.2,22.8,54.3c2,4.8,4,9.5,6,14.3
		C571.1,451.2,571.4,452.6,572.2,455.1z M519.8,426.6h17.5l-8.3-21l-1.2,0.2L519.8,426.6z"/>
	<path class="st1" d="M144.4,530c-7.1-3.9-13.6-7.7-21.5-7.4c-1.2,0-2.6-0.2-3.4,0.3c-1.4,0.9-3.3,2.2-3.5,3.5c0,1.7,1,3.3,2.4,4.2
		c4.5,1.7,9.2,2.8,13.8,4.2c4.4,1.4,9,2.6,13.2,4.6c7.5,3.5,11.8,9.3,11.9,18.1c0.2,9.2-2.9,16.6-10.7,21.7
		c-6.4,4.2-13.7,5.5-21,5.4c-11.5-0.1-22.4-2.9-32.1-9.5c-4.9-3.3-5-3.8-1.3-8.3c2-2.5,4.1-4.8,6-7.4s3.8-3.2,6.6-1.1
		c5.6,4.2,12.4,6.7,19.4,7c1.5,0.1,3,0,4.4-0.2c2.7-0.4,6.1-1.2,5.8-4.2c-0.2-1.9-3.1-4.3-5.2-5c-5.8-2-11.9-3.2-17.8-4.9
		c-16-4.5-23-17.4-17.2-31.7c3.9-9.5,11.8-13.9,21.3-15.3c12.5-1.8,24.6-0.2,35.6,6.7c4.7,3,4.8,3.5,1.4,8L144.4,530z"/>
	<path class="st1" d="M401.4,568.2c-7.3,12.1-25.8,19.7-42.4,15.2c-16.9-4.6-29-19.3-30.4-36.8c-1.2-19.4,11.4-35.6,26.6-40.9
		c16.1-5.6,34.8-0.9,44.1,11.7c-4.6,4.2-9.2,8.7-14.2,12.7c-0.7,0.6-3.3-0.4-4.6-1.3c-6.5-4.6-13.4-5.1-20.2-1.5s-10.3,9.8-9.8,17.7
		c0.4,7.5,4.5,12.9,11.1,16c6.9,3.2,13.9,2.3,19.6-2.7c3.1-2.7,5.1-2.4,8,0C393,561.9,397.2,564.9,401.4,568.2z"/>
	<path class="st1" d="M745.7,505c8.6,0,16.2-0.1,23.8,0.1c1.2,0,2.7,1.8,3.5,3.1c3.5,5.9,6.7,11.9,10.1,17.8c1,1.7,2,3.4,3.6,5.9
		c2.8-4.8,5.1-8.9,7.5-13c2.6-4.4,4.3-10.5,8.2-12.8s9.9-1,15-1.1c2.9-0.1,5.8,0,8.7,0l0.6,1.3c-3.9,6.5-7.8,13-11.7,19.4
		c-5.1,8.4-10.3,16.7-15.3,25.1c-1,1.9-1.6,3.9-1.7,6.1c-0.2,7.3-0.2,14.7-0.1,22c0.1,3.4-1.1,4.8-4.6,4.6c-4.7-0.2-9.3-0.2-14-0.1
		c-3.2,0-4.5-1.3-4.5-4.5c0.1-6.5-0.2-13,0.1-19.5c0.1-3.8-1-7.6-3.1-10.8c-8.1-13-15.9-26.2-23.8-39.3
		C747.4,508.4,746.9,507.3,745.7,505z"/>
	<path class="st1" d="M674,505c9.7,0,19.3,0.2,29-0.1c4-0.1,5.4,1.5,5.1,5.3c-0.2,3-0.3,6-0.1,9c0.3,3.8-1.2,5.5-5.1,5.3
		c-3.7-0.2-7.3,0-11,0c-7,0-7,0-7,7.2c0,15,0,30,0,45c0,6.5-0.3,6.7-6.8,6.8c-3.7,0-7.3-0.2-11,0.1c-4,0.3-5.2-1.4-5.2-5.2
		c0.1-15.2,0-30.3,0-45.5c0-8.5,1-8.4-8.5-8.3c-3.3,0-6.7-0.1-10,0c-3.1,0.1-4.7-1-4.5-4.3c0.2-3.7,0.2-7.3,0-11
		c-0.2-3.4,1.5-4.2,4.5-4.2C653.7,505,663.8,505,674,505z"/>
	<path class="st1" d="M774,659.5c0,8.8,0,17.6,0,26.4c0,2.3,0,4.7,0,7c0,6.3-4,9.1-9.9,6.3c-1.2-0.6-2.1-3.2-2.1-4.9
		c-0.2-12.5-0.1-25-0.1-37.5c0-5,0.1-10,0-15c-0.1-3.2,1.3-4.2,4.5-4.5c4.5-0.3,7.8,0.9,10.6,4.8c8.1,11,16.7,21.7,25,32.4
		c0.5,0.6,1.1,1.2,2.5,2.8c0.1-2.8,0.3-4.5,0.3-6.1c0-9.7,0-19.3,0-29c0-4.6,0.4-4.8,6-4.8s6,0.2,6,4.8c0.1,17,0.1,34,0,51
		c0,2.2,1.4,5.8-2.1,6.3s-7.2,1.3-10-2.4c-8.3-11-16.8-22-25.3-32.9c-1.3-1.7-2.7-3.3-4-5L774,659.5z"/>
	<path class="st1" d="M689.5,668.5c1.1,15.9-12.9,32.7-33.1,32.2c-18-0.5-31.6-13.8-31.5-32.2s14.1-32.6,32.7-32.4
		C677.7,636.4,690.8,652.8,689.5,668.5z M657.6,647.5c-11.5-0.1-20.4,8.9-20.6,20.6s9,21.5,20.3,21.6c11,0.1,20.4-9.3,20.1-21.2
		S669.1,647.9,657.6,647.5L657.6,647.5z"/>
	<path class="st1" d="M679.3,805.3V816h-5c-12.2,0-24.3,0-36.5,0c-5.2,0-5.3-0.2-5.3-5.3c0-17,0-34,0-51c0-5.7,0.2-5.9,5.9-5.9
		c11.8,0,23.7,0,35.5,0c4.9,0,5.4,0.7,5.3,6.1c-0.1,4.2-0.7,4.7-5.7,4.7c-8.2,0-16.3,0.2-24.5,0c-3.3-0.1-4.8,0.9-4.7,4.5
		c0.4,11.1-1.6,10.1,10.2,10.2c5.3,0,10.7,0.2,16,0c4.3-0.2,4.7,2.3,4.7,5.7s-0.7,5.3-4.7,5.2c-7.2-0.2-14.3,0.1-21.5-0.1
		c-3.4-0.1-4.7,1.2-4.7,4.6c0,12.5-0.8,10.3,10.2,10.5C662.7,805.4,670.8,805.3,679.3,805.3z"/>
	<path class="st1" d="M451.1,544.2c0-11.5,0.1-23-0.1-34.5c-0.1-3.7,1.2-5.1,4.9-4.9c4.7,0.2,9.3,0.1,14,0c2.9-0.1,4.2,1.1,4.2,4.1
		c-0.1,23.3-0.1,46.6,0,69.9c0,3.3-1.6,4.4-4.6,4.4c-4.7-0.1-9.3-0.2-14,0c-3.7,0.2-4.5-1.4-4.5-4.7
		C451.1,567.2,451,555.7,451.1,544.2L451.1,544.2z"/>
	<path class="st1" d="M223.3,814.7c3.4-7.9,6.8-15.8,10.2-23.7c4.9-11.3,10-22.5,14.8-33.8c1.3-3.1,3.2-4.3,6.5-4.2s6.2,0,7.8,3.8
		c8.2,19.1,16.5,38.2,24.8,57.2c0.1,0.2,0,0.6-0.2,1.8c-3.3,0-6.7,0.1-10.1-0.1c-0.8,0-1.7-1-2.3-1.7c-0.5-0.7-0.8-1.4-1.1-2.2
		c-4.5-10.6-4.5-10.6-15.9-10.7c-4.2,0-8.3,0.2-12.5,0c-3-0.2-4.7,1.1-5.7,3.7c-0.6,1.5-1.2,3.1-1.9,4.6
		C234.9,816.5,231.8,817.7,223.3,814.7z M255.9,769.6l-1.3,0.2l-8.3,19.9h18.3L255.9,769.6z"/>
	<path class="st1" d="M132.2,652.8c-4.6-1.8-8.6-3.4-12.6-4.9c-1.3-0.4-2.6-0.5-4-0.4c-5.5,0-8.6,2-9.3,5.7
		c-0.6,3.5,1.5,6.1,6.8,7.9c4.4,1.5,9,2.4,13.4,3.9c10.2,3.5,14.4,9.4,13.5,18.3c-1,9.4-6.7,15.4-16.9,16.8c-10,1.5-20.2-1-28.3-7
		c-2.7-1.9-2.9-3.6-0.9-6.1c3.6-4.7,4.3-4.9,7.7-3.1c4.4,2.3,8.9,4.2,13.7,5.7c2.5,0.7,5.6-0.2,8.2-0.9s4.9-3,4.2-5.9
		c-0.5-2.1-1.9-4.8-3.7-5.8c-3.3-1.8-7.2-2.5-10.8-3.6c-3.4-0.9-6.7-2-9.9-3.3c-6.2-2.8-9.3-7.9-9.3-14.7c0-7.5,3.3-13.3,10.2-16.4
		c11-5,21.4-2.7,31.3,3.4c2.4,1.5,2.7,3.2,1,5.3c-1,1.3-1.9,2.7-3,4C133.1,652.1,132.7,652.5,132.2,652.8z"/>
	<path class="st1" d="M550.7,654.7c-2.8-1.9-5.7-3.6-8.6-5.2c-7.6-3.6-16.7-2.1-22.2,3.5c-5.8,5.8-7.7,16.9-4.3,24.7
		s10.9,12.8,19,11.8c4.2-0.7,8.3-2.2,11.9-4.5c4.9-2.9,4.7-3.2,8.5,0.8c1,1.1,1.9,2.2,3.1,3.6c-4.7,6.5-11.1,9.8-18.5,10.9
		c-13.3,1.9-25-1.2-32.7-13.2s-7.9-24.2-0.5-36.2c9.7-15.8,33.2-19.5,47.9-7.9c4,3.2,4,3.7,0.7,7.4
		C553.5,651.8,552.2,653.2,550.7,654.7z"/>
	<path class="st1" d="M90.7,753.7c4,0,7.3-0.5,10.2,0.2c1.6,0.4,3.5,2.3,4.2,4c5.1,12.5,9.9,25.1,14.8,37.6c0.3,0.8,0.7,1.5,1.5,3.3
		c2.3-5.5,4.2-10.1,6-14.7c3.2-8,6.2-16.1,9.4-24.2c2.5-6.3,2.5-6.3,9.4-6.2c1.2,0,2.3,0.1,3.5,0.2c0.5,0,0.9,0.4,1.8,1
		c-1.6,4.2-3.1,8.6-4.9,12.8c-6.1,14.8-12.4,29.4-18.3,44.2c-1.5,3.7-3.7,4.5-7.2,4.5c-3.2,0-5.4-0.6-6.9-4.2
		c-7-17.6-14.4-35.1-21.7-52.6C92,758.1,91.6,756.5,90.7,753.7z"/>
	<path class="st1" d="M761.2,755.1c7.6-3.2,12.7-1.8,16.5,4.2c4.2,6.6,8.4,13.2,12.9,20.3c0.9-1,1.8-2.1,2.7-3.2
		c3.6-5.6,7.6-11,10.7-16.9c2.5-4.6,5.7-6.6,10.8-5.9c1.6,0.2,3.3,0.2,5.9,0.4c-1.2,2.4-2,4.3-3.1,6c-5.7,8.8-11.5,17.6-17.4,26.2
		c-2.4,3.2-3.5,7.2-3.3,11.2c0.2,4.8-0.1,9.7,0,14.5c0.1,3-1.2,4.3-4.2,3.9c-1.2-0.1-2.3-0.1-3.5,0c-3.3,0.2-4.5-1.3-4.4-4.5
		c0.1-3.3-0.4-6.7,0.1-10c1.1-7.4-1.8-13.4-6-19.3c-5.4-7.6-10.4-15.5-15.5-23.3C762.6,757.8,762,756.6,761.2,755.1z"/>
	<path class="st1" d="M300.7,668.5c0-8.8-0.1-17.7,0-26.5c0-4.5,0.6-4.6,6.6-4.7c3.6-0.1,5.4,0.7,5.4,5c-0.2,13.8-0.1,27.7-0.1,41.5
		c0,4.8,0.2,5.1,5,5.1c7.5,0,15,0.1,22.5-0.1c3.8-0.1,5,1.5,4.8,5.1c-0.2,3.1,0.2,6-4.5,5.9c-11.7-0.2-23.3-0.2-35,0
		c-3.8,0-4.9-1.7-4.8-5.2C300.7,685.9,300.6,677.2,300.7,668.5L300.7,668.5z"/>
	<path class="st1" d="M373,784.9c0-8.7-0.1-17.3,0-26c0-5.1,0.3-5.2,6.1-5.2s5.8,0.1,5.8,5.4c0,13.5,0,27,0,40.4
		c0,5.2,0,5.3,5.3,5.3c7.3,0,14.7,0,22,0.1c4.5,0,5,0.7,5,5.4c-0.1,5.2-0.4,5.6-5.2,5.6c-11.5,0-23-0.1-34.5,0.1
		c-3.5,0-4.7-1.2-4.6-4.7C373.1,802.5,373,793.7,373,784.9z"/>
	<path class="st1" d="M502.9,784.6c0-8.7-0.1-17.3,0-26c0.1-4.6,0.6-5,5.9-5c5.5,0,5.9,0.3,5.9,4.9c0.1,13.2,0.1,26.3,0.1,39.5
		c0,6.8,0,6.8,7,6.9s13.7-0.1,20.5,0c4.5,0.1,4.6,0.6,4.8,6.1c0.1,3.6-1,5.1-4.8,5c-11.3-0.2-22.7-0.1-34-0.1
		c-5.3,0-5.4-0.2-5.4-5.8C502.8,801.6,502.8,793.1,502.9,784.6L502.9,784.6z"/>
	<path class="st1" d="M415.9,668.5c0-8.8-0.1-17.6,0-26.4c0-4.6,0.4-4.8,5.9-4.8s6,0.2,6,4.7c0.1,17.8,0,35.6,0,53.3
		c0,3.3-1.2,4.6-4.5,4.2c-1-0.1-2-0.1-3,0.1c-3.5,0.4-4.7-1.2-4.7-4.6C416,686.1,415.9,677.3,415.9,668.5z"/>
	<path class="st1" d="M210.9,637.9c11.2-1.8,11.4-1.6,11.4,9c0,15.1,0,30.3,0,45.4c0,7.3,0,7.3-7.5,7.2c-1.1,0-2.3-0.1-3.9-0.2
		L210.9,637.9z"/>
</g>
</svg>
