<?xml version="1.0" encoding="utf-8"?>
<!-- Generator: Adobe Illustrator 21.1.0, SVG Export Plug-In . SVG Version: 6.00 Build 0)  -->
<svg version="1.1" id="Layer_1" xmlns="http://www.w3.org/2000/svg" xmlns:xlink="http://www.w3.org/1999/xlink" x="0px" y="0px"
	 viewBox="0 0 446.7 236.1" style="enable-background:new 0 0 446.7 236.1;" xml:space="preserve">
<style type="text/css">
	.st0{fill:#808080;}
	.st1{fill:#999999;}
	.st2{fill:#B2B2B2;}
</style>
<g>
	<path class="st0" d="M76.6,201c0.5,0,0.9-0.5,0.9-1.1V15.4c0-0.6-0.4-1.1-0.9-1.1h-1.8c-0.5,0-0.9,0.5-0.9,1.1v184.4
		c0,0.6,0.4,1.1,0.9,1.1h1.8V201z"/>
	<path class="st0" d="M12.3,60.9c0,0.5,0.5,0.9,1,0.9h124.4c0.6,0,1-0.4,1-0.9v-1.8c0-0.5-0.5-0.9-1-0.9H13.4c-0.6,0-1,0.4-1,0.9
		L12.3,60.9L12.3,60.9z"/>
	<path class="st1" d="M63.1,46.4c-1.7-1-2.4-3.3-1.7-5.1l7.3-18.7c0.7-1.8,1.3-1.7,1.3,0.2v24c0,1.9-1.4,2.7-3,1.7L63.1,46.4z"/>
	<path class="st2" d="M20.6,68.4c-1.9-1.6-1.4-3,1.1-3h42.2c2.5,0,3.7,1.9,2.6,4.1L55.7,92.9c-1.1,2.3-3.5,2.8-5.4,1.2L20.6,68.4z"
		/>
	<path class="st1" d="M57.6,99.8c-0.1-1,0.1-2.5,0.5-3.4l11.5-24.8c0.4-0.9,0.8-0.8,0.8,0.2v112.5c0,1-0.1,1-0.3,0L57.6,99.8z"/>
	<path class="st0" d="M126.5,67.9c2.1-1.3,1.8-2.5-0.7-2.5H85.7c-2.5,0-4.6,2.1-4.6,4.6v22.3c0,2.5,1.7,3.5,3.8,2.1L126.5,67.9z"/>
	<path class="st1" d="M90,16.1c0.9-1,0.5-1.8-0.8-1.8h-5.7c-1.3,0-2.4,1.1-2.4,2.4v7.2c0,1.3,0.7,1.6,1.6,0.6L90,16.1z"/>
	<g>
		<path class="st2" d="M92.7,54.6c-2.5,0-2.6-0.7-0.3-1.6l49.1-18.8c2.3-0.9,3.6,0.3,2.9,2.7l-4.3,13.4c-0.8,2.4-3.4,4.3-5.9,4.3
			L92.7,54.6z"/>
	</g>
	<g>
		<path class="st1" d="M139.6,19.3c-0.6-1.8-1.8-1.9-2.6-0.2L130.6,32c-0.9,1.7-0.1,2.6,1.7,1.9l7.3-2.8c1.8-0.7,2.8-2.8,2.2-4.6
			L139.6,19.3z"/>
	</g>
	<g>
		<path class="st2" d="M65.4,54.7c2.5,0,2.8-1,0.6-2.3L2.8,14.8c-2.2-1.3-3.3-0.4-2.5,2L11,50.3c0.8,2.4,3.4,4.3,5.9,4.3L65.4,54.7z
			"/>
	</g>
	<g>
		<path class="st1" d="M10.7,0.7c1.5-1.2,3-0.7,3.3,1.2l2.6,13.9c0.3,1.9-0.7,2.6-2.4,1.7L3.5,11c-1.7-1-1.8-2.8-0.3-4L10.7,0.7z"/>
	</g>
	<g>
		<g>
			<path class="st0" d="M93.4,116.9c0-2.9,0-5.4-0.2-8.1c1.8-0.4,6.1-0.9,9.8-0.9c9.2,0,15.6,3.1,15.6,12.4c0,8.6-7.9,12-11.8,12
				c-0.9,0-2.4-0.1-2.9-0.4c-0.7-0.4-1.7-1.9-1.7-3.7c0.5,0.1,1.3,0.2,1.8,0.2c3.3,0,7-1.8,7-8.3c0-6-3.9-8-7.6-8
				c-0.8,0-1.7,0.1-2.5,0.2V139c0,4.3,0.1,6.1,0.2,7.3c-1,0.3-4.7,0.5-6.2,0.5c-0.9,0-1.3-0.2-1.3-1.1v-28.8H93.4z"/>
			<path class="st0" d="M129.5,122.6c2.7-2.3,5.1-3.7,8.5-3.7c5.8,0,8.4,4.6,8.4,10.7v8.3c0,3.3,0.1,6.5,0.2,8.5
				c-1.3,0.2-3.6,0.5-6.1,0.5c-0.9,0-1.2-0.4-1.2-1.2c0-4.5,0-10.6,0-16c0-3.6-2-5.7-4.7-5.7c-2,0-3.7,1-5.1,2.2v18.7
				c0,1.1-0.2,1.5-1.3,1.7c-2,0.2-3.9,0.3-5.9,0.3c0.1-3.1,0.2-6.8,0.2-11.1v-23.1c0-3.7-0.1-5.3-0.2-6.6c1.3-0.5,5-1.1,6.2-1.1
				c0.9,0,1.1,0.3,1.1,4L129.5,122.6L129.5,122.6z"/>
			<path class="st0" d="M164.9,118.8c9.3,0,13.1,7,13.1,13.8c0,8.6-5.4,14.6-13.9,14.6c-7.8,0-13.2-5.2-13.2-14
				C151,125,156.8,118.8,164.9,118.8L164.9,118.8z M164.1,122.8c-3.8,0-5.8,3.9-5.8,9.7c0,7.6,3.1,10.9,6.5,10.9
				c3.6,0,5.7-3.8,5.7-9.9C170.6,126.9,168.3,122.8,164.1,122.8L164.1,122.8z"/>
			<path class="st0" d="M203.5,140.9c0,2.4-2,4.7-2.8,5.1c-0.9,0.5-3.5,1.2-5.6,1.2c-8.9,0-13.6-5-13.6-13.8c0-7.4,4.8-14.6,13-14.6
				c7.6,0,10.4,5.5,10.5,10.3c0,0.8-0.2,1.5-0.3,1.9c-0.2,1-2.4,1.7-4.8,2.3c-1.5,0.4-7.8,0.4-11.3,0.2c0.2,6,4.2,8.6,8.6,8.6
				c2.6,0,5.1-0.7,6.3-1.3L203.5,140.9z M193.7,122.6c-2.4,0-4.8,2.3-5.1,7.2c2.6,0.2,7.5,0.1,8.9,0c0.5,0,0.8-0.7,0.8-1.3
				C198.4,125.2,197,122.6,193.7,122.6L193.7,122.6z"/>
			<path class="st0" d="M226.5,129.5c0-3.8-2.1-5.6-4.6-5.6c-2.3,0-3.8,1.2-5.3,2.4V145c0,1.2-0.2,1.4-1.4,1.6
				c-2,0.2-3.7,0.3-5.9,0.3c0.1-3.1,0.2-6.9,0.2-11.1v-10.2c0-1.8-0.2-2.6-1.1-3.1V122c0.4-1.7,1.9-3.2,4-3.2c2.7,0,3.5,1.9,3.9,4
				c2.2-1.9,5.3-4,8.3-4c7.5,0,9,5.8,9,10.8v8.3c0,3.2,0.1,6.5,0.2,8.5c-1.3,0.1-3.6,0.5-6.1,0.5c-0.9,0-1.2-0.4-1.2-1.1
				L226.5,129.5L226.5,129.5z"/>
			<path class="st0" d="M246.7,145c0,1.1-0.4,1.4-1.7,1.6c-1.2,0.2-3.3,0.2-5.6,0.2c0.1-2.5,0.2-6.1,0.2-9.6v-10.4
				c0-3.8-0.1-5.6-0.2-6.9c1.3-0.4,5-0.7,6.2-0.7c0.9,0,1.1,0.3,1.1,3.9V145z M243.4,106.4c2.2,0,3.5,1.7,3.5,3.9c0,2.3-1.6,4-3.9,4
				c-1.8,0-3.7-1.2-3.7-3.9C239.4,107.6,241.8,106.4,243.4,106.4L243.4,106.4z"/>
			<path class="st0" d="M250.5,120.1c0.9-0.4,4.4-1.2,6.2-1.2c0.7,0,1.2,0.5,1.7,1.2c1.1,1.6,3.3,5.2,5.1,8.1c1.7-2.6,3.6-5.6,5.1-8
				c0.6-0.9,0.9-1.3,1.7-1.3c1.3,0,3.2,0.6,4.2,1.1v0.1c-1.2,1.6-5.8,8.7-8.1,12c2.5,3.9,6.1,9.4,9.1,14.1v0.1
				c-1.2,0.3-3.7,0.6-6.2,0.6c-0.7,0-1.3-0.2-1.8-1c-1.3-2.2-3.7-5.6-5.6-8.6c-1.5,2.3-3.3,4.9-5.6,8.6c-0.4,0.7-0.9,1-1.7,1
				c-1.7,0-3.4-0.2-4.5-0.6v-0.1c2.9-4.5,5.6-7.8,8.9-12.9c-1.6-2.3-7.1-11.1-8.5-13.1L250.5,120.1L250.5,120.1z"/>
			<path class="st0" d="M100.5,199.3c0,1.2-0.3,1.5-1.3,1.6c-1.7,0.2-4.9,0.2-6,0.2c0.1-2.4,0.2-6.1,0.2-11.2v-20.5
				c0-3,0-4.4-0.1-6.2c1.6-0.4,8-1,10.8-1c9.4,0,14,3.1,14,10.8c0,5.5-4.5,8.6-7.5,9.7c1.2,0.8,3.1,3.7,5.3,7.8
				c2.9,5.3,5.3,8.8,6.7,10v0.2c-0.6,0.3-2.9,0.6-4.6,0.6c-2.4,0-4.1-0.7-5.8-2.9c-1.7-2.4-2.6-4.4-5.1-9.2
				c-2.1-3.9-3.5-4.2-5.3-4.2c-0.5,0-0.7,0-1.3,0C100.5,185,100.5,199.3,100.5,199.3z M100.5,181c2,0.1,5.2-0.2,6-0.6
				c1.3-0.6,3.9-2.3,3.9-6.7c0-5.3-3.4-7.4-7.1-7.4c-0.9,0-2.1,0.1-2.8,0.2V181z"/>
			<path class="st0" d="M144.1,195.2c0,2.4-2,4.7-2.8,5.1c-0.9,0.5-3.5,1.2-5.6,1.2c-8.9,0-13.6-5-13.6-13.8c0-7.4,4.8-14.6,13-14.6
				c7.6,0,10.4,5.5,10.5,10.3c0,0.8-0.2,1.5-0.3,1.9c-0.2,1-2.4,1.7-4.8,2.3c-1.5,0.4-7.8,0.4-11.3,0.2c0.2,6,4.2,8.6,8.6,8.6
				c2.6,0,5.1-0.7,6.3-1.3V195.2z M134.3,176.9c-2.4,0-4.8,2.3-5.1,7.2c2.6,0.2,7.5,0.1,8.9,0c0.5,0,0.8-0.7,0.8-1.3
				C139,179.5,137.6,176.9,134.3,176.9L134.3,176.9z"/>
			<path class="st0" d="M159.3,173.1c2.2,0,4.7,0.4,6.5,2.1c0.4,1.2-0.4,3.1-2,3.7c-1.5-0.9-3.1-1.2-4.6-1.2c-2.1,0-3.4,1.2-3.4,2.8
				c0,1.3,1,2.1,2.4,2.9c1.3,0.7,3.1,1.6,4.8,2.5c2.7,1.5,4.2,3.9,4.2,6.6c0,6-5.1,9-10.6,9c-2.7,0-5.3-0.8-6.9-2
				c-0.7-0.6-0.8-1.1-0.7-1.6c0.1-1,0.7-2.6,1.8-3c1.4,1,3.8,2,6.3,2s3.6-1.3,3.6-2.8c0-1.3-0.7-2.1-2.6-3.1
				c-1.5-0.8-3.1-1.7-4.3-2.3c-2.3-1.4-4.3-3.8-4.3-6.9C149.5,176.4,154.2,173.1,159.3,173.1L159.3,173.1z"/>
			<path class="st0" d="M193.4,195.3c-0.1,1.8-0.9,3.7-2,4.7c-1.7,1-4.3,1.5-6.6,1.5c-7.8,0-14.1-4.4-14.1-13.6
				c0-8.7,6.6-14.7,15.1-14.7c3.4,0,6.2,0.8,7.8,2.3c0.2,0.7-0.4,3-1.8,3.5c-2-0.9-3.8-1.2-5.6-1.2c-4.5,0-8.3,2.9-8.3,9.1
				c0,7,4.8,9.5,9,9.5c2.5,0,4.7-0.4,6.4-1.2L193.4,195.3z"/>
			<path class="st0" d="M198,181.1c0-3.8-0.1-5.6-0.2-6.9c1.3-0.4,4.7-0.7,6.2-0.7c0.9,0,1.1,0.3,1.1,3.9c0,4,0,9.1,0,13.3
				c0,5,2.9,5.8,5,5.8c2,0,3.7-1,4.5-2v-18.2c0-1.8,0.2-2.1,1.2-2.3c2.6-0.3,4.1-0.4,6.1-0.4c0,1.3-0.2,5.7-0.2,11v9.8
				c0,2.6,0.6,3.2,2.3,3.5v0.3c-0.4,1.8-2.1,3.4-3.5,3.4c-3.2,0-4.5-1.5-5.1-3.9c-1.2,1.3-3.2,2.4-4.5,3c-1.2,0.6-2.5,0.9-3.9,0.9
				c-6.2,0-8.9-4.2-8.9-10.1v-10.4H198z"/>
			<path class="st0" d="M248.6,195.2c0,2.4-2,4.7-2.8,5.1c-0.9,0.5-3.5,1.2-5.6,1.2c-8.9,0-13.6-5-13.6-13.8c0-7.4,4.8-14.6,13-14.6
				c7.6,0,10.4,5.5,10.5,10.3c0,0.8-0.2,1.5-0.3,1.9c-0.2,1-2.4,1.7-4.8,2.3c-1.5,0.4-7.8,0.4-11.3,0.2c0.2,6,4.2,8.6,8.6,8.6
				c2.6,0,5.1-0.7,6.3-1.3L248.6,195.2z M238.8,176.9c-2.4,0-4.8,2.3-5.1,7.2c2.6,0.2,7.5,0.1,8.9,0c0.5,0,0.8-0.7,0.8-1.3
				C243.4,179.5,242.1,176.9,238.8,176.9L238.8,176.9z"/>
			<path class="st0" d="M296,163.2c0.9-0.5,4.7-0.9,6.1-0.9c0.6,0,1,0.4,1.2,1.8l3.2,22.5c0.9,6.4,1.7,11,2.2,13.9
				c-1,0.3-4.7,0.6-5.9,0.6c-0.7,0-1.5-0.3-1.6-1.5c-0.4-3.2-0.8-6.4-1.5-12.8l-1.9-15.9c-1.8,5.4-5.6,15.9-9.7,27.4
				c-0.4,1.2-0.8,1.7-2.1,2c-1,0.2-2.4,0.4-3.5,0.4c-1.5-4.9-7.1-21.4-9.9-29.6c-1,7.8-2.9,22.2-3.9,29.1c-0.1,0.7-0.4,0.9-1,0.9
				c-1.6,0-4,0-5-0.6c1.2-6.3,3.5-22.3,6.1-36.2l-0.2-1.2c1.5-0.4,3.5-0.9,6.2-0.9c0.9,0.3,1.4,1.3,2.6,4.5l8.6,23.5
				c3.2-8.6,7.5-20,10-26.3L296,163.2z"/>
			<path class="st0" d="M320.4,199.3c0,1.1-0.4,1.4-1.7,1.6c-1.2,0.2-3.3,0.2-5.6,0.2c0.1-2.5,0.2-6.1,0.2-9.6v-10.4
				c0-3.8-0.1-5.6-0.2-6.9c1.3-0.4,5-0.7,6.2-0.7c0.9,0,1.1,0.3,1.1,3.9V199.3z M317.1,160.7c2.2,0,3.5,1.7,3.5,3.9
				c0,2.3-1.6,4-3.9,4c-1.8,0-3.7-1.2-3.7-3.9C313.1,161.9,315.5,160.7,317.1,160.7L317.1,160.7z"/>
			<path class="st0" d="M335.3,173.1c2.2,0,4.7,0.4,6.5,2.1c0.4,1.2-0.4,3.1-2,3.7c-1.5-0.9-3.1-1.2-4.6-1.2c-2.1,0-3.4,1.2-3.4,2.8
				c0,1.3,1,2.1,2.4,2.9c1.3,0.7,3.1,1.6,4.8,2.5c2.7,1.5,4.2,3.9,4.2,6.6c0,6-5.1,9-10.6,9c-2.7,0-5.3-0.8-6.9-2
				c-0.7-0.6-0.8-1.1-0.7-1.6c0.1-1,0.7-2.6,1.8-3c1.4,1,3.8,2,6.3,2s3.6-1.3,3.6-2.8c0-1.3-0.7-2.1-2.6-3.1
				c-1.5-0.8-3.1-1.7-4.3-2.3c-2.3-1.4-4.3-3.8-4.3-6.9C325.5,176.4,330.2,173.1,335.3,173.1L335.3,173.1z"/>
			<path class="st0" d="M355.1,173.1c2.2,0,4.7,0.4,6.5,2.1c0.4,1.2-0.4,3.1-2,3.7c-1.5-0.9-3.1-1.2-4.6-1.2c-2.1,0-3.4,1.2-3.4,2.8
				c0,1.3,1,2.1,2.4,2.9c1.3,0.7,3.1,1.6,4.8,2.5c2.7,1.5,4.2,3.9,4.2,6.6c0,6-5.1,9-10.6,9c-2.7,0-5.3-0.8-6.9-2
				c-0.7-0.6-0.8-1.1-0.7-1.6c0.1-1,0.7-2.6,1.8-3c1.4,1,3.8,2,6.3,2s3.6-1.3,3.6-2.8c0-1.3-0.7-2.1-2.6-3.1
				c-1.5-0.8-3.1-1.7-4.3-2.3c-2.3-1.4-4.3-3.8-4.3-6.9C345.3,176.4,350,173.1,355.1,173.1L355.1,173.1z"/>
			<path class="st0" d="M374.3,199.3c0,1.1-0.4,1.4-1.7,1.6c-1.2,0.2-3.3,0.2-5.6,0.2c0.1-2.5,0.2-6.1,0.2-9.6v-10.4
				c0-3.8-0.1-5.6-0.2-6.9c1.3-0.4,5-0.7,6.2-0.7c0.9,0,1.1,0.3,1.1,3.9V199.3z M371.1,160.7c2.2,0,3.5,1.7,3.5,3.9
				c0,2.3-1.6,4-3.9,4c-1.8,0-3.7-1.2-3.7-3.9C367.1,161.9,369.5,160.7,371.1,160.7L371.1,160.7z"/>
			<path class="st0" d="M392.8,173.1c9.3,0,13.1,7,13.1,13.8c0,8.6-5.4,14.6-13.9,14.6c-7.8,0-13.2-5.2-13.2-14
				C378.9,179.2,384.7,173.1,392.8,173.1L392.8,173.1z M392,177c-3.8,0-5.8,3.9-5.8,9.7c0,7.6,3.1,10.9,6.5,10.9
				c3.6,0,5.7-3.8,5.7-9.9C398.5,181.2,396.3,177,392,177L392,177z"/>
			<path class="st0" d="M427.4,183.8c0-3.8-2.1-5.6-4.6-5.6c-2.3,0-3.8,1.2-5.3,2.4v18.6c0,1.2-0.2,1.4-1.4,1.6
				c-2,0.2-3.7,0.3-5.9,0.3c0.1-3.1,0.2-6.9,0.2-11.1v-10.2c0-1.8-0.2-2.6-1.1-3.1v-0.4c0.4-1.7,1.9-3.2,4-3.2c2.7,0,3.5,1.9,3.9,4
				c2.2-1.9,5.3-4,8.3-4c7.5,0,9,5.8,9,10.8v8.3c0,3.2,0.1,6.5,0.2,8.5c-1.3,0.1-3.6,0.5-6.1,0.5c-0.9,0-1.2-0.4-1.2-1.1V183.8z"/>
			<path class="st0" d="M436.4,168.8h-1.5c-0.2,0-0.2-0.1-0.2-0.3c0.1-0.6,0.2-0.8,0.3-0.9c0.1,0,0.4,0,1.2,0h3.4
				c0,0.3-0.3,1-0.5,1.1h-1.2v2.7c0,0.5,0,0.8,0,1l-1.3,0.1c-0.1,0-0.2,0-0.2-0.1L436.4,168.8L436.4,168.8z M446.4,170.7
				c0.1,0.8,0.3,1.4,0.3,1.7c-0.3,0-1,0.1-1.3,0.1c-0.1,0-0.2-0.1-0.2-0.3c-0.1-0.4-0.1-0.8-0.2-1.3l-0.3-2
				c-0.2,0.6-0.7,2.2-1.1,3.4c-0.5,0.1-0.7,0.1-1,0.1c-0.2-0.6-0.8-2.5-1.1-3.2c-0.1,0.5-0.3,2.2-0.4,3.1c-0.1,0.1-0.1,0.2-0.2,0.2
				c-0.7,0-0.9-0.1-1.1-0.1c0.2-1,0.5-2.8,0.8-4.3l-0.1-0.3c0.2-0.1,1.2-0.1,1.7-0.1c0.1,0,0.2,0.1,0.4,0.6l0.7,2
				c0.3-0.9,0.7-1.8,0.9-2.3v-0.1c0.2-0.1,1.2-0.1,1.5-0.1c0.1,0,0.2,0.1,0.2,0.3L446.4,170.7z"/>
		</g>
	</g>
</g>
</svg>
