<?xml version="1.0" encoding="utf-8"?>
<!-- Generator: Adobe Illustrator 21.1.0, SVG Export Plug-In . SVG Version: 6.00 Build 0)  -->
<svg version="1.1" id="Layer_1" xmlns="http://www.w3.org/2000/svg" xmlns:xlink="http://www.w3.org/1999/xlink" x="0px" y="0px"
	 viewBox="0 0 4528.5 1518.3" style="enable-background:new 0 0 4528.5 1518.3;" xml:space="preserve">
<style type="text/css">
	.st0{fill:url(#SVGID_1_);}
	.st1{fill:#999999;}
	.st2{fill:url(#SVGID_2_);}
	.st3{fill:#808080;}
</style>
<title>tpf</title>
<linearGradient id="SVGID_1_" gradientUnits="userSpaceOnUse" x1="-3834.2224" y1="-2188.6804" x2="-2907.491" y2="-1261.9487" gradientTransform="matrix(1 0 0 1 3908.1099 2454.79)">
	<stop  offset="0.16" style="stop-color:#999999"/>
	<stop  offset="0.72" style="stop-color:#666666"/>
</linearGradient>
<path class="st0" d="M614.8,8.2c17.6,2.6,35.4,4.6,52.9,8.1c218.1,43.2,370.2,168.2,450.8,374.7c84.6,216.8,30.7,465.4-131.9,633.2
	C907.2,1107,806.2,1165.9,695,1194c-8.6,2.2-10.6,5.7-10.6,14.2c0.3,97.8,0,195.7,0,293.6v7.3H534.3v-293.7h-61.6v293.9H319.3
	c0-3.8-0.5-7.5-0.5-11.3c0-286.9,0-573.7,0-860.5c0-78.1,22.6-147,75.4-205.4C503,311.7,695,312.5,797.9,434
	c86.2,101.9,77.5,252.4-20.2,338.8c-39.9,36.3-91.9,56.4-145.8,56.3c-3.6,0-7.1-0.3-10.6-1.1c29.7-3.8,58.3-13.6,84.1-28.6
	c95.4-55.7,129-177.6,72.6-268.9c-36.2-58.5-89.6-88.2-158.6-84.9c-80.8,3.8-140.2,67.7-144.8,133.9c-1,14.1-2.1,28.2-2.1,42.3
	v450.3c17.1,0,33.6,0.5,50,0c50.1-1.8,100.5-2.6,149.4-14.3c174.5-41.7,297.9-146,357.2-314.6c71.7-205.1,25.8-388.5-127.6-540.6
	C790.5,92.4,651.7,46.5,495.5,59C258.6,77.8,59.8,254.6,13,486.4c-6,29.6-8.6,59.9-12.7,89.9v-46.6c2.4-17,4.4-34.1,7.3-51
	C48.6,242.1,234.2,57,470.9,16.6c19-3.3,38.1-5.7,57.2-8.4L614.8,8.2z"/>
<path class="st1" d="M527.9,8.2c-19.1,2.8-38.2,5.3-57.2,8.4C234,57,48.4,242.1,7.3,478.7c-3,16.9-4.9,34-7.3,51V8.2H527.9z"/>
<linearGradient id="SVGID_2_" gradientUnits="userSpaceOnUse" x1="-3862.2888" y1="-1986.9691" x2="-3236.7947" y2="-1361.4751" gradientTransform="matrix(1 0 0 1 3908.1099 2454.79)">
	<stop  offset="0.16" style="stop-color:#999999"/>
	<stop  offset="0.72" style="stop-color:#666666"/>
</linearGradient>
<path class="st2" d="M955.4,573.9c-3.9-21.2-6.3-39.9-10.6-57.9c-26-105.8-86-186.6-180.6-241.1c-117.8-68-272.4-58.7-379.4,23.3
	c-66.5,50.9-109.6,117.2-124.4,200.1c-3.9,24.5-5.7,49.2-5.3,74c-0.3,307.7-0.3,615.4,0,923v14.3H101.7c0-3.6-0.6-7.3-0.6-11
	c0-298.5-2.2-597,0.7-895.5c1.9-190.7,92.6-329.7,264.8-413c62.1-30,129-40.3,197.8-37c181,8,335.4,133.6,380.2,309.2
	C953.6,498.8,957.3,536.4,955.4,573.9z"/>
<path class="st3" d="M1389.2,15.9h344.2l11.5,74.8h-136.8v338.7h-95.4V90.6h-123.5V15.9z"/>
<path class="st3" d="M2084.9,241.4v187.9H1990V248.8c0.6-12-2.7-23.8-9.4-33.7c-6.6-8.5-16.9-13.1-27.7-12.5
	c-17,0-40.1,8.5-69.3,25.5v201.3h-94.9V6.7l94.9-6.7v153.4c15.7-8.5,32.1-15.4,49.1-20.7c15.6-5.1,31.9-7.8,48.3-7.9
	C2050.3,124.7,2084.9,163.6,2084.9,241.4z"/>
<path class="st3" d="M2420,279.1v28.6h-189.2c8.9,34.5,34.9,51.7,77.8,51.7c29.3-0.4,58-8.3,83.3-23.1l26.8,66.3
	c-15.4,10.9-32.6,19.2-50.8,24.3c-21.4,6.3-43.7,9.3-66,9.1c-53.9,0-96.4-13.6-127.4-40.8s-46.5-64.9-46.5-113.1
	c-0.7-28.9,6-57.4,19.5-83c12.4-23.2,31.3-42.2,54.4-54.7c24.6-13,52-19.6,79.8-19.1c26.8-0.9,53.3,6.3,76,20.7
	c20.5,13.6,36.7,32.8,46.5,55.3C2415,225.9,2420.4,252.4,2420,279.1z M2229.6,253.6h99.7c-1.6-13.3-7.1-25.9-15.9-36.2
	c-8.7-9.3-21-14.3-33.7-13.7c-12.7-0.3-24.9,4.7-33.7,13.7C2236.5,227.2,2230.7,240,2229.6,253.6L2229.6,253.6z"/>
<path class="st3" d="M1527.8,836.8V969H1433V555.5h152.7c28.9-0.4,57.7,4.8,84.6,15.5c24.1,9.5,44.9,25.9,59.9,47.1
	c14.8,21.2,22.2,47.3,22.2,78.5c0.9,27.9-7.4,55.2-23.7,77.8c-16.1,21.3-37.9,37.6-62.9,47.1c-27.2,10.5-56.2,15.8-85.5,15.5
	L1527.8,836.8z M1582.6,631.9h-54.7v128.9h55.9c18,0.8,35.7-5.2,49.6-16.7c12.9-11.5,20.2-28,19.8-45.3c0-21.9-6.2-38.5-18.6-49.9
	C1622.1,637.5,1604.8,631.9,1582.6,631.9L1582.6,631.9z"/>
<path class="st3" d="M1845.3,633.1c-28.8-0.3-52-23.5-52.3-52.3c-0.2-14.1,5.4-27.6,15.5-37.4c9.7-10.1,23.1-15.7,37-15.5
	c29.2,0,52.9,23.6,52.9,52.8c0,0,0,0,0,0.1c0.2,13.9-5.4,27.3-15.5,37C1873.1,627.9,1859.4,633.4,1845.3,633.1z M1893.3,673.9v295
	h-95.4v-295H1893.3z"/>
<path class="st3" d="M2057.6,539.4v429.3h-94.9V546.2L2057.6,539.4z"/>
<path class="st3" d="M2228.4,539.4v429.3h-94.7V546.2L2228.4,539.4z"/>
<path class="st3" d="M2368.3,976.1l8.7-20.1l-104-267l89.9-26.1l64.5,183.7l60.2-172.7h97.3l-130.7,331.5
	c-10.6,24.7-28,45.9-50.2,61.1c-23.7,17.4-50.7,29.7-79.3,36.2l-32.2-75.4c17.5-7.2,34.6-15.5,51.1-24.9
	C2356.3,994.5,2364.6,985.8,2368.3,976.1z"/>
<path class="st3" d="M2717.9,792.4v176.4h-95.4V674.5h48.6l26.8,42c15.3-11.6,31.8-21.5,49.2-29.5c15.7-8,32.9-12.4,50.4-13.1
	l18.9,76c-17,0.6-33.6,4.7-49,11.8C2749.5,769.4,2732.8,779.7,2717.9,792.4z"/>
<path class="st3" d="M1527.8,1268h128.3l10.9,74.8h-139.3v165.4H1433v-412.9h251.8l10.9,74h-167.8V1268z"/>
<path class="st3" d="M2025.6,1443.1c-13.9,23-34.1,41.4-58.2,53.2c-26.4,12.7-55.3,19.1-84.6,18.6c-29.2,0.6-58.2-5.5-84.6-17.9
	c-23.8-11.5-43.7-29.9-56.9-52.9c-14.2-25.8-21.2-54.8-20.4-84.2c-0.6-29,6.7-57.6,21.1-82.7c13.7-23.2,33.7-42,57.8-54.1
	c26.2-13,55.1-19.4,84.2-18.9c29.3-0.6,58.3,5.8,84.6,18.6c24,11.9,43.9,30.6,57.2,53.8c14.2,25.9,21.2,55.1,20.4,84.6
	C2047.1,1389.8,2040,1418.2,2025.6,1443.1z M1930.4,1415.7c11.7-13.8,17.6-32,17.6-54.7c0.8-20.1-5.3-39.9-17.4-55.9
	c-10.9-14.3-28-22.4-45.9-21.9c-18.3-0.8-35.9,7.1-47.6,21.1c-11.8,14.1-17.6,32.6-17.6,55.6c0,23,5.8,41.5,17.4,55.6
	c11.3,14,28.6,21.8,46.5,21.2C1901.6,1437.3,1918.9,1429.6,1930.4,1415.7L1930.4,1415.7z"/>
<path class="st3" d="M2290.4,1414.5v-200.9h95.5v295h-52.9l-22.5-31c-18.3,11.8-37.8,21.6-58.2,29.2c-18.7,7.4-38.6,11.3-58.7,11.6
	c-36.9,0-63.6-10.6-80-31.7s-24.6-49.8-24.6-85.8v-187.3h95.5v179.8c-0.7,12.1,2.5,24.2,9.1,34.4c6.6,8.6,17.2,13.3,28,12.5
	C2240,1440.5,2262.9,1431.9,2290.4,1414.5z"/>
<path class="st3" d="M2544.7,1306.9v201.3h-95.4v-295h59l16.4,31c18.1-12.3,37.6-22.2,58.2-29.5c19-7.1,39-11,59.3-11.3
	c36.5,0,62.9,10.4,79.3,31.3c16.4,20.9,24.6,49.4,24.6,85.5v187.9h-95.6v-180.6c0.6-11.9-2.5-23.8-9.1-33.7
	c-6.5-8.5-16.7-13.2-27.4-12.5C2597,1281.3,2573.9,1289.8,2544.7,1306.9z"/>
<path class="st3" d="M3088.3,1508.2h-48.6l-17.6-23.7c-12.1,9.3-25.4,16.7-39.6,22.2c-14,5.4-28.8,8.2-43.8,8.2
	c-45.8,0-82.3-13.4-109.5-40.1c-27.1-26.8-40.7-64.7-40.8-113.7c0-49,13.8-87.5,41.4-115.2c27.6-27.8,65.1-41.7,112.5-41.7
	c17.5,0.2,34.8,4.4,50.4,12.2v-130.7l95.4-6.7L3088.3,1508.2z M2903.2,1417.9c10.9,14,27.9,21.9,45.6,21.1c13.4,0,28-5.7,43.8-17
	v-125.9c-13.4-9.8-29.6-15.1-46.2-15.2c-17.1-0.4-33.3,7.8-43.2,21.9c-10.9,14.6-16.4,33.8-16.4,57.8c0,23.9,5.5,43,16.6,57.3
	L2903.2,1417.9z"/>
<path class="st3" d="M3186.8,1304.4l-25.5-73c17.5-8.8,36.1-15.2,55.3-19.1c20.8-5.1,42.1-7.9,63.5-8.2c22.7-0.4,45.3,4.6,65.7,14.6
	c18.4,9.1,33.7,23.3,44.1,41c10.5,18.4,15.9,39.3,15.5,60.5v187.9h-52.9l-22.5-31c-21.9,25.1-46,37.7-72.4,37.7
	c-35.7,0-62.6-8.8-80.9-26.4c-18.2-17.6-27.5-41.7-27.7-72.1c0-30,10.1-52.5,30.4-67.5s48-22.5,83.3-22.5h46.2
	c-0.1-11.3-4.6-22.1-12.5-30.1c-8.3-7.3-19.1-11.1-30.1-10.6c-13.5,0.2-27,1.9-40.1,5.3C3212.7,1294.2,3199.5,1298.7,3186.8,1304.4z
	 M3229.2,1415.5c-0.1,7.1,2.8,14,7.9,18.9c5.5,5.4,13,8.2,20.7,7.9c17.8,0,35.1-7.7,51.7-23.1v-35.9h-46.2c-9.1-0.4-18,2.9-24.6,9.2
	c-6.2,6.1-9.6,14.6-9.2,23.3L3229.2,1415.5z"/>
<path class="st3" d="M3577.9,1219.9h65.7l17,74h-82.7v98.5c-0.5,12,3.3,23.9,10.6,33.4c7,8.6,17.6,13.3,28.6,12.8
	c13.2-0.2,26.1-3.5,37.7-9.7l27.3,66.3c-9.5,7-20.3,12.2-31.7,15.2c-12.8,4.2-26.1,6.5-39.6,6.7c-37.3,0-67.9-9.7-91.8-29.2
	c-23.9-19.5-35.9-47-36-82.5v-111h-42.3v-74h42.3v-74.8l94.9-14.6L3577.9,1219.9z"/>
<path class="st3" d="M3768.2,1172.5c-28.8-0.3-52-23.5-52.3-52.3c-0.2-14.1,5.4-27.6,15.5-37.4c9.7-10.1,23.1-15.7,37-15.5
	c29.2,0,52.9,23.7,52.9,52.9c0.2,13.9-5.4,27.3-15.5,37C3796,1167.3,3782.3,1172.8,3768.2,1172.5z M3816.2,1213.2v295h-95.5v-295
	H3816.2z"/>
<path class="st3" d="M4165.6,1443.1c-13.9,23-34.1,41.4-58.2,53.2c-26.4,12.7-55.3,19.1-84.6,18.6c-29.2,0.6-58.2-5.5-84.6-17.9
	c-23.8-11.5-43.7-29.9-56.9-52.9c-14.2-25.8-21.2-54.8-20.4-84.2c-0.6-29,6.7-57.6,21.1-82.7c13.7-23.2,33.7-42,57.8-54.1
	c26.2-13,55.1-19.4,84.2-18.9c29.3-0.6,58.3,5.8,84.6,18.6c24,11.9,43.9,30.6,57.2,53.8c14.2,25.9,21.2,55.1,20.4,84.6
	C4187.2,1389.8,4180,1418.2,4165.6,1443.1z M4070.4,1415.7c11.7-13.8,17.6-32,17.6-54.7c0.8-20.1-5.3-39.9-17.4-55.9
	c-10.9-14.3-28-22.4-45.9-21.9c-18.3-0.8-35.9,7.1-47.6,21.1c-11.8,14.1-17.6,32.6-17.6,55.6c0,23,5.8,41.5,17.4,55.6
	c11.3,14,28.6,21.8,46.5,21.2C4041.6,1437.3,4058.9,1429.6,4070.4,1415.7L4070.4,1415.7z"/>
<path class="st3" d="M4327.1,1306.9v201.3h-95.5v-295h59l16.5,31c18.1-12.3,37.6-22.2,58.2-29.5c19-7.1,39-11,59.3-11.3
	c36.5,0,62.9,10.4,79.3,31.3c16.4,20.9,24.6,49.4,24.6,85.5v187.9H4433v-180.6c0.6-11.9-2.5-23.8-9.1-33.7
	c-6.5-8.5-16.7-13.2-27.4-12.5C4379.4,1281.3,4356.3,1289.8,4327.1,1306.9z"/>
</svg>
