<?xml version="1.0" encoding="utf-8"?>
<!-- Generator: Adobe Illustrator 22.1.0, SVG Export Plug-In . SVG Version: 6.00 Build 0)  -->
<svg version="1.1" id="Layer_1" xmlns="http://www.w3.org/2000/svg" xmlns:xlink="http://www.w3.org/1999/xlink" x="0px" y="0px"
	 viewBox="0 0 1955.5 2279.4" style="enable-background:new 0 0 1955.5 2279.4;" xml:space="preserve">
<style type="text/css">
	.st0{fill:#808080;}
	.st1{fill:#FFFFFF;}
	.st2{fill:none;}
</style>
<title>tsa</title>
<path class="st0" d="M977.8,2279.4l-41.3-45.4c-42.8-44.2-97.6-78.8-158.6-108.4c-62.5-30.4-131.6-55.8-201-81.3
	c-140-51.5-281.7-103.5-390.8-198.7C75.3,1749.1,0.8,1610.9,0.4,1390.3v-0.5C-3,1243.4,19,1098,41.1,951.7l0,0v-0.3v-0.1
	c15.6-103.2,31.2-206.6,37.4-310.5c6.2-102.2,3-203.9-18.7-304.7c-2.1-9.7-4.4-19.2-7-28.9c-2.5-9.4-5.3-18.8-8.2-28.1
	c-2.9-9.3-5.9-18.7-9.2-28.1c-0.9-2.6-5.5-16-10.7-30.8c-3.8-11.1-6.8-21.1-8-31.4c-1.5-12.6-0.5-24.4,4.5-36.4
	c7.8-18.6,20-31,38.3-36.9c15.3-4.9,33.4-4.1,55.7,2.6c16.6,5.2,32.2,11.1,47.9,16.8l0,0l0,0l0.5,0.3l0,0l0,0l0,0l0,0l1,0.4l-1-0.4
	c16.6,6.3,33.2,12.4,51,17.3h0.1c11.7,3.3,23.5,6.3,35.3,9c28.8,7,57.8,12.8,87,17.3c-1-0.1-2.5-0.4,0.1,0h0.4
	c8.5,1.4,13.9,2.1,16.2,2.4c3.3,0.5,8.8,1.1,16.3,2c27.5,3.3,54.9,5.3,82.4,6.2h0.3c26.4,0.8,52.5,0.3,78.4-1.5
	c25.1-1.6,50.1-4.5,75.1-8.7c117-19.5,221.9-66.2,314.5-136.5c19-14.5,38.1-27.9,56.8-42.7c18.7,14.8,37.8,28.3,56.8,42.7
	c92.6,70.2,197.5,117,314.4,136.6c23.6,4,48.8,6.9,75.1,8.7c26,1.8,52.1,2.3,78.4,1.5h0.3c27.5-0.8,55-2.9,82.4-6.2
	c7.5-0.9,12.9-1.6,16.3-2c2.3-0.3,7.7-1.1,16.2-2.4h0.4c2.6-0.4,1.1-0.1,0.1,0c29.3-4.6,58.2-10.4,87-17.3c11.8-2.8,23.6-5.9,35.3-9
	h0.1c17.8-4.9,34.4-11.1,51-17.3l-1,0.4l1-0.4l0,0l0,0l0,0l0,0l0.6-0.3l0,0v0.1c15.6-5.9,31.3-11.7,47.9-16.8
	c22.2-6.8,40.3-7.5,55.7-2.6c18.3,5.9,30.5,18.3,38.3,36.9c5,12.1,6.2,24,4.5,36.4c-1.3,10.3-4.3,20.4-8.2,31.4
	c-5.2,14.8-9.7,28.1-10.7,30.8c-3.3,9.7-6.4,19.1-9.2,28.1c-2.6,8.7-5.4,17.8-8.2,28.1c-2.5,9.5-4.9,19.2-7,28.9
	c-21.7,100.7-24.9,202.4-18.7,304.7c6.2,103.8,21.9,207.3,37.4,310.5v0.1v0.3l0,0c22.1,146.1,44,291.6,40.6,438v0.5
	c-0.4,220.8-74.9,358.9-185.6,455.4c-109.1,95.1-250.8,147.3-390.8,198.7c-69.5,25.5-138.5,50.9-201,81.3
	c-60.9,29.7-115.7,64.2-158.6,108.4L977.8,2279.4z"/>
<path class="st1" d="M977.8,2233.9l20.7-20c91.1-94.1,229.7-145.1,370.3-196.8c275.2-101.2,557.2-204.9,557.4-628
	c3.4-144.3-18.5-288.5-40.3-433.5c-31.4-208.2-63.1-418.1-18.3-625.5c4.4-20.6,9.8-40.2,15.8-59.4c5.7-18.1,12.7-38.7,20-59.8
	c6.5-18.7,10.1-33.4,4.3-47.4c-8.8-21.1-26.3-27.8-58.8-17.7c-16.2,5-31.4,10.7-46.6,16.5c-17.6,6.7-35.2,13.2-53.8,18.3l0,0
	c-41.3,11.3-83.4,20.4-125.8,27c-39.3,6.2-79,9.8-118.9,11.1c-194.6,5.7-362.3-53.3-502-164.7l-23.9-18l-23.7,18
	c-139.9,111.5-307.5,170.5-502,164.7c-39.8-1.3-79.5-4.9-118.9-11.1c-42.3-6.7-84.4-15.7-125.8-27l0,0c-18.6-5-36.2-11.7-53.8-18.3
	c-15.2-5.7-30.4-11.4-46.6-16.5c-32.7-10.1-50-3.4-58.8,17.7c-5.8,13.8-2.3,28.6,4.3,47.4c7.3,21.1,14.5,41.7,20,59.8
	c6.2,19.6,11.4,39.3,15.8,59.4c44.9,207.6,13.2,417.3-18.3,625.5c-21.9,145-43.7,289.3-40.3,433.5c0.3,423.2,282.3,526.9,557.4,628
	c140.6,51.6,279.2,102.7,370.3,196.8L977.8,2233.9z M977.8,2193.7C705.1,1912,58.3,2010,58.3,1388.4
	c-8-350.2,135.2-706.8,58.1-1064.6c-9-42-22.6-81.9-36.7-122.5C71,176.2,69,164.1,98.4,173.2c34.2,10.6,66.6,25.6,101.4,35.1
	c314.6,85.6,574.8,28.3,778.1-136.8c203.3,165,463.4,222.4,778.1,136.8c34.8-9.4,67.2-24.5,101.4-35.1c29.4-9,27.4,3,18.7,28.1
	c-14.1,40.6-27.6,80.5-36.7,122.5c-77.3,357.7,66.1,714.4,58.1,1064.6C1897.3,2010,1250.6,1912,977.8,2193.7L977.8,2193.7z"/>
<path class="st0" d="M1402.8,2276.4c-43.2,0-79.8-33.7-79.8-79.7c0-46.1,36.4-79.8,79.8-79.8c42.2,0,78.8,33.7,78.8,79.8
	C1481.5,2242.8,1445.1,2276.4,1402.8,2276.4z M1338.4,2196.7c0,38.5,27.9,66.2,64.3,66.2c35.6,0,63.3-27.9,63.3-66.2
	c0-37.4-27.8-66.2-63.3-66.2C1366.3,2130.4,1338.4,2159.1,1338.4,2196.7z M1385.5,2203.4v39.3h-13.4v-92.2h34.6
	c21.1,0,31.7,8.7,31.7,26.9c0,16.3-9.7,23-23,25l25.9,40.3H1426l-24-39.3H1385.5z M1385.5,2190.9h16.3c12.4,0,22.1-1,22.1-14.5
	c0-11.6-9.5-13.4-19.2-13.4h-19.2L1385.5,2190.9L1385.5,2190.9z"/>
<path class="st1" d="M671,458.8l-70.5,40.8c15.2,22,16,20.7,16,49c0.8,75-0.8,153.8,0,228.8c-0.3,18.6,2,38.2-5.5,62.3l76.4-44.2
	c-17-12.7-16.3-24.9-16.3-40.8c-1.1-32.8,1.1-89.1,0-121.9l73.5-43.6l1.8,111.1c0.9,19.5,2,41.1-8.7,66.2
	c23.4-13.8,50.9-28.9,74.1-42.7c-15.2-11.3-13.8-30-13.8-54.8c-0.3-92.9,0.3-190.7,0-283.7l-66.7,38.6
	c13.3,22.1,13.2,34.1,13.2,58.9c-0.3,21.5,0.3,44.9,0,66.5c-23.6,13.9-49.8,27.9-73.5,41.8C671.3,546.7,670.9,503,671,458.8
	L671,458.8z M1310.2,632.9l-70.4,40.8c13.9,21.9,17.2,38.1,16,62.8c0,79.7,0,159.5,0,239.1c0.1,29.9,0.5,59.8-4.8,92.5l79.8-45.4
	c-16.6-14.5-24-42.1-22-66.8l-3-258.9C1306,673.1,1307.3,651.8,1310.2,632.9L1310.2,632.9z M1380.9,739.5
	c2.1-93.1,20.2-131.7,45.4-131.7c28.3,0,46.7,51,43,218.5c-1.5,68.1-19.7,106.6-39.3,106.6C1399.2,932.9,1377.8,868.4,1380.9,739.5
	L1380.9,739.5z M1524.5,779.9c3.5-175.5-45.7-214.2-92.2-214.2c-68.1,0-104,68.5-106.4,188.2c-2.9,142.2,26.4,229.6,91.9,229.6
	C1485.8,983.5,1522.1,896.2,1524.5,779.9L1524.5,779.9z M1049.9,783.7c-0.4,40.3,1.1,58.6,0.6,99c5.5,3.4,12.8-7.3,16.2-27.8
	c15.7-55,13.8-51.6,39.3-66l5.7,292.7c-0.5,38.8-3.9,53.5-10.4,71.6c25.6-15.3,53.8-29.9,79.5-45.2c-15.1-5.7-23.5-7.7-23.5-46.4
	l-4-297.8c27.6-18.2,37.1-9.8,58.1,39.8c7.7,13.2,15.6,22.4,17.8,12.6c-8.8-70.2-7.4-89.6-13.6-128.7L1049.9,783.7L1049.9,783.7z
	 M1563.7,486l-53.2,30.8c25.6,12.4,39.3,21.5,39.3,83.7c-1.1,96.9-2.6,203.1-3.8,299.8c18-9.8,42.5-24.6,60.4-34.4
	c-16-25.6-18.7-22.6-18.7-64.2c0.9-61.4-0.9-126.2,0-187.6c29.8,60.6,77,161.8,106.8,222.3c4.1-1.1,12.3-2.4,16.5-3.5
	c-10.4-87.1-15.5-200.9-9.2-297.1c3.5-53.9,23.4-143.4-33.8-166l-36.6,26.8c34.4,19.4,37.2,48.4,34.1,83.9l-13.9,152
	c-12.7-20.2-29.3-60.8-45.7-92.4C1592.8,515.7,1580.4,494.8,1563.7,486L1563.7,486z M225.3,1558.8c2.4-22.9-12.2-46.7-41.5-46.7
	c-31.9,0-59.2,25.6-61.3,65.7c-2.1,39.2,34.7,94.7,95.9,94.7c81.7,0,127.5-72.6,131.1-138.2c7.5-147.1-165-160.6-160.1-252.6
	c1.5-29.2,27.8-44.4,52.6-44.4c22.6-0.6,46.2,15.8,49.4,40.8c2.9,19.9-23.2,31.9-6.2,39.2c7.5,1.1,15,1,22.1,3.8
	c11.2,4.1,26.5,24.8,25,1c-1.4-21-1.4-42,0.3-62.8c1-13.2,2.9-26.3,5.5-39.2c2.3-11.3,4.8-27.3-3.1-30.8c-3.5-1.5-9.2-2-18,4.4
	c-5.5,4.3-12.3,6.8-19.4,7.2c-20.2,0.8-36.8-9.5-58.9-9.5c-63.8,0-105.2,50.9-107.9,102.9c-6.2,114.8,168.5,150.5,162.2,253.2
	c-2.1,39.2-30,75.9-64.6,75.9C178.2,1623.2,167.8,1548.2,225.3,1558.8L225.3,1558.8z M658.3,1010.7l-82.6,47.9
	c12.4,24.8,19.6,49.4,19.6,83.9l5.4,295.5l139.7-79.4c-3.5-25.6-3.6-30-3.6-39.7c-1-12.4-1-43.2,2.5-68.9l-24.3,24
	c-13.3,70-19.5,77.7-58.1,90.6L658.3,1010.7L658.3,1010.7z M764.8,949L704,984.2c13.3,18.6,21.7,27,31.5,62.5l44.2,178.1
	c6.2,19.5,12.7,47.5,12.2,104.4l30.4-18.6L905.9,867l-61.4,35.7c3.5,18.6,6.4,37.4,3.3,53.4l-32.5,202.1L764.8,949z M433,1483.1
	l9.8-78.2l56.4-25.4l11.1,66.2c2.6,17.3,0,29.5-2.6,45.1l81.4-46.2c-18.8-19.2-26.5-24.5-35.9-65.6
	c-20.6-98.8-44.9-193.8-65.5-292.5c-16.2,18.2-23,33.4-28.6,60.7l-85.7,420.1l77-43.9C434.2,1509.5,432.4,1498.6,433,1483.1
	L433,1483.1z M446.5,1363.2l26.5-131.8l19.2,109.3L446.5,1363.2z M933.1,1197.3l10.7-79.3l55.7-22.7l10.2,69.2
	c2.4,17.6,1.8,25.6-1,41.5l79.5-45.2c-18.6-19.5-27.8-24.4-36.7-66c-19.4-100.3-39.5-199.8-58.8-300.1
	c-16.5,18.5-23.4,33.9-29.5,61.7l-91.5,427.5l78.2-44.5C933.9,1225.3,932.3,1213.1,933.1,1197.3L933.1,1197.3z M948.1,1080.6
	l27.1-134.8l18.8,112L948.1,1080.6z M1035.8,1580l-2.6-156.2c10.6-8.3,21.9-12.2,31.2-12.3c28.3-0.6,46.5,29.4,46.5,67.4
	C1110.8,1552.7,1073.9,1577.4,1035.8,1580L1035.8,1580z M789.3,1853.2l11.1-73.8l56.8-26l10.1,61.6c2.6,17.8,1.1,31-1.6,47.1
	l82.6-47c-18.8-19.7-28.3-26.6-37.6-68.7c-20.4-101.5-44.6-199.2-65-300.7c-16.3,18.7-25,32.4-30.9,60.6L728.6,1940l78-44.4
	C790,1881.2,788.5,1869,789.3,1853.2L789.3,1853.2z M804.1,1736.6l26.1-142l20,118.9L804.1,1736.6z M1514.9,1110.3l-69.1,40.6
	c7.3,6.5,15.2,12.9,20.4,21.2c25.6,42.5,48.9,85.7,72.3,129.4l3.6,110.3c0,31.9-0.9,38.1-7.2,79.8l72.9-39.3
	c-13.3-31.9-15-32-15-60.3l-2-109.4c13.8-22.5,57.7-85.9,78.7-148.4c21.1-62.8,19-118.1-29.3-138.2l-42.6,12.6
	c39.1,23.9,40,55,32.2,91.7c-9.4,44.4-34.8,99.1-59.3,141l-31.3-59.7C1525.4,1155.5,1517.2,1146.9,1514.9,1110.3L1514.9,1110.3z
	 M1225.4,1281.8l-49.1,22.1c16,29.3,21,39.2,21,71.1l0.6,284c0,9.8-0.4,14.8-0.4,24.6l65.2-36.7c-14.2-18.1-15.7-28.6-15.7-67.6
	l-0.6-163.1l59.9,73.5l46.9-109.4l-3,215l65.6-35.8c-3.6-25.1-4.1-30.7-4.1-52.8l-10.3-246.8c0-44.2-6.7-51.6,3.1-86.2l-54.9,28.4
	l-51.6,183L1225.4,1281.8L1225.4,1281.8z M951.4,1422.8c20.5,18,28.9,32,28.9,77.2l0.1,296.5l68.5-24.4c-13.8-21.4-16-32.5-16-70.6
	l0.9-76.1c1.1,2.3,3.3,7.8,6.4,15.7c15.5,39.6,54.8,134.7,126.2,151.2c25.9,6,40.6,0,59.4-21.5c-83.3-12.4-105.4-64.5-134.6-173
	c49.4-29.3,85.8-108.2,67-166c-15.6-47.6-55.9-63.2-98-60.6C1019.6,1373.9,975,1393.9,951.4,1422.8L951.4,1422.8z M373.2,589.8
	c-0.5,39.7-1,78.2-1.5,118c5.9,3.4,13.4-7.2,17.1-27.3c6.2-63.8,16.8-70.7,49.9-96.5l6,288c-0.5,32.4-1.6,46.9-8.5,69.1
	c27.1-15.1,52.5-31,79.7-46.1c-16-5.5-23.7-7.5-23.7-45.6l0.9-289.1c17.7-0.5,32.5-6,58.8,42c8.2,12.9,16.5,20,18.8,10.4
	c-13.2-65.5-13.9-86.1-18.8-126.2L373.2,589.8z M1020.7,256.2L841.4,360.1c22.1,25.6,31.9,41.2,31.9,66.8
	c0,61.1,2.8,122.3,2.8,183.3c0,41.6-0.3,49.9-10.1,81.8l188.6-105.7l6.4-78.4c-45.4,68.5-77.3,82.7-135.2,117.5v-139
	c25.1-28.9,74.6-24.9,110.5-35.1c26.1-7.4,45-23.7,45-63.1c-50.3,33.2-90.8,21.6-126,45c-10.1,6.7-20.9,16.5-29.5,25.9v-83.8
	c0-34.6,17.3-35.7,34.7-46.7c24.3-11.7,46.9,2,64.7,21.9L1020.7,256.2L1020.7,256.2z"/>
<rect class="st2" width="1955.5" height="2279.4"/>
</svg>
