<svg id="Layer_1" data-name="Layer 1" xmlns="http://www.w3.org/2000/svg" xmlns:xlink="http://www.w3.org/1999/xlink" viewBox="0 0 1223.5 401"><defs><style>.cls-1{fill:none;}.cls-2{clip-path:url(#clip-path);}.cls-3{fill:#fefefe;}.cls-4{fill:#dee2e4;}.cls-5{fill:#f1f2f2;}.cls-6{fill:#b8cae8;}.cls-7{fill:#cad7ed;}.cls-8{fill:#90b0dc;}.cls-9{fill:#5b92cc;}.cls-10{fill:#709dd2;}.cls-11{fill:#80a6d7;}</style><clipPath id="clip-path"><rect class="cls-1" width="1223.5" height="401"/></clipPath></defs><title>mountainscape</title><g class="cls-2"><path class="cls-3" d="M20.4,259.3c3.8-3,6.8-3.6,8.8.8,1.6,3.4,2.8,3.8,6,2a13.53,13.53,0,0,1,10.8-1c10,2.4,18.6-2,27.8-4,5.2-1,10.2-3,15.6-3.8a14.69,14.69,0,0,0,10-5.4c4.2-3,8.4-5.8,14-6.2,3-.2,3.6-3.4,5.2-5.6,11-13.2,26.4-18.2,42.4-22.4a32.54,32.54,0,0,0,4.6-2.2c8.4.6,14-5,19.4-9.8,2.8-2.6,5.6-4.8,9.2-5.2A36.27,36.27,0,0,0,217,184.7c1.4-.4,3.6-1,4-2,8-13.4,23.2-15.4,34-25a10,10,0,0,0,1.6-1.4l1.8-1.4c3.2-1.8,7.39-.13,9.39-4.73,1.6-1,3.41-2.27,4.21-3.87,6.4-1.6,12.8-4,18.8.8,12-4,21.8,5,32.6,5.2,7.8.2,16.4,3.2,24.2-1.4a5.6,5.6,0,0,1,5.6,0,9.91,9.91,0,0,0,12.2,0c.6-.4,1.4-1,2-.8,17.2,5,29.6-8.4,44.6-12,11-2.6,18.4-12.6,26.8-20.8a56.57,56.57,0,0,1,25.6-19.2c3.6-1.4,7.8-.2,10.8-3.2,2.2-3.6,4.4-7.2,8.4-9,4.6-5.8,12.6-7.6,16.2-14.4,1.8-3.2,4-2.8,6,.2a27.06,27.06,0,0,0,7.4,23c2.2,2.4,1.2,5.6,3.2,7.8-.4,3.6,5,8.4-2.6,10.4-.8.2-.2,3.2,1,4.4a33.6,33.6,0,0,0,4.4,14.6c1,5.6,5.6,9.4,7.4,14.6,1.4,8.4,3,17,4.4,25.6.2,1.8.4,3.4,2.6,3.6,2.8.2,3.4-1.8,3-3.8a50.2,50.2,0,0,1,3-25.4c2.6-5,5-10.2,4.4-16.2-1-4.4,2.4-8.8.2-13.2a49.8,49.8,0,0,0-9-19.2,112.87,112.87,0,0,1-9.6-22c-1.2-4.4-3.4-4.8-6.8-2.8a12,12,0,0,1-8.6,1.6,21.65,21.65,0,0,1,10.6-6,5.07,5.07,0,0,0,3.6-2c6-13.6,19.6-18.4,30.2-26.2,9-6.8,15.6-15.8,24.4-22.8,3.8-3,6.8-5,11.4-4.6,10.6,8.6,20.8,18,25.8,31A314.68,314.68,0,0,0,633,80.5c2,3.8,3.8,6.6,8.2,8.2,9,3,14.4,11.4,21.6,17a22.13,22.13,0,0,1,2.4,5.4c2,13,10.8,18.4,22.8,19.8a7.29,7.29,0,0,1,6.8,6.6,19,19,0,0,0,5.8,11.4c4.8,5.2,4,13.6,9.2,18.6,2.4,6.8,4.6,13.8,7.4,20.4,3.2,8,21.2,16,29.4,13.2,2-.6,3.4-1,5.2.4,6.2,5.2,14,8.6,16.4,17.4.6,4.4,4.2,6.8,7.2,9,15.4,10.6,28.2,24.6,44.2,34.4a22.47,22.47,0,0,0,5.6,3.2c8.2,2.2,11.4,8,13.6,15.6,3.8,12.6,13.6,14.8,23.8,5.8a6.09,6.09,0,0,0,1.6-1.6c4.4-12,14.4-11.2,24.2-10.6,5.8.4,9.91-2,13.91-6.76,15-8.4,29.8-16.4,41-30.6,6.19-8.17,14-2.4,20.8,1.2.2,7,2.29,14.76,4.29,21.56a62.48,62.48,0,0,0,2.8,16c4,10.4,6.2,21.6,12,31.6,1.8-1.6,1.6-4,2.4-5.8s-.8-4.4,2-4.6c2.2-.2,2.8,2.4,4,4-.4,5.4,4.4,7.4,7.4,10a58.88,58.88,0,0,1,17.2,27.6c2,6.4,7.4,2.4,9.8,5.8,3-3,2-6,.4-9.2-5.6-10-11-20-16.4-30,.8-9-4.2-15.4-9.2-21.8-3-6.4-5.8-12.8-8.8-19-3-7.4-8.29-15.56-13.09-21.76-3-4.6-2.67-7.6,1.53-11s10-10,13.8-13.84c4.6-4.8,6.85-8.95,14.45-9.35a8.45,8.45,0,0,0,5.5-3.94c4.2-5.6,11.2-8.72,18-10.12,11.8-2.6,15.07-10.3,21.87-18.5,3.2-3.6,6.94-7.09,8.74-11.69,1-1.2,1.6-3,2.8-3.4,11.2-3.8,21.37-10.3,34-4.1,6.2,3,15.23,5.7,21.83,7.9,7.4,5.2,15.4,10.84,23.6,9,11.4-2.6,19.2,2.76,27,8.56a7.11,7.11,0,0,0,2,.4c5,6.4,11.33,9.11,20.12,8.91,11.41-.4,22.68-.91,31.68,9.09,1.4,1.6,3.6.8,5.6,1V323.6c-.4,0-.8-.2-1.2-.2a6.18,6.18,0,0,0-3-4.4c-8.2-9.6-11.4-22.2-19.2-32-1.6-2-2-4.8-4.4-7.4,0,6.4-.4,13,0,19.4.4,5.4-1.6,6-5.8,3.8-3.8-9-11.8-11.2-20.4-12.2a7.08,7.08,0,0,1-5.2-2c-6.6-6.4-14.2-11.8-18.6-20.4-1.8-3.4-3.8-5.6-6.6-.6-.6,1-.8,2.2-2.4,2.2s-4.6-3.4-5.4.2-1,8.2,2.4,11.6c8.4,8.4,16.6,17.2,25,25.6,2.6,4.8,6.2,9.2,7.6,14.6a2.68,2.68,0,0,0,2.2,3h.6l2.8,2c2,4.6,7.2,6.4,10.2,10.2,4.8,6,11.8,10,14.4,18,.8,2.6,4.4,4.4,7.6,5.2a38.75,38.75,0,0,0,19.2,17.4c0,5.6-.4,11.4.2,16.8s-1.2,6.8-6.8,6.8q-504-.3-1008-.2c-72,0-143.7,0-215.7.2-4.4,0-5.2-.8-5.2-5.2.2-37,.2-73.8.2-110.7,1.2-.4,1-1,0-1.4v-8C4.2,271.8,12.4,265.6,20.4,259.3Z"/><path class="cls-4" d="M672.8,220.5a106.52,106.52,0,0,1,4.8-29.6c-6.4,2.2-12.4,7.2-16.6-2,0,3.6.2,7,0,10.6-.4,4.4,2.4,9.6-5.8,11-5.2,1-5,6-.2,11.4.6,4.6,4.6,8.2,4.4,13.2-3.2,5.4,3.2,8.6,3.2,13.2-.2,1.2-.6,3.2-.8,3.2-7.8.2-5.2,5.2-4.2,9.2s-1.2,8.8,1.8,12.6c-.4,5.2,2.2,9.8,3.8,14.4a3.42,3.42,0,0,0,3.2,2.4c2-.2,1.6-2,1.8-3.4.4-5.2,5.4-9.2,4.4-15,3.2-5.4,0-12,3-17.6,5.6-7,2-13.8-.2-20.6-1-4.2-1.8-8.6-2.6-13Z"/><path class="cls-5" d="M1056.71,159.94c1.8,1.6,3.09,4.76,6.09,4.56-1.8,4.6-4.49,7.84-7.69,11.44-6.8,8.2-12.6,17-24.4,19.6a27.14,27.14,0,0,0-17,10.6,6.77,6.77,0,0,1-4.8,3.2c-7.6.4-12,6-16.6,10.8-3.8,3.8-6.6,8.6-10.8,11.8s-5.8,6.4-2.6,11c-5.8,1.8-8.8-6-14.8-4.4-6.8-3.6-15.2-8-20.8-1.2-11,14-26,22.2-41,30.6.6-8.6-6.8-10.6-12.2-12.8s-10.6-5-16-7.2c-1.2-.6-3.2-.2-3.4-2.2s1.4-3,3-3.8c2.8-1.4,7-1.8,5.8-6-1-3.6-5-2.8-8-3.6-8.2-1.6-16.6-3.2-22.6-10.2a28.24,28.24,0,0,0-12.2-8.8c-9-9.6-9.6-21.6-9.2-33.8a18.07,18.07,0,0,0-8.6-16c-2-5-2.2-10.8-9.8-12.8a8.25,8.25,0,0,1-6.4-9.8,6.57,6.57,0,0,1,1.4-3.2c2.8-4.6-.6-5.4-3.8-4.8a63.51,63.51,0,0,1-8.6,1.2c-5-.2-9.4,1-11-7.2-1.2-6.8-9.4-11.4-11.8-18.8a1.6,1.6,0,0,0-2.2-1.2h-.2c-14.4,5.6-27.6,2.2-40.2-5-.2-.2-.2-.4-.4-.6-8.2-9.8-8.2-9.8,3-15.6-5-3.6-8.4-8.6-15.8-9.2-5.8-.4-10.8-4.8-13.6-11a109.49,109.49,0,0,0-9.8-15.2c-1.6-2.2-4-4.2-6.8-4-10.2,1.2-17.4-5.8-25.4-10-7.4-3.8-16.6-5.2-20.8-13.8,5.4-6.6,13.4-8.8,20.8-11,5-1.6,7.8,4.4,10.8,7.4,5.4,5.4,13.6,7.2,18,12.8a80.46,80.46,0,0,0,20.6,18c3.4,2,6.2,2.8,9.4,1,3.8-2,6.8-2.2,8.6,2.8,1.2,3.2,4.8,4,6,.8,1.8-4.4,5-3.8,8.4-4a111.73,111.73,0,0,0,36.2-6c6.2-2.2,11.4-6.2,17.4-8.4,12.6-4.6,26.39-4.84,39.59-3.44a2.43,2.43,0,0,0,1.12,1.81c10,6.2,6.69,16,6.89,25.23v3.6c.4,3.8-1.4,8.8,4,10.4,2.6.8,10.4-8.2,10.6-11.2v-5c0-2-2.6-4.6,0-6s4.4,1.2,6.2,2.8a23,23,0,0,1,6.6,9.6c1.4,4,2.6,7.8,6.8,9.8a4.45,4.45,0,0,1,2.6,4.2c-1,5.2,2.2,9.2,3.2,13.8a4.47,4.47,0,0,0,2.2,4.4c3.4,2,3.2,4.4,2.6,8s-2.2,8.8,5.4,7.2c4.8-.8,1.4,5.6,4.4,7,1,7-2.2,13.8-1.4,20.8.6,4.6,1.8,9.2,7.8,4.2,2.6-2.2,4.8-.8,6.4.8,3,2.8,7.2,4,9.2,8,2.4,10,10.6,17.6,12.2,28,.2,2,2.8,4,4.6,5.6,3.4,3,6,1.8,6.6-2.6.4-3.8.8-7.6-2.4-11a45.5,45.5,0,0,1-8.4-13.6c-1-2.4-1.4-6-5.2-6.4-3.2-5.8,0-10.8,2.2-15.8,1.4-3.2-1.2-9,3-9.4,3.2-.4,2.8,6.2,5.4,8.2,4.6,3.4,3,11.2,9.8,12.8-1.8,4-7.2,8.4-3.8,12.4,4.4,5,6.2,11.8,11,16.4a2.46,2.46,0,0,0,1.6-3.2v-.2c-1.2-6.2-5.2-11.8-1.8-18.8,1-1.8-1.6-5.4-2.6-8,6.2-2.8,4.6,4.4,7.4,6-.2,3.4,1.6,6,3.2,8.6,3,5,7.6,9.4,7.4,16.2-.2,4,3.8,6,6.8,7.8s4.8.2,4.4-3c-.6-5.2-.8-11-5-14.8a54.48,54.48,0,0,1-11.2-15,148.9,148.9,0,0,1-14.6-33.8c-2-6.6-7.6-11.8-7.4-19.4l23.2,3.4c3.2,2.6,7.2,5.4,10.8,2,3-2.6,5-1.8,7.8-.8,9,2.6,17.8,5.4,27.4,4.6,6.4-.4,13.4-1.4,17.6,5.6,0,1,.4,1.2,1.2,1.4l.4,1.4-.2,1.6c-.8,2.6,1.6,4.8,1.4,7.4-.2,7.6,4.6,12.2,10.2,16.4C1047.31,146.54,1050.71,154.54,1056.71,159.94Z"/><path class="cls-6" d="M890.7,254.2c-5.4-2.2-7.22-3-12.62-5.2-1.2-.6-3.2-.2-3.4-2.2s-2-3-.38-3.8c2.8-1.4,7-3.8,5.8-8-1-3.6-5-2.8-8-3.6-8.2-1.6-16.6-2.2-22.6-9.2a28.24,28.24,0,0,0-12.2-8.8l-.46.12c-8.84-9.57-9.29-20.49-9-32.62.28-13.9-9.36-27.59-17-29.59-4.4-1-8.94-4.61-7.94-9.21a6.57,6.57,0,0,1,1.4-3.2c2.8-4.6-.6-7.4-3.8-6.8a63.51,63.51,0,0,1-8.6,1.2c-5-.2-8.4,3-10-5.2-1.2-6.8-9.4-12.4-11.8-19.8-.2-1-2.2-2.2-2.4-2.2-14.25,5.54-34.09-1.44-39-4-8.17-4.41-8.35-9.58,2.85-15.38-5-3.6-10.4-10.6-17.8-11.2-5.8-.4-10.8-2.8-13.6-9-2.8-5.4-5.2-10.4-8.8-15.2-1.6-2.2-5-6.2-7.8-6-9.85.37-15.4-3.8-23.4-8-7.4-3.8-15.64-6.57-23.49-14.76-15.8-3.2-30.51-7.84-46.71-9.24,10.6,8.6,20.8,18,25.8,31a314.68,314.68,0,0,0,16.8,36.4c2,3.8,3.8,6.6,8.2,8.2,9,3,13.7,11.6,21.1,17.2h0a22.13,22.13,0,0,1,2.4,5.4c2,13,10.8,18.4,22.8,19.8a7.29,7.29,0,0,1,6.8,6.6,19,19,0,0,0,5.8,11.4c4.8,5.2,4,13.6,9.2,18.6.11,0,4.92,13.64,7.7,20.2,3.2,8,21.2,16,29.4,13.2,2-.6,3.4-1,5.2.4,6.4,5.2,14.2,8.6,16.6,17.4l.3-.3c.6,4.4,4.2,6.8,7.2,9,15.4,10.6,28.2,24.6,44.2,34.4a22.47,22.47,0,0,0,5.6,3.2c8.2,2.2,11.4,8,13.6,15.6,3.8,12.6,13.6,14.8,23.8,5.8a6.09,6.09,0,0,0,1.6-1.6c4.4-12,15-10.22,24.82-9.62,5.4.4,9.39-3,13.39-7.64C902.91,259.34,896.1,256.4,890.7,254.2Z"/><path class="cls-4" d="M425.8,91.5a33.08,33.08,0,0,0,33,3,25,25,0,0,1,11.4-2c2,.2,4,.2,4.2,3,2.2-3.6,4.4-7.2,8.4-9A84.75,84.75,0,0,0,454,76.7c-17.6-2.8-34.8-6-49.6-17.2a21.55,21.55,0,0,0-15.2-3.4c5,3.6,10.4,6.8,10.6,14a.43.43,0,0,0,.4.4c5.8,1.8,9.2,7.4,14.4,10.4C419,83.4,425,85.2,425.8,91.5Z"/><path class="cls-7" d="M1025.4,335.2c-5.6-10-10-19.7-15.4-29.7.8-9-3.54-17.1-9.68-22.83-3-6.4-5.26-13.16-8.26-19.36-3-7.4-8.35-14.17-13.15-20.37-5.8,1.8-8.8-6-14.8-4.4a89,89,0,0,0,3.49,21.66,62.48,62.48,0,0,0,2.8,16c4,10.4,7,21.5,12.8,31.5,1.8-1.6.8-3.9,1.6-5.7s-.8-4.4,2-4.6c2.2-.2,2.8,2.4,4,4-.4,5.4,4.4,7.4,7.4,10a58.88,58.88,0,0,1,17.2,27.6c2,6.4,7.4,2.4,9.8,5.8C1028.2,341.4,1027.2,338.4,1025.4,335.2Z"/><path class="cls-7" d="M543.19,130.42c-1-4.2,2.51-8.32.31-12.72h.2a54.68,54.68,0,0,0-9-19.2c-.12.23-.24.45-.37.65.06-.12.12-.23.17-.35a112.87,112.87,0,0,1-9.6-22c-1.2-4.4-3.4-4.8-6.8-2.8a12.17,12.17,0,0,1-8.4,1.2l-4.8-2.8a27.06,27.06,0,0,0,7.4,23c2.2,2.4,1.2,5.6,3.2,7.8l.19-.1c-.19,3.58,4.87,8.24-2.59,10.2-.8.2-.2,3.2,1,4.4h-.2a33.6,33.6,0,0,0,4.4,14.6c1,5.6,5.6,9.6,7.4,14.8,1.4,8.4,3,17,4.4,25.6.2,1.8.4,3.4,2.6,3.6,2.8.2,3.4-1.8,3-3.8a52,52,0,0,1,3.2-25.4c2.6-5.2,5.2-10.4,4.4-16.4Z"/><path class="cls-8" d="M271.33,147c-2.4-1.2-5-3.4-7-.2s3,2.2,3.4,4.2A7.69,7.69,0,0,0,271.33,147Z"/><path class="cls-8" d="M257.7,155.9l-1.8,1.4Z"/><path class="cls-7" d="M326.4,211.5l1.2,1.6C327.2,212.5,326.8,212.1,326.4,211.5Z"/><path class="cls-9" d="M940.9,99.7l23.2,3.4c1.8-5,5.6-7,10.8-6.2a82.45,82.45,0,0,0,28-1.8c11.8-2.6,21.8-9,31.4-16a57.73,57.73,0,0,1,20.8-10.2c9.4-2,19-4,27.2-9.4-.8,0-1.6-.4-2.2-.2-12.8,5-23,1.2-33.2-7.6-6.2-5.4-13.8-9.2-20.4-14.8-6.2-5.2-11-9.6-14-17.2-3.4-1.4-4.2-4.8-5.2-7.6C1004,2,1000.4-.4,986,3a154.18,154.18,0,0,0-18.4,6.4c-12.2,6-24.4,10-36.4,16.2-5.2,2.6-10.2,3.2-15.4.6a10.36,10.36,0,0,0-8.4-1c-14.2,6-30.2,8-42.4,18.8,4.6,10,13.2,14,23.2,16,2.4.4,5-.4,6.8,1.6,10.4,11.4,24.2,18.2,36,27.8C935.3,92.1,937.7,96.3,940.9,99.7Z"/><path class="cls-9" d="M425.8,91.5c-.8-6.4-6.8-8.2-11-10.4-5.2-3-8.6-8.4-14.4-10.4-.2,0-.4-.4-.4-.4-.2-7.2-5.6-10.4-10.6-14-4.2-6.2-10.2-7.2-17.2-6.4a49.61,49.61,0,0,1-18.8-.6c-10.8-3-21-.6-31.2,3.2-5,2-10,3.6-15,5.4l22.4,12.2a14,14,0,0,0,15.2,0,9.23,9.23,0,0,1,9.6-.6c9.4,4.4,20.6,5.4,29,11.4a48.33,48.33,0,0,0,32.4,9.4C419,90.1,422.4,91.3,425.8,91.5Z"/><path class="cls-10" d="M106.1,161.7a4.27,4.27,0,0,0-4.2-4.4h-.6c-7.4.4-14.8-1.2-21.8,1-4,1.2-7.6-1.6-11.6-1-7.4,5.4-15.4,10-22,16.6l1.4,2.6c6.8,6,13.4,12.4,23.6,7.2,5.2-6,8.6-14,18.4-15C95.3,168.1,101.9,167.1,106.1,161.7Z"/><path class="cls-4" d="M222.1,91.5c-4-.2-7.6-.6-10-4.6-2.4-4.2-5.4-4.8-9.2-1.2-4.2,3.8-6.8,7.8-14.4,2.4-5.6-4-15.6-.8-22.8,2.6a48.17,48.17,0,0,1-6.6,3c3,5.2,7.4,8.2,13.6,7.8a37.85,37.85,0,0,1,13.4,2.4c10,3,18.6,1,25.2-7C214.1,93.5,218.5,93.3,222.1,91.5Z"/><path class="cls-11" d="M380.6,120.5c5,2,10.4,6.4,13.4-2.6C388.8,115.3,384,114.3,380.6,120.5Z"/><path class="cls-8" d="M1230.1,91.3c-7.6-.8-13.6-5-18.6-10.2-2.4-2.6-3.6-2.6-5.6-.2a141,141,0,0,0-10.2,11.6c-2.4,3.2-4.2,3.8-7.8,2.4-6.6-2.8-13-5.8-16-12.8-1.4-3-4-4.2-6.8-5.2-10.2-3.8-20.2-8.4-31-10.8-7.2-1.6-13-6.4-18.6-10.8-4-3.2-7.6-4.2-12.6-1.6-6.4,3.6-13.4,5.2-20.6,5.8-8.4,5.4-18.2,6.8-27.6,8.8a52.46,52.46,0,0,0-20.6,10.2c-9.6,7-19.6,13.2-31.4,16-9.2,2.2-16.47,3.25-25.87,2.25-5.2-.6-11-2.19-12.73,6.35,3.2,2.6,7,5.8,10.6,2.4,3-2.6,5-1.8,7.8-.8,9,2.6,17.8,5.4,27.4,4.6,6.4-.4,13.4-1.4,17.6,5.6l1.2,1.4.4,1.4s.3,1-.1,1.4c-.8,2.6,1.6,4.8,1.4,7.4v.2c-.2,7.6,6.26,13.76,9.66,16.3s10.92,12.37,16.84,17.7c1.7,1.8,3.1,4,5.9,3.8,1-1.2,1.6-3,2.8-3.4,11.2-3.8,22.2-9.8,34.8-3.6,6.2,3,35.7,18.8,43.9,17,11.4-2.6,18.6,2,26.4,7.8.6.2,13,10.6,21.8,10.4,11.4-.4,23.2-2.2,32.2,7.8,1.4,1.6,3.6.8,5.6,1Z"/><path class="cls-9" d="M1029,119.1a10,10,0,0,1,1.4-1.6h-1C1029.2,118.1,1029.2,118.7,1029,119.1Z"/><path class="cls-9" d="M1027.6,114.7c0,1,.4,1.2,1.2,1.4Z"/><path class="cls-8" d="M979,182.5c-.6-5.2-.8-11-5-14.8a53.88,53.88,0,0,1-11-14.8h-.21a153.39,153.39,0,0,1-14.29-33.8h-.06c-2.05-6.51-7.54-11.68-7.34-19.21-3.4-3.6-6.22-9.68-10.82-12.08C928.08,85.67,905.4,73,895,61.6c-1.8-2-4-1.26-6.2-1.66C878.76,58.11,869.6,54,865,44c-8.4-1-14.9-6.9-22.7-9.7a20.41,20.41,0,0,0-9.8-1.8c.2,1,0,2.4.6,2.8,10,6.2,5.8,16.2,6,25.4v3.6c.4,3.8.6,8.8,6,10.4,2.6.8,10.4-8.2,10.6-11.2v-5c0-2-2.6-4.6,0-6s4.4,1.2,6.2,2.8a23,23,0,0,1,6.6,9.6c1.4,4,.6,7.8,4.8,9.8a4.45,4.45,0,0,1,2.6,4.2c-1,5.2,2.16,15.72,7.2,18.2,3.54,1.74,1.2,4.4.6,8s-2.2,8.8,5.4,7.2c4.8-.8,1.4,5.6,4.4,7h1c.91,6.93-2.21,13.67-1.42,20.6.6,4.6,2.8,9.2,8.8,4.2,2.6-2.2,4.8-.8,6.4.8,3,2.8,7.2,4,9.2,8a2.38,2.38,0,0,1,.94-.18,2.89,2.89,0,0,0-.94.18c2.4,10,10.6,17.6,12.2,28,.2,2,2.8,4,4.6,5.6,3.4,3,6,1.8,6.6-2.6.4-3.8.8-7.6-2.4-11a45.5,45.5,0,0,1-8.4-13.6c-1-2.4-1.4-6-5.2-6.4a2.6,2.6,0,0,1-1.91.95,2.9,2.9,0,0,0,1.91-.95c-3.2-5.8,0-10.8,2.2-15.8,1.4-3.2-1.2-9,3-9.4,3.2-.4,2.8,6.2,5.4,8.2,4.6,3.4,3,11.2,9.8,12.8h0c-1.8,4-7.2,8.4-3.8,12.4,4.4,5,6.2,11.8,11,16.4a2.46,2.46,0,0,0,1.6-3.2v-.2c-1.2-6.2-5.2-11.8-1.8-18.8,1-2-1.6-5.6-2.6-8.2h0c6.2-2.8,4.6,4.4,7.4,6h.1c-.12,3.3,1.63,5.85,3.2,8.4,3,5,7.6,9.4,7.4,16.2-.2,4,3.8,6,6.8,7.8S979.4,185.7,979,182.5Z"/><path class="cls-11" d="M109,161.7c8.2,9.6,19.2,13.4,31,16.2,4.6,1.2,10.6-.2,13.2,5.6,6.2,4.2,12.6,3.4,19,.4a4,4,0,0,1,2.2-.2c12.4,1.6,24.2-.6,36-4.4,11.9-2.2,16.3-13,23.5-20.4,6-5,13.4-6.8,20.6-9,12.8-10,26-19.2,42.2-23,6.6-1.6,12.4,1.2,18.2,3.6,7.8,3.2,15.4,3.2,22.2-1.4a39.15,39.15,0,0,1,24-6.8c4.2,0,8.2-1.2,12.2-1.8a38.18,38.18,0,0,1,7.3.1c3.4-6.2,8.2-5,13.4-2.6,4,.2,7.8-3.2,12.2-.8,4.6,2.6,9.4,2,14.2.2a22.06,22.06,0,0,1,17.8.4,56.57,56.57,0,0,1,25.6-19.2c3.6-1.4,7.8-.2,10.8-3.2-.2-2.6-2.2-2.8-4.2-3a25,25,0,0,0-11.4,2,33.13,33.13,0,0,1-33-3c-3.4-.2-7-1.4-10-1.2a48.33,48.33,0,0,1-32.4-9.4c-8.6-6-19.6-7-29-11.4a9.23,9.23,0,0,0-9.6.6,14.8,14.8,0,0,1-15.2,0L307.2,57.8A279.2,279.2,0,0,0,272,44c-10.8-3.2-14.8-.8-19.4,9.4-3,6.8-4.8,14.8-12.2,19-5,7.6-12,13.2-18.6,19.2-3.6,1.8-8,2-10.8,5.4-6.6,8.2-15.2,10.2-25.2,7a39,39,0,0,0-13.6-2.4,13.91,13.91,0,0,1-13.6-7.8l-2.8-1-1.4-1c-2.4-.8-5.4-1.2-7.2-2.8-3.4-3-6-2.2-8.8.6,2,.8,6-.6,5,3.2-.8,3-3.6.4-5.6,0-.4,0-1-.2-1.4-.2-3.4,3.4-6.6,7-10.2,10-3.2,2.6-6.6,3.2-8.6-1.6-1.6-4-4.6-5-9-5.2-6.6-.4-12.4-3.6-14.4-11.2a79.73,79.73,0,0,0-5-12c-8.2,5.6-16.6,4.8-25.6,1.8C53,70.8,41.8,72.8,31,72.4c-11.2,3.8-14.6,13.2-18.4,23-3.2,8.6-8.8,15.4-18.2,18V156c6.6-1.4,12,4.8,18,4.2,13.8-1.2,24,5,33.4,13.6,6.6-6.4,14.6-11.2,22-16.6.2-1.8.1-1.7.1.1,4-.6,7.4,2.2,11.6,1,7.2-2,14.6-.6,21.8-1a4,4,0,0,1,4.8,3.6v.6h2.8"/><path class="cls-6" d="M420.4,116.7c-4.8,1.6-9.4,2.4-14.2-.2-4.2-2.4-8,1-12.2.8-3,9.6-8.4,5-13.4,3.2l-7.2-.2c-4,.6-8,2-12.2,1.8a39.15,39.15,0,0,0-24,6.8c-6.8,4.8-14.4,4.6-22.2,1.4-5.8-2.4-11.6-5.2-18.2-3.6-16.2,3.8-29.4,13-42.2,23,0,.67-14.6,3.42-20.6,8.42-6.8,7.18-13,17.42-23.6,20.33,0,0-23.7,6.85-36.1,5.25a4.16,4.16,0,0,0-2.2.2c-6.4,3-12.8,3.8-19-.4-2.6-5.8-8.6-4.6-13.2-5.6-11.6-3-22.8-6.6-31-16.2h-2.8c-4.4,5.4-10.8,6.6-16.8,7.2-9.74,1-13.16,8.71-18.31,14.89l-.09-.09c-10.2,5.2-24.9-10-24.9-10-9.4-8.6-19.6-15-33.4-13.6-6,.6-11.2-5.6-18-4.2V277.6c9.6-3.8,17.8-10,25.8-16.4,3.8-3,6.8-3.6,8.8.8,1.6,3.4,3,3.8,6,2A13.53,13.53,0,0,1,46,263c9.8,2.4,18.6-2,27.8-4,5.2-1,10.2-3,15.6-3.8a14.69,14.69,0,0,0,10-5.4h0c4.15-3,8.31-5.7,13.84-6.09,3-.2,3.6-3.4,5.2-5.6h-.12c11-13,26.3-18,42.22-22.2a23.89,23.89,0,0,0,4.4-2.4c8.4.6,14-5,19.4-9.8,2.8-2.6,5.6-4.8,9.2-5.2a36.27,36.27,0,0,0,22.8-11.8l-.06-.2c1.75-.09,4-.08,4.26-.8,8-13.4,23.2-17.4,34-27a.73.73,0,0,1,.2-.6V158a3.82,3.82,0,0,0,1.3-.94l1.8-1.4c3.2-1.8,8,0,10-4.6-.4-2-5.2-1-3.4-4.2s4.6-1,7,.2c6.4-1.6,12.8-4,18.8.8,12-4,21.8,5,32.6,5.2,7.8.2,16.4,3.2,24.2-1.4a5.6,5.6,0,0,1,5.6,0,9.91,9.91,0,0,0,12.2,0c.6-.4,1.4-1,2-.8,17.2,5,29.6-8.4,44.6-12,11-2.6,19.81-11.82,26.8-21.1A23,23,0,0,0,420.4,116.7Z"/><path class="cls-4" d="M271.8,300c10.8,8.6,20.2,18.6,25.2,31.8-3.6,1.6-5.2-1.4-7-3.2-3.6-3.2-6.6-7-11.2-9-1.2,11.6,1.8,18,15.2,31.4,1,2.8,4,3.4,6,5.2,3.4,3.4,6.8,5.2,8.4-1.6,1.2-5,5.2-3.8,8.2-3a57.49,57.49,0,0,1,8,3.6c1.4.6,3.4,2.4,4.4.2,3.8-7.6,6.6-2,9.4.6,1.8,1.6,3.6,4.8,5.8,3.2,5.8-4.2,7.4.6,10.2,3.6a50.79,50.79,0,0,0,9,7.2c4.8,3.4,8.4,3.4,10.2-3.4,1-3.8,3-4.6,7-2.4,7.4,4.2,10.2,2.6,10.8-5,.2-2.8,1.6-2.4,3.4-2,4.2.6,8.2,2.6,14.6,1.6-14.2-14.2-31.2-19.4-47.8-25.8-2.4-6.4-8.4-8.2-13.4-11.6-.8-4,1.4-7,3-10.4,1-2,2-5-1.2-5.2-6.2-.2-11.6-3.8-17.8-3.6a12.57,12.57,0,0,0-9.2,4c-7.4,8-17.6,4.8-26.4-.8-6-3.8-11.6-8-17.2-12.2-2.4-5.2-4-11-10.2-13.2-13.2-7.4-25.6-15.6-35.8-26.8a4.06,4.06,0,0,0-5.2-1.2c5.2,7.8,10.2,15.4,15.2,23,1.6,2.4,3,4-.8,6.2-4.6,2.4,1.2,2.4,1.2,3.8C250.9,294.2,262.4,295,271.8,300Z"/><path class="cls-8" d="M326.2,211.5c-1.4-2.6-3-5.4-4.4-8.2s-3-4.2-6-1.6c-1.6,1.6-3.2,0-4.6-.4a38.09,38.09,0,0,0-9-14.6,32.94,32.94,0,0,1-1.2-6.4c1.2-13-8.4-18.2-17.4-25.4-2.2,12.4,4.2,21,8.8,30.2,4.8,5.4,5.8,12.4,7.6,19-.2,4-.2,7.8-.2,11.8v13.2c.4,3.2,1,6.2,1.6,9.4.8,4.6,3.2,7.2,8.4,7,4.2-.2,8.8-1.4,13.2,1.8-.2-6.6,2.8-12,3.2-18.2.6-4.4,2.2-8.6,1.4-13.2v-3Z"/><path class="cls-8" d="M547.7,180.7a66.94,66.94,0,0,0,2.8,20.8c.4,1.2-.2,3.4,1.8,3.4s2.4-2,2.8-3.6c.6-2.6,1.2-5,2-7.6,3.2-.6,1.6,5.4,5,3.6,3-1.4,1-4.2.6-6.4-.6-3.6-.8-7.2-3.2-10.2-1.8-4.8-1.4-9.8-1.6-14.8v-1.4c1-8.6,7.6-18.6-7.8-22a50,50,0,0,0-4,23.6C542.3,171.5,547.1,175.9,547.7,180.7Z"/><path class="cls-8" d="M614.2,247.1a3.83,3.83,0,0,0,3.4,3.4c2.6,0,2-2.4,2-3.8-.2-4.6,4.2-8.4,2.8-13.2l-.2-11.6.2-8.8c3-6.8,3-15.4,13.8-19.2-13.4-.8-18.6,2.4-22,11.4a38.47,38.47,0,0,1-3.6,6.2c-4,.2-7.8.4-3.8,5.8a17.3,17.3,0,0,1,1.2,4.6c-.8,4.8,1.8,8.2,4.4,11.8C611.8,238.3,613.8,242.5,614.2,247.1Z"/><path class="cls-8" d="M1235.28,364.32V339.78c-3.35-5.36-1.11-11.17-1.34-16.53a6.88,6.88,0,0,0-3.35-4.91,8.11,8.11,0,0,1-.45.83c.16-.37.32-.73.45-1.05-9.15-10.72-12.73-24.79-21.44-35.74-1.78-2.23-2.23-5.36-4.91-8.26,0,7.15-.45,14.52,0,21.66.44,6-1.74,6.68-6.32,4.32-4.27-9.92-13.16-12.36-22.71-13.47a7.88,7.88,0,0,1-5.81-2.24c-7.37-7.14-15.86-13.17-20.77-22.78-2-3.79-4.24-6.25-7.37-.67-.67,1.12-.89,2.46-2.68,2.46s-5.14-3.8-6,.22-1.12,9.16,2.68,13c9.53,9.52,18.62,19.05,27.7,28.58h0c2.91,5.36,6.93,10.28,8.49,16.31a3.14,3.14,0,0,1,3.13,2.68v.67l3.35,2.45c2.23,5.14,8,7.15,11.39,11.39,5.36,6.7,13.17,11.17,16.08,20.1.89,2.91,4.91,4.92,8.48,5.81a27,27,0,0,1,9.39-1.33,26.88,26.88,0,0,0-9.16,1.33A43.27,43.27,0,0,0,1235.51,384V364.35Z"/><path class="cls-7" d="M763.4,271.8c-.4,4.6-2.2,9-1.2,13.6.6,2.6.6,6,5.6,3.6,6.4-3.2,12-.4,14.8,6.4,1.2,3,4.6.6,6,2.6.4,4.8.4,9.8,1.8,14.4,2,6.6,7.8,2.6,11.8,3,3.4.4,4.2-2.4,3.2-5.6-1.6-5.2-.6-11.6-8-13.2-.2-7.4.6-15-6-20.6-1.2-5.8-1.4-11.6-5-17-3-4.6-3.6-10.8-6.2-16-7.6,4.2-5.8,10.2-4.4,16.6s7.4,11,7,18c-3.2.6-5-1.4-5.6-4.2a8.54,8.54,0,0,0-3.2-6c-.2-3.8-3-6.2-5-9a51,51,0,0,0-24.2-35.8c2.6,6.4,4.8,12.2,7.2,18,.8,2,1.6,4.4-1,5.8s-4-.8-5.6-2c-7-5.6-12.2-12.2-14.6-21a13.42,13.42,0,0,0-4.8-6.2A132.62,132.62,0,0,0,743.8,258a11.63,11.63,0,0,1,2.4,5c0,4.4-.2,8.8-.2,13.2a11.22,11.22,0,0,0,8.6,11.4c2.6.8,5,.2,4-3.6s-1.6-8-2.4-12.2a4.08,4.08,0,0,1,4.2-2.8c.2,1.2.4,2.2,1.6,2.8a3.27,3.27,0,0,1,1.4,0Z"/><path class="cls-6" d="M823.41,90.74c6.8-6.6,7.4-14.4,7.2-22.6,1.8-10.6-1.4-19.8-8-27.8a10.35,10.35,0,0,0-5-4.2,2.77,2.77,0,0,0-3.4.6c-.8.8-.2,1.8.4,2.6,6,8.8,7.2,18.8,9,28.8Z"/></g></svg>