<?xml version="1.0" encoding="utf-8"?>
<!-- Generator: Adobe Illustrator 22.1.0, SVG Export Plug-In . SVG Version: 6.00 Build 0)  -->
<svg version="1.1" id="Layer_1" xmlns="http://www.w3.org/2000/svg" xmlns:xlink="http://www.w3.org/1999/xlink" x="0px" y="0px"
	 viewBox="0 0 2400 1500" style="enable-background:new 0 0 2400 1500;" xml:space="preserve">
<style type="text/css">
	.st0{fill:url(#rect3394_1_);}
	.st1{fill:#FFFFFF;}
	.st2{fill:#FFFFFF;fill-opacity:0.68;}
</style>
<title>shooting-star</title>
<g>
	<g id="svg2">
		<g id="layer1">
			
				<linearGradient id="rect3394_1_" gradientUnits="userSpaceOnUse" x1="2114.4834" y1="2088.3271" x2="2114.4834" y2="527.5499" gradientTransform="matrix(-1.77 0 0 -0.96 4942.6357 2004.7941)">
				<stop  offset="0" style="stop-color:#002531"/>
				<stop  offset="1" style="stop-color:#000000"/>
			</linearGradient>
			<rect id="rect3394" class="st0" width="2400" height="1500"/>
			<g id="g4681">
				<circle id="path4204" class="st1" cx="759.5" cy="767.8" r="1.7"/>
				<circle id="path4206" class="st1" cx="1193.1" cy="783.3" r="1.7"/>
				<circle id="path4208" class="st1" cx="525.9" cy="181.4" r="1.7"/>
				<circle id="path4210" class="st1" cx="2048.8" cy="65.3" r="1.7"/>
				<circle id="path4212" class="st1" cx="1506.5" cy="799.5" r="1.7"/>
				<circle id="path4214" class="st1" cx="575.8" cy="996.5" r="1.7"/>
				<circle id="path4216" class="st1" cx="667.5" cy="933.9" r="1.7"/>
				<circle id="path4218" class="st1" cx="289.5" cy="791.1" r="1.7"/>
				<circle id="path4224" class="st1" cx="1144.5" cy="878.7" r="1.7"/>
				<circle id="path4226" class="st1" cx="512.9" cy="946.6" r="1.7"/>
				<circle id="path4228" class="st1" cx="1642.3" cy="624.5" r="3.5"/>
				<circle id="path4230" class="st1" cx="1322.5" cy="836.1" r="3.5"/>
				<circle id="path4232" class="st1" cx="994.7" cy="130.6" r="3.5"/>
				<circle id="path4234" class="st1" cx="986.7" cy="169.4" r="3.5"/>
				<circle id="path4236" class="st1" cx="605.2" cy="197.8" r="3.5"/>
				<circle id="path4238" class="st1" cx="1813.1" cy="1052.6" r="3.5"/>
				<circle id="path4240" class="st1" cx="2309.5" cy="173.8" r="1.6"/>
				<circle id="path4242" class="st1" cx="1157" cy="399.1" r="2.1"/>
				<circle id="path4244" class="st1" cx="1758.6" cy="51" r="1.9"/>
				<circle id="path4246" class="st1" cx="1664.1" cy="1053" r="1.8"/>
				<circle id="path4248" class="st1" cx="32.1" cy="152.6" r="1"/>
				<circle id="path4250" class="st1" cx="1532.3" cy="915.9" r="2.5"/>
				<circle id="path4252" class="st1" cx="546.6" cy="129.5" r="1.4"/>
				<circle id="path4254" class="st1" cx="1909.5" cy="887.3" r="2.2"/>
				<circle id="path4256" class="st1" cx="1996.9" cy="148.8" r="1.4"/>
				<circle id="path4258" class="st1" cx="502.3" cy="521.2" r="2.6"/>
				<circle id="path4260" class="st1" cx="1380.8" cy="981.3" r="1.9"/>
				<circle id="path4262" class="st1" cx="1850.2" cy="1043.4" r="2.2"/>
				<circle id="path4264" class="st1" cx="2164" cy="830.3" r="2.5"/>
				<circle id="path4266" class="st1" cx="719.2" cy="1060.3" r="1.5"/>
				<circle id="path4268" class="st1" cx="820.6" cy="860.6" r="1.8"/>
				<circle id="path4270" class="st1" cx="2013.9" cy="148" r="1.2"/>
				<circle id="path4272" class="st1" cx="817.4" cy="911" r="2.5"/>
				<circle id="path4274" class="st1" cx="2270.7" cy="673.4" r="1"/>
				<circle id="path4276" class="st1" cx="164.6" cy="888.4" r="2.4"/>
				<circle id="path4278" class="st1" cx="2226.3" cy="1049.5" r="2.6"/>
				<circle id="path4280" class="st1" cx="1303.3" cy="809.9" r="1"/>
				<circle id="path4282" class="st1" cx="1978.6" cy="358.3" r="1.1"/>
				<circle id="path4284" class="st1" cx="416.9" cy="262.9" r="2.5"/>
				<circle id="path4286" class="st1" cx="438.6" cy="907.2" r="2.4"/>
				<circle id="path4288" class="st1" cx="1352.6" cy="703.8" r="0.9"/>
				<circle id="path4290" class="st1" cx="2254.6" cy="280.3" r="1.4"/>
				<circle id="path4292" class="st1" cx="1996.9" cy="237.1" r="2.5"/>
				<circle id="path4294" class="st1" cx="1421.4" cy="143.5" r="2.2"/>
				<circle id="path4296" class="st1" cx="2126.7" cy="364.1" r="2.3"/>
				<circle id="path4298" class="st1" cx="1095.2" cy="564.6" r="1.7"/>
				<circle id="path4300" class="st1" cx="409" cy="822.8" r="2.3"/>
				<circle id="path4302" class="st1" cx="1855.4" cy="576.3" r="2.1"/>
				<circle id="path4304" class="st1" cx="195.7" cy="138.3" r="2.3"/>
				<circle id="path4306" class="st1" cx="1612.4" cy="334.4" r="1"/>
				<circle id="path4308" class="st1" cx="919.6" cy="564" r="1.7"/>
				<circle id="path4310" class="st1" cx="1955.9" cy="246.5" r="1.6"/>
				<circle id="path4312" class="st1" cx="2068.1" cy="506.1" r="2.5"/>
				<circle id="path4314" class="st1" cx="116" cy="173.1" r="2.3"/>
				<circle id="path4316" class="st1" cx="2351.1" cy="362.2" r="1.2"/>
				<circle id="path4318" class="st1" cx="1092.5" cy="1001.1" r="1"/>
				<circle id="path4320" class="st1" cx="355.2" cy="723.7" r="2.4"/>
				<circle id="path4322" class="st1" cx="1124.1" cy="493.9" r="2.3"/>
				<circle id="path4324" class="st1" cx="2194.9" cy="885.9" r="1"/>
				<circle id="path4326" class="st1" cx="216.7" cy="1061.4" r="2.3"/>
				<circle id="path4330" class="st1" cx="83.8" cy="636.4" r="2.4"/>
				<circle id="path4332" class="st1" cx="2264.5" cy="205" r="2.4"/>
				<circle id="path4334" class="st1" cx="973.2" cy="614.6" r="1.7"/>
				<circle id="path4336" class="st1" cx="397.7" cy="115.8" r="1.6"/>
				<circle id="path4338" class="st1" cx="1286.3" cy="279.6" r="1.9"/>
				<circle id="path4340" class="st1" cx="1746.6" cy="358.4" r="1.8"/>
				<circle id="path4342" class="st1" cx="350" cy="433.3" r="2.1"/>
				<circle id="path4344" class="st1" cx="2030.7" cy="1011.9" r="2.2"/>
				<circle id="path4346" class="st1" cx="1055.2" cy="690" r="1.6"/>
				<circle id="path4348" class="st1" cx="1469.3" cy="83.6" r="1.9"/>
				<circle id="path4350" class="st1" cx="2000.9" cy="423.1" r="1.8"/>
				<circle id="path4352" class="st1" cx="1248.7" cy="474.6" r="1.6"/>
				<circle id="path4354" class="st1" cx="2206.1" cy="923.2" r="2.2"/>
				<circle id="path4356" class="st1" cx="607.9" cy="261.8" r="1"/>
				<circle id="path4358" class="st1" cx="1055.4" cy="769.8" r="1.6"/>
				<circle id="path4360" class="st1" cx="1814.9" cy="403.6" r="1.6"/>
				<circle id="path4362" class="st1" cx="1146.3" cy="921.6" r="2.2"/>
				<circle id="path4364" class="st1" cx="1510.2" cy="264.8" r="1.6"/>
				<circle id="path4366" class="st1" cx="816.7" cy="531" r="2.3"/>
				<circle id="path4368" class="st1" cx="155.4" cy="338.9" r="1.1"/>
				<circle id="path4370" class="st1" cx="1590.4" cy="57.7" r="1.9"/>
				<circle id="path4372" class="st1" cx="1526.9" cy="876.3" r="2.5"/>
				<circle id="path4374" class="st1" cx="779.8" cy="1008.7" r="2.3"/>
				<circle id="path4376" class="st1" cx="525.6" cy="193.2" r="2.5"/>
				<circle id="path4378" class="st1" cx="728.9" cy="753.3" r="1.8"/>
				<circle id="path4380" class="st1" cx="1848.3" cy="541.7" r="2.3"/>
				<circle id="path4382" class="st1" cx="59.2" cy="1043.7" r="2"/>
				<circle id="path4384" class="st1" cx="2107.7" cy="429.5" r="1.8"/>
				<circle id="path4386" class="st1" cx="1027.8" cy="31.4" r="1.3"/>
				<circle id="path4388" class="st1" cx="1344" cy="102.3" r="1.8"/>
				<circle id="path4390" class="st1" cx="1684.8" cy="285.2" r="1"/>
				<circle id="path4392" class="st1" cx="484.7" cy="361.5" r="1.5"/>
				<circle id="path4394" class="st1" cx="1753.8" cy="314.3" r="1.4"/>
				<circle id="path4396" class="st1" cx="1672.9" cy="1001.9" r="2"/>
				<circle id="path4398" class="st1" cx="349" cy="1007.2" r="2.6"/>
				<circle id="path4400" class="st1" cx="2279.7" cy="507.2" r="2.1"/>
				<circle id="path4402" class="st1" cx="1653.5" cy="169.9" r="1.2"/>
				<circle id="path4404" class="st1" cx="2278.8" cy="1021" r="2.4"/>
				<circle id="path4406" class="st1" cx="2198.3" cy="993.1" r="1"/>
				<circle id="path4408" class="st1" cx="359.3" cy="351.8" r="2.1"/>
				<circle id="path4410" class="st1" cx="168.8" cy="446.8" r="1.1"/>
				<circle id="path4412" class="st1" cx="1453" cy="490.1" r="2.3"/>
				<circle id="path4414" class="st1" cx="1960.9" cy="305.2" r="2.3"/>
				<circle id="path4416" class="st1" cx="1167.4" cy="860.7" r="1.3"/>
				<circle id="path4418" class="st1" cx="2132.8" cy="169.7" r="1"/>
				<circle id="path4420" class="st1" cx="1852.6" cy="507.8" r="2.1"/>
				<circle id="path4422" class="st1" cx="925.5" cy="647.6" r="1.6"/>
				<circle id="path4424" class="st1" cx="1134.5" cy="650.6" r="2.5"/>
				<circle id="path4426" class="st1" cx="444.3" cy="326.2" r="1.4"/>
				<circle id="path4428" class="st1" cx="147.5" cy="979" r="2.1"/>
				<circle id="path4430" class="st1" cx="1587.9" cy="260.1" r="2.2"/>
				<circle id="path4432" class="st1" cx="1338.2" cy="1038.1" r="1.1"/>
				<circle id="path4434" class="st1" cx="638.2" cy="862.5" r="1.7"/>
				<circle id="path4436" class="st1" cx="41.9" cy="162.5" r="2.3"/>
				<circle id="path4438" class="st1" cx="1654.7" cy="514.7" r="0.9"/>
				<circle id="path4440" class="st1" cx="1335.9" cy="838.7" r="1.1"/>
				<circle id="path4442" class="st1" cx="812.1" cy="375.5" r="2.5"/>
				<circle id="path4444" class="st1" cx="2360.6" cy="251.1" r="1.1"/>
				<circle id="path4446" class="st1" cx="741.4" cy="569.4" r="1.6"/>
				<circle id="path4448" class="st1" cx="278.1" cy="798.8" r="2.3"/>
				<circle id="path4450" class="st1" cx="1098.3" cy="918.4" r="2.4"/>
				<circle id="path4452" class="st1" cx="2158.4" cy="118.7" r="1.9"/>
				<circle id="path4454" class="st1" cx="1446" cy="97.6" r="1.7"/>
				<circle id="path4456" class="st1" cx="739.6" cy="218.1" r="1.5"/>
				<circle id="path4458" class="st1" cx="2348.2" cy="473.6" r="2.4"/>
				<circle id="path4460" class="st1" cx="49.9" cy="842.8" r="2.3"/>
				<circle id="path4462" class="st1" cx="947.3" cy="871.4" r="1.7"/>
				<circle id="path4464" class="st1" cx="2286.1" cy="481.2" r="1.3"/>
				<circle id="path4466" class="st1" cx="1328.6" cy="367.6" r="1.5"/>
				<circle id="path4468" class="st1" cx="273.5" cy="792.6" r="2.3"/>
				<circle id="path4470" class="st1" cx="2044.5" cy="834.2" r="1.8"/>
				<circle id="path4472" class="st1" cx="2253.4" cy="547.9" r="1"/>
				<circle id="path4474" class="st1" cx="384.9" cy="587.9" r="1.4"/>
				<circle id="path4476" class="st1" cx="983.4" cy="849.7" r="1.3"/>
				<circle id="path4478" class="st1" cx="751.6" cy="870.5" r="1.2"/>
				<circle id="path4480" class="st1" cx="1462.7" cy="378.9" r="1.6"/>
				<circle id="path4482" class="st1" cx="2064.8" cy="972.2" r="2"/>
				<circle id="path4484" class="st1" cx="859.3" cy="1012.5" r="1.7"/>
				<circle id="path4486" class="st1" cx="1261.2" cy="1022.7" r="1.9"/>
				<circle id="path4488" class="st1" cx="1919" cy="673.6" r="2.1"/>
				<circle id="path4490" class="st1" cx="179.1" cy="1054.4" r="1"/>
				<circle id="path4492" class="st1" cx="777.8" cy="622.2" r="1.5"/>
				<circle id="path4494" class="st1" cx="945.6" cy="736.9" r="2"/>
				<circle id="path4496" class="st1" cx="1648.5" cy="272.2" r="2"/>
				<circle id="path4498" class="st1" cx="1348.2" cy="432.1" r="1.9"/>
				<circle id="path4500" class="st1" cx="2152.3" cy="520.5" r="1.9"/>
				<circle id="path4502" class="st1" cx="1867.2" cy="865.5" r="1.6"/>
				<circle id="path4504" class="st1" cx="366.2" cy="170" r="2"/>
				<circle id="path4506" class="st1" cx="358.1" cy="84" r="2.3"/>
				<circle id="path4508" class="st1" cx="2028.1" cy="723.8" r="0.9"/>
				<circle id="path4510" class="st1" cx="363.4" cy="886.9" r="2.5"/>
				<circle id="path4512" class="st1" cx="708" cy="1058.2" r="2"/>
				<circle id="path4514" class="st1" cx="995.2" cy="296.5" r="1.6"/>
				<circle id="path4516" class="st1" cx="832" cy="344.9" r="1.1"/>
				<circle id="path4518" class="st1" cx="171.3" cy="62.5" r="1.4"/>
				<circle id="path4204-2" class="st2" cx="795.7" cy="1168.4" r="1.7"/>
				<circle id="path4206-2" class="st2" cx="1229.3" cy="1183.8" r="1.7"/>
				<circle id="path4212-1" class="st2" cx="1542.8" cy="1200.1" r="1.7"/>
				<circle id="path4218-7" class="st1" cx="325.7" cy="1191.7" r="1.7"/>
				<circle id="path4224-8" class="st2" cx="1180.7" cy="1279.3" r="1.7"/>
				<circle id="path4230-8" class="st2" cx="1358.7" cy="1236.7" r="3.5"/>
				<circle id="path4254-6" class="st2" cx="1945.7" cy="1287.9" r="2.2"/>
				<circle id="path4264-0" class="st1" cx="2200.2" cy="1230.9" r="2.5"/>
				<circle id="path4268-9" class="st2" cx="856.8" cy="1261.2" r="1.8"/>
				<circle id="path4276-4" class="st1" cx="200.9" cy="1289" r="2.4"/>
				<circle id="path4280-4" class="st2" cx="1339.5" cy="1210.4" r="1"/>
				<circle id="path4300-5" class="st2" cx="445.2" cy="1223.3" r="2.3"/>
				<circle id="path4324-0" class="st1" cx="2231.1" cy="1286.5" r="1"/>
				<circle id="path4358-4" class="st2" cx="1091.6" cy="1170.3" r="1.6"/>
				<circle id="path4372-7" class="st2" cx="1563.1" cy="1276.8" r="2.5"/>
				<circle id="path4378-4" class="st2" cx="765.1" cy="1153.9" r="1.8"/>
				<circle id="path4416-0" class="st2" cx="1203.6" cy="1261.3" r="1.3"/>
				<circle id="path4434-4" class="st2" cx="674.4" cy="1263" r="1.7"/>
				<circle id="path4440-2" class="st2" cx="1372.1" cy="1239.2" r="1.1"/>
				<circle id="path4448-7" class="st1" cx="314.3" cy="1199.4" r="2.3"/>
				<circle id="path4460-7" class="st1" cx="86.1" cy="1243.3" r="2.3"/>
				<circle id="path4462-8" class="st2" cx="983.6" cy="1272" r="1.7"/>
				<circle id="path4470-0" class="st2" cx="2080.7" cy="1234.7" r="1.8"/>
				<circle id="path4476-3" class="st2" cx="1019.6" cy="1250.3" r="1.3"/>
				<circle id="path4478-9" class="st2" cx="787.9" cy="1271" r="1.2"/>
				<circle id="path4502-4" class="st2" cx="1903.4" cy="1266.1" r="1.6"/>
				<circle id="path4510-2" class="st1" cx="399.6" cy="1287.5" r="2.5"/>
			</g>
			<g id="g4677">
				
					<image style="overflow:visible;opacity:0.75;enable-background:new    ;" width="397" height="592" xlink:href="3E8E9D362F4451CB.png"  transform="matrix(0.9975 0 0 0.9975 1756.1749 49.9956)">
				</image>
				<path id="path4522" class="st1" d="M1790.6,595.4l339.2-523.5l-329.2,530.7L1790.6,595.4z"/>
				<g id="path4520">
					
						<image style="overflow:visible;opacity:0.75;enable-background:new    ;" width="38" height="40" xlink:href="3E8E9D362F4451C9.png"  transform="matrix(0.9737 0 0 0.9737 1775.975 580.5764)">
					</image>
					<path class="st1" d="M1801,597.2c0.4,4.5-0.3,10.5-4.8,10.9c-4.5,0.4-8.4-2.8-8.9-7.3c-0.4-4.5,4-7.2,8.5-7.6
						C1798.7,589.8,1803.1,593.5,1801,597.2z"/>
				</g>
			</g>
		</g>
	</g>
</g>
</svg>
