<?xml version="1.0" encoding="utf-8"?>
<!-- Generator: Adobe Illustrator 22.1.0, SVG Export Plug-In . SVG Version: 6.00 Build 0)  -->
<svg version="1.1" id="Layer_1" xmlns="http://www.w3.org/2000/svg" xmlns:xlink="http://www.w3.org/1999/xlink" x="0px" y="0px"
	 viewBox="0 0 2400 389" style="enable-background:new 0 0 2400 389;" xml:space="preserve">
<style type="text/css">
	.st0{display:none;}
	.st1{display:inline;}
	.st2{clip-path:url(#SVGID_2_);}
	.st3{fill:#FFFFFF;}
	.st4{fill:#FFFFFF;stroke:#FFFFFF;stroke-width:2;stroke-linecap:round;stroke-linejoin:round;stroke-miterlimit:10;}
	.st5{opacity:0.75;}
	.st6{fill:none;stroke:#FFFFFF;stroke-width:2;stroke-linecap:round;stroke-linejoin:round;stroke-miterlimit:10;}
	.st7{opacity:0.33;fill:#FFFFFF;enable-background:new    ;}
	.st8{opacity:0.67;fill:#FFFFFF;enable-background:new    ;}
</style>
<title>pillyr-cover</title>
<g class="st0">
	<g class="st1">
		<g>
			<defs>
				<polygon id="SVGID_1_" points="0,388.9 2400,388.9 2400,162.4 1058,162.4 0,162.4 				"/>
			</defs>
			<clipPath id="SVGID_2_">
				<use xlink:href="#SVGID_1_"  style="overflow:visible;"/>
			</clipPath>
			<g class="st2">
				<path class="st3" d="M2395,284.2c-274,17.4-290,81.8-607,81.8c-252.8,0-450.8-136.4-709.9-136.4S533.1,386.5,0,386.5v26.8h2400
					L2395,284.2z"/>
				<g>
					<polygon class="st4" points="556,335.1 580,250 604,335.1 					"/>
					<path class="st4" d="M580.1,315.7c0.1,11.2,0.2,22.5,0.2,33.7"/>
				</g>
				<g>
					<polygon class="st4" points="75.6,390.9 99.6,305.6 123.6,390.9 					"/>
					<path class="st4" d="M99.7,371.4c0.1,11.2,0.2,22.5,0.2,33.7"/>
				</g>
				<g>
					<polygon class="st4" points="-16,423.6 8,338.5 32,423.6 					"/>
					<path class="st4" d="M8.1,404.2c0.1,11.2,0.2,22.5,0.2,33.7"/>
				</g>
				<g>
					<polygon class="st4" points="729.9,320.5 753.9,235.1 777.9,320.5 					"/>
					<path class="st4" d="M754,301c0.1,11.2,0.2,22.5,0.2,33.7"/>
				</g>
				<g>
					<polygon class="st4" points="921.2,287.2 945.2,202 969.2,287.2 					"/>
					<path class="st4" d="M945.3,267.7c0.1,11.2,0.2,22.5,0.2,33.7"/>
				</g>
				<g>
					<polygon class="st4" points="1233.6,277 1257.6,191.6 1281.6,277 					"/>
					<path class="st4" d="M1257.7,257.5c0.1,11.2,0.2,22.5,0.2,33.7"/>
				</g>
				<g>
					<polygon class="st4" points="1378.9,332.6 1402.9,247.4 1426.9,332.6 					"/>
					<path class="st4" d="M1403,313.1c0.1,11.2,0.2,22.5,0.2,33.7"/>
				</g>
				<g>
					<polygon class="st4" points="1602.8,375.5 1626.8,290.2 1650.8,375.5 					"/>
					<path class="st4" d="M1626.9,356c0.1,11.2,0.2,22.5,0.2,33.7"/>
				</g>
				<g>
					<polygon class="st4" points="1830,378.6 1854,293.5 1878,378.6 					"/>
					<path class="st4" d="M1854.1,359.2c0.1,11.2,0.2,22.5,0.2,33.7"/>
				</g>
				<g>
					<polygon class="st4" points="2026,378.1 2050,293 2074,378.1 					"/>
					<path class="st4" d="M2050.1,358.7c0.1,11.2,0.2,22.5,0.2,33.7"/>
				</g>
				<g>
					<polygon class="st4" points="2163.8,339.5 2187.8,254.2 2211.8,339.5 					"/>
					<path class="st4" d="M2188,320c0.1,11.2,0.2,22.5,0.2,33.7"/>
				</g>
				<g>
					<polygon class="st4" points="2211.8,337.6 2226.4,286 2241,337.6 					"/>
					<path class="st4" d="M2226.5,325.9c0,6.8,0.1,13.6,0.1,20.5"/>
				</g>
				<g>
					<polygon class="st4" points="2002.8,389.4 2017.4,337.6 2032,389.4 					"/>
					<path class="st4" d="M2017.5,377.5c0,6.8,0.1,13.6,0.1,20.5"/>
				</g>
				<g>
					<polygon class="st4" points="1453.5,368.6 1468.1,317 1482.6,368.6 					"/>
					<path class="st4" d="M1468.2,356.9c0,6.8,0.1,13.6,0.1,20.5"/>
				</g>
				<g>
					<polygon class="st4" points="1178.4,291.4 1193,239.6 1207.6,291.4 					"/>
					<path class="st4" d="M1193.1,279.5c0,6.8,0.1,13.6,0.1,20.5"/>
				</g>
				<g class="st5">
					<path class="st4" d="M101.3,381.2c0.1,24.4,0.2,48.9,0.3,73.3"/>
					<circle class="st4" cx="101" cy="364" r="38.5"/>
					<line class="st6" x1="101.3" y1="429.4" x2="89.9" y2="415.9"/>
					<line class="st6" x1="112.9" y1="407.5" x2="101.5" y2="421"/>
				</g>
				<g>
					<path class="st4" d="M326.9,368.2c0.1,17.7,0.1,35.4,0.2,53"/>
					<circle class="st4" cx="326.7" cy="355.9" r="27.9"/>
					<line class="st6" x1="326.9" y1="403" x2="318.6" y2="393.2"/>
					<line class="st6" x1="335.3" y1="387.2" x2="327" y2="397"/>
				</g>
				<g>
					<path class="st4" d="M44.9,388.5c0.1,17.7,0.1,35.4,0.2,53"/>
					
						<ellipse transform="matrix(1.817844e-02 -0.9998 0.9998 1.817844e-02 -331.9383 413.868)" class="st4" cx="44.8" cy="375.9" rx="27.9" ry="27.9"/>
					<line class="st6" x1="44.9" y1="423.1" x2="36.6" y2="413.5"/>
					<line class="st6" x1="53.3" y1="407.4" x2="45" y2="417.1"/>
				</g>
				<g>
					<path class="st4" d="M986.9,249.7c0.1,17.7,0.1,35.4,0.2,53"/>
					<circle class="st4" cx="986.7" cy="237.4" r="27.9"/>
					<line class="st6" x1="986.9" y1="284.5" x2="978.6" y2="274.7"/>
					<line class="st6" x1="995.3" y1="268.7" x2="987" y2="278.5"/>
				</g>
				<g class="st5">
					<path class="st4" d="M1221.3,241.5c0.1,17.7,0.1,35.4,0.2,53"/>
					<circle class="st4" cx="1221.1" cy="229" r="27.9"/>
					<line class="st6" x1="1221.3" y1="276.1" x2="1213.1" y2="266.5"/>
					<line class="st6" x1="1229.7" y1="260.4" x2="1221.4" y2="270.1"/>
				</g>
				<g class="st5">
					<path class="st4" d="M1269.6,263.7c0.1,17.7,0.1,35.4,0.2,53"/>
					<circle class="st4" cx="1269.3" cy="251.4" r="27.9"/>
					<line class="st6" x1="1269.6" y1="298.5" x2="1261.3" y2="288.7"/>
					<line class="st6" x1="1277.9" y1="282.7" x2="1269.6" y2="292.5"/>
				</g>
				<g class="st5">
					<path class="st4" d="M921.4,256.2c0.1,17.7,0.1,35.4,0.2,53"/>
					<circle class="st4" cx="921.2" cy="243.7" r="27.9"/>
					<line class="st6" x1="921.4" y1="291" x2="913.1" y2="281.2"/>
					<line class="st6" x1="929.8" y1="275.1" x2="921.5" y2="285"/>
				</g>
				<g>
					<path class="st4" d="M792.8,302c0.1,17.7,0.1,35.4,0.2,53"/>
					<circle class="st4" cx="792.5" cy="289.5" r="27.9"/>
					<line class="st6" x1="792.8" y1="336.6" x2="784.5" y2="327"/>
					<line class="st6" x1="801.1" y1="320.9" x2="792.8" y2="330.6"/>
				</g>
				<g>
					<path class="st4" d="M1213.3,263.7c0.1,17.7,0.1,35.4,0.2,53"/>
					<circle class="st4" cx="1213.1" cy="251.4" r="27.9"/>
					<line class="st6" x1="1213.3" y1="298.5" x2="1205" y2="288.7"/>
					<line class="st6" x1="1221.7" y1="282.7" x2="1213.4" y2="292.5"/>
				</g>
				<g>
					<path class="st4" d="M714.9,322.5c0.1,17.7,0.1,35.4,0.2,53"/>
					<circle class="st4" cx="714.6" cy="310" r="27.9"/>
					<line class="st6" x1="714.9" y1="357.1" x2="706.6" y2="347.4"/>
					<line class="st6" x1="723.2" y1="341.4" x2="715" y2="351.1"/>
				</g>
				<g class="st5">
					<path class="st4" d="M1107.5,209.2c0.1,17.7,0.1,35.4,0.2,53"/>
					<circle class="st4" cx="1107.3" cy="196.7" r="27.9"/>
					<line class="st6" x1="1107.5" y1="244" x2="1099.2" y2="234.1"/>
					<line class="st6" x1="1115.9" y1="228.1" x2="1107.6" y2="238"/>
				</g>
				<g class="st5">
					<path class="st4" d="M366.9,356.7c0.1,17.7,0.1,35.4,0.2,53"/>
					<circle class="st4" cx="366.7" cy="344.2" r="27.9"/>
					<line class="st6" x1="366.9" y1="391.5" x2="358.7" y2="381.7"/>
					<line class="st6" x1="375.3" y1="375.6" x2="367" y2="385.5"/>
				</g>
				<g class="st5">
					<path class="st4" d="M20,361.6c0.1,17.7,0.1,35.4,0.2,53"/>
					
						<ellipse transform="matrix(1.817844e-02 -0.9998 0.9998 1.817844e-02 -329.5923 362.6592)" class="st4" cx="19.9" cy="349.1" rx="27.9" ry="27.9"/>
					<line class="st6" x1="20" y1="396.4" x2="11.7" y2="386.5"/>
					<line class="st6" x1="28.4" y1="380.5" x2="20.1" y2="390.4"/>
				</g>
				<g>
					<path class="st4" d="M1649.6,352.4c0.1,17.7,0.1,35.4,0.2,53"/>
					<circle class="st4" cx="1649.3" cy="340" r="27.9"/>
					<line class="st6" x1="1649.6" y1="387.1" x2="1641.3" y2="377.4"/>
					<line class="st6" x1="1658" y1="371.4" x2="1649.7" y2="381"/>
				</g>
				<g>
					<path class="st4" d="M1888.6,369.2c0.1,17.7,0.1,35.4,0.2,53"/>
					<circle class="st4" cx="1888.3" cy="356.7" r="27.9"/>
					<line class="st6" x1="1888.6" y1="404" x2="1880.3" y2="394.1"/>
					<line class="st6" x1="1897" y1="388.1" x2="1888.7" y2="398"/>
				</g>
				<g>
					<path class="st4" d="M2163.4,315c0.1,17.7,0.1,35.4,0.2,53"/>
					<circle class="st4" cx="2163.1" cy="302.5" r="27.9"/>
					<line class="st6" x1="2163.4" y1="349.7" x2="2155.1" y2="340"/>
					<line class="st6" x1="2171.7" y1="334" x2="2163.5" y2="343.7"/>
				</g>
				<g>
					<path class="st4" d="M2012.5,357.6c0.1,17.7,0.1,35.4,0.2,53"/>
					<circle class="st4" cx="2012.3" cy="345.2" r="27.9"/>
					<line class="st6" x1="2012.5" y1="392.4" x2="2004.3" y2="382.6"/>
					<line class="st6" x1="2020.9" y1="376.6" x2="2012.6" y2="386.4"/>
				</g>
				<g>
					<path class="st4" d="M1816.2,376.5c0.1,17.7,0.1,35.4,0.2,53"/>
					<circle class="st4" cx="1815.9" cy="364" r="27.9"/>
					<line class="st6" x1="1816.2" y1="411.2" x2="1807.9" y2="401.5"/>
					<line class="st6" x1="1824.5" y1="395.5" x2="1816.2" y2="405.1"/>
				</g>
				<g class="st5">
					<path class="st4" d="M1885.8,336.9c0.1,17.7,0.1,35.4,0.2,53"/>
					<circle class="st4" cx="1885.6" cy="324.4" r="27.9"/>
					<line class="st6" x1="1885.8" y1="371.5" x2="1877.5" y2="361.9"/>
					<line class="st6" x1="1894.2" y1="355.7" x2="1885.9" y2="365.5"/>
				</g>
				<g class="st5">
					<path class="st4" d="M2334,286c0.1,17.7,0.1,35.4,0.2,53"/>
					<circle class="st4" cx="2333.7" cy="273.5" r="27.9"/>
					<line class="st6" x1="2334" y1="320.6" x2="2325.7" y2="311"/>
					<line class="st6" x1="2342.3" y1="304.9" x2="2334.1" y2="314.6"/>
				</g>
				<g>
					<g>
						<path class="st4" d="M649.8,337.4c-0.2,0,0.1,43.5,0.3,43.5"/>
					</g>
					<g>
						<path class="st4" d="M675,339.1c-0.9,13.1-11.9,23.4-25.2,23.4s-24.2-10.3-25.1-23.4c-6.8,0-13.1-4.8-14.6-11.7
							c-1.3-5.9,1.6-12.7,6.1-16.2c-9-0.7-16.1-8.3-16.1-17.5c0-9.7,7.8-17.5,17.5-17.5c2.7,0,5.3,0.6,7.6,1.7h0.1
							c0-0.6-0.1-1.1-0.1-1.7c0-13.5,10.9-24.5,24.5-24.5c9.7,0,18.1,5.7,22.1,13.9l0,0c2.9-2.1,6.4-3.3,10.2-3.3
							c9.7,0,17.5,7.8,17.5,17.5c0,5.2-2.3,9.8-5.8,13c6.6,1.6,11.4,7.5,11.4,14.6c0,8.3-6.7,15-15,15c-1,0-2-0.1-3-0.3
							c0,0,0.1,1.5,0.1,2.2C687,331.6,681.8,337.7,675,339.1z"/>
					</g>
				</g>
				<g class="st5">
					<g>
						<path class="st4" d="M798.7,304.1c-0.1,0,0.1,33.1,0.2,33.1"/>
					</g>
					<g>
						<path class="st4" d="M817.9,305.5c-0.7,9.9-9.1,17.8-19.2,17.8c-10.1,0-18.4-7.8-19.1-17.8c-5.2,0-9.9-3.6-11.1-8.9
							c-1-4.5,1.2-9.7,4.6-12.3c-6.9-0.5-12.3-6.3-12.3-13.3c0-7.4,6-13.3,13.3-13.3c2.1,0,4,0.5,5.8,1.3l0,0c0-0.4,0-0.9,0-1.3
							c0-10.3,8.3-18.6,18.6-18.6c7.4,0,13.8,4.3,16.8,10.6l0,0c2.2-1.6,4.9-2.5,7.8-2.5c7.4,0,13.3,6,13.3,13.3
							c0,3.9-1.7,7.5-4.4,9.9c5,1.2,8.7,5.7,8.7,11.1c0,6.3-5.1,11.4-11.4,11.4c-0.8,0-1.6-0.1-2.3-0.2c0,0,0.1,1.1,0.1,1.7
							C827,299.9,823.1,304.5,817.9,305.5z"/>
					</g>
				</g>
				<g class="st5">
					<g>
						<path class="st4" d="M579.2,336.7c-0.1,0,0.1,33.1,0.2,33.1"/>
					</g>
					<g>
						<path class="st4" d="M598.4,338.1c-0.7,9.9-9.1,17.8-19.2,17.8c-10.1,0-18.4-7.8-19.1-17.8c-5.2,0-9.9-3.6-11.1-8.9
							c-1-4.5,1.2-9.7,4.6-12.3c-6.9-0.5-12.3-6.3-12.3-13.3c0-7.4,6-13.3,13.3-13.3c2.1,0,4,0.5,5.8,1.3l0,0c0-0.4,0-0.9,0-1.3
							c0-10.3,8.3-18.6,18.6-18.6c7.4,0,13.8,4.3,16.8,10.6l0,0c2.2-1.6,4.9-2.5,7.8-2.5c7.4,0,13.3,6,13.3,13.3
							c0,3.9-1.7,7.5-4.4,9.9c5,1.2,8.7,5.7,8.7,11.1c0,6.3-5.1,11.4-11.4,11.4c-0.8,0-1.6-0.1-2.3-0.2c0,0,0.1,1.1,0.1,1.7
							C607.5,332.5,603.6,337,598.4,338.1z"/>
					</g>
				</g>
				<g class="st5">
					<g>
						<path class="st4" d="M721.2,318.9c0.1,0-0.1,33.1-0.2,33.1"/>
					</g>
					<g>
						<path class="st4" d="M701.9,320.1c0.7,9.9,9.1,17.8,19.2,17.8c10.1,0,18.4-7.8,19.1-17.8c5.2,0,9.9-3.6,11.1-8.9
							c1-4.5-1.2-9.7-4.6-12.3c6.9-0.5,12.3-6.3,12.3-13.3c0-7.4-6-13.3-13.3-13.3c-2.1,0-4,0.5-5.8,1.3l0,0c0-0.4,0-0.9,0-1.3
							c0-10.3-8.3-18.6-18.6-18.6c-7.4,0-13.8,4.3-16.8,10.6l0,0c-2.2-1.6-4.9-2.5-7.8-2.5c-7.4,0-13.3,6-13.3,13.3
							c0,3.9,1.7,7.5,4.4,9.9c-5,1.2-8.7,5.7-8.7,11.1c0,6.3,5.1,11.4,11.4,11.4c0.8,0,1.6-0.1,2.3-0.2c0,0-0.1,1.1-0.1,1.7
							C692.8,314.5,696.7,319.1,701.9,320.1z"/>
					</g>
				</g>
				<g>
					<g>
						<path class="st4" d="M863.2,286.5c0.2,0-0.1,43.5-0.3,43.5"/>
					</g>
					<g>
						<path class="st4" d="M838,288.4c0.9,13.1,11.9,23.4,25.2,23.4s24.2-10.3,25.1-23.4c6.8,0,13.1-4.8,14.6-11.7
							c1.3-5.9-1.6-12.7-6.1-16.2c9-0.7,16.1-8.3,16.1-17.5c0-9.7-7.8-17.5-17.5-17.5c-2.7,0-5.3,0.6-7.6,1.7h-0.1
							c0-0.6,0.1-1.1,0.1-1.7c0-13.5-10.9-24.5-24.5-24.5c-9.7,0-18.1,5.7-22.1,13.9l0,0c-2.9-2.1-6.4-3.3-10.2-3.3
							c-9.7,0-17.5,7.8-17.5,17.5c0,5.2,2.3,9.8,5.8,13c-6.6,1.6-11.4,7.5-11.4,14.6c0,8.3,6.7,15,15,15c1,0,2-0.1,3-0.3
							c0,0-0.1,1.5-0.1,2.2C826,280.9,831.1,287,838,288.4z"/>
					</g>
				</g>
				<g>
					<g>
						<path class="st4" d="M1139.8,256.1c-0.2,0,0.1,43.5,0.3,43.5"/>
					</g>
					<g>
						<path class="st4" d="M1165,257.9c-0.9,13.1-11.9,23.4-25.2,23.4c-13.3,0-24.2-10.3-25.1-23.4c-6.8,0-13.1-4.8-14.6-11.7
							c-1.3-5.9,1.6-12.7,6.1-16.2c-9-0.7-16.1-8.3-16.1-17.5c0-9.7,7.8-17.5,17.5-17.5c2.7,0,5.3,0.6,7.6,1.7h0.1
							c0-0.6-0.1-1.1-0.1-1.7c0-13.5,10.9-24.5,24.5-24.5c9.7,0,18.2,5.7,22.1,13.9l0,0c2.9-2.1,6.4-3.3,10.2-3.3
							c9.7,0,17.5,7.8,17.5,17.5c0,5.2-2.3,9.8-5.8,13c6.6,1.6,11.4,7.5,11.4,14.6c0,8.3-6.7,15-15,15c-1,0-2-0.1-3-0.3
							c0,0,0.1,1.5,0.1,2.2C1177,250.5,1171.8,256.5,1165,257.9z"/>
					</g>
				</g>
				<g>
					<g>
						<path class="st4" d="M1336.8,294.5c0.2,0-0.1,43.5-0.3,43.5"/>
					</g>
					<g>
						<path class="st4" d="M1311.5,296.2c0.9,13.1,11.9,23.4,25.2,23.4c13.3,0,24.2-10.3,25.1-23.4c6.8,0,13.1-4.8,14.6-11.7
							c1.3-5.9-1.6-12.7-6.1-16.2c9-0.7,16.1-8.3,16.1-17.5c0-9.7-7.8-17.5-17.5-17.5c-2.7,0-5.3,0.6-7.6,1.7h-0.1
							c0-0.6,0.1-1.1,0.1-1.7c0-13.5-10.9-24.5-24.5-24.5c-9.7,0-18.1,5.7-22.1,13.9l0,0c-2.9-2.1-6.4-3.3-10.2-3.3
							c-9.7,0-17.5,7.8-17.5,17.5c0,5.2,2.3,9.8,5.8,13c-6.6,1.6-11.4,7.5-11.4,14.6c0,8.3,6.7,15,15,15c1,0,2-0.1,3-0.3
							c0,0-0.1,1.5-0.1,2.2C1299.5,288.7,1304.7,294.9,1311.5,296.2z"/>
					</g>
				</g>
				<g>
					<g>
						<path class="st4" d="M1552.1,366.2c-0.2,0,0.1,43.5,0.3,43.5"/>
					</g>
					<g>
						<path class="st4" d="M1577.4,368c-0.9,13.1-11.9,23.4-25.2,23.4c-13.3,0-24.2-10.3-25.1-23.4c-6.8,0-13.1-4.8-14.6-11.7
							c-1.3-5.9,1.6-12.7,6.1-16.2c-9-0.7-16.1-8.3-16.1-17.5c0-9.7,7.8-17.5,17.5-17.5c2.7,0,5.3,0.6,7.6,1.7h0.1
							c0-0.6-0.1-1.1-0.1-1.7c0-13.5,10.9-24.5,24.5-24.5c9.7,0,18.1,5.7,22.1,13.9l0,0c2.9-2.1,6.4-3.3,10.2-3.3
							c9.7,0,17.5,7.8,17.5,17.5c0,5.2-2.3,9.8-5.8,13c6.6,1.6,11.4,7.5,11.4,14.6c0,8.3-6.7,15-15,15c-1,0-2-0.1-3-0.3
							c0,0,0.1,1.5,0.1,2.2C1589.4,360.5,1584.2,366.6,1577.4,368z"/>
					</g>
				</g>
				<g>
					<g>
						<path class="st4" d="M1441.7,352.1c-0.2,0,0.1,43.5,0.3,43.5"/>
					</g>
					<g>
						<path class="st4" d="M1467,354c-0.9,13.1-11.9,23.4-25.2,23.4c-13.3,0-24.2-10.3-25.1-23.4c-6.8,0-13.1-4.8-14.6-11.7
							c-1.3-5.9,1.6-12.7,6.1-16.2c-9-0.7-16.1-8.3-16.1-17.5c0-9.7,7.8-17.5,17.5-17.5c2.7,0,5.3,0.6,7.6,1.7h0.1
							c0-0.6-0.1-1.1-0.1-1.7c0-13.5,10.9-24.5,24.5-24.5c9.7,0,18.1,5.7,22.1,13.9l0,0c2.9-2.1,6.4-3.3,10.2-3.3
							c9.7,0,17.5,7.8,17.5,17.5c0,5.2-2.3,9.8-5.8,13c6.6,1.6,11.4,7.5,11.4,14.6c0,8.3-6.7,15-15,15c-1,0-2-0.1-3-0.3
							c0,0,0.1,1.5,0.1,2.2C1478.9,346.5,1473.8,352.5,1467,354z"/>
					</g>
				</g>
				<g>
					<g>
						<path class="st4" d="M1695.2,382.9c-0.2,0,0.1,43.5,0.3,43.5"/>
					</g>
					<g>
						<path class="st4" d="M1720.4,384.5c-0.9,13.1-11.9,23.4-25.2,23.4c-13.3,0-24.2-10.3-25.1-23.4c-6.8,0-13.1-4.8-14.6-11.7
							c-1.3-5.9,1.6-12.7,6.1-16.2c-9-0.7-16.1-8.3-16.1-17.5c0-9.7,7.8-17.5,17.5-17.5c2.7,0,5.3,0.6,7.6,1.7h0.1
							c0-0.6-0.1-1.1-0.1-1.7c0-13.5,10.9-24.5,24.5-24.5c9.7,0,18.1,5.7,22.1,13.9l0,0c2.9-2.1,6.4-3.3,10.2-3.3
							c9.7,0,17.5,7.8,17.5,17.5c0,5.2-2.3,9.8-5.8,13c6.6,1.6,11.4,7.5,11.4,14.6c0,8.3-6.7,15-15,15c-1,0-2-0.1-3-0.3
							c0,0,0.1,1.5,0.1,2.2C1732.4,377.1,1727.3,383.1,1720.4,384.5z"/>
					</g>
				</g>
				<g class="st5">
					<g>
						<path class="st4" d="M2195.6,322.5c-0.2,0,0.1,43.5,0.3,43.5"/>
					</g>
					<g>
						<path class="st4" d="M2220.8,324.1c-0.9,13.1-11.9,23.4-25.2,23.4s-24.2-10.3-25.1-23.4c-6.8,0-13.1-4.8-14.6-11.7
							c-1.3-5.9,1.6-12.7,6.1-16.2c-9-0.7-16.1-8.3-16.1-17.5c0-9.7,7.8-17.5,17.5-17.5c2.7,0,5.3,0.6,7.6,1.7h0.1
							c0-0.6-0.1-1.1-0.1-1.7c0-13.5,10.9-24.5,24.5-24.5c9.7,0,18.1,5.7,22.1,13.9l0,0c2.9-2.1,6.4-3.3,10.2-3.3
							c9.7,0,17.5,7.8,17.5,17.5c0,5.2-2.3,9.8-5.8,13c6.6,1.6,11.4,7.5,11.4,14.6c0,8.3-6.7,15-15,15c-1,0-2-0.1-3-0.3
							c0,0,0.1,1.5,0.1,2.2C2232.8,316.7,2227.7,322.7,2220.8,324.1z"/>
					</g>
				</g>
				<g>
					<g>
						<path class="st4" d="M1772.6,378c0.2,0-0.1,43.5-0.3,43.5"/>
					</g>
					<g>
						<path class="st4" d="M1747.3,379.9c0.9,13.1,11.9,23.4,25.2,23.4c13.3,0,24.2-10.3,25.1-23.4c6.8,0,13.1-4.8,14.6-11.7
							c1.3-5.9-1.6-12.7-6.1-16.2c9-0.7,16.1-8.3,16.1-17.5c0-9.7-7.8-17.5-17.5-17.5c-2.7,0-5.3,0.6-7.6,1.7h-0.1
							c0-0.6,0.1-1.1,0.1-1.7c0-13.5-10.9-24.5-24.5-24.5c-9.7,0-18.2,5.7-22.1,13.9l0,0c-2.9-2.1-6.4-3.3-10.2-3.3
							c-9.7,0-17.5,7.8-17.5,17.5c0,5.2,2.3,9.8,5.8,13c-6.6,1.6-11.4,7.5-11.4,14.6c0,8.3,6.7,15,15,15c1,0,2-0.1,3-0.3
							c0,0-0.1,1.5-0.1,2.2C1735.4,372.4,1740.5,378.5,1747.3,379.9z"/>
					</g>
				</g>
				<g class="st5">
					<g>
						<path class="st4" d="M1815.8,378c0.2,0-0.1,43.5-0.3,43.5"/>
					</g>
					<g>
						<path class="st4" d="M1790.6,379.9c0.9,13.1,11.9,23.4,25.2,23.4c13.3,0,24.2-10.3,25.1-23.4c6.8,0,13.1-4.8,14.6-11.7
							c1.3-5.9-1.6-12.7-6.1-16.2c9-0.7,16.1-8.3,16.1-17.5c0-9.7-7.8-17.5-17.5-17.5c-2.7,0-5.3,0.6-7.6,1.7h-0.1
							c0-0.6,0.1-1.1,0.1-1.7c0-13.5-10.9-24.5-24.5-24.5c-9.7,0-18.2,5.7-22.1,13.9l0,0c-2.9-2.1-6.4-3.3-10.2-3.3
							c-9.7,0-17.5,7.8-17.5,17.5c0,5.2,2.3,9.8,5.8,13c-6.6,1.6-11.4,7.5-11.4,14.6c0,8.3,6.7,15,15,15c1,0,2-0.1,3-0.3
							c0,0-0.1,1.5-0.1,2.2C1778.6,372.4,1783.8,378.5,1790.6,379.9z"/>
					</g>
				</g>
				<g class="st5">
					<g>
						<path class="st4" d="M1499.6,357c0.2,0-0.1,43.5-0.3,43.5"/>
					</g>
					<g>
						<path class="st4" d="M1474.4,358.9c0.9,13.1,11.9,23.4,25.2,23.4c13.3,0,24.2-10.3,25.1-23.4c6.8,0,13.1-4.8,14.6-11.7
							c1.3-5.9-1.6-12.7-6.1-16.2c9-0.7,16.1-8.3,16.1-17.5c0-9.7-7.8-17.5-17.5-17.5c-2.7,0-5.3,0.6-7.6,1.7h-0.1
							c0-0.6,0.1-1.1,0.1-1.7c0-13.5-10.9-24.5-24.5-24.5c-9.7,0-18.2,5.7-22.1,13.9l0,0c-2.9-2.1-6.4-3.3-10.2-3.3
							c-9.7,0-17.5,7.8-17.5,17.5c0,5.2,2.3,9.8,5.8,13c-6.6,1.6-11.4,7.5-11.4,14.6c0,8.3,6.7,15,15,15c1,0,2-0.1,3-0.3
							c0,0-0.1,1.5-0.1,2.2C1462.4,351.5,1467.5,357.5,1474.4,358.9z"/>
					</g>
				</g>
				<g class="st5">
					<g>
						<path class="st4" d="M1605.5,396.5c0.2,0-0.1,43.5-0.3,43.5"/>
					</g>
					<g>
						<path class="st4" d="M1580.3,398.4c0.9,13.1,11.9,23.4,25.2,23.4c13.3,0,24.2-10.3,25.1-23.4c6.8,0,13.1-4.8,14.6-11.7
							c1.3-5.9-1.6-12.7-6.1-16.2c9-0.7,16.1-8.3,16.1-17.5c0-9.7-7.8-17.5-17.5-17.5c-2.7,0-5.3,0.6-7.6,1.7h-0.1
							c0-0.6,0.1-1.1,0.1-1.7c0-13.5-10.9-24.5-24.5-24.5c-9.7,0-18.1,5.7-22.1,13.9l0,0c-2.9-2.1-6.4-3.3-10.2-3.3
							c-9.7,0-17.5,7.8-17.5,17.5c0,5.2,2.3,9.8,5.8,13c-6.6,1.6-11.4,7.5-11.4,14.6c0,8.3,6.7,15,15,15c1,0,2-0.1,3-0.3
							c0,0-0.1,1.5-0.1,2.2C1568.3,390.9,1573.4,397,1580.3,398.4z"/>
					</g>
				</g>
				<g class="st5">
					<g>
						<path class="st4" d="M2012,359.7c-0.2,0,0.1,43.5,0.3,43.5"/>
					</g>
					<g>
						<path class="st4" d="M2037.2,361.5c-0.9,13.1-11.9,23.4-25.2,23.4c-13.3,0-24.2-10.3-25.1-23.4c-6.8,0-13.1-4.8-14.6-11.7
							c-1.3-5.9,1.6-12.7,6.1-16.2c-9-0.7-16.1-8.3-16.1-17.5c0-9.7,7.8-17.5,17.5-17.5c2.7,0,5.3,0.6,7.6,1.7h0.1
							c0-0.6-0.1-1.1-0.1-1.7c0-13.5,10.9-24.5,24.5-24.5c9.7,0,18.1,5.7,22.1,13.9l0,0c2.9-2.1,6.4-3.3,10.2-3.3
							c9.7,0,17.5,7.8,17.5,17.5c0,5.2-2.3,9.8-5.8,13c6.6,1.6,11.4,7.5,11.4,14.6c0,8.3-6.7,15-15,15c-1,0-2-0.1-3-0.3
							c0,0,0.1,1.5,0.1,2.2C2049.2,354,2044.1,360.1,2037.2,361.5z"/>
					</g>
				</g>
				<g class="st5">
					<g>
						<path class="st4" d="M1393.4,320.6c-0.2,0,0.1,43.5,0.3,43.5"/>
					</g>
					<g>
						<path class="st4" d="M1418.7,322.5c-0.9,13.1-11.9,23.4-25.2,23.4c-13.3,0-24.2-10.3-25.1-23.4c-6.8,0-13.1-4.8-14.6-11.7
							c-1.3-5.9,1.6-12.7,6.1-16.2c-9-0.7-16.1-8.3-16.1-17.5c0-9.7,7.8-17.5,17.5-17.5c2.7,0,5.3,0.6,7.6,1.7h0.1
							c0-0.6-0.1-1.1-0.1-1.7c0-13.5,10.9-24.5,24.5-24.5c9.7,0,18.1,5.7,22.1,13.9l0,0c2.9-2.1,6.4-3.3,10.2-3.3
							c9.7,0,17.5,7.8,17.5,17.5c0,5.2-2.3,9.8-5.8,13c6.6,1.6,11.4,7.5,11.4,14.6c0,8.3-6.7,15-15,15c-1,0-2-0.1-3-0.3
							c0,0,0.1,1.5,0.1,2.2C1430.6,315,1425.5,321,1418.7,322.5z"/>
					</g>
				</g>
				<g>
					<g>
						<path class="st4" d="M1934,371.9c-0.2,0,0.1,43.5,0.3,43.5"/>
					</g>
					<g>
						<path class="st4" d="M1959.2,373.6c-0.9,13.1-11.9,23.4-25.2,23.4c-13.3,0-24.2-10.3-25.1-23.4c-6.8,0-13.1-4.8-14.6-11.7
							c-1.3-5.9,1.6-12.7,6.1-16.2c-9-0.7-16.1-8.3-16.1-17.5c0-9.7,7.8-17.5,17.5-17.5c2.7,0,5.3,0.6,7.6,1.7h0.1
							c0-0.6-0.1-1.1-0.1-1.7c0-13.5,10.9-24.5,24.5-24.5c9.7,0,18.2,5.7,22.1,13.9l0,0c2.9-2.1,6.4-3.3,10.2-3.3
							c9.7,0,17.5,7.8,17.5,17.5c0,5.2-2.3,9.8-5.8,13c6.6,1.6,11.4,7.5,11.4,14.6c0,8.3-6.7,15-15,15c-1,0-2-0.1-3-0.3
							c0,0,0.1,1.5,0.1,2.2C1971.2,366.2,1966.1,372.2,1959.2,373.6z"/>
					</g>
				</g>
				<g>
					<g>
						<path class="st4" d="M2276.4,313.1c-0.2,0,0.1,43.5,0.3,43.5"/>
					</g>
					<g>
						<path class="st4" d="M2301.6,314.9c-0.9,13.1-11.9,23.4-25.2,23.4s-24.2-10.3-25.1-23.4c-6.8,0-13.1-4.8-14.6-11.7
							c-1.3-5.9,1.6-12.7,6.1-16.2c-9-0.7-16.1-8.3-16.1-17.5c0-9.7,7.8-17.5,17.5-17.5c2.7,0,5.3,0.6,7.6,1.7h0.1
							c0-0.6-0.1-1.1-0.1-1.7c0-13.5,10.9-24.5,24.5-24.5c9.7,0,18.1,5.7,22.1,13.9l0,0c2.9-2.1,6.4-3.3,10.2-3.3
							c9.7,0,17.5,7.8,17.5,17.5c0,5.2-2.3,9.8-5.8,13c6.6,1.6,11.4,7.5,11.4,14.6c0,8.3-6.7,15-15,15c-1,0-2-0.1-3-0.3
							c0,0,0.1,1.5,0.1,2.2C2313.6,307.5,2308.4,313.5,2301.6,314.9z"/>
					</g>
				</g>
				<g>
					<g>
						<path class="st4" d="M2100.6,354c0.2,0-0.1,43.5-0.3,43.5"/>
					</g>
					<g>
						<path class="st4" d="M2075.4,355.7c0.9,13.1,11.9,23.4,25.2,23.4s24.2-10.3,25.1-23.4c6.8,0,13.1-4.8,14.6-11.7
							c1.3-5.9-1.6-12.7-6.1-16.2c9-0.7,16.1-8.3,16.1-17.5c0-9.7-7.8-17.5-17.5-17.5c-2.7,0-5.3,0.6-7.6,1.7h-0.1
							c0-0.6,0.1-1.1,0.1-1.7c0-13.5-10.9-24.5-24.5-24.5c-9.7,0-18.2,5.7-22.1,13.9l0,0c-2.9-2.1-6.4-3.3-10.2-3.3
							c-9.7,0-17.5,7.8-17.5,17.5c0,5.2,2.3,9.8,5.8,13c-6.6,1.6-11.4,7.5-11.4,14.6c0,8.3,6.7,15,15,15c1,0,2-0.1,3-0.3
							c0,0-0.1,1.5-0.1,2.2C2063.4,348.4,2068.5,354.4,2075.4,355.7z"/>
					</g>
				</g>
				<g>
					<g>
						<path class="st4" d="M501.3,362.5c0.2,0-0.1,43.5-0.3,43.5"/>
					</g>
					<g>
						<path class="st4" d="M476.1,364.1c0.9,13.1,11.9,23.4,25.2,23.4s24.2-10.3,25.1-23.4c6.8,0,13.1-4.8,14.6-11.7
							c1.3-5.9-1.6-12.7-6.1-16.2c9-0.7,16.1-8.3,16.1-17.5c0-9.7-7.8-17.5-17.5-17.5c-2.7,0-5.3,0.6-7.6,1.7h-0.1
							c0-0.6,0.1-1.1,0.1-1.7c0-13.5-10.9-24.5-24.5-24.5c-9.7,0-18.1,5.7-22.1,13.9l0,0c-2.9-2.1-6.4-3.3-10.2-3.3
							c-9.7,0-17.5,7.8-17.5,17.5c0,5.2,2.3,9.8,5.8,13c-6.6,1.6-11.4,7.5-11.4,14.6c0,8.3,6.7,15,15,15c1,0,2-0.1,3-0.3
							c0,0-0.1,1.5-0.1,2.2C464.1,356.7,469.3,362.7,476.1,364.1z"/>
					</g>
				</g>
				<g class="st5">
					<g>
						<path class="st4" d="M278,387.5c0.2,0-0.1,43.5-0.3,43.5"/>
					</g>
					<g>
						<path class="st4" d="M252.8,389.4c0.9,13.1,11.9,23.4,25.2,23.4s24.2-10.3,25.1-23.4c6.8,0,13.1-4.8,14.6-11.7
							c1.3-5.9-1.6-12.7-6.1-16.2c9-0.7,16.1-8.3,16.1-17.5c0-9.7-7.8-17.5-17.5-17.5c-2.7,0-5.3,0.6-7.6,1.7h-0.1
							c0-0.6,0.1-1.1,0.1-1.7c0-13.5-10.9-24.5-24.5-24.5c-9.7,0-18.1,5.7-22.1,13.9l0,0c-2.9-2.1-6.4-3.3-10.2-3.3
							c-9.7,0-17.5,7.8-17.5,17.5c0,5.2,2.3,9.8,5.8,13c-6.6,1.6-11.4,7.5-11.4,14.6c0,8.3,6.7,15,15,15c1,0,2-0.1,3-0.3
							c0,0-0.1,1.5-0.1,2.2C240.8,381.9,246,388,252.8,389.4z"/>
					</g>
				</g>
				<g>
					<g>
						<path class="st4" d="M156.9,409.1c-0.2,0,0.1,43.5,0.3,43.5"/>
					</g>
					<g>
						<path class="st4" d="M182.2,411c-0.9,13.1-11.9,23.4-25.2,23.4S132.8,424,131.9,411c-6.8,0-13.1-4.8-14.6-11.7
							c-1.3-5.9,1.6-12.7,6.1-16.2c-9-0.7-16.1-8.3-16.1-17.5c0-9.7,7.8-17.5,17.5-17.5c2.7,0,5.3,0.6,7.6,1.7h0.1
							c0-0.6-0.1-1.1-0.1-1.7c0-13.5,10.9-24.5,24.5-24.5c9.7,0,18.1,5.7,22.1,13.9l0,0c2.9-2.1,6.4-3.3,10.2-3.3
							c9.7,0,17.5,7.8,17.5,17.5c0,5.2-2.3,9.8-5.8,13c6.6,1.6,11.4,7.5,11.4,14.6c0,8.3-6.7,15-15,15c-1,0-2-0.1-3-0.3
							c0,0,0.1,1.5,0.1,2.2C194.1,403.5,189,409.5,182.2,411z"/>
					</g>
				</g>
				<g>
					<g>
						<path class="st4" d="M421.2,384.5c-0.2,0,0.1,49,0.3,49"/>
					</g>
					<g>
						<path class="st4" d="M449.7,386.5c-1,14.7-13.5,26.4-28.5,26.4s-27.3-11.6-28.3-26.4c-7.7-0.1-14.7-5.4-16.5-13.2
							c-1.5-6.6,1.8-14.4,6.9-18.3c-10.2-0.8-18.2-9.4-18.2-19.7c0-10.9,8.8-19.7,19.7-19.7c3.1,0,5.9,0.7,8.5,1.9h0.1
							c0-0.6-0.1-1.3-0.1-1.9c0-15.2,12.3-27.6,27.6-27.6c11,0,20.5,6.4,24.9,15.7l0,0c3.2-2.3,7.2-3.7,11.5-3.7
							c10.9,0,19.7,8.8,19.7,19.7c0,5.8-2.5,11.1-6.6,14.7c7.4,1.8,12.9,8.5,12.9,16.4c0,9.4-7.6,16.9-16.9,16.9
							c-1.2,0-2.3-0.1-3.4-0.3c0,0,0.1,1.6,0.1,2.5C463.2,378.1,457.4,385,449.7,386.5z"/>
					</g>
				</g>
				<g>
					<g>
						<path class="st4" d="M1047.2,262.9c-0.2,0,0.1,49,0.3,49"/>
					</g>
					<g>
						<path class="st4" d="M1075.7,264.9c-1,14.7-13.5,26.4-28.5,26.4s-27.3-11.6-28.3-26.4c-7.7-0.1-14.7-5.4-16.5-13.2
							c-1.5-6.6,1.8-14.4,6.9-18.3c-10.2-0.8-18.2-9.4-18.2-19.7c0-10.9,8.8-19.7,19.7-19.7c3.1,0,5.9,0.7,8.5,1.9h0.1
							c0-0.6-0.1-1.3-0.1-1.9c0-15.2,12.3-27.6,27.6-27.6c11,0,20.5,6.4,24.9,15.7l0,0c3.2-2.3,7.2-3.7,11.5-3.7
							c10.9,0,19.7,8.8,19.7,19.7c0,5.8-2.5,11.1-6.6,14.7c7.4,1.8,12.9,8.5,12.9,16.4c0,9.4-7.6,16.9-16.9,16.9
							c-1.2,0-2.3-0.1-3.4-0.3c0,0,0.1,1.6,0.1,2.5C1089.2,256.5,1083.4,263.2,1075.7,264.9z"/>
					</g>
				</g>
				<g>
					<g>
						<path class="st4" d="M2258.2,352c-0.2,0,0.1,49,0.3,49"/>
					</g>
					<g>
						<path class="st4" d="M2286.7,354c-1,14.7-13.5,26.4-28.5,26.4s-27.3-11.6-28.3-26.4c-7.7-0.1-14.7-5.4-16.5-13.2
							c-1.5-6.6,1.8-14.4,6.9-18.3c-10.2-0.8-18.2-9.4-18.2-19.7c0-10.9,8.8-19.7,19.7-19.7c3.1,0,5.9,0.7,8.5,1.9h0.1
							c0-0.6-0.1-1.3-0.1-1.9c0-15.2,12.3-27.6,27.6-27.6c11,0,20.5,6.4,24.9,15.7l0,0c3.2-2.3,7.2-3.7,11.5-3.7
							c10.9,0,19.7,8.8,19.7,19.7c0,5.8-2.5,11.1-6.6,14.7c7.4,1.8,12.9,8.5,12.9,16.4c0,9.4-7.6,16.9-16.9,16.9
							c-1.2,0-2.3-0.1-3.4-0.3c0,0,0.1,1.6,0.1,2.5C2300.2,345.5,2294.4,352.5,2286.7,354z"/>
					</g>
				</g>
				<g>
					<g>
						<path class="st4" d="M2389.8,293c-0.2,0,0.1,49,0.3,49"/>
					</g>
					<g>
						<path class="st4" d="M2418.3,295c-1,14.7-13.5,26.4-28.5,26.4s-27.3-11.6-28.3-26.4c-7.7-0.1-14.7-5.4-16.5-13.2
							c-1.5-6.6,1.8-14.4,6.9-18.3c-10.2-0.8-18.2-9.4-18.2-19.7c0-10.9,8.8-19.7,19.7-19.7c3.1,0,5.9,0.7,8.5,1.9h0.1
							c0-0.6-0.1-1.3-0.1-1.9c0-15.2,12.3-27.6,27.6-27.6c11,0,20.5,6.4,24.9,15.7l0,0c3.2-2.3,7.2-3.7,11.5-3.7
							c10.9,0,19.7,8.8,19.7,19.7c0,5.8-2.5,11.1-6.6,14.7c7.4,1.8,12.9,8.5,12.9,16.4c0,9.4-7.6,16.9-16.9,16.9
							c-1.2,0-2.3-0.1-3.4-0.3c0,0,0.1,1.6,0.1,2.5C2431.8,286.6,2426,293.5,2418.3,295z"/>
					</g>
				</g>
				<g>
					<g>
						<path class="st4" d="M240,391.2c0.2,0-0.1,39.7-0.3,39.7"/>
					</g>
					<g>
						<path class="st4" d="M216.9,392.9c0.8,11.9,10.9,21.4,23.1,21.4c12.1,0,22.1-9.4,22.9-21.4c6.2,0,11.9-4.4,13.4-10.7
							c1.2-5.4-1.5-11.7-5.6-14.8c8.2-0.6,14.7-7.6,14.7-16c0-8.8-7.2-16-16-16c-2.5,0-4.8,0.6-6.9,1.6h-0.1c0-0.5,0.1-1,0.1-1.6
							c0-12.3-10-22.4-22.4-22.4c-8.9,0-16.6,5.2-20.2,12.7l0,0c-2.6-1.9-5.9-3-9.3-3c-8.8,0-16,7.2-16,16c0,4.7,2.1,9,5.3,11.9
							c-6,1.5-10.5,6.9-10.5,13.3c0,7.6,6.1,13.7,13.7,13.7c0.9,0,1.9-0.1,2.8-0.3c0,0-0.1,1.3-0.1,2
							C206,386,210.7,391.5,216.9,392.9z"/>
					</g>
				</g>
			</g>
		</g>
	</g>
</g>
<polygon class="st7" points="1192.2,294 2401.3,0 2400,294 "/>
<polygon class="st7" points="1192.2,294 -1.3,0 0,294 "/>
<polygon class="st3" points="0,389 -1.3,193 1192.2,294 2401.3,193 2400,389 "/>
<polygon class="st8" points="1192.2,294 2401.3,103.9 2400,294 "/>
<polygon class="st8" points="1192.2,294 -1.3,103.9 0,294 "/>
</svg>
