<?xml version="1.0" encoding="utf-8"?>
<!-- Generator: Adobe Illustrator 22.1.0, SVG Export Plug-In . SVG Version: 6.00 Build 0)  -->
<svg version="1.1" id="Layer_1" xmlns="http://www.w3.org/2000/svg" xmlns:xlink="http://www.w3.org/1999/xlink" x="0px" y="0px"
	 viewBox="0 0 576 576" style="enable-background:new 0 0 576 576;" xml:space="preserve">
<style type="text/css">
	.st0{fill:#9E1F63;stroke:#9E1F63;stroke-miterlimit:10;}
	.st1{fill:#CE8FB1;}
	.st2{fill:#FDFFFF;}
	.st3{fill:#B6578A;}
	.st4{fill:#FFFFFF;}
	.st5{fill:#E7C7D8;}
	.st6{fill:#9E1F63;}
</style>
<title>icon</title>
<circle class="st0" cx="288" cy="288" r="288"/>
<path class="st1" d="M430.9,422.1c-0.1,6.1-5,11-11.1,11.1H156.2c-6.1-0.1-11-5-11.1-11.1V158.5c0.1-6.1,5-11,11.1-11.1h263.6
	c6.1,0.1,11,5,11.1,11.1V422.1z"/>
<path class="st2" d="M154.4,193.6v219.8c0,6,4.1,10.6,9.7,10.6h248c5.5,0,9.7-4.6,9.7-10.6V193.6H154.4z"/>
<rect x="154.4" y="193.6" class="st3" width="267.3" height="13.8"/>
<circle class="st3" cx="159.4" cy="171.4" r="5.1"/>
<circle class="st4" cx="159.4" cy="169.1" r="5.1"/>
<path class="st5" d="M155.7,165.5c2-2,5.3-2,7.4,0s2,5.3,0,7.4"/>
<circle class="st3" cx="180.2" cy="171.4" r="5.1"/>
<circle class="st4" cx="180.2" cy="169.1" r="5.1"/>
<path class="st2" d="M207.7,161.3h205.6c2.3,0,4.1,1.9,4.1,4.1v10.1c0,2.3-1.9,4.1-4.1,4.1H207.7c-2.3,0-4.1-1.9-4.1-4.1v-10.1
	C203.6,163.2,205.4,161.3,207.7,161.3z"/>
<path class="st5" d="M207.7,161.3h205.6c2.3,0,4.1,1.9,4.1,4.1v5.1l0,0H203.6l0,0v-5.1C203.6,163.2,205.4,161.3,207.7,161.3z"/>
<path class="st5" d="M176.5,165.5c2-2,5.3-2,7.4,0s2,5.3,0,7.4"/>
<path class="st6" d="M235.9,167.1l-0.3-0.3h-1c-0.3,0-0.3,0-0.3,0.3l-0.7,2.7l0,0l-1-2.7h-1.7c-0.3,0-0.3,0-0.3,0.3l-1,3l0,0
	l-0.7-2.7c0-0.7,0-0.7-0.3-0.7h-2.7c-0.3,0-0.3,0-0.3,0.3l-0.7,2.7l0,0l-1-2.7c0-0.3-0.3-0.3-0.7-0.3h-0.7c-0.3,0-0.3,0-0.7,0.3
	l-0.7,2.7l0,0l-1-2.7c0-0.3,0-0.3-0.3-0.3h-2.7c-0.2,0-0.3,0.1-0.3,0.3l0,0l-0.7,2.7l0,0l-1-2.7c0-0.3-0.3-0.3-0.7-0.3h-0.7
	c-0.3,0-0.3,0-0.3,0.3l-1,2.7l0,0l-0.7-2.7c-0.3-0.3-0.3-0.3-0.7-0.3h-1c-0.2,0-0.3,0.1-0.3,0.3l0,0v0.3l1.7,5.7
	c0,0.2,0.1,0.3,0.3,0.3l0,0h1c0.3,0,0.3,0,0.3-0.3l1-3l0,0l1,2.7c0,0.2,0.1,0.3,0.3,0.3l0,0h1c0.3,0,0.3,0,0.3-0.3l1.7-5l1.3,5
	c0,0.2,0.1,0.3,0.3,0.3l0,0h1c0.3,0,0.3,0,0.3-0.3l1.3-2.7l0,0l1,2.7c0,0.2,0.1,0.3,0.3,0.3l0,0h1c0.3,0,0.3,0,0.3-0.3l1.7-5l1.3,5
	c0,0.2,0.1,0.3,0.3,0.3l0,0h1c0.3,0,0.3,0,0.3-0.3l1.3-2.7l0,0l1,2.7c0,0.2,0.1,0.3,0.3,0.3l0,0h1c0.3,0,0.3,0,0.3-0.3l1.7-5.7
	C236.3,167.5,236.3,167.1,235.9,167.1z"/>
<path class="st6" d="M253.5,346c-1.4,0.1-2.9-0.4-3.9-1.4l-27-27c-1-1.1-1.5-2.5-1.4-3.9c0.1-1.4,0.6-2.8,1.4-3.9l27-27
	c2.1-2,5.5-1.8,7.5,0.3c1.9,2,1.9,5.1,0,7.1l-23.1,23.1l23.1,23.1c2.1,2,2.1,5.2,0.2,7.3c-0.1,0.1-0.1,0.1-0.2,0.2
	C256.5,345.3,255,346.2,253.5,346z"/>
<path class="st6" d="M322.4,346c-1.4,0.1-2.9-0.4-3.9-1.4c-2.1-2-2.1-5.2-0.2-7.3c0.1-0.1,0.1-0.1,0.2-0.2l23.1-23.1l-23.1-23.1
	c-2.1-2.1-2.1-5.7,0-7.5c2.1-2,5.4-2,7.5,0l27,27c1,1.1,1.5,2.5,1.4,3.9c-0.1,1.4-0.6,2.8-1.4,3.9l-27,27
	C324.8,345.7,323.6,345.9,322.4,346z"/>
<path class="st6" d="M270.2,362.7c-0.7,0.1-1.5-0.1-2.1-0.4c-2.8-1.1-3.9-4.3-2.8-7.1l35.5-85.3c1.1-2.8,4.3-3.9,7.1-2.8
	s3.9,4.3,2.8,7.1l-35.5,85.3C274.3,361.5,272.3,362.8,270.2,362.7z"/>
</svg>
