<?xml version="1.0" encoding="utf-8"?>
<!-- Generator: Adobe Illustrator 22.1.0, SVG Export Plug-In . SVG Version: 6.00 Build 0)  -->
<svg version="1.1" id="Layer_1" xmlns="http://www.w3.org/2000/svg" xmlns:xlink="http://www.w3.org/1999/xlink" x="0px" y="0px"
	 viewBox="0 0 576 576" style="enable-background:new 0 0 576 576;" xml:space="preserve">
<style type="text/css">
	.st0{fill:#9E1F63;stroke:#9E1F63;stroke-miterlimit:10;}
	.st1{fill:#B6578A;}
	.st2{fill:#FFFEFE;}
	.st3{fill:#CE8FB1;}
	.st4{fill:#5D0538;}
	.st5{fill:#FFFFFF;}
	.st6{fill:#E7C7D8;}
	.st7{fill:url(#SVGID_1_);}
	.st8{fill:url(#SVGID_2_);}
	.st9{fill:#9E1F63;}
	.st10{fill:url(#SVGID_3_);}
	.st11{fill:url(#SVGID_4_);}
	.st12{fill:none;stroke:#9E1F63;stroke-width:3;stroke-linecap:round;stroke-miterlimit:10;}
	.st13{fill:none;stroke:#9E1F63;stroke-width:10;stroke-miterlimit:10;}
	.st14{fill:none;stroke:#9E1F63;stroke-width:3;stroke-miterlimit:10;}
	.st15{fill:none;stroke:#FFFEFE;stroke-width:2;stroke-linecap:round;stroke-miterlimit:10;}
	.st16{fill:url(#SVGID_5_);}
	.st17{fill:url(#SVGID_6_);}
	.st18{fill:url(#SVGID_7_);}
	.st19{fill:url(#SVGID_8_);}
</style>
<title>icon</title>
<circle class="st0" cx="288" cy="288" r="288"/>
<rect x="135.6" y="188.2" class="st1" width="10.1" height="217.9"/>
<polygon class="st2" points="125.6,188.2 135.6,168.1 145.7,188.2 "/>
<rect x="125.6" y="188.2" class="st3" width="10.1" height="217.9"/>
<polygon class="st4" points="131.6,176.1 135.6,168.1 139.6,176.1 "/>
<rect x="125.6" y="374.4" class="st5" width="20.1" height="8.7"/>
<rect x="182.8" y="121" class="st2" width="216" height="307"/>
<rect x="182.8" y="121" class="st3" width="216" height="69"/>
<circle class="st5" cx="218" cy="155.5" r="22.7"/>
<rect x="266.1" y="132.8" class="st2" width="106" height="10.8"/>
<path class="st6" d="M205.1,159.1l2.3,1.1l-2.3,1.1V159.1 M204.1,157.5v5.3l5.8-2.7L204.1,157.5L204.1,157.5z"/>
<path class="st6" d="M231,150.5v2.1l-2.3-1.1L231,150.5 M232,148.9l-5.8,2.6l5.8,2.7V148.9L232,148.9z"/>
<linearGradient id="SVGID_1_" gradientUnits="userSpaceOnUse" x1="204.4874" y1="708.6716" x2="206.9884" y2="713.0034" gradientTransform="matrix(1 0 0 1 0 -560)">
	<stop  offset="0" style="stop-color:#9E1F63"/>
	<stop  offset="1" style="stop-color:#9E1F63;stop-opacity:0.5"/>
</linearGradient>
<polygon class="st7" points="204.1,148.9 204.1,154 209.6,151.5 "/>
<linearGradient id="SVGID_2_" gradientUnits="userSpaceOnUse" x1="214.8308" y1="710.1214" x2="221.3192" y2="721.3586" gradientTransform="matrix(1 0 0 1 0 -560)">
	<stop  offset="0" style="stop-color:#9E1F63"/>
	<stop  offset="1" style="stop-color:#9E1F63;stop-opacity:0.5"/>
</linearGradient>
<polygon class="st8" points="205.1,155.7 218.1,161.7 231.1,155.7 224.1,152.5 218,155.3 212,152.6 "/>
<polygon class="st9" points="205,147.2 218,153.1 230.9,147.2 217.9,141.2 "/>
<linearGradient id="SVGID_3_" gradientUnits="userSpaceOnUse" x1="223.825" y1="720.7513" x2="227.285" y2="726.7513" gradientTransform="matrix(1 0 0 1 0 -560)">
	<stop  offset="0" style="stop-color:#9E1F63"/>
	<stop  offset="1" style="stop-color:#9E1F63;stop-opacity:0.5"/>
</linearGradient>
<polygon class="st10" points="219.2,163.4 219.2,170 231.9,164.1 231.9,157.5 "/>
<linearGradient id="SVGID_4_" gradientUnits="userSpaceOnUse" x1="209.8091" y1="721.7744" x2="215.1442" y2="731.0259" gradientTransform="matrix(1 0 0 1 0 -560)">
	<stop  offset="0" style="stop-color:#9E1F63"/>
	<stop  offset="1" style="stop-color:#9E1F63;stop-opacity:0.5"/>
</linearGradient>
<polygon class="st11" points="205.1,164.5 217,169.9 217,163.4 212.2,161.2 "/>
<line class="st12" x1="338.2" y1="154.6" x2="267.8" y2="154.6"/>
<line class="st13" x1="349.6" y1="213.7" x2="232" y2="213.7"/>
<line class="st14" x1="371.9" y1="240" x2="209.6" y2="240"/>
<line class="st14" x1="371.9" y1="251.8" x2="209.6" y2="251.8"/>
<line class="st14" x1="371.9" y1="263.5" x2="209.6" y2="263.5"/>
<line class="st14" x1="371.9" y1="275.3" x2="209.6" y2="275.3"/>
<line class="st14" x1="371.9" y1="287.1" x2="209.6" y2="287.1"/>
<line class="st14" x1="269.8" y1="298.9" x2="209.6" y2="298.9"/>
<line class="st14" x1="371.9" y1="322.4" x2="209.6" y2="322.4"/>
<line class="st14" x1="371.9" y1="334.2" x2="209.6" y2="334.2"/>
<line class="st14" x1="269.8" y1="346" x2="209.6" y2="346"/>
<line class="st12" x1="338.2" y1="165.6" x2="267.8" y2="165.6"/>
<line class="st12" x1="290.6" y1="176.6" x2="267.8" y2="176.6"/>
<rect x="382.8" y="264" class="st3" width="107" height="69"/>
<line class="st15" x1="482.8" y1="319.8" x2="456.1" y2="319.8"/>
<line class="st15" x1="482.8" y1="324" x2="456.1" y2="324"/>
<line class="st15" x1="464.8" y1="328.2" x2="456.1" y2="328.2"/>
<circle class="st5" cx="436.3" cy="297.2" r="22.7"/>
<path class="st6" d="M423.3,300.8l2.3,1.1l-2.3,1.1V300.8 M422.3,299.2v5.3l5.8-2.7L422.3,299.2L422.3,299.2z"/>
<path class="st6" d="M449.3,292.2v2.1l-2.3-1.1L449.3,292.2 M450.3,290.6l-5.8,2.6l5.8,2.7V290.6L450.3,290.6z"/>
<linearGradient id="SVGID_5_" gradientUnits="userSpaceOnUse" x1="422.7473" y1="850.3416" x2="425.2484" y2="854.6735" gradientTransform="matrix(1 0 0 1 0 -560)">
	<stop  offset="0" style="stop-color:#9E1F63"/>
	<stop  offset="1" style="stop-color:#9E1F63;stop-opacity:0.5"/>
</linearGradient>
<polygon class="st16" points="422.3,290.6 422.3,295.7 427.9,293.1 "/>
<linearGradient id="SVGID_6_" gradientUnits="userSpaceOnUse" x1="433.0908" y1="851.7914" x2="439.5792" y2="863.0286" gradientTransform="matrix(1 0 0 1 0 -560)">
	<stop  offset="0" style="stop-color:#9E1F63"/>
	<stop  offset="1" style="stop-color:#9E1F63;stop-opacity:0.5"/>
</linearGradient>
<polygon class="st17" points="423.4,297.4 436.4,303.4 449.3,297.4 442.3,294.2 436.3,297 430.3,294.2 "/>
<polygon class="st9" points="423.3,288.8 436.3,294.8 449.2,288.8 436.2,282.9 "/>
<linearGradient id="SVGID_7_" gradientUnits="userSpaceOnUse" x1="442.085" y1="862.4214" x2="445.545" y2="868.4214" gradientTransform="matrix(1 0 0 1 0 -560)">
	<stop  offset="0" style="stop-color:#9E1F63"/>
	<stop  offset="1" style="stop-color:#9E1F63;stop-opacity:0.5"/>
</linearGradient>
<polygon class="st18" points="437.4,305.1 437.4,311.7 450.2,305.7 450.2,299.2 "/>
<linearGradient id="SVGID_8_" gradientUnits="userSpaceOnUse" x1="428.0691" y1="863.4445" x2="433.4042" y2="872.696" gradientTransform="matrix(1 0 0 1 0 -560)">
	<stop  offset="0" style="stop-color:#9E1F63"/>
	<stop  offset="1" style="stop-color:#9E1F63;stop-opacity:0.5"/>
</linearGradient>
<polygon class="st19" points="423.4,306.2 435.3,311.6 435.3,305.1 430.5,302.9 "/>
</svg>
