<?xml version="1.0" encoding="utf-8"?>
<!-- Generator: Adobe Illustrator 22.1.0, SVG Export Plug-In . SVG Version: 6.00 Build 0)  -->
<svg version="1.1" id="Layer_1" xmlns="http://www.w3.org/2000/svg" xmlns:xlink="http://www.w3.org/1999/xlink" x="0px" y="0px"
	 viewBox="0 0 800 859" style="enable-background:new 0 0 800 859;" xml:space="preserve">
<style type="text/css">
	.st0{fill:none;}
	.st1{fill:none;stroke:#231F20;stroke-width:2.5;}
	.st2{fill:none;stroke:#231F20;stroke-width:0.5;}
	.st3{fill:none;stroke:#231F20;stroke-width:0.75;}
	.st4{fill:none;stroke:#231F20;}
	.st5{fill:none;stroke:#231F20;stroke-width:1.25;}
	.st6{fill:none;stroke:#231F20;stroke-width:1.5;}
	.st7{fill:none;stroke:#231F20;stroke-width:1.75;}
	.st8{fill:none;stroke:#231F20;stroke-width:2;}
	.st9{fill:none;stroke:#231F20;stroke-width:2.25;}
	.st10{clip-path:url(#SVGID_2_);}
	.st11{fill:#AC407A;}
	.st12{fill:#9E1F63;}
	.st13{opacity:0.25;enable-background:new    ;}
	.st14{stroke:#231F20;stroke-width:10.14;stroke-miterlimit:10;}
	.st15{fill:#FFFFFF;stroke:#000000;stroke-width:10.14;stroke-miterlimit:10;}
	.st16{fill:#5E5E5E;}
	.st17{fill:url(#SVGID_4_);stroke:#000000;stroke-width:5;stroke-miterlimit:10;}
	.st18{fill:#231F20;stroke:#404041;stroke-width:10.14;stroke-miterlimit:10;}
	.st19{fill:#FFFFFF;}
	.st20{stroke:#000000;stroke-width:5.07;stroke-miterlimit:10;}
</style>
<pattern  y="859" width="60.8" height="72" patternUnits="userSpaceOnUse" id="SVGID_3_" viewBox="1.2 -72 60.8 72" style="overflow:visible;">
	<g>
		<rect x="1.2" y="-72" class="st0" width="60.8" height="72"/>
		<g>
			<rect x="1.2" y="-72" class="st0" width="60.8" height="72"/>
			<rect x="1.2" y="-72" class="st0" width="60.8" height="72"/>
			<line class="st1" x1="62" y1="-72" x2="62" y2="0"/>
			<line class="st2" x1="31.6" y1="-72" x2="31.6" y2="0"/>
			<line class="st3" x1="27.8" y1="-72" x2="27.8" y2="0"/>
			<line class="st4" x1="24" y1="-72" x2="24" y2="0"/>
			<line class="st5" x1="20.2" y1="-72" x2="20.2" y2="0"/>
			<line class="st6" x1="16.4" y1="-72" x2="16.4" y2="0"/>
			<line class="st7" x1="12.7" y1="-72" x2="12.7" y2="0"/>
			<line class="st8" x1="8.9" y1="-72" x2="8.9" y2="0"/>
			<line class="st9" x1="5.1" y1="-72" x2="5.1" y2="0"/>
			<line class="st1" x1="1.2" y1="-72" x2="1.2" y2="0"/>
			<line class="st3" x1="35.5" y1="-72" x2="35.5" y2="0"/>
			<line class="st4" x1="39.2" y1="-72" x2="39.2" y2="0"/>
			<line class="st5" x1="43" y1="-72" x2="43" y2="0"/>
			<line class="st6" x1="46.8" y1="-72" x2="46.8" y2="0"/>
			<line class="st7" x1="50.6" y1="-72" x2="50.6" y2="0"/>
			<line class="st8" x1="54.5" y1="-72" x2="54.5" y2="0"/>
			<line class="st9" x1="58.2" y1="-72" x2="58.2" y2="0"/>
			<line class="st1" x1="62" y1="-72" x2="62" y2="0"/>
			<line class="st1" x1="1.2" y1="-72" x2="1.2" y2="0"/>
		</g>
	</g>
</pattern>
<title>illustration-me</title>
<g>
	<g>
		<defs>
			<rect id="SVGID_1_" width="800" height="859"/>
		</defs>
		<clipPath id="SVGID_2_">
			<use xlink:href="#SVGID_1_"  style="overflow:visible;"/>
		</clipPath>
		<g class="st10">
			<rect x="-0.5" y="0.3" class="st11" width="398.8" height="853.4"/>
			<rect x="391.8" y="0.3" class="st12" width="408.5" height="853.4"/>
			<rect x="391.8" y="0.3" class="st13" width="408.5" height="853.4"/>
			<path class="st14" d="M-0.5,673.5c5.4-1.7,3.1-3.7,7.6-7.2c1-0.9,2.2-1.6,3.5-1.9c8.2-1.3,15.1-5.6,22.5-9s15.4-5.1,23.4-7
				c18.8-4.5,37-11.3,54.1-20.4c8-4.2,16.8-6.5,25.1-10.2c9.2-4,18.8-7.4,26.2-14.8c6.5-6.4,14.9-10.1,22.6-14.9
				c11.9-7.5,24.9-13.4,34.8-23.7c2.5-2.7,3.8-0.9,5.1,1.2c12.9,19.7,27.1,38.3,44.6,54.2c24.4,22.2,51.9,38.4,85.1,44
				c31.2,5.3,60.6-0.5,88.5-14.9c31.3-16.2,55.3-40.3,75.6-68.3c8.8-12.2,10.9-12,17.7-25.3c0.4-0.7,3.2-3.3,3.6-4
				c3.1-5.5,6.5-5.7,11.1-1.3c5.8,5.5,9.5,4.7,14.4,10.9c3,3.9,7.7,7.1,11.9,9.5c11.3,6.4,14.6,9.2,25.1,16.9
				c7,5.1,22.8,10.3,29.3,15.9c8.1,7,17.9,10.4,28.1,12.8c18,4.2,35.2,10.7,52.8,16.1c5.5,1.7,11.2,2.9,16.6,4.6
				c8.2,2.6,16.1,6.2,24.4,8.8c15.7,4.8,31,10.6,45.9,17.5c4,1.9,0.6-2,4.7-0.5c0,60.2,0,120.4,0.1,180.6v10
				C533.1,853,76,853.5-0.6,853.5C-0.6,816.8-0.5,732.9-0.5,673.5z"/>
			<path class="st15" d="M533.3,560.6c0,0,10.6-47.6,5.8-36.7s-3.8,10.7-27.2,41.2s-59.7,40.9-70.4,41.7c-22.6,1.7-16,4.5-76.3,1.8
				c-78-3.6-131.2-100.4-124.8-82.3s10,89.4,10,89.4c0.9,1.1,9.7,39.9,9.2,43.1c1.1,1.3,5.1,17.5,5,19.5c0,0.5,6.1,11.7,7.9,13
				c9.4,6.7,18.8,13.4,28.4,19.7c1.6,1.1,9.1,5,10.9,5.9c11.2,5.3,22.3,10.8,34.8,12.7c0.1,0,0.3,0.1,0.4,0.1
				c5.5,0.2,38.8,4.8,39.1,3.4c13,0.6,26,0.4,39-0.7c19.6-1.8,58.1-13.8,61.1-16.3c3.4-2.8,6.8-5.8,10-8.9
				c3.7-3.5,7.7-6.8,10.8-10.8c4.8-6,13.5-19.7,13.7-20c4.2-4.6,7.8-58.4,7.9-59.3c0.9-10.7,1.6-20.9,2.8-31.6L533.3,560.6z"/>
			<path class="st16" d="M425.1,732.4c19.6-1.8,58.1-13.8,61.1-16.3c3.4-2.8,6.8-5.8,10-8.9c3.7-3.5,7.7-6.8,10.8-10.8
				c4.8-6,13.5-19.7,13.7-20c4.2-4.6,4.7-59.3,4.8-60.3c0.9-10.7,1.8-21.4,3-32.1c0.3-2.8,1.5-5.5,2.7-9.4c1.5,2.1,2.7,3.3,3.3,4.7
				c0.8,2.1,1.3,4.2,1.6,6.4c1.1,7.2,1.4,14.7,3.4,21.7c1.5,5.3,1.3,12,7.5,15.2c0.6,0.5,0.9,1.2,0.9,2c-2.2,6,1.7,11.1,2.2,16.7
				c0.2,4,0.6,7.9,1.3,11.9c0.4,2,2.1,3.7,3.1,5.5c0.7,1.2,1.8,2.6,1.6,3.6c-2,9.5,2.8,16.7,7.4,24.1c0.2,0.3,0.7,0.6,0.7,0.9
				c-0.2,5,0,10.1-0.7,15.1c-0.3,2.2-1,4.4,1.3,4.9c4.5,1,3.1,3.1,2.2,4.7c2,5.6,4.5,10.4,4.5,16c0,1.5,0.2,2.9,0.7,4.3
				c1.2,4.2,2.6,8.3,3.7,11.6c2.1,5.1,4,9.4,5.7,13.8c0.3,0.8-0.4,2-0.9,2.9c-3.3,4.9,10.9,20.2,9.6,23.2c-0.3-0.1-0.6-0.2-0.8-0.3
				l-5.1-1.4c0.2,1.8,0.5,3.6,1,5.3c1.1,3.5-0.7,10.6-1.4,9.7c-4.1-5.4-21.6,10.4-26.2,15.4c-1.2,1.4-3.3,2-5.1,2.9
				c-4.8,2.4-9.6,4.7-14.4,7c-0.6,0.3-41.4,25.9-43.4,31.4H256.2c0.1-1.3-30.9-30.2-33.5-30.7c-1-0.2-2.8-0.8-3.1-0.3
				c-0.8,1-7.3-10-7-11.3c0.4-1.8,0.2-4.1,1.3-5.3c3.3-3.9,2-7.6,0.2-11.4c-1.1-2.5,16.1-72.1,16.2-74.6c0.2-6.3,0.3-12.6,0.5-18.9
				c0.1-2.2,0.8-4.8,0-6.6c-2.3-5.1-0.5-9.6,1.8-13.7c2.8-5.2,3.3-10.3,3-16.2c-0.2-6.5,2.1-13,3.1-19.5c1.1-7.7,5.1-14.2,8.5-21
				c0.5-1.1,0-2.7,0.4-3.8c0.8-1.5,1.7-3,2.7-4.4c0.9,1.1,9.7,39.9,9.2,43.1c1.1,1.3,5.1,17.5,5,19.5c0,0.5,6.1,11.7,7.9,13
				c9.4,6.7,18.8,13.4,28.4,19.7c1.6,1.1,9.1,5,10.9,5.9c11.2,5.3,22.3,10.8,34.8,12.7c0.1,0,0.3,0.1,0.4,0.1
				c5.5,0.2,38.8,4.8,39.1,3.4C399.1,733.7,412.1,733.5,425.1,732.4z"/>
			<pattern  id="SVGID_4_" xlink:href="#SVGID_3_" patternTransform="matrix(3.55 0 0 3.55 39693.3242 59719.0781)">
			</pattern>
			<path class="st17" d="M528.6,617c-2.3,13.8-4.7,22.6-4.7,22.6c-0.3,0.3-9,14-13.7,20c-3.1,4-7.1,7.3-10.9,10.8
				c-3.2,3-6.5,6-10,8.9c-3,2.5-41.5,14.6-61.1,16.4c-13,1.1-26,1.3-39,0.7c-0.3,1.5-33.6-3.2-39.1-3.4c-0.1,0-0.3,0-0.4-0.1
				c-12.5-1.8-23.6-7.4-34.7-12.7c-1.9-0.9-9.3-4.8-11-5.9c-9.6-6.3-19.5-12.8-26.7-21.8c-5.5-9-11.9-20.2-15.6-30.3
				c0.5-3.3-17.5-41.5-13.5-33.5l5.3,27.1c0.9,1.1,9.7,39.9,9.2,43.1c1.1,1.3,5.1,17.5,5,19.5c0,0.5,6.1,11.7,7.9,13
				c9.4,6.7,18.8,13.4,28.4,19.7c1.6,1.1,9.1,5,11,5.9c11.1,5.3,22.3,10.8,34.7,12.7c0.1,0,0.3,0.1,0.4,0.1
				c5.5,0.2,38.8,4.8,39.1,3.4c13,0.6,26,0.4,39-0.7c19.6-1.8,58.1-13.8,61.1-16.3c3.4-2.8,6.7-5.8,10-8.9
				c3.7-3.5,7.7-6.8,10.9-10.8c4.7-6,13.4-19.7,13.7-20c4.2-4.6,4.7-59.3,4.8-60.3"/>
			<path class="st18" d="M234.6,853.4c0,0-54.1-37.7-71.8-56.4s4.2-35-0.9-36.4C76,737,39.5,738.4,39.5,738.4s-4.4,2.7,0-13.3
				s59.4-67.4,86-92.3s69.2-63.9,86-73.7s28.5-28.4,28.5-28.4s12.4,33.8,8.9,133.7c-1.8,50.4,3.6,54,16.7,87.1s34.2,59.2,35.4,101.8
				h-66.4"/>
			<path class="st18" d="M544.9,853.4c0,0,54.1-37.7,71.8-56.4s-4.2-35,0.9-36.4C703.5,737,740,738.4,740,738.4s4.4,2.7,0-13.3
				s-59.4-67.4-86-92.3s-69.2-63.9-86-73.7s-28.4-28.4-28.4-28.4s-12.4,33.8-8.9,133.7c1.8,50.4-3.6,54-16.6,87.1
				s-34.2,59.2-35.4,101.8h66.2"/>
			<path d="M238.8,527.7c-7.4-7.4-8.8-23.2-11.4-30c-1.2-3-2.6-5.8-3.6-8.8c-2.2-7.3-4.1-14.6-6.3-22c-0.9-3.3-2.1-6.5-3.5-9.6
				c-0.6-1.2-2.6-2.2-4.1-2.5c-5.3-1.2-10.6-2.5-14.5-6.7c-1.4-1.5-3.3-3.6-3.3-5.5c0.1-10.6-5.9-19.1-9.3-28.5
				c-2.6-7-4-14.4-6.1-21.6c-2.3-7.8-5-15.5-7-23.4c-2.6-10.2-4.4-20.6-1.4-31.1c1.5-5,4.4-6.1,9.3-4.6c4.4,1.3,9.1,1.7,12.8,2.4
				c0.7-2.3,1.4-4.2,1.9-6.1c0.4-1.5,1.4-3.4,0.9-4.7c-4.2-10.3-5.9-21.1-6.5-32c-0.6-11.5-0.6-23.1-0.1-34.7
				c0.7-18.9,0.9-38,6.9-56.2c2.3-7.3,5-14.4,8.1-21.3c2.8-5.7,7-10.7,10.2-16.2c2.9-5,5.3-10.2,8.2-15.2c1.8-3.2,4-6.1,6.1-9.1
				c3.2-4.6,7.5-8.8,9.6-13.8c2.4-5.9,6.7-9.2,11.3-12.9c3.3-2.7,4.8-7.4,7.7-10.8c2.2-2.6,4.8-4.7,7.8-6.4
				c8.4-4.6,15.7-11.1,21.3-18.9c5.5-7.4,12.3-12.9,20.2-17.6c7.4-4.3,15.8-5.5,23.3-9.1c7.3-3.4,15.2-3.6,22.6-6.2
				c1.5-0.5,2.5-2.5,4-3.5c1.8-1.3,3.6-2.9,5.7-3.3c5.3-1.1,10.6-1.9,16-2.5c2.9-0.1,5.9,0.1,8.8,0.6c2.9,0.4,5.8,1.5,8.7,1.7
				c11.4,0.7,22.9,0.4,34.1,2c5.7,0.8,11.1,4.5,16.3,7.6c4.4,2.6,8.1,6.2,12.2,9.3c1.7,1.5,3.4,2.9,5.3,4.1
				c11.8,6.7,20.2,17.4,30.3,26.1c6,5.2,10.6,11.8,14.4,19.3c3.5,6.9,7.6,14.3,15,18.9c2.9,1.8,4,6.3,6,9.6
				c3.6,6.1,7.2,12.1,10.7,18.3c7.3,12.9,15.1,25.6,21.8,38.8c5.9,11.6,9.2,24.2,11.1,37.2c2.2,15.1,2.6,30.4,1.5,45.6
				c-0.9,13.5-1.5,27.1-2.4,40.6c-0.3,5.1-0.9,10.2-1.7,15.3c-1.2,7.3,3.4,11.4,8.6,14c5.9,3,8.8,6.6,9.2,13.5
				c0.5,9.9-2.8,18.8-4.7,28.1c-1.6,7.7-3.4,15.3-4.6,23.1c-1.3,8.9-1.7,18.3-6.2,26.7c-1.9,3.6-1.7,8.4-2.2,12.7
				c-0.6,5.2-2.3,10.2-5,14.7c-4.9,8.8-7.4,18.6-7.4,28.6c0,3.3-1.8,6.8-3.2,10c-3.1,6.9-6.5,13.6-9.8,20.4
				c-0.9,1.8-1.4,3.8-2.6,5.3c-1.9,2.6-12.2,18-10.1,19.6 M542.1,226.2c2.3,0.1,4.5,0.9,6.1,0.2c1.9-0.9,3.7-2.7,3-5.6
				c-1-3.9-1.3-7.9-2.3-11.8c-0.9-3.7-1.8-7.6-3.6-10.9c-2.8-5.2-6.5-9.9-9.7-14.8c-0.8-1.2-0.9-2.8-1.7-4
				c-6.1-8.9-12.2-17.9-18.7-26.6c-1.7-2.2-4.8-4.4-7.5-4.7c-4.4-0.5-8.5-2.4-11.7-5.4c-2.1-1.9-4.8-3.2-7.6-3.4
				c-3.3-0.6-6.5-1.5-9.6-2.4c-1.5-0.4-3.2-1.6-4.6-1.3c-4.1,0.8-8,0.1-12-0.3c-6.5-0.6-12.8-2.3-19.3-3.1
				c-6.1-0.8-12.3-1.1-18.4-1.8c-1.8-0.2-3.6-1.9-5.1-1.6c-6.8,1.5-12.6-2.7-19.2-2.6c-5.7,0.1-11.5-0.9-17.3-1.3
				c-0.5,0-1,0.3-1.5,0.4c-5,0.9-9.9,1.9-14.9,2.6c-2.4,0.3-4.9-0.2-7.3,0.2c-5.2,0.9-10.3,2.9-15.8,0.8c-2.8-1.1-6.1-1.1-9.1-1.2
				c-2.2-0.1-4.5,0.7-6.7,0.5c-6.7-0.8-12.9,1.2-19.2,2.7c-3.9,0.9-7.8,2.2-11.7,2.8c-4.5,0.6-9.1,0.6-14,1c1.2,2.6,1.2,3.5-1.4,4
				c-1.8,0.4-5.2,0.1-5,3.8c0,0.2-0.7,0.6-1.2,0.8c-2.1,0.9-4.1,2.2-6.2,2.5c-7.9,1.1-11.4,8.4-17.6,11.9c-0.4,0.2-0.5,1.1-0.6,1.6
				c-1.4,5.2-4.5,9.7-8.7,13c-2.3,1.8-4,3.6-4.2,6c-0.2,3.2-2.1,6-5,7.3c-0.2,0.1-0.2,0.4-0.4,0.8c0.6,0.6,1.3,1.1,1.6,1.4
				c-1.9,5.3-2.1,10.4-2,15.8c0,6.3,3.5,9.7,8.8,11.9c-0.5,1-1.1,2.3-1,2.4c3.5,1.7,7.1,3.4,10.3,4.9c-1,1.3-2.6,2.4-2.6,3.6
				c0,2.6,7.4,6.4,9.8,5.1c5.5-2.9,10.2-6.9,15-10.7c2.5-2,4.9-3.5-1.3-5.9l7.9-1.5l0.2,1.1c-0.7,0.6-1.4,1.1-2,1.6
				c3.5-0.2,7.1-0.1,9.6-1.8c3.2-2,4.8-1.2,7.1,2.4c0.3-2.6,0.5-4,0.6-5.3c0.4,0,0.7-0.1,1.1-0.1c0.3,1.3,0.5,2.7,0.9,4.4l3.9-1.2
				l-2.6-3.9c0.2-0.3,0.5-0.5,0.7-0.8l5.3,2.5c1.4-1.1,2.5-2,3.6-2.9c0.2,0.2,0.4,0.5,0.7,0.8l-1.1,2.1c2.5,0,4.7,0.2,6.9,0
				c4.4-0.4,8.9-0.5,12.3,2.4c3.9,3.3,7.7,5.1,12.8,4.8c2.2-0.1,4,0.2,4-2.6c1.4,0.1,2.7,0.7,3.7,0.3c4-1.6,6.9-0.2,9.2,3
				c1.6,2.3,3.1,1.3,5.3,0.2l-3.9-1.2c0-0.3,0.1-0.5,0.1-0.8l10.2,0.7c0.1-0.8,0.2-1.6,0.3-2.5l0.5,0.8l5.4-2.8
				c2.4,4.4,8.2,5.8,13,3.1c1-0.6,2.8,0.2,4.2,0.4c0.2,0,0.3,0.1,0.5,0.2c0.4-1,0.7-1.9,1.3-3.5c0.5,1.9,0.8,3,1.1,4.3
				c1-1.6,1.9-3,2.8-4.3l0.6,0.4c-0.1-1.5-0.3-3-0.5-4.9c4.6,0.9,9.2,0.6,12.2,2.6c3.8,2.6,8.3,4,12.8,4.1c1.5,0.1,3,0,5.1,0
				c-2.4,6.2,1.9,7.2,6.4,8c0.1-0.2,0.5-1,1.1-2.2c3.5,4.9,8.8,3.6,13.3,4.5c5.5,1.1,11.1,2.1,16.6,3.2c1.5,0.3,3,0.6,4.4,0.9
				c-0.5-1.1-0.9-2.3-1.1-2.9l8.1-0.7c2.9,4.7,7.8,4.7,11.9,6.3c1.2,1.5,2.9,3.4,4.2,3.2c1.9-0.4,3.8,0.1,5.2,1.5
				c0.7,0.6,1.5,1,2.4,1.2c7.2,1.6,14.4,3.3,21.6,4.7c1.9,0.4,5,2.7,5.9-0.4c1.4-4.7,4.6-7.8,7.8-11c0.5-0.5,1.2-1.7,1.6-1.6
				C541.4,232.7,541.5,229.1,542.1,226.2L542.1,226.2z M442.5,376.2c0.2-0.3,0.3-0.6,0.5-0.9c-1.2-1.9-2.5-3.7-3.3-5
				c-1.8,0.4-3.6,0.6-5.5,0.6c-1.9-0.3-3.7-0.8-5.4-1.4c-1.1-0.3-2.4-0.5-3.1-1.2c-1-1.1-1.9-2.3-2.6-3.6l2.2-0.2l-2.2-12.3
				c0,0-0.3,0.4-0.6,0.6c0,0.1-0.2,0,0.2,0.1c-0.8-3.5-2.2-6.8-2.1-10.1c0.1-3.6-3.2-2.8-4.4-4.5c-4.9-6.8,0.1-12.8,0.9-19.3
				c-3.9-2-1.6-4.4-0.2-6.2c-0.6-1.8-1.9-3.6-1.4-4.5c1.4-2.5,0.6-4.4-0.3-6.7c-0.7-2-1-4.1-0.9-6.2c-0.1-5.9,0-11.7,0-17.5
				c-4.6,0.3-5.4-2.8-6.2-5c-5.8,1.7-11.3,3.3-17.3,5.1c-0.8,2.2-1.3,4.5-1.8,6.8c-0.7,5.5-0.5,11.1-1.6,16.5
				c-0.8,3.9-2.9,7.5-1.6,11.8c0.8,2.4-0.1,5.5,1,7.7c3,5.5,0.4,10.5-1,15.4c-1.4,4.7-4,9.1-5.9,13c1.9,0.7,4.5,1.3,4.5,1.6
				c-0.3,1.8-0.7,3.6-1.4,5.3c0.3,2.4,0.5,4.2,0.7,6.4c4.4-0.1,8.1,1.8,10,5.5c-1.2,1-2.4,2-3.5,2.9l4.4,3.9c1-1.8,1.6-2.9,2.1-3.9
				c0.5,0.1,0.6,0.1,0.7,0.2c0.8,1,1.5,2.1,2.2,3.1c3.8-2.1,4.1-1.9,5,2.1c0.1,0.6,0.6,1.1,1.1,1.3c0.4,0.1,1-0.5,1.5-0.9
				c1.4-1,2.8-1.9,4.4-2.6c7-2.7,13.2,2.2,19.2,2.2c2.7-1.2,5-2.2,6.2-2.7L442.5,376.2z M281.8,228.3h1.9c3.9,0,8,2.7,11.5-1.6
				c1.1-1.3,3.6-1.4,4.7-2.8c1-1.1,0.9-3.1,1.1-4.8c-0.5-0.5-1.2-0.8-1.9-0.8c-4.6,1.5-9.1,3.1-13.6,4.7c-1.5,0.5-3,1.1-4.8,1.8
				C280.9,225.6,281.3,226.8,281.8,228.3z M361.4,372l5.5,8.2c1.9-1.2,3.3-2.1,3.8-2.5l4.6,1.7c-0.3-0.9-0.7-1.9-1-2.8
				c-0.1-0.2-0.1-0.5-0.2-0.7c-2.2-7-5-8.1-11.2-4.7C362.3,371.6,361.7,371.9,361.4,372z M302.8,349.4c-2.9,5.4,0.3,7.3,5.1,6.6
				c0.8-0.1,1.6,0,2.3-0.2c1-0.2,2-0.6,3-0.9c-0.8-1.2-1.3-3.2-2.4-3.6C308.3,350.3,305.5,350,302.8,349.4L302.8,349.4z
				 M301.5,376.3h5c0-0.3,0-0.6,0-0.9c-1-0.5-1.9-1.1-3.2-1.9c1-1.3,1.9-2.3,3-3.8l-4.4-1.6C301.7,371.2,301.6,373.7,301.5,376.3
				L301.5,376.3z M535.6,245.8c-0.2,0.4-0.5,0.7-0.7,1c2,1.2,4,2.4,6.9,4.1c-1.1-2.7-1.7-4.3-2-5.2L535.6,245.8z"/>
			<path class="st19" d="M542,226.2c-0.5,2.8-0.6,6.4-5.6,4.9c-0.3-0.1-1,1-1.6,1.6c-3.2,3.2-6.4,6.3-7.8,11
				c-0.9,3.1-3.9,0.8-5.9,0.4c-7.2-1.4-14.4-3.1-21.6-4.7c-0.9-0.2-1.7-0.6-2.4-1.2c-1.4-1.3-3.3-1.9-5.2-1.5
				c-1.3,0.2-3-1.7-4.2-3.2c-4.1-1.6-9-1.6-11.9-6.3l-8.1,0.7c0.2,0.5,0.7,1.8,1.1,2.9c-1.4-0.3-2.9-0.6-4.4-0.9
				c-5.5-1.1-11-2.1-16.6-3.2c-4.6-0.9-9.8,0.4-13.3-4.5c-0.6,1.3-1,2-1.1,2.2c-4.5-0.7-8.8-1.7-6.4-8c-2.1,0-3.6,0.1-5.1,0
				c-4.6-0.1-9-1.5-12.8-4.1c-3-2-7.6-1.7-12.2-2.6c0.2,1.9,0.3,3.4,0.5,4.9l-0.6-0.4c-0.9,1.4-1.7,2.7-2.8,4.3
				c-0.3-1.3-0.6-2.4-1.1-4.3c-0.6,1.6-1,2.5-1.3,3.5c-0.2-0.1-0.3-0.1-0.5-0.2c-1.4-0.2-3.2-1-4.2-0.4c-4.8,2.7-10.6,1.4-13-3.1
				l-5.4,2.8L368,216c-0.1,0.9-0.2,1.8-0.3,2.5l-10.2-0.7c0,0.3-0.1,0.5-0.1,0.8l3.8,1.2c-2.2,1.1-3.7,2.1-5.3-0.2
				c-2.3-3.2-5.2-4.6-9.2-3c-1,0.4-2.3-0.1-3.7-0.3c0,2.9-1.8,2.5-4,2.6c-5.1,0.3-9-1.6-12.8-4.8c-3.4-2.9-7.9-2.8-12.3-2.4
				c-2.2,0.2-4.4,0-6.9,0l1.1-2.1c-0.2-0.2-0.5-0.5-0.7-0.8c-1.1,0.9-2.2,1.8-3.6,2.9l-5.3-2.5c-0.2,0.2-0.5,0.5-0.7,0.8l2.6,3.9
				l-3.9,1.2c-0.3-1.8-0.6-3.1-0.9-4.4c-0.4,0.1-0.7,0.1-1.1,0.1c-0.1,1.4-0.3,2.8-0.6,5.3c-2.3-3.6-3.9-4.4-7.1-2.4
				c-2.5,1.6-6.2,1.6-9.6,1.8c0.7-0.5,1.4-1.1,2-1.6l-0.2-1.1l-7.8,1.5c6.2,2.4,3.8,3.8,1.3,5.9c-4.8,3.9-9.5,7.9-15,10.7
				c-2.5,1.3-9.8-2.4-9.8-5.1c0-1.2,1.7-2.3,2.6-3.6c-3.2-1.5-6.7-3.1-10.3-4.9c0,0,0.6-1.3,1-2.4c-5.3-2.2-8.8-5.6-8.8-11.9
				c0-5.3,0.1-10.5,2-15.8c-0.3-0.3-1-0.9-1.6-1.4c0.2-0.4,0.2-0.7,0.4-0.8c2.9-1.3,4.8-4.1,5-7.3c0.3-2.4,2-4.2,4.2-6
				c4.2-3.3,7.2-7.8,8.7-13c0.2-0.6,0.2-1.4,0.6-1.6c6.2-3.5,9.7-10.8,17.6-11.9c2.1-0.3,4.2-1.6,6.2-2.5c0.4-0.2,1.2-0.6,1.2-0.8
				c-0.3-3.8,3.1-3.5,5-3.8c2.6-0.5,2.6-1.4,1.4-4c5-0.3,9.6-0.3,14-1c3.9-0.6,7.8-1.8,11.7-2.8c6.3-1.5,12.5-3.4,19.2-2.7
				c2.2,0.3,4.4-0.6,6.7-0.5c3.1,0.2,6.4,0.2,9.1,1.3c5.5,2.1,10.5,0.1,15.8-0.8c2.4-0.4,4.9,0.1,7.3-0.2c5-0.7,9.9-1.7,14.9-2.6
				c0.5-0.1,1-0.4,1.5-0.4c5.8,0.5,11.5,1.4,17.3,1.3c6.6-0.1,12.4,4.1,19.2,2.6c1.5-0.3,3.3,1.4,5.1,1.6c6.1,0.7,12.3,1,18.4,1.8
				c6.5,0.9,12.8,2.5,19.3,3.1c3.9,0.4,7.9,1,12,0.3c1.4-0.3,3,0.9,4.6,1.3c3.2,1,6.4,1.8,9.6,2.4c2.8,0.3,5.5,1.5,7.6,3.4
				c3.2,3.1,7.3,5,11.7,5.5c2.7,0.3,5.8,2.4,7.5,4.7c6.5,8.7,12.5,17.7,18.7,26.6c0.8,1.2,1,2.8,1.7,4c3.2,5,6.8,9.7,9.7,14.8
				c1.8,3.3,2.7,7.2,3.6,10.9c1,3.9,1.4,7.9,2.3,11.8c0.7,2.9-1.1,4.7-3,5.6C546.6,227.1,544.4,226.4,542,226.2z M530,222.2
				c1.8,1.1,3.2,2.5,4.9,3c1.2,0.3,2.7-0.4,4.1-0.8c0.1-0.6,0-1.2-0.2-1.7c-3.7-0.7-1.2-2.8-1-4.4c-0.6-0.7-1.3-1.2-2.1-1.7
				c-0.8-0.2-1.6-0.3-2.5-0.3c0,0.9-0.1,1.7-0.1,2.5c0,1,0.2,2,0.3,3l-2.9-2.4l-4.4,3.9l0.7,0.9L530,222.2z"/>
			<path class="st19" d="M442.5,376.2l-5.2-2.7c-1.2,0.5-3.5,1.5-6.2,2.7c-6.1,0-12.2-4.9-19.2-2.2c-1.5,0.7-3,1.6-4.4,2.6
				c-0.5,0.3-1.1,1-1.5,0.9c-0.6-0.2-1-0.7-1.1-1.3c-0.9-4-1.2-4.2-5-2.1c-0.7-1-1.5-2.1-2.2-3.1c0-0.1-0.2-0.1-0.7-0.2
				c-0.5,1-1.2,2.1-2.1,3.9l-4.4-3.9c1.1-0.9,2.2-1.9,3.5-2.9c-1.9-3.8-5.5-5.6-10-5.5c-0.2-2.2-0.4-4-0.7-6.4
				c0.6-1.7,1.1-3.5,1.4-5.3c0-0.4-2.6-1-4.5-1.6c1.8-3.9,4.5-8.3,5.9-13c1.4-4.9,3.9-9.9,1-15.4c-1.1-2.1-0.3-5.2-1-7.7
				c-1.4-4.3,0.8-7.9,1.6-11.8c1-5.4,0.9-11,1.6-16.5c0.4-2.3,1-4.6,1.8-6.8c6-1.8,11.5-3.4,17.3-5.1c0.8,2.2,1.6,5.3,6.2,5
				c0,5.8-0.1,11.7,0,17.5c0,2.1,0.3,4.2,0.9,6.2c0.9,2.3,1.6,4.2,0.3,6.7c-0.5,0.9,0.8,2.7,1.4,4.5c-1.4,1.9-3.7,4.3,0.2,6.2
				c-0.8,6.5-5.8,12.5-0.9,19.3c1.3,1.8,4.5,1,4.4,4.5c-0.1,3.3,1.3,6.6,2.1,10.1c-0.5-0.1-0.3,0-0.2-0.1c0.3-0.3,0.6-0.6,0.6-0.6
				l2.2,12.3l-2.2,0.2c0.7,1.3,1.6,2.5,2.6,3.6c0.8,0.7,2.1,0.9,3.1,1.2c1.8,0.7,3.6,1.2,5.4,1.4c1.8,0,3.7-0.2,5.5-0.6
				c0.9,1.3,2.1,3.2,3.3,5C442.8,375.6,442.7,375.9,442.5,376.2z"/>
			<path class="st19" d="M281.8,228.3c-0.5-1.5-0.9-2.8-1.1-3.4c1.8-0.7,3.3-1.2,4.8-1.8c4.5-1.6,9.1-3.2,13.6-4.7
				c0.7,0,1.4,0.3,1.9,0.8c-0.2,1.6-0.1,3.6-1.1,4.8c-1.1,1.3-3.6,1.4-4.7,2.8c-3.5,4.2-7.6,1.5-11.5,1.6h-1.9V228.3z"/>
			<path class="st19" d="M361.4,372c0.3-0.1,0.9-0.4,1.4-0.7c6.2-3.5,9-2.3,11.2,4.7c0.1,0.2,0.1,0.5,0.2,0.7c0.4,0.9,0.7,1.9,1,2.8
				l-4.6-1.7c-0.5,0.3-1.9,1.2-3.8,2.5L361.4,372z"/>
			<path class="st19" d="M302.8,349.4c2.8,0.6,5.5,0.9,8,1.9c1.1,0.5,1.6,2.4,2.4,3.6c-1,0.3-2,0.7-3,0.9c-0.8,0.2-1.5,0.1-2.3,0.2
				C303,356.8,299.9,354.8,302.8,349.4z"/>
			<path class="st19" d="M301.5,376.3c0.1-2.5,0.2-5.1,0.4-8.1l4.4,1.6c-1.2,1.5-2,2.6-3,3.8c1.3,0.7,2.2,1.3,3.2,1.9
				c0,0.3,0,0.6,0,0.9L301.5,376.3z"/>
			<path class="st19" d="M535.6,245.8h4.3c0.3,0.9,0.9,2.5,2,5.2c-2.9-1.7-4.9-2.9-6.9-4.1C535.1,246.5,535.3,246.1,535.6,245.8z"/>
			<path d="M530,222.3l-3.2,2l-0.7-0.9l4.4-3.9l2.9,2.4c-0.1-1-0.2-2-0.3-3c0-0.8,0.1-1.7,0.1-2.5c0.8,0,1.7,0,2.5,0.3
				c0.8,0.5,1.5,1.1,2.1,1.7c-0.2,1.6-2.6,3.7,1,4.4c0.2,0.6,0.3,1.1,0.2,1.7c-1.4,0.4-2.9,1.2-4.1,0.8
				C533.2,224.8,531.8,223.4,530,222.3z"/>
			<path class="st19" d="M245.8,162.6c0,0-32.2,22.5-32.2,91.7c0,27.5,4.6,49.3,5,76.4c0.3,22.5-1.8,45.9,0,62.9
				c1.5,14.2,5.1,36.7,8.3,44c11.5,26.6,77,113.6,108.9,115.4s111.2,0.3,111.2,0.3s93.7-3.7,111.5-108.5c2.2-13-2-27.1-0.2-39
				c2-13.8-10.2-30.7-8.7-42.9c7.4-62.3,8.1-101.8,8.1-101.8s7.5-71-29.7-89.6C471.7,143.4,274.2,127.1,245.8,162.6z"/>
			<path d="M241.5,514.6c1.2,0.4,5.1,11.1,6.2,11.1c1.4-0.1,3.4,2.1,4,1c1.2-2.1,1.6-4.7,2.5-7c0.6-1.3,1.2-2.5,2-3.7l-2.9-3.2
				l9.6-0.7c0.1,0.5,0.1,0.9,0.2,1.3l-3.5,1.5c1.1,1.3,2.1,2.4,3.4,3.8c1.5-2.5,2.5-4.7,4.1-6.5c1.1-1,2.5-1.7,4-2
				c2.9-0.7,5.8,3.7,15.1,1.5c0.8-1,1.7-2,2.7-2.8c2.7-1.8,5.6-3.4,8.3-5.3c1.4-0.9,2.6-2.1,3.6-3.4c1.4-2.1,11.1-26.1,13.6-28.9
				c0.6-0.7,1.4-1.5,1.5-2.3c0.4-5.4,12.6-14.5,15.3-15.3s5.5-4.5,8.3-5.1c1.7-0.4,12-5.7,14.9-8.5c3.2-3.2,7.8-7.6,8.4-8.6
				c1.6-2.7,5.9-3.8,12-5.3c4.4-1.2,5.2-1.6,6.6-5.2c0,0,0.2-3.9-2-7.2c-13.7,4.9-26.3-3.9-20.5-14c0.6-1.5,3.2-2.8,5-2.9
				c6.2-0.4,12.1,0.3,17.4,4.7c3.2,2.7,4,5.5,7.9,7.2c0.9,0.2,1.7,0.6,2.5,1.1c2.9,2.8,18.4,1.8,18.6,1.8c2.2,0.1,4.7,0.3,6.4-0.8
				c1.5-1,3.5-0.7,6.2-3c4.5-7,12.5-13,19.5-10.8c0.4,0.1,0.7,0.3,1.1,0.5c2.1,1.5,5.4,2.7,6,4.7c1.1,3.5-0.5,10.4-8,11.4
				c-1,0.9-7,0.8-8.9,0.1c-1.4-0.5-1.2-0.4-3.6-1.3c1.9,4.4-2.3,8.2,3.3,10.6c4.6,0.7,10.1,2.9,15.3,4.4c3.6,1.1,8,4.9,10.3,8.8
				c4,9.4,8,6.5,14.9,11.6s9.7,10.7,10.5,11.7c3.3,4.4,4.4,9.3,5.2,14.6c1.2,7.2,3.1,14.3,4.9,22.6c4.7,21,7.3,21.8,7.3,21.8
				c0.3,1,0.8,1.9,1.6,2.6c1,1.1,2.4,2,3.4,3.1c3.4,3.7,13.8-4.9,12.3,0.7c-0.5,1.9-5.9,17.1-4.3,19.2c0.2,0.3,3.2-0.5,3.8-1.4
				c2-3.4,4.4-4.2,8.2-3.3c5.1,1.2,5.7-17.4,8.3-22.4c1.4,2.1,8.4,4.6,7.8,10.3S500,586,457.5,600.7s-102.2,12.2-132.7-2.5
				s-84.9-69.7-84.9-69.7L241.5,514.6z M487.4,499.1c-1.8-1.3-2.9-6.9-4-8.9c-2.5-4.4-5.5-7.2-11-7.8c-6.2-0.7-12-2.5-17.4-6.6
				c-5.6-4.3-13.1-4.9-20.4-5.1c-9.4-0.3-18.7,1.6-28,2c-7.3,0.3-14.7-0.7-22.1-0.6c-10.2,0.1-20.5-0.4-30.1,4.5
				c-3.7,1.9-17.7,8.9-22,7.1c-3.9-1.5-8.2-1.9-12.3-1c-2.5,0.6-5.1,4-6,6.8c-1.1,3.5-3,6.6-5.5,9.2c-2.4,2.5-4,6.4-4.7,10
				c-0.6,4-0.6,8.1,0.1,12.1c0.2,1.4,2.2,3.5,3.5,3.7c3.4,0.4,6.5,2,8.8,4.6c1,1.1,9.5,9.3,15,9.8c4,0.3,10.3,5.5,10.8,4.6
				c8.3,2.3,10.3,4.5,18.3,6.7c9.2,1.5,10.6-2.6,11.6-3.2c1.9-1.2,3.9-2.1,6-2.8c1.3-0.4,3,0.2,4.3-0.3c0.9-0.4,2-2.1,1.8-2.8
				c-1-3.5-2.9-6.8-3.7-10.4s-1.3-7.2-0.6-10.6c0.8-3.9-0.1-8-2.6-11.2c-1.6-0.8-3.1-1.7-4.5-2.8c-0.8-0.8-1.6-2.3-1.4-3.2
				c0.5-1.2,1.4-2.1,2.7-2.5c4.4-1.1,4.4-1,4.1-5.8c9.5-2.5,14.1-2.9,24-3.8c6.7-0.6,17.9,0.9,24.2,1.6c0.9,0.1,0.7,5.1,1.4,6.2
				c1.1,1.8,2.9,0.8,4.4,2.2c2.7,2.5-1.1,6.5-4.7,7.6c-3,0.9-1.3,5.9-1.7,8.8c-0.7,4.9-1.7,9.8-2.2,14.7c-0.2,1.7,0.6,9.8-2,11.6
				c6.6-0.4,7,2.6,10.9,4c4.4,3.3,34.9-5.9,35.6-6.3c0.9-0.4,2-1.8,1.8-2.6c8.9-9.2,14.8-12.4,15.5-13.3
				C498.8,516,487.4,499.1,487.4,499.1z M384.5,461.5c1.6,0.7,8.2-4.5,13.3-4.7c5.8-0.3,8.3,5.5,16.3-0.3c1.8-0.6,22.5,6.9,26.3,5.3
				c3.5-1.4,13.8,3.3,15,3.6c2.2,0.5,4.5,0.3,6.8,0.3c-0.2-1.9-6-6.8-7.7-7.4c-5.4-2-11.2-3.2-12.7-3.8c-2.9-1.3-16.2-1.7-20.9-5
				c-13.5-1.6-11.5-5.7-14.8-11.6c-4.8,11.7-10.7,10.8-17.2,12.4c-2.6,0.6-7.3,1.1-9.6,2.5c-1.5,0.9-4.4,0.8-7.4,2.1
				c-4,1.9-23.8,9.7-23,14.8c2.9-1,14.8-2.7,20.3-4.5C373.8,463.7,373.3,463.6,384.5,461.5z"/>
			<path d="M196.8,338.7c-0.4-1.9-0.7-3.8-1.1-5.7c-0.6-2.7-1.2-5.4-1.7-8.2c-0.2-1.1,0.2-2.5-0.3-3.5c-5-11.4-6.1-23.7-7.2-35.8
				c-0.7-7.9,0.3-15.9,0.6-23.9c0.3-8.7,0.7-17.3,0.8-26c0.2-14.2,3.1-28,7.2-41.5c2.9-9.5,7.7-18.2,13.3-26.5c2.3-3.4,4-7,6.1-10.5
				c2.9-4.8,6-9.5,9-14.4s5.6-9.5,8.4-14.2c2.5-4.2,7.3-7,7.3-12.7c0-0.4,1.1-1,1.9-1.3c5.3-1.7,8.1-5.7,10.7-10.3
				c2.8-4.9,6.9-9,11.8-11.7c5.7-3.4,10.9-7.6,15.4-12.4c6.1-6.6,11.4-14.2,19-19.3c6.8-4.6,14-9,22.7-9.2c1.7-0.1,3.3-0.6,4.8-1.5
				c5.2-3,10.9-5,16.8-5.8c4.2-0.7,10.2,0.1,12.5-5.9c0.5-1.2,2.5-2.1,4-2.4c7-1.3,14.7-4.5,20.9-0.7c6.5,4,11.8-0.1,17.6,0.4
				c2.8,0.3,5.6,0.7,8.4,0.7c3.4,0.1,6.9-0.5,10.3-0.2c4.4,0.4,8.9,0.6,12.9,3.4c1.5,1,4,0.5,5.8,1.3c3.4,1.3,6.7,3,9.7,5
				c5,3.7,9.2,8.9,14.7,11.6c9,4.6,15.4,11.9,22.5,18.7c3.2,3.1,7.3,5.4,10.2,8.7c4.8,5.6,9.8,10.9,13,17.9c3.3,7.1,8,13.3,14,18.3
				c3,2.6,4.9,6.6,7.1,10.1c4.1,6.6,8.1,13.2,12,19.9c6.1,10.7,12.5,21.3,18,32.3c4.2,8.3,7.7,17,10.5,25.8
				c1.9,5.9,1.8,12.5,3.1,18.6c3.4,15.5,2.6,31.1,1.1,46.8c-1.1,11.3-1.2,22.6-1.9,33.9c-0.3,5.3-1.1,10.6-1.7,16
				c-0.6,5.6-0.5,10.9,5.2,14.8c-2.1,2.6-4,4.9-5.8,7.1c-0.4,0-0.8-0.1-1.2-0.1c-0.7-2-1.3-4-1.7-6.1c-1.5-14-2.8-28-4.1-42
				c-0.3-3.6-2.2-7.2,0.1-10.7c0-0.1,0-0.3,0-0.4c-3.5-5.3,1-11.6-2.4-17.2c-1-1.6-2.7-3.5-2.4-5.9c0.1-1-1.6-6-2.3-6.6
				c-4.1-4.3-2.9-4.7-3.6-6.6c-1-2.6,5.9-25.6,2.3-40.9c-1.2-5.1-2-11.3-2.9-16.3c-0.1-0.9-0.6-1.7-1.3-2.3
				c-3.6-1.4-3.7-5.2-5.6-7.6c-5-5.9-5.8-14.5-13.1-19c-2.3-1.4-3.6-4.6-4.9-7.2c-1.2-2.4-1.6-5.3-5.1-5.7c-0.5-0.1-1.1-1.4-1.3-2.2
				c-0.9-5.9-5.4-7.9-10-10.3c-4.3-2.2-9-4.5-11.6-9l-3.2,1.7c-0.8-1.8-1.5-3.6-2.4-5.7l-4.8,3c-5.9-2.6-11.8-5.4-17.9-7.9
				c-1-0.4-2.7,0.6-4,1.2c-2.2,1.1-4.2,2.5-6.4,3.4c-0.9,0.3-2,0.1-2.8-0.5c-3.5-5.3-8.7-2.7-13.2-3.1c-2.3-0.2-4.6-0.9-6.9-1
				c-2.2-0.3-4.5-0.1-6.7,0.4c-3.2,0.9-6.1,1.1-9.1-0.6c-2.3-1.3-5-2-7.4-3.1c-2.2-1-4.4-2-6.5-3c-3.5,3.8-5.1,3.8-8.7,0.3
				c-2.7,1.6-5,2-5.7-2.3c-0.1-0.6-2.4-1.4-3.4-1.1c-3.2,1-6.8,1.2-9,4.8c-0.9,1.4-4,1.7-6.1,2.1c-3,0.5-6,0.7-9,0.9
				c-2.6,0.2-5.3,0.4-7.9,0.4c-5.8,0-11.7,0.2-17.5-0.2c-4.2-0.2-8.5,1.1-12.6-1.1c-1.8-0.7-3.7-0.4-5.3,0.7
				c-2.9,2.8-6.3,1.8-9.5,2.3c-5.1,0.8-10.4,1.5-15.3,3c-5.1,1.6-5,2-6.6-3.2c-4.6,2.8-8.8,6.6-13.7,8.1c-5.1,1.6-7.2,7-12.2,8.1
				c-0.6,0.2-1.1,0.7-1.4,1.4c-2.4,5.9-8.9,7.4-12.3,12.3l1.4,0.3l-10.9,16.3c-0.2-0.4-0.7-1.3-1.3-2.4c-1.6,2.1-3.1,4-4.4,6
				c-0.7,1.2-1.1,2.5-1.2,3.8c-0.5,3.3-3.9,5.6-5.9,4.8c-0.3,3.8-0.7,7.8-0.9,11.8c-0.1,1,0.2,2.1,0.7,2.9c2.9,3.5,0.1,18,1.1,17.6
				c0,9.7,0.1,19.2,0,28.7c0,6.2-5.6,4.3-6.9,10.4c-1.3,6.1-1.7,12-3,18.3c-1,4.6-1.8,9.2-2.7,13.8c-0.6,3.1,1.1,14.8-0.6,20.2
				c-0.7-2.4-1-3.6-1.6-5.7c-0.8,3-1.9,5.3-1.7,7.5s1.8,4.3,2.9,6.4c1.4,2.5,1.4,4.2-2,4.8c-0.8,0.1-2,1-2,1.5
				c-0.4,4.1-0.5,8.2-0.8,12.3c-0.1,2.8-0.2,5.6-0.4,8.4"/>
			<path class="st20" d="M373,309.7c-3.5-2-2.5-2-1.8-5.6l-8.6-1.5c-0.2,2.9-0.4,5-0.6,7.4l1.9-0.9c0.1,3.3-0.5,3.7-6.9,4.6
				c1.7,0.5-5.4,2.8-10-2.1c-2.2-2.3,0.5-5.5-0.8-8.2c-1.4-3.1-5.7-5.3-8.3-7.2c-0.5,4.7,2,7.4-1.6,11.7c-3,3.6-6.3,5.6-11.1,6.1
				c-12.2,1.1-13.8-6.5-20.3-14c-3.5,3.4-6.9,4.6-6.5,8.3c0.6,5.3,2,6.4,5.3,6.3c4.5,0.1,8.8,1.2,12.9,3.1c6.3,3,14.2,5.9,20.9,1.3
				c5.9-4,10.4-0.1,13.1,4.4c-0.9,0.5-15.3,3.8-18.4,1.8c-1,9.1-21,0.9-28.6-1.5c1.6-1-5.6-1.1-5.1,0c-7.2,3.7-6.6-3.8-12.4-4.3
				c-4.9-0.5-12.7,0.9-14.5-1.7c-3.5-2.3-13.7-7.4-10.3-14.8c4.9-6.9,16.4-15.3,17.8-17.6c1.6-2.7,10.6-7,13.1-8.5
				c16.8-9.7,39.5-7.7,42.8-8.9s3.1-3.8,2.3-6.7l-2.7,3.1c-1.2-1.1-14.6-6.9-40.5-2.7c-6.2,0.2-8.2,3-10.1,2.5
				c-4.6-1.5-7.9,2.6-12.7,4.1s-4,6.5-7.3,8.4c-11-9.1,17.6-28.1,24.8-29.9c8.1-2,19-4.6,27.5-4.9c5-0.2,18.8-0.6,20.6-0.6
				c4.1-0.6,23.6,5.9,28.7,6.2c8.9,0.5,15.8,12.5,10.5,20c6,8.4,11.4,30-1.5,34.8C376,302.9,375.1,308.1,373,309.7z M331.6,288.7
				c2.6,0.4,7.9-2,3.4-5.1c-13.8-10.2-40.7-0.8-46.4,15c2.1,3.2,18.2-8.7,22-9.9C318,286.1,331.6,288.7,331.6,288.7z"/>
			<path class="st20" d="M488.1,330.2c26.6,4-14.7,7.6-18,0.7c-3.4,1.3-15.1-5.6-17.1-8.3c-1.4-1.8-5.7-2.7-8-3.5
				c-4-1.3-2.9-7.5-3.5-11.5c-3.7,0.4-6.8-0.9-10-3.8c-2.4-2.1-7.4-19.5-6.2-24.5c1.1-4.5,4.6-12.4,9.2-12.4
				c-6.9,0-7.7-13.6,0.3-14.8c4.4-0.7,23.4-4.4,27.5-3.1c4.4,1.4,8.8-0.8,13.3-1.1c8.1-0.6,16.4,2.8,24.2,5.4
				c4.5,1.5,39.4,14.8,29.3,29c1.8-2.6-7.4-9-10.1-10.6c-5.3-3.1-36-6.8-39.5-5.7c2.6,1.4-14.4-0.3-14.8,6.8
				c13.3,0,31.4,4.6,38.1,8.1c6.2,3.4,12.1,9.3,17.7,13.5c1.5,1.1,5.8,10,5.3,11.8c-1.4,5.5,3.7,8.8,5,13.6c1.1,3.8,5.9,2.6,0.2,7
				s-26.8,4-29.2-2.9c-1.3-3.7,2-11.3-2.2-13.1c-2.6-1-7.7,7.3-9.5,8.6c-2.1,1.5-2.1,1.7-4.4,2.9c-2.8,1.3-3.3,0.7-7,0.3
				c-5.3-0.6-9.1-3.8-11.2-8.6c-1.4-3.1-1.7-9.6-6.9-7.7c-3.3,1.2-6.7,9.3-5,11.8s8.3,7,11.5,6.8
				C472.3,324.4,484.8,328.7,488.1,330.2z M488.9,295.9c3.5,1.7,19.4,15.2,21.9,12.3c-4-16.3-29.7-28.6-44.5-20
				c-4.7,2.6,0.2,5.6,2.9,5.5C469.2,293.7,481.8,292.6,488.9,295.9z M430.9,257.2c3.9,4.1,7.5,0.4,11.5,0.4
				C440.5,255.6,434.4,255.4,430.9,257.2L430.9,257.2z"/>
			<path d="M360.9,382.5c-0.5,2-1.3,3.9-2.2,5.8c-0.8,1.8-1.7,3.4-2.7,5s-1.9,3.2-3,4.8s-2.1,3.2-3.5,4.9c-0.6-2.1-0.7-4.3-0.2-6.4
				s1.3-4,2.3-5.8c1.1-1.8,2.4-3.4,3.9-4.8C357.1,384.4,358.9,383.3,360.9,382.5z"/>
			<path d="M425.1,285.3c0.7,1.4,1.3,2.7,1.9,4.2s1,2.9,1.4,4.4s0.8,2.9,1.1,4.4s0.6,3,0.9,4.5c1,6,1.6,12,1.9,18s0.3,12,0,18.1
				c-0.2,6-0.9,12.1-2,18c-0.9-6-1.5-12-1.9-18s-0.8-11.9-1.1-17.9l-0.8-17.8C426.2,297.2,426,291.3,425.1,285.3z"/>
			<path d="M379.4,350.5l2.4-63.8c0,0-13.8-3.9-14.1,5.1s3.5,3.7,7,21.5C377,325.6,378.6,338,379.4,350.5z"/>
			<path d="M448,387.4c1.5,0.9,2.9,2,4.2,3.2c0.6,0.6,1.3,1.2,1.9,1.9s1.2,1.4,1.7,2.1c0.3,0.4,0.6,0.7,0.9,1.1l0.8,1.1
				c0.5,0.8,0.9,1.6,1.1,2.6c0.1,0.5,0.1,0.9,0.2,1.4c0,0.5,0,1-0.1,1.5c-0.1,1-0.5,2-1,2.9l-0.5,0.1c-1.3-1.2-2.4-2.6-3.3-4.1
				c-0.2-0.3-0.4-0.7-0.5-1c-0.1-0.4-0.2-0.7-0.4-1.1l-0.3-1.2c-0.1-0.4-0.2-0.8-0.4-1.1c-0.3-0.8-0.6-1.5-1-2.2s-0.7-1.5-1.1-2.2
				c-0.8-1.5-1.7-3-2.6-4.4L448,387.4z"/>
			<path class="st19" d="M213.8,315.2c0,0,2.9,17.5-6.9,28.1c-4.2,4.5-16.6,1.6-26.2,0.7c-7.1-0.7-3.6,14.6-3.6,14.6
				s14.8,57.9,24,72.2s16.6,18.6,16.6-18.1c0,0,0.8-21.8-8.3-19.4c-13.3,3.4,1.9,19.1,1.9,19.1s10.9,17.3,7.6,17.7
				c-2.3,0.3-19.4-8-23.9-19.4c-11-27.5-14.2-41.4-12.4-52.1c2.1-12.6,12.6-7.5,23.4-4.5c2.1,0.6,17.3,13,19.2,11.6
				C232.4,360.4,213.8,315.2,213.8,315.2z"/>
			<path class="st19" d="M213.8,315.2c0.8,5.1,0.7,10.2-0.2,15.2c-0.9,5.1-3.2,9.9-6.8,13.7c-1.1,0.9-2.3,1.4-3.7,1.7
				c-1.3,0.3-2.6,0.5-3.9,0.5c-2.6,0.1-5.1,0-7.7-0.3c-2.6-0.2-5.1-0.6-7.6-0.8L182,345l-0.9-0.1h-0.5h-0.4c-0.9,0.1-1.7,0.6-2,1.5
				c-0.4,1-0.6,2.2-0.6,3.3c0,1.2,0,2.4,0.2,3.6c0.1,1.2,0.3,2.4,0.6,3.6c0.1,0.6,0.2,1.2,0.4,1.7l0.5,1.8l4.3,14.6
				c1.5,4.9,3,9.7,4.5,14.5s3.1,9.6,4.7,14.4c1.6,4.8,3.4,9.5,5.2,14.2c0.9,2.3,1.9,4.6,2.9,6.8c0.5,1.1,1.1,2.2,1.7,3.2
				s1.2,2,1.9,3c1.3,2,2.8,3.8,4.4,5.6c0.6,0.7,1.4,1.2,2.2,1.6c0.1,0.1,0.2,0.1,0.3,0.1c0,0,0,0,0.2-0.2c0.5-0.7,1-1.5,1.2-2.3
				c0.4-1.1,0.6-2.2,0.9-3.3c0.4-2.4,0.7-4.8,0.9-7.3c0.4-4.9,0.4-10,0.5-15c0-2.4-0.2-4.8-0.6-7.2c-0.3-2.2-0.9-4.4-1.9-6.3
				c-0.3-0.6-0.8-1.1-1.5-1.4c-0.3-0.1-0.6-0.1-0.8-0.1c-0.5,0.1-0.9,0.3-1.4,0.4c-0.8,0.2-1.5,0.7-2.1,1.3c-0.4,0.6-0.6,1.3-0.6,2
				c0.3,2.1,1,4.1,2.3,5.9c1.3,2,2.7,3.9,4.3,5.6l0.2,0.2l0.1,0.2c2.4,3.8,4.6,7.7,6.5,11.7c0.5,1.1,1,2.1,1.4,3.2
				c0.2,0.6,0.4,1.3,0.5,1.9c0.1,0.4,0.1,0.9,0.1,1.3s-0.1,0.7-0.2,1.1c-0.2,0.6-0.6,1.1-1.1,1.4s-1,0.5-1.5,0.5
				c-0.3,0-0.6,0-0.9-0.1c-0.3-0.1-0.7-0.2-1-0.3c-0.6-0.2-1.2-0.4-1.7-0.6c-1.1-0.5-2.1-1-3.1-1.5c-4-2.1-7.8-4.7-11.2-7.8
				c-1.7-1.6-3.3-3.3-4.7-5.1c-0.7-1-1.4-2-1.9-3c-0.3-0.5-0.6-1.1-0.8-1.6l-0.4-0.8l-0.3-0.8c-3.1-8.2-6.1-16.5-8.5-25
				c-1.2-4.3-2.1-8.6-2.8-13s-0.7-9,0-13.4c0.2-2.3,1.1-4.6,2.4-6.5c0.7-1,1.7-1.8,2.8-2.3s2.3-0.7,3.5-0.8c2.3,0,4.5,0.4,6.7,1
				c2.1,0.6,4.2,1.3,6.3,1.9l1.6,0.5l0.8,0.2c0.3,0.1,0.6,0.2,0.9,0.3c1,0.5,1.9,1.1,2.9,1.8l5.3,3.9c1.8,1.3,3.5,2.5,5.4,3.7
				c0.9,0.6,1.8,1.2,2.8,1.7c0.5,0.3,0.9,0.5,1.4,0.6c0.2,0.1,0.4,0.1,0.7,0.1c0.1,0,0.2,0,0.2-0.1c0.1-0.1,0.2-0.2,0.3-0.2
				c0.6-0.8,1-1.8,1.1-2.8c0.1-1.1,0.2-2.1,0.1-3.2c-0.1-2.2-0.4-4.3-0.8-6.5c-0.9-4.3-1.9-8.5-3.2-12.7
				C220,331.6,217,323.4,213.8,315.2z M213.8,315.2c3.3,8.1,6.4,16.3,9,24.7c1.3,4.2,2.5,8.4,3.4,12.7c0.5,2.2,0.8,4.3,0.9,6.5
				c0.1,1.1,0,2.2-0.1,3.3c-0.1,1.2-0.5,2.3-1.2,3.2c-0.1,0.1-0.2,0.2-0.3,0.3c-0.1,0.1-0.3,0.2-0.5,0.2c-0.3,0-0.7,0-1-0.1
				c-0.5-0.2-1.1-0.4-1.6-0.6c-1-0.5-1.9-1-2.9-1.6c-1.9-1.2-3.7-2.4-5.5-3.6l-5.4-3.7c-0.9-0.6-1.8-1.2-2.7-1.6l-3.1-0.9
				c-2.1-0.6-4.2-1.3-6.3-1.8c-2-0.6-4.1-0.9-6.3-0.8c-2,0-3.9,0.9-5.1,2.5c-1.1,1.7-1.8,3.7-1.9,5.8c-0.4,4.3-0.1,8.5,0.7,12.7
				c0.9,4.2,1.9,8.4,3.3,12.5c2.7,8.2,5.9,16.3,9.2,24.4l0.3,0.8l0.3,0.7c0.2,0.5,0.4,0.9,0.7,1.3c0.5,0.9,1.1,1.7,1.6,2.5
				c1.3,1.6,2.7,3.1,4.2,4.5c3.2,2.8,6.6,5.1,10.4,7c0.9,0.5,1.9,0.9,2.8,1.3c0.5,0.2,0.9,0.4,1.4,0.5c0.2,0,0.3,0.1,0.5,0.1
				c0,0,0.1,0-0.1,0c-0.6,0.1-1.1,0.4-1.4,1c0,0.1-0.1,0.2-0.1,0.3c0-0.1,0-0.2-0.1-0.3c-0.1-0.4-0.2-0.8-0.4-1.2
				c-0.3-0.9-0.8-1.9-1.2-2.8c-1.9-3.8-4-7.6-6.3-11.2l0.3,0.4c-1.9-2-3.5-4.1-5-6.4c-0.8-1.2-1.4-2.4-1.9-3.7
				c-0.6-1.4-1-2.9-1.1-4.5c0-0.9,0.1-1.8,0.3-2.6c0.3-0.9,0.7-1.8,1.3-2.5c1.1-1.3,2.6-2.3,4.2-2.8c0.8-0.3,1.5-0.5,2.3-0.6
				c1-0.2,2-0.1,2.9,0.2c1,0.3,1.8,0.8,2.6,1.4c0.6,0.6,1.2,1.3,1.7,2c0.8,1.3,1.4,2.7,1.8,4.1c0.4,1.3,0.7,2.6,0.9,4
				c0.4,2.6,0.7,5.3,0.7,8c0,5.2,0,10.3-0.4,15.5c-0.2,2.6-0.5,5.3-0.9,7.9c-0.2,1.4-0.6,2.7-1,4c-0.5,1.6-1.3,3.1-2.4,4.3
				c-0.8,0.9-1.9,1.5-3.1,1.7c-1.1,0.2-2.3,0.1-3.4-0.4c-1.5-0.7-2.8-1.6-3.9-2.8c-1.9-2-3.5-4.1-5-6.4c-0.7-1.1-1.4-2.2-2.1-3.4
				s-1.3-2.4-1.8-3.6c-1.1-2.4-2.1-4.8-3-7.2c-1.9-4.8-3.5-9.7-5-14.5s-3-9.8-4.4-14.7s-2.7-9.8-3.9-14.8s-2.5-9.9-3.6-14.8
				l-0.4-1.9c-0.2-0.7-0.3-1.4-0.4-2c-0.2-1.3-0.3-2.6-0.4-3.9c-0.1-1.3-0.1-2.7,0.1-4c0.1-1.4,0.5-2.8,1.1-4.1
				c0.4-0.7,0.9-1.3,1.6-1.8c0.7-0.4,1.5-0.7,2.4-0.6c0.2,0,0.4,0,0.6,0l0.5,0.1l1,0.1l1.9,0.3c2.5,0.4,5,0.8,7.5,1.1
				c2.5,0.3,5,0.5,7.5,0.5c1.2,0,2.5-0.1,3.7-0.4c1.2-0.2,2.3-0.7,3.2-1.4c0.9-0.8,1.7-1.8,2.4-2.8s1.4-2.1,1.9-3.2
				c1.1-2.2,2-4.6,2.6-7.1C214.1,325.3,214.4,320.2,213.8,315.2z"/>
			<path class="st19" d="M551.4,393.7l-0.1-23.7c-0.1-6.2,7-15.5,7-15.5s11.6-6.8,18.9-3.2c3.9,1.9,2,14.6,2,14.6
				s-8.3,57.8-13.4,72.1s-17.3,5-17.3-31.6c0.9-0.6,1.6-1.5,2.1-2.6C551.7,400.6,552,397.1,551.4,393.7z M561,400.5
				c5.6,6.3-6.8,23.2-6.8,23.2s10.2,16.3,14.9-5.9c2.3-10.8,8-41.3,7-51.9c-1.2-12.6-7.1-7.4-13.1-4.5c-0.8,0.4-8.1,5.6-9.7,11.5
				c0,0-3.1,6.8-2.2,19.2c0.3,4.5,3.1,7.5,5.1,8S558.8,398,561,400.5L561,400.5z"/>
			<path class="st19" d="M551.4,393.7l-0.1-10.2l-0.3-10.2l-0.1-2.6c-0.1-0.9-0.1-1.8,0-2.6c0.2-1.7,0.7-3.5,1.3-5.1
				s1.3-3.2,2.1-4.8c0.8-1.6,1.7-3.1,2.7-4.6l0.1-0.2l0.3-0.2c1.5-1,3-1.8,4.6-2.5s3.3-1.3,5-1.8c3.4-0.8,7.3-1.3,11.2,0.8
				c0.6,0.4,1.1,0.8,1.5,1.4c0.3,0.5,0.6,1,0.8,1.5c0.3,0.9,0.5,1.9,0.6,2.9c0.2,1.8,0.2,3.5,0,5.3c-0.2,1.7-0.4,3.4-0.7,5.1
				l-0.8,4.9c-2.1,13.1-4.2,26.3-6.7,39.4c-1.2,6.5-2.5,13.1-4.1,19.6c-0.7,3.3-1.7,6.5-2.9,9.7c-0.7,1.6-1.7,3.1-3,4.3
				c-0.7,0.6-1.6,1.1-2.5,1.2c-1,0.1-1.9-0.1-2.8-0.5c-1.5-0.9-2.8-2.2-3.6-3.8c-0.9-1.5-1.6-3-2.1-4.6c-1.1-3.2-1.9-6.4-2.4-9.8
				c-1-6.6-1.4-13.2-1.3-19.9v-0.1h0.1c1-0.6,1.7-1.5,2.1-2.5c0.4-1.1,0.7-2.1,0.9-3.3C551.7,398.3,551.8,396,551.4,393.7z
				 M551.4,393.7c0.4,2.2,0.4,4.5,0,6.8c-0.2,1.1-0.5,2.2-0.9,3.3c-0.4,1.1-1.1,2-2,2.8l0.1-0.1c0,6.6,0.6,13.3,1.7,19.8
				c0.6,3.3,1.4,6.4,2.6,9.5c0.6,1.5,1.3,3,2.2,4.4c0.8,1.4,1.9,2.5,3.2,3.3c1.3,0.7,2.9,0.4,3.9-0.6c1.1-1.1,2-2.4,2.5-3.9
				c1.1-3.1,2-6.2,2.7-9.5c1.5-6.5,2.7-13,3.8-19.5c2.3-13.1,4.3-26.2,6.2-39.4c0.2-1.6,0.5-3.3,0.7-4.9s0.1-3.2,0.1-4.9
				c0-1.6-0.2-3.1-0.4-4.7c-0.1-0.7-0.3-1.4-0.6-2c-0.2-0.5-0.5-0.9-0.7-1l0,0h-0.1l-0.2-0.1c-0.1-0.1-0.3-0.1-0.5-0.2
				c-0.3-0.1-0.6-0.2-1-0.3c-0.7-0.1-1.4-0.2-2.1-0.2c-1.5,0-3,0.1-4.5,0.5c-3.1,0.7-6.1,1.7-8.9,3.1l0.4-0.4
				c-2.2,2.5-4.1,5.3-5.7,8.2c-0.8,1.4-1.4,3-1.8,4.6c-0.2,0.8-0.3,1.6-0.3,2.5l-0.1,2.6l-0.2,10.2L551.4,393.7z"/>
			<path class="st19" d="M561,400.5c0.7,0.8,1.2,1.8,1.3,2.9c0.2,1.1,0.2,2.1,0,3.2c-0.3,2.1-0.9,4.2-1.8,6.1c-1.6,4-3.6,7.7-6,11.3
				v-0.4c1.3,1.9,2.9,3.5,4.8,4.6c1.7,1.2,4,0.7,5.2-1l0.1-0.1c1.2-1.8,2.1-3.9,2.5-6c0.6-2.2,0.9-4.5,1.3-6.8
				c1.5-9.2,2.9-18.4,4.2-27.6c0.6-4.6,1.2-9.2,1.5-13.7c0.2-2.2,0.2-4.5,0.2-6.7c-0.1-1.1-0.2-2.2-0.4-3.2c-0.2-0.9-0.5-1.8-1-2.6
				c-0.3-0.6-0.9-0.9-1.5-0.9c-1,0.1-1.9,0.3-2.8,0.8c-1,0.4-2,1-3.1,1.5l-1.6,0.8l-0.4,0.2c-0.1,0-0.2,0.1-0.3,0.2
				c-0.2,0.1-0.5,0.3-0.7,0.5c-1.9,1.3-3.6,2.8-5.1,4.4s-2.7,3.5-3.5,5.6v0.1l0,0c-0.6,1.3-1,2.6-1.4,4s-0.7,2.8-0.9,4.2
				c-0.4,2.9-0.6,5.8-0.6,8.7l0.1,2.2c0,0.7,0.2,1.4,0.3,2.1c0.4,1.4,1.1,2.7,2,3.8c0.5,0.6,1,1,1.6,1.4s1.3,0.6,2,0.5
				c0.7-0.2,1.3-0.7,2-0.8C559.9,399.5,560.6,399.9,561,400.5z M561,400.5c-0.4-0.6-1.1-1-1.8-1c-0.7,0.1-1.3,0.6-2,0.8
				c-0.7,0.1-1.5,0-2.1-0.5c-0.6-0.4-1.2-0.9-1.7-1.4c-1-1.1-1.7-2.4-2.1-3.8c-0.4-1.4-0.6-2.9-0.6-4.4c-0.2-2.9-0.1-5.9,0.1-8.8
				c0.1-1.5,0.3-2.9,0.6-4.4s0.6-2.9,1.2-4.4v0.1c0.7-2.4,1.8-4.6,3.4-6.4c1.5-1.9,3.2-3.6,5.1-5.1c0.2-0.2,0.5-0.4,0.8-0.6
				s0.2-0.2,0.5-0.3l0.4-0.2l1.5-0.9c1-0.6,2-1.2,3.1-1.8c1.2-0.7,2.5-1.1,3.9-1.3c0.9-0.1,1.7,0.1,2.5,0.4c0.8,0.4,1.4,0.9,1.9,1.6
				c0.8,1.1,1.4,2.4,1.7,3.8c0.3,1.2,0.5,2.4,0.6,3.7c0.2,2.4,0.3,4.8,0.1,7.3c-0.3,4.7-0.8,9.4-1.5,14.1c-0.3,2.3-0.7,4.6-1.1,6.9
				c-0.4,2.3-0.8,4.6-1.3,6.9c-0.9,4.6-1.9,9.2-3,13.7c-0.5,2.3-1.1,4.6-1.8,6.9c-0.7,2.4-1.9,4.6-3.4,6.5c-1.7,2.3-4.9,2.7-7.2,1.1
				c-2-1.4-3.7-3.2-4.9-5.3l-0.1-0.2l0.2-0.2c1.3-1.7,2.5-3.4,3.5-5.3c1.1-1.8,2.1-3.7,3-5.6s1.5-4,1.9-6.1c0.2-1.1,0.2-2.1,0-3.2
				C562.1,402.3,561.7,401.4,561,400.5z"/>
			<path d="M545.2,368.1c0,0,7.8,96.3,0,112.4s0,10.6,0,10.6l9.7-30.2v-20l-3.6-64.6L545.2,368.1"/>
			<path d="M222.9,342.3c6.6,30.2-2.1,103.4,5.7,119.5s0,10.6,0,10.6l-9.7-30.2v-20c0,0-4.8-29.6-3.9-47.3s-3.7-37.8-3.7-37.8
				l0.5-38.2"/>
		</g>
	</g>
</g>
</svg>
