<svg id="Layer_1" data-name="Layer 1" xmlns="http://www.w3.org/2000/svg" xmlns:xlink="http://www.w3.org/1999/xlink" viewBox="0 0 534.47 162.56"><defs><style>.cls-1{fill:#fff;}.cls-2{fill:url(#linear-gradient);}.cls-3{fill:url(#linear-gradient-2);}.cls-4{fill:url(#linear-gradient-3);}.cls-5{fill:url(#linear-gradient-4);}.cls-6{fill:url(#linear-gradient-5);}.cls-7{fill:url(#linear-gradient-6);}.cls-8{fill:url(#linear-gradient-7);}.cls-9{fill:url(#linear-gradient-8);}.cls-10{fill:#231f20;}.cls-11{fill:#f0dde8;}.cls-12{fill:url(#linear-gradient-9);}.cls-13{fill:url(#linear-gradient-10);}.cls-14{fill:url(#linear-gradient-11);}.cls-15{fill:url(#linear-gradient-12);}.cls-16{fill:url(#linear-gradient-13);}</style><linearGradient id="linear-gradient" x1="40.94" y1="152.66" x2="122.02" y2="12.23" gradientTransform="matrix(1, 0, 0, -1, 0, 164)" gradientUnits="userSpaceOnUse"><stop offset="0" stop-color="#24338a"/><stop offset="1" stop-color="#b6578a"/></linearGradient><linearGradient id="linear-gradient-2" x1="194.38" y1="131.74" x2="226.2" y2="76.63" xlink:href="#linear-gradient"/><linearGradient id="linear-gradient-3" x1="244.74" y1="137.63" x2="282.96" y2="71.41" xlink:href="#linear-gradient"/><linearGradient id="linear-gradient-4" x1="318.82" y1="134.53" x2="356.87" y2="68.62" xlink:href="#linear-gradient"/><linearGradient id="linear-gradient-5" x1="373.99" y1="146.93" x2="414.38" y2="76.99" xlink:href="#linear-gradient"/><linearGradient id="linear-gradient-6" x1="407.26" y1="153.27" x2="449.9" y2="79.42" xlink:href="#linear-gradient"/><linearGradient id="linear-gradient-7" x1="456.33" y1="134.51" x2="494.38" y2="68.62" xlink:href="#linear-gradient"/><linearGradient id="linear-gradient-8" x1="503.83" y1="143.96" x2="541.58" y2="78.56" xlink:href="#linear-gradient"/><linearGradient id="linear-gradient-9" x1="41.22" y1="103.75" x2="48.61" y2="90.96" gradientTransform="matrix(1, 0, 0, -1, -0.54, 163.79)" xlink:href="#linear-gradient"/><linearGradient id="linear-gradient-10" x1="71.84" y1="99.52" x2="91.05" y2="66.25" gradientTransform="matrix(1, 0, 0, -1, -0.54, 163.79)" xlink:href="#linear-gradient"/><linearGradient id="linear-gradient-11" x1="71.56" y1="124.84" x2="90.77" y2="91.57" gradientTransform="matrix(1, 0, 0, -1, -0.54, 163.79)" xlink:href="#linear-gradient"/><linearGradient id="linear-gradient-12" x1="98.46" y1="68.11" x2="108.72" y2="50.36" gradientTransform="matrix(1, 0, 0, -1, -0.54, 163.79)" xlink:href="#linear-gradient"/><linearGradient id="linear-gradient-13" x1="56.96" y1="65.1" x2="72.77" y2="37.73" gradientTransform="matrix(1, 0, 0, -1, -0.54, 163.79)" xlink:href="#linear-gradient"/></defs><title>so-logo</title><path class="cls-1" d="M81.33,10.66A71.06,71.06,0,1,1,10,81.72,71.06,71.06,0,0,1,81.33,10.66" transform="translate(-0.54 -0.21)"/><path class="cls-2" d="M81.33,10.66A71.06,71.06,0,1,1,10,81.72,71.06,71.06,0,0,1,81.33,10.66m0-10a81.06,81.06,0,1,0,81.33,81.06A81.06,81.06,0,0,0,81.33.66Z" transform="translate(-0.54 -0.21)"/><path class="cls-3" d="M210,44.69a4.84,4.84,0,0,0-2.46.54,1.62,1.62,0,0,0-.93,1.42q0,1.31,2,2.18a47.46,47.46,0,0,0,6.56,2.07,99.08,99.08,0,0,1,11,3.6,21.63,21.63,0,0,1,8,5.67,14.24,14.24,0,0,1,3.44,9.92,17.67,17.67,0,0,1-3.33,10.68,21.35,21.35,0,0,1-9.45,7.08,37.63,37.63,0,0,1-14.32,2.51q-16.72,0-29.18-8.5l7.43-15.26q12,7.41,22.08,7.41a6.24,6.24,0,0,0,2.73-.49c.66-.33,1-.74,1-1.25,0-.8-.64-1.47-1.91-2a46.69,46.69,0,0,0-6.18-1.91,81,81,0,0,1-10.93-3.49,21.8,21.8,0,0,1-7.92-5.67,14.4,14.4,0,0,1-3.44-10,18.29,18.29,0,0,1,3.28-10.85,21.28,21.28,0,0,1,9.24-7.19,34.77,34.77,0,0,1,13.83-2.56,56.16,56.16,0,0,1,27.76,7.52l-8.09,15.15Q216.84,44.69,210,44.69Z" transform="translate(-0.54 -0.21)"/><path class="cls-4" d="M293.27,32.59a25.2,25.2,0,0,1,9.62,10.85,37.41,37.41,0,0,1,3.39,16.4,36.79,36.79,0,0,1-3.28,16,24.31,24.31,0,0,1-9.34,10.57,26.61,26.61,0,0,1-14.15,3.71,21.55,21.55,0,0,1-8.85-1.8,20,20,0,0,1-7-5.18V100.4h-24.6V29.65h24.59v6a19.11,19.11,0,0,1,15.19-6.87A27.07,27.07,0,0,1,293.27,32.59ZM279,67.58a13.3,13.3,0,0,0,2.46-8.39,13.3,13.3,0,0,0-2.46-8.4,7.84,7.84,0,0,0-6.5-3.16A7.69,7.69,0,0,0,266,50.79a13.5,13.5,0,0,0-2.4,8.39,13.5,13.5,0,0,0,2.4,8.39,7.68,7.68,0,0,0,6.45,3.16A7.83,7.83,0,0,0,279,67.58Z" transform="translate(-0.54 -0.21)"/><path class="cls-5" d="M360.18,34.39q7.27,5.83,7.27,16.3V89.27H343.3V82.84q-5.47,7.52-16.83,7.52-9.4,0-14.7-5.07t-5.3-13.68q0-8.83,5.9-13.41t17.27-4.8H343.3a5.88,5.88,0,0,0-2.46-4.85q-2.35-1.69-6.83-1.69a43.19,43.19,0,0,0-8.36,1,63.29,63.29,0,0,0-9.78,2.83L310.4,34.33A97,97,0,0,1,325.64,30a75.18,75.18,0,0,1,14.26-1.47Q352.91,28.56,360.18,34.39ZM339.64,73.57a9.89,9.89,0,0,0,3.66-3.38V64.74h-8.53q-5.25,0-5.25,4.8a5.1,5.1,0,0,0,1.42,3.87,5.61,5.61,0,0,0,4,1.36A9.72,9.72,0,0,0,339.64,73.57Z" transform="translate(-0.54 -0.21)"/><path class="cls-6" d="M415,86.65a25.26,25.26,0,0,1-7.71,2.73,47.72,47.72,0,0,1-9.67,1q-10.06,0-16.12-5.5t-6.07-14.77v-25h-8.2V29.65h8.2V16.24h24.48V29.65h14V45.12h-14V66.38a5.2,5.2,0,0,0,1.31,3.76,4.31,4.31,0,0,0,3.5,1.25,19.24,19.24,0,0,0,6.12-1.53Z" transform="translate(-0.54 -0.21)"/><path class="cls-7" d="M438.16,3.7a12.09,12.09,0,0,1,3.5,8.94,12.08,12.08,0,0,1-3.5,8.94,13.26,13.26,0,0,1-17.92,0,12.08,12.08,0,0,1-3.5-8.94,12.08,12.08,0,0,1,3.5-8.94A13.26,13.26,0,0,1,438.16,3.7Zm-21,25.94h24.59V89.27H417.18Z" transform="translate(-0.54 -0.21)"/><path class="cls-8" d="M497.68,34.39q7.27,5.83,7.27,16.3V89.27H480.79V82.84q-5.47,7.52-16.83,7.52-9.4,0-14.7-5.07T444,71.61q0-8.83,5.9-13.41t17.27-4.8h13.66a5.88,5.88,0,0,0-2.46-4.85q-2.35-1.69-6.83-1.69a43.19,43.19,0,0,0-8.36,1,63.29,63.29,0,0,0-9.78,2.83l-5.47-16.35A97,97,0,0,1,463.14,30a75.18,75.18,0,0,1,14.26-1.47Q490.41,28.56,497.68,34.39ZM477.13,73.57a9.89,9.89,0,0,0,3.66-3.38V64.74h-8.53q-5.25,0-5.25,4.8a5.1,5.1,0,0,0,1.42,3.87,5.61,5.61,0,0,0,4,1.36A9.72,9.72,0,0,0,477.13,73.57Z" transform="translate(-0.54 -0.21)"/><path class="cls-9" d="M510.41,16.24H535v73H510.41Z" transform="translate(-0.54 -0.21)"/><path class="cls-10" d="M197.65,109.37a10.75,10.75,0,0,1,4,3.83,10.07,10.07,0,0,1,1.46,5.31,10.22,10.22,0,0,1-1.46,5.34,11,11,0,0,1-18.85,0,10.21,10.21,0,0,1-1.46-5.34,10.06,10.06,0,0,1,1.46-5.31,10.74,10.74,0,0,1,4-3.83,11.27,11.27,0,0,1,10.95,0ZM187.8,111a8.78,8.78,0,0,0-3.22,3.16,8.4,8.4,0,0,0-1.19,4.38,8.55,8.55,0,0,0,1.19,4.41,8.81,8.81,0,0,0,3.22,3.21,8.63,8.63,0,0,0,4.41,1.18,8.49,8.49,0,0,0,4.37-1.18,8.85,8.85,0,0,0,3.21-3.21,8.55,8.55,0,0,0,1.19-4.41,8.4,8.4,0,0,0-1.19-4.38,8.82,8.82,0,0,0-3.21-3.16,8.58,8.58,0,0,0-4.37-1.16A8.72,8.72,0,0,0,187.8,111Z" transform="translate(-0.54 -0.21)"/><path class="cls-10" d="M239.19,109.94a6.35,6.35,0,0,1,2.12,5.12,6.73,6.73,0,0,1-2.12,5.31,8.74,8.74,0,0,1-6,1.88h-5.64V129H225.5V108.13h7.69A9,9,0,0,1,239.19,109.94Zm-1.48,9.1a4.82,4.82,0,0,0,1.63-3.92,4.64,4.64,0,0,0-1.61-3.82,7.15,7.15,0,0,0-4.63-1.3h-5.55v10.41h5.55a7,7,0,0,0,4.61-1.41Z" transform="translate(-0.54 -0.21)"/><path class="cls-10" d="M263.31,108.13h14V110h-11.9v7.46H276v1.85H265.37v7.84h12.29V129H263.31Z" transform="translate(-0.54 -0.21)"/><path class="cls-10" d="M314.34,129l-4.5-6.8q-1,.06-1.46.06h-5.73V129h-2.06V108.13h7.78a9.09,9.09,0,0,1,6,1.8,6.33,6.33,0,0,1,2.13,5.12,7.18,7.18,0,0,1-1.25,4.32,6.53,6.53,0,0,1-3.58,2.42l5,7.19Zm-6-8.59A6.94,6.94,0,0,0,313,119a4.84,4.84,0,0,0,1.61-3.92,4.64,4.64,0,0,0-1.61-3.82,7.1,7.1,0,0,0-4.59-1.31h-5.73v10.41Z" transform="translate(-0.54 -0.21)"/><path class="cls-10" d="M355.62,129l-2.48-5.55H341.57L339.13,129h-2.21l9.39-20.85h2.15l9.4,20.85Zm-13.24-7.4h10l-5-11.27Z" transform="translate(-0.54 -0.21)"/><path class="cls-10" d="M374.29,108.1h15.84V110h-6.89v19h-2.06V110h-6.89Z" transform="translate(-0.54 -0.21)"/><path class="cls-10" d="M411.63,108.13h2.06V129h-2.06Z" transform="translate(-0.54 -0.21)"/><path class="cls-10" d="M452.47,109.37a10.75,10.75,0,0,1,4,3.83,10.07,10.07,0,0,1,1.46,5.31,10.22,10.22,0,0,1-1.46,5.34,11,11,0,0,1-18.85,0,10.21,10.21,0,0,1-1.46-5.34,10.06,10.06,0,0,1,1.46-5.31,10.74,10.74,0,0,1,4-3.83,11.27,11.27,0,0,1,11,0Zm-9.86,1.6a8.78,8.78,0,0,0-3.22,3.16,8.4,8.4,0,0,0-1.19,4.38,8.55,8.55,0,0,0,1.19,4.41,8.81,8.81,0,0,0,3.22,3.21,8.63,8.63,0,0,0,4.41,1.18,8.49,8.49,0,0,0,4.37-1.18,8.85,8.85,0,0,0,3.21-3.21,8.55,8.55,0,0,0,1.19-4.41,8.4,8.4,0,0,0-1.19-4.38,8.82,8.82,0,0,0-3.2-3.13,8.58,8.58,0,0,0-4.4-1.2,8.72,8.72,0,0,0-4.38,1.2Z" transform="translate(-0.54 -0.21)"/><path class="cls-10" d="M495.44,108.13h2V129h-2.18l-12.91-17.66V129h-2.06V108.13h2.18l12.94,17.66Z" transform="translate(-0.54 -0.21)"/><path class="cls-10" d="M530.72,110.29a10.5,10.5,0,0,0-2.86-.43,6.2,6.2,0,0,0-3.44.85,2.64,2.64,0,0,0-1.3,2.31,3,3,0,0,0,.72,2.09,5,5,0,0,0,1.76,1.27,27.67,27.67,0,0,0,2.86,1,24.59,24.59,0,0,1,3.42,1.24,6.06,6.06,0,0,1,2.21,1.77,5.37,5.37,0,0,1,0,6,6,6,0,0,1-2.64,2,10.19,10.19,0,0,1-3.91.7,10.93,10.93,0,0,1-4.25-.87,11.45,11.45,0,0,1-3.56-2.3l1-1.7a10.27,10.27,0,0,0,3.25,2.15,9.35,9.35,0,0,0,3.64.78,6.55,6.55,0,0,0,3.79-1,3,3,0,0,0,1.4-2.61,3.18,3.18,0,0,0-.72-2.15,4.74,4.74,0,0,0-1.76-1.28,22.94,22.94,0,0,0-2.92-1,29.88,29.88,0,0,1-3.4-1.24,5.74,5.74,0,0,1-2.18-1.73,4.74,4.74,0,0,1-.89-3,4.5,4.5,0,0,1,.89-2.77,5.67,5.67,0,0,1,2.51-1.83,10,10,0,0,1,3.73-.64,12.57,12.57,0,0,1,6.44,1.85l-.89,1.76A10.8,10.8,0,0,0,530.72,110.29Z" transform="translate(-0.54 -0.21)"/><path class="cls-11" d="M43,91l6.87,3.15L43,97.35V91m-3-4.68V102l17.08-7.87L40,86.36Z" transform="translate(-0.54 -0.21)"/><path class="cls-11" d="M119.61,65.68V72l-6.87-3.17,6.87-3.15m3-4.68-17.08,7.82,17.08,7.87Z" transform="translate(-0.54 -0.21)"/><polygon class="cls-12" points="39.41 60.77 39.41 75.89 55.89 68.31 39.41 60.77"/><polygon class="cls-13" points="42.49 80.89 81.04 98.53 119.32 80.91 98.65 71.44 80.77 79.67 62.91 71.48 42.49 80.89"/><polygon class="cls-14" points="42.21 55.58 80.76 73.22 119.04 55.59 80.49 37.95 42.21 55.58"/><polygon class="cls-15" points="84.17 103.61 84.14 123 122 105.44 122 86.17 84.17 103.61"/><polygon class="cls-16" points="42.49 106.72 77.76 122.86 77.76 103.47 63.61 97 42.49 106.72"/></svg>