<svg id="Layer_1" data-name="Layer 1" xmlns="http://www.w3.org/2000/svg" viewBox="0 0 354 309.83"><defs><style>.cls-1{fill:#fff;}</style></defs><title>so-logo-vertical-allwhite</title><path class="cls-1" d="M29,225.69a4.84,4.84,0,0,0-2.46.54,1.62,1.62,0,0,0-.93,1.42q0,1.31,2,2.18a47.46,47.46,0,0,0,6.56,2.07,99.08,99.08,0,0,1,11,3.6,21.63,21.63,0,0,1,8,5.67,14.24,14.24,0,0,1,3.44,9.92,17.67,17.67,0,0,1-3.33,10.68,21.35,21.35,0,0,1-9.45,7.08,37.63,37.63,0,0,1-14.32,2.51q-16.72,0-29.18-8.5L7.75,247.6q12,7.41,22.08,7.41a6.24,6.24,0,0,0,2.73-.49c.66-.33,1-.74,1-1.25,0-.8-.64-1.47-1.91-2a46.69,46.69,0,0,0-6.18-1.91,81,81,0,0,1-10.93-3.49,21.8,21.8,0,0,1-7.92-5.67,14.4,14.4,0,0,1-3.44-10,18.29,18.29,0,0,1,3.28-10.85,21.28,21.28,0,0,1,9.24-7.19,34.77,34.77,0,0,1,13.83-2.56,56.16,56.16,0,0,1,27.76,7.52l-8.09,15.15Q35.84,225.69,29,225.69Z" transform="translate(0 -0.17)"/><path class="cls-1" d="M112.27,213.59a25.2,25.2,0,0,1,9.62,10.85,37.41,37.41,0,0,1,3.39,16.4,36.79,36.79,0,0,1-3.28,16,24.31,24.31,0,0,1-9.34,10.57,26.61,26.61,0,0,1-14.15,3.71,21.55,21.55,0,0,1-8.85-1.8,20,20,0,0,1-7-5.18v17.26H58.06V210.65H82.65v6a19.11,19.11,0,0,1,15.19-6.87A27.07,27.07,0,0,1,112.27,213.59ZM98,248.58a15.55,15.55,0,0,0,0-16.79,7.84,7.84,0,0,0-6.5-3.16,7.69,7.69,0,0,0-6.45,3.16,15.85,15.85,0,0,0,0,16.79,7.68,7.68,0,0,0,6.45,3.16A7.83,7.83,0,0,0,98,248.58Z" transform="translate(0 -0.17)"/><path class="cls-1" d="M179.18,215.39q7.27,5.83,7.27,16.3v38.59H162.3v-6.43q-5.47,7.52-16.83,7.52-9.4,0-14.7-5.07t-5.3-13.68q0-8.83,5.9-13.41t17.27-4.8H162.3a5.88,5.88,0,0,0-2.46-4.85q-2.35-1.69-6.83-1.69a43.19,43.19,0,0,0-8.36,1,63.29,63.29,0,0,0-9.78,2.83l-5.47-16.35A97,97,0,0,1,144.64,211a75.18,75.18,0,0,1,14.26-1.47Q171.91,209.56,179.18,215.39Zm-20.55,39.19a9.89,9.89,0,0,0,3.66-3.38v-5.45h-8.53q-5.25,0-5.25,4.8a5.1,5.1,0,0,0,1.42,3.87,5.61,5.61,0,0,0,4,1.36A9.72,9.72,0,0,0,158.64,254.57Z" transform="translate(0 -0.17)"/><path class="cls-1" d="M234,267.65a25.26,25.26,0,0,1-7.71,2.73,47.72,47.72,0,0,1-9.67,1q-10.06,0-16.12-5.5t-6.07-14.77v-25h-8.2V210.65h8.2V197.24h24.48v13.41h14v15.48h-14v21.25a5.2,5.2,0,0,0,1.31,3.76,4.31,4.31,0,0,0,3.5,1.25,19.24,19.24,0,0,0,6.12-1.53Z" transform="translate(0 -0.17)"/><path class="cls-1" d="M257.16,184.7a13.26,13.26,0,1,1-9-3.49A12.09,12.09,0,0,1,257.16,184.7Zm-21,25.94h24.59v59.62H236.18Z" transform="translate(0 -0.17)"/><path class="cls-1" d="M316.68,215.39q7.27,5.83,7.27,16.3v38.59H299.79v-6.43q-5.47,7.52-16.83,7.52-9.4,0-14.7-5.07T263,252.61q0-8.83,5.9-13.41t17.27-4.8h13.66a5.88,5.88,0,0,0-2.46-4.85q-2.35-1.69-6.83-1.69a43.19,43.19,0,0,0-8.36,1,63.29,63.29,0,0,0-9.78,2.83l-5.47-16.35A97,97,0,0,1,282.14,211a75.18,75.18,0,0,1,14.26-1.47Q309.41,209.56,316.68,215.39Zm-20.55,39.19a9.89,9.89,0,0,0,3.66-3.38v-5.45h-8.53q-5.25,0-5.25,4.8a5.1,5.1,0,0,0,1.42,3.87,5.61,5.61,0,0,0,4,1.36A9.72,9.72,0,0,0,296.13,254.57Z" transform="translate(0 -0.17)"/><path class="cls-1" d="M329.41,197.24H354v73H329.41Z" transform="translate(0 -0.17)"/><path class="cls-1" d="M11.84,310A11.83,11.83,0,0,1,1.6,304.23,11.2,11.2,0,0,1,0,298.4a11,11,0,0,1,1.6-5.8,11.73,11.73,0,0,1,4.29-4.17,11.87,11.87,0,0,1,5.94-1.54,11.87,11.87,0,0,1,5.94,1.54h0a11.76,11.76,0,0,1,4.29,4.17,11.06,11.06,0,0,1,1.6,5.8,11.21,11.21,0,0,1-1.6,5.83A11.83,11.83,0,0,1,11.84,310Zm0-19.26a7.62,7.62,0,0,0-3.89,1H8a7.78,7.78,0,0,0-2.84,2.79,7.31,7.31,0,0,0-1,3.85,7.46,7.46,0,0,0,1,3.88A7.71,7.71,0,0,0,8,305.12a7.73,7.73,0,0,0,7.73,0,7.75,7.75,0,0,0,2.83-2.83,7.46,7.46,0,0,0,1-3.88,7.32,7.32,0,0,0-1-3.85,7.83,7.83,0,0,0-2.83-2.79A7.57,7.57,0,0,0,11.87,290.74Z" transform="translate(0 -0.17)"/><path class="cls-1" d="M48,309.82H44V287.07h8.66a9.93,9.93,0,0,1,6.62,2h0A7.31,7.31,0,0,1,61.73,295a7.68,7.68,0,0,1-2.44,6,9.69,9.69,0,0,1-6.63,2.12H48Zm0-10.55h4.52a6,6,0,0,0,3.94-1.12h0A3.82,3.82,0,0,0,57.76,295a3.64,3.64,0,0,0-1.23-3,6.2,6.2,0,0,0-4-1.08H48Z" transform="translate(0 -0.17)"/><path class="cls-1" d="M97.91,309.82H81.62V287.07h15.9v3.85H85.68v5.41h10.6v3.85H85.68V306H97.91Z" transform="translate(0 -0.17)"/><path class="cls-1" d="M137.71,309.82h-4.83l-4.46-6.74-.94,0h-4.7v6.71h-4.05V287.07h8.75a10,10,0,0,1,6.66,2,7.29,7.29,0,0,1,2.48,5.86,8.16,8.16,0,0,1-1.44,4.89,7.16,7.16,0,0,1-2.82,2.3Zm-14.93-10.55h4.7a6,6,0,0,0,3.93-1.12,3.84,3.84,0,0,0,1.25-3.14,3.64,3.64,0,0,0-1.23-3,6.15,6.15,0,0,0-3.94-1.08h-4.7Z" transform="translate(0 -0.17)"/><path class="cls-1" d="M178.27,309.82h-4.43l-2.46-5.52H161.17l-2.43,5.52h-4.4l10.25-22.75H168Zm-15.42-9.37h6.84l-3.44-7.74Z" transform="translate(0 -0.17)"/><path class="cls-1" d="M203,309.82h-4.05V290.91h-6.86V287h17.77v3.87H203Z" transform="translate(0 -0.17)"/><path class="cls-1" d="M233.29,309.82h-4.05V287.07h4.05Z" transform="translate(0 -0.17)"/><path class="cls-1" d="M265.44,310a11.83,11.83,0,0,1-10.24-5.77,11.2,11.2,0,0,1-1.6-5.83,11,11,0,0,1,1.6-5.8,11.75,11.75,0,0,1,4.29-4.17,12.23,12.23,0,0,1,11.89,0h0a11.76,11.76,0,0,1,4.29,4.17,11.06,11.06,0,0,1,1.6,5.8,11.21,11.21,0,0,1-1.6,5.83A11.83,11.83,0,0,1,265.44,310Zm0-19.26a7.62,7.62,0,0,0-3.89,1h0a7.79,7.79,0,0,0-2.84,2.79,7.31,7.31,0,0,0-1,3.85,7.46,7.46,0,0,0,1,3.88,7.81,7.81,0,0,0,2.84,2.83,7.73,7.73,0,0,0,7.73,0,7.75,7.75,0,0,0,2.83-2.83,7.45,7.45,0,0,0,1-3.88,7.31,7.31,0,0,0-1-3.85,7.81,7.81,0,0,0-2.83-2.79A7.57,7.57,0,0,0,265.47,290.74Z" transform="translate(0 -0.17)"/><path class="cls-1" d="M316.66,309.82H313l-11.34-15.5v15.5h-4.05V287.07h3.68l11.37,15.51V287.07h4Z" transform="translate(0 -0.17)"/><path class="cls-1" d="M345.55,310a11.92,11.92,0,0,1-4.61-.94,12.42,12.42,0,0,1-3.86-2.49l-.56-.54,2-3.51.93.91a9.25,9.25,0,0,0,2.92,1.93,8.37,8.37,0,0,0,3.24.7,5.6,5.6,0,0,0,3.2-.79,2,2,0,0,0,1-1.77,2.19,2.19,0,0,0-.47-1.48,3.71,3.71,0,0,0-1.38-1c-.65-.28-1.6-.62-2.82-1a30.64,30.64,0,0,1-3.49-1.27,6.73,6.73,0,0,1-2.54-2,5.71,5.71,0,0,1-1.1-3.6,5.48,5.48,0,0,1,1.09-3.36,6.66,6.66,0,0,1,2.92-2.16,12.28,12.28,0,0,1,7.76-.16,13,13,0,0,1,3.27,1.45l.77.49-1.8,3.54-.93-.58a9.8,9.8,0,0,0-2.53-1.12c-2.33-.66-4.32-.46-5.45.29a1.63,1.63,0,0,0-.84,1.46,2,2,0,0,0,.46,1.41,4,4,0,0,0,1.41,1,27,27,0,0,0,2.74,1,25.24,25.24,0,0,1,3.53,1.28,7,7,0,0,1,2.56,2.05,6.34,6.34,0,0,1,0,7.21,7,7,0,0,1-3.05,2.31A11.18,11.18,0,0,1,345.55,310Z" transform="translate(0 -0.17)"/><path class="cls-1" d="M176.86,10.17a71.06,71.06,0,1,1-71.06,71.06,71.14,71.14,0,0,1,71.06-71.06m0-10a81.06,81.06,0,1,0,81.06,81.06A81.06,81.06,0,0,0,176.86.17Z" transform="translate(0 -0.17)"/><path class="cls-1" d="M138.7,90.55l6.85,3.15-6.85,3.17V90.55m-3-4.68v15.68l17-7.87-17-7.82Z" transform="translate(0 -0.17)"/><path class="cls-1" d="M215,65.19V71.5l-6.85-3.17L215,65.19m3-4.68-17,7.82,17,7.87V60.51Z" transform="translate(0 -0.17)"/><polygon class="cls-1" points="135.62 60.31 135.62 75.45 152.04 67.86 135.62 60.31"/><polygon class="cls-1" points="138.69 80.45 177.11 98.09 215.27 80.46 194.66 71 176.84 79.22 159.04 71.05 138.69 80.45"/><polygon class="cls-1" points="138.4 55.13 176.83 72.78 214.99 55.14 176.56 37.5 138.4 55.13"/><polygon class="cls-1" points="180.22 103.17 180.2 122.55 217.93 105 217.93 85.73 180.22 103.17"/><polygon class="cls-1" points="138.69 106.28 173.84 122.42 173.84 103.03 159.74 96.55 138.69 106.28"/></svg>