<svg id="Layer_1" data-name="Layer 1" xmlns="http://www.w3.org/2000/svg" viewBox="0 0 576 576"><defs><style>.cls-1,.cls-7{fill:#cc1d24;}.cls-1{stroke:#cc1d24;stroke-miterlimit:10;}.cls-2{fill:#ff8085;}.cls-3{fill:#fdffff;}.cls-4{fill:#fe4f56;}.cls-5{fill:#fff;}.cls-6{fill:#ffdfe0;}.cls-8{fill:#840106;}</style></defs><title>icon</title><circle class="cls-1" cx="288" cy="288" r="288"/><path class="cls-2" d="M430.85,422.13a11.21,11.21,0,0,1-11.06,11.06H156.21a11.21,11.21,0,0,1-11.06-11.06V158.54a11.21,11.21,0,0,1,11.06-11.06H419.79a11.21,11.21,0,0,1,11.06,11.06Z"/><path class="cls-3" d="M154.36,193.57V413.38c0,6,4.15,10.6,9.68,10.6H412c5.53,0,9.68-4.61,9.68-10.6V193.57Z"/><rect class="cls-4" x="154.36" y="193.57" width="267.28" height="13.82"/><circle class="cls-4" cx="159.43" cy="171.45" r="5.07"/><circle class="cls-5" cx="159.43" cy="169.14" r="5.07"/><path class="cls-6" d="M155.74,165.46a5.21,5.21,0,0,1,7.37,7.37"/><circle class="cls-4" cx="180.17" cy="171.45" r="5.07"/><circle class="cls-5" cx="180.17" cy="169.14" r="5.07"/><rect class="cls-3" x="203.55" y="161.31" width="213.88" height="18.43" rx="4.15" ry="4.15"/><path class="cls-6" d="M207.7,161.31H413.29a4.15,4.15,0,0,1,4.15,4.15v5.07a0,0,0,0,1,0,0H203.55a0,0,0,0,1,0,0v-5.07A4.15,4.15,0,0,1,207.7,161.31Z"/><path class="cls-6" d="M176.48,165.46a5.21,5.21,0,0,1,7.37,7.37"/><path class="cls-7" d="M235.94,167.12l-.33-.33h-1c-.33,0-.33,0-.33.33l-.67,2.67h0l-1-2.67h-1.67c-.33,0-.33,0-.33.33l-1,3h0l-.67-2.67c0-.67,0-.67-.33-.67h-2.67c-.33,0-.33,0-.33.33l-.67,2.67h0l-1-2.67c0-.33-.33-.33-.67-.33h-.67c-.33,0-.33,0-.67.33l-.67,2.67h0l-1-2.67c0-.33,0-.33-.33-.33h-2.67a.33.33,0,0,0-.33.33l-.67,2.67h0l-1-2.67c0-.33-.33-.33-.67-.33h-.67c-.33,0-.33,0-.33.33l-1,2.67h0l-.67-2.67c-.33-.33-.33-.33-.67-.33h-1a.33.33,0,0,0-.33.33v.33l1.67,5.68a.33.33,0,0,0,.33.33h1c.33,0,.33,0,.33-.33l1-3v0l1,2.67a.33.33,0,0,0,.33.33h1c.33,0,.33,0,.33-.33l1.67-5,1.34,5a.33.33,0,0,0,.33.33h1c.33,0,.33,0,.33-.33l1.34-2.67v0l1,2.67a.33.33,0,0,0,.33.33h1c.33,0,.33,0,.33-.33l1.67-5,1.34,5a.33.33,0,0,0,.33.33h1c.33,0,.33,0,.33-.33l1.34-2.67v0l1,2.67a.33.33,0,0,0,.33.33h1c.33,0,.33,0,.33-.33l1.67-5.68C236.27,167.46,236.27,167.12,235.94,167.12Z"/><path class="cls-7" d="M253.48,346a5.34,5.34,0,0,1-3.91-1.42l-27-27a5.34,5.34,0,0,1-1.42-3.91,7.45,7.45,0,0,1,1.42-3.91l27-27a5.28,5.28,0,0,1,7.46,7.46l-23.1,23.1,23.1,23.1a5.15,5.15,0,0,1,0,7.46A3.38,3.38,0,0,1,253.48,346Z"/><path class="cls-7" d="M322.42,346a5.34,5.34,0,0,1-3.91-1.42,5.15,5.15,0,0,1,0-7.46l23.1-23.1-23.1-23.1c-2.13-2.13-2.13-5.69,0-7.46a5.48,5.48,0,0,1,7.46,0l27,27a5.34,5.34,0,0,1,1.42,3.91,7.45,7.45,0,0,1-1.42,3.91l-27,27A12.63,12.63,0,0,1,322.42,346Z"/><path class="cls-8" d="M270.18,362.73a4.51,4.51,0,0,1-2.13-.36c-2.84-1.07-3.91-4.26-2.84-7.11L300.74,270c1.07-2.84,4.26-3.91,7.11-2.84s3.91,4.26,2.84,7.11l-35.54,85.29A5.36,5.36,0,0,1,270.18,362.73Z"/></svg>