<svg id="Layer_1" data-name="Layer 1" xmlns="http://www.w3.org/2000/svg" xmlns:xlink="http://www.w3.org/1999/xlink" viewBox="0 0 576 576"><defs><style>.cls-1,.cls-11{fill:#cc1d24;}.cls-1,.cls-14,.cls-15,.cls-16{stroke:#cc1d24;}.cls-1,.cls-14,.cls-15,.cls-16,.cls-17,.cls-7{stroke-miterlimit:10;}.cls-2{fill:#fe4f56;}.cls-3{fill:#fffefe;}.cls-4,.cls-7{fill:#ff8085;}.cls-5{fill:#840106;}.cls-6{fill:#fff;}.cls-7{stroke:#ff8085;}.cls-8{fill:#ffd5d7;}.cls-9{fill:url(#linear-gradient);}.cls-10{fill:url(#linear-gradient-2);}.cls-12{fill:url(#linear-gradient-3);}.cls-13{fill:url(#linear-gradient-4);}.cls-14,.cls-15,.cls-16,.cls-17{fill:none;}.cls-14,.cls-17{stroke-linecap:round;}.cls-14,.cls-16{stroke-width:3px;}.cls-15{stroke-width:10px;}.cls-17{stroke:#fffefe;stroke-width:2px;}.cls-18{fill:url(#linear-gradient-5);}.cls-19{fill:url(#linear-gradient-6);}.cls-20{fill:url(#linear-gradient-7);}.cls-21{fill:url(#linear-gradient-8);}</style><linearGradient id="linear-gradient" x1="204.49" y1="491.33" x2="206.99" y2="487" gradientTransform="matrix(1, 0, 0, -1, 0, 640)" gradientUnits="userSpaceOnUse"><stop offset="0" stop-color="#cc1d24"/><stop offset="1" stop-color="#ff8085"/></linearGradient><linearGradient id="linear-gradient-2" x1="214.83" y1="489.88" x2="221.32" y2="478.64" xlink:href="#linear-gradient"/><linearGradient id="linear-gradient-3" x1="223.82" y1="479.25" x2="227.28" y2="473.25" xlink:href="#linear-gradient"/><linearGradient id="linear-gradient-4" x1="209.81" y1="478.23" x2="215.15" y2="468.97" xlink:href="#linear-gradient"/><linearGradient id="linear-gradient-5" x1="422.74" y1="350" x2="425.24" y2="345.67" xlink:href="#linear-gradient"/><linearGradient id="linear-gradient-6" x1="433.09" y1="348.55" x2="439.57" y2="337.32" xlink:href="#linear-gradient"/><linearGradient id="linear-gradient-7" x1="442.07" y1="337.92" x2="445.54" y2="331.93" xlink:href="#linear-gradient"/><linearGradient id="linear-gradient-8" x1="428.06" y1="336.9" x2="433.41" y2="327.65" xlink:href="#linear-gradient"/></defs><title>icon</title><circle class="cls-1" cx="288" cy="288" r="288"/><rect class="cls-2" x="135.64" y="188.23" width="10.07" height="217.87"/><polygon class="cls-3" points="125.57 188.23 135.64 168.1 145.71 188.23 125.57 188.23"/><rect class="cls-4" x="125.57" y="188.23" width="10.07" height="217.87"/><polygon class="cls-5" points="131.64 176.1 135.64 168.1 139.64 176.1 131.64 176.1"/><rect class="cls-6" x="125.57" y="374.43" width="20.14" height="8.67"/><rect class="cls-3" x="182.77" y="121" width="216" height="307"/><rect class="cls-7" x="182.77" y="121" width="216" height="69"/><circle class="cls-6" cx="218.02" cy="155.5" r="22.67"/><rect class="cls-3" x="266.11" y="132.83" width="106" height="10.83"/><path class="cls-8" d="M205.09,159.1l2.32,1.07-2.32,1.07V159.1m-1-1.59v5.31l5.76-2.67-5.76-2.65Z"/><path class="cls-8" d="M231,150.51v2.14l-2.32-1.07,2.32-1.07m1-1.59-5.76,2.65,5.76,2.67v-5.31Z"/><polygon class="cls-9" points="204.06 148.91 204.06 154.04 209.63 151.47 204.06 148.91"/><polygon class="cls-10" points="205.1 155.74 218.12 161.71 231.05 155.74 224.07 152.53 218.03 155.32 212 152.55 205.1 155.74"/><polygon class="cls-11" points="205.01 147.16 218.02 153.14 230.95 147.16 217.94 141.19 205.01 147.16"/><polygon class="cls-12" points="219.18 163.43 219.17 170 231.95 164.05 231.95 157.52 219.18 163.43"/><polygon class="cls-13" points="205.1 164.49 217.01 169.95 217.01 163.38 212.24 161.19 205.1 164.49"/><line class="cls-14" x1="338.17" y1="154.57" x2="267.77" y2="154.57"/><line class="cls-15" x1="349.57" y1="213.7" x2="231.98" y2="213.7"/><line class="cls-16" x1="371.92" y1="240" x2="209.63" y2="240"/><line class="cls-16" x1="371.92" y1="251.77" x2="209.63" y2="251.77"/><line class="cls-16" x1="371.92" y1="263.55" x2="209.63" y2="263.55"/><line class="cls-16" x1="371.92" y1="275.32" x2="209.63" y2="275.32"/><line class="cls-16" x1="371.92" y1="287.1" x2="209.63" y2="287.1"/><line class="cls-16" x1="269.75" y1="298.87" x2="209.63" y2="298.87"/><line class="cls-16" x1="371.92" y1="322.42" x2="209.63" y2="322.42"/><line class="cls-16" x1="371.92" y1="334.19" x2="209.63" y2="334.19"/><line class="cls-16" x1="269.75" y1="345.97" x2="209.63" y2="345.97"/><line class="cls-14" x1="338.17" y1="165.57" x2="267.77" y2="165.57"/><line class="cls-14" x1="290.65" y1="176.57" x2="267.77" y2="176.57"/><rect class="cls-4" x="382.77" y="264" width="107" height="69"/><circle class="cls-3" cx="436.27" cy="297.17" r="22.67"/><line class="cls-17" x1="482.77" y1="319.83" x2="456.11" y2="319.83"/><line class="cls-17" x1="482.77" y1="324" x2="456.11" y2="324"/><line class="cls-17" x1="464.77" y1="328.17" x2="456.11" y2="328.17"/><path class="cls-8" d="M423.35,300.43l2.32,1.07-2.32,1.07v-2.14m-1-1.59v5.31l5.76-2.67-5.76-2.65Z"/><path class="cls-8" d="M449.21,291.84V294l-2.32-1.07,2.32-1.07m1-1.59-5.76,2.65,5.76,2.67v-5.31Z"/><polygon class="cls-18" points="422.32 290.24 422.32 295.37 427.88 292.8 422.32 290.24"/><polygon class="cls-19" points="423.36 297.06 436.38 303.04 449.3 297.07 442.32 293.86 436.28 296.65 430.25 293.88 423.36 297.06"/><polygon class="cls-11" points="423.26 288.49 436.28 294.46 449.2 288.49 436.19 282.51 423.26 288.49"/><polygon class="cls-20" points="437.43 304.76 437.42 311.32 450.2 305.38 450.2 298.85 437.43 304.76"/><polygon class="cls-21" points="423.36 305.81 435.27 311.28 435.27 304.71 430.49 302.52 423.36 305.81"/></svg>