<?xml version="1.0" encoding="utf-8"?>
<!-- Generator: Adobe Illustrator 22.1.0, SVG Export Plug-In . SVG Version: 6.00 Build 0)  -->
<svg version="1.1" id="Layer_1" xmlns="http://www.w3.org/2000/svg" xmlns:xlink="http://www.w3.org/1999/xlink" x="0px" y="0px"
	 viewBox="0 0 2400 1500" style="enable-background:new 0 0 2400 1500;" xml:space="preserve">
<style type="text/css">
	.st0{filter:url(#Adobe_OpacityMaskFilter);}
	.st1{opacity:0.75;}
	.st2{opacity:0.25;clip-path:url(#SVGID_3_);fill:url(#SVGID_4_);enable-background:new    ;}
	.st3{opacity:0.25;clip-path:url(#SVGID_3_);fill:url(#SVGID_5_);enable-background:new    ;}
	.st4{opacity:0.25;clip-path:url(#SVGID_3_);fill:url(#SVGID_6_);enable-background:new    ;}
	.st5{opacity:0.25;clip-path:url(#SVGID_3_);fill:url(#SVGID_7_);enable-background:new    ;}
	.st6{opacity:0.25;clip-path:url(#SVGID_3_);fill:url(#SVGID_8_);enable-background:new    ;}
	.st7{opacity:0.25;clip-path:url(#SVGID_3_);fill:url(#SVGID_9_);enable-background:new    ;}
	.st8{opacity:0.25;clip-path:url(#SVGID_3_);fill:url(#SVGID_10_);enable-background:new    ;}
	.st9{opacity:0.25;clip-path:url(#SVGID_3_);fill:url(#SVGID_11_);enable-background:new    ;}
	.st10{opacity:0.25;clip-path:url(#SVGID_3_);fill:url(#SVGID_12_);enable-background:new    ;}
	.st11{opacity:0.25;clip-path:url(#SVGID_3_);fill:url(#SVGID_13_);enable-background:new    ;}
	.st12{opacity:0.25;clip-path:url(#SVGID_3_);fill:url(#SVGID_14_);enable-background:new    ;}
	.st13{opacity:0.25;clip-path:url(#SVGID_3_);fill:#FFFFFF;enable-background:new    ;}
	.st14{mask:url(#SVGID_1_);fill:url(#SVGID_15_);}
	.st15{opacity:0.33;}
	.st16{fill:#FFFFFF;}
	.st17{opacity:0.67;}
</style>
<title>services-cover1</title>
<rect id="SVGID" width="2400" height="1500"/>
<defs>
	<filter id="Adobe_OpacityMaskFilter" filterUnits="userSpaceOnUse" x="0" y="0" width="2400" height="1500">
		<feColorMatrix  type="matrix" values="1 0 0 0 0  0 1 0 0 0  0 0 1 0 0  0 0 0 1 0"/>
	</filter>
</defs>
<mask maskUnits="userSpaceOnUse" x="0" y="0" width="2400" height="1500" id="SVGID_1_">
	<g class="st0">
		<g class="st1">
			<defs>
				<rect id="SVGID_2_" class="st1" width="2400" height="1500"/>
			</defs>
			<clipPath id="SVGID_3_">
				<use xlink:href="#SVGID_2_"  style="overflow:visible;"/>
			</clipPath>
			<g>
				
					<linearGradient id="SVGID_4_" gradientUnits="userSpaceOnUse" x1="-822.1994" y1="790.2532" x2="2717.718" y2="790.2532" gradientTransform="matrix(1 0 0 -1 2.629467e-02 1500.01)">
					<stop  offset="0" style="stop-color:#FFFFFF"/>
					<stop  offset="1" style="stop-color:#FFFFFF;stop-opacity:0"/>
				</linearGradient>
				<polygon class="st2" points="-822.2,1250 2494.7,-305.9 2717.7,169.5 -599.2,1725.4 				"/>
				
					<linearGradient id="SVGID_5_" gradientUnits="userSpaceOnUse" x1="-180.3597" y1="409.7838" x2="3256.9182" y2="409.7838" gradientTransform="matrix(1 0 0 -1 2.546031e-02 1500.0027)">
					<stop  offset="0" style="stop-color:#FFFFFF"/>
					<stop  offset="1" style="stop-color:#FFFFFF;stop-opacity:0.25"/>
				</linearGradient>
				<polygon class="st3" points="-180.3,1739.8 3136.6,184 3256.9,440.6 -60,1996.5 				"/>
				
					<linearGradient id="SVGID_6_" gradientUnits="userSpaceOnUse" x1="-109.5878" y1="298.1097" x2="3296.9441" y2="298.1097" gradientTransform="matrix(1 0 0 -1 2.627827e-02 1500.0118)">
					<stop  offset="0" style="stop-color:#FFFFFF;stop-opacity:0.25"/>
					<stop  offset="1" style="stop-color:#FFFFFF"/>
				</linearGradient>
				<polygon class="st4" points="-109.6,1884.3 3207.3,328.4 3297,519.5 -19.9,2075.4 				"/>
				
					<linearGradient id="SVGID_7_" gradientUnits="userSpaceOnUse" x1="-828.7428" y1="1131.9634" x2="2724.2898" y2="1131.9634" gradientTransform="matrix(1 0 0 -1 -7.601417e-03 1499.9866)">
					<stop  offset="0" style="stop-color:#FFFFFF"/>
					<stop  offset="1" style="stop-color:#FFFFFF;stop-opacity:0.25"/>
				</linearGradient>
				<polygon class="st5" points="-721.3,-403.3 2724.3,842 2616.8,1139.3 -828.8,-105.9 				"/>
				
					<linearGradient id="SVGID_8_" gradientUnits="userSpaceOnUse" x1="-881.1948" y1="1039.964" x2="2671.8379" y2="1039.964" gradientTransform="matrix(1 0 0 -1 -1.262629e-02 1499.993)">
					<stop  offset="0" style="stop-color:#FFFFFF"/>
					<stop  offset="1" style="stop-color:#FFFFFF;stop-opacity:0.25"/>
				</linearGradient>
				<polygon class="st6" points="-773.7,-311.3 2671.8,934 2564.4,1231.3 -881.2,-13.9 				"/>
				
					<linearGradient id="SVGID_9_" gradientUnits="userSpaceOnUse" x1="-49.1646" y1="1673.7811" x2="3503.8682" y2="1673.7811" gradientTransform="matrix(1 0 0 -1 -3.086007e-02 1500.0012)">
					<stop  offset="0" style="stop-color:#FFFFFF"/>
					<stop  offset="1" style="stop-color:#FFFFFF;stop-opacity:0"/>
				</linearGradient>
				<polygon class="st7" points="58.3,-945.1 3503.8,300.2 3396.4,597.5 -49.2,-647.7 				"/>
				
					<linearGradient id="SVGID_10_" gradientUnits="userSpaceOnUse" x1="-828.7507" y1="446.8165" x2="2619.3657" y2="446.8165" gradientTransform="matrix(1 0 0 -1 -1.263522e-02 1499.983)">
					<stop  offset="0" style="stop-color:#FFFFFF"/>
					<stop  offset="1" style="stop-color:#FFFFFF;stop-opacity:0.25"/>
				</linearGradient>
				<polygon class="st8" points="-826.2,427 2619.4,1672.3 2616.8,1679.3 -828.8,434.1 				"/>
				
					<linearGradient id="SVGID_11_" gradientUnits="userSpaceOnUse" x1="-1952.8324" y1="902.6127" x2="1495.2839" y2="902.6127" gradientTransform="matrix(1 0 0 -1 3.842238e-03 1499.9979)">
					<stop  offset="0" style="stop-color:#FFFFFF"/>
					<stop  offset="1" style="stop-color:#FFFFFF;stop-opacity:0.25"/>
				</linearGradient>
				<polygon class="st9" points="-1950.3,-28.8 1495.3,1216.5 1492.7,1223.5 -1952.8,-21.7 				"/>
				
					<linearGradient id="SVGID_12_" gradientUnits="userSpaceOnUse" x1="-701.9532" y1="678.5665" x2="2746.1633" y2="678.5665" gradientTransform="matrix(1 0 0 -1 -1.027499e-02 1499.9878)">
					<stop  offset="0" style="stop-color:#FFFFFF"/>
					<stop  offset="1" style="stop-color:#FFFFFF;stop-opacity:0.25"/>
				</linearGradient>
				<polygon class="st10" points="-699.4,195.3 2746.2,1440.5 2743.6,1447.6 -702,202.3 				"/>
				
					<linearGradient id="SVGID_13_" gradientUnits="userSpaceOnUse" x1="-943.6733" y1="1132.0144" x2="2356.9614" y2="1132.0144" gradientTransform="matrix(1 0 0 -1 -1.355284e-03 1500.004)">
					<stop  offset="0" style="stop-color:#FFFFFF"/>
					<stop  offset="1" style="stop-color:#FFFFFF;stop-opacity:0.25"/>
				</linearGradient>
				<polygon class="st11" points="-943.7,1163 2353.7,-433.8 2357,-427.1 -940.4,1169.8 				"/>
				
					<linearGradient id="SVGID_14_" gradientUnits="userSpaceOnUse" x1="306.0575" y1="1905.254" x2="3606.6921" y2="1905.254" gradientTransform="matrix(1 0 0 -1 -1.310568e-02 1500.0132)">
					<stop  offset="0" style="stop-color:#FFFFFF"/>
					<stop  offset="1" style="stop-color:#FFFFFF;stop-opacity:0.25"/>
				</linearGradient>
				<polygon class="st12" points="306,389.8 3603.4,-1207 3606.7,-1200.3 309.3,396.6 				"/>
				
					<rect x="1589.9" y="-1707.9" transform="matrix(0.3399 -0.9405 0.9405 0.3399 935.4286 1580.6451)" class="st13" width="7.5" height="3663.7"/>
			</g>
		</g>
	</g>
</mask>
<linearGradient id="SVGID_15_" gradientUnits="userSpaceOnUse" x1="-107.0896" y1="1100.2429" x2="2507.1597" y2="399.757">
	<stop  offset="0" style="stop-color:#FFFFFF"/>
	<stop  offset="1" style="stop-color:#666666"/>
</linearGradient>
<rect x="0" class="st14" width="2400" height="1500"/>
<g>
	<g class="st15">
		<path class="st16" d="M0,1500h2400v-168.5c-13.2,7.2-10.6,6-15.7,8.3c-51,23.7-113.9,32.2-169.1,34.8c-39.3,1.8-76.9-2.9-115-14
			c-17.9-5.2-35.8-11.3-53.8-14.1c-60.4-9.5-122.6-2-181.6,17.4c-69.5,23-147.1,11.7-217.3-4.1c-28.4-6.4-56.4-14.3-84-23
			c-85.2-26.9-173.4-24.6-259.2-0.9c-54.6,15-109.4,32-165.4,36.1c-41.2,3-82.8,0.4-121.3-15c-58.4-23.4-112.7-62.3-175.1-79.3
			c-76.8-21-176.4-8.8-244.9,28.3c-32.8,17.7-65.5,38.2-97.4,58.5c-47.9,30.5-102.7,42.9-158,41c-34.1-1.2-68.9-7.5-101-20.6
			c-28.2-11.5-56.4-25.3-85.6-32.4c-50.6-12.4-103.2-13.6-155.8-5.2L0,1500z"/>
	</g>
	<g class="st17">
		<path class="st16" d="M2358.3,1361.4c-61.3-21.1-126.8-25-188-4.3c-28.9,9.7-55.6,27.2-82.8,42.3c-30.1,16.8-64.2,25.7-97.7,28.1
			c-54.9,3.9-108.3-11.6-152.8-46.7c-30.6-24.2-62.2-48.8-94.2-70c-63.2-42.1-164.1-56.1-236.9-28.1c-62.3,24-112.1,71-169.3,103.7
			c-35.8,20.4-77.5,24.9-117.3,22.4c-54.6-3.4-107.3-22.7-159.9-39.5c-83.8-26.8-169.6-25.9-250.7,9.9c-26.5,11.7-53.8,23-81.3,31.5
			c-10.3,3.2-25.8,4.4-32.5,7.5c-0.6,0.4-1.3,0.6-2,0.7c-29.6,0.4-62,2.8-92.1-1.1c-28.4-3.8-56.2-12.7-83.5-23
			c-57.5-21.7-117.6-28.7-175.6-14.8c-17.6,4.2-34.8,12.4-52,19.6c-36.4,14.9-72.1,22.6-111.2,22c-53.6-0.8-115.8-10.2-163.6-36.2
			c-4.9-2.7-2.4-1.2-15.2-9.7V1500H2400v-123C2385.6,1372.9,2372.2,1366.2,2358.3,1361.4z"/>
	</g>
	<path class="st16" d="M2400,1377c0,0-11,2.2-16.3,3.5c-28.1,7-48.7,17.7-71.9,27c-57.5,23.3-132.9,28.1-203.6,12.4
		c-27.6-6.2-50.3-15.3-75-23.2c-63.1-20-145.3-22.6-195-7.1s-79.9,28-182.2,31.3c-77.8,1.6-137.5-12.3-185.8-36.7
		c-4.3-2.2-53.8-25.6-68.7-32.6c-75.2-35.3-169.6-44.4-276.1-34.2c-70,6.7-119.4,26.9-165.5,48.6c-32.9,15.5-65.2,33.9-97.3,46.9
		s-45.2,18.8-70.2,26.5c-60.3,18.6-127.3,26.5-201.9,24.1c-21.8-0.7-69.6-3.6-119.5-15.1s-108.6-37.5-157-50.5
		c-82.8-22.2-169.6-26.4-262.1-12.2c-18.2,2.9-52,10.1-52,10.1V1500h2400V1377z"/>
</g>
</svg>
