<?xml version="1.0" encoding="utf-8"?>
<!-- Generator: Adobe Illustrator 22.1.0, SVG Export Plug-In . SVG Version: 6.00 Build 0)  -->
<svg version="1.1" id="Layer_1" xmlns="http://www.w3.org/2000/svg" xmlns:xlink="http://www.w3.org/1999/xlink" x="0px" y="0px"
	 viewBox="0 0 2400 1500" style="enable-background:new 0 0 2400 1500;" xml:space="preserve">
<style type="text/css">
	.st0{fill:#B16672;}
	.st1{fill:none;}
	.st2{opacity:0.33;}
	.st3{fill:#FFFFFF;}
	.st4{opacity:0.67;}
	.st5{opacity:0.5;fill:none;stroke:#FFFFFF;stroke-width:3;stroke-linecap:round;stroke-miterlimit:10;}
	.st6{opacity:0.5;fill:none;stroke:#FFFFFF;stroke-width:3;stroke-linecap:round;stroke-linejoin:round;stroke-miterlimit:10;}
	.st7{display:none;}
</style>
<title>services-cover</title>
<rect id="SVGID" width="2400" height="1500"/>
<g>
	<path class="st0" d="M2400.1,3166.3c0-27.1-0.1-52.6-0.1-76.1v73.5C2400,3163.8,2400,3164.6,2400.1,3166.3z"/>
	<path class="st0" d="M2001.5,3413.1l-99-64c0,0-78.8-54.4-84.4-133s218.6-198.4,218.6-198.4s-434.7,216.3-703.2,206.6
		c-141.6-5.1-217.6-26.6-270.4-47.1c10,5,20.5,10.7,31.7,17.1c155.2,88.5,444.8,163.9,667.8,224.8c-257,25.2-478,170.9-478,170.9
		s-251.7,154.3-556.7,213.1c48.2-33.1,221.1-117.9,46.7-356.9s172.1-309,172.1-309s-21.6,5.4,0-0.2c-85.4-9.1-244.6,6.1-463,161.8
		S2.3,3428,2.3,3428v630.5l1508.7-2.3c0,0-59,32,134.2-42.2s1.3-100.3,1.3-100.3s-136.5-18.4-124.9-58.2
		c11.6-39.8,175.3-46.1,320.7-45.1s560,49,560,49s-0.8-181.2-1.5-382C2310.7,3445.9,2001.5,3413.1,2001.5,3413.1z"/>
</g>
<line class="st1" x1="-88.3" y1="2306" x2="2606" y2="2306"/>
<g>
	<g>
		<g class="st2">
			<path class="st3" d="M0,1500l2400,0c0,0,0-112.3,0-168.5c-13.2,7.3-10.6,6-15.7,8.3c-51,23.7-113.9,32.2-169.1,34.8
				c-39.3,1.8-76.9-3-115-14c-17.9-5.2-35.8-11.3-53.8-14.1c-60.4-9.5-122.6-2-181.6,17.4c-69.5,23-147.1,11.7-217.3-4.1
				c-28.4-6.4-56.4-14.3-84-23c-85.2-26.9-173.4-24.6-259.2-0.9c-54.5,15.1-109.4,32.1-165.3,36.2c-41.2,3-82.8,0.4-121.3-15
				c-58.4-23.4-112.7-62.3-175.1-79.3c-76.8-21-176.4-8.8-244.9,28.3c-32.8,17.7-65.5,38.3-97.4,58.5
				c-47.9,30.5-102.7,42.9-158,40.9c-34.1-1.2-68.9-7.5-101-20.6c-28.2-11.5-56.4-25.3-85.6-32.4c-50.6-12.4-103.2-13.6-155.8-5.2
				C0,1398.2,0,1500,0,1500z"/>
		</g>
		<g class="st4">
			<path class="st3" d="M2358.3,1361.4c-61.3-21.1-126.8-25-188-4.3c-28.9,9.7-55.6,27.2-82.8,42.3c-30.1,16.8-64.2,25.7-97.7,28.1
				c-54.9,3.9-108.3-11.6-152.8-46.7c-30.6-24.2-62.2-48.7-94.1-70c-63.2-42.1-164.1-56.1-236.9-28.1c-62.3,24-112.1,71-169.3,103.7
				c-35.8,20.4-77.5,24.9-117.3,22.4c-54.6-3.4-107.4-22.7-159.9-39.5c-83.8-26.8-169.6-25.9-250.6,9.9
				c-26.5,11.7-53.8,23-81.3,31.5c-10.3,3.2-25.8,4.5-32.5,7.5c-0.4,0.2-1.2,0.7-2,0.7c-29.6,0.4-62,2.9-92.1-1.1
				c-28.4-3.8-56.2-12.7-83.5-23c-57.4-21.6-117.6-28.7-175.6-14.7c-17.6,4.2-34.8,12.4-52,19.6c-36.4,14.9-72.1,22.6-111.2,22
				c-53.6-0.8-115.8-10.2-163.6-36.2c-4.9-2.7-2.5-1.2-15.2-9.7c0,41.4,0,124.3,0,124.3l2400,0c0,0,0-82,0-123
				C2385.6,1372.9,2372.2,1366.2,2358.3,1361.4z"/>
		</g>
	</g>
	<path class="st3" d="M2400,1377c0,0-11,2.2-16.3,3.5c-28.1,7-48.7,17.6-71.9,27c-57.5,23.4-132.9,28.1-203.6,12.4
		c-27.6-6.2-50.3-15.3-75-23.1c-63.1-20-145.3-22.6-195-7.1s-79.9,28-182.2,31.4c-77.8,1.6-137.5-12.3-185.8-36.7
		c-4.3-2.2-53.7-25.6-68.7-32.6c-75.2-35.3-169.6-44.4-276.1-34.2c-70,6.7-119.4,26.9-165.5,48.6c-32.9,15.5-65.2,33.9-97.3,46.9
		c-32.1,13-45.2,18.8-70.2,26.5c-60.3,18.6-127.3,26.5-201.9,24.1c-21.8-0.7-69.6-3.6-119.5-15.1c-49.9-11.5-108.6-37.5-157-50.5
		c-82.8-22.2-169.6-26.4-262.1-12.2c-18.2,2.8-52.1,10.1-52.1,10.1L0,1500h2400L2400,1377z"/>
</g>
<g>
	<path class="st5" d="M69.3,61.5c8.5,8.5,25,0.2,32.8,7.9s-0.5,24.3,7.9,32.8s25,0.2,32.8,7.9s-0.5,24.3,7.9,32.8"/>
	<path class="st5" d="M306.5,61.5c-8.5,8.5-0.2,25-7.9,32.8s-24.3-0.5-32.8,7.9c-8.5,8.5-0.2,25-7.9,32.8
		c-7.7,7.7-24.3-0.5-32.8,7.9"/>
	<path class="st5" d="M380.7,61.5c8.5,8.5,25,0.2,32.8,7.9s-0.5,24.3,7.9,32.8c8.5,8.5,25,0.2,32.8,7.9s-0.5,24.3,7.9,32.8"/>
	<path class="st5" d="M692.2,61.5c8.5,8.5,25,0.2,32.8,7.9s-0.5,24.3,7.9,32.8c8.5,8.5,25,0.2,32.8,7.9s-0.5,24.3,7.9,32.8"/>
	<path class="st5" d="M929.3,61.5c-8.5,8.5-0.2,25-7.9,32.8s-24.3-0.5-32.8,7.9c-8.5,8.5-0.2,25-7.9,32.8s-24.3-0.5-32.8,7.9"/>
	<path class="st5" d="M1003.6,61.5c8.5,8.5,25,0.2,32.8,7.9c7.7,7.7-0.5,24.3,7.9,32.8c8.5,8.5,25,0.2,32.8,7.9
		c7.7,7.7-0.5,24.3,7.9,32.8"/>
	<path class="st5" d="M1552.1,61.5c-8.5,8.5-0.2,25-7.9,32.8c-7.7,7.7-24.3-0.5-32.8,7.9s-0.2,25-7.9,32.8
		c-7.7,7.7-24.3-0.5-32.8,7.9"/>
	<path class="st5" d="M1863.6,61.5c-8.5,8.5-0.2,25-7.9,32.8c-7.7,7.7-24.3-0.5-32.8,7.9c-8.5,8.5-0.2,25-7.9,32.8
		c-7.7,7.7-24.3-0.5-32.8,7.9"/>
	<path class="st5" d="M1937.8,61.5c8.5,8.5,25,0.2,32.8,7.9c7.7,7.7-0.5,24.3,7.9,32.8s25,0.2,32.8,7.9c7.7,7.7-0.5,24.3,7.9,32.8"
		/>
	<path class="st5" d="M2175,61.5c-8.5,8.5-0.2,25-7.9,32.8s-24.3-0.5-32.8,7.9s-0.2,25-7.9,32.8c-7.7,7.7-24.3-0.5-32.8,7.9"/>
	<path class="st5" d="M150.8,230.9c-8.5,8.5-0.2,25-7.9,32.8s-24.3-0.5-32.8,7.9s-0.2,25-7.9,32.8s-24.3-0.5-32.8,7.9"/>
	<path class="st5" d="M462.2,230.9c-8.5,8.5-0.2,25-7.9,32.8s-24.3-0.5-32.8,7.9c-8.5,8.5-0.2,25-7.9,32.8s-24.3-0.5-32.8,7.9"/>
	<path class="st5" d="M536.4,230.9c8.5,8.5,25,0.2,32.8,7.9s-0.5,24.3,7.9,32.8s25,0.2,32.8,7.9s-0.5,24.3,7.9,32.8"/>
	<path class="st5" d="M773.6,230.9c-8.5,8.5-0.2,25-7.9,32.8s-24.3-0.5-32.8,7.9c-8.5,8.5-0.2,25-7.9,32.8s-24.3-0.5-32.8,7.9"/>
	<path class="st5" d="M1085,230.9c-8.5,8.5-0.2,25-7.9,32.8c-7.7,7.7-24.3-0.5-32.8,7.9c-8.5,8.5-0.2,25-7.9,32.8
		c-7.7,7.7-24.3-0.5-32.8,7.9"/>
	<path class="st5" d="M1159.3,230.9c8.5,8.5,25,0.2,32.8,7.9c7.7,7.7-0.5,24.3,7.9,32.8s25,0.2,32.8,7.9c7.7,7.7-0.5,24.3,7.9,32.8"
		/>
	<path class="st5" d="M1396.4,230.9c-8.5,8.5-0.2,25-7.9,32.8c-7.7,7.7-24.3-0.5-32.8,7.9c-8.5,8.5-0.2,25-7.9,32.8
		c-7.7,7.7-24.3-0.5-32.8,7.9"/>
	<path class="st5" d="M1470.7,230.9c8.5,8.5,25,0.2,32.8,7.9c7.7,7.7-0.5,24.3,7.9,32.8s25,0.2,32.8,7.9c7.7,7.7-0.5,24.3,7.9,32.8"
		/>
	<path class="st5" d="M1707.8,230.9c-8.5,8.5-0.2,25-7.9,32.8c-7.7,7.7-24.3-0.5-32.8,7.9s-0.2,25-7.9,32.8
		c-7.7,7.7-24.3-0.5-32.8,7.9"/>
	<path class="st5" d="M2093.5,230.9c8.5,8.5,25,0.2,32.8,7.9c7.7,7.7-0.5,24.3,7.9,32.8s25,0.2,32.8,7.9s-0.5,24.3,7.9,32.8"/>
	<path class="st5" d="M69.3,400.2c8.5,8.5,25,0.2,32.8,7.9s-0.5,24.3,7.9,32.8c8.5,8.5,25,0.2,32.8,7.9s-0.5,24.3,7.9,32.8"/>
	<path class="st5" d="M306.5,400.2c-8.5,8.5-0.2,25-7.9,32.8s-24.3-0.5-32.8,7.9c-8.5,8.5-0.2,25-7.9,32.8
		c-7.7,7.7-24.3-0.5-32.8,7.9"/>
	<path class="st5" d="M380.7,400.2c8.5,8.5,25,0.2,32.8,7.9s-0.5,24.3,7.9,32.8c8.5,8.5,25,0.2,32.8,7.9s-0.5,24.3,7.9,32.8"/>
	<path class="st5" d="M692.2,400.2c8.5,8.5,25,0.2,32.8,7.9s-0.5,24.3,7.9,32.8c8.5,8.5,25,0.2,32.8,7.9s-0.5,24.3,7.9,32.8"/>
	<path class="st5" d="M1003.6,400.2c8.5,8.5,25,0.2,32.8,7.9c7.7,7.7-0.5,24.3,7.9,32.8c8.5,8.5,25,0.2,32.8,7.9
		c7.7,7.7-0.5,24.3,7.9,32.8"/>
	<path class="st5" d="M1315,400.2c8.5,8.5,25,0.2,32.8,7.9c7.7,7.7-0.5,24.3,7.9,32.8c8.5,8.5,25,0.2,32.8,7.9
		c7.7,7.7-0.5,24.3,7.9,32.8"/>
	<path class="st5" d="M1626.4,400.2c8.5,8.5,25,0.2,32.8,7.9c7.7,7.7-0.5,24.3,7.9,32.8c8.5,8.5,25,0.2,32.8,7.9
		c7.7,7.7-0.5,24.3,7.9,32.8"/>
	<path class="st5" d="M1863.6,400.2c-8.5,8.5-0.2,25-7.9,32.8c-7.7,7.7-24.3-0.5-32.8,7.9c-8.5,8.5-0.2,25-7.9,32.8
		c-7.7,7.7-24.3-0.5-32.8,7.9"/>
	<path class="st5" d="M1937.8,400.2c8.5,8.5,25,0.2,32.8,7.9c7.7,7.7-0.5,24.3,7.9,32.8c8.5,8.5,25,0.2,32.8,7.9
		c7.7,7.7-0.5,24.3,7.9,32.8"/>
	<path class="st5" d="M2249.2,400.2c8.5,8.5,25,0.2,32.8,7.9c7.7,7.7-0.5,24.3,7.9,32.8c8.5,8.5,25,0.2,32.8,7.9s-0.5,24.3,7.9,32.8
		"/>
	<path class="st5" d="M150.8,569.5c-8.5,8.5-0.2,25-7.9,32.8s-24.3-0.5-32.8,7.9s-0.2,25-7.9,32.8s-24.3-0.5-32.8,7.9"/>
	<path class="st5" d="M225,569.5c8.5,8.5,25,0.2,32.8,7.9c7.7,7.7-0.5,24.3,7.9,32.8c8.5,8.5,25,0.2,32.8,7.9s-0.5,24.3,7.9,32.8"/>
	<path class="st5" d="M536.4,569.5c8.5,8.5,25,0.2,32.8,7.9s-0.5,24.3,7.9,32.8s25,0.2,32.8,7.9s-0.5,24.3,7.9,32.8"/>
	<path class="st5" d="M773.6,569.5c-8.5,8.5-0.2,25-7.9,32.8s-24.3-0.5-32.8,7.9c-8.5,8.5-0.2,25-7.9,32.8s-24.3-0.5-32.8,7.9"/>
	<path class="st5" d="M1085,569.5c-8.5,8.5-0.2,25-7.9,32.8c-7.7,7.7-24.3-0.5-32.8,7.9c-8.5,8.5-0.2,25-7.9,32.8
		c-7.7,7.7-24.3-0.5-32.8,7.9"/>
	<path class="st5" d="M1159.3,569.5c8.5,8.5,25,0.2,32.8,7.9c7.7,7.7-0.5,24.3,7.9,32.8s25,0.2,32.8,7.9c7.7,7.7-0.5,24.3,7.9,32.8"
		/>
	<path class="st5" d="M1396.4,569.5c-8.5,8.5-0.2,25-7.9,32.8c-7.7,7.7-24.3-0.5-32.8,7.9c-8.5,8.5-0.2,25-7.9,32.8
		c-7.7,7.7-24.3-0.5-32.8,7.9"/>
	<path class="st5" d="M1707.8,569.5c-8.5,8.5-0.2,25-7.9,32.8c-7.7,7.7-24.3-0.5-32.8,7.9s-0.2,25-7.9,32.8
		c-7.7,7.7-24.3-0.5-32.8,7.9"/>
	<path class="st5" d="M1782.1,569.5c8.5,8.5,25,0.2,32.8,7.9c7.7,7.7-0.5,24.3,7.9,32.8c8.5,8.5,25,0.2,32.8,7.9
		c7.7,7.7-0.5,24.3,7.9,32.8"/>
	<path class="st5" d="M2093.5,569.5c8.5,8.5,25,0.2,32.8,7.9c7.7,7.7-0.5,24.3,7.9,32.8s25,0.2,32.8,7.9s-0.5,24.3,7.9,32.8"/>
	<path class="st5" d="M2330.7,569.5c-8.5,8.5-0.2,25-7.9,32.8s-24.3-0.5-32.8,7.9s-0.2,25-7.9,32.8c-7.7,7.7-24.3-0.5-32.8,7.9"/>
	<path class="st5" d="M2330.7,908.2c-8.5,8.5-0.2,25-7.9,32.8s-24.3-0.5-32.8,7.9c-8.5,8.5-0.2,25-7.9,32.8
		c-7.7,7.7-24.3-0.5-32.8,7.9"/>
	<path class="st5" d="M2330.7,230.9c-8.5,8.5-0.2,25-7.9,32.8s-24.3-0.5-32.8,7.9s-0.2,25-7.9,32.8c-7.7,7.7-24.3-0.5-32.8,7.9"/>
	<path class="st5" d="M2175,400.2c-8.5,8.5-0.2,25-7.9,32.8s-24.3-0.5-32.8,7.9c-8.5,8.5-0.2,25-7.9,32.8
		c-7.7,7.7-24.3-0.5-32.8,7.9"/>
	<path class="st5" d="M69.3,738.9c8.5,8.5,25,0.2,32.8,7.9s-0.5,24.3,7.9,32.8c8.5,8.5,25,0.2,32.8,7.9s-0.5,24.3,7.9,32.8"/>
	<path class="st5" d="M380.7,738.9c8.5,8.5,25,0.2,32.8,7.9s-0.5,24.3,7.9,32.8c8.5,8.5,25,0.2,32.8,7.9s-0.5,24.3,7.9,32.8"/>
	<path class="st5" d="M617.9,738.9c-8.5,8.5-0.2,25-7.9,32.8s-24.3-0.5-32.8,7.9c-8.5,8.5-0.2,25-7.9,32.8s-24.3-0.5-32.8,7.9"/>
	<path class="st5" d="M692.2,738.9c8.5,8.5,25,0.2,32.8,7.9s-0.5,24.3,7.9,32.8c8.5,8.5,25,0.2,32.8,7.9s-0.5,24.3,7.9,32.8"/>
	<path class="st5" d="M1003.6,738.9c8.5,8.5,25,0.2,32.8,7.9c7.7,7.7-0.5,24.3,7.9,32.8c8.5,8.5,25,0.2,32.8,7.9
		c7.7,7.7-0.5,24.3,7.9,32.8"/>
	<path class="st5" d="M1315,738.9c8.5,8.5,25,0.2,32.8,7.9c7.7,7.7-0.5,24.3,7.9,32.8c8.5,8.5,25,0.2,32.8,7.9
		c7.7,7.7-0.5,24.3,7.9,32.8"/>
	<path class="st5" d="M1626.4,738.9c8.5,8.5,25,0.2,32.8,7.9c7.7,7.7-0.5,24.3,7.9,32.8c8.5,8.5,25,0.2,32.8,7.9
		c7.7,7.7-0.5,24.3,7.9,32.8"/>
	<path class="st5" d="M1863.6,738.9c-8.5,8.5-0.2,25-7.9,32.8c-7.7,7.7-24.3-0.5-32.8,7.9c-8.5,8.5-0.2,25-7.9,32.8
		c-7.7,7.7-24.3-0.5-32.8,7.9"/>
	<path class="st5" d="M1937.8,738.9c8.5,8.5,25,0.2,32.8,7.9c7.7,7.7-0.5,24.3,7.9,32.8c8.5,8.5,25,0.2,32.8,7.9
		c7.7,7.7-0.5,24.3,7.9,32.8"/>
	<path class="st5" d="M2175,738.9c-8.5,8.5-0.2,25-7.9,32.8s-24.3-0.5-32.8,7.9c-8.5,8.5-0.2,25-7.9,32.8
		c-7.7,7.7-24.3-0.5-32.8,7.9"/>
	<path class="st5" d="M150.8,908.2c-8.5,8.5-0.2,25-7.9,32.8s-24.3-0.5-32.8,7.9c-8.5,8.5-0.2,25-7.9,32.8s-24.3-0.5-32.8,7.9"/>
	<path class="st5" d="M225,908.2c8.5,8.5,25,0.2,32.8,7.9c7.7,7.7-0.5,24.3,7.9,32.8c8.5,8.5,25,0.2,32.8,7.9s-0.5,24.3,7.9,32.8"/>
	<path class="st5" d="M773.6,908.2c-8.5,8.5-0.2,25-7.9,32.8s-24.3-0.5-32.8,7.9c-8.5,8.5-0.2,25-7.9,32.8s-24.3-0.5-32.8,7.9"/>
	<path class="st5" d="M1085,908.2c-8.5,8.5-0.2,25-7.9,32.8c-7.7,7.7-24.3-0.5-32.8,7.9c-8.5,8.5-0.2,25-7.9,32.8
		c-7.7,7.7-24.3-0.5-32.8,7.9"/>
	<path class="st5" d="M1396.4,908.2c-8.5,8.5-0.2,25-7.9,32.8c-7.7,7.7-24.3-0.5-32.8,7.9c-8.5,8.5-0.2,25-7.9,32.8
		c-7.7,7.7-24.3-0.5-32.8,7.9"/>
	<path class="st5" d="M1470.7,908.2c8.5,8.5,25,0.2,32.8,7.9c7.7,7.7-0.5,24.3,7.9,32.8c8.5,8.5,25,0.2,32.8,7.9
		c7.7,7.7-0.5,24.3,7.9,32.8"/>
	<path class="st5" d="M1782.1,908.2c8.5,8.5,25,0.2,32.8,7.9c7.7,7.7-0.5,24.3,7.9,32.8c8.5,8.5,25,0.2,32.8,7.9
		c7.7,7.7-0.5,24.3,7.9,32.8"/>
	<path class="st5" d="M2093.5,908.2c8.5,8.5,25,0.2,32.8,7.9c7.7,7.7-0.5,24.3,7.9,32.8c8.5,8.5,25,0.2,32.8,7.9s-0.5,24.3,7.9,32.8
		"/>
	<path class="st5" d="M69.3,1077.5c8.5,8.5,25,0.2,32.8,7.9s-0.5,24.3,7.9,32.8c8.5,8.5,25,0.2,32.8,7.9c7.7,7.7-0.5,24.3,7.9,32.8"
		/>
	<path class="st5" d="M380.7,1077.5c8.5,8.5,25,0.2,32.8,7.9s-0.5,24.3,7.9,32.8c8.5,8.5,25,0.2,32.8,7.9c7.7,7.7-0.5,24.3,7.9,32.8
		"/>
	<path class="st5" d="M617.9,1077.5c-8.5,8.5-0.2,25-7.9,32.8c-7.7,7.7-24.3-0.5-32.8,7.9c-8.5,8.5-0.2,25-7.9,32.8
		c-7.7,7.7-24.3-0.5-32.8,7.9"/>
	<path class="st5" d="M692.2,1077.5c8.5,8.5,25,0.2,32.8,7.9s-0.5,24.3,7.9,32.8c8.5,8.5,25,0.2,32.8,7.9c7.7,7.7-0.5,24.3,7.9,32.8
		"/>
	<path class="st5" d="M929.3,1077.5c-8.5,8.5-0.2,25-7.9,32.8c-7.7,7.7-24.3-0.5-32.8,7.9c-8.5,8.5-0.2,25-7.9,32.8
		c-7.7,7.7-24.3-0.5-32.8,7.9"/>
	<path class="st5" d="M1003.6,1077.5c8.5,8.5,25,0.2,32.8,7.9c7.7,7.7-0.5,24.3,7.9,32.8c8.5,8.5,25,0.2,32.8,7.9
		c7.7,7.7-0.5,24.3,7.9,32.8"/>
	<path class="st5" d="M1315,1077.5c8.5,8.5,25,0.2,32.8,7.9c7.7,7.7-0.5,24.3,7.9,32.8c8.5,8.5,25,0.2,32.8,7.9
		c7.7,7.7-0.5,24.3,7.9,32.8"/>
	<path class="st5" d="M1626.4,1077.5c8.5,8.5,25,0.2,32.8,7.9c7.7,7.7-0.5,24.3,7.9,32.8c8.5,8.5,25,0.2,32.8,7.9
		c7.7,7.7-0.5,24.3,7.9,32.8"/>
	<path class="st5" d="M1863.6,1077.5c-8.5,8.5-0.2,25-7.9,32.8c-7.7,7.7-24.3-0.5-32.8,7.9c-8.5,8.5-0.2,25-7.9,32.8
		c-7.7,7.7-24.3-0.5-32.8,7.9"/>
	<path class="st5" d="M2175,1077.5c-8.5,8.5-0.2,25-7.9,32.8c-7.7,7.7-24.3-0.5-32.8,7.9c-8.5,8.5-0.2,25-7.9,32.8
		c-7.7,7.7-24.3-0.5-32.8,7.9"/>
	<path class="st5" d="M225,1246.8c8.5,8.5,25,0.2,32.8,7.9c7.7,7.7-0.5,24.3,7.9,32.8c8.5,8.5,25,0.2,32.8,7.9
		c7.7,7.7-0.5,24.3,7.9,32.8"/>
	<path class="st5" d="M462.2,1246.8c-8.5,8.5-0.2,25-7.9,32.8c-7.7,7.7-24.3-0.5-32.8,7.9c-8.5,8.5-0.2,25-7.9,32.8
		c-7.7,7.7-24.3-0.5-32.8,7.9"/>
	<path class="st5" d="M773.6,1246.8c-8.5,8.5-0.2,25-7.9,32.8c-7.7,7.7-24.3-0.5-32.8,7.9c-8.5,8.5-0.2,25-7.9,32.8
		c-7.7,7.7-24.3-0.5-32.8,7.9"/>
	<path class="st5" d="M847.9,1246.8c8.5,8.5,25,0.2,32.8,7.9c7.7,7.7-0.5,24.3,7.9,32.8c8.5,8.5,25,0.2,32.8,7.9
		c7.7,7.7-0.5,24.3,7.9,32.8"/>
	<path class="st5" d="M1159.3,1246.8c8.5,8.5,25,0.2,32.8,7.9c7.7,7.7-0.5,24.3,7.9,32.8s25,0.2,32.8,7.9c7.7,7.7-0.5,24.3,7.9,32.8
		"/>
	<path class="st5" d="M1396.4,1246.8c-8.5,8.5-0.2,25-7.9,32.8c-7.7,7.7-24.3-0.5-32.8,7.9c-8.5,8.5-0.2,25-7.9,32.8
		c-7.7,7.7-24.3-0.5-32.8,7.9"/>
	<path class="st5" d="M1707.8,1246.8c-8.5,8.5-0.2,25-7.9,32.8c-7.7,7.7-24.3-0.5-32.8,7.9s-0.2,25-7.9,32.8
		c-7.7,7.7-24.3-0.5-32.8,7.9"/>
	<path class="st5" d="M1782.1,1246.8c8.5,8.5,25,0.2,32.8,7.9c7.7,7.7-0.5,24.3,7.9,32.8c8.5,8.5,25,0.2,32.8,7.9
		c7.7,7.7-0.5,24.3,7.9,32.8"/>
	<path class="st5" d="M2019.3,1246.8c-8.5,8.5-0.2,25-7.9,32.8c-7.7,7.7-24.3-0.5-32.8,7.9s-0.2,25-7.9,32.8
		c-7.7,7.7-24.3-0.5-32.8,7.9"/>
	<path class="st5" d="M2093.5,1246.8c8.5,8.5,25,0.2,32.8,7.9c7.7,7.7-0.5,24.3,7.9,32.8s25,0.2,32.8,7.9c7.7,7.7-0.5,24.3,7.9,32.8
		"/>
	<path class="st6" d="M924.1,459.7l-17.2,17.2c-6.8,6.8-17.7,6.8-24.5,0l-17.2-17.2c-6.8-6.8-6.8-17.7,0-24.5l17.2-17.2
		c6.8-6.8,17.7-6.8,24.5,0l17.2,17.2C930.9,442,930.9,453,924.1,459.7z"/>
	<path class="st6" d="M145.6,1306.4l-17.2,17.2c-6.8,6.8-17.7,6.8-24.5,0l-17.2-17.2c-6.8-6.8-6.8-17.7,0-24.5l17.2-17.2
		c6.8-6.8,17.7-6.8,24.5,0l17.2,17.2C152.3,1288.7,152.3,1299.6,145.6,1306.4z"/>
	<path class="st6" d="M2325.5,1306.2l-17.2,17.2c-6.8,6.8-17.7,6.8-24.5,0l-17.2-17.2c-6.8-6.8-6.8-17.7,0-24.5l17.2-17.2
		c6.8-6.8,17.7-6.8,24.5,0l17.2,17.2C2332.3,1288.5,2332.3,1299.4,2325.5,1306.2z"/>
	<path class="st6" d="M1235.5,120.9l-17.2,17.2c-6.8,6.8-17.7,6.8-24.5,0l-17.2-17.2c-6.8-6.8-6.8-17.7,0-24.5l17.2-17.2
		c6.8-6.8,17.7-6.8,24.5,0l17.2,17.2C1242.3,103.2,1242.3,114.1,1235.5,120.9z"/>
	<path class="st6" d="M2014.1,628.9l-17.2,17.2c-6.8,6.8-17.7,6.8-24.5,0l-17.2-17.2c-6.8-6.8-6.8-17.7,0-24.5l17.2-17.2
		c6.8-6.8,17.7-6.8,24.5,0l17.2,17.2C2020.8,611.2,2020.8,622.1,2014.1,628.9z"/>
	<path class="st6" d="M2014.1,967.4l-17.2,17.2c-6.8,6.8-17.7,6.8-24.5,0l-17.2-17.2c-6.8-6.8-6.8-17.7,0-24.5l17.2-17.2
		c6.8-6.8,17.7-6.8,24.5,0l17.2,17.2C2020.8,949.6,2020.8,960.6,2014.1,967.4z"/>
	<path class="st6" d="M457,967.4l-17.2,17.2c-6.8,6.8-17.7,6.8-24.5,0l-17.2-17.2c-6.8-6.8-6.8-17.7,0-24.5l17.2-17.2
		c6.8-6.8,17.7-6.8,24.5,0l17.2,17.2C463.8,949.6,463.8,960.6,457,967.4z"/>
	<path class="st6" d="M1541.2,466.1l-17.2,17.2c-6.8,6.8-17.7,6.8-24.5,0l-17.2-17.2c-6.8-6.8-6.8-17.7,0-24.5l17.2-17.2
		c6.8-6.8,17.7-6.8,24.5,0l17.2,17.2C1547.9,448.4,1547.9,459.4,1541.2,466.1z"/>
	<path class="st6" d="M1546.9,798.2l-17.2,17.2c-6.8,6.8-17.7,6.8-24.5,0l-17.2-17.2c-6.8-6.8-6.8-17.7,0-24.5l17.2-17.2
		c6.8-6.8,17.7-6.8,24.5,0l17.2,17.2C1553.7,780.5,1553.7,791.5,1546.9,798.2z"/>
	<path class="st6" d="M924.1,798.2l-17.2,17.2c-6.8,6.8-17.7,6.8-24.5,0l-17.2-17.2c-6.8-6.8-6.8-17.7,0-24.5l17.2-17.2
		c6.8-6.8,17.7-6.8,24.5,0l17.2,17.2C930.9,780.5,930.9,791.5,924.1,798.2z"/>
	<path class="st6" d="M1235.5,1137.1l-17.2,17.2c-6.8,6.8-17.7,6.8-24.5,0l-17.2-17.2c-6.8-6.8-6.8-17.7,0-24.5l17.2-17.2
		c6.8-6.8,17.7-6.8,24.5,0l17.2,17.2C1242.3,1119.3,1242.3,1130.3,1235.5,1137.1z"/>
	<path class="st6" d="M457,628.9l-17.2,17.2c-6.8,6.8-17.7,6.8-24.5,0l-17.2-17.2c-6.8-6.8-6.8-17.7,0-24.5l17.2-17.2
		c6.8-6.8,17.7-6.8,24.5,0l17.2,17.2C463.8,611.2,463.8,622.1,457,628.9z"/>
</g>
<rect x="-884" y="447.1" transform="matrix(0.9053 -0.4247 0.4247 0.9053 -211.6942 469.7199)" class="st7" width="3663.7" height="525.1"/>
</svg>
