<?xml version="1.0" encoding="utf-8"?>
<!-- Generator: Adobe Illustrator 21.1.0, SVG Export Plug-In . SVG Version: 6.00 Build 0)  -->
<svg version="1.1" id="Layer_1" xmlns="http://www.w3.org/2000/svg" xmlns:xlink="http://www.w3.org/1999/xlink" x="0px" y="0px"
	 viewBox="0 0 157.3 162.1" style="enable-background:new 0 0 157.3 162.1;" xml:space="preserve">
<style type="text/css">
	.st0{fill:#F0DDE8;}
	.st1{fill:url(#SVGID_1_);}
	.st2{fill:url(#SVGID_2_);}
	.st3{fill:url(#SVGID_3_);}
	.st4{fill:url(#SVGID_4_);}
	.st5{fill:url(#SVGID_5_);}
</style>
<title>so-logo-icon</title>
<path class="st0" d="M5.9,100.6l13.1,6.1l-13.1,6.1V100.6 M0.2,91.8v29.9l32.6-15L0.2,91.8L0.2,91.8z"/>
<path class="st0" d="M151.8,52.4v12l-13.1-6.1L151.8,52.4 M157.5,43.4l-32.6,15l32.6,15V43.4z"/>
<linearGradient id="SVGID_1_" gradientUnits="userSpaceOnUse" x1="2.9777" y1="1298.2805" x2="17.056" y2="1322.6462" gradientTransform="matrix(1 0 0 1 -0.54 -1256.21)">
	<stop  offset="0" style="stop-color:#24338A"/>
	<stop  offset="1" style="stop-color:#B6578A"/>
</linearGradient>
<polygon class="st1" points="0,43.4 0,72.2 31.4,57.9 "/>
<linearGradient id="SVGID_2_" gradientUnits="userSpaceOnUse" x1="61.2686" y1="1306.2814" x2="97.8598" y2="1369.6733" gradientTransform="matrix(1 0 0 1 -0.54 -1256.21)">
	<stop  offset="0" style="stop-color:#24338A"/>
	<stop  offset="1" style="stop-color:#B6578A"/>
</linearGradient>
<polygon class="st2" points="5.9,81.7 79.2,115.4 152.2,81.9 113,63.8 78.9,79.4 44.8,63.8 "/>
<linearGradient id="SVGID_3_" gradientUnits="userSpaceOnUse" x1="60.7299" y1="1258.0608" x2="97.307" y2="1321.4088" gradientTransform="matrix(1 0 0 1 -0.54 -1256.21)">
	<stop  offset="0" style="stop-color:#24338A"/>
	<stop  offset="1" style="stop-color:#B6578A"/>
</linearGradient>
<polygon class="st3" points="5.3,33.5 78.9,67.2 151.6,33.5 78.3,0 "/>
<linearGradient id="SVGID_4_" gradientUnits="userSpaceOnUse" x1="111.9523" y1="1366.1683" x2="131.5207" y2="1400.0078" gradientTransform="matrix(1 0 0 1 -0.54 -1256.21)">
	<stop  offset="0" style="stop-color:#24338A"/>
	<stop  offset="1" style="stop-color:#B6578A"/>
</linearGradient>
<polygon class="st4" points="85.3,125.1 85.1,162.1 157.3,128.6 157.3,91.8 "/>
<linearGradient id="SVGID_5_" gradientUnits="userSpaceOnUse" x1="33.0149" y1="1371.9136" x2="63.1204" y2="1424.0316" gradientTransform="matrix(1 0 0 1 -0.54 -1256.21)">
	<stop  offset="0" style="stop-color:#24338A"/>
	<stop  offset="1" style="stop-color:#B6578A"/>
</linearGradient>
<polygon class="st5" points="5.9,131.1 73.1,161.7 73.1,124.8 46.1,112.6 "/>
</svg>
