<svg id="Layer_1" data-name="Layer 1" xmlns="http://www.w3.org/2000/svg" xmlns:xlink="http://www.w3.org/1999/xlink" viewBox="0 0 353.68 128.97"><defs><style>.cls-1{fill:url(#linear-gradient);}.cls-2{fill:url(#linear-gradient-2);}.cls-3{fill:url(#linear-gradient-3);}.cls-4{fill:url(#linear-gradient-4);}.cls-5{fill:url(#linear-gradient-5);}.cls-6{fill:url(#linear-gradient-6);}.cls-7{fill:url(#linear-gradient-7);}.cls-8{fill:#231f20;}</style><linearGradient id="linear-gradient" x1="13.59" y1="1202.26" x2="45.41" y2="1257.37" gradientTransform="translate(-0.54 -1170.21)" gradientUnits="userSpaceOnUse"><stop offset="0" stop-color="#24338a"/><stop offset="1" stop-color="#b6578a"/></linearGradient><linearGradient id="linear-gradient-2" x1="63.95" y1="1196.37" x2="102.17" y2="1262.59" xlink:href="#linear-gradient"/><linearGradient id="linear-gradient-3" x1="138.03" y1="1199.47" x2="176.08" y2="1265.38" xlink:href="#linear-gradient"/><linearGradient id="linear-gradient-4" x1="193.2" y1="1187.07" x2="233.59" y2="1257.01" xlink:href="#linear-gradient"/><linearGradient id="linear-gradient-5" x1="226.47" y1="1180.73" x2="269.11" y2="1254.58" xlink:href="#linear-gradient"/><linearGradient id="linear-gradient-6" x1="275.54" y1="1199.49" x2="313.59" y2="1265.38" xlink:href="#linear-gradient"/><linearGradient id="linear-gradient-7" x1="323.04" y1="1190.04" x2="360.79" y2="1255.44" xlink:href="#linear-gradient"/></defs><title>so-logo-noicon</title><path class="cls-1" d="M28.67,44.48a4.84,4.84,0,0,0-2.46.54,1.62,1.62,0,0,0-.93,1.42q0,1.31,2,2.18a47.46,47.46,0,0,0,6.56,2.07,99.08,99.08,0,0,1,11,3.6,21.63,21.63,0,0,1,8,5.67,14.24,14.24,0,0,1,3.44,9.92,17.67,17.67,0,0,1-3.33,10.68,21.35,21.35,0,0,1-9.45,7.08,37.63,37.63,0,0,1-14.32,2.51q-16.72,0-29.18-8.5L7.43,66.39q12,7.41,22.08,7.41a6.24,6.24,0,0,0,2.73-.49c.66-.33,1-.74,1-1.25,0-.8-.64-1.47-1.91-2a46.69,46.69,0,0,0-6.18-1.91,81,81,0,0,1-10.93-3.49A21.8,21.8,0,0,1,6.3,59,14.4,14.4,0,0,1,2.86,49,18.29,18.29,0,0,1,6.14,38.14a21.28,21.28,0,0,1,9.24-7.19,34.77,34.77,0,0,1,13.83-2.56A56.16,56.16,0,0,1,57,35.91L48.88,51.06Q35.51,44.48,28.67,44.48Z" transform="translate(0 0)"/><path class="cls-2" d="M111.94,32.38a25.2,25.2,0,0,1,9.62,10.85,37.41,37.41,0,0,1,3.39,16.4,36.79,36.79,0,0,1-3.28,16,24.31,24.31,0,0,1-9.34,10.57,26.61,26.61,0,0,1-14.15,3.71,21.55,21.55,0,0,1-8.85-1.8,20,20,0,0,1-7-5.18v17.26H57.73V29.44H82.32v6a19.11,19.11,0,0,1,15.19-6.87A27.07,27.07,0,0,1,111.94,32.38Zm-14.27,35A13.3,13.3,0,0,0,100.13,59a13.3,13.3,0,0,0-2.46-8.4,7.84,7.84,0,0,0-6.5-3.16,7.69,7.69,0,0,0-6.5,3.16A13.5,13.5,0,0,0,82.27,59a13.5,13.5,0,0,0,2.4,8.39,7.68,7.68,0,0,0,6.45,3.16A7.83,7.83,0,0,0,97.67,67.37Z" transform="translate(0 0)"/><path class="cls-3" d="M178.85,34.18q7.27,5.83,7.27,16.3V89.06H162V82.63q-5.47,7.52-16.83,7.52-9.4,0-14.7-5.07t-5.3-13.68q0-8.83,5.9-13.41t17.27-4.8H162a5.88,5.88,0,0,0-2.46-4.85q-2.35-1.69-6.83-1.69a43.19,43.19,0,0,0-8.36,1,63.29,63.29,0,0,0-9.78,2.83l-5.47-16.36a97,97,0,0,1,15.24-4.33,75.18,75.18,0,0,1,14.26-1.47Q171.58,28.35,178.85,34.18ZM158.31,73.36A9.89,9.89,0,0,0,162,70V64.53h-8.53q-5.25,0-5.25,4.8a5.1,5.1,0,0,0,1.42,3.87,5.61,5.61,0,0,0,4,1.36A9.72,9.72,0,0,0,158.31,73.36Z" transform="translate(0 0)"/><path class="cls-4" d="M233.67,86.44A25.26,25.26,0,0,1,226,89.17a47.72,47.72,0,0,1-9.67,1q-10.06,0-16.12-5.5T194.1,69.9v-25h-8.2V29.44h8.2V16h24.48V29.44h14V44.91h-14V66.17a5.2,5.2,0,0,0,1.31,3.76,4.31,4.31,0,0,0,3.5,1.25,19.24,19.24,0,0,0,6.12-1.53Z" transform="translate(0 0)"/><path class="cls-5" d="M256.83,3.49a12.09,12.09,0,0,1,3.5,8.94,12.08,12.08,0,0,1-3.5,8.94,13.26,13.26,0,0,1-17.92,0,12.08,12.08,0,0,1-3.5-8.94,12.08,12.08,0,0,1,3.5-8.94A13.26,13.26,0,0,1,256.83,3.49Zm-21,25.94h24.59V89.06H235.85Z" transform="translate(0 0)"/><path class="cls-6" d="M316.35,34.18q7.27,5.83,7.27,16.3V89.06H299.46V82.63q-5.47,7.52-16.83,7.52-9.4,0-14.7-5.07T262.67,71.4q0-8.83,5.9-13.41t17.27-4.8H299.5A5.88,5.88,0,0,0,297,48.34q-2.35-1.69-6.83-1.69a43.19,43.19,0,0,0-8.36,1,63.29,63.29,0,0,0-9.78,2.83L266.6,34.13a97,97,0,0,1,15.21-4.34,75.18,75.18,0,0,1,14.26-1.47Q309.08,28.35,316.35,34.18ZM295.8,73.36A9.89,9.89,0,0,0,299.46,70V64.53h-8.53q-5.25,0-5.25,4.8a5.1,5.1,0,0,0,1.42,3.87,5.61,5.61,0,0,0,4,1.36A9.72,9.72,0,0,0,295.8,73.36Z" transform="translate(0 0)"/><path class="cls-7" d="M329.08,16h24.59V89H329.08Z" transform="translate(0 0)"/><path class="cls-8" d="M16.32,109.16a10.75,10.75,0,0,1,4,3.83,10.07,10.07,0,0,1,1.46,5.31,10.22,10.22,0,0,1-1.46,5.34,11,11,0,0,1-18.85,0A10.21,10.21,0,0,1,0,118.3,10.06,10.06,0,0,1,1.47,113a10.74,10.74,0,0,1,4-3.83,11.27,11.27,0,0,1,10.95,0Zm-9.85,1.63A8.78,8.78,0,0,0,3.25,114a8.4,8.4,0,0,0-1.19,4.38,8.55,8.55,0,0,0,1.19,4.41,8.81,8.81,0,0,0,3.22,3.21,8.63,8.63,0,0,0,4.41,1.18,8.49,8.49,0,0,0,4.37-1.18,8.85,8.85,0,0,0,3.21-3.21,8.55,8.55,0,0,0,1.19-4.41,8.4,8.4,0,0,0-1.19-4.38,8.82,8.82,0,0,0-3.21-3.16,8.58,8.58,0,0,0-4.37-1.16A8.72,8.72,0,0,0,6.47,110.79Z" transform="translate(0 0)"/><path class="cls-8" d="M57.86,109.73A6.35,6.35,0,0,1,60,114.85a6.73,6.73,0,0,1-2.12,5.31,8.74,8.74,0,0,1-6,1.88H46.22v6.75H44.17V107.92h7.69A9,9,0,0,1,57.86,109.73Zm-1.48,9.1A4.82,4.82,0,0,0,58,114.91a4.64,4.64,0,0,0-1.61-3.82,7.15,7.15,0,0,0-4.63-1.3H46.22V120.2h5.55a7,7,0,0,0,4.61-1.41Z" transform="translate(0 0)"/><path class="cls-8" d="M82,107.92H96v1.87H84.08v7.46H94.67v1.85H84v7.84H96.33v1.85H82Z" transform="translate(0 0)"/><path class="cls-8" d="M133,128.79l-4.5-6.8q-1,.06-1.46.06h-5.73v6.74h-2.06V107.92H127a9.09,9.09,0,0,1,6,1.8,6.33,6.33,0,0,1,2.13,5.12,7.18,7.18,0,0,1-1.25,4.32,6.53,6.53,0,0,1-3.58,2.42l5,7.19Zm-6-8.59a6.94,6.94,0,0,0,4.66-1.41,4.84,4.84,0,0,0,1.61-3.92,4.64,4.64,0,0,0-1.61-3.82,7.1,7.1,0,0,0-4.59-1.31h-5.73v10.41Z" transform="translate(0 0)"/><path class="cls-8" d="M174.29,128.79l-2.48-5.55H160.24l-2.44,5.55h-2.21L165,107.94h2.15l9.4,20.85ZM161,121.39h10l-5-11.27Z" transform="translate(0 0)"/><path class="cls-8" d="M193,107.89H208.8v1.9h-6.89v19h-2.06v-19H193Z" transform="translate(0 0)"/><path class="cls-8" d="M230.3,107.92h2.06v20.87H230.3Z" transform="translate(0 0)"/><path class="cls-8" d="M271.14,109.16a10.75,10.75,0,0,1,4,3.83,10.07,10.07,0,0,1,1.46,5.31,10.22,10.22,0,0,1-1.46,5.34,11,11,0,0,1-18.85,0,10.21,10.21,0,0,1-1.46-5.34,10.06,10.06,0,0,1,1.46-5.31,10.74,10.74,0,0,1,4-3.83,11.27,11.27,0,0,1,11,0Zm-9.86,1.6a8.78,8.78,0,0,0-3.22,3.16,8.4,8.4,0,0,0-1.19,4.38,8.55,8.55,0,0,0,1.19,4.41,8.81,8.81,0,0,0,3.22,3.21,8.63,8.63,0,0,0,4.41,1.18,8.49,8.49,0,0,0,4.37-1.18,8.85,8.85,0,0,0,3.21-3.21,8.55,8.55,0,0,0,1.19-4.41,8.4,8.4,0,0,0-1.19-4.38,8.82,8.82,0,0,0-3.2-3.13,8.58,8.58,0,0,0-4.4-1.2,8.72,8.72,0,0,0-4.38,1.2Z" transform="translate(0 0)"/><path class="cls-8" d="M314.11,107.92h2v20.87h-2.18L301,111.13v17.66H299V107.92h2.18l12.94,17.66Z" transform="translate(0 0)"/><path class="cls-8" d="M349.39,110.08a10.5,10.5,0,0,0-2.86-.43,6.2,6.2,0,0,0-3.44.85,2.64,2.64,0,0,0-1.3,2.31,3,3,0,0,0,.72,2.09,5,5,0,0,0,1.76,1.27,27.67,27.67,0,0,0,2.86,1,24.59,24.59,0,0,1,3.42,1.24,6.06,6.06,0,0,1,2.21,1.77,5.37,5.37,0,0,1,0,6,6,6,0,0,1-2.64,2,10.19,10.19,0,0,1-3.91.7A10.93,10.93,0,0,1,342,128a11.45,11.45,0,0,1-3.56-2.3l1-1.7a10.27,10.27,0,0,0,3.25,2.15,9.35,9.35,0,0,0,3.64.78,6.55,6.55,0,0,0,3.79-1,3,3,0,0,0,1.4-2.61,3.18,3.18,0,0,0-.72-2.15A4.74,4.74,0,0,0,349,119.9a22.94,22.94,0,0,0-2.92-1,29.88,29.88,0,0,1-3.4-1.24,5.74,5.74,0,0,1-2.18-1.73,4.74,4.74,0,0,1-.89-3,4.5,4.5,0,0,1,.89-2.77,5.67,5.67,0,0,1,2.51-1.83,10,10,0,0,1,3.73-.64,12.57,12.57,0,0,1,6.44,1.85l-.89,1.76A10.8,10.8,0,0,0,349.39,110.08Z" transform="translate(0 0)"/></svg>